<?xml version="1.0" encoding="UTF-8"?>
<svg id="Layer_1" data-name="Layer 1" xmlns="http://www.w3.org/2000/svg" viewBox="0 0 65.62 54.48">
  <defs>
    <style>
      .cls-1 {
        fill-rule: evenodd;
      }
    </style>
  </defs>
  <g id="Layer_2" data-name="Layer 2">
    <g id="Layer_1-2" data-name="Layer 1-2">
      <polygon class="cls-1" points="56.78 6.9 59.08 5.45 60.53 5.08 60.77 6.17 62.59 5.93 63.2 5.08 65.38 5.08 65.62 5.93 64.04 7.26 64.89 7.51 63.8 9.2 61.62 10.05 56.78 11.14 55.57 10.41 53.99 11.26 52.78 12.35 51.45 12.35 50.6 13.56 49.64 14.53 51.82 17.68 51.94 19.73 49.64 22.88 50.85 23.97 50.85 25.3 49.52 27.24 47.7 27.24 45.88 26.51 44.67 27.36 45.28 28.57 46.25 29.18 46.85 30.51 46.73 31.36 45.52 31.96 44.43 32.08 43.95 32.81 43.83 34.63 43.46 35.71 43.46 36.44 43.1 36.8 43.46 38.98 42.37 40.56 41.52 39.35 40.92 39.35 40.8 40.07 39.59 39.95 39.1 39.59 37.89 39.71 37.53 40.31 35.71 41.77 36.56 42.01 35.96 42.74 34.14 43.46 33.53 43.1 32.32 43.34 32.08 44.07 31.84 44.91 30.87 45.28 30.27 46.01 30.27 47.34 30.63 49.03 30.63 50 30.99 50.97 30.75 51.94 28.81 52.78 27.12 52.66 25.55 52.91 22.88 53.03 21.19 53.51 20.58 53.99 19.01 53.99 17.31 54.36 11.62 54.48 4.96 52.54 8.6 47.58 8.96 46.97 8.47 45.04 8.6 43.7 7.87 42.01 3.51 41.89 3.39 40.07 2.91 39.23 3.27 38.5 2.54 36.2 1.21 33.66 1.45 32.32 3.03 30.51 2.54 30.51 .85 30.14 .85 29.18 .6 27.36 .36 27.12 1.21 25.79 .48 25.18 0 24.45 1.09 24.21 2.3 23.37 2.3 22.76 2.54 22.52 1.94 21.67 2.3 20.82 2.18 20.22 2.18 18.77 2.18 18.77 2.66 18.52 3.75 18.77 4.48 19.37 5.33 19.37 5.93 18.77 6.78 18.77 7.87 19.61 8.23 20.34 8.6 20.7 9.08 20.22 10.53 19.98 11.26 19.13 11.38 18.52 12.11 17.92 11.74 17.31 13.32 16.46 15.25 16.1 15.38 15.62 16.22 15.01 16.95 14.77 17.31 13.44 17.31 12.23 18.4 11.02 18.4 10.05 18.04 9.69 18.04 9.08 18.52 8.84 19.13 8.47 20.34 8.11 20.82 8.11 22.28 7.02 23.37 6.66 24.45 7.26 25.55 7.02 25.79 7.38 27.48 6.9 28.45 7.51 29.06 8.35 29.78 8.35 30.63 7.63 31.48 7.75 32.57 9.08 33.29 9.44 34.87 9.08 35.96 8.47 36.56 7.63 37.05 7.51 37.65 7.02 38.14 7.38 38.62 8.11 40.44 8.23 40.31 7.51 39.83 7.02 39.95 6.29 41.04 6.05 41.4 5.45 41.89 5.45 42.01 6.05 43.1 5.93 43.83 4.84 43.58 3.51 43.95 2.78 44.55 2.3 44.79 .85 45.28 0 46.37 0 47.34 .6 48.18 1.09 48.18 1.82 47.94 3.03 48.18 3.87 49.03 3.87 49.4 4.72 49.4 6.05 49.52 7.02 49.52 8.96 50.24 9.93 50.24 10.65 51.21 11.02 52.42 11.02 53.27 10.29 53.51 9.81 55.21 9.08 55.93 8.35 56.17 7.38 56.78 6.9"/>
    </g>
  </g>
</svg>