<svg xmlns="http://www.w3.org/2000/svg" viewBox="0 0 40.8 80.27"><defs><style>.cls-1{fill-rule:evenodd;}</style></defs><g id="Layer_2" data-name="Layer 2"><g id="Layer_1-2" data-name="Layer 1"><polygon class="cls-1" points="29.78 21.55 28.69 29.18 30.39 37.41 33.9 43.58 36.2 48.79 40.8 52.18 39.95 57.99 36.44 64.29 27.72 67.19 27.36 72.28 24.33 78.81 21.43 80.27 17.55 77.6 13.56 67.19 5.57 66.95 3.15 64.17 4.84 59.2 2.54 55.21 2.54 49.76 4.48 45.16 1.82 38.14 3.87 28.33 5.81 27.36 6.54 23.97 0 20.82 0.48 12.71 3.51 6.29 8.11 0.73 9.69 0.97 12.35 4.96 16.22 0.24 16.34 0 17.92 1.09 20.94 6.05 22.88 6.54 27.48 9.56 28.81 12.83 28.69 19.61 29.78 21.55"/></g></g></svg>