<svg xmlns="http://www.w3.org/2000/svg" viewBox="0 0 56.17 54.48"><defs><style>.cls-1{fill-rule:evenodd;}</style></defs><g id="Layer_2" data-name="Layer 2"><g id="Layer_1-2" data-name="Layer 1"><polygon class="cls-1" points="56.17 42.01 55.81 41.65 55.45 41.28 55.21 41.04 54.6 39.83 54.24 39.23 53.75 38.98 52.78 38.86 51.57 38.86 51.33 38.5 51.21 38.01 50.85 37.65 50.85 36.92 50.97 36.56 50.73 35.84 50.6 35.71 50 34.5 49.4 33.66 49.03 33.29 49.15 33.05 49.4 32.81 50 32.32 50.36 31.96 50.24 30.99 49.88 30.27 50 30.02 50.24 28.45 50 27.6 49.88 26.27 49.88 25.91 49.76 24.94 49.76 23.12 49.4 22.4 49.15 22.16 49.15 21.31 49.4 21.07 47.7 15.38 46.97 14.65 46.49 14.53 46.25 14.29 45.64 14.04 45.4 13.32 44.55 12.59 44.31 12.47 43.95 11.98 44.07 11.62 43.7 10.9 43.58 10.78 43.83 9.44 44.55 8.72 44.91 8.6 45.16 8.23 45.52 7.99 45.64 7.02 46.01 6.78 45.52 6.42 45.76 5.93 46.01 5.69 46.01 5.57 45.64 5.21 45.52 4.36 46.01 3.15 46.01 2.18 46.01 1.33 46.01 1.09 46.01 0.6 45.88 0.48 45.16 0.6 44.67 0.6 43.46 0.85 42.86 0.36 42.13 0.12 42.13 0.36 41.65 0.85 40.68 0.73 40.56 0.24 40.19 0 39.59 0.12 39.47 0.48 38.98 0.6 38.62 1.09 38.26 0.85 37.89 0.85 37.29 1.33 36.68 1.33 36.32 0.73 35.59 0.73 35.23 0.6 34.5 0.73 33.9 0.73 33.53 0.73 33.05 0.6 32.69 0.6 32.45 1.21 31.84 1.21 31.36 0.97 30.63 1.7 30.14 1.7 29.54 1.33 28.93 1.57 27.84 1.57 27.24 1.45 25.91 2.54 25.06 2.66 24.7 2.66 24.09 3.03 23.97 3.51 23.61 4 23.37 4 23.12 3.75 22.76 3.75 22.52 4 22.28 4.24 21.55 4.24 20.82 4.6 20.46 4.96 20.46 5.33 19.86 5.81 19.01 6.17 18.28 6.17 18.4 6.42 18.64 6.78 18.89 7.14 19.01 7.75 19.13 7.87 19.13 8.84 19.13 9.93 19.25 10.41 19.49 12.47 19.86 13.2 19.98 13.8 20.46 13.92 20.7 14.16 21.07 14.16 21.31 14.41 20.94 15.13 21.07 15.38 20.58 15.86 17.31 15.86 16.71 15.98 15.98 17.07 15.38 17.55 15.13 18.28 15.13 19.13 14.89 19.61 12.95 21.07 9.93 22.76 7.75 24.09 6.66 24.33 5.57 24.33 5.08 24.45 4.24 24.45 2.66 24.82 1.94 25.3 1.33 26.03 0.12 27 0 29.42 0 29.42 0 30.14 0 30.14 0 30.14 10.17 36.92 10.17 36.92 28.45 49.15 28.81 50.48 29.42 50.97 30.39 50.97 31.23 51.21 31.72 51.82 32.45 52.06 32.93 52.54 32.93 53.03 32.69 53.87 32.81 54.24 33.53 54.48 34.87 54.36 35.84 53.99 35.84 53.99 40.19 53.03 43.58 49.76 56.17 42.01 56.17 42.01"/></g></g></svg>