<svg xmlns="http://www.w3.org/2000/svg" viewBox="0 0 56.17 55.45"><defs><style>.cls-1{fill-rule:evenodd;}</style></defs><g id="Layer_2" data-name="Layer 2"><g id="Layer_1-2" data-name="Layer 1"><polygon class="cls-1" points="52.06 53.87 51.82 53.15 51.33 52.91 50.73 52.18 50.36 51.7 49.76 51.45 49.15 50.97 48.3 49.88 47.7 49.52 47.34 49.03 46.73 48.55 46.13 47.82 46.01 47.22 46.25 32.33 55.81 32.33 55.57 31.84 55.81 30.63 56.17 30.27 56.05 29.54 55.57 28.69 55.57 27.72 55.69 26.15 55.33 24.21 55.57 23.97 55.69 23.61 55.57 23.37 54.84 23.37 54.12 23.73 53.27 24.09 52.91 24.21 52.42 24.33 52.06 24.21 50.85 24.21 50.36 24.09 49.76 23.61 49.27 23.61 49.03 23.73 48.67 23.85 48.43 24.21 47.94 24.33 47.82 23.97 47.82 23.12 48.06 22.76 48.06 22.64 48.3 21.91 47.82 21.43 47.58 20.58 47.82 20.34 47.82 19.86 47.34 19.25 47.34 18.77 47.46 18.16 47.34 17.68 46.97 17.55 46.73 17.07 46.49 16.83 46.49 16.34 46.01 15.86 46.01 15.38 45.76 15.01 46.13 14.04 46.01 12.47 45.88 11.86 45.88 11.62 46.13 11.26 46.13 10.65 45.64 9.93 45.88 9.2 46.25 8.47 46.25 7.75 46.25 7.14 46.13 6.54 40.92 6.17 40.8 5.69 41.16 5.21 41.16 4.72 39.83 4.6 39.83 4.96 35.47 5.08 35.35 6.42 34.99 7.02 34.63 7.26 34.75 8.11 34.75 9.32 31.36 9.56 30.75 9.93 29.3 9.81 28.81 9.69 27.97 9.81 26.75 9.93 26.27 9.69 26.03 7.99 25.42 7.14 25.06 6.66 24.7 6.3 24.58 5.81 24.45 5.45 24.21 4.36 23.73 3.51 23.73 2.91 23.97 2.42 23.85 1.94 23.49 1.45 23.37 0.97 23.49 0.73 23.49 0.12 18.77 0 15.62 0 14.04 0.24 12.71 0.12 11.98 0 10.65 0.12 9.56 0.12 8.72 0.12 8.11 0.12 7.38 0 6.66 0.24 5.93 0.36 5.69 0.6 5.33 0.6 5.08 0.73 5.08 0.85 4.96 0.85 3.63 1.45 4.12 2.06 4.12 2.78 6.66 5.45 6.66 8.96 8.11 10.9 7.87 12.59 6.42 14.41 7.26 14.89 7.26 16.46 7.99 17.55 7.99 18.77 9.69 21.55 9.56 22.28 10.05 22.88 10.05 26.88 8.35 30.14 7.75 30.14 5.81 31.72 5.81 32.81 3.27 34.87 3.27 36.44 2.91 36.8 2.91 40.31 1.82 41.77 1.45 43.46 0.24 44.91 0.24 46.61 0.12 47.94 0.12 50.12 0 51.57 0 52.06 0 52.06 0.73 52.18 0.97 52.42 1.33 52.18 1.45 51.7 1.7 51.57 2.78 51.7 3.39 52.06 3.87 51.7 4 51.09 5.21 50.24 5.81 50.12 6.54 50.48 6.78 50.6 7.02 50.36 7.38 50.24 7.87 50.6 7.99 50.85 8.47 51.09 8.35 51.45 8.72 51.57 9.69 52.54 10.65 52.91 11.38 52.42 11.62 52.54 12.23 52.06 12.59 52.06 12.95 52.18 29.66 52.18 29.9 52.42 30.39 53.27 30.75 53.51 31.6 53.99 32.57 54.24 33.29 54.12 33.78 54.24 33.9 54.6 34.5 54.84 35.11 54.36 35.96 54.24 37.05 54.48 37.65 54.36 37.77 53.87 38.01 53.99 38.5 53.99 39.47 54.96 40.19 55.33 41.16 55.33 41.52 55.21 41.52 54.84 42.01 54.72 42.49 54.84 42.86 55.09 43.22 54.96 43.46 55.21 43.83 55.33 43.95 55.45 44.43 55.45 44.79 55.45 45.04 55.45 52.06 53.87"/></g></g></svg>