<svg xmlns="http://www.w3.org/2000/svg" viewBox="0 0 32.45 83.9"><defs><style>.cls-1{fill-rule:evenodd;}</style></defs><g id="Layer_2" data-name="Layer 2"><g id="Layer_1-2" data-name="Layer 1"><path class="cls-1" d="M5,2.06l.25-.37L5.57,1,6.42.24,6.9,0l.49.48L8,.36h.36l.49.12L9.56.24l.37.12.12.49.24.84.12.25.24-.25-.12-.36L10.77,1V.61l.37-.49h2.18l.48.49.49.48h.36l.48,1,1.21,1.21.49.12.48.36.37.61,1.21.24.84.36.37.12.84.73.85.49L23,6.54l.49.48.6.49.24.48-.12.48L24,9l-.36.24-.24.36.12.37-.25.84-.72.61-.12.48h.36l1.45-.24,1.21.37.85.48.49-.24H27l.24.24L27.6,12l.24-.13.37.13.36-.49.24-.48.85-.61.12-.48.37-.49.36-.36V8.35l-.12-.12.12-.6L31,7.26l.85.13.12.48.36.85-.12.72.12.73.13.73-.13.36-.48-.12-.48.36v.12l-.37.24-.12-.12-.85.61-.12.24-.36.12-.73.61-.24.12v.48l-.24.12-.24-.12-.73.85-.12.24v.49l-.24.12-.12.24-.49.73-.24.24-.36.6v.25l-.37.24-.12.24-.12.48-.36.49.12.6L24.7,20l.12.36v1l-.12.24v.36l-.24.49.24.6-.24.24.12.85.24.73-.12.24-.37.24v.24h0l-.12.85.12.73-.12.24.25.24V28l-.13.12.25.36.84.61.85.36,1.09.85.24.24-.12.36L27,32v.24l.36.61.48.36h.49l.24-.24h.12V34.5l-.48.61-.12.6L28,36l-.13-.25-.12.13-.24.6.12.48-.12.49-1.09.6-.85.37-.12-.24-.12.24-1.21.48-1.45.37-.85.12-.6-.12-.73.12H20.1L19.61,39l-.48-.12h-.24l-.25-.24-.12.12v.36l.12.25V40l.12.36v.25h.37v.6H19v.12l-.37.37.12.24-.24.24v.36l.24.49.37.12-.12.24-.12.24.12.25-.12.48-.37.24v.12l-.72.49H16.71L16.1,45l-.72-.61-.73-.24-.49.12L14,44.19l.12-.24h-.24l-.48.48V45l.48.48.12.73v1l.12.36.49.24h.85l-.25.24-.24.12.37.13.6-.25.12-.12-.36-.12-.12-.12.12-.12h.36l.36-.24h.37l.24.48-.12.36h-.12l.24.37.24.36-.12.48-.85.37H16.1L16,49.27v-.36l-.48-.24-.49.12-.36.36-.12.12.12.37h.48l.61.12V50l-.49.48-.6.13-.24.36.12.12-.12.36-.37.37.12.48.25.24v.24l-.12.25.48.6v.12l-.24.37h.12l-.49.36-.12.36V55l.37.25.12.12v.24l-.61.12-.36-.12-.61.12-.36.36-.48.12-.37.37H11.5l-.12.48-.12.37-.49.36V58l.25.36v.37l.36.72.48.37.25.12.48.48.85.73.72-.12.37.12.12-.12.36.12.12.12L15,61.5v.24l.24.49v.24l-.36.36h.24l.37.37-.25.12-.12.24.12.24-.36.36-.36.13v.36h-.24L14,65l-.12.49h-.48L13,66v.48l-.12.49-.36.24-.12.24.24-.12.24.12L13,68l-.12.36-.36.37v.36l-.48.36-.25-.12L11.38,69l-.24-.12.24.24v.36l.12.24-.12.25-.48.48-.25.61v.6l.37.61.36,1v.25l.12.12v.24l-.36.12.24.24.24-.12.37.37v.48l.72.36.36.37.13.36H13l-.48-.24L12,75.3l-.49-.12-.12-.12H8.72l-1.46.24L7,75.06h-1l-.36-.85-.24-.72-.37-.37L5,71.91v-.6l-.48.12-.61.24L3.51,72H3l-.85-1.69-.12-.73L2.3,67.8l.48-.61.61-.73.24-1-.24-1.09-.24-.73.24-1,.36-.48-.36-1v-.49l.36-.36-.24-.85-.12-1.09-.24-.6v-.36L3.63,57v-.36l-.36-.85-.73-.36H2.18l-.12.12-.24-.24L1.94,55h.84l.49-.48v-.61H3L2.66,54H2.3l-.24-1-.37-.85V51l-.6-.24L1,50.12.85,48.55l.36-.24.24-.49-.24-.48-.36-.12-.24-1V44.92l.12-1.58-.49-.6V42L1,41,1.09,40l.48-.24.37-.36L.73,36.92l.12-.72V34.14l.36-.73.48-.6-.12-.73-.36-.6L1,31.23l.48-.72-.12-.73.24-.85.49-.12.12-1-.24-1.58L1.69,26l-.24-1.21-.36-.61-.48-.72v-.37l-.37-.6-.24-1,.12-.73.49-.24V19.49L1,19.13v-.85l-.36-.73V16.34L.85,16,1,14.53,1.45,14l.49-1.33.48-.6.49-.25.24-.36L3,11.38l-.12-.61-.13-.24-.24-.24.12-.36L3,9.56V9.08L2.54,8.6l-.12-.73.24-.48L2.54,7l-.36-.36.12-.49L4.72,5l.61-2.3ZM21.67,82.93h0l.24.24.49-.24.36-.12.36-.36h-.48l-.24.24h-.49Zm-9.08-6.54h0l.36.49.61.6.24,1-.24-.12-.24.12-.25.24Zm.61,2.42h0l.36.25.48-.13.25.37.24.72H15l.61.49V81l.48.12,1.58.49.12.24.6.12.49.49h.36l.85-.13.36.13v.36l-.48.24-.25-.12-.36.12-.12.36-.36.37-.49.12-.48-.12-.37-.24-.84-.13H15.25l-.72.13h-.12l-.25-.73h1l.49-.24H16l.12-.12H15l-.72.24-.13-.12Z"/></g></g></svg>