<svg xmlns="http://www.w3.org/2000/svg" viewBox="0 0 65.62 55.57"><defs><style>.cls-1{fill-rule:evenodd;}</style></defs><g id="Layer_2" data-name="Layer 2"><g id="Layer_1-2" data-name="Layer 1"><polygon class="cls-1" points="0 3.75 5.69 1.82 13.8 0 16.22 0.48 26.51 0.24 30.99 4.48 37.53 5.21 41.28 8.96 39.95 13.2 40.19 16.83 47.58 22.88 47.82 26.63 45.52 29.3 47.82 34.75 56.05 39.23 61.38 39.59 65.62 43.46 61.02 44.55 63.68 49.27 62.35 50.85 62.35 54.84 58.23 55.57 50 43.22 45.52 41.89 42.62 36.08 39.47 36.08 37.29 37.89 32.57 33.41 29.66 34.99 26.51 35.11 25.18 32.93 21.91 29.78 18.4 30.02 12.71 29.78 7.51 26.63 7.26 19.37 8.35 13.68 6.42 9.93 3.15 9.08 2.91 6.9 0 3.75"/></g></g></svg>