<svg xmlns="http://www.w3.org/2000/svg" viewBox="0 0 65.62 31.72"><defs><style>.cls-1{fill-rule:evenodd;}</style></defs><g id="Layer_2" data-name="Layer 2"><g id="Layer_1-2" data-name="Layer 1"><polygon class="cls-1" points="38.38 30.02 39.95 30.27 44.19 30.27 45.4 31.72 47.58 30.75 49.64 30.75 51.82 29.78 53.15 29.66 54.12 29.78 58.23 27.36 61.02 26.51 62.47 24.7 61.38 22.88 61.62 21.19 62.47 19.01 60.77 17.07 61.14 16.22 65.25 16.22 65.62 14.41 65.25 12.47 64.53 7.26 64.77 4.24 61.14 3.39 59.44 2.18 56.9 2.66 54.24 2.54 51.94 0.97 48.55 0.85 46.61 0 45.88 1.82 44.91 2.66 44.79 4.12 42.25 4.24 41.28 5.33 36.56 2.54 35.23 2.42 34.99 4.12 34.99 6.05 33.53 6.05 32.45 7.87 30.27 8.96 27.72 12.11 27.72 13.32 30.02 14.53 30.39 16.22 29.42 16.95 27.24 15.74 25.18 16.34 23 15.74 21.55 15.98 18.52 17.92 16.95 18.28 15.38 17.8 13.8 18.16 12.47 17.31 9.81 16.83 7.38 17.19 7.51 18.52 6.9 19.25 4.6 18.64 3.27 17.19 1.57 17.8 0.48 18.4 0 18.4 1.21 19.25 1.09 20.58 2.06 21.31 2.06 23.12 3.51 23.25 4.72 22.76 6.66 24.58 8.23 23.12 9.81 23.12 10.53 24.7 10.53 24.58 13.68 26.03 18.64 23.12 20.7 23.73 23.85 23.37 23.61 25.3 28.21 28.09 34.02 29.18 37.05 28.81 38.5 30.02 38.38 30.02"/></g></g></svg>