<svg xmlns="http://www.w3.org/2000/svg" viewBox="0 0 65.5 70.34"><defs><style>.cls-1{fill-rule:evenodd;}</style></defs><g id="Layer_2" data-name="Layer 2"><g id="Layer_1-2" data-name="Layer 1"><path class="cls-1" d="M64.77,33.54l.12-.61.12.36Zm.12-4h0l-.12-.48.12-.37v-.24l.24-.36.25-.37-.13-.24.13-.24.12.12v.73l-.37.48L65,29.3l.12.24ZM62.23,24.7h0l.24.48.24.24v-.24l-.12-.24v-.12h-.12l-.12-.12Zm-.37-2.3h0l-.12-.12-.12.12Zm-6.17-7h0l.12-.37-.24-.24h.24l.12-.12v.48l-.12.37ZM50.36,0h0l.12.24L50.61,0Zm-.24.85h0v.36l.12-.12h.24L50.36.85Zm-5.2,11.62h0l.12.12.12-.12v-.12Zm-.37-.73h0l.12.12h.25l.24-.24.24-.12.12-.12L45,11.26l-.37.24-.12.24Zm-3.27-1.57h0l-.12-.12.12-.36.12.24ZM40.19,6.78h0V6.54l-.12.12V6.54l.12-.24.25.24Zm.49.36h0l-.24.12h.12l.24-.12.48.12L41.4,7l-.12-.12L41.16,7,41,6.9l.24-.24V6.54L41,6.66V6.42l-.24.12v.12h-.24v.12Zm.24-5h0L41,2.3l.12-.24.24-.24-.12-.25-.36.37Zm-.36.24h0l.12.12V2.42Zm-.25.12h0v.12l.13-.12Zm-.6.37h.12V2.78Zm-.36.48h0l-.12-.24L39.59,3l.24-.12-.12.24h-.24Zm-.61.12h.12l.37-.12H39.1ZM34.62,2.18h0l-.12-.36V1.57h.25v.25Zm-3.51-.24h0v.48l.25.24L31.6,3l.48.12.49-.61h.24V2.42l.12-.12-.12-.12-.12-.24h-.12l-.25.12H32l-.24.24-.12-.12-.12-.12h-.12l-.25-.12h0ZM31,2.06h0l.12.6.25.12h-.49l-.24-.12V2.54l.12-.12.12.12V2.42h-.12V2.18h0ZM20.7,9h0l.12.24.25-.12-.25-.24s-.12.24-.12.12Zm0,1.21h0V9.81l-.12-.25v.49Zm1.46-2.42h-.25L22,7.51l.13.12ZM5,18.89H5v-.25l.25-.36v.36ZM.24,27.24h0l.12-.73V27l-.12.24ZM.12,28.45h0L0,27.85l.12-.37L.24,28ZM36,49.39h0l-.12.25.12.12h.24l-.12.12h.36l.24.12-.12.12H36l-.12.12h-.25v.12h-.12l-.12-.24-.24.12h-.73L34.14,50v-.12l.36-.24.85-.25.36.13ZM46.49,57h.12l.12.12-.12.12Zm1.57,1.09h0l.25.12v-.12Zm-3.87,4.36h0l.12.24h.24l.12-.12-.24-.24Zm.12-.61h0l.12.25h.12v-.37Zm-.12.37h0L44,62.11v-.25l.24-.12v.49ZM43.1,61h0v-.49l.12-.24v-.36l.24-.24.12-.13.25.13-.13.48.13.24-.25.36v.13l-.24.24Zm6.42.84h0l.6-.24v-.36l-.6-.49-.25.13.12.24-.12.24.12.24Zm-.37.37h0l.12.12.49.12H50l.12-.12L49.76,62l-.37.12Zm.37.72h0l-.13-.12.13-.12ZM47.7,68.16h0v-.24l.24.12ZM45.88,70.1h0L45.64,70l.24-.37v-.24l.25-.12v.12l-.13.24Zm-2.05-.25h0v-.24l.12-.24-.25-.12-.12-.36.12-.25-.24-.12v-.84l.12-.13-.24-.24v-.6l.12-.25.24.25h.37l-.37-.25v-.24h-.12l.12-.48-.12-.61v-.72L43.7,64l-.12-.6v-.36L43.7,63v-.36l.13-.12.24.24.36.12.24.25v-.25l.12-.12v.49l.61.24.48.48.25.12.24-.12h.24l.24.24v-.24l.24-.24,1,.12.12-.12.25-.12h.24l.24-.24H49l.36.24-.12.24-.12.85-.24.36v.61l-.24.36v.85l-.12.36L48.43,67l-.12-.49-.13.25-.24.24v.6l-.12.25h-.24v.36l-.24.24.24.12v.25l-.36.48h-.13l-.36.12v-.48l.36.12v-.24L47,68.64h-.24l-.24.37-.12-.12v-.37l-.12.37-.37.24-.12.12-.12-.12-.24.48v.24l-.24.49h-.37l-.12-.24v-.37l-.24.37-.24-.25L44,70s-.25-.13-.12-.13ZM.73,44.67h0l.24.12h.24l.61.73v.24l.12.12L2.3,46l.12.13.49.12h.24l.12.12H4l.12.12.12-.12.12.12.48-.12h.37l.12-.24h.24l.24-.37H6.3v-.24l.24-.24h.24l.24.24.36-.36.13.12.12-.12.12-.37.85-.48H9l.24.12.24-.24.85-.12.12.12.61-.12.12.12h.24l.36-.12.12.36H12l.36-.12.12.24.24-.24h.61v.24l.12.12.36-.36.36.12.37-.36.12-.37h.24l.36-.36.13-.6.36-.25.48-.24.24.12.61-.24.85-.48.6-.49.25-.12h.48l.48.24h.37l.36-.12.61.12,1-.36.49-.12.36-.24h.24l.49-.37h.6L26,40l.6.24H27l.48-.24.37.12.48.49.36.6.37.12L29.3,41h.12l.12.12.24-.12.37.12.24.37.48.12.12-.12.73.48-.12.36h.24l.24.24-.12.25h-.24v.24l.24.6h.24l.37.37.12.48v.37l.24.72-.12.36.24.25-.12.36-.12.24-.24-.12v.12l.24.24.24.25.12.24h.24l.25.12v-.24l-.12-.24.24-.25.12-.24.24-.12.12-.24.36-.12V46l.37-.36.6-.36.12-.24h.13l.48-.25.24-.48.36-.61.49-.12.12-.24L37.41,43l.12-.37.24.37v.85l-.24.24-.12.85-.61.48-.12.36-.24.24.12.37-.48.48.12.24-.24.73-.73-.12-.24.48-.12.37v.12l.48-.12.49-.24.48.24.6-1,.13-.85.36-.48.12.24.12.73.12.48h-.12v.73l-.36.72-.61.24.12.25.37-.12h.48l.12-.13.37-.12.24-.24.36.12.12-.12-.12.36-.12.25h-.36v.12l.24.48.12.37.24.48v.6l-.12.73-.36.36.12.25-.12.6.24.24.24.37.12.6.61.73.36.12.36.24.13.37h.36v-.13l.24-.12.49.12.24.49h.36l.49.36v.37l.36.12.36.36h.24v-.24l.73-.24.12-.25.36-.12.49-.36.24.12.12-.24v-.12l-.36-.12.12-.25.6-.36.49.36v.37l-.61.36L46,57l.25.12.24-.24.24-.24.36.12-.12.36h-.12l-.24.25.36.48.12.6.13-.12h.24v.37l.24.36.24-.48v-.37l-.24.12-.12-.12.24-.24h.73l.12.24.12-.24.36-.6L50,56.9l.48-.36h-.24l-.12.12v-.12l-.24-.12h.73l.6-.25,1.21-.24,1,.24.48-.24v-.24h.25l.36-.24.24-.61-.12-.6v-.37l.61-.48v-1l.24-.36.12-.61.24-.24V51l1-1.21.24-.12.24-.61.37-.48.24-.73.36-.36v-.37l.24-.12.25-.72-.12-.12.48-.25.24-.48.24-.24.25-.49.48-.24.36-.12h-.48l.12-.12h.48l.61-.36v-1l.61-.37v-.36l.36-.12.36-.61L62.59,41l.24-.48-.12-.12v-.25l.49-1.09.12-.48.6-1.09-.12-.36.36-.85.49-.36.12-.37-.12-.48.24-.36L64.65,34v-.36l-.12-.61-.12-.24v-.36l.12-.13V32l.24-.48V30.39l.12-.37-.12-.12-.12-.36v-.61h-.12l.24-.36-.36-.12-.12-.36v-.37l-.37-.36-.24-.48-.12-.37-.24-.36L63.2,26l-.25.12L62.71,26l-.12-.49h-.12V25.3l-.36-.36-.25-.24.13-.24-.25-.37.25-.36.12-.49L62,23l.12-.36-.25-.12-.12.24.12.12-.12.12L61,22.4,60.9,22h-.13v.25l-.12.24.12.48-.24-.36-.24.24v-.36l-.12-.24v-1h0v-.24l-.24-.25.12-.24-.24-.24.12-.24-.61-.49-.12-.24V19h.24v-.24l-.24-.49h-.36l-.37-.48h-.24L58,17.55l-.24.25-.12-.25-.37-.12-.24.25.24-.37h.25l.12-.24-.12-.24-.37.12-.24-.12-.12-.12h-.24l-.61-.37-.24-.6-.12-.61-.24-.36.12-.36h.12l.12-.61-.24-1-.12-.36h.12l-.12-.24H55l-.24-.61v-.85l.12-.12v-.12l-.12-.24-.12-1,.12-.24-.12-.36.12-.12V8.47l-.48-.6-.37-.24L54,7.51l-.37-.37-.36.25-.12-.13-.24.37h-.25l-.36-.49.12-.24-.24-.48.12-.61-.12-.73-.12.13-.12-.37.12-.24-.24-.36V4l-.13-.13V3.51l.13-.24-.13-.12-.36.12L51.21,3l.12-.73-.12-.24-.12-.49h-.36V1.33l-.37.12-.12.24V2.3L50,2.78v.49h-.24l-.12.48-.37.37.25.24.36.24-.24.12h-.25l-.12.36-.12.25.24.48v.24l-.24-.12L49,6.05l-.24.85.24.49-.12.6.12.36v.49l-.36.36v.24l-.36.61v.85l-.25.36v.36l-.12.49-.24.24-.12.6-.49.49-1,.36-.49-.36h-.36L45,13.2l-.37-.37v-.12l-.12-.24-.12-.36h-.36L43.7,12h-.48l-.48-.37-.12-.24-.37-.48h-.36l-.36-.25v-.24h-.25L41,10.29h-.36l-.24-.12.12-.12-.49-.36V9.44L39.59,9h-.24L39,8.47V8.11l.37-.48V7.26L39.71,7l.12-.48L40,6.3l-.36.24-.12-.49.24-.24V5.45l.12.12.24-.12.12.12h.25l.36-.12.12-.37-.24-.24.24-.24.24.12.12-.6h.25l.24-.37V3.63l-.37-.24-.24.24H41L40.92,3l-.24.12-.37.48.13.12v.12l-.25.25L40,3.87V3.75l-.12-.24-.12.24h-.24V3.63l.12-.24.12-.12-.24.12-.12.12L39,3.63l-.12.12-.12.12-.12-.24h-.36V3.51L38,3.15h-.12l-.36.24-.24-.12-.24.12-.13-.24L36.8,3l-.12-.25-.36.13-.48-.13-.25-.12V2.42l-.24-.24h-.12V2.3l-.48.12-.13-.24-.24-.12-.48-.24v.12l-.24-.12-.37.12.37.24-.12.12.36.12.24-.12.48.36v.73h-.24l-.12.36-.12-.24H33.9l-.24.12-1,.12-.37-.36v.12L32,3.63V4l-.36-.13.12.49-.12-.12-.37-.12-.12.12.12.24V4.6l-.36-.12-.24.24.12.12L30.63,5l-.24.12v.25l.24.24v.24l-.24-.24-.24.24H29.9l-.36.49-.24.48h-.12l-.12.48-.25.13.25.24.48.12H29.3L29.18,8l.72.24-.24.12h-.48l-.12-.24v.24l.24.12v.37l.36.36L29.18,9l-.25-.49-.24-.12-.12.25-.12.24V8.6l-.6-.49-.61.12.24.12-.24.25-.12-.13H27l-.12.13L27,9V9h-.24V9.2l-.25.12L26,9.44l.36-.12L26.63,9V8.47l.25-.36-.25-.24h-.24L25.91,7l-.24-.36-.37-.12-.36-.12-.12.12.12.12H24.7L24.58,7h-.25V6.78l-.24.12L24,7.14l-.24-.48-.12-.12V6.9l.12.12-.24.24-.12.25.12.24L23.12,8,23,7.75h-.24V7.51L23,7.26h-.24l-.12.37-.36.12-.12.12L22,8.23l.49.12-.36.37-.37-.12-.36.24.12.24H22l-.24.24-.24.12-.24-.36-.24.24-.37.12v.25l.12.12v.24l.25-.12-.25.36.12.24-.24.12-.12.25.49.12-.37.12v.12h-.36L20.22,11,20,10.9l-.25.12-.12-.25-.36-.12-.24.12.48.37h-.24l-.12.36.36.24h.36l-.24.25v.36l-.12-.12h-.12v.36l-.12.36v.37l-.61-1.09-.24-.73-.24-.24.12-.36-.12.12-.36.36-.12.36-.25.12V12h-.36l-.12.24-.24.24v1.21l.12.12V14l-.24.25-.25.24-.36.12v.24l-.36.24v.37l-.24.24-.49.72-1,.49-.84.12-.25.12h-.48l-.49.12-.36-.12-.48.24v.25l-.37.24L9.56,17.8,9.32,18l-.12.24-.6.24H8.11l-.36-.12H7.51v-.12l-.37.12-.24.37-.6.12L6.17,19H6.05l-.6.48-.73.36-.85.25-.48.6v.49L3,21.55l-.25-.12.13-.24v-.25L3,20.58v-.36l-.49.36-.12.49-.36.72.24.49-.24.36.12.85-.61.72L1.33,25.3l.12.49-.12.84.61,1V28l.24.24-.24.48.12.37-.37.12-.12-.25v-.48l-.24.24v-.6L1,27.36l-.24.36.12.73.48.48.24.61H1.09l-.36-.48v-.61l-.25.24-.12.12.25.61.6.6.36,1-.12,1.58.24.36.13,1,.48,1.21-.12.36v2.06L2.3,38v.61l.36.73v.48L2.3,40l.24.24-.12.37-.12.72-.24.25.12.24-.12.36-.24.24v.49l-.49.36L1.09,43l-.36.6Z"/></g></g></svg>