<svg xmlns="http://www.w3.org/2000/svg" viewBox="0 0 65.62 54.12"><defs><style>.cls-1{fill-rule:evenodd;}</style></defs><g id="Layer_2" data-name="Layer 2"><g id="Layer_1-2" data-name="Layer 1"><path class="cls-1" d="M.73,11.26.85,9.2,5.33,7.51l6.78,3.75,4.48.24,4.23,2.18.73-4.24L19.85,7,16.71,5.08,17.92.73l3.51.36,5.45,4.48,1.57,3L34,9.08,35,7,38.5,5.08,42.61,0l2.55,1.82,3.63,4.84L49,9l1.45,3.39,4.12,2.78L55,17.07,57.63,19h3.14l3.15,1.21,1.7,2.54-1.82-.24-1.69,1.21L59,23.85l-3.63,3L55.57,30l.48,2.43L55,33.9l-.24,2.18.73,1.33V39.1l-1.09,1v4.12l-.73,1.57-.72-1.33.72-2.54-1.57-1.82-1,.85-.73,1.94L51.21,46,51,47.82l.6,1.09-.12,4.48-1,.73-1.93-.49L47.7,52.3l-1.94-1-4-4.36,3.87-2.66-2.78-1.7-.61-1.21,1.45-1.21-1.57-1.57L41,36.8,40,36.56l-.24-.72H38.5l-2.3,1.69-1.7.36-1.45,1.94-1.45.61-2.06,2.9H28.33l-.85,1.21-.36,1.33-2.06,1-1.69-.6h.12V43.7l.84-1.09-1.69-3,2.9-.73-2.78-2.54-3.39-.24L14,33.17l-1.57-3.63L14,27.84l-.24-2.42L9,21.43,8.84,19l.85-2.67L7.26,13.92,3,13.32Zm20,35.47h0l-5.32-8.11-2.91-.85L10.53,34H8.47L7.14,35.23,4,32.32l-1.94,1L0,33.41l.48.85H1L2.66,36.2l1.58-.12.84,2.18L4.84,40l5.21,2.79.36,2.3,3.15,1.57,3.15.12L20,48.67Z"/></g></g></svg>