<svg xmlns="http://www.w3.org/2000/svg" viewBox="0 0 65.62 77.97"><defs><style>.cls-1{fill-rule:evenodd;}</style></defs><g id="Layer_2" data-name="Layer 2"><g id="Layer_1-2" data-name="Layer 1"><path class="cls-1" d="M61.38,70l1.21.84V68.64Zm-7.87,8h0l5.93-.61,1.94-2.54V72l-.85.49-1.45,1.69-2.3-1.33L54,74.58Zm6.66-19.13h0L62.11,58l3.51,1.94-.12,1-2.18-1.09-2.18.24Zm-6.42-5.57h0l-2.18.6.12,1.94-2.3,2.54-1.21.12-.24,1.34H49l5-2.91.24-2.66Zm-6.66-1.94h0l2.79,1.45.24,1.94-1.69-.36L47,52.66Zm-9-9.08h0l2,3.63.61,2.79,2.06,3.75-1.46-.24L40,50.48,38,47.34l1.34-.73-1.58-3ZM29.9,41.16h0l-.36,1.94h1.82Zm18-4.72h0l-1.45,2.3,1.21,1.09,1-1.94ZM35.23,30h0l-.36,1.46,1.69,1.93.49,3.15-1,1.09,1,1.33,2.78-.24L40,37.41l-1.81-3.27-.61-2.42ZM25.91,20.1h0l3.27,1.81,2.05,3-1,3.63-1.21.36L28,27.72,29.42,27l.73-1.7-1.7-2.42-2.78-1.09Zm-12-20h0L17.19,0,20.7,2.42l.37,2.3,1.69,1.09V9l-2.3,1.45.24,1.94-1.93,2.06.84-3.88-.72-2.18L20.46,6.9,17.8,3.63l-.37-2.3ZM0,2.42H3L4.36,3.51,7.63,1.45h3.63l2.42,2.3-1.82-.24L9.56,3,5.33,6.17,3,5.69Zm14.29,22h0l2.9-1.58,2.66.73-1,1.69-3.15-.12ZM11.14,35.59h0l-.73-1.21,2.06-.6Zm-2.3.61h0l1-1,.24,1.45Zm.48-3.39h0L12.11,31l-2.06-3.63L9.56,24.7,8,24l-.85,3.15L5.33,30.27,6.9,31.84l1.94-1.09ZM12.59,36h0l-2.9,1.69v1.94l1.21,2.9L12.83,42l1-1.94-.6-1.57.36-1.58Z"/></g></g></svg>