<svg xmlns="http://www.w3.org/2000/svg" viewBox="0 0 65.5 85.71"><defs><style>.cls-1{fill-rule:evenodd;}</style></defs><g id="Layer_2" data-name="Layer 2"><g id="Layer_1-2" data-name="Layer 1"><path class="cls-1" d="M65.5,70.22v3l-1.34,3.15-1.08-.6-2.43,3-.48,2.42.24.85-.24.24.6,3.15-.36.24-1.94-4.6-2.3-3.26-1.09-1.34.73-1.57.12-2.06L55.57,74,54,75.42l-.49-.72.61-3.88-.85-.6.6-2.91L54,65.62l-1.7-1.09-4-8.84h-1v.73l-.85-.37-2.42,1.46-4.6-2.18L39,54.48l-1.45.12-2.3-2.18-1.09-3.75.48,4.48,1.82,2.54-.36,1.45-2.67,1,1.7.61,1.69,2.9L36.56,65,34,66,32,69.85,30,68.4l1.21-2.18,1.09-.36.49-1.21L31,65.5l-1.57,2.66-1.7-2.42,1.34-4.36v-.85l-1-1.09.6,1.21-1,1.58-.24,2.66-.72.12,1.33,2.91-.24,2.3-1.22.72-.24-.36L24.7,69.49,23.61,70,23,71.79H21.55l-.48-1.21L20,68.16l-1.21.48-.37-4.11-.85-2.06L17.43,59,13.8,53.75l-.6-4,.36-2.3-1.09-3.15V40L9.32,36.08,5.93,34.75,3.15,31.36V26.27l2.42-.6,1.09-3.39L8.6,21.19l1.45.48,1.69-1.21L11,17.07l.6-1.57-3.39-.25-2.3,1L0,14l.36-3L2.78,8.11,4,4.84,2.66,3.75V1.94l1.09-.12L4.48,0l1,1.45L7.26,3.51,7.14,5,9,7.26l2.66.37L13,6.9,11.14,5.81l.48-1.45,1.21.12,1.82,1.57L16,7.26l2.42.85.24-.85,1.21-.36,1.82,3.15.48,3,.37,1.57,1.09,2.78-.12,1.94,2.42.85,2.42-.12L31,21.31h3.27l5.21-.37,3.87.37,4.36-.12,2.06-.25,1,.73,1.45-.36,2.3,2.3,1.21.48-1.33,2.67-.49,3.14-1.69,4.24L50.61,35v1.69l-1,1.21-1.46-.12-.84-1-2.55,1.7-.36,1.69L43.34,41v1.57L44.67,46,46,47.22l.49,1.33,2.06,1.93,1.93,2.67L51.82,53,52.06,51l-.85-.61,1.33-1.93V47l.85-1.09-.85-1.21,1.21-1,1.58,1.09,2.18-.12.72,1.21,1.09,1.82.85,3.63V54l1,1.93L61.86,61l1,3.51,1,1.93.49.85.12,1.33.6,1.09ZM48.18,59.93h0l-.84-.85-1.09.61.36,2.66,1.21-.61Zm-6.65-.61h0L42.74,62,42.49,64l1.09,1.7,1.82-3.27-.73-2.06-3.14-2.3v1.21Zm-2.67-1.93h0l-2.3,1.08.12,1.09,1.7,3.76,2.42.12-.36-3.75Z"/></g></g></svg>