<?xml version="1.0" encoding="UTF-8"?>
<svg id="Layer_1" data-name="Layer 1" xmlns="http://www.w3.org/2000/svg" viewBox="0 0 354.42 309.47">
  <defs>
    <style>
      .cls-1 {
        fill: #231f20;
      }
    </style>
  </defs>
  <g id="Layer_2" data-name="Layer 2">
    <g id="Layer_1-2" data-name="Layer 1-2">
      <path class="cls-1" d="M184.86,0c1.65.3,1.93,1.51,2.94,3,.67,1,1.36,1.94,2.06,2.9,1.67,2.3,2.45.72,4.78-.19,1.26-.48,2.55-.94,3.84-1.34,2.74-.86,3.58-2.25,4.55.94.41,1.4.85,2.81,1.31,4.2.88,2.66.41,4.59,3.56,3.46,6-2.18,10-4.06,16.3-1.56,1.1.46,2.23.93,3.33,1.41,2.45,1,3.55.2,2.71,3.17-.94,3.29-1.85,6.58-2.76,9.89,2.19,1.52,3.83,3.93,6.09,2.11,2.3-1.82,4.82-3.32,7.52-4.46,2.6-1.1,4.6-3,7.43-3.63,2.68-.62,5-.22,7.62-1.16,4.42-1.61,13.46,6.1,15.93,9.43,1.6,2.17,3.27,4,4.21,6.52,2.26-.67,4.52-1.36,6.78-2.07-.1,6.31.46,12.94-2.18,18.85-2,4.42,6.1,10.28,5.18,16.16-.56,2.95-1.92,5.69-3.93,7.92-2,2.36-2.87,5.36-4,8.23,2.56,1.85,5.11,3.73,7.58,5.7,3.32,2.63,6,3,10.13,3.68-1.31,2.32-2.6,4.66-3.87,7-1.52,2.78,1.87,3.75,3.59,6.22,3.17,4.62,2.79,10.82,7.27,14.13,4.91,3.57,10.46,6.14,16.36,7.58,3.24.81,1.21,5.83.58,8.66-.74,3.38-1.72,6.7-2.69,10,4.28-.46,8.53-1.22,12.7-2.28,4.56,1.88,9.13,3.8,13.82,5.36-1.2,2.78-1.72,5.8-1.53,8.82,3.13,2.58,6.58,4.75,10.26,6.45,2.74,1.35,2.87,7.8-.1,8.93-1.78.67-3.56,1.36-5.33,2.09-.68,1.62-1.55,3.15-2.59,4.57-2.11,2.8-4.6,5.3-7.38,7.43-1.37,1.1-2.77,2.14-4.18,3.2-2.15-.34-4.3-.67-6.44-1.06-2.35-.41-3.74-.14-4.94-2.19-.65-1.14-1.59-2.08-2.73-2.72-2.26-1.28-5-1.35-7.52-1.23-1.34.08-2.68.21-4,.31-.71,1.78-1.45,3.56-2.21,5.31s-1.58,3.52-2.43,5.24c-1.26,2.58.11,2.75,1.94,4.68,2.8,3,5.59,6,8.32,9,1.16,1.28,3.37,2.35,1.95,3.89-.95,1-1.89,2.07-2.82,3.11-1.53,1.67,2.93,6.73,4.14,8.56-.24,4.17,0,8.36.69,12.48-1.14,3.78-.87,3.59,2.65,5.31,1.76,3.56,3.31,7.24,4.62,10.99-4.43.04-8.85-.32-13.21-1.1-3.07-.46-2.9.7-4.44,3.13-1.54,2.43-2.19,1.47-4.87,1-1.88-.35-3.77-.64-5.67-.89-2.76-.36-2.38.78-3.62,3-1.8,3.19-3.88,6.2-6.23,9-2.19,2.83-3.97,5.97-5.26,9.31-.72,1.65-1.41,3.3-2.19,4.93-1.07,2.22-.29,3.12.38,5.45,1.11,3.87,2.05,7.81,3.17,11.7,1,3.47-1.38,7.55-2.56,10.94-2-1.77-8.81-5.68-8.54-8.28.23-2.18,1-3.71-.76-5.29-1.52-1.35-3.39-2.24-5.4-2.55-3.56-.56-7.2.42-10.6,1.44-2,.59-3.92,1.25-5.91,1.78-.78-1.62-1.58-3.23-2.37-4.84-4.37,3.92-8.89,7.93-14.5,9.95-2.24-6.38-4-13-7.6-18.84-1.13,1.56-2.2,3.17-3.23,4.77-1.51,2.37-2.61,1.3-5.16.76s-5.72,8.15-6.85,10.56c-1.38-3.31-2-8.43-5.54-9.32-4.52-1.14-4.87-.47-8.27,2.39-1.75-2.78-3.47-5.57-5.18-8.38-2.4,2.27-4.87,4.48-7.4,6.6-2.31,1.95-2.23.45-3.88-1.5-1.16-1.38-2.33-2.77-3.51-4.12v6.4l-5.57,5.36c-.08-3.15.08-6.3.2-9.43-4.27-.08-8.52,0-12.79.08-2.63.06-4,1.12-4.77-1.71-.53-1.82-1.04-3.65-1.55-5.49-.69-2.53.06-3.83-2.94-3.31-1.95.36-3.91.73-5.86,1.14-4,.82-6.25-2.25-9.73-3.61-3.66-1.43-7.53,1.52-10.14-.89-1.71-1.58-2.45-2.78-4.81-3.08-2.54-.31-4.61-.43-6.89-1.6-7.32-3.74-15.83-2.64-23.75-2.71-3.88,0-6.41-1.68-10.07-2.54-4.09-.94-8.47,2.06-12.59,2.51-5.62.62-19.89-2.63-22.26,4-1.36,3.81-1,5-4.47,7.55-2.67,1.9-7.78,7.29-10.74,5.4s-6.07-3.67-9.67-3.86c-2.94-.14-1.81,1.61-1.8,3.9v7.69c-3.06-4.25-6.85-16-1.56-19,2-1.17,2.31-8.09,2.87-10.56,1.12-5,1.35-8.27-2.56-11.89-2.59-2.26-5.5-4.12-8.64-5.51-1.54-.72-3.12-1.39-4.68-2,.35-1.43.79-2.85,1.3-4.23,2.19-6,5.84-11.88,11.29-15.45,4.51-3,17.44-3.5,17.52-9.91.12-8.82,1.32-17.31-.64-26-1.75-7.77-4.58-15.23-6.41-23-2.09-8.85-3.03-18.16-4.09-27.15,7.47.64,15-.49,22.41.48,3.73.42,7.33,1.59,10.59,3.45,3.14-2.13,5.94-4.7,8.87-7.08.76,1.34,1.53,2.66,2.29,4,1.18-1.2,2.36-2.38,3.54-3.56-.7-2.5-.29-5.18,1.13-7.35,2-3.13,2.72-2,5.61-.38s4-1.85,6.3-3.8c2.09-1.71,10.52-7.4,12.68-4.41,2.56,3.53.24,9,4.35,11.69,2.41-2.83,6.11-5.62,3.84-9.32-1.68-2.55-4.36-4.27-7.37-4.75,3.72-7.75,7.72-14.58,8-23.32.21-6.83,2-12.81,8.88-15.23,5.69-2,8-3.36,10.15-9.07.83-2.18.3-2.16,3-2.31,2.91-.15,5.8-.31,8.71-.43,3.91-.17,6.39-6.94,8.61-10.14-4.45-.44-8.92-.62-13.39-.74,4.34-7.26,5.71-15.78,7.38-23.93l3.21,1.19c2.44.92,2.13-.2,3.51-2.07,1.58-2.2,3.47-4.15,5.6-5.82,2.89-2.17,3.9-2.57,7-.85,2.8,1.57,6,3.12,9.22,3.16,3.81,0,4.11-1.33,5-4.44.92-3,2.45-5.79,4.48-8.18C176.26,7.91,180.99,4.33,184.94,0"/>
    </g>
  </g>
</svg>