<?xml version="1.0" encoding="UTF-8"?>
<svg id="Layer_1" data-name="Layer 1" xmlns="http://www.w3.org/2000/svg" viewBox="0 0 209.16 171.8">
  <defs>
    <style>
      .cls-1 {
        fill: #231f20;
      }
    </style>
  </defs>
  <path class="cls-1" d="M113.76,6.99c1.77-2.65,4.12-4.82,6.42-6.99,1.18.42,2.37.86,3.56,1.28.12,1.79.01,3.59.01,5.39-1.33-.11-2.66-.21-3.98-.33,1.81,3.19,4.79,1.06,7.35,2.09.73.29,1.46.59,2.19.88.73-.79,1.42-1.62,2.05-2.5,1.26-1.75,2.3-3.66,3.01-5.69,1.12,1.12,2.33,2.16,3.31,3.42.06,1.83-.24,3.65-.44,5.47.88,1.53,1.73,3.07,2.56,4.63.72,1.38.5,1.9,2.18,1.85,1.21-.03,2.43-.06,3.64-.08-.35,1.4-.71,2.81-1.06,4.21,5.48.36,11.19-.36,16-3.17.9,1.86,1.6,3.81,2.56,5.65,1.03,1.97,3.88,2.94,5.77,3.99,1.5.84,3.58-1.51,4.41-.26,1.45,2.16,2.1,2.11,4.67,2.43-.44,2.17-.55,8.05-2.6,9.05-.49.24-.97.48-1.46.72.28.94.39,1.93.28,2.91-.18,1.61-.96,3.08-2.02,4.29.71.34,1.42.69,2.12,1.04-1.11,1.59-2.29,3.14-3.64,4.54-.98,1.01-3.94,2.6-3.51,3.87,1.12,3.32,4.32,5.92,3.74,9.71,1.37-1.17,2.49-2.8,4.3-2.39,1.91.43,3.86.7,5.81.79,1.67-.14,3.59-.83,5.03.09,1.36.88,2.67,2.18,4.24,2.49,2.51.5,4.06,2.62,5.12,4.79.55,1.1,1,2.25,1.48,3.39,1.89.23,3.78.5,5.66.8-1.06,1.04-2.16,2.04-3.27,3.02-.55.49-1.12.97-1.68,1.46-1.24,1.06-.58,1.37,0,2.74.29.68.58,1.35.88,2.02.66,1.49,1.3,1,2.81,1.01,2.44.01,3.42-.2,4.8,1.92.87,1.35,2.65,3.11,1.89,4.6-.74,1.46-2.11,3.07-.95,4.44.75.88,2.18,1.8,2.18,3v2.33c-1.6-.26-3.22-.48-4.83-.69-.75,1.59-.91,4.28-2.64,4.78-1.98.57-2.94,1.55-4.45,2.93-1.01.42-1.12.96-.32,1.62.54.84,1.08,1.68,1.63,2.51-1.14.3-2.29.6-3.44.88.34,1.28.69,2.55,1.04,3.83-1.66-.54-2.84-1.82-3.11-3.57-1.08.49-2.48,1.79-3.34.75-1.23-1.48-1.24-2.18-2.96-1.09-.79,2.58-2.34,4.94-4.77,6.23-1.47,3.19-2.77,6.49-3.51,9.94-.4,1.88-2.14,1.91-3,3.61-.83,1.66-1.68,3.31-2.54,4.96.82.37,1.63.75,2.45,1.11-.57,1.24-1.31,2.41-1.73,3.71-.51,1.6,1.2,2.98,2.15,4.21.82,1.06,1.63,2.13,2.3,3.29,1,1.72,1.02,1.8,2.94,2.23-1.05,2.39-.02,4.5,2.13,5.78-1.39,2.01-1.74,3.36-2.33,5.68-.25,1-.59,1.98-1.08,2.88-.73,1.37-1.14.68-2.38.22-1.25-.46-1.51-.95-2.58-.02-1.05.91-1.1,1.49-2.48.88-.96-.43-1.92-.86-2.93-1.18-.81,1.29-1.49,2.65-2.19,4-1.17-1.04-1.61-2.1-3.16-1.47-1.74.7-3.49,1.36-5.27,1.93.15-1.5.59-2.87-.03-4.26-.68-1.53-1.31-3.08-2.19-4.5-1.55-2.03-4.38-1.18-6.53-1.6.5-1.91.91-4.18-.82-5.61-1.07-.88-2.7-.35-4-.26-2.49.16-2.34-.46-3.84-2.26-1.62-1.95-3.62-3.55-5.75-4.92-1.08-.69-2.19-1.33-3.32-1.94-1.73.46-3.53,1.08-5.35.8-1.69-.26-1.43-2.07-1.7-3.52-.27-1.46-.96-2.78-.07-4.02.88-1.2,2.16-1.92,1.13-3.24-1.08-1.39-2.29-2.68-3.62-3.83-1.26-1.08-.22-1.96.24-3.43.39-1.26.7-2.53,1.05-3.81.85-3.06,2.33-5.85,3.38-8.84-1.49-.41-2.96-.83-4.45-1.26-1.06.94-2.57,1.83-3.11,3.15-.62,1.51-.99,1.65-2.49,2.36-2.16,1.03-1.83,1.33-1.33,3.56.25,1.14.46,2.39.04,3.52-.49,1.34-2.34,1.77-3.54,2.33-2.55,1.17-6.55,3.95-9.32,3.93-2.49-.01-4.82-1.06-7.2-1.66-1.18-.3-2.4-.49-3.62-.38-.63.06-1.26.19-1.86.41-.96-.45-1.92-.91-2.88-1.35-1.49-.69-1.35-2.2-1.7-3.73-.4-1.78,1.76-2.59,3.12-3.63,1.57-1.2,1.84-1.06.69-2.69-.72-1.02-.35-2.28-.25-3.5-1.36.05-2.72.09-4.07.14,1.21-3.86,1.62-8.35,4.9-11.14-.81-.69-1.62-1.4-2.41-2.12-.35,1.02-.67,2.05-1.02,3.07-1.15-2.2-2.65-4.2-4.32-6.04-.71-.79-1.46-1.55-2.22-2.29-1.24-1.21-2.62,0-4.1.58-1.21.47-1.85,1.1-3.03.42-1.14-.65-2.25-1.39-3.49-1.85-3.07-1.14-4.57.89-6.71,2.69-.94.79-1.41,1.66-2.17.32-.61-1.08-.89-2.29-.98-3.52-.17-2.48.38-4.97.08-7.46-.51-4.35-5.75-4.2-9.04-4.31.27-1.13.53-2.26.8-3.38-2.08.97-4.18,1.93-6.29,2.85-1.72.75-3.63-1.16-5.02-2.32-1.54-1.3-1.38-3.46-1.5-5.32-.14-2.35-1.38-4.54-1.48-7.01-.04-1.05-.02-2.1.01-3.15-.79-.72-1.59-1.41-2.43-2.05-.47-1.08-.94-2.15-1.42-3.23-.66-1.48-.4-2.29-2.16-1.83-2.36.61-4.71,1.24-7.04,1.96-1.16.36-2.32.74-3.47,1.16-.47,1.32-.93,2.64-1.38,3.97-1.78-.8-3.61-1.53-5.47-2.17-1.78-.62-2.38-2.67-3.38-4.24-1-1.58-2.05-3.12-3.1-4.66-1.29.35-2.57.7-3.86,1.03-.47-3.16-.53-6.36-1-9.52.75-1.44,2.15-2.69,1.1-4.05-1.03-1.34-1.86-2.83-2.48-4.4-.5-1.26-.87-2.56-1.12-3.89-.41-2.14-.16-2.1,1.72-3.07,3.04-1.57,6.06-3.16,9.04-4.84,5.63-3.15,11.12-6.55,16.28-10.44,5.15-3.88,12.33-3.83,18.03-6.82.08,2.89-.7,6.2.63,8.91,1.4,2.85,5.45,3.45,7.2.74.73-1.14,1.29-2.47,2.35-3.35,1.5-1.25,4.82.99,6.47,1.64,1.1.43,2.21.87,3.31,1.31,1.81.73,2.21.88,2.87,2.71.65,1.84.71,1.85,2.63,2.25,1.31.27,2.6.89,3.8.25,3.58-1.9,7.28-3.6,10.64-5.89,1.66-1.12,3.21-2.39,4.56-3.86.77-.84,1.47-1.75,2.07-2.72.82-1.32.62-2.56,2.35-2.04,1.94.58,5.6,2.73,7.53,1.81,1.64-.78.21-2.48-.47-3.41-1.01-1.39-.79-2.95-.83-4.64,2.69-1.06,5.33-2.25,8.05-3.2-.28,1.72-.58,3.43-.9,5.15,2.09.11,4.16.35,6.23.65"/>
</svg>