<svg xmlns="http://www.w3.org/2000/svg" viewBox="0 0 26.27 57.38"><defs><style>.cls-1{fill-rule:evenodd;}</style></defs><g id="Layer_2" data-name="Layer 2"><g id="Layer_1-2" data-name="Layer 1"><polygon class="cls-1" points="0.6 14.77 0.6 14.77 0.97 11.62 3.39 9.93 6.54 10.17 6.78 11.86 7.75 12.47 8.6 11.38 10.29 10.9 10.53 10.05 13.44 6.17 14.29 2.78 15.25 0.97 17.92 0 19.49 0.12 20.58 2.18 22.88 0.12 25.79 0.12 26.27 2.54 25.67 4.96 24.94 15.86 22.52 19.86 21.55 26.51 23.97 28.93 23.85 36.32 21.55 42.49 15.25 51.21 12.95 49.03 8.72 53.39 6.9 57.14 7.02 57.26 4.6 57.38 3.27 56.66 0 56.54 0.6 14.89 0.6 14.77"/></g></g></svg>