<svg xmlns="http://www.w3.org/2000/svg" viewBox="0 0 38.62 80.51"><defs><style>.cls-1{fill-rule:evenodd;}</style></defs><g id="Layer_2" data-name="Layer 2"><g id="Layer_1-2" data-name="Layer 1"><polygon class="cls-1" points="18.28 4.48 18.28 6.54 15.5 9.69 13.44 9.81 9.44 11.86 8.23 11.26 5.69 12.35 5.93 14.65 4 16.1 4.36 18.64 1.21 19.37 0 22.03 0.73 26.03 3.87 27.24 5.33 29.06 6.66 29.78 9.2 36.2 10.17 41.4 10.05 44.91 11.02 46.73 11.02 49.76 9.69 51.33 9.56 53.51 9.2 68.28 10.05 71.31 10.17 74.82 11.86 77.6 11.38 79.9 15.86 80.51 24.33 77.6 24.82 77.72 24.33 75.3 24.82 69.13 24.45 67.07 24.58 65.25 23.97 60.05 24.45 58.23 24.33 56.78 23.85 56.05 24.21 55.09 23.85 53.03 23.73 52.06 23.97 49.4 24.21 47.7 23.97 45.4 24.94 43.95 26.88 43.22 28.33 42.98 29.54 42.01 30.63 39.71 32.32 36.68 32.93 34.99 34.63 33.41 36.32 33.53 37.05 32.45 34.38 29.54 34.5 28.45 35.47 26.88 38.14 26.75 38.62 25.3 37.41 20.94 37.29 17.92 34.02 15.25 33.41 13.2 34.02 10.65 34.26 10.53 31.6 7.02 28.81 6.42 26.51 3.27 22.52 0 21.43 2.18 21.79 3.63 19.49 4.36 18.28 4.48"/></g></g></svg>