<svg xmlns="http://www.w3.org/2000/svg" viewBox="0 0 65.62 38.98"><defs><style>.cls-1{fill-rule:evenodd;}</style></defs><g id="Layer_2" data-name="Layer 2"><g id="Layer_1-2" data-name="Layer 1"><polygon class="cls-1" points="2.06 18.4 6.3 16.34 11.02 7.14 21.43 0.97 28.09 0 30.27 3.63 40.44 4.6 44.43 6.42 49.88 4.36 55.21 4.48 58.72 9.08 59.69 8.96 58.23 14.04 58.84 18.4 65.5 21.31 65.5 27.24 65.62 30.51 57.02 33.29 51.21 33.05 43.7 35.11 39.23 33.17 34.5 33.78 30.27 38.98 24.58 38.98 14.16 33.05 11.38 34.87 4.12 33.29 0 26.75 1.57 23.24 2.06 18.4"/></g></g></svg>