<svg xmlns="http://www.w3.org/2000/svg" viewBox="0 0 65.62 73.24"><defs><style>.cls-1{fill-rule:evenodd;}</style></defs><g id="Layer_2" data-name="Layer 2"><g id="Layer_1-2" data-name="Layer 1"><polygon class="cls-1" points="62.47 55.45 63.2 54.48 63.08 53.75 65.62 48.55 65.5 46.01 62.71 41.16 60.05 40.56 60.17 38.38 59.69 34.99 50.48 34.87 50.6 32.45 48.67 29.06 49.27 27.84 48.79 25.91 49.03 23.49 48.67 22.64 46.49 21.43 43.46 21.67 42.13 20.94 41.04 20.58 40.68 19.13 39.23 18.52 37.05 17.8 36.2 17.92 34.26 15.86 32.93 16.22 31.11 14.41 28.93 14.89 28.45 15.5 27.24 14.41 25.67 13.32 24.45 12.71 24.09 11.14 22.76 10.65 21.91 8.6 22.4 7.51 21.67 5.08 22.52 3.63 21.91 1.7 22.03 0.48 21.43 0 20.22 0.73 19.13 0 18.04 0 16.34 0.85 14.65 1.09 12.11 2.66 11.26 5.08 9.69 5.57 8.35 5.57 7.26 6.42 6.42 6.42 4.96 7.26 3.39 7.14 0 7.14 4.96 14.16 4.96 14.89 4.12 16.34 4.12 19.98 3.51 21.67 4 23.12 4.12 26.51 3.75 28.33 3.15 29.06 3.27 30.14 3.63 30.75 3.75 32.08 3.27 32.93 4.72 36.44 4.6 37.65 3.63 39.1 2.42 39.83 1.57 41.65 2.06 42.13 2.66 42.25 2.79 42.86 3.15 42.98 3.15 44.19 4.24 45.16 4.84 45.76 4.96 46.73 4.72 47.7 4.96 48.3 5.21 50.12 6.05 51.21 8.47 53.15 8.6 53.99 7.99 55.57 8.35 56.54 7.14 59.44 7.87 60.41 10.41 62.83 14.29 73.25 15.74 73.25 16.1 72.64 16.95 72.4 16.95 72.4 17.68 71.67 18.52 69.73 20.58 67.56 22.03 67.19 23.25 68.28 24.82 68.16 25.67 67.92 26.88 68.16 28.69 67.8 29.78 67.92 29.9 69.37 30.75 71.55 31.11 72.16 31.6 71.55 31.48 70.58 32.08 69.61 32.08 68.52 32.93 67.31 35.96 67.31 38.62 67.43 39.59 68.4 40.07 66.59 41.4 63.68 41.52 62.35 41.4 60.9 40.8 60.05 42.49 57.63 43.22 55.57 43.22 54.72 44.43 53.99 51.57 51.94 57.63 52.06 61.02 54.6 61.86 54.72 62.47 55.45"/></g></g></svg>