<svg xmlns="http://www.w3.org/2000/svg" viewBox="0 0 65.5 57.87"><defs><style>.cls-1{fill-rule:evenodd;}</style></defs><g id="Layer_2" data-name="Layer 2"><g id="Layer_1-2" data-name="Layer 1"><polygon class="cls-1" points="33.17 52.18 34.5 49.15 22.28 35.47 8.11 23.12 7.63 21.07 8.84 19.86 6.54 16.95 5.93 14.04 2.42 10.05 0.12 10.17 0 7.63 1.33 6.17 1.33 1.7 2.78 0 6.9 3.15 8.35 5.57 10.53 5.08 10.65 2.66 13.8 2.18 15.98 2.3 17.68 0.48 20.46 2.06 22.03 0.73 24.82 1.33 26.27 4.24 28.57 2.54 32.45 4 35.23 2.78 36.08 4 40.44 3.51 44.07 4.84 46.25 4.48 49.76 7.38 54.72 7.51 56.05 9.2 57.63 8.11 59.81 8.23 59.2 12.71 55.69 18.04 55.81 20.46 60.9 24.45 63.56 24.58 65.5 26.75 64.29 28.69 61.26 27.12 59.69 28.21 59.69 32.08 63.56 36.56 61.98 38.01 59.2 37.17 55.57 34.63 53.51 36.2 53.63 38.86 56.78 40.8 57.87 43.34 55.21 44.67 52.66 45.04 51.33 48.55 51.21 53.15 49.15 56.9 47.58 57.87 43.83 52.78 42.01 53.75 35.35 52.66 33.17 52.18 33.17 52.18"/></g></g></svg>