<svg xmlns="http://www.w3.org/2000/svg" viewBox="0 0 56.17 56.05"><defs><style>.cls-1{fill-rule:evenodd;}</style></defs><g id="Layer_2" data-name="Layer 2"><g id="Layer_1-2" data-name="Layer 1"><polygon class="cls-1" points="32.32 0 32.57 0.6 32.45 1.09 32.57 1.45 32.57 2.18 33.41 2.79 33.9 3.27 34.63 3.75 35.11 4.48 35.23 5.08 35.59 5.21 36.2 6.29 36.44 7.26 37.05 7.87 37.29 8.72 37.89 9.32 38.26 9.32 38.74 10.05 40.44 12.71 41.52 13.44 42.62 14.16 43.22 14.77 44.07 15.25 44.07 15.5 43.95 15.98 44.19 16.59 45.28 16.95 46.13 17.68 45.88 18.4 46.13 19.73 46.25 20.7 46.61 21.79 47.7 22.64 48.3 23.61 49.64 23.85 50.36 23.61 51.94 24.09 52.78 24.21 53.87 24.94 54.6 24.94 55.21 25.42 55.21 26.03 55.69 26.51 56.17 27.12 55.45 27.24 54.84 27.72 53.75 27.72 53.15 28.33 53.27 28.93 52.91 29.78 52.06 30.02 51.33 30.75 50.24 30.75 49.76 30.99 49.4 30.63 48.18 30.87 46.85 31.96 46.25 32.57 45.52 33.05 45.28 33.53 44.31 33.9 43.95 34.38 43.34 34.63 42.37 34.99 40.8 37.17 40.68 38.62 40.92 39.1 40.92 40.07 40.19 40.19 39.71 40.68 39.1 40.92 38.26 41.52 37.89 42.37 37.53 42.62 37.17 43.22 36.44 43.34 35.59 43.83 34.26 44.07 33.78 45.04 33.9 46.61 33.29 47.22 33.29 47.94 32.93 49.03 33.29 49.52 31.96 50.36 31.23 50.12 30.75 49.52 29.78 49.64 28.45 49.64 27.12 49.88 26.15 49.64 25.18 49.76 23 48.55 22.28 48.43 21.67 47.7 19.61 47.34 18.16 47.58 16.59 49.03 15.62 51.33 14.53 52.54 12.59 53.27 12.11 53.99 10.9 54.96 9.69 55.21 8.72 55.93 7.26 55.69 6.42 56.05 4.72 55.81 3.15 56.05 3.27 54.84 4.12 52.91 4.12 51.33 2.54 47.94 1.94 46.25 0 44.79 0 44.91 0 44.79 0 44.67 1.09 25.79 6.29 25.67 7.38 4.24 11.86 4.36 17.68 3.03 19.49 2.54 20.22 2.42 20.46 2.3 20.82 2.54 21.19 3.39 21.67 3.75 21.31 4.24 21.19 5.08 21.67 5.21 23.73 3.75 24.82 2.3 26.03 1.09 27.36 0.97 27.6 1.45 28.33 1.57 29.18 0.97 30.99 0.36 32.32 0 32.32 0 32.32 0"/></g></g></svg>