<svg xmlns="http://www.w3.org/2000/svg" viewBox="0 0 65.62 68.89"><defs><style>.cls-1{fill-rule:evenodd;}</style></defs><g id="Layer_2" data-name="Layer 2"><g id="Layer_1-2" data-name="Layer 1"><path class="cls-1" d="M38.38,10.17l.12-.12.24-.24v.36h-.36Zm-.37,0h.13l.12-.12.36-.36.12-.13.36-.24L39,9.2h-.24l-.24.12-.24.24ZM39.47,9h0V8.84l-.24-.12V9l.12.12h.12Zm0-.36h0V8.35l.12-.24L39.83,8,40,7.87h.24l-.12.24-.24.12-.12.24Zm.12.24h0l.12.12h.85V8.72l-.12-.12L40,8.72h-.24Zm1,.36h0l.24-.12L40.92,9h.24l.12.12-.12.24H40.8ZM39.47,5.81h0l-.12-.36-.12-.37V5l.24.12.24.49v.24ZM38,2.42h0l-.12-.12-.12-.36-.12-.37h-.12v.37l-.12.12-.36.24h0v.12l-.13.12L36.44,3l-.36.6v.24l-.37.73-.24.48-.24.37L35,5.57l-.24.12v.24l-.37.24-.12-.12V5.69l-.12-.12L34,5.45H33.9l-.24.12-.25.12h-.24l-.24-.24V5.21h-.12l-.12-.37V4.72h-.24l-.37-.36h-.36l-.36.12H30.27L30,4.6,29.9,5l.37.25v.24l.24.36-.12.12h-.24l-.49-.12h-.24v0h-.85l-.12-.12H28l-.37.12-.24.61-.6-.12-.37.12-.12.24-.12.24h-.48V6.78l-.25.12-.24.24L24.94,7l-.61-.6-.24-.25V5.93l-.36-.36-.36-.36v-1L23.49,4V3.63l.36-.6L24,2.54l.24-.36V2.06h-.36l-.12-.24-.12-.25h-.37L23,1.45l.12-.24.25-.36V.48L23,.12h-.36l-.12.12L22.4,0h-.25l.13.36L22,.73l-.84.6-.49.12L20,1.69l-.37-.12-.48.12-.49.49L18,2.3l-.12-.12-.73.12h-.6l-.49-.24-.6-.12L15,1.82l.24.36.37.24.36.24L16.1,3l-.48.72.24.37-.12.48.72.24h.61l.48.12v.37l-.36.12-.73.12-.36.36L16,6.3l-.85.48-.24.36-.6.37L13.92,8H12.83l-.72-.61L11.5,7H11V6.17l-.25-.24-.12-.36-.48.12-.36.36-.12.12-.25-.24H9.08L9,6.17H7l-.12.61L7,7.14l.73.12L8,7.75,7.75,8,8,8.23l-.12.24-.36-.24L6.3,8.6l.12.84.24.49.6.48.49.61v.84l-1,3.52-.36,1,.12.12-.12.25-.37-.12v-.13l-.36-.24-.12.12H5.21l-.13-.12L5,16.46,3.75,17l-.84.12-.13.24H2.54l-.36.37-.36.24L1.45,18l.12.48-.24.25.12.24L1,19.49l.12.61.24.24L1,20.58H.73l-.49.36v.25l-.12.24.12.24L.12,22,0,22.28l.12.36L0,22.88l.48.49.85,1.33L1,25.18l1-.12.48.12.36.49.13.48h.72l.85.12.73-.6.6-.37.12.12v.37l-.12.12V28l.24.12h.37L6.66,28H8.6l.48.12.48-.37h.25l.36-.24h.36l.49-.12.36-.73.73-.6h.6l.49-.36h.36l.36.24.37-.24.24.24-.12.36.24.61-.24.48.12.73-.12.36.36.61.36.24.12.48.37.24.48.25.36.36.25-.12.6-.24.61.6.48-.12.61.73.24-.12.73.24.48.24.12.48.24.13.49.24,1-.12.72.36.12.24L23,34l.12.6L23,35l.61,1.09-.12.72,3,.12.12,1-.12.73,1,.24.85,1.45v.85l-.85,1.7.12.24-.24.24.12.24-.12.37.49.24v.6l.36.49-.24,1,.12.48-.12.36.12.37.6-.12.37.12h.72l.49.12.72-.24.49.24.24.12.12.36.48,1.82.25.6.36.13.6-.37.37.12.24.25h.24l-.12.36v1.57l-.12.12v.25l-.12.24v.24l.36-.24.73.12v.36l.36.73v1.21l.12.6-.12.25-.36-.12-.36.24-.13.12-.24.24h-.12l-.6.36-.13.25-.36.12-.6.48-.12.12-.13.37-.24.12L32,58.6l-.6.72v.61h-.25l-.12.24-.36.6-.24.25-.24.48v.12l-.37.24V62l.24.12h.13l.84-.25.37.25.36.48.36.24.24.37.37.72h.24l.24-.36h.24l.37.6.48.25.36.12.37.36v.49l.36-.13.61.37.48.36.36.73.37.24-.12.48-.25.37.12.48.13.12v.12l.24.25v.12L38,68.4l.13-.6.36-1.09.24-.85.12-.12-.12-.24-.24-.37.12-.36.24-.12v-.12l.24-.37v-.24l.13.12h.24l.36-.24v-.36l.12-.12V63l.12-.24h.12l.12-.24v-.24L40.07,62V61.5L40,61.38h.24l.12.48.37.37h.24l.12-.12.12.12v.36H41l-.12.61-.36.6h-.37l-.12.49-.12.24v-.12l-.36.24-.24.24-.12.12-.25.12-.12.12v.13l.37.12,1.08-.85L40.8,64l.73-1.33.36-.72.24-.85L43,59.69l.72-.85.13-.24-.13-.13.13-.24H44l.12-.36.24-.24-.12-.24.12-.25L44.19,57h-.12v-.36l-.24-.49v-.6l-.13-.49-.24-.48.12-.12.49-.12L44,54.12,43.7,54l.37-.13.12-.36-.49-.12.37-.12.24-.36.12.12.61-.49.24-.12v-.24l.48-.36.49-.37.72-.72.61-.12.24-.25.36-.36h.37l.24.24H49V50l.24-.48.73-.37.24-.12v-.12l-.12-.12h-.24l-.12-.24.24-.12.48-.25.25.13H51l.24-.25h.24v.25l-.36.12-.48.12v.12l.12.12.6-.24.85-.37-.12-.12.24-.12h.12v.49l.49.12.36-.24h.36l.61.12.36-.25v-.12l-.12-.12V47.7l.85-.48.6-.25.37-.12v-.36l-.37-.61.24-.48.25-.24v-.37l.12-.12.36-.24v-.36l.36-.73.73-.72v-.37l-.12-1.09-.12-.24.24-.61.12-.24v-.24l.49-.36.12-.24-.12-.61.24-.73-.12-.6.12-.37v-.24l.12-.6-.12-2.3v-.49l.12-.24v-.36l-.12.12-.37-.12v-.24l.25-.37v-.6H59l.12-.49-.24-.36-.49-.24h.12l.13-.12v.12l.24.24h.24l.12-.36h.24l.12.24.13.12-.13.24-.24.12-.12.24h.24l.25-.24.48-.24.6-.85.25-.72.12-.37.12-.12.24-.6.24-.49.85-.6.12-.37h.37l.12-.36.72-.73.73-.84.12-.24.48-.85.13-.49.12-.24v-.24l-.25-.36.13-.37.24-.12-.12-.85-.12-.12-.13-.48-.6-1.21v-1l-1.09-.48h-.73l-.36.24-.36-.49-.37-.12L61.38,17l-.48-.24h-.37l-.72-.85L59.2,15,59,14.89l-.49-.36h-.36l-1-.73h-.48l-.49-.12-.36.12h-.48l-.25-.12-.36.12L54.6,14l-.24-.24L54,13.44l-.13.24-.24-.24v.36l-.24-.12-.12-.24h-.12v.12l-.12.12-.49-.24h-.6L51.09,13h-.36v.49l-.25-.12h-.12v.12l-.36.12-.12.24v.36l-.12-.24-.12-.24h-.25l.13.36-.37.49V13.8l.12-.6.25-.13L49.39,13H49l.36-.36-.48-.48-.24-.49-.24.12-.37-.12-.24.24L47.7,12l-.12-.25-.24-.12v-.24l-.25-.12h-.24l-.12-.12L46.49,11l-.12.24V11l-.24-.12L46,10.77h-.12l-.36-.12-.6-.24h-.13v.12l-.36-.24h-.24v.24h-.12L44,10.29h-.37l-.36.24-.12.24V11l-.36.36-.49.24-.6.37-.25.36-.24.48-.12.49-.12.24-.24.24V14l.12.37-.12.6-.12-.36-.25-.36v-.37l.25-.24.24-.24V13l.12-.36v-.24h-.24l-.37.24L40,12.35l-.48.12h-.24L39,12.35h.25l.36-.24h.24l.48.12.37-.12.24-.37H41l.12.12h.12l.37-.24.48-.12v-.36l.36-.49v-.36l.25-.24V9.69l-.49-.13-.36-.24h-.36L41,9.56l-.36.13-.61-.25-.6-.12L39,9.81l.12.24.13.12.12.12H39.1l-.12.12-.12.24-.12-.24h-.12l-.36.12-.49.49-.48.6.36-.48v-.37l.12-.24v-.24h-.12l-.36.24-.12.49-.25.36-.24.24.24-.48.13-.49.48-.72.24-.49.12-.24L38.26,9l.36-.24.24-.12.37-.49L40,7.38l.12-.24L40.19,7l-.12-.24V6.54h.12V6.17l-.36-.24h-.24l-.12.12-.24-.24-.13-.6-.48-1-.24-.49-.24-.6V2.78Z"/></g></g></svg>