<svg xmlns="http://www.w3.org/2000/svg" viewBox="0 0 65.5 41.65"><defs><style>.cls-1{fill-rule:evenodd;}</style></defs><g id="Layer_2" data-name="Layer 2"><g id="Layer_1-2" data-name="Layer 1"><polygon class="cls-1" points="1.09 0.24 4.24 0.48 5.69 1.7 5.45 3.39 4.72 4.72 5.93 6.66 8.72 4.96 11.74 5.08 12.95 6.42 14.04 6.05 18.04 7.51 21.19 5.93 23.49 6.66 25.3 5.81 27.6 6.66 29.54 6.66 33.78 7.14 35.23 6.17 38.01 5.21 38.98 3.63 45.76 0.48 48.67 0 52.18 0.36 55.93 1.94 57.02 3.15 59.2 2.3 62.23 3.75 62.71 4.84 65.38 4.96 65.5 5.57 65.13 9.81 63.68 11.14 61.62 10.9 58.48 13.68 58.96 18.64 58.23 20.82 55.09 23.25 55.45 24.45 57.38 24.7 59.56 27.97 61.26 30.75 61.38 30.87 58.84 30.27 57.14 31.6 54.12 29.06 50.85 29.06 49.52 30.63 47.7 30.75 45.88 32.69 45.88 32.81 44.55 32.81 41.77 34.87 41.65 37.53 42.49 39.47 41.04 40.68 36.32 40.31 34.02 41.4 32.08 40.31 29.9 40.31 28.33 41.52 26.27 41.28 25.91 39.47 23 39.47 20.22 38.98 18.28 40.92 15.38 41.65 11.62 41.52 10.53 41.04 10.41 41.04 9.93 38.74 9.56 36.08 6.54 30.75 1.94 27.24 2.18 27.24 2.91 25.18 1.45 22.88 1.21 20.94 5.21 17.31 5.93 15.01 4.36 12.11 1.09 8.72 0 4.24 1.7 2.42 1.09 0.24"/></g></g></svg>