<svg xmlns="http://www.w3.org/2000/svg" viewBox="0 0 65.5 47.7"><defs><style>.cls-1{fill-rule:evenodd;}</style></defs><g id="Layer_2" data-name="Layer 2"><g id="Layer_1-2" data-name="Layer 1"><polygon class="cls-1" points="0.24 39.83 0.73 37.77 0 36.44 0.12 34.75 1.7 34.38 1.45 31.84 0.85 30.27 2.42 29.06 4.6 27.36 7.14 22.76 8.96 20.22 9.08 19.01 11.02 15.62 12.23 15.13 12.59 14.04 15.13 13.92 16.1 14.16 20.7 12.83 21.43 11.14 26.15 7.99 32.81 4.24 34.99 2.42 37.65 0.97 41.77 0.24 43.95 0 46.37 0.85 47.94 0.97 48.67 1.57 48.3 2.3 47.94 4.72 46.85 6.42 46.85 8.96 55.09 14.41 55.33 17.92 58.35 20.22 61.98 18.28 62.95 18.77 63.2 19.86 63.92 20.58 64.04 22.16 63.08 23.49 65.01 26.03 65.5 25.91 65.5 27.36 63.68 29.66 62.11 29.66 59.32 31.11 58.48 30.75 56.66 31.48 56.9 33.05 55.45 34.14 55.81 35.96 53.51 36.44 53.15 37.29 44.19 34.99 43.58 35.11 43.58 35.11 42.86 34.99 40.92 35.84 38.86 35.96 35.59 36.44 31.11 36.44 30.39 36.8 23.97 36.8 20.94 36.92 20.7 38.86 21.31 41.65 22.28 42.37 23.24 44.79 23.24 47.34 21.43 47.09 20.22 46.13 19.01 46.13 17.43 47.22 15.25 47.7 12.59 46.25 11.62 44.91 9.81 44.07 8.47 44.07 7.51 43.46 6.17 43.46 3.03 41.65 0.48 39.71 0.24 39.83"/></g></g></svg>