<svg xmlns="http://www.w3.org/2000/svg" viewBox="0 0 65.62 56.42"><defs><style>.cls-1{fill-rule:evenodd;}</style></defs><g id="Layer_2" data-name="Layer 2"><g id="Layer_1-2" data-name="Layer 1"><polygon class="cls-1" points="28.69 56.42 30.99 53.63 33.78 53.15 35.11 49.52 37.65 49.52 38.98 50.36 44.79 48.91 47.22 50.36 47.94 52.06 51.82 51.82 50.73 49.27 51.09 47.46 48.91 45.16 46.13 44.43 45.52 39.95 48.06 38.14 52.66 38.38 53.87 35.96 57.51 33.66 60.9 32.57 61.5 30.99 63.44 30.14 65.25 26.51 64.77 23.61 65.62 20.34 64.65 17.92 65.25 14.04 63.08 9.08 60.77 7.87 59.32 4 57.51 4.12 54.96 2.54 53.15 1.94 52.06 0 47.82 0.85 45.52 2.91 48.3 5.69 47.82 7.99 48.67 10.29 48.43 11.98 44.55 10.53 42.37 6.9 38.74 6.78 37.65 5.08 34.75 2.91 33.17 3.75 30.99 2.06 27.48 2.54 24.82 1.82 22.16 1.82 18.64 3.03 17.55 1.94 14.04 1.82 8.11 3.75 5.69 3.75 3.15 7.38 2.3 11.14 0.24 13.92 0 18.77 1.09 23.61 3.27 24.82 4.36 27.24 4.12 31.84 3.75 33.78 3.87 33.78 5.57 35.71 5.57 38.01 7.26 39.47 7.38 41.89 9.08 44.43 10.05 44.07 11.02 45.88 10.78 47.82 11.62 49.27 11.98 51.09 13.92 51.33 15.5 51.09 15.5 49.03 17.07 47.7 18.04 46.97 18.04 48.43 18.89 50.36 18.64 52.06 17.19 53.75 17.92 54.96 18.28 55.93 19.61 55.93 21.67 54.12 21.79 53.39 23.25 54.48 25.67 55.21 26.39 54.72 28.69 56.42"/></g></g></svg>