<svg xmlns="http://www.w3.org/2000/svg" viewBox="0 0 51.45 77.6"><defs><style>.cls-1{fill-rule:evenodd;}</style></defs><g id="Layer_2" data-name="Layer 2"><g id="Layer_1-2" data-name="Layer 1"><polygon class="cls-1" points="0 58.11 0 57.26 1.7 55.21 2.42 53.51 2.18 51.82 2.18 50.48 2.91 49.88 2.91 48.91 4 47.94 5.21 47.09 5.81 46.37 7.75 44.91 7.63 43.58 7.99 42.86 9.44 42.74 10.17 41.89 10.41 42.25 12.35 42.86 12.95 42.74 14.29 43.46 15.01 44.79 16.22 45.64 16.95 46.01 18.4 45.16 19.37 43.58 19.37 42.98 19.86 42.25 20.94 41.89 21.67 40.68 21.55 39.71 22.16 38.01 24.21 35.96 24.45 34.87 24.09 33.9 24.82 32.81 26.51 30.99 27.97 30.02 28.09 28.69 28.57 27.6 28.33 25.55 29.3 24.7 31.11 24.09 32.32 22.64 32.57 21.07 32.57 19.37 32.32 18.28 33.17 16.95 34.26 14.65 34.99 14.16 35.11 13.56 36.44 12.47 37.17 12.59 38.14 11.5 39.71 10.78 39.83 9.93 39.35 8.11 39.23 7.38 38.86 6.29 37.65 5.93 37.05 4.72 37.05 2.66 36.92 1.7 36.32 0 39.71 1.7 41.16 3.15 41.52 5.08 42.01 5.69 42.37 6.9 43.1 8.84 43.1 9.69 42.74 10.41 42.74 11.02 43.46 11.86 42.98 13.68 42.13 14.53 42.25 15.74 43.46 17.55 44.43 18.04 44.91 19.49 46.73 20.94 47.22 21.19 46.49 21.67 45.64 21.55 44.79 21.19 43.34 20.94 42.49 21.07 41.52 20.94 40.31 21.19 39.59 20.82 38.5 20.94 37.41 20.94 37.29 22.16 36.92 22.88 36.92 23.97 37.17 24.7 37.89 25.18 38.14 26.03 39.23 26.39 41.77 28.57 44.19 31.23 45.16 32.08 46.25 33.78 47.34 35.59 47.46 37.29 46.25 38.98 45.28 39.35 44.67 40.8 43.34 43.1 42.62 44.67 41.28 46.61 40.56 46.85 39.95 47.82 40.07 49.27 40.68 51.09 40.31 52.66 40.92 54.48 41.04 55.93 41.04 58.72 41.77 59.2 43.7 60.17 44.79 61.5 45.16 62.95 46.85 65.38 47.82 67.31 48.67 68.16 50.85 69.86 51.09 71.19 50.97 72.28 51.33 72.76 51.45 72.88 51.33 73.12 50.85 74.09 50.12 75.18 49.88 75.67 50.48 76.88 50.36 77.48 49.52 77.6 49.4 77.24 48.79 77.36 48.18 77.12 47.7 76.88 46.25 76.88 45.64 77.12 44.67 76.39 44.19 76.27 43.95 76.63 43.22 76.75 42.86 76.27 42.01 76.03 41.4 76.27 40.56 75.42 40.07 75.42 39.71 75.79 38.98 75.42 30.39 75.3 29.9 74.82 29.42 74.82 29.06 74.94 27.36 74.82 27.12 74.58 26.27 74.58 25.18 74.82 24.45 74.58 22.4 74.45 21.79 74.58 19.98 74.58 19.25 74.94 18.52 74.82 17.92 75.06 17.8 75.42 17.8 75.42 9.69 75.42 9.32 75.18 8.47 75.18 7.63 75.3 8.72 74.21 7.63 73.24 8.6 70.82 8.35 68.28 7.14 66.47 7.14 64.65 7.63 63.68 6.54 62.11 4.6 62.95 4 62.23 2.78 62.11 1.94 57.99 0.85 58.48 0 58.11"/></g></g></svg>