<svg xmlns="http://www.w3.org/2000/svg" viewBox="0 0 65.62 60.77"><defs><style>.cls-1{fill-rule:evenodd;}</style></defs><g id="Layer_2" data-name="Layer 2"><g id="Layer_1-2" data-name="Layer 1"><path class="cls-1" d="M47.46,10.65h.12v-.24l.24-.24.12-.36h.12v.36h.12l.13-.12.12-.12V9.81h-.12V9.69h.12V9.2l.12-.12.12-.24.12-.12.12-.12v.24h-.12l-.12.24-.12.24v.37l.12.12V9.69l.12-.25.36-.24V9.08l.12-.24V8.72h.12v.12h0v.24L49.52,9l.12-.24h.12l.24.12.24-.12h.12l.12-.12h.13l.12-.25h0V8.23l-.12-.12.12-.24V7.51h-.12l-.13.24L50.36,8h-.12V7.87l.12-.12.12-.12V7.51l-.12-.13V7.26h-.12l-.12.12h-.36l.36-.24h.12l.24-.24.13-.12.12-.24.12-.24-.12-.13-.12.13h-.13l.13-.13V6.05h.24V5.81L51,5.69V5.33h-.36l-.13.36v.36l-.12.12h0V6.05l-.12-.12V5.81l.12-.24V5.33l.12.12.13-.12-.13-.12L50.36,5h-.12l-.12.12L50,5.21V5.08h0V4.84l-.12-.24V4.12L50,3.87V3.51l.12-.24V3L50,2.91V2.78l-.24-.24V2.42l-.24-.12-.13.12v.12h0l-.24-.24L49,2.42v.12l-.12.24h.36l.25.13V3h.12v.12l-.25.12h-.12l-.12-.12L49,3.27l-.12-.12v.12l.12.12-.12.12h-.12l-.24-.24-.12.12-.12.24h-.13v.12l.13.12.12.13.12.12h-.12v.12l.12.12-.12.12h0l-.12-.12h-.13l-.24-.12H47.7v.24l.12.12-.12.12V4.48h-.12l-.24-.12v.12l-.12-.12-.13-.12v.12l.13.24-.13.12.13.24h.24l.12.12h-.24l.24.13v.12l.12.12h.24l.12-.12h0v.12l-.12.12v.24h-.12l-.24-.24h-.36l-.13-.24H47V5.21h-.12v.24l-.12.12.12.12-.12.12h-.12v.12l-.12.12V6.3l.12.12h.24l.12.12.12-.12v.12h-.72l-.12.24V7h0l-.12.12v.12h.36l.12-.12.12.12v.12h-.12l-.12.13h.12l.12-.13H47v.13h.25l.12.12h-.12v.12h.24l.12.12.36.12h-.36l-.24-.12L47.22,8l-.13.12h.25l.36.12h.36l-.36.12-.12-.12h-.49V8.11h-.24l-.12-.24L46.61,8h-.12l-.24.12h-.12v.24l.12.25v.24l-.12-.24H46v.48h.25l.12.12h.12l-.12.12h-.12l-.12-.12h-.25v.24l.12.12h0v.37h.25v.24h.12l.36.24h.12l.12-.12-.12-.24.24.12v.36h.13l.12-.36V9.69l.24-.25v0l-.12.37-.12.24.12.12-.12.24.12.12v.12ZM47.82,4h.36v.12h-.36Zm.12,6.65h0v-.12l.12-.12v-.12h.12v.12h0l-.24.24ZM49.52,9.2h0L49.64,9h.12l.12-.12L50,9l.24.12-.12.12H50l-.12.12h-.24l-.12-.12ZM60.9.24h0V.12H61V.24L60.9.36ZM55.33,10.9h0V11l.12.12h.12V11l-.12-.12Zm-2.67,1.69h0l.12.12h.13l-.13-.12Zm-3.87,0h0v-.36h.12v.36Zm-1,2.18H47.7v-.36h-.12v.48l.12.12v.12h-.48V15l-.13-.12-.24-.12h-.12v-.12h-.12l.12-.12h0l.12-.12v-.12L46.73,14h-.12v.12h.12v.25h-.24l.12.12h0l-.12.12h-.12v-.24l-.12-.12.12-.13v-.24l-.12.12v.12l-.12.13h0v.12h-.25l-.12-.12.12-.13V13.8l.25-.24H46l-.12.12-.12.24v.37l-.12-.13.12-.12h-.12v.12H45.4V13.8h0l.12-.12.12-.12-.12-.12.12-.12.12-.12h.37l.12-.13.12-.12h.12v-.12h.36l.24.12.13-.12h.12V13h.24l.12.12V13h.24v-.12l-.12.12-.12-.12h-.12v-.12h.12v-.12h-.12l.12-.12h-.12l-.12-.12v-.12h.12v-.12h0L47.46,12v-.25l.12-.12-.12-.12v-.12h.85l.12.24.12.24v.49l-.12.12.12.12.12-.12.24.24.12.12h0v-.12h.36l.25.24v-.12h-.12l.12-.12.24-.12.24-.24.24-.12.25-.24v-.25h-.13v.12l-.24.37h-.12v.12l-.24.12-.24.12h-.37L49,12.47v-.12l.12-.12h.12l.12-.12-.24.12H49l-.12-.12V12h.24v-.13H49v-.12l.12.12.12-.12h-.12v-.12l-.12.12h-.12V11.5H49l.12-.12h.12l.12.12.13-.12h-.13l.13-.12h.12v-.12h-.12V11l.12-.12h.12v-.13l.12-.24.12-.12v-.12l-.12.12-.12.24-.24.25-.25.24-.12.12h-.36v-.12l.12-.12L49,10.9v-.13l-.24.13h-.12V11l-.12.12h-.24l-.13-.24h0l.25-.13h-.25l.13-.24.12-.12v-.12h.24l.12-.12h.12V9.93L49,9.81l.24-.25h.12l.25-.12.24.12L50,9.44h.12l.12-.12h.12v.12l.25.12h0l.36.25.12.12v.12h.12l.24.36v-.24h.12v-.12h-.24V9.93l.12-.12h.24l.25.12V9.69l.12-.13V9.44h-.12v.12l-.25.13v.12l-.36-.12h-.24V9.56h-.36l-.25-.36V9l.13-.12.12.12.12.12V9.2L51,9.08V8.84h-.12V8.72L51,8.47V8.23L51.09,8,51,7.63V7.38l-.12-.12V7h.36l.12.24h0V7.14l-.12-.24h-.12L51,6.78V6.66l.12-.12.48-.61h.37v.24l.12.13h.12l.36.24v.12l.24.24v.85l.13.12L53,7.75h0l.12.12.12.24V8l.12-.12h-.12l-.12-.24H53V7.51l.12-.13v-.6L53,6.54l.12-.12h.36l.24.12h.12l.25.12h.36l.24-.12h.12l.12.12h.25l.24.12h.12V6.66l-.12-.12H55V6.42h.12l.25-.12.48-.13h.36l.25.13.12.12h.12l.24-.12h-.12l-.24-.13V6.05H56.3l-.13-.12h-.36V5.81l.12-.12h.12l.25-.24V5.33l.48-.25h.12l.36-.24h0L56.9,5h-.24l-.49.37v.12h0l-.12-.12h0l-.12.12h-.12l-.24.24h.12l-.24.24h-.24l-.49.24H54l-.25-.12h-.24l-.12-.12.24-.24H54l.24-.12.12-.12h-.12l-.12.12h-.61V5.45l.24-.12h-.12l-.24.12v.12l-.24.24h-.24l-.37-.12H52.3l-.12-.12V5.45h-.24l-.12-.12h0l.12-.12L52.06,5l.24-.12.12-.12.24-.12V4.48h.25l.24.12.12-.12h.12l.36.24h.61V4.6H54l-.37-.12-.12-.12h-.24L53,4.48l-.37-.12h-.12v.12l-.24.12-.24.24L51.82,5l-.25.25h0l-.12-.13-.24-.24h-.12V4.72L51,4.6V4.24l-.12-.12L51,4h.24l.12.12h.49l.24.12h.72l.13-.12H53L53.27,4h.36V3.75l-.12.12h-.12L53.15,4h-.24l-.25.12h-.6L51.94,4h-.12V3.87h-.25l-.24-.12-.12.12L51,3.75V3.63h.12V3.39h.12l.12.12.24-.12h.12l-.12-.12h-.12l-.12-.12h.24l.12-.24h.37l.24-.13v.13h.12V2.66l-.36.12h-.24l-.25.13h-.12L51.33,3h-.12V2.66h.24l.12-.24h.25l-.13-.12.13-.24-.13.12V2.3h-.12V2.18h-.12l-.12.12h-.12v.24H51V2.3h0l-.12-.12L51,2.06l.12.12V1.94h.24l.12-.12.12-.13h.12l.25-.12h.36V1.45l.12.12v.12h0v.37h.12V1.82l.12-.13.12.13h-.12v.12h.12V1.57l.13-.12h0l.24-.24.12.12v.24l.12.12v.49l.12.12V1.94h.12l.12-.25h0l.25.13v.24l-.13.12L54,2.3v.12l.12-.12V2.06h.12V2.3l.12.12.12-.24h0v.24l.12-.12V2.18l-.12-.24h-.12l-.12-.12V1.57l-.12-.12L54,1.33l.12-.12h.6V1L54.6.85V.73l.24-.12h0l.24.12h.13V.85L55.08,1l.13.12.24.12h0v.61l.12-.13.12-.12h0v.12l.12.13.12-.13V1.57h.24V1.45l-.12-.24.12-.12h.37L56.3.85V.61l.12-.13h0l.36.13v.6h.12v.24l.12.12h0V1.09L56.9.85,57,.61,56.9.36,57,.12h.12l.12.12h.12V.48l.13.25v.36h0V1h.12l.24.24H58l.12-.12H58L57.87.85h0V.73L57.75.61,57.63.48l.12-.12h0L57.63.24l.12-.12h.12L58,0h.36V.24l-.12.24h.12l.12-.12L58.6.24V.61h.12l.12-.13L59,.36h.12L59,.61v.48h.36V.85l.12-.24L59.32.24V0h.12l.12.12h.25L59.93,0l.24.12V.24h.36l.24.12V.48l.13.13V.73l-.13.12V1h.13l.24-.24.24-.12V.48h.24l.12.13H62l-.13.12-.12.12.12.12h0L62,.85l.12-.12.12-.12.24.12.36.12h0V1h-.12v.12l-.12.12.12.12.12-.12L63,1.09v.24h.13l.12-.12h.24v.12l-.12.12h0l.12.12.12-.12.12-.12h0l.12.12.24.24h.12v.13l-.24.12-.24.12-.12.12-.24.12H63.2l-.12-.12V2.3h0l.36.12h.24V2.3h.24L64,2.06h.25l.12-.12V2.3h.12l.12-.12.12-.12h0V2.3l-.12.12.12.12V2.42h.12V2.3l.24-.12.12.12-.12.24L65,2.66h.12V3L65,3.15h0l-.24.24.12.12h0L65,3.27h.24l.25.12.12.12v.24l-.12.37-.12.36-.25.12L65,4.72h-.24v.12h-.12l-.49.24L64,5.21h-.12l-.24.12h-.24l-.12-.12v.24H63.2L63,5.33l-.12-.12h-.24v.12h.24l-.12.12h-.24l-.12-.12h-.24L62,5.21l-.13.12h0L61.62,5l-.12-.12v.24l.12.13.12.12H61.5l-.12-.12v.12l.48.12h.37v.24l-.73.24h-.6l-.25.12h-.12V5.93h-.48v.12h.12v.12l.24-.12h.36l.25.12.6-.12H62l.24-.24h.6v.24l-.12.12-.24.25h-.12l-.24.12L62,6.66h-.13l-.24.12-.24.12h-.12L61.14,7,61,6.9l-.12.24h-.37v.12l-.36.12h-.24l-.12.13h-.12v.24l-.25.12V8h-.36L59,8.11,58.84,8h0V7.75l-.12-.12.12.24h-.12V8l.12.12v.12l-.12.12v.12l-.25-.12h-.12l-.24-.12v.12H58V8.23l-.12-.12v.24h-.24l.36.12h.36l.12.13v.12l-.24.12-.12-.12-.24.12h0V9L58,8.84l.12.12L58,9.08l-.24.24h-.49l-.12-.12H57V9.08l-.12-.24h-.12l-.12-.12V8.6l-.12-.13V8.6h-.37l.13.12V8.6l.12.12.36.24v.48h-.24l-.12-.12H56.3v.12l-.13.12-.12-.24h-.12l-.12.12h-.12l-.12-.12-.12-.12h0l-.12-.12h0L55.08,9,55,8.84v.24h.12l.13.12.24.24-.12.12L55,9.44l-.12-.12V9.2l-.12-.12V9.2h0v.12h-.24V9.2l-.12.12h0l.12.12v.12h.36l.12.13h.12l.13.12h.24l.36.12h.12l-.12.12v.36l-.12.12h0l-.12-.12-.24-.12-.12-.12-.13-.12.13-.12-.13-.12h-.24l-.36-.12h-.24l.12.12h.36l.24.12v.12h-.72V9.93h0L54,9.81h-.13l.25.12v.24h.36v-.12l.12.12h.24l.12.24h-.12l-.12.12h.36l.13.12.12.12v.13l-.12.24-.13.24H55l-.12.12h-.36v-.12l-.12-.12h-.24l.12.12h.12v.12h.12l.24.12v.24L54.6,12h-.12l-.12.12h-.12L54,12h-.13l-.12-.13h-.12l-.12.13h.12l.37.24.24.12h0l-.12.12-.12.12h-.13l-.12-.12h-.12l-.12.12h-.24l-.12-.12-.37-.12-.12.12v.24l-.24.12h.12l.12.12v.12l-.24.13v.12l-.12.12-.12-.12v.24h-.36l.12-.12h-.12v.12l-.13.24h-.12l-.36-.24h-.12l-.12.12h-.12l-.37-.48v-.37l.13-.12-.13-.12h0l-.12.12v.36l-.12.13.12.12v.12l-.12-.12-.12.12L50,13.32l-.12.12.12.12v.12h0l.24-.12h.12v-.12h.12l.13.12.12.12v.24l.12-.12.24-.12.24.12v.12l-.12.12v.25h-.12v.12h.12v.12l-.12.12h.12l.12-.12.12-.12h.24v.48l-.12.36h-.24l-.12.13-.12.12-.12.12v-.49l-.12.12-.12.25h-.12l-.13.12h-.24l-.24.24-.12-.12-.12.12h-.12v-.12l-.12-.12h.12l.12-.24v-.13l-.12-.12h-.37V15l.12-.24h-.12l-.12-.24.12-.12v-.12l-.12-.13v.13l-.12.24.12.24v.12h0v.24h-.36L48.67,15h0l.12-.36-.12-.12.12-.12.12-.12h-.24v.12l-.12.24.12.12-.12.24h-.12l-.12-.12v-.12h-.13v-.12l.13-.12v-.24h-.13v.24h-.12v.24h-.24Zm4,22.4h0v.6l.12-.12-.12-.12.12-.12v-.12Zm-.13-.73h0v-.12h.13v.12ZM51.45,36h0l.12-.25h.12v.13h-.12V36ZM50.24,24.7h0v-.12l.12-.12v.12Zm.24.12h0v-.24h0l.13.12v.12Zm-.24.36h0v-.36h0l.12.12v-.12l.12.12-.12.12-.12.12Zm2.3,3.39h0v-.12h.12v.12Zm-.24-.12h0v-.12h.24l-.12.24H52.3ZM51.82,30h0l.12.13V30h-.12Zm.6.73h.24l-.12-.12h0l-.12.12Zm1.21,1.09h0l-.12-.12.12-.12.12.12v.12Zm.49.73h0l.12-.12h0l.12-.13v.25h-.24ZM50,16.46h0v-.12l.12-.12V16.1l.36-.24h.13l-.13.12-.12.24-.12.12.12.12h-.12v-.12l-.12.12H50Zm-.73-.72h0v.12h.12v-.12h-.12Zm-4.11-1.82H45v-.48h-.12V13.2h0l.12-.13.24.13v.48l-.12.12h.12v.12Zm0-8.35h0l.12-.12.12-.24V5.08L45.64,5V4.72h-.12L45.4,4.6V4.48h0l-.24.24h-.24v.12L44.79,5l.13.12h.24v.13L45,5.33v.12h.12Zm-1.94,4.6h0V9.93l.12-.12h-.12V9.56H43.1V9.32h.24l.12.12h.12V9.32l-.12-.24h-.24V9h.12V8.47l.12-.24h.12l.12-.12V8l.13-.12L44,7.63h.24l.12.24.12.24-.12.12.12.12h.12V8.6h0l.12.24h.12l.13.12v.36l-.13.12h-.24l-.12.12h.24v.37l-.24.24h-.24v-.12h0l-.24.12-.12-.12-.25.12h0l-.12-.12-.12-.12v.12Zm1.7-.24H45V9.56h-.12v.37Zm.6,2.3h0v.12l.12.12h.12l.12-.12.25-.24V12H46v-.25h-.12l-.12-.12h-.12l-.12.12v.12L45.4,12Zm-.24,0h0v.24h.12v-.12h0l-.12-.12ZM43.1,11.14h0v-.49l.12-.12h.61v.12H44l.12-.12.12.12h0l.24.25h.12l-.12.12h.24l.12.12h.13v.24h-.25l-.24.12-.12.12-.12-.12L44,11.38l-.25-.12h-.24l-.12-.12H43.1ZM41.28,8.6h0V8.47h.12V8.6Zm.12.84h0v.25l.13.12h.36l.24-.12V9.56h.12l.12-.24V9.2L42.49,9l.12-.24h-.12V8.6h.12V8.35h.13l.12-.12.24-.12V7.75l.12-.12h0V7.38l-.12-.12h-.36V7L43,6.9V6.78l-.12-.12V6.54L43,6.42l-.12-.12h-.12l-.25.12h-.24v.12l-.12.12H42V6.54l.12-.12.12-.12V6.05l.12-.24-.12-.12-.12-.12V5.45L42,5.33l-.24.12-.12-.12-.25.24V5.45l-.12-.12V5.21l-.12.12v.12l-.24.12v.12l-.12.24v.12h.36L41,6.17l-.24.13-.12.24h.24l.24-.24h.12l.12.12-.12.12h0L41,6.66V6.9h.36L41.28,7,41,7.14h-.12l.12.12v.12l-.24.13h0l-.12-.13-.12-.12-.12-.12-.25.12v.12L40,7.63l.12.12v.12l.12.12.12-.12h.13l.24.12h.24l.24-.12V8L41,8.11h0v.24l.24-.12.12.12.13.25h.12V9Zm-.84-1.09h0V8.23l.24-.12h0v.12l-.12.12Zm-.25.85h0V9.08L40.56,9l.24.12.24.24v.37h-.48l-.12-.13-.25-.24Zm-1.93,1.21h.24v.12H38.5Zm-.12-.12h0l-.12-.24.12-.12V9.56l.12-.12.12-.12h0V9.2L38.62,9V8.72l.12.12.12.24V9.2l-.12.24v.12l-.12.13.12.12-.12.36-.24.12Zm-1.7-3.51h0l-.12-.12V6.42l-.12-.12h-.48l-.13.12V6.17l.13-.12V5.93h.36l.48-.12.12.12h.37l.24-.12h.48v.36l-.12.25.12.12-.12.36L37.65,7l-.12.12h-.24L37.17,7h-.12l-.25-.24V6.66l-.12-.12h0v.12ZM34.38,8h0l.24-.12V7.75l.13-.24V7.38l.12-.12h.24l.36-.12h.24l.13.12h.48v.12l.24-.12.12.12h.24l.13.13-.25.24h-.12l-.36.12H36.2L36.08,8v.12h.24v.12l-.24.24V8.6H36v.12l-.12.12h-.49l-.12-.12-.12.12L35,8.72h-.24l.12-.12-.12-.13-.13-.12H34.5V8.11Zm-.12-.61h0l.12.13.12-.13.12-.12V7h.13V6.66h-.37l-.12.12h0l-.12.12v.36ZM47,18.52h0l.12.12.25-.12v.12h.12v.13h.12l.24-.25h.24l.12.12h.37v-.12l.12-.12h0l.12-.12-.12-.12v-.24l.12.12v.12l.12.12v-.12h.24v.12l.12-.12L49.15,18V17.8l-.24.12h-.12l-.12-.12.12-.12.12.12.12-.12.12-.13v.13h.12l.12-.25h0v-.24h.13v-.12h-.37l.12-.12h0l.12-.24h-.48v-.25h0v-.12l-.24-.24h-.12l-.12.12h-.37l-.36-.12V16h-.36v.12h-.25v.12L47,16.1,46.85,16l-.12.12h-.12v.12h-.12V16.1h-.61l.12.12v.12l.13.12H46l-.12-.12h-.36l.24-.12V16.1L45.52,16v-.24l-.12.12v.24L45.28,16v-.12h0l-.12-.12-.12.12h-.12V15.5h-.13l-.12.24v.12h-.12l-.12-.12.12-.12V15.5l.12-.25h-.36v-.12h.12l.12-.12v-.12h-.36v-.12h-.12l-.12.12h-.12v-.12h0l.12-.12v-.12h.12l.12.12h.24l-.12-.24h-.12l-.12-.25h-.24L44,14h.12v.12l.24.13h.12l.12.24.12-.12v.12h.49v-.24L44.79,14l-.12-.12h-.12V13.8l-.12-.12-.12-.12h0v-.12h.12l.12.12h.12v.24h.12v-.36l-.24-.24h-.24l-.24.12H44l-.12-.12H43.7v-.13l-.24.25-.12.12-.12.12H43.1v-.12l.12-.12h.12l.24-.25L43.7,13l-.12-.12v-.36h.12l-.12-.12h-.24l-.12-.12v-.12h0L43,12l-.12-.13h-.12l-.25-.12v.12h-.36l-.12.25.12.12v.12h0l-.24-.24v.24l.24.12.12.24h.12l-.12.12h-.12V13l.12.25h.24v.12h-.12l-.24-.12v.24l-.12.12.24-.12.12.12.24-.12v.12h.13v.12l.24.12h.12v0l.12-.12h.12l.12.12-.12.12V15l-.12.12-.12.12-.24.13v.12l-.12.12v.12l-.13.12-.12.12v.12h.12v.12l-.12.12v.12h0l-.12.13V17h.12v.12l.12.12h.13V17H43l.12-.12h0l-.12.24h-.12v.12H43v.12l.12.12h.12l.24.12.12-.12.12-.12v-.12h.13v-.12l.12.12-.12.12v.12l.12-.12.12-.24h0l.12.12-.12.12-.12.24-.12.13v.12H44l.12.12h.24V18h.12l.12-.12h0l.12.12h0l.12.12.13-.12h0V17.8l.12.12-.12.12.12.12h.12v-.24h.12V18h0v.12h.12l.12-.12.12-.12V18h0v.12h.12l.12-.24h0v.36H46l.25.12h.12l.12-.12v.12h.24v-.24L47,18v-.12l-.12-.12.12-.12h0l.12.12v.12h0L47,18v.48Zm-5.2-6.78h.12v-.12h-.12Zm-.24.85h.12v0h-.12Zm-3.64,1.33h0V14H38Zm2.42-2.3h0v.24l.13.13v-.25l-.13-.12Zm-1.21.12h0l.13.12.12-.12h.24l.24-.12h.24L40,11.5h-.24l-.12.12h-.36ZM38,12.11h0L37.89,12h-.36v-.25l.12-.12V11.5h0v-.24H38v.12h0v.12h.13v.12l-.13.12.13.12V12l-.13.12Zm-.24.6H38l.13-.12.12-.24-.12-.12h-.61l-.12-.12v.12h-.12v.24h0l.12.12h.24Zm-.48.12h0l.24.12H38l.13-.12h0L38,12.71l-.36.12h-.12l-.24-.12-.12.12Zm-.12.49h0l.12-.12h.12l.12-.13h.61L38,13.2h-.24v.12l-.24.12-.12-.12h-.24Zm-3.51-4.6h-.12l.12-.12h.12v.12Zm-1.09.48h.12l.12-.12.24.12h.24v.24h0l-.24.12h-.12l-.12-.24-.12-.12h-.12Zm-5.21.24h-.24V9.32h.24v.12Zm.49.73h0l.24-.12v.12l-.24.12v-.12Zm.36-.24h0V9.81h0l.12-.25h.12l.12-.12h.12v.12l-.12.13-.12.24v.12h0l-.12.12.12.12v-.12h.12v.12h.12l.24-.12v-.12h.13l.12-.12V9.81h.12V9.44h.12v.61h.12l.12-.24V9.69l.12-.13h0L30,9.32V9l.13.12L30.39,9l.12-.24V8.6h.12l.12-.13.12.13L31,8.47h0v.37L30.75,9V9.2h-.12v.12l-.12.12-.24.25v.12l.12.12v.12h.24l.24-.12V9.69L31,9.56V9.44h.73l.12-.12L32,9l.12-.12V8.6h0l.12.12.12.12V8.6l-.12-.25h0l.25-.24h.48L33.05,8l-.12-.12V7.51l.12-.13h-.12V7.14h-.24l-.12.12v.37h0l-.12.12V7.51h-.13v.24l-.12-.12V7.38l-.12-.12H31v.25h-.24l-.36.24-.12.12h-.12L29.9,8l-.12.12h-.12v.12h-.24l-.12.12-.12-.12v.12h-.12l-.25.25h-.36l-.12.12H28L27.85,9h-.37l-.12.24h.12v.24h0l-.24.12v.13h.36V9.56l.12-.12.13.12.12.25v.12ZM42.49,18.4h.25v.12h-.13Zm-1.57-3.27h0L40.8,15h-.12l-.12.12h.24v.12h-.36l.12.25h-.37l-.12.12v.24h0V16h.12v.24h.25v.12h0l.12-.12.12.12v.25h.12v.12h.12l.24.12h.24l-.12-.12h.12l.13-.25v-.12l.12-.24V16l.12-.24v-.36l-.12-.13v-.12L41.53,15v-.12h-.61L40.8,15h.12v.12Zm1-1.21h-.12V13.8h.12v.12Zm-.24.85h0v-.12l-.12-.12h0l.12-.12v-.25h.24l-.12.37v.12l-.12.12Zm-1.09-.36h0v-.12h.12l.12-.13v.13h-.12v.12Zm-.25.12h0l.13-.12h0v.12Zm.25.36h0v-.12h0v-.12h.12l.12.12-.24.12Zm-.25.12h-.12v-.24h0l.12-.12h0l.13.12h0v.12h0l-.13.12Zm-.48.12h0V15H40v.12Zm-1.57.25h0v-.13h-.12L38,15.13V15h0v-.12l.13-.12h0l.12.12h0v-.24h-.12L38,14.53h0v-.12h.13v.12l.12-.12h-.12l.12-.12.12.12h.36l-.12-.12h.12l.24-.13h.37V14h0l-.61-.12h-.48l-.12-.12h-.61v-.24h.36l-.12-.12h0l.12-.12h.25v.12h.12v.24h0l.12-.12v-.12l-.12-.12V13.2h.24v-.13h-.12v-.24h.12l.12-.12h.12l-.12-.12H38.5v-.12l.12-.12v-.12h.24l.12.12v.24h0v.12l.12.12v.61h0l.13.12.12-.12v-.37h.12V13l-.24-.12.12-.12h0l.24.12-.12-.12-.12-.12v-.24h0v-.24l.12-.12h.36l.12-.13h.12V12h.24v.36l-.12.12v.12h.12v-.12l.13.12.12-.12v-.24l.12-.12.12.12h.12l-.12-.12V12h.12v.36h0v.12l.12.12.12.12-.12.12-.12.12-.12.12v.37h-.12l-.12.24-.12.12-.13.12v.24h-.12L40.07,14l-.12.12h.12l.12.13v.12l-.24.24v-.12h-.24v.12h0l-.12.12h-.12l-.12.12.12.12h.12l-.12.12.12.12-.12.13h0l-.12-.13v-.12l-.12.12.12.13-.12.12h-.49v-.25h0l-.12.13H38.5v-.13l.12-.12-.24.12h0Zm-9.81-4.24h0l.12-.12.24-.25.25-.12.12-.12h.12l.12-.12h.24l.12-.12h.37v.12l-.25.12-.24.12-.48.37-.12.24h-.13l-.12.12h-.12v-.24h-.24Zm7.39,3.15h0l-.13-.13H36v-.24l.24-.12h.24v.12h0v.24l-.12.13-.12.12H36l-.12-.12ZM29.9,14h0l.12-.12v-.36l.25-.12.24.12v-.12l.24.12h.12l.24-.12h.61l.12.12.12-.12h.36v-.12l.13-.12h-.13v.12h-.24V13.2l-.24.12h-.12V13.2l-.12-.13-.12.13h-.73v-.13l.12-.12.24-.24H31l-.12.12-.12.12-.12-.24V13l-.24.12-.12.13h-.12L30,13.07v-.24H29.9v.24h-.24v-.24l-.24-.12.12-.12h-.12v.12H29.3l-.12-.24-.25-.12v-.12h.13V12l.24-.13.12-.12.12.12h.24L30,12h.13l.12-.13h.24l.12-.12-.12-.12h-.36l-.25-.12h-.24l.24-.24.25-.12.12-.12.12.12.24-.12H31l.12.12h.12L31.11,11h0l-.24-.12h-.36l-.12-.25.12-.12.12-.12h.24l.12-.12h.12l.12.12h.13l.12.12h.12l-.12-.12-.12-.12v-.12l-.13-.12h.13l.36-.12h.36l.24.12v.24l-.12.12-.12.12.12.12h.49l.12.12v.13h.12l-.12.12v.12h-.12l.12.24.12.24-.12.12h-.24v.12h.36v.37l-.12.12-.12.24h.36v-.12l.12.12v.12h.49l.12.24.12-.12h0v-.12l.12-.12v-.24l-.12-.12v-.12L33.78,12l.12-.13h.48v-.24l-.12-.24h0v-.24L34.14,11l.12-.25.12-.12.12.12h.12v-.12l.13-.12.12-.12.36-.24h.12l.12.12v.12l.12.12h-.24l-.12.12v.49h0v.48h-.12l-.24.12-.12.12h0l.12.13.12-.13h.24V12l-.12.12-.24.12-.12.24-.13.12.13.12v-.12l.36-.12v-.12l.12-.12.24.12v.24l-.12.24h0l.12-.12h.12v-.12h0l.12-.12v-.12l.25-.24h.12l.12.12.12.24v.36l-.24.37-.12.12-.12.12h-.13v.12l-.12.24h-.12l-.24.12v.24h-.12v.13H35l-.12-.13-.12.13h-.13l-.24.12h-.24L34,14.29V14h0v-.12L33.9,14l-.12.12h-.24V13.8h-.13v.12h-.24l-.24.12v.12h-.12L32.69,14h-.24l-.13.12h-.24v.25h-.24l-.12.12-.12-.12-.12.12h-.25v-.12H31l-.12.12h-.24l-.24-.12h-.24v-.25Zm-9,4.73h0v-.25l.13-.24v-.73l-.13-.36h.13v-.12h-.49V17h.12l.12-.12.25-.12v-.12h0l.12-.13h.24v-.24h.36V16.1h.12l.12-.24v-.12h.49V15.5l-.12-.12v-.13l.12-.12.36-.24.12-.24h.37v-.24l.24-.12h.12l.12-.13L23.73,14l.12-.36v-.36h0V13.2l.24-.13h.61l.12.13h.48l.37-.25.36.12v.25h.12v.24l.48.12v.12l-.12.12h.37v.24l-.25.25h0l.37-.12V14h.24l.24-.12h.12v.24l.25.25.12.36-.12.12.12.24v.25l-.12.12.12.12v.24l-.12.12-.25.12-.12.12h-.6l-.37.12h-.24l-.36.25h-.12l-.12.12h-.85V17l-.12.12h-.12l-.12.24h-.13l-.24.24H24l-.12-.24-.12.24v.13h-.24l-.12.24-.13.12-.12.12v.12l-.24.24-.12.12h-.24l-.12.13h-.12l-.13-.13.13-.12V18.4l-.13-.12L22,18.4h0l-.12.12-.12.12-.24.13h-.24l-.12.12h-.25Zm19.25-2.31h0v.13l.12.12-.12.12h0v-.12l-.12-.12Zm-1.45.13h0v-.25h.36l-.12.12h-.12v.13Zm-1.45.72h0v.12l.24.12.12.13.12-.13.12.13.25-.13h.12l.12-.12h.24v-.12l-.24-.12-.12.12h-1Zm-.85,5.33h0l-.12-.12h.12v.12Zm-1-.12h0V22.4l-.12-.12v-.13l-.12.13v-.37l-.12-.12.12-.24v-.24l-.12-.12v-.25L35,20.82v-.24l-.12-.12h-.12v-.24l-.13-.12-.12.12V20.1h-.24V20l.12-.13.12-.24-.12-.12h0v-.36h0l.12-.24.25-.12v-.13h.12v.13l.24-.13.12.13h.12l-.12.12h0V19h.12v.24l.12.12v.12l.12.12.12.12.13-.12-.13-.12h.13l.12-.24h0l.12-.12V19L36,18.89l.12-.12h.24v.12h.12l-.12-.25v-.12H36.2v.12H36l-.12-.12V18.4l-.13-.12V18H36v-.12h.12l.12.12v.36h.12v-.24h0V18l-.12-.12v-.37l.12-.12h.24l.12.12h.24v-.12h-.24l.12-.12h.37v.12h-.12v.12h.12l.12.25.12-.12.12.12h.24v-.12l.12.12h.37l.12.12.12-.12v.48l-.24.12-.12-.12H38v.12h0l.13.12v.25l-.13.12v-.12h-.12l-.24.12h0l-.24.12-.24.12h-.12l-.13.24h.25l.12-.12h.12l.24.12v.24h0V20h-.12v.24h0l.12-.12.12-.12h.12v.24l-.12.24v.12l-.24.12-.12.12h0v.25l-.12.12v-.12l-.12.12h0l.24.12-.12.12h-.12l.12.12-.24.12v-.12l-.13.12H36.8l-.12.12v.12h-.24l-.24-.12-.12.12H36v-.36l.12-.12v-.12l-.24.24v.12l.12.24v.24l-.12.13-.13.12-.24.12ZM38,19Zm-.12.6H38l.13-.24v-.12h0L38,19.13h0l-.12.12v.36Zm0,.24h0l.12-.24-.12.12h-.12v.12Zm-5.81-3.14h0v.12h.24v-.12Zm1,1.81h0l-.12-.12v-.24l-.12-.24V17.8h0v-.37l-.12-.24h-.12v-.12l.24-.24h.12l.12-.12h.49l.12.12H34l.12.24v.12h0l.12.24h0l-.12.12v.13L34,17.8H33.9l-.24.24-.12.12-.25.24h-.24v.12Zm5.45,3.15h0l-.24-.24-.12.12-.25-.12.12-.12h.25v-.12H38l.25-.25v-.48h.12v-.12l-.12-.12h.12V20l.12-.25.12-.12v-.12l.12-.12v-.12l.12-.12V19l.12-.24.12-.25h.13V18.4h0v-.24l.12.12.12.12.12.12h.12V18.4l-.12-.12v-.12h.12L39.59,18l.12-.24h.48l.12-.12.13.12h.48l.12.12.12.12h.12v.24h.37l.36.12.24.12v.12h.12v.13h-.12l-.12.12-.12.24-.12.12-.12.12h0l-.37.24-.12.24H41l.12.13L41,20.1l-.24.12-.12.24-.37.12-.12.12-.12-.12H40l-.24-.12v-.12l-.12-.12v.12l-.24-.12H39v.12h.37v.12l-.12.12.12.12v.12l-.12.12-.13.13v.12h-.24l-.12.12-.12.12H38.5v.24Zm9.2.61h0l-.12-.13h-.24v-.24h-.12v-.36h.12v-.12l.12-.12v-.12h-.24l-.13-.12.13-.37h.12l.12-.12-.12-.12.12-.12.12-.12.12-.12v.12l.12.12.24.12.12.12h.73l.12.12v.12l.24.12v.49h.12v.72h.13v.13l-.13.12h-.24L49,22.28h-.24l-.12-.13h-.24L48.31,22l-.25.12h-.12l-.12.13Zm-.85.24h0V22.4l.12-.12v.12h0Zm.24.12h0v-.12h.13v.12Zm.37,0h-.12v-.12h.12l.12.12Zm-9.32,3.27h0v-.24h.12l.12.12h-.12Zm.48.72h0v.13h.12v-.13l-.12-.12Zm-.12,0h0l-.12.13h.12v.12h0v-.25Zm2.9-.48h0L41.28,26h-.12v-.12L41,26h0v-.12l-.12-.12h.36l.25.12V26H41.4v.12Zm1.58.61h-.12v-.13H43l.12.13Zm.24,0h0l.12.12-.12-.12Zm.24.12h.24l-.12-.12h-.12l-.12.12Zm1.7,2.3h0v-.25h.12v.13h0v.12Zm-.12.48h0l-.12-.12.12-.12h.12v.12H45v.12Zm-1.34-2.3h0v-.12l.13.12H43.7Zm.13.12h0v.12h.24v-.12h-.24Zm1-.36h.13v.12h0v.12H45v-.12l.12.12.12-.12v.12l.12-.12v-.12h-.24L45,27h-.12l-.13.12Zm1.7-.12h0v-.12h.12l-.12.12Zm-.61.72h0L46,27.6v-.12h.13l.12-.12h0l.12.12h0l-.12.12-.12.12h-.25Zm-.6.85h0l.36-.12v-.12h.12l.12-.12.12-.12V28l-.12-.12h-.12V28h0l-.24.24h-.24l-.12.12v.12H45v.12Zm1.21-.12h0v-.24h.12v-.12h.24l.12.12-.12.12h-.12l-.12.12Zm1.09,1.21h0l-.12-.12.12-.24-.12-.12h-.12v.48h0v.12h.12Zm.12,0h0l-.12-.12.12-.24v.36Zm.12.24h0v-.12h.12v.12Zm-.48.37h0v.12l.12.24h.36l.24.12v-.36h-.24v-.12H47.7v-.12h-.12v.12h-.24Zm-3.88,5.44Zm-2.3-3.63h0l.12.12h.12v-.12h-.24Zm-.48.85h0v-.24h-.24l.12-.12-.12-.12-.13-.13.13-.12v0l.12.12.12.13h0v.24l.24.12h0v.12h-.24Zm-.85,0h0v-.24h0V32.2H40v.37h.12l-.12.24Zm-.12-3.63h0v.12l.12.12H40l.12-.12V29.3h-.36Zm.12,0h0v-.37l.24-.12v-.12l.12.12v.12l-.12.13v.12L40,29.3Zm-7.26-1.58h.12V27.6h-.24v.12ZM26.39,26h0v-.12h.12V26Zm-.48.24H26v-.12h-.12Zm.24.49H26l.12-.13v.13Zm0,.12h0L26,26.63l-.12.13H26Zm.24.36h0v.12h.12v-.12h0l.12-.12h-.12v.12l-.12-.12Zm-.24.85h0L26,27.85l.12-.13h0l.12-.24v.24h.12l-.12.13.12.12h-.12l-.12.12Zm5.57-3.39h0v-.12h.12v.12Zm1.94-1.21h0l-.12-.12v-.25h.12v.12h.12l-.12.13v.12Zm-2.18,2.3h0v-.12l.12-.13h0V25.3h-.12v-.12l.12-.12h.12v-.12l-.24-.12h0v.12l-.12.12-.13-.12h-.12l-.24.24h-.12l.24-.12v-.12l-.12-.12V24.7H31l-.12-.24.12-.13h.12v.37h.37l.12-.12-.12-.12h.24l.12-.13v0H32l.12-.12-.12.25v.12h.12v.12h0l.12-.12h.12v-.25l.13-.12v.25l-.13.12v.24h.25V24.7l.24-.12v-.25l.12-.12V24h-.12l-.12-.12v-.12h-.12v-.12l-.25-.12v-.37L32.2,23l.12-.12-.12-.24v.24l-.12-.12L32,22.64l-.12-.24-.12-.12V22l-.12-.12v-.36h.12v-.12H32v-.12l.12-.37v-.12l.12-.12-.12-.24v-.12l.12-.12V20.1l.12-.25.13-.12v-.36l.12-.12v-.12l.12-.12v-.37h.12v-.48L32.69,18l-.12-.12.12-.12-.12-.25h-.12l-.13-.12h0l-.12.25h0l-.12-.37H32l-.12-.12-.12.12v.24l-.12-.12-.12.25v.12h0l-.12.36v.12l-.13.12v.24h-.12v.13l-.12.12v.24l-.12.12h0l-.12.24v.36l-.12.13.12.12-.12.12h-.12l.12.12h.12v.12h-.24l-.12.12-.12-.12v.24l-.12.12V20.7L30,20.58l.13-.12L30,20.34V20.1l.13-.25v-.12l.12-.12v-.24l.12-.24.24-.12v-.24h-.24v-.13h.12v-.36h0L30.39,18h.12V17.8h-.12l-.12-.12H30v.12l.13.12v.36h0L30,18.16H29.9v.24l.12.12v.12l-.12.13v-.13h0l-.12.13-.12-.13v-.12h0l-.12.25-.12-.13v-.12l.12-.12h0l-.24.12-.12.12-.12-.12h-.61V18.4h.12l.12-.12.12.12.25-.12v-.12h.12l.24-.12v-.12h0l-.12-.12-.12-.25-.12-.12h-.13l-.24-.24v-.12h-.12l-.12.12h-.12l-.24.24.12.12h-.12v.13h-.24l-.13-.13H27.6l-.12.13h-.12l-.12-.13h.12l.24-.12v-.12h.25l.12-.12V17h.12l.12-.24v-.25l.12-.12-.12-.12h-.12l-.24.12H27.6l-.24.12-.6.13-.73.24-.12.12-.37.12-.6.24-.12.24H24.7l.12.13h.12l-.12.12H24.7l-.24.24h-.25l-.12.12v.12l-.24.12-.12.12v.12h.12l.12.13v.12h.12l.12-.12h.12l.13.12-.13.12H24v.12l.24.12h.12v-.12h.13v.12h.12l.24.12.24-.12h.12l.24.12h.25l.12.12h.12v.12h-.12l-.25-.12h-.36l.24.12H24.7v.12l-.12-.12h-.73v.12h-.36v.61l.12.12v.12h-.12v.12l.12.12h.48V20.7l.12.12h.12l.13.12h0v.13l.12-.13h.12l.12.13h1l.12.12H26v.12l.12.12h0v.12h.24v.12h.12l.12.12h0v.12l.13.12.12.12v.13h0v.12h0l-.25-.12H26l-.12-.13h-.12L25.67,22h-.25l-.12-.12h-.12v-.12h-.12l-.12-.12h-1.7l-.12.12V22l-.12.25v.36h0l.12.12h0l-.12.12.12.24.12.12v.13l.25.12h.24v.12h.12l.12-.12h.12l.12.12h.12l.13.24h.12V24h-.12v.12h-.13l.13.12-.13.12h-.12v.13l-.12.12.12.12v.12l.12.12v.12l-.24.12h.49v.12l.12-.12h.36l.24.12v-.12h.24v.12h.13l.12-.12.12.12h.24v.12h.24l.12-.12.12-.12h.13l.12-.12h.24l.12-.12H28l.36-.12V24.7h.12l.12-.12v-.12h.24v-.13h.12l.13.13h0v.12h-.13v.24h-.12v.12h.12l.13.12v-.12h.12l.12.12v.12h.12v-.12l.12.12v.12H29.3v.24h.12l.12.13.12-.13.12-.12h0v.12l.12.25H30v-.12l.13.12h.24v.12h.12v-.12h.24v.12h.12l.12-.12h0v.12h.12v-.12h.37Zm14.16,5.32h0v-.6l.12-.12.12-.24H46l.25-.37.12-.12h.48l.12.12h.12l.13.12v.25l-.13.12-.12.12v.12l-.12.36-.12.12h-.12l-.12.12h-.24l-.12.12L46,31.11l-.24.12v-.12ZM32.2,25.3h0v-.12h.12l-.12-.12.12-.12h0v.12h.13v.12l-.13.12H32.2ZM31,26.51h0v-.12h.12v-.24H31v.12h-.24l.12.12Zm1.46-.24h-.13v.12l-.12.12-.12-.12v-.12l.24-.24-.12-.12h.25l.12.12Zm.12-.24h0v-.12h0l.12-.24h0l.12.12-.12.12V26Zm2.78,0h0l.12-.24.12-.12.25.12v.12l-.13.24h-.12v-.24l-.12.12h-.12Zm-.12-.12h.12l.12-.12-.12-.25-.12.13Zm0,1.33h0v-.12l.24-.12v-.12h-.24l.12-.37.12-.12-.24.12-.12.12v-.12l.12-.36-.12-.48L35,25.54v-.12h-.12l-.12.12V25.3h.12l-.12-.24v-.24l-.13.12-.24.12-.12.24v.24h-.12V25.3H34v.24H33.9l.12.13-.12.12h-.12v.12h-.49l-.36.24v.12l.24.24.12-.12v-.24l.12.12v.24l.13.12.12-.12v.25l.12.12.12.12.12.12.12.12.12-.12v.12l.12.12h.37l.12-.12H35l.12-.12Zm15.38-1.09h0v-.36h.24v.12h.24L51,26l-.12.12V26l-.12.12Zm-.37,13.2H50l-.24-.12-.12-.13h-.12L49.39,39l-.12-.12v-.12l-.12.12L49,38.74v.12l-.24-.12v-.12h-.24l-.12-.24v-.12h-.25V38h.13l-.13-.12-.12.12h0v-.12h-.12l-.24-.12h-.12l-.12-.12-.12-.12h-.12v-.12l-.13-.12v-.24H47v-.13h.25l.24-.12v-.12h-.12l-.12-.12-.13-.12.13-.12h-.13l-.12.24h0l-.12-.12H47V36.2l-.12.12v-.24h-.12v-.24l-.12-.13-.12-.12v-.12l.12-.12v-.12l-.24.24v-.12l-.12-.12v.12l-.12-.12v.36H46v-.12l.13-.12L46,35.23l.13-.12H46l-.12.12h-.12l-.12.12v.12H45.4v-.12h-.12l-.12-.24H45v.24h-.49v.12H44v-.12l-.12-.12H43.7l-.12-.12-.12-.24.12-.25h.12V34.5l.13-.12.12-.12h.12l.12-.12.12.12v-.12L44.19,34V33.9h.12v-.12h0l.12-.12.12.24h.12l.12.12.13.12H45l.12.12.12-.12h.12l.12.12h.24l.12-.12V34h.25v.12H46l.13.12.12-.12.12-.12.12-.12.12.12v.12h.12l.12-.12v-.36l-.12-.12-.12-.13v-.36h.12l.24-.24.25-.12.12-.12.24-.12h.24l-.12-.13V32.2l.24-.24v-.12h.61v-.12l-.12-.12.12-.12v-.37h0V31l.12-.12v-.12l-.12-.12h0v-.24h.12v-.12l.12-.12V30h-.12l-.12.13v.12h0V30h-.37l-.12-.12v-.12h.25v-.12h-.13l.13-.12v-.12l-.25-.12h0v.12h0v.12h-.24v-.12H47.7V29.3l.12-.12v-.12h-.24l.24-.13H47.7l.12-.12h.12v-.12H47.7l-.12.24h-.12v-.24l-.12.12v.12H47l-.12.13h-.12l.12-.13-.12-.12h0l.12-.12v-.12l.12.12h.25l.12-.12.12-.12-.12-.12-.12-.12h-.13V28H47v-.12h-.12v-.13h-.12V27.6H47l.12-.12H47l-.12-.12h-.12v-.12h-.12v.12h-.12l.12-.24.12-.24h0l.12-.25v-.36l-.12.12h-.12l-.12.12v-.12l-.24-.12V26h-.12v-.24h.12l.12-.12h-.12v-.13h-.12v.25l-.13.12v-.12h-.12v.12h-.12V26l.12.12H46l.13.36h0v.25L46,27h-.6l-.12-.12h0v-.12H45l-.25-.13-.24-.12.12.37.12.12h-.12l-.12-.12-.12-.12h0l-.12-.13-.12-.12-.12-.12v-.12H44L43.83,26H43.7l-.12-.12V26l.37.24v.12l.12.12h.12v.25h-.12l-.24-.13H43.7l-.24-.12v-.12h-.24l-.12.12L43,26.39h-.24l-.13-.12-.24-.12V26l.24-.12.13-.12h-.13l-.12.12-.12.12h-.12L42,25.91V26h.12l-.12.12h-.12l-.24-.24v-.12l-.12-.12v-.13l.24-.12.12-.12h-.24l-.12.12-.13.12h0l-.12-.12.12-.12h-.12l-.12.12h.12l-.12.12H41v-.12H40.8v.12h-.12l-.12-.12V25.3h.12l-.12-.12-.25-.12v-.48l-.12-.25.12-.12h.13v-.12L40.31,24v-.12l.13.12h.36l.12.12v.12l.36.12h.49l-.12-.12h0l-.25-.12v-.24h-.12L41,23.73h-.12l-.12-.12h-.12l-.37-.12v-.37l.13-.12v-.12l.12-.12h.12v-.48l.12-.13h.12V22l.12-.12h.12l.12-.12h-.12v0l.12-.24.12-.24v-.12l.13-.12h.24v-.25h.12v.12H42l-.12-.12.24-.24h.12v-.24l.12-.12h.12l.12-.12h.13v-.25l.36-.12.24-.24.36-.12h1l.25.12.24.12.12.12-.12.12H45l-.25.13h-.24v.12l-.12.12-.24.12-.24.24-.25.36-.24.13h-.12l-.12.36v.12l.12.12v.24l-.12.12-.12.12-.12.13v.24l-.12.12v.48l.12.12v.25l.12.12v.12l.12.12v.24L43.1,24h0v.12h-.24l.12.12h.12l-.12.12v.49l.12-.12v-.12l.12-.37h.12V24l.12-.12.12-.12v-.36h-.24v-.25h0v-.24l-.12-.12v-.12l.12-.12v.12h.12l.12-.12.12-.12h-.12l.12-.12h.13l.12.24h-.12l.12.12.12-.12V22.4l.12-.12h0v-.13h.12l.12-.12h-.12v-.12l-.24.24H44L43.83,22v-.24H44l-.12-.12.12-.24.12-.24v-.12l.12-.13.12.13.12.12v.12h.24l.12.24h.13l-.13-.12v-.12l-.24-.12v-.12l-.12-.13h-.12v-.12h.24V20.7h.12l.25.37H45l-.12-.25-.25-.12v-.12l.12-.12.13-.12.12.12v.24l.12-.12L45,20.46l.12-.12h.24v.24h.12v.24l.12-.12v-.12l-.12-.12v-.12l.36-.12.25-.12h.12l.24-.12.24.12H47l.12.12h.13l-.13.12v.36l-.12.12-.12.25h0l.24.12v.12h0l-.24.24v.24l.12.12V22l-.12.12h-.12l-.12.13-.12.12h-.12l-.12.12-.12.12h.12l.24-.12.12-.12h.12v.12h-.12l-.12.24-.24.12h0V23h-.12v.12h.12v.12l-.12.13h.12v-.13h.12l.12-.12V23h.12l.12-.24V23l.12.12v-.24l-.12-.12.12-.12H47v.24h.12l.13-.24.12.12.12.12-.12.12-.12.24-.13.13-.12.12h.12l.13.12.12-.12h-.12l.12-.25.12-.12.12.25v-.13L47.46,23v-.24h.24V23l-.12.12L47.7,23h.12l.24.24v.13h.37l-.12-.13h-.13v-.12l-.24-.24h-.12l.12-.24h.12l.12-.24h.49v.12h.12l.24.12h0l.12.12v.12l.12.12v-.12h.12l.13.12.12.12v.12h0l.12.13v.12l-.12.12h-.49l-.24.24.24-.12.24-.12v.12l-.12.12-.12.12-.12.24-.12.12h-.12v.13h.12l.24-.37.12-.12.12-.12.25-.12h.12v.12h.12v.36h-.12l-.12.25h-.12l-.13-.13h-.12l-.12.13h.24v.12l-.24.12h0l.12-.12h.25v.12h-.13l-.24.12h.24l-.12.12-.12.12-.12.12h.12l.12-.12.12-.24.13-.12.24-.12h0v.12h.12v-.12l.24-.12h.12v.12L50,24.7l-.24.24h-.12v.24l-.12.12h.12v-.12l.12-.12.12-.24h.24v.12l-.12.12-.12.12v.12l-.12.24h-.12v.13l.12-.13.12-.12.12-.24h.12l.12.12h0v.12h-.12l-.12.25v.12h0l.12-.12h0l.12-.25h.12v-.24l.12-.12v-.12h.13v-.12l.12-.12h0v-.12l.12.24.12.12.12.12.12.12v.12l.12.12v.12l-.12.13-.12.12H51l-.12-.12h-.24v.12l-.13.12h-.24V26h.24v.12l-.12.12h-.12l-.12.12h.24l.12-.12h.25l.12-.12H51l.12.12h0V26l.12-.12.24-.12v.12h0v.24l-.12.24h-.24v.12l-.12.12h-.12v-.12h-.12l-.12.12v.13l-.13.12V27l-.12.12.12-.12.13-.12.12-.25H51v.13l-.12.12V27l-.24.12-.13.12v.12l.25-.12.24-.36.12-.25h0l.12-.12h0l.24-.12.24-.12h.13l-.13.12-.12.12h-.12l-.12.12v.13h0l.12-.13h.12l.12-.12h.13l.12-.12h.24v.12l.12.25.12.12h.12v.24l-.12.12H52.3v-.12h0l-.12.12-.12.12h-.49l-.24.12h-.12l-.12.12h.12v.12h0l-.24.13h.24l.12-.13.24-.24h.49v.24h-.12l-.12.13h-.25V28l-.12.12L51.33,28l-.12.12-.12.12h.12l.12-.12h.12v.12l.12-.12.12-.12.13-.12.12.12h.12l.12-.12.12-.13h.12V27.6H52.3l.12-.12v-.12h.24v.12l.12.37V28l.13.12v.12l-.13.12h-.12l-.12-.12H52.3l-.12.12h-.36v.12h.24l.24.24h.24l.12.12h.25v.49h-.13l-.12-.12h0l-.12.12v-.12H52.3l-.12-.25h-.36l.12.13h.12l-.12.12h-.37l-.12.12h.37l.12-.12h.12v.12h0l.12.12h-.12l-.12.12-.12-.12h-.13l.13.12h.12v.24h-.49l-.24-.12h-.12l.24.12.36.12V30h0l-.24-.12h-.12l-.12.12h.24v.13h.12v.12h.12v-.12h.25l-.12.12h0v.12h.12v-.12h.24l.12.12h.12l-.12.12h-.12v-.12l-.24.12-.25.12h.37l-.12.12h.36l.12.12V31h0l-.12.24h.12v-.12l.12-.12h.12v.12l-.12.12-.12.25v.24h0l.12-.24v-.12h.12l.12-.13h0v-.12l.13-.12h0v.12l-.13.25-.12.12v.24h.12v-.24l.13-.12v-.13l.24-.12.12-.12v.37H53v.24h.12l.24-.12v.12l.12.12v.12l-.12.12h0l.12.12h-.24l.12.12h.12l-.24.12h.48l-.12.13-.12.12.12-.12h.12l.12-.13L54,32.2h.12v.12l-.12.13h0l-.13.12v.12l-.24.12v.12h0v.12l.12-.12v-.12l.25-.12.12-.12v.12l-.12.12v.24h0l.12-.24h0v-.12l.12.12v.24h.12v-.24l.24-.12h0l-.12.12h.24v.24h.12v.24H55v.12h0l-.12.13h-.12v-.25H54.6v-.12l-.12.12-.12.12.12-.12.12.12h0v.13h.12l-.12.12-.12-.12v.12h.24v.12H54.6l-.12.12-.12-.12h-.12v-.12h0l-.12-.12H54v.12h.12v.12h0L54,33.9l-.13-.12v.12h.25V34h.12v.12H54L53.87,34l-.12-.12h0V34l.12.12.13.12v.12l-.13.12h0l-.12-.12v-.12h-.12v.49h-.12V34.5h0l-.12.12h-.12v-.36h-.12v.36h0v.13h-.24l.12.12h.12V35H53v.24h-.12l.12.12h0v.12l-.12.12h-.13v-.12h-.12v-.12h0v-.12h-.12v.12h-.12v-.12h0v-.12h0V35h0v-.12h0V35l-.12.12-.12.12h0v-.36h.12v-.12h-.24v-.13h0l.12-.12.12-.12-.12.12h-.12v-.12h.12v-.12h-.12v-.12l.12-.12h.12l.12-.12.12-.12.12-.12.12-.12h-.12l-.12.12h0l-.12.12-.12.12h-.12l-.24.12h-.25V33.9l.25-.24h.12l.12-.12h0v-.13l-.12.13-.24.12-.13.12h0l-.12-.12v-.12h-.12v-.13h.12v-.12h-.12v-.24h0l-.12-.12h0v.12h0l-.12.12-.12-.12h0l.12.12v.12h-.12v.12H51l-.12-.12v-.12h-.12l.12.12v.25h0l.12.12.12.12h0v.12h-.36V34h0l-.12-.24-.13-.12h.13v-.12l-.13-.13h-.24v-.12h-.12l-.12.12h.12l.12.13h.12v.12l-.12.12v.12h.24l-.12.12h.25v.12l-.13.12-.24.12-.12.12h.36v-.24h.25l.12.12h0l-.12.12-.12.12h.24v.13h-.12l-.12.12h.12V35h0v.12h.12v.36h0l.12-.12v-.12h.12v.24h.12v.12h-.12v.12l.12-.12h.12v-.12l.12.12h.12l-.12.12-.12.13V36h0l.12.12h.12l.12-.12v.12l-.12.12h-.12l.12.12v.24h.12v.24l.13.25h.12l-.12.12v.24l-.13.12v.24l-.24-.24v-.36l-.12.24.12.24v.49h-.12L51.21,38h-.12l.12.25v.24h0v.12h-.12L51,38.5v-.24h0v-.12h-.12v-.25h-.12V38h0v-.12l-.12-.12h-.13l.13.12h-.25v-.24l-.12-.24v.24l.12.12-.12.12-.12-.24L50,37.53v-.12h-.12v-.24h-.12v-.25l-.12.13h0l.12.12v.12h-.12v-.12h-.12l-.13-.12-.12-.25v-.12h-.12L49,36.8v-.12l-.12.12.12.25.12.12.12.12v.24h.25v.24h.24l-.12.12h.12V38l.12.13v.12H50l.12.24-.12.12h0l.12.12h0l.12-.12h0v.24h.12V39h-.12l-.12.12h.12l.12.13v.12ZM37.65,35.71h0l.12-.12v-.12h.12v.12h.37l.12.12-.12.13V36l-.12.12v.24h.48V36.2h.24l.12-.12L39.1,36v-.12l.13-.13h.24l.12-.12v.12l.12-.24v-.24h.12v-.12h.24l.12-.12v.12l.12.12h-.12l-.12.12.12.12h.37v.12l-.12.12h0l-.13.25h.49v.12h.36l.12.12h.12v-.12l.13-.12.12-.12h.12l-.12-.13h0l.12-.12h0l-.12-.12v-.12l-.12.12h0v.12l-.13-.12h-.12v-.12h0l-.12.12h-.24l-.12-.12H41l.12-.12v-.12h0v-.36H41v-.13l-.12-.24-.24-.12h0V34h-.24l.12-.24-.12-.12h-.13l-.24-.12L40,33.41h.12v-.12L40,33.17l-.12-.12h0l-.12.24v.12h-.12v-.24l-.12-.12v-.12l.12.12h.12l-.12-.12.12-.12-.12-.12h-.12v-.12l.12-.12h0l-.36.12-.13.12-.12.24-.12.24v.12l-.12.12h0l-.12.25v.24L38.5,34v.12l-.12.12-.12.12v.24h0v.25l-.12.12H38l-.24.12v.12l-.12.24Zm1.21,2.18H39l.12-.24h.13l.12.12h.12l.12-.12.12-.12h.12l.12-.24h.12l.24-.12v-.12l.13-.13h-.61l-.12.13-.12-.13V36.8h-.12l-.12.12-.12.13v.12l-.13.12h-.24v.12h0l.12.24-.12.12Zm12.23,1h.12l.12.12h.12v-.24h-.24Zm-3.87-1.09h0l.12.12h.12V38h0v.13h.12v.12h.12v-.12h.12V38H47.7l-.12-.12h0l-.12-.12h-.24ZM51,39.83h0l-.24-.12v-.12h0v-.12h.12v.12l.12.12v.12Zm-.24.48h0v-.24h-.12L50.48,40v-.12h.37L51,40h0l-.12.12h0v.12h0ZM47,42.49h0v.12h.12Zm.12,0h0v.12h0Zm.13,0h0l-.13.12.13.13v-.25Zm1-1.09h0v-.24h.13V41l.12-.12h.24l-.12.12h.12v.12h-.12l-.12.12h0l-.25.12Zm-3.26-3.75h0l.12.12.12.12h.12l-.12-.12L45,37.65Zm-1.22-1h.37v-.12H44l.12-.12h0L44,36.32h-.12V36.2h-.25l-.12.12h.12v.12h.12v.24Zm-.72.37h.12l.12-.13h.12V36.8h0v-.24H43.1L43,36.44v-.12l-.12.12h-.12l-.13-.12v.24l.13.12.12.12h0l.12.12Zm-.12.6h0l-.12-.12v.12h.12Zm-1.7,1.21h0l.12-.12h0v-.12h0V38.5h0l.12-.12.13-.12h.12V38h0l.12-.12v-.12h0l-.12-.12H41.4l-.12.12-.12.12H41v.37h-.12v.24h0v.12H41v.12h.12Zm-1.45,6.9h0l.12-.12v-.12H40v.24h-.24Zm-.85-.12h0L39,45.4h.12l.13-.12h.12l-.12.12-.25.24Zm.61.24h0l.24-.24v-.12h0v.12l-.12.24-.12.12.12-.12.12-.24h.12V45.4h-.12v-.12h-.12l-.12.24-.12.12h0l.12-.12v-.24l-.12.12-.12.12-.13.24h0L39,46h.12l.13-.12v0L39.1,46l.13.13.12-.13h0l.12-.12Zm-.12,0h0v-.12l.24-.24-.12.24-.12.12ZM49.52,56.17h0v-.12l.12-.12h0l-.12.12-.13.12h0l.13.13Zm3.75.73h0l-.12-.12.12-.12-.12-.12h0v-.12h.12v.24h0v.12h0v.12Zm.12,0h0v0Zm1.45-5.21h0v-.12l.12-.12v.24Zm-.48,1.09h0l.12.13v-.13h-.12ZM55.21,54h0l-.13-.13h.25V54Zm-.37,0H55v-.13h0v.25h-.24V54Zm-1.21,1.93h0v0Zm1.58-.48h0v.12h.12l-.12-.12Zm-1.7-2.79h-.12l-.12.12h-.12l.12.13h-.12V53h0v.12H53l-.12.12H53l-.12.12h0l-.13.12h0l-.12.24V54h-.24l-.12.12.12.12h.12l-.12.12h0l-.12.12-.12-.12v.12h0l-.12.12-.12.12v.12h-.12v0l-.13-.12h.13V54.6h0l-.13.12-.12.12-.12.12h.49l-.12.25-.13.12-.12.12-.12.12h-.12v.24h0v.12h.36l.13-.12h.12l.12-.12h0v.12h.24l.24.12.12-.12v.12h.25v.12l.12-.12h.48v-.12h0v-.12h.12v0l-.12.12h.12l.12-.12h0v.12h-.12l.12.12v-.12h.12v.12h-.24l-.12.12h.24l.12.12v-.12H54v-.12h.24v.12h.12v-.12h.12v.12h-.12l-.12.12h-.12v.13h-.25v.12h-.12l-.12.12h-.12v.12h.12v.12h.12v-.12h.12v.12l.13-.12h.12v-.12h0v-.12h.12l.12-.25h.24l-.12.13h.12v-.13l.12-.12.12-.12v-.24h0l.12.12h0l.12.12-.12.12v.12h.12L55,56.3l-.12.12v.36h-.12v.12h.12l.12-.12.12-.12h0l.13-.12v-.12h.24v.12h-.12l-.12.12v.24h0V57l.12.12V56.9h.12V57h.24V56.9h0v-.12h0l.12-.12h0l-.12-.12.12-.12.12-.12v-.49h0v.12l-.12.12h-.12v.12h-.12v-.24l.12-.12h0l.12-.12h.12v-.12h-.12l-.12.12h-.12v.12h-.12l-.12.12v.12h-.12v-.12h0l-.13-.12v-.12l.13.12h0l.12-.12h-.12l.12-.12h-.25v-.12h.25l.12-.12v-.12h.36v-.37l-.12.12-.12.12V55h0v.12h-.12v.13h-.12l-.12.12h0v-.12h-.13l.13-.13h0V55l.12-.12h-.12v-.12h0l-.13.12L55,54.72h.37l.12-.12h.12v-.24h0v-.12l-.12-.12h-.37v.24l-.12.12h0v-.24h0l.12-.12H55v.12h-.12l-.12.12v0h-.24v.12l-.12.12v-.12l.12-.12v-.24l-.12.12h0l-.12.12h0l.12-.12v-.12h-.12l-.12.12h0L54,54.12h0l-.13.12h-.12v-.12h.12L54,54v-.13h-.13v0l.13-.12h.24l.12-.12h-.24L54,53.51h0l-.13.12.13-.12v-.12h-.13l-.12.12h0l-.12.12v.12h-.12l-.12.12v-.24l.12-.12v-.12h.12v-.12h0l.12-.12V53h.12l.13-.12h0v-.13h0l.12-.12v.12h0l.12-.12.12-.12v-.12h-.12V52.3h-.12l.12-.12h.12l.12.12.12-.12h0v-.24h-.12v.12h-.12v-.12h-.12v.12h-.12l-.12.12h-.13l-.12.12-.12.12h0l-.12.12v-.12l-.12.12h.12ZM48.67,54h0l.36.24h.36l.13.12h.12l.12.12.12-.12v-.12h0l-.12-.12h0L49.64,54l-.12-.13-.25-.12h0l-.12-.12-.24-.12h-.12l-.36-.12h-.37l.12.12.13.12.24.12V54Zm0,3.51h0l-.12-.12-.12-.13-.25-.12h-.12V57h-.12V56.9h-.12v-.12h0l-.12-.12h-.12v-.12l.36-.24v.12l-.12.12h0l.12.12v.12l.12.12v-.12h.12l.13.12h.12l.12.12h.12l.12-.12h.36L49,57h-.12l-.12.12.12.12-.12.13Zm1.09.48h0v-.12l-.24-.12v-.24l-.13-.12h.13l.24-.13.12-.24V56.9l.12-.12.24-.12v-.12l.12-.12v.24h.12v.12l-.24.24-.12.12h.24v.25h.12v-.13h.25v.25h0l-.12.12h-.25l-.24.24H50l-.12-.12h0v.12Zm-11.62-9.2h0V49h0v-.24ZM38,50.48h.13l.12-.12h0l.12.12-.24.13Zm-1.33-1.09h0l.12-.24h.12V49h.37l.24.12v.24h0v.13h-.36l-.12-.13h-.13v.13h0l-.12-.13ZM5.81,50h0l.12.12.12.12v.12l-.24-.24Zm-.24-.36h0l-.12-.25h.12Zm-.85-.73h0L5,49v-.12Zm-1.33-.6h0l.12.24h.12v.24H4l-.13.12H3.63L3.51,49h.12v.24h.12v.12H4v.13l.12.12.12-.12-.12.24V50l.12-.12.12-.12h.12v.12L4.36,50v.12h0l.12.24.24-.12v.12h.12v.37l.12.12.12-.12.13.12h.12l-.25.24.25.24h.12l.12.12.36.24h.24l-.12-.36.12-.24L6.05,51v-.24l-.12-.25-.36-.24v-.36l-.12-.24v-.37H5.21L5,49H4.6l-.12-.12-.24-.12-.12-.12v-.24L4,48.55l-.13-.24H3.39Zm1.45.36H5v-.12l.12.12L5,48.79H4.84Zm-.12-.12h0v-.12l.12.12Zm-1-3.27h0v.12h.12Zm.49,1.45h0v-.12h0l.12.12Zm-.12.49h0v.36l.12-.24Zm.12-.13h0l.12-.24h0L4.12,47v.12ZM4.48,47h0l.12-.36h.12l.12-.12H5l-.12.24H4.72L4.48,47Zm-.12-.84h0V46l.12-.24V46H4.36v.13Zm-.36,0h.24V46Zm-.25-.49h0v.24l.12.12v.13L4,45.88l-.13-.12Zm.12-.12H4v.24h.12l.12-.12v.24l.12-.12V45.4l-.12-.12-.12.12Zm0-.36h0l.13.12V45Zm.37-.24h0v-.13l.12-.12h.12v.12H4.24Zm-1-.49h0l.36.36.12.25-.12.12H3.51v-.24l-.24-.25v-.24Zm.24-.12h0l.12.24v.12l.12.25.12.12v-.25l-.12-.24-.12-.24H3.51Zm-.24-.24h.24v.12h.12l.12-.12L3.63,44H3.39Zm-1.58.12h0V44l.25-.37h.24l-.12.25h.12l.12-.13h.12V44l-.12.12-.36.12.12.12v.12l.24-.12v-.24L2.54,44l.24-.12h0l-.24.24v.24l-.12.24-.12.24-.12.13H2.06L1.94,45h.12l.12-.12L2.3,45v.12H2.18l-.12.12v.48l.12.24v.13H2.3l.12.12-.12.12H2.06l-.24-.49v-.24l.12-.12H1.69v-.24h.25l-.12-.12L1.69,45l.13-.12-.13-.13v-.12h.13v-.12l-.13-.12-.12-.12Zm1.82-.73h0v-.24h.12v.12Zm15.38-23H19v-.12h0ZM17.43,19h.12l.13-.12v-.12l-.13.12Zm-5.32.36h0l.12.12.12-.12h-.24Zm0,.36h0v-.12h.12Zm-.25.37h0v.24l-.12.12v.12l.25.12v-.12h.24l.48-.48L13,20v-.13h-.12v-.36l-.12.12-.12.12-.12.12V20h-.12l-.12.12v-.25h-.12L12,20v-.13l-.13.25Zm-.6.48h0l.12-.12v-.24l-.24.12v.12h0v.12Zm.12.12h0l.12-.12-.12-.24V20.1L11.5,20l.12.12V20h0l.12.12v.36l-.12.12.12.12-.24.12Zm.24.73h0v-.12l-.12-.24v-.25h-.12l-.24-.12h0v.12l.24.25-.24-.13v.13l.24.12ZM9.93,18.77h0v.12h.12l.12.12.12-.12-.12-.12-.24-.13ZM6.78,51H6.66l-.12-.24.12-.37.12-.12H6.66l-.12.12-.24.12-.13-.24v-.12H6.3v.12h.12v-.12L6.3,50v-.12H6.17L6.05,50l-.12-.12-.12-.12v-.12l.24-.12v-.25h.12v-.12l-.12.12H5.81v-.12L5.93,49l.12-.12v-.36l-.12.12v.24l-.12.24H5.69L5.57,49H5.45v-.12h.12v-.12l-.12.12L5.33,49h0v-.12H5.21L5.08,49,5,48.91H5l.12-.12h.13l.24-.12.12-.12.12-.12v0l-.12.12-.12.12H5.08v-.12H5v-.12H4.84l-.12-.12H4.6v.12l-.24-.12v-.13h.12l.12.13.24-.13H4.48v-.12H4.6v-.12l-.24.12H4.24v-.24H4.6l-.12-.12H4.24l.24-.12.12.12.12-.12H4.6v-.12l.12-.12H5l.12.12v-.12H4.84v-.12H4.72l-.12.12-.12.12H4.36v-.37L4.6,47h.12L5,46.61h.12l.13.12v.12l.12.12h0v-.36l.12-.12H5.08v-.12l.25-.12.12-.12L5.57,46v-.12H5.45V46l-.12.13H5.21L5,46.37l-.12.12-.24.12-.12-.12v-.12H4.24v-.12l.24-.12L4.6,46l.12.13V46h0v-.12h0v-.24l-.12.12H4.48v-.48H4.36v-.12L4.48,45H5l.12.12V45H4.84l-.12-.12-.12-.13h0v-.24h.12l.12-.12v-.12H4.72l-.12.12-.12.12-.24.12-.12.12H4l-.13-.12v-1H3.75v-.24l.12-.12.13.12H4v-.12l.12-.12L4.24,43h.24l.12-.12H4.48l.24-.25v-.12L5,42.37v-.12H4.84l-.24.12v.12l-.24.37h0v-.12l.12-.25v-.24l.24-.36.12-.12-.12-.12h0v-.12h.12V41.4h0v-.12H4.72V41l-.12-.12-.12-.12H4.36v-.12l-.12-.24H4v-.13H4v-.24H3.87L4,40H4v-.12H3.87v-.12H4v-2.3l-.13-.24-.12-.12-.12-.37.12-.12-.24-.36.12-.12.12-.24-.12-.13v-.12l-.12-.12H3.27L3,35.59H2.91l-.25.12-.12.13-.24.36-.12.12H1.57V36.2l.12-.12-.12-.24L1.33,35l-.12-.37v-.24l.12-.24L1,34l-.24.12H0l8.72-16,.12.12H9l.36.24h.12l.12.12.13.13h0l.12.12V19l.24.24H9.93l.12.12-.12.12.12.24h0l.12-.12h0v.49l.36.24.12.12h.12v.12l.13.12h0l.12.24.12.13v.12l.12.12h.12l.12.12v.12l.12.12v.12l-.24.12V22l.24-.24.12-.12.12.12v-1L12,20.7h.24l.12-.12.12-.12.12-.12h.24l.12-.12h.37v.12l.24-.24V20l.12-.13.12.13.12-.13h.61l.36-.12.12-.12h0l.12.12h.12v-.12l.25-.12h.36v.12H16v-.24l.12.12v.12l.12.12H16.1v.12l-.36.13-.36.12v.12H15l-.12.12h0l-.12-.12-.24.12H14l-.24.12v.12l-.36.12h-.12l-.12.12v.12h-.37l-.12.25h-.12v.12l.12.12.12.12-.12-.24h.37L13,21.19l.25-.25h.36l.36-.24.12-.12h.12v.12l.13-.12h.12l.24-.12.12.12-.24.24v.12l.24-.24.24-.12.37-.36h.24l.24-.12h.48v.12l-.24.12v.12h.12l.24-.12.25-.24h.12V20h.24v-.13l.12-.12v.12h.12l.12-.12-.12-.24.12-.12h-.12l.12-.24.25-.12v1.45l-.13.24v.85l.13.12.12.24.24-.24H17.8v-.12l.12-.12H18l.12-.12H18l.12-.12h.24v.12l.12-.12-.12-.25h.12l.25-.24v-.12H19v.24l-.12.12v.13l-.12.12v.12h.12v.12h0l-.12.12-.13.12h-.12l-.12.24h.24l.13.12H19l.12-.12h.12l.12-.24.24-.24h.24l.13.12h.12l.12.12.24.12h.12v.12l.12.37v.12l.12.36.61.36.12.12.12.13.24.24H22l.12.12.13.12h.12l.24.24h.12v.12l.12.12.12-.12-.12-.12V24l-.12-.12h0L23,24v.12h.12V24l.12-.12.13.24.12.12h0l.12.25.12.12v.72l-.12.12-.37-.12H23v.12l-.24-.12h-.12l.12.12-.12.12-.12.13h-.24v.12h.24V26l.12.12.12-.12.12.12v.12h.24l.25.12.24.12.36.12h.12v-.12h.12l.12.12v.13l.25-.25v.12h.12l.12-.12h0v.12h.12l.24-.12.36-.24h.13v.36h.12v.25h0V27l.12-.12L26,27v.12l-.12.24v.12h0l.12-.12.12-.12v-.12h0v.24L26,27.6l-.12.12V28l.12.24v.36l.12.12v.37l.12.24v0l-.12-.37.12-.36.12-.36h.12v.24l-.12.12h.12l.12-.12v.12l.13-.12v-.12l-.13-.12v-.12h.13V28l-.13-.12v-.13l.13-.24.12-.36v-.36h.24l.12-.13h.12v.13l.12-.13.12-.12h0v.12h.12l.13-.12.12-.12h.12v.12h.12v-.12l.12-.24h.48l.12-.12-.12-.12.12-.12h-.24l-.24.12h-.12V26h-.24v.12L28,26v-.12h0l-.12.12-.13.12L27.6,26h-.12v-.12l-.12.12h0l.12.12v.12h-.36L27,26.15l.12-.12.12-.12h-.12L27,26l-.12-.12.12-.12.12-.12.24-.25h.85l.36-.12.12.12.12-.12.12.12.13.12h0l.12.13-.12.24V26h.12l-.12.12h-.13l.13.12h0v.36h.24v.13h-.12v.12l-.12.12h.24l.12.12h.12v.12h.24l.12-.12h0v.24l.12-.12.13.12-.13.12v.12h.13v.12l.24.13V28l.12-.12.12.12v.12h0l.12.12.24-.12h.24V28l.25-.12h0l.12.12h.24l.24.12.12.12.12.12.13-.12h.24l.12.12v-.24L32.69,28v-.25h.12l.12.25v.12l.24.36h.12v-.24l-.24-.12L32.93,28v-.49l.12.12h0v.12l.12-.12v-.12l-.12-.12h.12l-.12-.12.12-.12h0l.12.12v.12h.12l.13-.12.12-.12h.12v.24h0l.12-.12.12.12v.24H33.9l.12.12h.24l-.12.13L34,28v.12h.12l.12-.12.12-.12.12-.13h.12v.13h0L34.5,28v.12l-.24.12v.12l-.24.24v.12H33.9v-.12l-.12.12v.37H34v.12l-.24.12H34l.12-.12h.12l-.12.12-.12.12h.24l-.12.24v.12H33.9l-.12-.12h-.12l-.12-.12h0l-.13.12.13.24.12.12-.12.37.12-.37v-.24h.12l.12.12h.36v-.24h.24l.12-.12h.13l.12-.24-.12.12H34.5v.12h-.12v-.12l.12-.12v-.12h0v-.49h0l.12-.24v-.24l.25-.12v.12h0l.12-.12v.12h.12v.12l.12-.12.12-.12.36-.12.13-.12v-.13h0L36,27.6h.24l.12-.12v-.36l.12-.12v-.24l-.12.12H36.2V27l-.12.12L36,27h-.12l.12-.24h.12v-.13l.24-.12h0l-.12-.12.12-.12.24-.12.12.12-.12.12v.12h0l.24-.12.12-.24V26h-.36v-.12h-.24l-.12-.24.12-.13-.12.13h-.12L36,25.54l-.12-.12V25.3h-.25v-1l.12-.12L36,24h.24v-.12l.12-.12h-.24v-.36l.12-.25.12-.24.12-.12.12-.12h.12l.12-.24h.25v.24h0v.12h.12v-.12l.24-.24v-.12h-.24L37.05,22l.12-.12h.24l.24-.12v-.12l.12-.12.12.12h.25v.24h.12l.12.12.12.12-.12.13h0v.24l.12.12V23l.12.12h0l-.12.25v.12l-.12.12v.24h-.12l.12.12-.12.12.24.24v.13h-.12l.12.12-.12.24h0l.12.12.12.12v.12l-.12.12-.12-.12h-.12l-.12-.12.12-.12H38v.24h-.12v.12l.12-.12.13.12v.12l-.49.25h0l-.12.12h0l-.12.24h.36v.12l.12.12h.25v-.12h.12v.12h0l.12.12h.12l.12-.12.12.12-.12.12H38.5l-.24.12v-.12h-.12v.37l.12.24v.12h0v.24h-.12v.37L38,28v.24h0v.12h0l.13-.12.12-.12.12-.12h.12v-.12h.24v-.49l.12-.12L39.1,27v-.12l.13-.12v.12l.12.12v.24l.12.24.12.12v.25l-.12.12.12.24-.12.24h-.12l-.12-.12v.12l-.13.12v.24l-.12.25v.36l.12.48.13.25v.12l.12.12h.12v-.12l-.12-.12.12-.13h.12l.12.25V30l.12-.12.12-.24h.12l.12-.24h0l.12-.12.25-.24.12-.25.24-.36.12-.24.12-.12.12.12h.25v-.12h0L41.4,28v-.12h.13l.12.12.12-.12.12.12v-.12l-.12-.13h0l-.12-.12h0v-.36l.12-.12h0v-.24l.12-.12h-.12v-.13H42v-.12h-.12v-.12H42v.12h.48l.25.12v.13l.12.12.24.12.12-.12.12.12h.24v.12l-.12.12h.12l-.12.12-.12-.12h-.12v.12l.36.12v.12l-.12.12H44v.13h.12V28l-.12.12-.25.24h0l.13.12v.12H44l-.12.12v.12l-.13.12h-.36v.13l-.12-.13-.12-.12h-.36v.12h.12l.12.13-.12.12h0l.12.12-.12.12H43v.12h-.12l-.12.12v.24L43,30v.13l.12.24v.24H43v.12l-.24.12.12.24h-.49l-.12.12v.13l-.12.12L42,31.6h-.12l-.24.12h-.12L41.4,32H41v-.24l-.12-.12v-.12H41v-.12l.12-.25-.24.12h0V31H40.8l-.12-.24-.12.12h-.12l-.13.12v.12l.25-.12h0v.12h.12l.12.25v.24h0l.12.24L40.8,32h.12v.12H40.8L40.56,32v-.12l-.12-.12V31.6l-.13.12.13.12V32h-.25l-.12-.12H40v-.12l.12-.12v-.12H40v-.12l-.12.12h-.24l-.12-.12-.12.12-.12-.12v.12h0l-.13.12v.12l.13.12h.24V32l-.12.24h-.12l-.25.25-.24.24-.12.24-.12-.12-.12.12-.12.24h-.12l-.49-.12v-.12l-.12-.12-.24-.12v-.12h.12v-.12h-.24l-.12-.37L36.92,32h-.36l-.24-.12H36l-.12-.12v.12L36,32h.12v-.12l.36.12h.36v.24h0v.25h0l.25.36.12.24.24.12h.24l.61.12v.25h-.12l-.13.12-.12.12-.24.24h-.12v.12l-.48.48-.25.13-.12.24h-.12v-.12h-.12V35l-.24-.24h-.12v.12L36,34.75h0l.12-.13L36,34.5h-.12l-.13.37v-.12l-.12-.25-.12.12.12.13V35l-.12.36-.12-.12h-.12V35l-.12.12.12.12-.12.12v.12L35,35.35h-.12v-.12l-.12-.12L34.5,35l-.24-.12L34,34.75l-.12-.25-.12-.12-.24-.12v.12h-.25l.12.12.13.12h.12l-.12-.12v-.12h.12l.24.37.36.12V35l-.24.12h-.24v.12h.36l.24-.24h0l.12.12v.24l.37.24-.12.37-.13.24H34.5l-.12.12h-.12l-.12-.12-.36-.12-.24-.24v-.25l-.13-.12-.12.12.12.12-.12.13.25.12v.36l.24.24-.12.12-.12-.12h-.13v-.12l-.12.12h0v.12h.12l.13.12-.25-.12h-.12v.12l.12.12v.13l-.12.12v-.25h-.12v.13h-.24l-.12.12-.12.12h.12v.12h-.12l-.12-.12h-.13l-.12.12.12.12v.12H32.2l-.12.24-.24.12.12.13h-.12l-.12.12v.12l-.12.12-.24.24h-.13v.12l-.12.12-.24-.12V39l.12.25-.12.12-.12.24-.12.12V40h-.12l-.12.36h.12v.25l-.24.24v.12l-.12.12h.12v.61h.12l-.24.36-.13.24h-.36l-.12.24.24-.24h.37l.24-.36.12-.36h.6v.24l-.12.12V42l.12.24v.36l-.12.25.12.12v.48l-.48.37-.24.12h.24l.6-.12.49-.13.24-.12.36.25.25.24.36.12h0l.24.12.24.24h.13l.12.24.12.13v.24l.12.24H34l.12.12.24.12h.12l.25.24h.12l.24.25v.12l.24.12v.12h.24l.12.12.13-.12h.36v.12h.12l.24.12h.24l.12-.12h.13v.12h.12V47l-.12.37v.12l-.13.12-.12.24v.12h.12v.37l-.24.24v.36l-.24.12v.49l.12.12v.12l.12.12.12.12v.12h0v.12l.12.12h.25v.12l.12.13v.6l-.37.24.25-.12.24-.12.12.12.24.12h.12v-.24l.25-.36h.12l-.12.12v.12h.12l.12.24-.12.24.24.12h.24l-.12-.12-.12-.12-.12-.12.12-.24v-.36h.12v-.25l.24-.12-.12-.12V50h-.12v-.12l.24-.24h-.12v-.12h0l-.12-.13.12-.36v-.48h.12v-.37H39l-.12-.12h0V47.7l-.12-.12v-.24h.12l.37-.12.12-.13h.24l.24-.12.48-.24h0l.13-.12.36-.12v-.12l.24-.12.12-.37h.12l.12.12h.13l.12-.12-.12-.24v-.12H41.4v.24h-.12l.12-.24.13-.36h0v-.49l-.13-.24.13-.48-.13-.37-.24-.36L41,43.1V43H40.8v-.12l.12-.37H41L41.4,42h.13l.12-.12v-.12h0l-.12-.12.24-.12h0l.12.12.12.12v-.24l.12-.13.12-.24V41H42v-.12l.12-.12v-.12L42,40.56l.12-.12h0v-.37H42L41.89,40h0l.36-.36.12-.24.12-.12h.12V39l-.12-.12h0l-.12-.24v-.24l.12-.24V38l.12-.12V38l.13-.12h0l.12-.12H43v-.12l.12.12h.24l.24.12.37.25h.24l-.12.12-.12.12.24-.12.12-.12h.24v.12h.12l.12.12v-.12l.25.12v-.12h.12l.24-.12.24.12v.24l.12.12h.12v.48L46,39l.13.12v.25h0l.12.12v-.12l.24.24h-.24v.12h-.12l.12.12V40l.12-.12V40h.12l.24.12h.12v.12l.24-.12.13.12v.25l.12.12.12-.12v-.25h.12l.12.25-.12.24-.12.12-.24.12.12.36-.12.12v-.12l-.13.12v.13h-.36l-.36-.13.36.25H47l.25.12v.36l-.13.12v.12l-.24.24H47l.12.25.13.12h0l-.37-.12.24.24.13.12h0V43h.12l.12.12.12.24v.24l-.24.37v.12l-.12.12.24-.12.12-.37.24-.24v.73l-.12.12.24-.12V44l.12-.12h.12l.13-.13h.12l.12.13V43.7h.12v-.12l.12-.24.24-.12.12.12v.36l.12-.24v-.24h0l.12-.12.13-.12v-.12l.12-.12.12-.13v-.12h.12l.12.12v-.12h-.12l-.12-.12h0l.12-.24H50V42h.12v-.12l.24-.24V41.4l.12-.12.13-.12.12.12-.12.12.12-.12v.12h-.12v.13l.12.12-.12.12h.12V42h0l.12.12-.12.12v.12l.12.12v.25l-.12-.13-.12.13h.12v.12h.12l.12-.12v.12l.12.12L51,43.1l-.12.12-.24-.12v.12l.12.12.36-.12h0v.12l-.12.12.12.12.12-.12v.24l-.12.13h-.24l-.12-.13V44l-.12.12.24-.12h.48l-.12.12v.12H51l-.24.24h.36l.12-.12h.12v.24h-.12l-.12.12v0h.24l.12.12.12.25-.12.12h-.36l.12.12h.36v.24h-.12l.12.12.12-.12.13.12v.24h-.13l-.12.12h-.24l.12.13v.12h-.12l-.12-.12H51l.12.12v.12l.24.12v.12h0l-.12.12h-.36l.36.12h0l.12-.12h.24v.12h0V47h.12v.25l.13-.13h.12v.37h0l.24-.12h0v.24l-.12.12-.24.24-.13.12h.13l.24-.24h.12l-.12.12v.24l.12-.24.24-.12h.12l-.12.12H52.3l.12.12.24-.12h0l-.24.24-.12.13h.12l.12-.13.24-.24h.13l-.13.12h0l.25-.12v.37h-.12v.12l.12-.12.24.12.12-.12h.24v.12h-.12v.12l.24.12.25.12h-.25l-.36.12v-.12l-.24.12L53,49h-.37l-.36.12v.12l.24-.12H53l-.37.12h-.24l-.24.12-.12.13h-.12v.12l-.12.12-.25-.24-.12-.25v.12l-.12.13h.12v.12l.37.24h-.13l-.12.12.12.12h0l.13-.12v.12l.12-.36h.24l.24-.12h.12v-.12l.12-.13h.25l.24-.12h.36l-.12-.12h-.12l.36-.12.24.12.13.24v.13l-.25.12h-.12v.12h.12l.12.12h0l.13-.12.12-.12h.24l-.12.12h.24l.24.12V50l-.12-.12h-.12l.12.24h.12l.12.12-.12.12H54.6l-.12.12h.12v.13l-.12.12v.12h-.12l-.24-.12.12.12.24.12h.12l.12.12h-.36l.12.12.12-.12.12.12-.12.12v.12h-.12l-.12.12-.12.12H54l-.13.13h0l-.12.12-.12.12h-.48l-.24.12-.13-.12-.12-.12v.24h-.24v.12l-.12.12h-.12v.12l-.12.24h-.12l-.12.13-.13.12h-.36v.12h-.72l-.37.12h-.12v-.12h-.36L49.52,53v.12L49.27,53h-.48l-.24-.12-.12.12h-.12l-.13-.12-.12.12h-.24l-.24-.12h-.49L47,52.78h-.12V53h-.24l-.24.24-.12.12v.12l-.12.12v.12l-.13.12h-.24l-.12.13H45.4l-.12.12h-.12l-.12.12-.12.12h-.13l-.12.12v.12h-.12l-.24.24-.24.12-.12.37h-.12l-.25.24h-.12v.24l-.12.12-.36.24v.13l-.49.12-.12.12h.12l.37-.24.36-.13.24-.12.24-.36.13-.12.12-.12.36-.24.61-.37.24-.24h.24l.24-.12.36-.12.49-.12h.12l.12-.12h.61l.24.12.24.24H47.7l.24.12v.12h0l-.12.36H47.7l-.24.13h-.12l-.12.12H47l-.12-.12h-.24l-.12.12-.12-.12-.24.12h.36l.36.12v.12l.12.12.12-.12.13-.12h.12l.12.12h.12v.12l-.12.12-.24.36h-.13v.13h.25l-.12.12.12.12v.36l.12.12v.12h.24v.12h.24v.13H47.7l.24.12h.24l.13.12v-.12l.24.12.12.12h.24v-.12l.24-.12v.24h.12l.25.12V58h-.13l.13.12h.24l-.12.12-.12-.12-.13.12h-.24l-.36.24h-.36l-.25.13-.24.12H47.7l-.12-.12h-.24v.24h0l-.25.24-.24.24h-.12l-.12.12h-.12v.12l-.12.13h-.24L46,59.44h-.12V59l.12-.24.13-.12v-.13l.36-.12.24-.12.24-.12.25-.12h.12v.24h.12v-.12h.12l.24-.12h-.36l-.12-.12h-.12l-.13.12H47l.12-.24h.13l.12-.12.12-.12h-.12l-.25.12-.12.12-.12.12h-.24V58l-.36.12V58h-.12l.12-.24-.12.24v.12h-.37l-.12.12v-.12L45.52,58l-.12.12L45.16,58h0v-.12h0v-.36H45v-.12h0l.12-1v-.25l-.24-.36-.13.12-.12-.12-.24.12v-.12l-.12-.12-.12.12-.12.12v.12l-.24.25-.13.12v.24h-.24v.24l-.12.12-.12.24H43.1l-.24.37h0l-.12.12h-.37l-.24.24L40,57.87l-.24.12-.12.12h-.12l-.24.12L39,58.6h-.24l-.12.12-.73.48-1.33.36-.12.37-.36.12-2.54.72-.13-.24.13-.12.36-.12.12-.24v-.12l.12-.24v-1l-.48-2.3-.37-.37-.24-.24-3-1.45H29.9l-.12-.12h-.12l-.36-.12V54h-.24l-.25.12L28.69,54l-.12-.13h-.12l-.24-.12-.12-.12H28l-.12-.12h-.13l-.12-.12-.24.12h0l-.12-.12h-.12v-.12h-.24v-.12L26.76,53l-.13-.12h-.36Z"/></g></g></svg>