<svg xmlns="http://www.w3.org/2000/svg" viewBox="0 0 65.5 44.19"><defs><style>.cls-1{fill-rule:evenodd;}</style></defs><g id="Layer_2" data-name="Layer 2"><g id="Layer_1-2" data-name="Layer 1"><polygon class="cls-1" points="41.28 0 41.89 0.6 41.89 1.33 41.52 1.7 42.62 2.54 42.86 3.03 44.19 4.84 45.04 6.78 45.4 7.51 45.16 8.6 44.79 9.08 44.43 10.05 44.55 11.62 45.28 12.23 46.49 12.23 46.85 11.74 48.43 11.74 48.91 12.11 48.55 12.83 48.67 13.8 49.52 14.41 50.73 14.89 51.57 15.01 52.3 15.38 52.54 16.1 53.51 16.59 54.36 16.71 54.84 17.19 54.6 17.92 53.99 18.4 53.87 18.89 53.39 19.37 54.48 20.22 55.33 20.46 55.69 20.22 56.54 20.7 56.9 20.58 58.47 21.55 58.96 22.16 58.96 23.61 59.44 24.21 60.53 24.45 60.77 24.82 60.77 25.79 61.14 26.27 62.83 26.75 63.68 27.36 63.44 27.84 63.68 29.42 64.29 29.78 65.13 30.39 65.5 30.99 65.5 31.11 65.38 31.11 64.41 30.51 63.32 30.39 61.74 31.11 61.38 30.99 59.56 30.99 58.84 30.51 58.11 30.39 57.63 30.14 57.02 30.14 55.93 30.02 55.45 29.54 54.72 29.54 54.72 29.9 54.84 30.27 54.24 31.23 53.63 31.23 52.91 31.48 51.7 31.48 51.09 31.96 50.73 31.84 50.48 31.36 50.12 31.23 50 30.87 49.27 30.87 47.22 31.72 46.49 32.08 46.13 32.57 43.95 32.81 43.22 33.05 42.74 32.45 41.77 32.2 40.8 32.2 40.07 33.17 39.23 33.9 39.35 34.5 39.83 34.99 39.71 35.35 38.5 35.59 38.02 35.35 36.8 35.11 35.96 34.75 35.23 34.75 34.63 34.99 33.9 34.87 32.69 34.87 31.72 34.26 30.63 34.26 30.27 34.02 28.93 32.93 28.21 32.57 26.75 31.36 26.15 31.23 25.42 30.75 24.94 30.75 24.7 31.23 23.85 31.11 23.12 31.84 22.52 31.84 22.16 32.08 22.03 32.81 21.55 33.41 21.55 33.9 21.19 34.26 20.46 34.38 20.46 34.87 21.31 35.96 20.94 36.44 20.7 37.17 20.7 37.89 20.1 38.14 19.61 38.26 18.64 37.77 18.28 37.41 17.68 37.41 16.83 37.41 16.34 37.77 15.5 37.65 13.32 38.5 12.95 39.1 12.11 39.23 10.78 40.44 8.6 44.19 8.47 44.07 8.23 43.83 8.23 42.98 8.11 41.89 6.54 40.68 5.93 40.07 5.08 38.62 3.87 36.8 3.63 35.71 2.78 34.75 1.33 34.02 0.85 33.66 0.85 31.72 0.73 30.51 0.36 29.3 0.48 27.97 0.12 26.64 0 25.67 0.48 24.94 0.97 24.7 1.94 23.37 2.54 22.16 3.51 20.34 3.87 19.37 4.6 19.13 5.57 17.8 5.57 17.43 6.05 18.04 6.29 19.13 7.26 19.13 8.11 18.89 9.44 18.89 10.05 17.68 10.05 16.71 10.65 16.1 11.14 16.59 11.5 17.8 11.98 18.16 12.83 18.04 14.16 17.07 15.62 16.46 16.83 15.62 19.86 15.01 21.19 15.01 21.79 14.16 23.25 13.2 23 12.59 22.52 12.59 21.67 11.5 21.79 10.65 22.4 10.29 23.25 10.41 24.33 10.29 25.18 10.65 26.51 10.78 27.84 10.65 29.78 10.41 30.75 9.69 31.6 9.2 31.84 8.47 31.72 7.75 31.84 6.9 32.57 6.42 32.57 5.69 33.29 4.84 33.66 5.08 34.14 4.96 35.11 3.63 35.71 3.39 35.59 2.66 35.84 1.94 37.05 1.21 38.02 0.6 39.23 0.6 39.83 0.97 41.16 0.48 41.28 0"/></g></g></svg>