<svg xmlns="http://www.w3.org/2000/svg" viewBox="0 0 53.39 76.27"><defs><style>.cls-1{fill-rule:evenodd;}</style></defs><g id="Layer_2" data-name="Layer 2"><g id="Layer_1-2" data-name="Layer 1"><path class="cls-1" d="M11,2.18,16.22,0,53,18.77l.36,18.15-.73.25-.84.48-.73-.48H49.88l-.85.72V39l.49.61L49,40.68l-1.45,1.93H47l-.72.73v.73l.6.48-.48,1-1,.61-.12.6.85.49v1l-.49.73-1.45,1.45v1.09l.6.61,1.09-.85.61.12v.73l-.61.36.73.36-.36.61.36.85.12,1.09.12,1,1.7.36.48.73-.36.72v.61l-.36.6-1.09.49-.61-.37H45.52l-.85.61-1.21.6-.12.61v.6l-.48.25L42,63.44l-.48.12-.37-.24-.6.72v.73l-.61.36-.24.85.12.61-.12.72-.85.37-.85.6-1.69.24L35,68.77l-1.09-.25-.85-.24-1,.12-.72-.24-.61.48-.12.73.73,1H32l.12.6-1.33.85-.6.73H28.93l-2.66.6L25.06,74l-1.21.49-1.21.84-.85.12-.36-.36L21.07,74l-.49-.36-.48.48v.85L19.49,76H18.28l-.73.24h-.84l-.25-1L16,74.82V74l-.85-1.21-.6-1.21-.73-.61-1.57-1.69L10.41,67.8l-.72-.37L9.56,67l-.48-.36L9,66.1v-.72l.24-.49V64h1.45l.49.12L12,64l.72.12.61-.12,1,.12.48.37.61.12.48-.36L15.5,64l-1.21-1-.25-1-.72-.37-.85-1.21v-.84l.48-.61L13.32,58l-.49-.6V56.9l.25-.36v-.61l-.49-1.33-.24-.73L12,53.39l-.25-1.33-1-1L8.47,50v-.12l-.72-1.09L6.54,47.22,5.93,47l-.24-5.69.12-.6H6.3l.48-.12L7,40l7.63-7.75-.24-6.66L15.62,17l.72-.73.12-1.69L13.32,10.9l.36-.61V9.08L11.5,2.78ZM1.45,49.27h0L1.09,50l-.73.12L0,49.88Z"/></g></g></svg>