<svg xmlns="http://www.w3.org/2000/svg" viewBox="0 0 19.61 85.35"><defs><style>.cls-1{fill-rule:evenodd;}</style></defs><g id="Layer_2" data-name="Layer 2"><g id="Layer_1-2" data-name="Layer 1"><path class="cls-1" d="M16.83,82.69,16.59,82h-.25l-.24-.24-.6-.24-1-.25-.37-.12-.12.12.12.13-.12.12h-.12l-.6-.25L13,81v.12l.13.12.72.37v.12h-.12l-.12.12V82h-.12l-.12-.24L13,81.6h-.12v.24l-.24.12H12l-.13.12.13.12h-.25l-.36.12v.13l.48.12h.25l.12-.12.12-.13.24.13.24.24.25-.12.12.12v.24l.24.12-.36.12-.13.37.25.12h.24l.12.12.36.36h.24V84l-.24-.24-.36-.12v-.25h.12l.24.13.12-.13.12-.24h-.24l-.24-.12.85-.36.24-.12,1.45.36.12-.12v-.12Zm-.24-1h0l-.49-.12-.85-.49-.6-.24h-.24L14,80.63l-.36-.24-.12-.24V80l.6-.24.13-.24.24-.12.36-.36-.12-.37h-.48l-.49.37-.24.24h-.24L13,78.93v-.48l-.12-.24.25-.24.12-.25H13l-.24-.12.24-.36.13.12.36.12.12-.12.36-.24v-.24l-.12-.37.24-.24.25.12.24.24.12-.12.48-.24.61,2.06h-.12l.12.12Zm-1.46-6h0l-.48-.49h-.36l-.13-.12h-2.3l-1.33.12-.36-.12H9.32l-.24-.85-.24-.6-.37-.37-.12-1v-.49H8l-.6.24-.25.37H6.78l-.85-1.58-.12-.6.24-1.58.37-.6.72-.61.12-.84-.12-1-.24-.73L7,64l.37-.36L7,62.83v-.48l.37-.24-.25-.85-.12-1-.24-.48v-.37l.48-.36v-.36L6.9,58l-.6-.36H5.81l-.24-.12.12-.37h.85l.36-.48V56.3l-.24-.13-.24.25-.37-.12-.12-.85-.36-.73V53.63L5,53.39l-.12-.48-.12-1.34.36-.36.13-.36-.13-.37-.36-.24-.12-.85-.12-1.08.12-1.46-.36-.48v-.61l.6-1,.12-1,.49-.25.24-.24L4.6,41.16l.12-.6V38.74L5.08,38l.49-.48-.12-.61-.37-.6-.24-.24.49-.61-.12-.72L5.45,34l.36-.12.12-.85-.12-1.33-.36-.24-.12-1.09L5,29.9l-.36-.72-.12-.37-.24-.36-.24-1,.12-.6.48-.25v-1l.24-.37L5,24.58,4.6,24V22.88l.24-.24L5,21.31l.25-.49.48-1.21.48-.48.37-.24.24-.25-.12-.24v-.48l-.12-.24-.24-.13.12-.36L6.66,17v-.49L6.3,16l-.13-.6L6.42,15l-.12-.36-.37-.36.12-.49,2.18-1.09.49-2.06-.25-.48-.24.12L8,10.53H7.51L6.17,6.9l-.84-.85-.25-.36.49-1-.12-.36.12-.49V3.63l-.85-.72-.24-.37-.12-.6-.12-.25.12-.24V1.09L4.12.85,3.75.61V.12L3.39,0,3.15.36,3,.61,3.39,1l-.12.24-.36.24H2.66l-.36.24-.48.25.24.12V3.39l.36,1.33v.61l-.12.36-.24.12.12.73.24.6.24.61v1L2.54,9v1.69l-.24.25L2.06,11v.72l.12.12.24-.12.12.12-.12.25v1.81l.24.73v1.09l-.36.48v.49l.36.6-.12.37v.84l-.24.37v.48l.12.24v.24l-.24.49-.12.48-.12.25.12.6-.12.24-.25.61v.36l.37.49v.48l.24.36-.24.12-.24.49.24.24-.24.36-.25.12v.37l.12.48v.37l.37,1.09v.6l-.12.12v.36l.48.49v.73l-.12.36v.24l.12.24-.12.37-.12.24.12.24.48.48v.37l-.24.24-.24.24-.24.49v.12l.12.24-.12.36-.12.24V35l-.12.48-.13.24v.37l-.12.12v.48l-.24.24.12.13.12.24-.24.36v.49l-.12.24L1,38.62V39l-.12.12v.37l.12.24v.36l-.24.24-.12.13-.25-.25-.24.12L0,40.56l.12.36v.48l.24.37.37.36.12.36L.73,43l.6,1,.12.24.12.24V45l-.12.72-.12.12.12.25-.12.24H1l-.12.24L1,47l.24.25L1,47.94l.12.37L1,48.43l.12.24v.24L1,49l.12.12.48.85.25.24.12.24.48.25.49-.12L3,50.12V50h.36l.24.24H4l-.13.24-.48.37v.24l.36.12.12-.12.13.24v.61l.12.24h0l-.25-.12-.12-.37H3.63l-.12.13v.24l.36.24v.12l-.24.12-.12.12v.49l.36.24-.36.24V54h.12l-.24.36v.24l.36.24v.24l-.12.49-.24.24v.24l.24.12h.24l.25.25.12.36h.24L4.6,57v.49L4.36,58l-.49.24H3.63v.37l.12.36-.12.24v.12l.12.12-.24.37-.12.48v.48h.12L3.39,61v.72l-.24.12v.37L3,62l.12-.25V60.9l.12-.13L3,60.65l-.49.25-.24.24L2.06,61V60.9l.36-.13.24-.12v-.48l-.24-.12-.36.12h-1L1,60.41l.24.36h.12l.12.37H1.21l-.12.36-.24.12L.73,62l-.49.24v.24L.73,63l.24.12.12-.24v-.24H.73v-.24L1,62h.36l.12-.13.12.49.25.12H2.3l.12-.12.24.12.12.12.49.24.12.24H3.27l-.12.25.12.12-.12.24-.24.24.24.12.24.25v.12L3,64.29,2.91,64l-.13.12-.12.25.37.24.12.24.36.12L4,64.77l.24.12h.24l.24-.12L4.6,65v.12l-.12.12H4.24l-.12.13-.25-.25-.48.25-.24.24.12.12.36.24v.24l.37.12.24-.12v.24L4,66.71V67l-.13.24H3.75l-.12.24.24.85.25.24V69l.12.36.36.12v-.6l.12-.73L5,68l.12.12H5l-.24.73v.24l.24.12h.25v.12l-.49.12-.24.24V70l-.12.24v.36l-.12.12-.12.24v.25l.48.36.73.24.24.12-.12.24H5.33l.12.37.12.12.24-.36v.48l-.36.12-.12.36.12.13h.24v.12l.24.36h.24l.25-.24L6.3,74l.12.36H6.3l-.25-.12H5.93l-.12.25.36.36H6.3l.12.48.12.12.36.37.24-.12-.24-.49L7,75.06,6.9,74.7l.36.24v.24l.25.36.12-.36.24-.24V74.7H7.63l-.49-.12v-.12h.37l.48.12.12.12h.36l-.12-.24L8,74.21h-.6v-.12L7.63,74l.48.24.61.37.12.36-.24.24v.24l.12.49v.36l-.25.12L8.6,76l-.25-.61-.24-.24L8,75.42v.25l.12.24L8,76.15,7.87,76l-.12-.24H7.63l-.37.12H6.9l-.36.24.36.12v.49L7,77l.12.24L7,77.48H7l.24.12.13-.24h.24l.24.12v.12l-.24.12L7.39,78v.12l.48.12.48.24.25-.12.12-.24-.12-.37v-.24l-.13-.24-.12.12-.24-.12.12-.12L8.47,77v-.12l.13-.12.36.12.24-.12V77h.24v-.12l.37-.12.36.12h.6V77l-.12.12-.12.24-.24-.12-.24-.12H9.81l-.61.48H9l-.24.24.12.25-.12.24-.12.12v.12l.12.12-.12.12v.12l.6.25.36.36h.13v-.48l.12-.25.24-.12v-.12l-.24-.24.48-.12.24-.24.37-.49.24-.12v.12l.24.12h.24v.12h-.24l-.12.37-.12.24-.24.24v.36l.12.25-.25.24-.24.12v-.12l.12-.12v-.49l-.12-.12-.12.12-.12.25h-.24l-.12.24.12.24.6.61h.49l.36.24h.24l.25.12.12-.24.24-.37-.24-.48.12-.36-.12-.25.12-.36v-.61l-.12-.36.12-.24.48-.24.37-.49.24-.12h.36l.12-.12v-.48l.24-.12.37-.13.48.25.24-.12Zm3.64,9.56h0l.12.12.24-.24H19l-.24.12ZM2.42,52.66h0l-.36-.24H1.94v.24L2.3,53l-.12.12.36.36v.12l-.36-.12-.24.24.12.37v.24H1.45L1,54.24l.24-.49-.12-1.09L1,52.3l-.12-.12-.12-.24.12-.25.24-.24v-.24L1,51.09v-.24l.24-.24h.36l.37.12.36.48v1l-.36-.12.36.36.12.12Zm.24-1h0l.25-.12.24.25L3,51.94ZM.61,55.08h0L.73,55H1l.24.12-.36.25Zm2.54.37h0l.24-.12v.24l-.24.12Zm-.61,0h0l.24.12.13.36-.25.12-.12-.24-.12-.24Zm-.85-.12h0l.13-.12.48.12-.36.24Zm.13.72h0l.12-.12.12.12v.12Zm-.37.49h0l.12-.37.25.13.12.12v.12l-.25.12H1.45ZM1.09,57h0l.24.24-.24.12L1,57.26Zm1.69,0h0l.13.36H2.66Zm-.6-.24h0l.36-.12v.48Zm-.73,2.91h0l.12-.13.12.37H1.45Zm0-2.43h0v-.48h.37l.12.36-.25.12Zm-.72.61h0l-.49-.12.12-.24H.61l.24.12Zm1.33,1.21H2.3v.36Zm.36.48h.36l-.12.13Zm.73-3.14h0l.12-.12.36.24H3.27Zm.6.24h0l.25.12.12.24.24.24-.12.37-.12.24H3.87l-.12-.12H3.51L3.27,58v-.36l-.12-.25.24-.6ZM1.69,57.75h0l.13-.24h.72l-.12.12-.48.12-.12.12-.13-.12Zm.37.72h0l-.12-.24.36-.12h.36l-.12.24Zm.24.25h0l.24-.25h.37l.12.61-.25.24-.24-.12-.12-.36Zm-.61.84h0l.25-.12.12.12.24.13.12.24-.36.12Zm1,7h0l.25-.25-.13-.12-.12.12-.36-.6-.36-.24.12-.25h.36L2.66,65v.61l.37.12v.36l.36.24.12.61H2.78Zm-1.33-.73h0v-.12l.12-.12h.37l.48.72.24.49v.36l-.12.24-.24-.24-.12-.48v-.12l-.24-.25H1.45Zm.12.6h0l.12.13.25.12.12.24v.36H1.69v-.12L1.45,67Zm.61,2.18h0l-.12-.12v-.24l-.12-.6.24-.25v.12l.48.25.12.24-.24.12ZM2.54,70h0l-.12.12L2.18,70v-.25l-.12-.12.36-.24.24.36Zm1-.13h0l-.12.37-.12.12L2.91,70l-.13-.37-.36-.72.36-.12L3,68.64l.12-.24-.24.12H2.78V68l-.12-.24v-.37l.12-.12h.49l.24.12.24.85.25.36v.61l-.13.12.25.48v.61l-.25.12H3.63V70.1Zm-.24,1.82h0l-.12-.24-.24-.24L3,71.07v-.25l.12-.12.12.12.48.12-.24.25v.36l-.12.12ZM3,72.15H3v-.24h.36L3.15,72ZM3.75,72h0v.61l-.12-.36ZM4,71.79H4v-.12h.12l.24.24H4.6L5,72.4l.12.36L4.6,72.4l-.36-.12Zm0,.61h.12l.36.12.36.6-.12.25H4.48L4,72.88Zm.36,1.81h0l-.61.12-.12-.12L3.75,74,4,73.61l-.25-.24L4,73.24l.24.25h.24l.48.36V74l-.24.12h0Zm.36,1.46H4.48l-.12-.13-.12-.24.12-.24.12-.12-.12-.12V74.7H4.6l.12.24v.36l-.12.12Zm.12-.61h0v-.12L5,74.82l.12.24.25.12v.36l-.25.13H5v-.25H4.84Zm.61.24h0l.36.12v.25h0l-.36-.25Zm-.12,1.21H5.08v-.12l.13-.12v-.36h.12l.12.12Zm1-1h0l-.49-.24-.12-.24v-.48h.12l.24.36.25.36.12.24ZM6.17,76h0l-.24-.24.12-.12.25.12.12.24Zm.25.73h0l-.37-.37-.12-.24V76l.61.36v.37Zm.36.84h0l-.12-.12-.24-.12v-.24l-.37.12-.12-.12L6.17,77H6.9l.12.24Zm1.09,1.82h0l-.48-.24-.13.12H7l-.24-.24-.48-.25H5.93l-.24-.48v-.49l.24.13.37.48.24.12H6.9l.24.12.37.12h.36l.12.25.36.24h.12l.13.12v.12H8.23Zm-1.09.12h0c-.12,0,.12.24.12.24l-.36-.12ZM9.2,81.11h0l.12.12.12-.12L9.32,81l-.24.12Zm1,.25h0l-.36.12-.12-.25L9.56,81l-.12-.12L9,81l-.24-.12-.37-.36-.24-.12L8,80l-.36-.12v-.36H8l.12.12.24.12.25-.12H9l.6.36.13.13.12.12.36-.12.24.12.12.24h-.24l-.12.12.12.12v.12l-.24.24Zm.36-.13h0l-.24.25v.24l.24-.12.24-.24v-.13h-.24Zm2.06-.36h0l-.12.36v.13l-.12.24L12,81.48l-.13-.12-.12.12-.24-.25h-.24l-.24.13-.12-.25L10.65,81v-.24h.49l.12-.12.6.12.25.24.12-.12h.36Zm1-.12h0l-.36-.24.24-.24L13.2,80l.12-.12-.24-.36L13,79.18l-.12-.12-.12.36-.12.36.12.37-.12.12v.36l.36.12.37.12.12.12Zm-1.33,2.66h0l.24-.12.24.12-.24.25Zm.12-.24h0l-.12-.12.12-.24.24.12v.24Zm7,1.82h0l-.24-.12.24-.25-.12-.24.24.12.12.25V85Zm-4.48-1.7h0l.24-.24h.49l.48.12.85-.24.48-.24.49.12.48-.12h.49l.36.12v.36l.24.12-.24.25-.24.12-.12-.25h-.25l-.36.25h-.36l-.12-.25-.25-.36h-.24l-.24.24h-.24l-.37.12.25.25h.6l.12.24-.12.12.24.12.49.24v.37H17.8l-.37-.37-.24-.12-.24.12-.24-.12-.12-.36-.37.12-.12.12.24.12v.24l-.12.12-.48-.24-.24.12v-.24h-.25l.13-.36-.25.24-.36-.24v-.12l.36-.12.49-.25-.24-.12-.25.12Z"/></g></g></svg>