<svg xmlns="http://www.w3.org/2000/svg" viewBox="0 0 65.62 48.43"><metadata><?xpacket begin="﻿" id="W5M0MpCehiHzreSzNTczkc9d"?>
<x:xmpmeta xmlns:x="adobe:ns:meta/" x:xmptk="Adobe XMP Core 9.1-c002 165.59ab891, 2024/09/18-09:57:10        ">
   <rdf:RDF xmlns:rdf="http://www.w3.org/1999/02/22-rdf-syntax-ns#">
      <rdf:Description rdf:about=""
            xmlns:xmp="http://ns.adobe.com/xap/1.0/"
            xmlns:xmpMM="http://ns.adobe.com/xap/1.0/mm/"
            xmlns:stEvt="http://ns.adobe.com/xap/1.0/sType/ResourceEvent#">
         <xmp:Label>Select</xmp:Label>
         <xmp:MetadataDate>2025-11-26T14:19:51-08:00</xmp:MetadataDate>
         <xmpMM:InstanceID>xmp.iid:f155c7a6-f961-426f-8d9a-3320ef8370f1</xmpMM:InstanceID>
         <xmpMM:DocumentID>xmp.did:f155c7a6-f961-426f-8d9a-3320ef8370f1</xmpMM:DocumentID>
         <xmpMM:OriginalDocumentID>xmp.did:f155c7a6-f961-426f-8d9a-3320ef8370f1</xmpMM:OriginalDocumentID>
         <xmpMM:History>
            <rdf:Seq>
               <rdf:li>
                  <rdf:Description>
                     <stEvt:action>saved</stEvt:action>
                     <stEvt:instanceID>xmp.iid:f155c7a6-f961-426f-8d9a-3320ef8370f1</stEvt:instanceID>
                     <stEvt:when>2025-11-26T14:19:51-08:00</stEvt:when>
                     <stEvt:softwareAgent>Adobe Bridge 2025</stEvt:softwareAgent>
                     <stEvt:changed>/metadata</stEvt:changed>
                  </rdf:Description>
               </rdf:li>
            </rdf:Seq>
         </xmpMM:History>
      </rdf:Description>
   </rdf:RDF>
</x:xmpmeta>
                                                                                                    
                                                                                                    
                                                                                                    
                                                                                                    
                                                                                                    
                                                                                                    
                                                                                                    
                                                                                                    
                                                                                                    
                                                                                                    
                                                                                                    
                                                                                                    
                                                                                                    
                                                                                                    
                                                                                                    
                                                                                                    
                                                                                                    
                                                                                                    
                                                                                                    
                                                                                                    
                           
<?xpacket end="w"?></metadata>
<defs><style>.cls-1{fill-rule:evenodd;}</style></defs><g id="Layer_2" data-name="Layer 2"><g id="Layer_1-2" data-name="Layer 1"><path class="cls-1" d="M19.85,10.29h.61v.48l.12.13.12-.13h0v.13l.12.12v.12l.12.12h.13l.12.12.24.24.12.12V12l.24.12h.12V12l.12-.13.12-.12h.25v.12l.24.25h0l.12-.12h.48v.12h.25l.12.24.12.12v.12l.12.24V13l.12.13.12.12.24.12.13.24v.73l.12.12v.12l-.12.12-.13.12v.36l.25.25.24.12,1,.24h.72l.12-.12h0l.73.12.36.24v.12h.37l.12.12.36.25.24.12h.37l.12.12v.12h.12l.12.12.12.12v.12l.12.36.24.13.13.36.12.24.24.36.12.13h.24l.36-.13.49.13.6-.13.85.13.49-.13.36-.12V18.4h1l.72.12H36l.36.37.6.24.61.24h.24l.37.24.36-.12.48-.12v.24l.37.12h.24l.12-.12.48-.36.25-.36.6-.12.73-.25L42,18.4l.36-.12H43l.36-.24.24-.24h.25l.24-.12h.24l.12-.25.24-.48.49-.48.12-.25.12-.12V16l-.48-.24-.37-.36v-.73l.12-.24.25-.12.36-.13h.24l.24.13.37.12.24.12.12.12.12-.12.12-.12.12-.12.24-.13.13-.24.24-.36.12-.12.24.12h.24l.37-.36h.24l.12-.12v-.49l.24-.36v-.12h.24l.12-.12v-.13h.13l.12.13.24-.13.24-.24.12-.24h.24l.25.12.12-.12h.24l.12.12h.12l.12-.12v-.73L51,10.41l-.24-.36-.37-.36-.24-.37-.48-.12-.12.12-.25.12v.37l-.24.36-.12-.24h-.85l-.36.24-.48-.24-.13-.37.13-.36L47.09,9l.13-.24V8.35l.24-1.57h.72l.13.12h.12l.48-.36.24-.24h.37l.12-.25.12-.12-.12-.24h-.37V5.33h.12V5l-.12-.12V4.72l.12-.12.13-.12-.13-.12-.12-.24L49.39,4l-.12-.13V3.63l.12-.24h.13V3.15l.12-.24.12-.13.12-.24-.12-.12V2.3l-.12-.12-.12-.12-.13-.24-.12-.13-.12.13-.24.12h-.12V1.45h0l.12-.12V1.09L49.15,1V.73h.37l.12-.12h.48V.36h.24l.12-.12.13.12.12-.12h.36l.12-.12L51.45,0h.37l.12.12h.36l.12.12V.36h.49L53,.48h.12V.36l.12-.12h.24l.12.12h.24V.73H54l.12.12.12-.12h.12V1h0l.12.12h.24v.12h.12v.36l.12.12h0v.13h.25v.36l.24.12.12.24.12.12v.12h.12V3l.12.12h0v.12l.12.12V3.27l.12.12v.12l.25.36.36.13v.24l.12.24h0v.24H57l.12.12.12.12-.12.12.12.25.25.24h.24v.12l.12.12L58,5.69l.12.12.12-.12.12.12.12-.12h.13v.12h0l.24.12H59l.12.12h.12l.12-.12v.12l.12-.12h.12l.13.12v.12h.12l.12.13v.12h.24v.12l.24.12h0l.12.12H61l.12-.12h0l.12.12V6.9L61.14,7v.24h.24V8l.12.24h.12l.12.24.12.13L62,8.47h.24l.12.13.12.12.12-.12h.24l.37-.13.12-.12h.12l-.12-.12L63.44,8h.12V7.63h.36L64,7.51V7.38h.12V7.26l.13-.12h.24L64.65,7l.12.12H65l.12.12.12.25-.12.12h0l.25.24V8l.12.12h.12l-.12.24V8.6h0l-.12.12-.25.12V9l.12.12h.13l-.13.24v.12h0l.13.12v.13h0l.12.12h-.12v.48l.12.12v.12h-.12v.24h0v.13l.12.12-.25.12h0l.13.12v.12l-.13.12v.36h0v.25l.13.12v.12l-.13.12H65l-.6-.12-.12-.12H64l-.12.24-.12.24-.12.12h-.24V13l.12.25.24.36v.12l.12.12.12.12v1l.12.12v.37h0v.24h0v.24h-.48v.24l.12.12v.25l-.85.6-.36,1.57-2.9,2.06-.49.24h0l-.12-.24-.24.37H58.6l-.13.12-.12-.12-.24.12h-.24v.24h-.12l-.49.36-.24.12.12.24v.13l-.36.12-.12.24h-.12l-.12.12H56.3v-.12l-.25-.12.12-.12h.13l.12-.25.24.13.12-.13V22h-.12v-.12l.12-.12.12-.12-.24.12-.24.12v-.24h0v-.24l-.12-.12v-.37h.12l.12-.24.12-.36.12-.12h.12V20l-.48-.25-.37-.36v.24h-.24l-.12-.12h-.12l-.12.24-.12.12V20l-.25.24v.48H55l-.24.24H54.6l-.36.25-.12.48-.12.12h.12V22H54v.37h-.61L53,22.28l-.12.12-.13.12v.36l-.12.12.12.24v.13l.25.12.36.24v.12l.12.24h0l.12.12.12-.12h.49v.49l.24.48h.36l.12-.12.25.12.12-.12.12-.12-.12-.12-.12-.12.36-.12.12-.13v-.12l-.12-.12h.24L56.3,24h0l.12.12.12.12.12.12h.85l.24-.12v.12h.6l-.12.13-.12.12.24.24h-.24v.24h.12v.12l-.24.24-.24-.24h-.12v-.12l-.25.36h-.12l-.24.12H56.9l-.12.13-.12-.13h-.24l.24.13v.24h-.24v.24h-.25l-.24.12.12.12.25.12-.25.25-.12-.13-.12.37h-.24v1.33h0l.6.24v.12l.13-.12.48.36.36.61h0v.24l.12.12v.25l.49.24v.36l.24.36.12.12h.36v.13l.25.24.12.12L59,32l-.12.12-.37-.24-.36.24L58,31.84h-.12l-.24-.12-.37-.12-.12.24H56.9l-.12-.12-.12-.36-.24.12h-.49l-.12.12-.24.48.24-.36.24-.12h.61v.12l.24.24H57l.36-.24h.25l.36.48.36.12.49.37.24.36v.12h-.24l-.24.37h-.25v.24h-.12L58,33.66l-.24.12h-.12l-.25.24v.24l.13-.24.12-.12h.24l.24.24h.12l.37-.24.24.12.24.36.12-.12.12.12h.12v.12l-.36.37-.36.12v.12H59l.24-.24.12.12v-.12h0l.12-.12h.12v.36l.13.12h-.13l-.12-.12-.12.12v.12l-.24-.12-.12.24h.24l.12.12v.12H59.2l-.12.13h.12l.12.12-.12.12H59l.12.12h.12l.12.24H59.2v.24l-.12-.12v-.12H59l-.12.36-.12.12-.37-.12.25.12v.13l.12.12-.12.12-.13.12.13.12h0v.24l-.25.12-.12-.24v.24h.12l.12.12h-.24v.13l-.24.24h-.12v-.12h-.12l-.12.12h-.12l.12.12-.12.12h.24l.12.12h-.24l.24.24.12-.12.12.12-.36.12-.24.13v.24l.12-.12h.12l.12.12-.24.12.12.12v.12h-.12V40h.12l.12.12v.24l-.12-.12h-.12v-.12L57.51,40l-.13.12h-.12v.12l.25.12-.13.25v-.12h-.12l-.12-.13H57l.12.13v.12h.12l.12.12-.12.12L57,40.68v.24h.24l-.12.24-.24-.24-.12.12h-.12l-.12.12-.37.12.25.12h.36l-.12.13h-.12v.24l-.12-.12-.12.24h0v-.12h-.13V42h-.12l-.12.12h-.36l-.12.12h-.12l.12.12-.12.24v.25l-.12.12h-.13L55,42.86V43l-.12.12H54.6l-.12.12h-.24v.12l-.12.12L54,43.22l-.13-.12v.12l-.24.12v.12h-.12l-.12-.12-.12.12H53v.24l-.37.25v-.12l.12-.13.13-.12h-.13l-.24-.12v-.12l-.24-.12-.12-.12v.24l.12.12v.24l-.12.13-.12.12-.12.12L51.82,44h0v.12l-.13.12-.24.24-.24.12h-.12L51,44.43l-.24.12h-.12v.12l-.13.12h-.36l-.12.13h-.12l-.12.12h-.12v-.12h0l-.12-.13h0l-.13.13h0v.24l-.12.12h-.12l.12.24h.12l.13.12v.12h.12v.12l-.12.25h-.13V46h-.24l-.12.13h0v-.25h0l-.24-.12-.24-.36v-.12l.24-.12v-.24h.12l-.12-.13-.12.13-.12-.25-.12.25h-.25l-.24-.25-.12.12-.24-.24v-.12l-.12.12v.12l-.12.12-.12-.12-.13.12v-.12H47l-1.09.12L43.83,44l-3.52,1.81-2.54-.84-5.93-4.36L19.37,39.35l-6.66-6.18L0,27.72,1.09,17l8.35-4.48,9.69-2.06Zm36,32.08h0v.12h.24l-.12-.12Zm2.06-2.54h0l.12.24.12-.12v-.12h-.24ZM59.44,34h0l.12.12.13.12h.12v-.12L59.69,34h-.25Zm-1.09-1.94h0l.12.12h.25l.24.12-.12-.24-.12.12-.12-.12Zm1.21,12.11h.37L59.81,44l.12-.25-.12-.24.12-.24.24-.36.12-.25v-.12h-.12l.12-.36v-.6l.12-.13v-.84h.12v-.25l-.24-.12h0l-.12-.12L59.93,40h-.12v.24h-.12l-.25.25-.24.36.12.12L59.2,41v.12l-.24.37-.12.36-.12.12h.12v.85H59v.36l.12.12h.12v.12l.24.12.12.25v.36Zm-10,1.09h0v.12h.36l-.12-.12Zm0,1.09h-.37l-.12.12h-.36l-.24.12v.12l-.25.24-.36.25.12.12v.36l.12.24v.12l.25.12h.12l.12.13h.24l.12.12H49l.12-.25h.24l.13-.12v-.12h.24l.12-.24v-.12l.12-.36h.12v-.13l.12-.36-.12-.24L50,46.37h-.48Z"/></g></g></svg>