<svg xmlns="http://www.w3.org/2000/svg" viewBox="0 0 56.17 80.27"><defs><style>.cls-1{fill-rule:evenodd;}</style></defs><g id="Layer_2" data-name="Layer 2"><g id="Layer_1-2" data-name="Layer 1"><polygon class="cls-1" points="42.13 80.27 42.86 77.6 45.52 67.92 45.52 67.19 45.64 65.62 44.43 63.56 42.74 62.23 41.89 61.14 41.77 58.6 44.91 57.51 46.01 58.23 46.25 57.51 45.76 56.9 46.25 56.42 45.52 55.09 43.7 54.6 43.34 53.51 43.58 52.06 48.91 51.94 49.52 51.33 50.36 51.33 50.85 51.82 51.45 51.7 52.42 50.73 53.75 50.36 53.99 51.09 54.72 52.06 54.96 53.03 54.84 54.36 56.17 54.24 56.05 53.27 55.21 50.97 54.6 49.76 54.84 49.15 54.36 48.3 53.87 48.06 53.75 47.22 53.51 47.09 53.03 47.34 52.54 47.22 52.42 46.49 53.99 43.83 52.91 41.28 52.91 40.8 52.42 39.95 52.3 38.5 52.66 37.29 52.66 36.68 52.3 35.11 52.91 34.38 53.99 34.14 54.24 33.53 54.24 32.69 54.6 31.96 54.36 30.14 53.63 29.78 52.78 29.78 52.54 30.02 51.33 29.9 50.36 29.9 49.52 30.39 48.91 30.02 47.94 29.78 47.58 29.9 47.22 29.66 45.88 29.9 42.37 26.39 41.52 26.03 40.07 25.79 38.74 26.03 38.38 26.27 37.29 25.91 36.08 25.91 35.23 26.27 34.26 25.79 33.41 25.79 32.2 25.18 31.11 24.33 30.99 23.61 31.36 23.12 31.23 22.4 31.72 21.43 31.48 20.58 30.75 19.25 28.81 15.86 28.09 15.86 27.48 15.86 27.48 15.5 28.21 13.92 28.33 12.35 28.09 11.62 28.33 10.65 29.78 8.47 30.51 7.87 31.36 6.78 32.08 6.54 32.57 6.05 33.9 3.87 36.32 2.9 36.56 2.78 37.05 2.78 37.17 2.66 37.77 2.18 38.01 1.7 37.41 0.97 35.71 0.12 35.11 0 34.87 0.48 34.75 0.85 34.02 0.97 33.66 1.33 32.93 1.21 32.2 1.45 31.84 1.94 32.2 2.42 31.96 2.78 30.75 3.39 29.18 4.36 28.09 5.21 26.75 5.45 25.42 5.57 23.85 5.33 23 5.81 23 6.42 23.37 7.14 23.25 7.87 22.52 8.6 22.03 8.35 22.16 7.63 22.16 7.38 22.76 7.14 21.79 7.02 20.58 6.54 19.98 6.54 18.52 7.51 18.04 8.11 17.07 9.32 15.86 11.74 15.62 12.47 15.98 12.23 16.34 12.59 16.46 13.44 16.22 14.29 15.5 14.53 14.65 14.65 14.04 15.01 12.71 16.22 12.23 16.46 11.38 17.8 10.78 17.92 10.05 17.92 10.29 18.77 11.14 19.73 11.14 20.82 10.65 21.91 10.17 21.79 9.32 21.07 9.44 20.82 9.69 20.22 8.96 19.98 8.72 19.01 7.63 18.16 7.51 19.01 7.63 19.61 7.99 20.7 7.38 21.91 7.02 23.12 6.42 23.49 6.05 23.61 5.45 24.94 5.57 25.18 5.81 26.27 5.93 27.36 6.78 28.45 7.14 28.45 7.63 28.21 7.87 28.57 7.99 29.66 7.38 30.27 7.38 30.63 7.99 31.23 7.99 32.57 7.38 33.05 7.02 33.78 7.38 33.9 7.75 34.75 7.63 36.32 7.63 38.5 7.02 39.23 6.9 39.95 7.51 40.68 8.35 40.31 8.23 40.92 8.72 41.52 9.2 41.52 9.2 41.89 8.72 42.49 8.35 43.58 6.54 45.28 6.05 46.37 4.72 47.58 3.03 47.94 1.7 49.03 0.36 50.97 0.24 52.54 0 53.39 1.33 53.87 2.91 54.96 4.96 56.3 5.81 56.3 6.9 57.51 6.78 58.11 6.9 58.72 8.35 58.84 10.05 59.69 10.53 60.05 12.11 60.41 12.59 59.93 12.59 58.96 13.32 58.35 13.56 58.35 15.01 58.84 15.74 59.32 15.98 59.93 16.59 60.29 16.71 60.29 16.95 60.29 17.55 60.9 19.25 61.26 20.22 61.5 20.58 61.98 21.67 63.32 21.79 64.17 22.52 65.62 23.12 65.62 25.42 66.34 26.27 67.8 26.27 68.89 26.63 69.01 27.36 69.37 27.84 70.58 27.48 70.94 27.72 71.67 28.69 72.03 29.66 71.79 30.39 72.03 31.6 72.03 32.08 71.55 33.53 70.94 34.87 71.19 35.96 71.67 37.53 70.94 38.38 70.94 38.74 71.55 39.35 71.43 40.31 72.03 40.8 72.64 41.77 72.28 41.77 73 38.74 78.09 38.98 78.69 39.95 78.57 41.16 78.45 41.89 79.18 42.13 80.27"/></g></g></svg>