<svg xmlns="http://www.w3.org/2000/svg" viewBox="0 0 56.17 65.86"><defs><style>.cls-1{fill-rule:evenodd;}</style></defs><g id="Layer_2" data-name="Layer 2"><g id="Layer_1-2" data-name="Layer 1"><polygon class="cls-1" points="0 57.14 0.97 55.69 1.21 54.72 1.82 54.36 3.15 54.24 3.63 53.51 4.24 53.51 6.17 55.09 6.29 53.87 6.17 50.24 4.84 49.27 4.24 48.79 3.03 49.03 1.94 49.4 2.18 47.94 1.57 46.85 2.3 46.25 3.87 46.01 5.21 46.85 5.93 46.25 6.29 45.4 7.38 45.4 10.05 45.28 10.41 44.07 10.05 42.37 10.78 41.52 12.23 41.65 13.44 44.55 14.41 45.76 16.1 45.28 17.07 45.52 17.92 44.91 19.49 44.91 20.94 45.52 21.31 46.49 22.03 46.49 22.16 45.16 21.79 43.83 23.61 38.5 24.33 35.47 24.33 34.02 23.61 33.29 23.25 32.45 22.16 31.48 21.91 30.87 21.07 30.51 20.7 29.78 20.22 29.3 20.22 28.69 21.07 28.33 21.43 27.97 21.91 27.84 21.55 26.88 21.19 26.39 21.31 25.42 22.88 24.58 24.21 24.21 24.33 22.88 23.97 22.16 24.45 21.19 24.33 19.01 23.49 18.4 21.19 18.4 19.61 19.01 17.92 19.49 16.95 19.13 15.74 19.73 15.13 19.37 15.38 18.52 14.89 17.31 15.13 15.5 14.65 14.04 15.01 12.59 24.33 12.71 25.18 13.07 25.55 12.71 26.15 12.71 26.88 13.56 27.6 13.32 28.45 13.68 28.93 14.16 29.78 14.04 29.9 13.56 30.51 13.68 31.48 14.53 32.2 14.29 33.78 14.29 34.38 14.53 34.99 14.77 35.59 14.65 35.71 15.13 36.56 15.01 36.8 14.29 36.08 13.07 36.44 12.47 37.17 11.26 37.65 10.29 41.04 4.48 42.98 2.78 44.19 2.42 44.79 1.7 47.94 0.48 49.03 0.48 49.88 0 51.09 0 52.06 0 52.54 0.6 53.87 1.33 54.6 1.09 55.45 0.85 55.45 1.21 56.05 2.66 56.17 5.57 54.72 6.29 54.48 7.63 51.21 11.74 51.94 14.29 51.45 15.86 51.33 17.43 50.36 18.89 50.12 20.94 50.36 21.91 49.88 24.09 50.24 24.58 50 26.63 48.91 27.12 48.3 29.54 48.3 31.96 45.88 35.84 44.55 36.2 43.22 37.17 42.37 36.92 40.56 38.02 39.23 39.83 39.23 41.4 36.92 43.7 36.08 45.28 36.44 47.34 36.92 47.94 36.56 51.94 36.08 53.99 36.2 55.21 34.99 57.26 33.66 57.51 32.45 58.35 31.96 59.44 29.06 62.35 27.97 63.92 26.27 64.65 24.45 63.68 24.09 62.35 23.73 62.11 24.58 60.41 24.7 59.69 22.4 60.53 20.82 61.74 19.86 61.5 18.89 61.62 18.89 63.2 18.04 64.17 16.59 64.17 16.71 63.44 16.22 62.71 15.13 63.2 14.29 63.2 14.04 63.32 14.04 62.23 13.32 61.26 12.59 60.53 11.86 60.53 10.65 61.62 9.56 61.74 9.2 63.08 7.99 63.68 7.51 63.68 6.9 65.5 6.17 65.86 5.33 65.01 5.33 63.56 4.24 62.23 4.12 60.9 1.94 59.56 1.45 58.6 0 57.14"/></g></g></svg>