<svg xmlns="http://www.w3.org/2000/svg" viewBox="0 0 60.9 63.8"><defs><style>.cls-1{fill-rule:evenodd;}</style></defs><g id="Layer_2" data-name="Layer 2"><g id="Layer_1-2" data-name="Layer 1"><polygon class="cls-1" points="11.02 63.44 10.9 61.14 10.05 59.56 10.9 57.26 10.17 55.81 10.65 54.12 11.5 52.91 10.9 51.7 12.11 50.6 11.62 48.67 10.29 48.55 8.84 47.7 8.23 45.64 7.02 45.16 5.81 45.4 4.6 43.95 3.03 43.95 2.18 44.43 0.6 43.95 0 42.01 1.45 40.56 3.03 36.92 2.42 34.99 2.91 33.9 4.6 33.29 7.14 27.6 7.51 25.55 6.78 24.7 4.96 22.64 4.96 21.31 6.17 20.7 7.75 20.82 7.99 19.49 6.66 17.55 5.69 16.83 5.33 13.32 5.93 11.86 5.45 7.38 4.72 6.54 4.72 5.08 8.35 3.63 12.11 1.57 13.32 1.45 15.62 2.66 19.61 2.9 20.46 2.18 20.46 1.33 23.73 0.6 26.27 1.09 25.79 1.7 26.51 2.78 29.66 3.75 31.36 1.09 32.93 0 35.71 2.3 39.35 4.24 40.8 4.24 41.89 4.96 43.34 4.96 45.4 5.93 46.49 7.38 49.64 8.96 51.94 8.6 53.75 7.26 55.09 7.26 56.42 8.35 58.6 8.6 58.6 9.44 57.87 12.47 58.72 14.53 58.72 16.22 60.05 17.55 60.9 19.98 60.05 22.16 60.05 24.09 58.11 25.3 55.09 29.9 55.21 31.84 54.48 33.41 54.36 35.59 53.39 36.92 53.51 41.28 52.66 41.89 52.66 42.74 53.75 43.95 55.21 47.7 55.45 50 57.63 50.6 58.6 52.3 58.48 55.09 57.02 55.33 55.09 55.45 54.72 56.05 53.27 53.51 51.45 53.99 50.97 56.42 46.49 54.24 41.65 55.81 28.69 55.93 25.06 56.42 24.94 57.38 18.16 59.93 17.43 60.9 15.38 60.9 11.98 63.8 11.02 63.44"/></g></g></svg>