<svg xmlns="http://www.w3.org/2000/svg" viewBox="0 0 65.62 51.09"><defs><style>.cls-1{fill-rule:evenodd;}</style></defs><g id="Layer_2" data-name="Layer 2"><g id="Layer_1-2" data-name="Layer 1"><path class="cls-1" d="M62.47,20.58l-.36-1.94,2.42-.84h1.09v-1l-2.3-.49-1.21-1.09-.73-3L59.93,8.6l-1.58-.85-1.81,2.42L52.06,8.6l-6.3-1L44,6.05,41.4,5.21l-5-4.73L34.26,0l.12.61h-5.2L21.79,4.36l-.48,3.15L17.43,9.44l-.6,4.12-2.42.24-4.6-2.06-2.43.61-3.14,2.3L0,14.89v.24l.73,4.72L3.51,22.4l-.24,1,1.09,1,2.9-4.84L7.75,17l1.81-2.06,2.91-.12.61,2.42,2.42,1.94.72,3.51L17.92,26l3.63,3.39.85.12,2.18,2.3-1.82-.61-2.18.25-.85,2.05,1.09,2.06h2.67L26,38.14l2.66.84,1,2.18,1.21,1.45,2.79-.6,5.32.48L41.89,44l5.81,6-1.57.12-2.79-1.45,1.45,1.81,2.55.61h0L48.18,49l-8.47-9.56L30,31l-.36-1.33.73-.85-1.46-2-.48-1.94L26,22H24.46l-.13-1.69,1-1V16.22l1-1.09,2.91,2.18,1,1.7,1.57-.37V17l2.18-.36,1.45.12,1.21-1.33,1.94,1.08,1.09-.84,1.94.36,1,2.06,1.58-1.21,2.66,1,1.94-.73.6.73,2.91-.37,2.54,1,1.58-.24,2.42,2.06h3.39ZM37.41,49.15h4.12l1.57,1.46-3.63-.25Zm-2.79-2.54h0l6.18.12-2.54,1.21Zm0-2.78h4.85l1,.72-2.3,1.09-2.3-.36ZM17.43,28.45h0l1.46.36,1.57,2.06-.85.61ZM15.62,25.3h0l2.18,2.18-2.3-.6Zm.48,7.27h0l2.42,1.93.61,2.06Zm-3-4h0l1.81.73.24,1.81ZM8.84,22h0l3,2.18,1,3.15-.84.12L9.81,25.3l.6-.72Zm1.93-4.84h0l3.52,5.21-1.7.72-1-1.21-1.81-.48L9.56,18a10.55,10.55,0,0,1,1.21-.85Z"/></g></g></svg>