<svg xmlns="http://www.w3.org/2000/svg" viewBox="0 0 65.5 23.49"><defs><style>.cls-1{fill-rule:evenodd;}</style></defs><g id="Layer_2" data-name="Layer 2"><g id="Layer_1-2" data-name="Layer 1"><path class="cls-1" d="M12.35,9.69l.48-1L13.92,9,15,10.29l-.24,1.09-1.7.48-1.33-.48-.24-.73.61.49h.6l.49-.37-.49-.36Zm-8.6-3h0l.61.85-.24.6L3,7.51.85,8.84,0,8.6v.72l1.09.61L2.42,8.47l.36.37.13,1,1.45-1H5.45L6.66,6.9l1.57.24.61-.48.85.6L10.9,7l1.81-2.18L13.8,4.6l.73-.85L16.22,4h1.21l2.67.24.72.72-.72.61-1.33-.12-1,.6,1,.73,3.63.6.72-.24h1.21l1,.85,1.7.24.84-.12.49-.6.73.6.12.61,1.93,1.45,1.7.24.6-.36,1.09,1,1.09-.25,1,.49,1.7-.61.72.25,1,3.63L42,17l1,.12.48-.48,1.46.84h2.17l.25.61,1,.36-.13,1.21L46.61,20l-2.06,1.93V23l2.18.37,1.45-.73,1,.36,3-.6,1.69.12,2.06,1,3.27-.73.36-.73.73.25,1-.73,2.06.24,1.57-.36.61-1.33L65,19.61l-1.09-.24-.85-1.69-2.66-1.09H57.26l-.84-.25.6-.6.49-1.58-.73-.24-1.09.37H54.6l-2.3-1.7-.61.61-1-1L49.15,11l-1,1.09-.48-.61.24-.73-.72-.36-.37.73-.72-.73-2.43-.6L42.25,8.35,40.8,7.63,39.23,6.42l-3.39-.25-1.22-.6-.48-1.33L32.69,2.78,31.6,3,31,2.3l-4.6-.61-1.45.49L23,1.82,21.91.48,19.13,0,16.59.12l-1.21,1L12,1.33l-2.55.61-1,.84-2.66.73L5,4.6l-1.09.61Z"/></g></g></svg>