<svg xmlns="http://www.w3.org/2000/svg" viewBox="0 0 65.5 28.21"><defs><style>.cls-1{fill-rule:evenodd;}</style></defs><g id="Layer_2" data-name="Layer 2"><g id="Layer_1-2" data-name="Layer 1"><polygon class="cls-1" points="23.61 0.12 24.33 1.45 25.06 0.6 26.63 0.85 27.48 0.36 31.11 0.97 30.99 1.94 32.57 3.51 34.02 3.39 35.23 4.48 34.38 6.42 35.11 7.51 35.71 7.87 35.71 9.56 36.92 10.05 37.77 9.2 38.86 9.2 36.8 6.54 37.65 5.93 41.89 8.23 44.43 7.87 44.07 9.44 46.01 11.02 49.27 10.29 51.94 11.02 57.26 15.01 58.96 17.92 60.53 17.92 61.26 17.07 63.68 17.07 65.01 18.52 65.5 20.94 61.38 20.46 59.44 22.28 57.26 22.4 54.72 24.94 51.45 25.42 48.06 26.63 47.22 25.91 45.16 25.91 43.1 27.36 39.1 26.51 37.65 25.3 35.23 25.79 32.69 25.67 30.51 24.21 27.24 23.97 25.42 23.37 24.82 24.94 23.85 25.79 23.73 27.12 21.31 27.36 20.46 28.21 15.98 25.67 14.77 25.55 14.77 25.55 11.14 21.43 9.44 20.22 6.42 18.16 4.6 17.19 4.12 15.86 4.24 13.68 2.42 10.78 0.12 9.32 0 7.99 0.73 7.51 1.57 8.23 3.03 8.84 6.17 5.93 7.75 5.81 9.44 3.87 11.38 3.75 12.35 2.3 15.38 2.3 16.59 2.54 18.04 1.7 18.04 0.12 20.82 0.73 22.03 0 23.25 0.6 23.61 0.12"/></g></g></svg>