<svg xmlns="http://www.w3.org/2000/svg" viewBox="0 0 56.17 55.69"><defs><style>.cls-1{fill-rule:evenodd;}</style></defs><g id="Layer_2" data-name="Layer 2"><g id="Layer_1-2" data-name="Layer 1"><polygon class="cls-1" points="0 33.17 0.6 32.81 1.09 32.81 1.45 32.45 1.45 31.36 1.57 31.11 2.3 30.51 2.9 29.9 3.27 30.02 3.75 29.78 3.87 30.02 3.87 30.39 4.36 30.39 4.72 29.9 4.72 29.3 5.21 29.3 5.57 29.42 6.17 28.81 7.14 28.57 7.02 28.81 6.66 29.54 6.9 29.66 7.02 30.14 7.75 30.51 8.35 30.27 8.84 29.66 10.05 28.45 10.17 27.97 10.65 27.72 11.26 27.6 11.74 26.76 11.74 26.27 11.86 25.42 11.98 23.85 11.86 23.61 11.74 22.76 11.98 22.16 12.95 21.19 12.95 20.58 13.44 19.86 14.16 19.37 14.53 19.49 15.01 19.13 15.62 18.89 16.59 17.43 16.59 16.46 16.83 15.5 17.31 15.25 17.31 14.41 17.19 14.29 17.43 13.32 17.31 12.95 17.43 12.11 17.8 11.62 17.8 10.9 18.04 10.29 17.8 9.32 19.01 7.63 19.13 7.14 19.73 6.78 19.73 5.69 19.49 5.08 19.49 4.48 19.61 4 19.86 3.75 19.37 3.15 19.37 2.79 19.73 2.79 19.98 2.54 19.98 2.3 20.22 1.94 20.34 1.45 20.58 1.33 20.94 1.33 21.31 0.85 21.79 0.97 21.91 0.73 22.16 0.73 22.64 0.97 23 1.09 23.85 1.82 24.33 1.94 25.06 2.66 25.18 2.79 25.91 2.79 26.51 3.03 27.24 3.15 27.6 3.15 27.97 3.03 28.33 3.03 28.93 3.27 29.54 3.39 29.9 3.51 30.51 3.39 30.63 3.15 30.39 2.91 30.27 2.54 30.75 2.06 31.23 1.57 31.84 1.57 32.32 1.7 32.69 2.06 33.05 1.94 34.26 1.7 34.5 1.45 34.99 1.33 36.2 0.73 36.56 0.73 36.68 0.97 36.92 1.09 37.05 1.33 37.29 1.33 37.65 1.09 38.38 1.09 38.74 0.97 39.1 0.97 39.47 0.48 39.35 0.24 39.35 0 39.83 0 40.07 0.24 40.68 0.36 41.04 0.36 41.28 0.48 41.77 0.48 42.13 0.85 43.22 0.85 43.46 0.97 44.31 0.48 45.04 0.6 45.52 0.85 45.76 0.97 45.88 1.45 46.13 1.82 46.49 1.94 46.85 2.3 47.46 2.79 48.06 3.03 48.3 2.91 48.55 2.54 48.91 2.3 49.64 2.3 50 2.3 50.12 2.54 50.36 2.54 50.97 2.3 51.21 2.06 51.57 1.7 52.18 1.7 52.42 1.82 52.78 2.54 53.15 2.91 53.27 3.27 53.99 3.51 54.36 3.75 54.6 4.24 54.72 4.48 54.96 4.84 54.96 5.21 55.09 5.21 55.81 5.21 56.05 5.33 55.93 5.93 55.57 6.29 55.57 7.14 55.45 8.11 55.33 8.84 55.69 9.08 55.93 9.44 56.17 9.93 56.17 10.29 54.6 12.35 53.75 13.32 53.51 13.8 52.3 15.86 52.06 16.22 52.06 16.95 52.06 18.04 51.57 19.13 51.7 19.73 50.97 20.46 50.36 21.19 49.88 22.88 49.88 23.73 50.24 24.33 50.24 24.94 50.24 25.79 51.21 31.72 51.82 35.11 53.99 38.01 54.72 40.31 54.24 40.07 49.4 41.28 48.3 43.58 48.43 44.19 48.79 44.55 49.03 44.67 49.03 45.04 48.79 45.28 48.91 45.64 48.79 46.01 48.91 46.49 48.79 47.09 48.55 47.22 48.67 47.46 48.43 47.7 47.94 48.18 47.82 48.67 47.82 50.24 47.94 50.97 48.3 51.33 49.03 52.18 49.27 52.66 49.52 53.03 50.73 53.03 50.85 52.91 50.73 52.66 50.6 52.3 51.33 52.18 51.7 52.3 51.82 55.45 51.7 55.69 51.21 55.69 51.09 55.45 50.97 55.45 50.48 55.57 50 55.69 49.64 55.69 49.03 55.21 48.43 54.48 47.94 53.99 47.34 53.15 46.61 52.78 45.52 52.42 44.79 52.06 44.79 51.7 44.31 51.21 44.31 50.36 44.07 50.24 43.83 50.36 43.46 50.48 43.1 51.21 43.1 51.45 42.25 51.82 41.77 51.82 41.77 51.57 41.04 51.45 40.44 51.33 39.71 50.97 39.47 50.97 38.86 50.6 38.62 50.6 38.74 50.48 38.62 50 38.5 49.76 38.5 49.15 38.26 49.15 37.53 49.4 37.29 49.52 36.92 49.52 36.44 49.76 36.2 50 35.96 50 35.84 49.76 35.84 49.27 35.71 49.03 35.23 48.91 34.87 48.91 34.63 48.67 34.63 48.67 34.14 48.67 33.66 48.91 33.17 49.15 32.81 49.27 32.57 49.27 32.32 49.27 31.48 49.27 31.23 49.15 30.75 48.91 30.51 48.91 30.39 48.91 30.14 49.03 29.9 49.27 29.54 49.27 29.54 49.03 29.54 48.55 29.78 48.3 29.66 48.18 29.9 47.7 29.54 47.46 29.42 46.85 29.54 46.61 29.54 46.37 29.18 46.01 29.18 45.64 29.3 45.28 29.3 44.91 29.06 44.91 28.81 44.55 28.57 44.43 28.57 44.07 28.33 43.7 28.33 43.46 28.21 43.22 28.45 42.62 28.33 41.52 28.21 41.16 28.33 40.92 28.45 40.68 28.45 40.31 28.09 39.83 28.21 39.35 28.45 38.86 28.45 38.5 28.57 38.01 28.45 37.65 25.06 37.41 24.94 37.05 25.18 36.8 25.18 36.44 24.21 36.32 24.21 36.68 21.43 36.68 21.31 37.53 21.07 38.01 20.82 38.14 20.94 38.74 20.94 39.47 18.77 39.59 18.28 39.83 17.31 39.83 16.95 39.71 16.46 39.83 15.62 39.83 15.38 39.71 15.13 38.62 14.77 38.01 14.53 37.65 14.29 37.53 14.29 37.17 14.16 36.92 14.04 36.2 13.68 35.71 13.68 35.23 13.8 34.99 13.8 34.63 13.56 34.26 13.44 33.9 13.56 33.78 13.56 33.41 10.41 33.41 8.35 33.41 7.38 33.41 6.42 33.41 5.93 33.41 5.08 33.41 4.36 33.41 3.75 33.41 3.39 33.41 3.03 33.29 2.54 33.41 1.94 33.53 1.82 33.66 1.57 33.66 1.45 33.78 1.45 33.9 1.33 33.9 0.97 33.53 0.12 33.53 0 33.17"/></g></g></svg>