<svg xmlns="http://www.w3.org/2000/svg" viewBox="0 0 65.62 51.21"><defs><style>.cls-1{fill-rule:evenodd;}</style></defs><g id="Layer_2" data-name="Layer 2"><g id="Layer_1-2" data-name="Layer 1"><path class="cls-1" d="M47,49.76l.61.72,2.06.73,1.45-1.82,1.21.37.12-1-.85-1.57.37-1.7-1.46-.24-.72.36L49,45.16l-1.57.48.12,1.21,1.57.12-.36.61-1.33.73ZM61.86,35.35h0l-.48,2.79.48,1.93,3.39,1.09.37-1.69L63.8,36.56Zm-20.21-4.6h0l-.85,2.18,1.45.36ZM36.44,40.92h0L34.87,41,34.14,40,35,38.86l-.37-1-2.42-.6H30.87l-1.09-1.45V33.66l-.72-1.21-.37-1.58L30,30.51l.85-1.58,1-.72,1,1.33v1l1.94,1.21.36-.49,1.09.25.24-1.09L34.75,29.3,34,28.45l1-1.82,2.78-.72,2.42-.12.61,1.69.24,2.3-.73,2.42-2.17,1.09V34l1.93,1.21.37,1.33-1.09,1-2.18.85.12,1.45Zm1.21.61h0l.36.84L39,41l1.33-.36-.24-1.09-1.57.6Zm-7.75-.25h0L31.84,44l1.33-.37h1L34.87,42h1.69l.36-.24.37,1.45-1,1.82v1.57l-.48-.24-.49-1.58-1,1.34-3,.24-2.91-1-.85-1.21,1.21-.49-.72-.84.84-1.33ZM22.52,30.87h0l1-1.57.12-2.79.72,2.67-.24,1.33ZM21.43,42h0L23,43.46l.73-.6Zm4.72-3.39h0l-.48,2.91-.85,1.57.36,1,1.21-1.58,1.09-2.3a15.42,15.42,0,0,1-1.33-1.57Zm-9.44-5.33h0l3.14-.6L22,33.9l1.46-.24,1.33,3,.6,1.58L24.09,40.8,22,41.16l-1.09-.85-1.69-.12-1.94-2-1.09-2.3Zm8.35-25.9h0l1-1.34h2.18l-1.7,1.21ZM6.54,17.07h0L6.3,15l1.57-1.45,1.57-.12L9.2,14.77,7.51,16.59Zm-.73,1.09h0L5.45,15.5,5.81,14l3.51-2.18.37.37L11.5,12l2.18.36,1.57-.49h1.94l1.7.73,1.21-.48L22,8.6l-.36-2.18L22,5.57l-.48-2.18L23,.73,22.76,0,20,2.78,17.31,4l-1.81.24L14.29,6.17,13.2,8.47,11.14,9.93H9L6.3,12l-.73-.49-1.45.12L3.39,13.8,1.82,15.38l1,.84.85-.48Zm9,24.58h0l-.12-.12.6-1.34L13.8,40h-.73V38.5l1.22-1L14.41,36l-1-.49L13.56,34l4-2.06-.84-.73,1.45-1.57.85.49,2.18-.73-.12-2.91-1-1.81,1.33-1.21,1.69-.25,1.34,1.34.72-.49.73.24.72-1,.61-1.7-1.82-2.06-1,.85L22,20.34l-1.21-1.21-1.09-1.7-1.09-.24,1-1.09V14l-2.06-1.33-3,.24-1.46.61-1.69-.12-.73.6,1.7,2.42-.49.73,1.7,2.06-.24.6-1.58-.6-1.69.36-.24-.84,1.09-1.22L9.81,15.62H9.2L7.51,17.8l1,1.45L6.54,20.58,5.33,19.25H3.63l-1.21-.61L1.09,20.1l2.18,1.69v1.94l-1.33-1L1.09,23l.36,2.54,1.33.85v2.3L4,29.9,1.21,31.23,0,34.14l1.21,1,1.7-1,2.42,2.18.36,3.15L4.84,40l.49,1.58L8,41.4l3.87,1.09L13,43Z"/></g></g></svg>