<svg xmlns="http://www.w3.org/2000/svg" viewBox="0 0 56.9 68.64"><defs><style>.cls-1{fill-rule:evenodd;}</style></defs><g id="Layer_2" data-name="Layer 2"><g id="Layer_1-2" data-name="Layer 1"><polygon class="cls-1" points="42.98 64.53 36.32 60.65 26.27 62.47 17.55 68.16 3.63 68.64 0 64.41 5.93 55.93 6.66 49.15 10.17 42.49 8.84 32.81 11.98 26.15 14.29 17.31 29.78 12.71 32.81 9.32 38.98 7.63 45.76 0 45.88 0 45.76 2.9 54.36 11.26 56.78 11.26 55.57 14.77 56.9 26.27 53.15 27.84 46.25 35.47 41.04 35.71 37.29 41.28 29.18 41.28 33.29 46.37 35.84 46.85 41.65 44.43 51.21 44.31 52.54 46.97 43.83 62.95 42.98 64.53"/></g></g></svg>