<svg xmlns="http://www.w3.org/2000/svg" viewBox="0 0 65.62 43.7"><defs><style>.cls-1{fill-rule:evenodd;}</style></defs><g id="Layer_2" data-name="Layer 2"><g id="Layer_1-2" data-name="Layer 1"><path class="cls-1" d="M58.6,30.51l1.81,2.06,2.79.36L61,34.38l-2.3-1L57.39,31ZM7,4.24H7l.49,1.69L5.81,9.2l1.33,2.66L6.05,15.5,3.39,16.83l-.48,1.33,1.57,3.63-.12,2.79-.24,2.05L0,31l.36,1.82,1.82.24L4,36.8,2.91,39.59l3,1.21.85,1.69,2.3,1.21,2.06-5.08,4.11-5.45-.48-1.81,1.45-2.43,2.06,1.82,2.3.24,2.06-4.11,2.42,1.45.24,3.27,1.94,1.33,4.6-1.33,4.48-4.12,5-.85,5.21.73,3.27-1.21,2.54,1.94,3.87.24,4.73,1.21,1-2.66H64l1.58-2.67-1.46-2.42-6.9-4H54.72l-4.24-1.33-2.78.12-4.48-2.18-4.84-2.79H35.11l2.3-1,4.84,1.46,7.27.72,3-1.09-2.3-1.81-1.93.48L42.86,9.2,40.19,4H37.05l-1.46.6L33.41,3,19.25,0l-1.7,1L14.41.12l-5.57,1Z"/></g></g></svg>