<svg xmlns="http://www.w3.org/2000/svg" viewBox="0 0 56.17 47.09"><defs><style>.cls-1{fill-rule:evenodd;}</style></defs><g id="Layer_2" data-name="Layer 2"><g id="Layer_1-2" data-name="Layer 1"><polygon class="cls-1" points="44.91 11.14 44.31 9.56 44.67 8.47 43.7 6.17 42.49 4.24 42.01 2.54 41.16 1.21 40.56 1.09 40.07 1.82 38.86 2.3 35.96 1.82 33.66 2.42 32.08 1.33 31.84 2.06 32.45 2.91 32.45 3.51 31.84 2.66 30.87 2.06 30.75 1.33 31.11 1.09 30.75 0.73 30.02 0.85 29.18 0.6 27.6 0.12 27.36 0.36 27.97 0.6 28.21 0.85 27.36 0.97 26.39 0.85 25.42 1.21 25.18 0.97 25.18 0.73 26.03 0.6 26.75 0.36 25.91 0.48 24.58 0.48 24.09 0.85 22.88 1.57 22.28 1.82 21.19 2.18 20.22 3.15 19.98 3.51 18.52 3.51 16.83 2.54 15.86 2.42 14.29 2.54 13.07 1.7 12.47 1.7 11.98 2.06 10.78 1.21 9.2 0.85 5.81 0.6 4 0 1.82 0.12 1.33 0.24 1.33 0.24 1.09 0.97 0.73 2.91 1.21 4.12 1.21 5.08 0.6 6.66 0 8.11 0.6 9.32 1.09 11.5 2.66 47.09 56.17 46.73 56.17 46.61 55.45 46.25 54.36 45.28 54.12 44.67 53.15 44.43 52.66 43.22 52.06 43.46 51.21 43.46 49.88 42.49 49.15 40.19 49.27 39.59 49.27 38.5 48.91 37.89 49.03 37.53 49.4 37.77 50.73 37.89 50.24 37.29 49.76 37.17 49.03 36.08 48.79 35.84 48.67 36.2 48.18 35.59 47.82 34.38 46.01 31.72 45.28 31.23 45.04 30.02 42.25 25.91 42.25 24.94 41.77 24.21 41.65 22.4 41.16 21.91 41.16 21.31 39.59 19.73 39.59 19.01 39.71 18.4 39.35 17.68 36.8 15.38 36.56 14.77 34.87 12.71 34.87 11.74 33.9 10.53 34.02 9.93 34.02 9.32 34.14 8.96 34.38 9.2 34.75 9.2 35.11 10.41 35.47 10.9 35.59 11.5 37.29 12.95 37.29 13.8 37.77 14.65 38.98 15.25 39.23 16.1 41.4 18.4 42.62 19.01 42.74 19.25 42.86 18.77 43.46 18.16 43.83 16.59 43.46 16.1 43.95 14.77 44.07 13.8 44.67 11.38 44.91 11.14"/></g></g></svg>