<svg xmlns="http://www.w3.org/2000/svg" viewBox="0 0 51.45 56.66"><defs><style>.cls-1{fill-rule:evenodd;}</style></defs><g id="Layer_2" data-name="Layer 2"><g id="Layer_1-2" data-name="Layer 1"><path class="cls-1" d="M49.15,12.83l-.24-.12-1.09-.6L47.46,11,46,10.17l-2.54-.85h-.6l-1.33,1,.12,1.82-1.09,1-2.79-.6-1-.73-3-1.57-2.67-.12-.36-1.21L31,7.63,28.93,5.45H27.48L23.61,2.91,20.7,1,18.16,0l-.48,1.94-2.55.12L11,5,9,5.08,6.66,6.3,7.75,8.23l.12,1.33.85,1.21L8.11,13.2,4.84,16.71,4.6,18.16l.85,1-1.7,2.42-1.81.24L.36,24,1,25.3l.72,1.82-.24,1.33.37,2.66-1,1.58L0,33.54l1,1.33,1.94.72L4.6,37.41l1.45,1,.73-.61.73-2.06.48-1,1.33-1.34V35l.24,1.21.25-.73L9.69,34l.6.12.61,2.3-.49,2.42.24,1.33-.84,2.18-2.3,1.94.84.36.73,2.42-1.82,1L5.81,49.64l.24,1.69,1.82.12,1.94-1,.72,1.34,2.67.6,1.57.61,2.54,3.63H18.4L20.1,55l6.66-14,1.33-1.21,8.83-2.91,3.76-2.66,6-5.45L49.15,23l1.46-.12.48-.73.36-2-.12-1.58-1.81-3.39v-1l-.37-1.33ZM6.05,40.92h0l-.12-.61,1-1.57,1.57-1.33.13.36L8.11,39l.12,1.09-.6,1.21-1,.37Z"/></g></g></svg>