<svg xmlns="http://www.w3.org/2000/svg" viewBox="0 0 65.62 58.35"><defs><style>.cls-1{fill-rule:evenodd;}</style></defs><g id="Layer_2" data-name="Layer 2"><g id="Layer_1-2" data-name="Layer 1"><polygon class="cls-1" points="59.2 58.35 56.54 54.84 55.09 54.72 54.48 53.63 54.24 51.7 52.3 49.03 50.6 48.67 47.82 45.88 45.4 44.31 44.79 43.46 42.86 43.22 42.62 42.62 39.83 42.13 38.98 40.68 35.59 37.65 34.02 37.29 32.2 35.71 30.27 35.23 28.69 35.59 28.33 36.08 25.3 33.66 23.61 33.53 22.88 34.38 21.43 33.05 19.61 33.29 17.8 34.87 15.98 34.87 12.11 33.53 11.5 32.45 10.41 31.84 7.75 37.41 6.17 37.41 5.57 38.62 3.39 38.5 1.7 37.77 1.21 35.84 0 31.72 0.12 29.3 1.21 28.21 1.33 26.64 2.91 24.21 3.75 19.25 4.84 16.22 5.57 15.25 5.08 14.41 4.12 13.8 5.08 11.5 5.08 9.56 6.17 8.84 8.84 8.84 9.08 7.75 8.6 6.78 8.72 5.81 10.65 5.33 11.86 4.36 14.04 4.6 14.77 3.27 16.46 2.91 18.04 2.06 19.37 0 19.49 0 21.79 2.54 25.79 13.2 27.12 20.34 27.97 20.46 28.45 23.12 28.45 23.97 29.78 24.45 30.63 26.51 31.11 29.54 32.81 30.02 32.69 27.24 32.2 27.36 32.32 25.3 33.05 25.06 34.87 27.6 34.26 28.33 35.84 30.75 37.05 31.96 38.02 31.23 39.47 31.11 40.07 31.48 41.28 30.99 43.1 33.05 44.07 34.14 46.73 34.87 47.34 35.84 50.73 39.59 52.06 42.01 54.12 42.86 55.57 44.55 56.3 44.55 56.42 44.07 57.14 44.91 58.72 49.03 59.93 49.4 61.38 51.21 61.02 51.7 61.86 53.63 62.83 53.63 63.92 54.24 64.77 53.51 65.13 54.12 65.62 54.36 63.8 56.3 62.11 56.78 61.38 57.75 59.2 58.35"/></g></g></svg>