<svg xmlns="http://www.w3.org/2000/svg" viewBox="0 0 65.62 44.79"><defs><style>.cls-1{fill-rule:evenodd;}</style></defs><g id="Layer_2" data-name="Layer 2"><g id="Layer_1-2" data-name="Layer 1"><path class="cls-1" d="M62.23,43.58,64,40.8l-.36-2.3,1.94-1.7V34.38L59.93,24.09l.84-9.2,1.46-1,.85-3.63L65,7.87l.37-.73-.13-.36L64,4.72l-.36,1.09-9.81-.24L49.52,2.78l-4.6.13L42.49,1.69l-2.05.49L37.89,0l-.12,1.69L36.2,1.45v1l1.33,1.21L35.35,5.08l-1.09-.72L29.9,4.24,29.06,3l-.73,2.42-2.18-.24-2.42.72L23.37,8l-1.58-.36-4,1.69-1.33,2.3.12,7.87,1.57.24.85-.6,2.18.12L20.1,21.07l-1.82.12.24,3.14,2.06,3.15L24,30.75l1.21-.36.24-2.06,2.43-1.94.84,1.82-1.21,6.41V36l1.21-.49,3.88-2.18,2.9-.72,3.15,2.3,1.57-.12.49-2.18,1.81,1.33.85,1.81h1.58l3.87,2.43L50,41l2.3,1.09,1.82,2.66L58.47,43ZM12.35,14.77h0l2.18-.12.6,1.21-2.3.36ZM8,20.58H8L6.54,18.16l-2.06.12-2.18,1-.85-.73,3.88-1.81,1.09-1.46.24-.84L8,14.53,9.2,15.74l2.18.12,1,2.42L10.9,17.8,8.84,19.25Zm4.48,1.94h0l-.12-1.45,3.15.12,1.09,2.66-1.21.85ZM1.57,36.44h0l1.09.36,1.82-1.69V33.9l1.69-3.27,3.27-.73L11,28.09,12.47,26l1.57.36.61-.36-.49-.73L13,24.58,11,23.12l-3.76-.24-1-.6L5.08,23.73,4.36,24,3.15,25.42l-.61-1.21-1.33-.36v1L0,25.3l1.69.61v1.21L.48,28v1.45l1.82.48,1.94,1.82-.73,1.82-1-.13Z"/></g></g></svg>