<svg xmlns="http://www.w3.org/2000/svg" viewBox="0 0 65.5 49.64"><defs><style>.cls-1{fill-rule:evenodd;}</style></defs><g id="Layer_2" data-name="Layer 2"><g id="Layer_1-2" data-name="Layer 1"><polygon class="cls-1" points="9.69 41.4 9.44 39.95 8.96 39.47 8.72 37.89 8.11 37.05 7.75 36.44 7.14 35.71 6.42 35.71 6.05 35.35 6.05 35.11 5.33 34.75 4.48 33.17 4.12 33.05 4 32.45 3.27 31.6 2.79 31.11 1.09 31.11 0.24 30.87 0 30.27 0.6 29.42 1.09 29.18 1.09 28.21 2.06 28.33 2.91 28.21 3.27 28.45 3.87 28.57 4.12 28.09 4.72 27.72 4.84 25.67 4.72 23.97 5.08 22.76 5.69 21.67 5.69 20.82 5.45 20.34 5.69 19.37 6.66 18.28 6.78 17.68 7.14 17.68 7.63 17.8 8.47 14.65 9.08 13.2 10.29 12.35 10.29 11.74 11.26 10.05 11.38 9.2 12.23 9.08 12.59 9.08 13.07 7.75 14.29 5.81 14.29 4.36 14.77 3.03 14.89 2.66 15.5 2.91 16.46 3.03 16.71 2.42 17.43 2.42 18.52 0 19.01 0.24 19.25 0.73 20.94 1.33 21.79 1.33 22.64 0.6 23.37 0.6 23.97 1.09 24.33 0.73 25.06 0.73 26.39 1.82 26.51 1.57 27.24 1.45 28.09 1.7 28.93 2.42 29.54 2.54 31.11 3.87 31.48 4.48 32.69 4.72 32.81 4.96 33.66 5.08 33.9 5.45 34.99 6.17 36.2 7.38 36.92 7.51 37.77 8.72 37.89 9.56 38.14 10.05 38.74 10.05 39.95 11.62 39.1 11.86 38.86 12.83 38.5 13.68 38.62 14.77 38.26 15.5 38.14 16.34 37.41 17.31 37.89 17.8 39.47 17.68 40.44 17.07 41.65 16.83 42.37 17.31 42.13 17.8 42.37 19.37 43.1 21.67 44.31 22.28 44.19 23.49 44.67 24.82 46.25 25.18 47.34 26.03 60.05 29.9 65.5 29.9 52.06 43.22 49.52 43.1 46.85 43.22 46.01 43.7 45.28 43.83 44.19 44.31 43.83 45.16 42.98 45.76 41.89 46.37 40.56 46.49 39.23 47.22 38.86 47.82 38.74 47.82 37.65 47.82 35.96 48.06 35.23 47.7 34.75 46.73 34.14 46.49 32.08 46.73 31.72 46.97 30.99 46.97 30.14 47.34 29.66 47.82 28.57 49.64 27.72 49.64 27.12 49.64 26.27 49.4 25.18 49.64 24.21 49.15 22.64 49.15 22.03 48.91 21.31 48.18 20.22 47.46 18.4 45.64 17.68 45.16 15.62 45.28 14.53 45.04 13.56 45.4 12.71 45.16 11.99 44.43 11.99 41.77 11.26 41.65 10.41 41.89 9.93 41.04 9.69 41.4"/></g></g></svg>