<svg xmlns="http://www.w3.org/2000/svg" viewBox="0 0 42.98 77"><defs><style>.cls-1{fill-rule:evenodd;}</style></defs><g id="Layer_2" data-name="Layer 2"><g id="Layer_1-2" data-name="Layer 1"><path class="cls-1" d="M33.9,71.19,33.78,70l1.93-1.82,1-.48,1.21-2.06L39.1,63.8,40,61.62l1.7-2.9,1.33-3-.37-1.33L40.8,52.3l-1.09-.36-2.06-2.79L38,47.82l.85-1.09-.12-1.21-1.33-1-.36-1L36.92,42l.37-.36-.37-.85-1.08-.12L35.35,40V38.5l.49-.73-.73-.24L35,36.8,35.23,34l.73-.24L34,29.42l-1.7-3.27L32,24.94l-1.09-1.09.73-2.06.85-1.45.48-1.21-.61-.49-1.93-1.21-.24-.84-.73-1L28.33,15l-.61-.12L27,13l-.61-.72.24-1.46.25-1.21-.73-.12L26.88,9,28,8.47l-.12-1.81.72-1.21.12-.85-.84-.85L27.6,3l-1.33-.12-1-.37-.6-.6L23.61.61,22.88,0H21.07l-.73.85v.36l-.61.12-1.09-.24-1,.48.12.49-.73.85-.48.36.48.6-.36.73-.25,2.18L17,8.11l.24.73L17,9.32l-.73.49H15.5l-.73.6-.61.36-.48.85-1-.12-1.33-1h-1l-.6.61-1,1H6.78l-1.21-.49-.61-1L4.6,9.81,2.78,8.23l-.72-.85-.73-.12-.6.49-.12.72.24.61-.37.24L.12,9.08,0,9.32l.73.85,1.09.6,1.45,1.7,1.21.85,1.57.12.73.48.48.12.85,1,.36.73.37.12.36-.12.73,1.09h.48l.49.6-.37.85.24,1.21-.36,1,.12.85h1.09l.24,1.09-.36.6.12,1.21.49.61.24,1.57-.12.73.12.6v1.7l-.24.6.36,1.21.85.37L14,33.17l.49.49v1l.24.25h.85l.72.84H18l1.09,1.09-.61.25.37.6L19,39l-.37.25L20,40.44l-1-.25-.37.12,1.09,1,.12.49L18.52,41l-1.09.12-1.09.73v.6l-.84.85V44l-.25.24-1.33,1.33L13.68,47l-.36.12-.24-.48-.37.12.37.85-.25.6-.84.13-.61.72.24,1.09.61.36-1-.24-.36-.36-.61.12-.24,1,.12.36-.61-.24-.24.36.61.61v.36L9.44,53l-.24.48L8.35,54,8,53.63l-.12-.24-.48-.24-.61.24.24.73-.48.48.24.73-.24.84-.49.13-.36.6.36,1,.12.12-.24.85.24.6.49-.36.48.48-.12,1L6.78,61l.24.72-.12.49.85,1.33.36.36-.24.49.6,1-.6.36L8,67.07l-.24.48-.12,1.7.48.6-.36,1v.61l.24.48,1.21-.48.36.36.25-.6,1,1.09.61-.13.48.49,1.34-.12.36.24-.36.61h.48l1-.73v.6l-.49.73,1.09,1.45.25.49-.37,1,.37.12.36-1.21.6-.37V76l.85-.36h.61l1.33-1h.85l1.69-1.09v-.49l1.09.37.85-.25.6-1,.25.36-.37.73.37.12.48-1,.36.12-.36-1,.36-.36.49.84.48.13.12-.61.49,1,.48-.24.12-.61.49.12.24.49.48-.49,1.09-.24.61.61L31.84,72l.12-.48-.36-.36.36-.25.61.25.12.48.85.24a3.54,3.54,0,0,0,.36-.72Zm-16-31.12h0l-.37.37h-.72l-.61-.85.85-.61,1.33.25-.12.36h-.73ZM5.81,52.18h0l.12-.49.49.37-.25.36Zm-.36.6h0l.6.37.49-.24-.12.72L5.69,54l-.48-.49Zm9,22.52h0l.12.61-.61.36-.24-.36.36-.24Zm-1.21-1h0l.24.61h-.36Zm-1.7-.84h0l1.33-.25-.12.49-.85.6-.6-.36ZM9.69,72h0l.84.73-.48.36-.36-.36Zm-1.94.37h0l.85.12-.49.24-.36-.36ZM2.06,73.61h0L3,74l.24-.36-.61-.49v-.6h.49l1.21.85.12.6-.61-.12-.24.36.49.73h.6l.12.73-.48.24-.73-.61-.85-.24-.48-.6-.48-.37Z"/></g></g></svg>