<svg xmlns="http://www.w3.org/2000/svg" viewBox="0 0 65.62 60.9"><defs><style>.cls-1{fill-rule:evenodd;}</style></defs><g id="Layer_2" data-name="Layer 2"><g id="Layer_1-2" data-name="Layer 1"><path class="cls-1" d="M53,33.29l-.12-.84L52.3,32l-.36-1.21-.49-1-1.57-.12-.61.61.49,1.33-1.33.48L47.34,32l-.12-.85.6-.24h.61v-1l.24-1.57L50,26.27l.73-.24,1-1.21.85-.49-.12-1-1.09-.49.73-.85h1.09l.36.61.85.12,1.69-.48-.48-1-.85-.61-.12-1.45.48-1.7.73-.72V16.1l.49-1.45,1.21-1.21-1-.61h-1l-1.21-.6-1,.36-.61-.36h-.84l-.85.36-.85-.73v-.6l-1-.73-.72.12-1.33-.24-.49-1h-.85l-.48.37-.85-.73h-1L42.37,7.63l-.6-.12-.49-.61h-.6l-.61.36-1-.48L39,5.45l-.72-.37-.61-.48h-.6L35.71,3.39l-.24-.85-1.21-.36L34.14.36,33.53,0l-.12.24L31.6.85,31.11.48l-1.45.85-.24,1.09.24,1.09L29.3,5.45,27.85,6.78v.61l-1.58.48h-.85l-1-.24-1.82,1-.49,1,.37.61.85.24-1.22.85-1.45.36-1.93-.36-.85-.36-.73.36-.36-.73-.61-.48.24-.73L15.74,9l-.85.24H13.68L13.2,9l.24,1.09-.12.48L15,12.11l-.36.48.24.85-.12.72.48.73.13.85-1.82-.24-.73.24-.72-.12-.85.24-.36-.36-1.09.84L8.35,14.53l-.72-.24-1.21.24-1,.85L5,15.13l-.6.49-.49-.37-1,.13-.73.72-1.45.12L0,17l.36.73,1-.37.85.24.24.37-1-.12H.85l.36,1L1.45,18l.61.24.24.61-.61.24-1,.36.12.24h.84l.37,1.09-.12.61L3,20.7l.72.24.61-.12,1.57.61.37.6h.6L8,22.76,8.84,22l.48.12-.24.61.36.36.73-.48.6.48-.48,1,.48.73h.61l1-.61,1.09.12.6.85-.84-.48-.85.12-.61.72.49.25.24,1L12,27.6l.24.73.84.12L14.29,30l1.21.13,1.21.72v.85l.36.73-.36,1-.25.13-.24.84.85.24,1.57,1.22,1.21,2.78-1.33-1.21-.36-1.21-1-.61-.48.37-.49,2.54v1.81l.73.49-.61.6-.24,3.39-1,2.91L14,48.43l.85.48.12.24.61.12.12,1.09-.12.73L17.07,51l2.06.72,1,1.09,1-.48,1.08,1.21,1.46-.12.6.36,1-.84,2.3-.13.85.49,1.33-.12,1.45.72,2.42-.12,1.58,1,.73.24-.13-.48L35.35,53l.36-1.7.13-.85,1.21-1.09,1.69-1.81.61-.12.48.48,1.21.12,1.21.73h.85l.73-.61h.72l3,1.82.85.73,2.3.12,1-.73-.24-.6.85-1.09,3.15-2.3h.24L55.33,45l.6-1.58H54.48l-1.57-1.09-.25-2.66L51.45,38.5l.73-.85,1.09-.12.36-1.69-1-.85-.12-1.21.37-.61ZM63.56,60.9h0L62,60.29l-.25-.48.37-.49h.36L62.23,59h-.37v-.73l-.6-.36-.36-.48.36-.25v-.36l-.73-.48-.12-.73h.49l.24-.36-.61-.61.73-1.21,1.45-.48.61-.61.6.61h.49l.12-.85-.37-.73.25-.85h.48l.24,1.46L65,53.27l.61,1.94L65,57.63v1.21l-.48,1.57Z"/></g></g></svg>