<svg xmlns="http://www.w3.org/2000/svg" viewBox="0 0 56.3 61.14"><defs><style>.cls-1{fill-rule:evenodd;}</style></defs><g id="Layer_2" data-name="Layer 2"><g id="Layer_1-2" data-name="Layer 1"><polygon class="cls-1" points="25.3 1.33 25.67 0.97 26.51 0.48 27.48 0.6 28.45 0.12 31.23 0.24 32.08 0 35.11 0.12 36.08 0.48 37.65 0.12 38.98 0.12 39.23 0.6 41.65 0.73 42.13 0.48 42.98 0.48 43.58 1.21 43.58 1.21 43.1 3.15 43.7 5.08 43.46 7.51 44.07 9.08 43.7 10.29 44.67 10.9 46.13 10.05 47.58 10.41 49.76 9.81 51.82 8.96 54.96 9.08 56.05 9.81 56.3 12.71 55.57 14.04 56.17 15.01 55.81 16.83 54.12 17.31 51.94 18.4 51.82 19.73 52.42 20.34 52.78 21.79 52.18 21.79 51.7 22.4 50.6 22.88 50.6 23.61 51.33 24.33 51.7 25.18 52.78 25.79 53.15 26.63 54.6 27.84 55.09 29.06 56.17 30.02 56.05 31.96 55.09 35.96 52.66 43.1 53.15 44.91 53.03 46.73 52.06 46.73 51.45 45.4 49.52 44.55 47.46 44.67 46.37 45.4 45.04 45.16 42.74 45.76 41.4 44.19 39.83 40.19 37.89 39.95 36.92 41.16 37.29 43.46 36.92 45.16 33.41 45.28 31.84 45.28 31.36 46.37 30.51 47.22 28.57 46.01 26.51 46.37 25.55 47.22 26.27 48.67 26.03 50.6 27.48 50.12 29.06 49.76 30.02 50.48 31.72 51.7 31.84 56.66 31.72 58.35 29.06 56.17 28.33 56.17 27.72 57.14 25.91 57.26 24.94 57.75 24.82 59.08 23.37 61.14 22.88 60.65 21.19 60.05 20.94 58.35 17.31 56.66 16.46 54.48 11.99 50.97 9.32 48.06 10.05 47.58 7.51 45.52 6.54 43.22 5.08 41.77 5.08 38.74 3.27 36.44 3.27 34.87 2.18 34.02 0 29.66 0.24 28.69 2.54 29.42 4.48 27.84 4.84 22.52 5.21 19.73 6.29 20.82 10.65 19.86 7.51 19.01 5.57 15.98 7.75 15.62 7.87 13.32 8.96 13.56 10.29 12.71 11.38 12.47 11.87 12.83 25.3 13.07 25.3 1.33"/></g></g></svg>