<svg xmlns="http://www.w3.org/2000/svg" viewBox="0 0 65.5 29.42"><g id="Layer_2" data-name="Layer 2"><g id="Layer_1-2" data-name="Layer 1"><path d="M65.5,25.91,65,29.42,61.38,27.6l-2.78-.12h-1L56.78,27l-4.84-2.67-3.76,1.46-.12,1.57-.6-.48L41.89,27l-1.33-.24-4.48,1-1.82.61-1.21.48-.24-.12-1.7-.48L27,24.82l-.12-.12-1.7-.49-.85.85-.48.36-1.33.25-1.7-.61L20,24.7l-.25.24-.72,1-1.09-.37-.24-.72V24.7l-.25-1-1.21-.12h0l.24-.49L16,21.43l.73-1.09L15,17.07,14.41,13,13.32,11.5,11.14,8.11,8.72,7.87,8.6,6.54,5.93,4.36,5,5.08l-1-.6L1.94,4.24.48,2.06.36,1.82H0A17.14,17.14,0,0,1,3.87,0L9,1.45,21.31,3.27l8,1.45,6.41,1.82,5.82,1.93L40.44,9.93,43.1,11l4.12-1.21,3.26-.61,1,1.57L52.06,9l1.09-.12,5.32,1.57,1.82,2.91-1.45,1.45,1.81,1.69,1.82,2.18-1,3.64L64,23.85Z"/></g></g></svg>