<svg xmlns="http://www.w3.org/2000/svg" viewBox="0 0 56.17 66.95"><defs><style>.cls-1{fill-rule:evenodd;}</style></defs><g id="Layer_2" data-name="Layer 2"><g id="Layer_1-2" data-name="Layer 1"><polygon class="cls-1" points="15.62 0 17.43 0 19.86 0.6 20.58 0.97 21.79 0.73 23.12 2.18 24.45 2.3 23.73 3.87 23 4.48 23.37 5.21 24.45 5.57 24.82 6.66 25.91 5.93 26.27 5.21 26.88 4.84 27.36 5.57 29.06 6.78 29.42 6.3 30.51 5.45 30.99 5.81 31.11 6.9 30.14 7.99 29.42 7.87 28.21 8.6 29.9 9.2 30.51 8.84 31.72 8.96 32.08 9.69 33.53 9.56 33.78 8.6 34.63 7.38 37.17 7.02 37.17 6.42 38.5 5.69 38.74 4.96 39.35 4.72 41.04 4.84 39.59 5.45 39.1 5.93 38.86 5.81 38.26 6.54 38.74 7.02 40.07 6.05 41.52 5.93 42.13 5.57 42.62 6.3 43.83 6.54 45.52 8.11 46.85 7.87 47.58 9.08 47.34 10.29 48.55 11.26 49.64 11.14 50.48 11.86 51.7 11.74 52.42 14.77 52.18 17.07 50.36 18.04 50.36 18.89 52.42 21.19 52.18 22.52 53.15 23.73 53.15 24.82 53.75 26.15 53.15 27.36 54.36 30.14 55.33 30.63 56.05 31.6 56.17 35.23 55.57 36.2 54.6 35.71 53.75 36.32 51.7 35.84 51.7 37.05 50.48 37.65 49.52 37.41 47.34 37.53 46.61 38.62 45.16 38.62 43.83 40.19 42.74 40.19 40.31 42.37 39.23 41.89 38.62 41.41 38.02 41.77 38.02 42.74 39.83 43.83 41.28 46.01 41.16 47.7 41.52 48.67 42.86 49.4 45.16 50.97 46.49 51.82 49.15 54.96 48.91 56.17 48.91 57.51 47.82 57.51 47.09 58.84 45.52 59.69 43.83 61.86 43.83 62.83 45.4 63.56 45.64 64.89 44.91 65.38 43.46 64.53 41.89 64.89 40.44 64.53 39.35 64.65 37.17 65.98 36.08 66.22 34.99 65.98 33.78 66.22 32.81 65.62 30.99 65.25 29.18 65.5 29.3 66.47 28.93 66.95 27.24 66.59 26.27 65.5 25.06 65.98 24.33 66.34 23.97 66.34 23.37 65.98 21.43 64.53 20.58 64.53 19.86 65.13 19.01 64.89 18.52 63.56 17.19 64.04 17.31 64.89 16.83 65.74 15.25 65.13 14.04 65.86 12.95 65.5 12.95 65.5 12.35 64.17 11.14 63.44 11.02 61.5 11.74 59.2 12.71 58.35 12.71 57.38 13.44 55.33 14.89 53.75 13.56 52.91 12.35 52.91 10.78 52.18 9.56 52.54 8.6 52.18 7.51 52.18 6.42 52.54 5.21 51.57 5.21 50.85 4 49.88 4 49.88 4.12 47.7 3.39 47.09 3.03 45.64 1.45 43.58 0.97 43.58 1.82 41.77 0.97 40.56 0.97 39.71 0 37.65 0.48 36.68 0.24 36.56 0.85 35.11 1.21 32.93 0.85 30.99 1.7 29.9 2.54 28.57 4.36 28.09 6.05 28.45 7.02 27.97 6.29 26.76 7.14 26.03 7.38 24.58 7.75 23.85 7.02 23.12 5.45 23.25 5.21 22.4 5.81 21.07 7.26 21.67 8.11 20.94 8.11 19.61 8.6 18.52 8.72 17.68 9.08 17.19 9.2 16.95 9.32 16.95 8.96 15.74 7.51 15.5 6.9 14.29 7.14 12.95 10.17 12.23 11.02 11.74 12.47 12.83 12.47 14.41 13.56 15.62 14.29 15.01 13.68 13.8 13.68 12.83 14.29 12.59 15.25 13.44 15.13 15.01 16.59 16.59 15.98 15.38 15.98 13.44 15.62 12.35 16.46 11.02 17.55 10.78 18.64 11.38 19.98 10.78 22.16 13.07 25.06 13.68 22.28 12.59 20.22 10.29 18.52 10.29 17.68 9.69 17.68 8.72 18.77 7.87 17.55 7.14 17.55 5.57 16.34 6.05 16.22 4.96 17.43 4.96 18.64 4.48 17.19 3.03 17.19 2.06 16.59 2.06 15.62 1.45 15.74 0.36 15.62 0"/></g></g></svg>