<svg xmlns="http://www.w3.org/2000/svg" viewBox="0 0 42.13 66.59"><defs><style>.cls-1{fill-rule:evenodd;}</style></defs><g id="Layer_2" data-name="Layer 2"><g id="Layer_1-2" data-name="Layer 1"><polygon class="cls-1" points="2.18 63.08 2.54 62.35 4.6 62.23 6.05 61.98 6.17 59.2 5.21 57.51 2.91 56.78 2.66 54.36 1.21 50.6 0 49.4 0.12 48.55 0.97 47.94 0.85 43.46 1.82 42.13 1.94 39.71 2.66 38.26 2.42 36.2 5.69 31.48 7.63 30.27 7.63 28.21 8.47 26.03 7.63 23.49 6.17 22.16 6.17 20.34 5.33 18.28 6.17 15.13 6.05 11.38 4.84 8.6 3.75 7.63 3.15 4.48 3.39 2.3 6.9 2.06 14.29 2.06 15.13 1.7 20.34 1.7 24.09 1.09 26.39 0.97 28.81 0 29.54 0.12 30.39 2.91 31.23 3.75 31.48 5.21 33.66 7.26 34.5 8.47 36.56 10.05 36.08 12.83 36.08 16.46 37.17 17.19 38.02 17.55 38.14 20.94 37.41 22.4 37.29 23.85 38.14 24.7 38.5 26.64 37.65 27.84 38.38 29.3 38.14 32.69 38.86 34.26 39.23 40.19 38.14 42.25 38.02 43.46 37.41 46.25 38.14 48.55 38.98 51.21 39.95 51.7 41.04 52.78 42.13 54.48 36.68 55.21 31.96 57.38 26.75 61.86 20.58 62.35 11.98 66.59 7.99 64.77 2.66 64.04 2.18 63.08"/></g></g></svg>