<svg xmlns="http://www.w3.org/2000/svg" viewBox="0 0 46.85 60.05"><defs><style>.cls-1{fill-rule:evenodd;}</style></defs><g id="Layer_2" data-name="Layer 2"><g id="Layer_1-2" data-name="Layer 1"><path class="cls-1" d="M13.92,59.56l-.48-.36h-.36L13.2,59h0v-.12h-.12L13,59h0v.36l-.12-.12h-.12v.24l-.12.12h-.12l.12-.24V59l.24-.24h-.12l-.12.12-.12.36-.24.12h0v-.24l.24-.12v-.24l.12-.12h-.24v.12l-.24.12V58.6l.24-.13-.12-.12h-.12v.12L12,58.6l-.13.12v-.25h-.12l-.12.13H11.5l.12-.13.24-.24v-.12L12,58l.24-.12h0L12,58h-.13l.13-.12.24-.12.12-.12h.12v-.37h-.12l-.24.25-.37.24-.24.12v-.12l.12-.12h.12l.12-.12.13-.25-.13-.12L11.74,57l-.12.12v.12h.12v.12l-.12.13h-.48l-.12.12v.12h-.25l-.12-.12h-.12l-.24.12h-.12V58H9.81l-.12-.12.12-.12.24-.12.12-.12h-.12l-.12-.13v-.24L9.81,57H9.56l-.24.24-.12-.12L9.08,57l.24-.12-.12-.12H9.08v-.12l.24-.12h.24l-.12-.12H9.2L9,56.54l-.24.12-.12-.12v-.12h.24v-.37h.24l.12-.12v-.12H9l-.12.12H8.6l.12-.12.12-.12.12.12.12-.12.12-.12-.12-.12.12-.12H8.84v.12l-.12.12H8.6v-.12h.12l.12-.24H8.72l.12-.13V55H8.6v-.12h0v-.12l-.13-.12-.12.12H8.23V54.6l.12-.12v-.12h.12l.25-.24L8.6,54v-.13l.12-.12H8.47v.12l-.12-.24-.12.12H8.11L8,53.51l.12-.12h.24v-.12l-.12-.12H8.11l-.24.12H7.75V53h.6l.12-.12H7.75l-.12-.13.24-.12h.24l.12-.12H8l-.12-.12h.24l.12.12.24-.12.13-.12H7.87v.12l-.12.12-.24-.12V52.3l.12-.24h.24L8,51.94H7.63l-.12-.12.12-.25H8.72l.12-.24H8.6l-.25.12H8.11l-.24.12H7.75l-.12-.12H8l.12-.12.24-.24H8.6l.12.12h.12L9,51.09H8.84l-.12-.24H8.47v-.12H8.6l.12-.12h.12v.24l.24.12.12.12h0v-.24H9.08v-.37l.12-.12v-.12H9.08L9,50.36H8.84l-.12-.12v.12l-.25.25H8.23v-.13l.12-.12h0l-.12.12-.12.13H8l-.24.24H7.63l-.12.36H7.38v-.48l.13-.12-.25-.13.12-.12v-.12l.13-.12L7.87,50H8l.12-.12h.12l-.12-.12H8l-.12.12H7.75V50H7.51l-.13-.12v-.24l.13-.12v-.13l-.13-.24h0l-.12.12H7.14v-.12L7.26,49h.25l.12-.12.24-.12L8,48.67h.12v-.24h.12v.12l.12-.12H9v-.12H8.72v-.13H8.6l-.49.25H7.87v.12l-.12.12-.12.12-.25.12h0l-.12-.12.12-.12H7.26v-.12l.12-.12-.24-.12h0l-.24-.13v-.12h.36l.12-.12v-.12l.13.12h.36L8,47.82h.24v-.24H8l-.12.12-.24.12h0l-.12-.12H7.26L7,47.82H7L6.9,47.7v.12H6.66l.12-.12H6.9l.24-.12.37-.24h.12L8,47.22l.12-.13.36-.48.37-.12.24-.12h.24v-.12H9l-.61.24-.24.24L8,47.09H7.75l-.37.13-.12.12-.36.12H6.66v-.12h.12l-.12-.49.12-.12H6.9l.24.12h.49v-.12l-.12-.12H7.26l-.12.12H7v-.24H7l.24-.12.12.12h.37v-.12H7.51v-.12l.12-.12.12.12v-.12l.24.12v-.37H7.63l-.49-.12H6.9l-.12-.12h.48l-.12-.12H6.9V45.4h.36v-.12H8.72v-.12L8.47,45H8.11l-.36.12H7.51L7.38,45l-.24.12L7,45.28V45l.12-.12.12-.13.25-.12.12-.12.12-.12L8,44.31H8.6l.24.12.24.12H9.2l.24.12.25.25.24.12.24.12.12-.12h.24l-.12-.12h-.12l-.12.12h-.12l-.24-.25-.25-.24v-.12h.49l.24-.12.12-.12v-.12h-.36v.24H9.69l-.13-.12v-.12h.25V44l-.12-.12H9.56V44l-.12-.12H9.32V44l.12.12v.12l-.12.12-.24.12H9l-.12-.24H8.6l-.13-.12V44h0l-.12.12H7.87l-.12.12-.24.24-.13.12-.12-.12h0l.25-.36h.12L7.75,44h0v-.12h.12V43.7L8,43.58h.12l.12.12.24.13h.25V43.7H8.47l-.12-.12-.24-.24v-.12l-.24-.12V43H8l.24.12.24.24.13.12h.12l-.12-.12V43.1h0l.12.24.12.12.36.24.12-.12h.24l.13.12.24.13h.24V44h.12v-.12l-.12-.13-.48-.36V43.1h.24V43l.12-.24H9.56l-.12.12h0l.25.12-.13.12H8.84V43H8.6v-.12l.12-.12v-.12l-.12.12H8.35l.37-.12L9,42.49l.12-.12h.24l.12.12h.61v-.12l.12-.12h0l.12-.12.12-.12h0l-.24.12h-.12V42l.12-.12.12-.49v-.24l.12.12.12.12v.25h.24l.13.12H11v-.12l.12.12h.12v-.12l-.12-.12h-.37V41.4h.49l-.12-.12v-.12H10.9V41l-.13.12h-.12L10.53,41h0l.12-.12h0l.25-.24.12-.12h.24v-.12H10.9v-.13H11l.12-.12.12-.12.12-.12h0l.24-.12-.12-.12h-.12v-.12h.24v-.12l-.12-.12h-.24l-.12.24-.24-.12-.13-.12-.12.12h-.12l-.12-.12h-.24l-.12-.12H9.81l-.12-.13V39l-.13-.12-.24-.24L9,38.5l-.24-.12-.25-.24V38l-.12-.24-.12-.12-.12-.12v-.12l.24-.24h.49l.24.12.12.12h.36l.13.12h.24l.12.12h.12l.12.12.12.12.12.37.24.24.13.12.24.12.12.12.12-.12.12-.12V38.5l-.12.12h-.12l-.12-.12-.24-.24v-.12h0l.24.24h.12v-.12h.12v-.12L11.14,38l-.24-.24v-.12l.24.12h.12l-.12-.12-.24-.24-.13-.12-.12-.24h.25l.48.24.12-.12v-.12l-.24-.25h0l-.24.12h-.37V36.8l.12-.12.25-.12h0l.24.12h0v-.12l-.12-.24-.12.12H10.9l-.13.12-.36.24h0l-.12-.12.12-.12.12-.12.12-.24h.25l.12-.12h.24L11.14,36H10.9l-.13.12h-.48V36l.12-.12.12-.13h.24l.37-.12.24-.12v-.12h-.12l-.24.12h-.25l-.12-.12h-.24l-.12-.12h0l.12-.24.12-.24h.12l.12-.13h-.24l-.24.25V35l-.12.12v.12h-.12v-1L9.93,34l.12-.12v-.24l-.12.12h0v.6l.12.12v.25l-.12.36v.12H9.81l-.12-.12L9.56,35v.36H9.44v.36l-.12.13H9.08L9,36l-.12.12H8.6L8.47,36v-.37H8.23v.12H8.11v-.48L8,35.11V35l.24-.12h.24l.13-.12h.12L9,34.62l.12.13.24-.37.24-.24V34H9.44l-.12.12-.12.12-.12.24H8.6l-.13-.12v-.12l.13-.12.24-.24H9l.12-.12v-.12H9.2l.12-.12-.12-.13h0v-.12H9.08L9,33.41H8.6v-.24l.24-.12H9l.12.12H9.2l.24-.12.12-.24-.12-.12.12-.12.13-.25v-.6H9.44l-.12-.12H9v-.12l.12-.12.24.12v-.12l.12-.13v-.12L9.56,31v-.24H9.44l-.12-.12v-.12l.12-.12h0l-.12-.24V29.9h0l.12.12v-.36l.12-.12-.12-.24-.12-.12.12-.12-.12-.25.12-.12v-.24H9.32l-.24.24H9l-.12.12H8.72v-.12L9,28.57h.12l.12-.12v-.24l.24-.12L9.56,28l.13-.12-.13-.13V27.6l-.24-.24v-.12H9.2L9.08,27v-.24h0v-.25L9,26.39,8.6,26v-.24H8.47v-.25l.25-.12.12-.12L9,25.18H8.72v-.12h.12L9,24.82l.12-.12v-.12H9l.12-.25H9l-.12-.12L8.72,24l-.25-.12-.12-.12v-.12H8.23v.12H8v-.24l-.12-.12H7.75l-.12-.13-.12-.12v.12H7.38V23l-.24-.24L7,22.52H6.9l-.12.12H6.66L6.3,22.4l-.25-.12-.12-.13L5.69,22H5.45l-.12.12-.12.25L5,22.52V22H4.72l-.12.12v.13l-.12.12-.12-.12L4.24,22H4.12v.12L4,22.52H3.75v-.37L4,21.91H3.75v-.12L3.51,22H3.39l-.12.12h0L3.15,22v-.36L3,21.55H2.91v.12l-.13.24L2.66,22v.12l.12.37v.12H2.66l-.12-.12L2.3,22.4l-.12-.12-.24-.13-.25-.24H1.57v-.12h.12l-.24-.12-.12-.36-.12-.12-.12-.25v-.36h.36l.12-.12h.61l.12-.24H2.06L1.82,20l-.13.12H1.57l-.24-.25-.12-.36.12-.12h.24v-.24L1.69,19H1.45l-.12.24H1.21l-.12.12L1,19.49l-.24-.12V19H.85v-.12H.73L.61,19v-.37l.12-.12H.85V18.4h.24v-.12l.36-.12h.37l.24.24h.48l.37.24h.48l.36.25h.49l-.12-.12H3.87l-.36-.13-.24-.24H2.78l-.24-.24V18H3.63l.37.12.24.12.12.12h0l.24.12V18.4H4.48v-.24L4.72,18h.12v-.36H4.6l-.12-.13v-.12H4.24L4,17.55H3.51l-.24-.12v-.12h0L3,17.07H2.91v.12l.12.12v.24l-.12.13H2.66l-.36-.13-.24-.36h0l.24-.12L2.66,17v-.12H2.3L2.06,17H1.94l-.12-.12.12-.12.24-.12.12-.13.12-.24V16.1H2.3l-.12.12-.24.24H1.57l-.12-.24V16.1h.12L1.69,16v-.12H1.33v-.12l-.24-.49L1,15.13.73,15v-.12H.85L1,14.77l.12-.12.12-.12v.12h.12v-.12H1.21l-.12-.12L1,14.29h.24l.36-.13v-.24l.12-.12H2.3l.12-.12h.24v.12h.25v-.12l.24-.12h.48l.85-.24h.24v.12l.12-.12-.12-.12v-.12L5.08,13h.37l.12-.12.12.12h.24l.24-.12h.49l.12.12.12.13H7l.24.24.12-.12h.13v-.12L7.75,13l.12-.24.24-.24.24-.12v-.12l.25-.37h.12l.12-.24H8.72v-.24l.12-.24h.48L9.56,11v-.25H9.32l-.24-.12v-.24h.48l.25-.12.24-.12v-.12h0V9.81h0l-.24.12v.24H9.69l-.25.12-.24-.12H9.08l-.24.12-.12.12v-.24l-.25-.12H8.35l-.12.12H8.11L8,10.05l-.12.12-.12-.12V9.81h0V9.56l.12-.12L8,9.32l.12-.12h.12V9.08L8.11,9V8.84l.12-.12h.12L8.6,8.6l.12-.13V8.35l.36-.12.12-.12h.36L9.81,8H9.56V7.87l.13-.12h.24v.12h.12l.24-.36V7.38l.12-.12.12-.12L10.77,7l.13-.12H11l.12-.12.12.12V8.35h.12V8.23l.12-.36-.12-.36V6.9h.24l.12-.12.12-.12h0v.12L12,6.9h.12v.24l.12.12H13V6.9l.13-.12V6.54h.24l.36-.24.12-.13V5.81h-.24V5.57l.12-.12.12-.24L13.68,5l.12-.24.12-.12h.24l.37-.12.24-.12h0l.12.12v.24L15,5l.12.25L15,5.57v.48h.12l.25.25.12.24.12.12V5.93l-.24-.36-.13-.24L15.5,5V4.84l-.12-.12V4.6l-.13-.24V4.12L15.5,4h.36L16,3.87h.12l.36.13H17l.36-.25h.37l.12.12.12.25v.24H18l.12-.12L18,4.12V3.87l.36-.24h.12l.12.24.13.25.12.12V3.75l-.12-.12-.13-.24h.25l.24.12.12-.12.24-.12.36.12V4l-.12.24v.24l-.12.36-.12.24v.13l-.12.12-.12.12h0l.12.12v.12l-.12.24-.12.12L19,6.3l-.24.12v.12l-.13.24L18.52,7v.24h.12L18.89,7,19,6.9V6.78l.12-.12.24-.36V6.05h.12l.12-.12.12-.12V5.69l.12-.12V5.33l.25-.12v.36l.12.12.12.24v.24l.24.25v.24l.12.12h.37V6.54l-.13-.12-.12-.12.12-.13h0l.25.13.24.12h.12v.12h.12l.12-.12.12.12H22V6.17l-.12-.24L22,5.69V5.21L21.91,5V4.72l.24-.48V4.12L22,4l.12-.13V3.63l.13-.12h.12l.12.12h.36l.12.12.12.12.12.25.13.36v.24l.24.36.12.25v.6l-.12.12v.37l.12.12.12.36v.48l.12.13h.24l.25.24h.12l.24-.12.12-.25.12-.12h0v.12l.12.13h.36v.36l.13.12.12-.12.12.12h.24V7.87h0l-.24-.12-.12-.12V7.51h-.12V7.14L25.54,7l-.24-.24V6.66l-.12-.24-.12-.25V6.05l.12-.24-.12-.24-.12-.24V5.08h0V4.72l-.12-.12.12-.12-.12-.36-.12-.25V3.51l-.12-.24h.48l.12.12h.12V3.27h.12l.37.48.24.12.12-.12.12-.24h-.12l.12-.36h.49L27,3h.12l.24.12.12.12h.12l.12.36v.12l.13.25v.36l.12.48v.37l.24.12h.24l.24.12.37.24-.13-.24h0l-.24-.24-.12-.13h-.12L28.21,5V4.6l-.12-.24V3.51l.12-.12-.12-.12-.24-.12-.25-.24h-.12l-.24-.13-.12.13H27l-.24-.13V2.54l.12-.24H27V2.18l-.24-.24-.13-.25.13-.12V1.45h.12l.12.12.12.25h.12l.24-.37.12-.12h.25V1.09L28.09,1l.24-.12L28.09,1v.24h.48v.24l.12.12v.12l-.12.13.12.12.12-.12.12-.25.25.12.12.13v.12l.12.36.12.24v.37l.12-.25V2.42l-.12-.12V1.94l-.12-.12.12-.13.12.13.24.24.25.36.24.12.24.12V2.54l-.12-.12-.24-.12-.12-.24V1.45h.48l.24.12h.24V1.45h0L31,1.33V1.21L31.11,1l.12-.12V.73L31.11.61l.12-.13.13-.12.12.12L31.6.36V.12L31.72,0h.12L32,.12h0l.12.24.12.25h.12V.12L32.45,0h.72l.12.12h.12L33.54,0l.24.12h.36l.12.12h.12L34.5.12l.12.12.13.12L35,.61l.12-.13h.12l.36.25h.12L36,.85l.48.12h.36v.12h.49l.24.24h.36l.12.24.13.12.24.13.24.24v.12l-.12.12h-.36L38,2.42l-.12.12h-.24V2.42l-.24.12h-.24L36.8,2.3h-.36l-.24-.12H36l-.12.12h-.13V2.18h-.24l-.36.12L35,2.42l-.24-.12h-.13l-.24.12H34L33.9,2.3V2.06H34l.12-.12V1.82h-.36l-.24.12.12.24.12.12h.12l-.12.24h-.61l-.12.12h-.48l-.25-.12-.24.24L31.72,3l-.12.12v.48l-.12.12.12.12.12-.12V3.51l.12-.12h0L32,3.27h.24l.12-.12v.24l-.12.24h.12l.13-.12V3.27L32.57,3l.24-.12h.6l.25-.13v.13l.12.12.12.24.12.12h0V2.91h0l.24-.13.24.13.25-.13H35l.36-.12h.12L36,2.54l.24.12.24.12h.24l.12.13h.25l.12.12.12.12L37.41,3h.24l.12.12h.12L38,3h.37l.24-.12.24-.25H39v.12l.25.13.12.12v.12l-.12.12h0l.12.12v.24l-.25.24L38.74,4l-.12-.13H38.5l-.12-.24-.12.12v.12L38.5,4v.24l-.24-.12L38.14,4H38v.12l.13.12.12.12h.24l.12.12h.24l.37-.24h.12V4.12h.72v.12l.12.12h.25V4.24l.12.12v.12l.24.12H41l.12.12v.12l.24.24.25.13.24.12v.36h-.12v.24l-.12.12-.25.12h-.24V6.3L41,6.42l-.12.12-.48.12h-.25l-.12.12H40l-.12-.12-.12-.12h0v.12l.12.12h-.48l-.12.12H39.1L39,6.78h-.24l-.12.12L38.38,7h-.24V6.9h-.61L37.29,7l-.12-.12-.25-.12H36.8l-.12-.12H36.2l-.12-.12L36,6.66h-.25l-.24-.12h-.12l-.12.12-.12.12h-.49V6.9H34.5V6.66h-.24l.12.12V7l-.12.12H34l-.24.12h-.24l-.25.12h-.12l-.12.13h-.36l-.24.12-.13.12-.12.12V8l.12.12v.24l.13.25h.12l.12-.13V8.23l.12-.12h.12L33.17,8h.37V7.87l.24-.12L34,7.63l.48-.12h.12v.24h0l.13-.12V7.38L35,7.26h1l.12.12h1l.12.13h.36l.48.12h.13v.12h.12v.12L38,8v.12l-.12.24-.12.12h-.48l-.24.13H36.8l-.12.12V9.2h.12l.25-.12h.24L37.53,9h.36l.37.12h.12l.24.12V9.08L38.74,9H39l.12.12.13-.24.12-.24V7.87l.24-.12h.24l.24.12h.24l.25-.12.12.12L40.8,8v.73L40.56,9l-.12.24-.13.36v.13l-.72.6h-.12v-.12l-.24.12-.13.12H39l-.24.24v.12l-.12.13L38.5,11h-.12l-.12-.12v.24l-.12.24-.13.24-.24.12-.12.12-.24.25-.24.24h-.12l-.25.24-.12.12h-.12v.37l-.12.24.12.12V13.2L36.8,13l.12-.24.25-.24h.12v.12l.24-.12.36-.36H38v-.25l.37-.24.24-.24.24-.12h.24l.13-.12.12-.12h.48l.24-.12.24-.25h.13l.24-.12.12-.12h.12l.12-.12.36-.36V9.56l.25-.12V9.32h.12v.12l.12.12v.13l-.12.24.12.12v.48l.12-.12v-.24l.12-.12L42,9.93V9.81l.12-.12h.12v.24l.12.12h.24l.13-.12.12-.12-.12-.12V9.56h.12L43,9.44V9h.24l.12.12L43.58,9l.12-.12L44,8.72h.48l.24.12.25.12.36.12h.24l.12.12.12.12h.12l.25.12.12.12v.13l.36.24v.12l.12.24.12.24v.24l-.12.13-.24.12-.12.12-.12.12h-.12l-.13.12-.24.36-.12.12-.12.13-.12-.13-.24-.12H45l-.25.12-.12.13v.12h.12v.12l.13.24H45v.12l-.12.12h-.25l-.36.24-.24.13h-.49L43.46,13h-.12l-.12-.12h-.36V13h-.12l-.13-.12-.12.12v.13h-.36L42,13.2l-.24-.12H41.4l-.24.12H40.8l.24.12h.61l.12-.12h.12l.24.12h.61l.24.12h0l.24-.12h.24l.12.12.12.12.13.12v.12L43.7,14h-.24v.25l-.24.12-.36.12h-.73l-.24-.12L41.53,14H41l-.12.12-.12.25-.24.12-.12.12-.13.12h.25v.36h-.12v.25l.24.12.12-.12v-.13l.24-.12.12-.12.37-.12.24-.12H42l.24-.12.12.12v.12h.24l.13.12v.12h0l-.25.25-.12.24-.12.24-.12.12-.36.24-.12.24-.37.61-.12.12-.12.24v.25l-.12.24V18l-.12.12v.36l-.12.25-.12.48.12.12v.48l-.24.13-.13.12.13.24-.13.12v.12l-.12.36v.25l-.24.12h-.12l-.12-.12v-.12l-.12-.13h0l.12-.12-.12-.12h-.36v.24h0v.13l-.13.12v.12l.25.12h.12l.12.12.12.24V22H40l.12.12.24.25.13.24-.13.12h-.12l-.12-.12-.24-.24v-.12h-.12l-.12-.13-.12.13v.12l.12.12v.24h-.12v-.12l-.12.12.12.12h.12V23h-.12l.12.12h.24l.12.12v.37l.12-.12.24-.12.13-.25h0l.12.12v.13h.24l.12.12.12.24v.12h-.12v.36l-.12.25.12.12-.12.24-.12.12v.24l-.12.12v-.12l-.12-.12-.25-.12-.12-.12h-.36v-.24l-.12-.12v-.13l-.12.13h-.12l-.12-.25H39l-.12.12h0l.12.13h-.36l.12.12h.12v.12h-.24l-.24.24-.12.12h-.12L38,24.94v-.12h-.12v.48l.12.12-.12.12h0l.12.13-.12.12-.24-.12h-.12v.12l.12.12H38v.36h.13v-.12h.24l.24.12h.24l.24.12.13-.12h.12v.36l.12.13h-.12l-.12.12-.13-.12H39l-.12.12h-.12l-.12-.12h-.24l-.24.12H38v-.12l-.12.12H38V27h.85v.12h.24l.13.12.12.12.12.12.12.24h0v.13l-.12-.13h-.12v.13l.12.24v.6l-.12.12-.12.37-.13.12h-.24v-.24l.12-.13-.12-.12h-.24l-.24-.24-.24-.12-.25-.24V28l-.24-.37h-.24l.12.12.12.25v.12h-.24L37.29,28l-.12-.12-.12-.13V28l.12.24.36.12h.24l.37.24.36.36v.25h-.12l-.12-.12h-.12l-.25.12-.12.12-.12.12-.24-.12v-.37h-.12v.25l.12.12v.12l.24.12.24-.12L38,29.3l.13-.12.24.12v.24h0l-.12.36V30h-.12v.13l.12.12v-.12l.24.12.24.12.24.12h0l.25-.12h.12v.36l.12.12-.12.24-.25.25-.24.12h0l-.12-.12-.12-.13V31l-.24-.24h-.24L38,30.63h-.48l-.12-.12-.12-.12h-.12l.12.12v.24l-.12.24h-.25l-.12.12h.12l.13.12v.13l-.13.24H36.8l-.12.12h.12l.12.12v.24h.13l.12.24-.12.25.12.12v-.24l.12-.13V32.2l-.12-.12V32l.12-.12h0l.12.12.12.12v.12l.12.12.12-.12h.12v.12L38,32.2h.37v.25l-.12.24-.12.12v.48l-.13.12-.12-.12-.24.12h-.12l-.12-.12h-.12l-.12.12v.13l-.12.12H36.8l-.12.12v.12h-.24l-.24-.12L36,33.54l-.25-.13-.36-.48-.12-.12v-.12l.12-.12h.12v.12h.12l.37.24.24.12h.36v-.12l-.12-.12h-.12v.12l-.24-.12-.37-.24-.24-.12h-.24V32.2h-.12l-.12.12v.13l-.12.36v.24h0l-.37-.48-.24-.37-.12-.12V32H34v.12l.12.12.24.37v.12l.12.12.12.12v.12H34.5l-.24.12-.12.12-.12.12H33.9l-.12.13h-.37l-.12-.13h-.12l-.12-.12h0l-.24-.24-.12-.12v-.12l-.12-.12h0v.12l-.12.12.12.12.24.12.12.12.12.25v.12H32.2l-.12.12v.12h.12l.12.12h0l.13-.12v-.12h.24l.12.12h.36v-.12l.12-.12.25.12.12-.12.12.12.12.12h.24l.12.12.12.12-.12.12h-.12L34,34.5l-.12-.12-.12.12-.24.12h-.25l-.24-.24h-.24l-.12.12h-.24l.12.12h.24V34.5h.12l.12.12-.12.13h-.12l-.24.12h0l.12.12.12-.12h.36v.24h0l.12-.24h.25l.24-.12h.12l.24.24h.24v.48l-.12.12h-.48l-.12-.12-.37.12-.12-.12-.12.12.12.12.12-.12h.25l.36.12V36l.12-.12.24-.13h.12l.24.13.13.12.24.24.12.12h.12v.12h.12l.12.12h.12l.12.24h.13l.12.12v.37l-.12.12-.13.12v.24l.13-.24.12-.12h.24l-.12.12v.12l.12-.12v-.12l.12.12h.12v.24H36.2l-.12.24v.25h0v.12l-.12.24.12.12h0l.12-.36.12-.24h.24l-.12.24v.24h.12v.24l-.12.12h-.12l-.12.12v.13l.24-.13h.12l-.12.13v.12h.12v.48l-.12.12v.61l-.12.12H36.2v-.24h-.12v-.13H36l-.12.13h-.13v-.13l.13-.24-.13-.24v-.12l.13-.12-.13-.12h0l-.12.12v.85l-.12.12h-.36L35,40.44l-.24-.13L34.5,40l-.12-.12-.12-.12v-.36l-.12-.25L34,39V38.5l.12-.12L34,38.26h0l-.24.12h-.12l-.12-.12-.37-.49v-.12l-.12-.12-.12.12h-.48l-.13.12-.12-.12-.12-.12v-.12l-.24-.24v-.12l-.12-.13v-.24l-.12-.12-.12.12.12.12v.12l-.24.13-.13.12h.37l.12.24.12.12-.12.12h-.24v.12h-.25l-.12-.12v.12l.25.12h.12l.12-.12h.12l.24-.12.12.12v.12h.37l.48.12.24.13h0l.12.12.12.24-.12.12-.12.12-.12.12h-.24l-.61.37h-.6L31.48,39v-.24h-.12v.36h-.49l.12.13h.12l.12.12v.12l-.12.12v.12h-.24V40h-.12l-.36.24h-.24L30,40.07l-.12.24-.12.13h.12l.37-.13h.48l.12.13H32.2l.12.12h0l.13.12h-.13l-.12.12L32,40.68h-.12l-.24.24h-.24l-.13.12-.12-.12L31,40.8l-.24.12-.12.12h.73l.12.12v.12l.12-.12.24-.24h.24l.12-.12.12.12h.49l.12-.12.36-.12.12-.12h0l-.12.12h.12l.13-.12h.12v.12l.36.24.24.12h.24l.25.12h.6l.24.12.25-.12h0l-.13.24-.12.13h-.36l-.12.12v.12h.12v.12l-.12.12L35,41.89h0l-.12-.12-.12.12V42h-.37l.12.12h0v.12l-.12.12-.12.12-.12-.12v-.12l-.12.12.12.12-.12.13H33.9l-.12.12h-.12l-.12-.12h0v.24l-.13.24L33.29,43v-.12l-.12.12-.12.12h.12v.12l-.24.24v-.12l-.12-.12h-.24v.12l.12.12v.12h-.12l-.25.12v.13h-.24L32,44v.12h-.12L31.72,44H31.6l-.12.12h-.25l-.12.12-.12.12-.12-.12v-.12l-.12.12-.12.12h0l-.12-.12h-.12v.12l-.12.12-.12-.12h0v0l-.13.12h-.24v.12l-.12.12-.12-.12h-.12v.12h-.24v.12l-.12.13h-.13l-.12-.13-.24-.24h0l-.12.12h-.12v.12l-.24.13H28l-.12.12H27.6l-.12-.12h-.12l-.12.12h-.12L27,44.92l-.12-.13.12-.12-.12-.12h-.12l-.13-.24v-.12L26.51,44v-.12l-.12-.13h0l-.12.25h.12v.24l.12.12.12.12v.24l-.12.12h.12l.13.25-.13.24-.12.12-.12.12V45.4h-.12l-.12.12-.12.24h-.24l-.12.12h0V46l-.13.13h-.12v.36l-.12-.12h-.12l.12.12h0v.12h-.36v.12l.12.12-.12.12h-.12l-.24.25-.12.12.12.24-.12.12-.13.12-.12.12h0l-.12-.12v0H24v.24h0v.12l-.36.25h-.12v-.12l-.12-.13h0l-.13.13H23v-.13h-.24l.12.13H23l.12.24v.12h-.24l-.24.24L22.4,49h-.25v-.12l.13-.12H22V49h-.12l-.24.12h-.12l-.12-.24v-.12l.12-.12v-.12h-.12v.24l-.12.12v.24h-.12l-.25-.36v-.12l.13-.24.12-.12h.12l-.12-.13h-.12l-.13-.24h-.12l-.12.12v.12l.12.13v.12l-.12.12v.12l-.12.24h-.12v-.24h-.12l-.12.12v.12l.12.24.12.12v.12h0l-.12.13-.12.12H20.1L20,49.52h-.13v.12l-.24.12v-.12l-.12-.12v-.13h-.12v.13l-.12.12h-.12L19,49.52v-.13h-.12v.13h-.25v.12l.13.12V50l-.13.24-.24.24h-.24v-.24L18,50.12l-.12.12v.12l-.24-.12v-.12h-.13v.12h0l.13.24-.13.13h0v.24h.13l.12.24v.48h-.25v.12h-.24l-.24-.12H17l-.12.12v.13l.24.12h.24l.12.12h.25v.24l-.13.12h-.12l.12.12h0V53h-.12l-.12-.12-.12-.13h-.12L17,52.66l-.12-.12h-.12l-.12.12v.12h.24l.24.13.12.12h.12l.12.12-.12.12-.12.12h-.36l-.24-.24V53h-.13l-.12.12v.24l.12.12.25.12v.24h-.12l-.13-.12h-.12l-.12-.12-.12-.12H16l.12.12.12.12.24.12v.25h-.24L16.1,54,16,53.87v-.12h-.12l-.12.12V54l.12.12v.12H16l.24.12h.12l.12.12h-.12l-.12.12v.12H16.1L16,54.6h-.36v-.24H15.5v.24l-.12.12h-.25L15,54.6h-.12v.24l.36.12h.25l.12.25.12.24H15.5l-.12-.12-.25-.25h-.24v.13H15l.12.12.25.12.12.24v.48l-.12.13h0l-.13.24h-.12L15,56.42h-.12l-.12-.12h-.12l.12.12.12.12h.24v.12l-.12.12h-.12l-.12-.12h-.12v.12l.24.12h0V57l-.12.12h-.12V57h-.24v.12h.12l.12.12v.12l-.12.13h-.24l-.13-.13H14v.13h.12l.49.12h.12v.24h-.12l-.36.12-.13-.12h-.24L14,58l.12.12h0v.12h.13l.12.12h.12l-.24.12H14v.13h.49v.12l-.12.12H14l-.12-.12-.24-.12v-.13h0l-.12.13-.24-.13v.13h0l.36.24.24.12h0l-.12.12v.12l.12-.12.12.12h.12v.12h0l-.12.12v.12Zm-.24,0h0l-.36-.24H13.2v.12l.24.25h.12ZM31,40.19h0v.12h.24l.49-.12.48.12.25-.24h.12l.24.12.24-.12.12.12.37-.24v-.6l-.25-.12V39h-.24l-.6.37h-.61l-.12.24-.24.12-.12.12-.25.12v.12ZM14.41,58.11h0l.24.12v-.12h-.24Zm1.21-2.54h0v.12h.12v-.12Zm.12-.36h0v.12h.12v-.12Zm-.12-.49h0v.12l.12.12h.36v-.12h-.36l-.12-.12Zm.84-.12h0l.13-.12v-.12l-.13.12Zm0-1.33h0v.12l.13.12.24.12H17l-.12-.12-.24-.12-.13-.12Zm1.34-2.54h0V51l.12.12v.24l.12.12.12.12L18,51.33l.12-.24L18,51l-.12-.24v-.12Zm1.09-.61h0l.12.12v-.12Zm.24-.24h.12l-.12-.12Zm1.81-.24h0l.13-.12h.12l.12-.13-.12-.24h-.12L20.94,49h-.12l-.12.12v.24l.12.13v.12Zm.73-.12h0l-.12-.13.12-.12-.12.12v.25Zm13.08-7.27h0l.12-.12h-.12Zm-2.3-1.94h0v.13l.24-.13h0l-.24-.12s-.13.12,0,.12Zm-1.09-.84h.24v-.12h-.12Zm2-.61h0V39l.13.12v-.24Zm1.34-4.11h0v.12h0v.24l.12.24.12.24.36.12.24.13.12.24.25.12h.12v.12l.24.12V36.2l.12-.12L36.32,36l-.24-.12h0L36,35.71v-.12l.12-.12.12.12.12.12h.36l-.12-.24-.48-.24L36,35l-.12-.12h-.25l-.24-.12h-.24v-.13h-.24Zm-.49.12h0l.12-.12-.12-.13.12-.12-.24.12v.13Zm.49-.49h0l.12.12h.36l.12.12.36.13.25.12h.24V35l.12.12h.48v-.36l.12-.13-.24-.12-.24-.12-.24-.12H36l-.49.12-.12-.12h-.6v.12Zm-1-.72h0l.24.12h.24l.24.36.37.12.36-.12.73.12.24-.12V34h-.85l-.24-.12-.24-.12h-.25l-.12-.12.12-.12h.13l.36.24.48.12h.12l-.12-.24-.48-.25-.73-.12h-.12v.12l-.24.13Zm3.51.48h0v.12l.12-.12V34l-.12.12Zm.12-3.27h0l-.12.36v.13l.12.12.12.12.24.12h.61v-.24l.12-.12V31L38,30.75l-.24.12Zm2.06-.12h.12l.24-.24-.12-.12h-.12l-.12.12Zm-.85-1.33h0l-.12.24v.24l.12.12.12.13h.12V29.9l.12-.12v-.12l-.24-.12ZM40,28.57h0v.49l-.12.24.12.24.12.12h.49l.12-.12v.12l.12.12.12-.24H41v-.36l-.12-.12v.36l-.24-.12-.12-.24v-.13l-.12-.24h.24v-.24h-.12l-.25.12H40Zm.24-3.51h0l-.12.24h0l.12.12v.12l-.12.13v.24l.12.24.12.36-.12.25V27l.12.12V27l.13-.24v-.49L40.31,26v-.85Zm-1.69.61h0v.12l.12.12h.12l.12-.12v-.25h-.24Zm-.24-.37h0l.12.12h.12v-.24h-.12Zm1.45-3.63h0l.12.24.24.12h.12v-.12l-.12-.12-.24-.24h-.12Zm1.45.85h0v.12h.12l.12-.12v-.37l.13-.12v-.24l-.25.24v.25Zm-.72-1.33h0l.12.12.12-.12v-.37l-.12.12Zm.24-.73h-.12l.12.12h0v-.12ZM41.53,18h0l.12.24v.12l.24-.24.12-.24v-.37l-.12-.12-.12.12v.25Zm-.61-3.15h0l.12-.12h.36l.13-.24v-.24l-.13-.13-.36.13-.12.36Zm2.3-6.17h0l.12-.12V7.75H43.1v.12l.12.12v.24l-.12.12Zm-.73.72h.12l.13-.12V9l-.13-.12L42.49,9l-.12.24Zm-.36-.6h.12l.12-.12V8.47l.12-.12V8.23l-.12-.12h-.12l-.12.24v.49ZM30.51.61h0l.12.12V.61l.12-.25L30.63.24h-.12V.61Zm.12.48h.12L30.87,1V.73l-.12.12h-.12Zm-1,0h0l.12.24.12.12H30l.13-.12.12-.12L29.9,1V.85L29.78.73h-.12V.85L29.54,1Zm-.6.24h0v.12h.24V1.33l-.12-.12Zm-3.27.85h0v.24H26l.24.36h.24V2.3l.12-.12V2.06h-.24l-.12-.24H26v.24l.12.12L26,2.3l-.12-.12Zm-.25.12h0l.13.36h.12V2.42l-.12-.12Zm-1.08,0h0l.12.12.24.12h.24V2.42l-.12-.12h-.12V2.18l-.12-.12-.24.12Zm-.61,2.06h.24V4.24L24,4l-.12-.25-.12-.12h-.12v.12l.12.25v.24Zm.24,2.18h0l.37-.12V6.17l-.13-.12V5.93l-.12-.12H24l-.12.24.12.12.12.25Zm0,.24h0v.48l.37.25.12-.13V6.9l-.25-.12-.12-.12Zm-3-2.18h0V4.48h0V4.36l-.13-.12h0v.24Zm-.49,1.33h0l.12.12.12-.24-.12-.24-.24-.24V5l.12-.36V4.24l-.12-.12V3.63l-.24.12v.61l-.12.24v.24l.24.49v.36ZM8.6,7.75h0l.12.12.12.24H9V7.87l-.12-.12ZM1.09,17.43h0l.12.12.36.13h.37l-.12-.13H1.69l-.24-.24-.24.12-.12-.12ZM0,17.43H0l.24.25H.48l.25.12L1,17.68l-.24-.25-.37-.12H.12Zm8.47,9.2h0v.13l.13.12v-.25H8.47Zm0,1h.25l.12.12h.48v.13l.12-.13-.12-.24H9l-.24-.12H8.6l-.13.12Zm.37.37H9v-.12Zm0,1.33h0l.12.12h.12l.12.12h.12l-.12-.12-.12-.12H8.84Zm-.24.6h.12l.12.12L9,29.9H8.84l-.12-.12Zm.36.85h.12L9,30.51v.24ZM9.2,31Zm-.6.12h0L8.72,31H8.6v.12Zm.24,0H9V31H9Zm0,.25H9v-.13H8.84Zm.12.36H9V31.6H8.72l.12.12Zm.12.24h0l.12-.12h.12l-.12-.12-.12.12V32Zm-.61.49h0l.13-.13H8.47l-.12.13Zm.25.36h0l.36-.24.24-.25V32.2H9.2L9,32.45H8.84l-.12.12-.12.12.12.12Zm.36,0H9.2l.12-.12v-.12ZM9,32.93h.12v-.12L9,32.93Zm-.24.12h0l.12-.12H8.6v.12Zm-.37.73h0V34h.12l.13-.24h.24v-.24l-.12.12H8.47l-.12.12Zm-.24.72h0l.12.12.12.13v-.13l-.12-.12ZM13,60.05h0l.25-.12.12-.12.12.12-.12.12H13Zm-1.09-.73H12V59h0l-.13.12v.24ZM11,57.87h0V58h.12l.24-.12-.12-.12h-.12Zm-.37,0h0V58h.12v-.12l-.12-.12ZM9.44,58h0v.12h.12v.12l.13-.12V58l-.25-.12ZM7.87,51.21H8l.12-.12.24-.24H8.23L8.11,51Zm0-.24h0v.12L8,51H8l.12-.12L8,50.73Zm-1-2.3h0v.24l.24-.12L7,48.67H6.9Zm-.12-.24h0l.12.12H7v-.12H6.78Zm.12-2.18h0l.24.12.12-.12H6.9ZM7,46H7l.12.13h.12L7.38,46H7Zm-.36,0h0v.13L6.78,46H6.66Zm.6-1.93h0l-.12.12h.24l.13-.12V44H7.38ZM9,43.34h.48v-.12H9Zm-.61-1.09h0l-.12.12.12.12.37-.12-.12-.12H8.35Zm.85,0h0v.12h.24l.12-.12-.24-.12Zm-.48-.12h0l.24.12.12-.12H9.2L9.08,42H8.72Zm1.93-4.36h0v.12l.12.12v-.24Zm-.12-.48h0l-.12.12.24.12h.12l-.12-.24Zm-.6-1.45h.12l.12-.25h.12l.12-.12h-.24l-.12-.12-.12.12-.12.12Zm0,.72h0v.12h.24l.12-.24v-.12l-.12-.12H9.93Zm-.73.12h0l.24.12.12-.24V36.2l-.24.12-.12.12ZM7.87,37.77H7.75l.12.24h.24v-.12L8,37.77Zm2.54,2.06h.12v.36l.12.12.12-.12V40l.25-.24h-.37Zm-2.54.73h0l.12.12h.24l.12.12.25.12.12-.12.6-.12h.24l.49-.37L9.93,40l-.12-.24H9.56l-.24-.12L9.2,39.1l-.12-.36-.36-.12-.25-.24H8.11l-.24-.12v.12l-.24.24V39l.24.12.12.13-.24-.13-.12.13v.12l-.12.24.24.12-.12.12H7.51l.12.24.48.12.12.12h.12l.37-.24-.25.37H8.35L8,40.31H7.87Z"/></g></g></svg>