<svg xmlns="http://www.w3.org/2000/svg" viewBox="0 0 65.62 63.44"><defs><style>.cls-1{fill-rule:evenodd;}</style></defs><g id="Layer_2" data-name="Layer 2"><g id="Layer_1-2" data-name="Layer 1"><path class="cls-1" d="M49.15,0h-.84L46.49,1.33l-.12,1.82L47,4.48l-1,.73-3.26-.13-1.46.61L40,5H38.5l-1,.85-1.45-.12-.24-1.21H33.9l-1.82-.36L30.75,5.45l-1.94.48-2.54-.12-.73-.36-1,.85-1.34.12L21.43,7.51l-3.75-.13-1.58.85L16,8.84l-2.06.72-3,1.94-.37,2.06L9.32,15.74l-3,1.09v1.69L5.21,20.7l-1,.61.12.12.12,2.18,2.78,2.06,1.58,2.18.72.24-.24.6,2.18,3L12,33.78l1,.36,1.34-1.57L15.38,34l1.81.24.73-1.09,1.21.12,2.06,1.21,1.21-.6.24,1h1l.72.6,1.7.24-1.21.73-1,1.09-1.09-.85-1.33-.36-3-1.94-1.33.37-1.21.84-1.33-.72-1.09,1.45-.85.24-.48,1.21,1.57,1.94,1.7.73L17,42l.24,1.09-.6.73v1.33L18,47l.85,1.09.48-1L19,46.25l.6-1.21.49,1.57,1.93.85.49,1.09-.24,1.33.84,1V48.79l.73-1.7h1.33l.49,1.34L28,49.88l-1-1.57.24-1-.85-1.46-1-2.54-1-1.33.12-.61.84-.12,1.7.85-.49.61.49.6.85-1,1.69.61.12-.61-.72-.48-.13-.61-.6-.24-1.21-.73.12-.72-1.57-1.21,1.45-.61h1.33l.85-.6,2.06,1.45.12.61,1.45.12.48-.85-1.33-1.82L32.45,35,32,34l-3.51-2.18-1.09-.36-.48-.85-1,.12-.73-.85-1.45-.12-1.45-1.33,1.57-.24,1-1.09-.12-.85-1.46-.36.85-1L24,24l1.21.49.85.72-.36.85.12.85.84-.25.49-1.69-1-1.21-2.3-2.91-1-.72-.24-1-1.7-1.45.61-.85-.36-3,1-1.45,1.94-.49.12,1.58h-.84l.24.72,2.3,1.09.24,1.82,1.45,1.21h1.7l-1.21-.85-.61-1.09.24-1.09,1.58.49,1.09,1.69,1.09.37.6-1L30.87,16l-1-.36v-.85l2.79.12,1.09,1,.48-.48-1.69-1.46L31,13.68l-1.45-1.57.85-1,1.45.48,1.21-.72L33.66,9l1.09-.49,1.69,1.34,1.21.12L39,8.47l.12-.72h.61L40.8,9h3l2.3.6,1.69-.48.85-1.7-.36-1.69,2-1.21.12-1.82-1.57-.6ZM32.32,58.72h0l-.48-1-.12,1.09-.49,1L31.36,61l1.09.48L35,61.14l1.09.24,1-.36,1.57.48,1.57,1,.25,1,1.81-.12,1.58-1,1.81.24,2.79-.12h1.81l1.09-.61.49-1.09-.25-1.08v-.61l-.36.61-.12.72-.85.73-.72-.49-.73.25-.85-.13.24-.72-.48-1H47l-2-.24-1.58-.73-2.06.12-1.81,1.09-1.33.37-1.22-.61-.48-.61-1,.13.61-.49-.49-1-1.21.12.24.61L35,58l-.49.36H33.41l-.24-1.09-.36-.12-.12.61.12.72ZM2.06,20.58h0L1.94,22l.84,1,1,.37.25.48-.37.24-1.21-.48L1,22.15v-.48l-.85-.24L0,20.58l1.33-.48ZM7.87,31.36h0l-.12-.61.72-1.21H9l.24,1.21-.48.61-.49.12ZM8,33.78H8V32l.85.73.48,1-.12.72.61.61.24.72.24.49-.48.72L9,36.44l-1.09-.12v-.85L7.51,35v.85l-.37.36-.72-.73V33.9l1-.24Zm2.78,5.32h0l.61.73-1-.12-.12.48L9.44,40,8.35,38.86l.25-.72.6-.37.85.49Zm47.1,16.59h0l-.24-.24.36-.73v.73Zm-.36,3.87h0l-.25-1.45-.48-1,.85-1,.24.85.6,1L58,59.44Zm4-4.48h0L61,54.6l.36-.85-.24-.24.12-.85L63,51.33l1.7-.72,1-.37L65.5,51l-.49.36-.36.85-.36.73v.48h-.73l-.73.73-.72.84Zm-10.17-5h0l-.72-.48L51,49l1.21-.36.6.24-.48.73-1,.48Zm-.12-10.77h0l1.21-1,.85.12,1,.73.24-.37.36.12.24.61-.84.36-.37.49-.72-.13-.73-.6h-.73l-.84.24Zm-2.54-8h0l.24,1.93-.24,1.21-1,.49-.85-.61v-.6l.61-.37V32.32l-1-.72v-.49l.85-.48,1,.36ZM46.61,27h0l-1.09-1,.61-1.09,1.69-.61.85-.48,1.57-.24.24.36-.24.85h.24l.37,1.09-.12,1.57-1.46.12-1.09-.48.49-.61.6-.48.12-1H48.31l-.37,1-.24.85-.61.24ZM42.74,13.2h0l.36-.49,1-.12,1,.24v.61l-.85.36Zm-3.27,3.87h1.21l.6.48.73-.72.73.36-1,1.09-.12,1.45-.85-.36h-.61l-.72-.48-.37-1.21Zm-3.63-6.42h0l.6-.24,1.09.49.12.84-1,.49L36.2,12h-.85ZM29.06,25.91h0l.36-.12.85.24.24,1-.24.48Zm-1.46,0h0l.61-.37.36.25-.48.72Zm8.6,1.69h0l.6-.24.61.73.73.24.12,1.33-.49.12-.36-.85-.36-.12ZM48.55,42h0l-.49-.61.25-.84,1.57-.25-.24.73ZM36.08,49.64h0l.72-1.09,1,.12-.24.72-.85.37Zm.6-4.72h0l.61-.49v1Zm-.24-1.34h0V42.25l.61.24v.73l-.61.36Zm-.85-1.81h0l-.24-.49.49-.48.6.73Zm6.9,4.48h0l-.72-.49.36-1.21h.73l.36.73ZM44.31,46h0l-.48-.84,1.09-1,.6.12.24.85L45,46ZM44,42.61h0V42l.6.24ZM41.77,40.8h0l.6-.24.73.6.12.73-.85-.36Zm-3.39-3h.72l.61.85,1.21,1.21v.85l-.61-.12L38.74,39,38,38.5Zm-14.17-9.2h0l1.09-.85,1.94-.36,1.09,1.21,1.33.49,1.33.72.12.37h1l.24-.25,1.82,1.82.61,1.09v.72l.24.73-.12,1.09,1,1,.48-.24,1.33.12-.6,1.45-.73-.36-.61.36-1.09-.73-.36-.72.12-.85-.6-.6-1-1.46-.36-.6-1,.12L30,32.08l-.6-1-.85-.24L28,30l-.73-.24-.36-.48-.61-.61H24.94ZM26.39,51h0l.24-.24.25,1,.84,1-.6,1.21-.73-.48v-.73L26,51.94Zm-.12-1.33h0l.49.6h-.61Z"/></g></g></svg>