<svg xmlns="http://www.w3.org/2000/svg" viewBox="0 0 65.62 68.52"><defs><style>.cls-1{fill-rule:evenodd;}</style></defs><g id="Layer_2" data-name="Layer 2"><g id="Layer_1-2" data-name="Layer 1"><polygon class="cls-1" points="32.2 68.52 33.29 66.71 33.41 65.13 36.44 61.87 40.31 61.02 43.1 60.17 43.1 58.48 47.34 55.33 49.27 51.09 48.55 48.3 51.09 45.64 55.21 41.4 57.51 41.53 61.98 38.98 63.08 36.2 65.13 34.75 65.62 33.41 64.41 32.33 61.5 31.96 60.65 33.9 58.23 32.2 55.93 32.2 54.96 30.51 53.15 30.63 52.3 30.02 50 29.9 50.48 0.48 50.36 0.48 22.88 0 22.28 8.35 15.62 8.96 17.92 10.9 18.89 12.47 21.31 15.62 23.85 17.31 25.67 17.31 26.88 19.37 27.24 21.67 28.33 22.88 30.99 23.12 32.69 24.09 32.69 26.15 31.11 27.97 10.9 28.09 1.45 43.1 1.7 45.64 1.94 46.37 1.7 48.06 2.3 49.27 2.79 49.64 2.66 51.09 1.21 52.18 0.6 53.87 0 54.36 2.66 57.51 4.6 60.65 6.9 60.9 9.08 63.56 17.43 66.71 22.4 66.83 26.15 66.34 32.2 68.52"/></g></g></svg>