<svg xmlns="http://www.w3.org/2000/svg" viewBox="0 0 60.77 60.17"><metadata><?xpacket begin="﻿" id="W5M0MpCehiHzreSzNTczkc9d"?>
<x:xmpmeta xmlns:x="adobe:ns:meta/" x:xmptk="Adobe XMP Core 9.1-c002 165.59ab891, 2024/09/18-09:57:10        ">
   <rdf:RDF xmlns:rdf="http://www.w3.org/1999/02/22-rdf-syntax-ns#">
      <rdf:Description rdf:about=""
            xmlns:xmp="http://ns.adobe.com/xap/1.0/"
            xmlns:xmpMM="http://ns.adobe.com/xap/1.0/mm/"
            xmlns:stEvt="http://ns.adobe.com/xap/1.0/sType/ResourceEvent#">
         <xmp:Label>Select</xmp:Label>
         <xmp:MetadataDate>2025-11-26T14:21:24-08:00</xmp:MetadataDate>
         <xmpMM:InstanceID>xmp.iid:b8b24d4e-89f8-42ae-a248-fb450697dc52</xmpMM:InstanceID>
         <xmpMM:DocumentID>xmp.did:b8b24d4e-89f8-42ae-a248-fb450697dc52</xmpMM:DocumentID>
         <xmpMM:OriginalDocumentID>xmp.did:b8b24d4e-89f8-42ae-a248-fb450697dc52</xmpMM:OriginalDocumentID>
         <xmpMM:History>
            <rdf:Seq>
               <rdf:li>
                  <rdf:Description>
                     <stEvt:action>saved</stEvt:action>
                     <stEvt:instanceID>xmp.iid:b8b24d4e-89f8-42ae-a248-fb450697dc52</stEvt:instanceID>
                     <stEvt:when>2025-11-26T14:21:24-08:00</stEvt:when>
                     <stEvt:softwareAgent>Adobe Bridge 2025</stEvt:softwareAgent>
                     <stEvt:changed>/metadata</stEvt:changed>
                  </rdf:Description>
               </rdf:li>
            </rdf:Seq>
         </xmpMM:History>
      </rdf:Description>
   </rdf:RDF>
</x:xmpmeta>
                                                                                                    
                                                                                                    
                                                                                                    
                                                                                                    
                                                                                                    
                                                                                                    
                                                                                                    
                                                                                                    
                                                                                                    
                                                                                                    
                                                                                                    
                                                                                                    
                                                                                                    
                                                                                                    
                                                                                                    
                                                                                                    
                                                                                                    
                                                                                                    
                                                                                                    
                                                                                                    
                           
<?xpacket end="w"?></metadata>
<defs><style>.cls-1{fill-rule:evenodd;}</style></defs><g id="Layer_2" data-name="Layer 2"><g id="Layer_1-2" data-name="Layer 1"><polygon class="cls-1" points="0 15.25 0.97 13.2 2.66 12.83 4.96 11.5 7.99 10.9 9.44 9.81 9.44 8.23 8.6 7.26 8.47 4.36 8.96 3.03 8.6 0.36 10.17 0 15.62 0.12 19.13 1.82 20.58 3.03 23.25 2.78 26.03 4 27.36 3.15 29.06 3.27 29.9 4.12 31.72 4.36 31.84 5.69 32.81 6.17 34.75 5.33 35.84 5.81 37.77 7.14 39.95 7.14 41.65 5.93 42.86 5.81 44.43 3.51 46.13 3.39 48.43 4.36 49.15 3.75 50.73 3.27 50.85 4.12 52.78 5.69 53.63 7.51 53.15 9.93 54.12 10.53 56.05 11.02 56.05 12.11 54.48 14.16 53.63 16.46 55.09 16.22 56.05 15.13 57.02 15.01 57.02 16.71 57.75 17.8 57.75 18.77 59.93 18.77 60.77 19.73 60.77 20.94 60.17 21.31 56.9 22.52 56.9 23.85 57.51 24.58 57.87 28.57 57.38 29.78 57.75 32.81 58.6 33.53 59.69 35.23 59.56 36.44 58.11 36.2 57.02 36.8 57.02 38.02 58.72 39.83 59.32 40.56 59.08 42.37 56.78 47.34 55.21 47.82 54.84 48.79 55.45 50.48 53.99 53.75 52.78 55.09 53.03 55.81 39.83 60.17 36.68 57.99 35.35 57.99 33.17 54.84 31.72 54.24 32.32 52.91 32.08 52.78 35.84 50.36 36.32 38.98 36.68 37.53 35.71 37.17 35.84 35.59 37.05 35.11 37.05 33.78 35.35 32.2 35.59 30.87 33.53 27.12 32.57 25.55 31.48 23.37 24.21 23.37 21.91 24.21 20.58 25.79 18.28 27.84 18.28 28.93 15.62 30.39 14.16 30.51 12.95 29.42 10.65 28.21 9.93 25.67 8.11 25.55 7.38 24.82 7.51 23.37 8.11 22.76 6.66 22.16 5.93 23.25 4.6 22.64 2.66 22.52 0.73 19.86 1.45 16.71 0.12 15.25 0 15.25"/></g></g></svg>