<svg xmlns="http://www.w3.org/2000/svg" viewBox="0 0 46.85 70.34"><defs><style>.cls-1{fill-rule:evenodd;}</style></defs><g id="Layer_2" data-name="Layer 2"><g id="Layer_1-2" data-name="Layer 1"><polygon class="cls-1" points="6.78 30.87 7.75 30.99 8.47 31.84 9.44 31.11 11.5 31.36 13.07 33.29 13.07 35.84 11.98 37.53 11.14 38.74 12.71 39.47 14.65 39.35 15.25 40.68 16.22 42.01 17.92 41.89 17.92 42.98 16.34 45.04 15.74 47.58 13.92 50.73 14.04 52.66 13.32 53.99 13.07 55.69 13.56 56.66 13.2 57.87 13.32 59.81 15.01 61.5 17.07 63.56 17.07 64.89 18.4 66.59 22.16 69.73 23.61 70.34 24.7 68.89 26.03 68.52 26.27 69.13 28.45 68.89 29.66 67.31 29.9 66.47 31.84 65.86 35.71 65.98 36.8 63.08 38.74 62.23 41.4 62.11 42.25 62.95 43.83 62.71 46.85 62.71 45.52 61.74 45.04 60.53 45.04 59.81 43.1 59.08 42.86 57.38 41.4 55.69 40.44 54.96 40.44 53.03 39.71 50.24 39.35 48.91 38.62 48.3 37.41 48.3 36.32 47.34 36.32 46.13 35.23 44.67 34.87 43.7 33.78 42.49 32.2 41.52 31.96 40.44 33.53 36.56 33.66 34.5 34.87 32.2 37.05 32.2 38.74 31.36 40.07 29.78 40.07 28.45 40.44 26.63 40.44 26.39 40.44 26.39 39.95 24.58 39.95 22.28 39.35 20.82 35.84 19.98 32.81 16.83 31.11 15.5 30.02 15.98 28.09 16.71 26.88 18.16 26.39 19.86 26.15 17.68 26.51 14.77 27.12 13.07 26.15 10.05 24.82 8.96 21.07 6.66 18.64 4 18.4 2.42 16.71 0.73 15.01 0.36 14.41 0 14.16 0.97 11.38 4.24 9.44 5.69 8.11 5.57 5.57 8.6 6.29 9.81 6.9 11.86 9.44 11.98 10.9 13.2 10.9 15.38 7.99 16.71 6.29 16.1 5.08 16.83 3.63 16.1 2.3 17.55 1.94 20.34 0 22.16 0.97 24.45 3.27 27.84 6.78 30.75 6.78 30.87"/></g></g></svg>