<svg xmlns="http://www.w3.org/2000/svg" viewBox="0 0 65.62 54.72"><defs><style>.cls-1{fill-rule:evenodd;}</style></defs><g id="Layer_2" data-name="Layer 2"><g id="Layer_1-2" data-name="Layer 1"><path class="cls-1" d="M55.69,51.94l-.36-2.55,5.57-5.93.24-2.78.24-3.88-2.18-5L59.81,30l3.75-1.81L65,23.12,63.2,19.49,65.62,15l-.73-2.3-.12.12-4.12-1-4.11.85-4-4.11L42.61,7.39l-2.9,1.69-4-1.33H26.88l-1.34,2.54c.25,0,4.73,2.66,4.73,2.66l12.47,4.24-1.34,2.3,1.7,3.75-1.7,5.94,2.18,4,4.36,1.21L53,38.86l-1.21,2.91-9.57-.37-1.81,1.34-4.12-1.09-5.57.48-4.84-2.06-5.69,2.42-.37-2.42-2.05-.84L10.65,41,6.78,37.41,1.82,40,0,42.74l1.69,3.87,5.57.73L13,53.87l2.55.85.48-4,2.54-2.06H28.81L33.17,51,46,51.33l2.31-1.45,3.87,1.81ZM37.53,2.42h0L41.77,0l8.11,4.72L41,4.84ZM28.81,31.36h0l4-2.06,4.6,3.39,1,3.51-6.54-2.3Z"/></g></g></svg>