<svg xmlns="http://www.w3.org/2000/svg" viewBox="0 0 65.5 31.72"><metadata><?xpacket begin="﻿" id="W5M0MpCehiHzreSzNTczkc9d"?>
<x:xmpmeta xmlns:x="adobe:ns:meta/" x:xmptk="Adobe XMP Core 9.1-c002 165.59ab891, 2024/09/18-09:57:10        ">
   <rdf:RDF xmlns:rdf="http://www.w3.org/1999/02/22-rdf-syntax-ns#">
      <rdf:Description rdf:about=""
            xmlns:xmp="http://ns.adobe.com/xap/1.0/"
            xmlns:xmpMM="http://ns.adobe.com/xap/1.0/mm/"
            xmlns:stEvt="http://ns.adobe.com/xap/1.0/sType/ResourceEvent#">
         <xmp:Label>Select</xmp:Label>
         <xmp:MetadataDate>2025-11-26T14:21:34-08:00</xmp:MetadataDate>
         <xmpMM:InstanceID>xmp.iid:f250fb12-e24a-4774-97df-573b5dc42ab2</xmpMM:InstanceID>
         <xmpMM:DocumentID>xmp.did:f250fb12-e24a-4774-97df-573b5dc42ab2</xmpMM:DocumentID>
         <xmpMM:OriginalDocumentID>xmp.did:f250fb12-e24a-4774-97df-573b5dc42ab2</xmpMM:OriginalDocumentID>
         <xmpMM:History>
            <rdf:Seq>
               <rdf:li>
                  <rdf:Description>
                     <stEvt:action>saved</stEvt:action>
                     <stEvt:instanceID>xmp.iid:f250fb12-e24a-4774-97df-573b5dc42ab2</stEvt:instanceID>
                     <stEvt:when>2025-11-26T14:21:34-08:00</stEvt:when>
                     <stEvt:softwareAgent>Adobe Bridge 2025</stEvt:softwareAgent>
                     <stEvt:changed>/metadata</stEvt:changed>
                  </rdf:Description>
               </rdf:li>
            </rdf:Seq>
         </xmpMM:History>
      </rdf:Description>
   </rdf:RDF>
</x:xmpmeta>
                                                                                                    
                                                                                                    
                                                                                                    
                                                                                                    
                                                                                                    
                                                                                                    
                                                                                                    
                                                                                                    
                                                                                                    
                                                                                                    
                                                                                                    
                                                                                                    
                                                                                                    
                                                                                                    
                                                                                                    
                                                                                                    
                                                                                                    
                                                                                                    
                                                                                                    
                                                                                                    
                           
<?xpacket end="w"?></metadata>
<defs><style>.cls-1{fill-rule:evenodd;}</style></defs><g id="Layer_2" data-name="Layer 2"><g id="Layer_1-2" data-name="Layer 1"><polygon class="cls-1" points="22.64 31.72 24.33 31.48 26.75 31.23 27.48 29.78 27.72 27.24 27.72 25.91 27.48 24.09 30.51 23.73 33.78 21.91 36.08 22.28 37.29 23.37 38.26 23.12 39.59 23.61 40.19 22.52 42.25 21.79 44.19 19.86 45.16 19.37 45.28 18.28 46.85 15.86 48.67 15.86 49.03 14.04 49.88 14.04 51.21 15.01 51.57 15.86 53.27 15.62 54.6 15.98 54.96 14.77 56.66 14.65 58.35 13.44 59.69 12.83 60.05 11.5 60.9 11.02 61.99 11.02 62.47 11.86 63.8 11.62 64.89 11.5 65.5 10.78 65.01 9.81 62.71 7.99 60.53 7.02 60.41 7.38 61.26 9.08 59.2 8.96 56.66 8.72 55.57 7.87 53.75 7.75 52.18 7.75 52.54 6.9 53.87 6.54 53.75 5.69 54.6 5.45 56.17 5.81 58.72 6.54 59.08 6.3 57.26 4.84 54.96 3.51 53.27 3.39 51.57 3.75 50.48 3.27 50.12 4.48 48.79 3.51 44.55 3.15 40.31 2.91 38.14 0.97 36.08 0 35.59 1.21 36.44 1.82 34.87 2.42 33.78 3.15 32.2 2.54 28.93 3.39 24.82 3.03 19.01 3.15 16.46 4.6 15.25 3.63 14.89 4.48 13.68 5.33 12.95 7.02 10.29 8.72 8.72 8.6 6.17 11.26 4.6 12.83 5.08 14.53 4 17.19 1.33 19.13 1.21 19.49 1.21 20.22 1.09 20.22 0 25.42 1.45 27.6 2.3 27.6 5.57 29.06 8.72 30.75 9.2 29.9 7.75 29.18 8.47 28.69 10.17 28.81 11.74 30.75 12.71 31.72 17.19 31.72 18.52 30.02 18.04 29.06 18.64 28.45 19.73 29.06 20.22 29.66 21.07 29.66 21.43 29.06 22.28 29.42 22.28 30.63 22.64 31.72 22.64 31.72"/></g></g></svg>