<svg xmlns="http://www.w3.org/2000/svg" viewBox="0 0 65.62 42.61"><defs><style>.cls-1{fill-rule:evenodd;}</style></defs><g id="Layer_2" data-name="Layer 2"><g id="Layer_1-2" data-name="Layer 1"><polygon class="cls-1" points="42.62 36.56 44.91 34.14 46.85 33.66 47.94 31.6 50.97 31.84 53.03 29.9 52.91 27.72 57.02 21.67 59.32 14.65 61.74 10.29 64.41 9.81 65.62 7.26 64.53 4.48 61.62 2.54 58.96 0 56.42 1.7 52.91 0.85 48.3 1.21 45.64 0.36 41.89 0.73 39.95 3.75 37.89 5.45 37.65 7.51 34.38 4.24 30.63 7.26 27.48 8.35 27.12 10.53 21.07 11.14 17.19 12.35 13.2 11.62 5.57 7.26 5.81 8.84 6.17 11.14 5.69 13.44 0.73 13.32 0.24 14.29 2.3 16.71 1.33 19.25 1.09 21.43 2.3 23.61 0.6 25.79 0 26.03 2.91 29.3 3.39 33.05 5.33 33.41 10.05 37.89 12.47 38.74 14.29 40.19 20.22 41.16 24.33 42.62 26.15 40.31 27.36 41.04 28.93 39.23 31.6 37.89 33.53 38.26 34.14 37.17 36.92 34.87 38.62 35.47 41.04 35.96 42.62 36.56"/></g></g></svg>