<svg xmlns="http://www.w3.org/2000/svg" viewBox="0 0 65.62 41.4"><defs><style>.cls-1{fill-rule:evenodd;}</style></defs><g id="Layer_2" data-name="Layer 2"><g id="Layer_1-2" data-name="Layer 1"><path class="cls-1" d="M23.12,41.4l-.48-1L23,39.35l.73-.12L24,40.8ZM19.61,35h0l1.58-.61L21.07,36l1.57,1.69,1.21.61,1.21-1.09,1.33.12,2.42,2.3,3-.12,1.21.48,2.06-.6-.24-1.58.48-.72.36,1,1.58.37L39,36.8V35l1.94-.12-.61.84.49.73.6-.73,1.09-.24,1.34-1.69.72.36L45,34h1.21v.48l.6-.48L50,31.36l1.21-1.58,3.63-.72.73-1-.36-.61.24-1h.6l.37,1.09,1.81.73,1.09-1.21.24-.85-.48-.6.12-.85.85-.24-.61-1.82.61-.73,1.21.73L61.5,24l1.21-.24.85-1.45-.36-1.34-1.34-1.45L61.74,18l.85-.73L62.47,16l1.33-.6h1.09l.73-1.09-1.21-1.22-3-.24-.85.73.73-1.33L61,11.14,59.44,11l-.48.36-.49-1.33,1-1.33,1.21-.37-.24-1.93-.72-.37-1.09.73L57.39,6.3,56.9,5l1.33-.6.12-1.09L59,2.66l1.45-.36L59,1.69l-1.21.25-2.3,2.3L55,5.45l-.84.12-1-1.45.6-.85L53,2.54l-.25-1.33L51.45.85l-1.21.72-.85-.48-.72,1.33.6,1.33-.6,1.09L47.22,5l-1.34.61-.12-1.21L45,3.87l-.85,1.21L43.34,6.9H41.89L40.56,4.48l-1.09.24L39,4.36l-1.09.12L37.41,6.9l1.33,2.66-1.57,3.76.48-3.27L36.2,7.87V6.78l-.49-.61.13-1.57-1.46-.85-2.9,1.82L31,7.26l.61,1.21-1.21,1.94H29.18l-.25-2.18-1-.48-.25-3-1-.72L24.94,5.45l.24,3.39.73,1.09-.12,2.3-.85,1.21H23.61v-1.7l-1.46.73-.6,1.69-1,.61v2.42l-1.09-2.3-1-.12.12-1.21,1.09-1.33V11.14H18.16l.61-1-.85-1.7L19,9.08l1.21-1.21L19.85,7l-1.33-.6,1.21-1L18.52,4.24,17.8,5l-.73-1.21-1.82-1V1.45L14.53.12,13.2.48,11.62,0,9.44.12,9.2.73l.61,1,.84-.12L10.9,1H12l.84.6,1.09.37-.48.72L12.11,2.3H10.77l.13.48,2,1.34,1.34,1.57-.37,1.09-.6.12V6.05L11.74,5l-1,.85-.84-.24.36-.85L9.08,3.15,7.75,2.54l-1.09.61,1,1.45-.25.73L6.54,4.12,5.33,3.75,5,4.6l.85,1.09.85.48.48.73L5.81,6.42,4.48,6.9l.85,1.21,1.93.49-1,.24-.37.36.37.85-.49.12L3.75,8.23,3,8l-.61.85.85,1.69.6,1-.6.24L2.06,10.05.85,9.69,0,11.14l1.57.6L2.78,13.2l1.82.24,1-1.45,1.57-.37.73-1.33.48.73v.72h.73l1-.6.36,1.45H11l1.09-1,.36-.72.12,1.45h.49l1.57-1.21-.12.6L14,13l.61.49,1-.85,1.57,1-.85.36H15.5l-1,.73-1.21.12-1.94.85-.12.6,2.42.61L15,16.71l.61-1,.84-.36-.12,1.21L15.5,17.8,13,18l-.84-.24L10.9,18.89l-.61-.73-.36-.36v-.61L9.08,17l-.24.36.36.61L8,18.64l-.85-.36H5.93L4.6,19,3.15,18.4l-1,.37-.73-.13,1,1.58L3,21.55,5,21.67v-.48l2.3.72,2.79-.24,1.57.12v.73l-1,.6-.12.73,1.33,1,.37,1,.85-.12,1.81-1.34-.24,1-1.33,1-.73,1.09,1.09.85,2.06-1.7,1.57.49.37.84-1-.48-1.46.48-1.09.85-1.33.12-.12,1-.6.85-.85-.24-1,.6-.36-1L8.6,29.18v.72H8.11l.24,1.7.73.36-.48.36-.25,2.43h1.7l.48-.61,1.21.73,2.42.24,1.7-1.33,1.45.84,1.21-.72.25.85Z"/></g></g></svg>