<svg xmlns="http://www.w3.org/2000/svg" viewBox="0 0 65.5 64.04"><defs><style>.cls-1{fill-rule:evenodd;}</style></defs><g id="Layer_2" data-name="Layer 2"><g id="Layer_1-2" data-name="Layer 1"><path class="cls-1" d="M20.94,1.82l.25.36v.36l.6.37-.12.84.24.49-.12.24.24.24.37.36v.37h.12l.24.6.48.25.25-.49H24l.24.24.61.12.36.49.36.12.37.6h.36l.12.37h.12V8.6l-.36,1.21v.72l-.48.85.12.61h.48l.36.36h.49l.36.24.85.24,1.09.73.73.85.84.24.49.36h.6l.73.49L34,15.38l.36.36,1.21-.36,1.21.24.12.72.61.49,1.21.36.49-.24H40l2.06.73.48-.37.85.49,1.45-.25L45,16.46l-.49-1,.24-1.09-.12-.49h0l.37-.36h.6l.24.48v.49l.49.36h0v.49l-.12.48.36.73.85.12.24-.25,1.21.73h.61l.48-.6.48-.13.49.25.85-.25.6.13,1-.37v-1l-.73-.36v-.48l.12-.61H53l.84-.12.49-.12.24-.49.24-.24.37.12v-.36l.6-.12.12-.48.37-.49.48-.12.85-.12.6-.73-.12-.48.36-.12L59,9.56l.48.61.61-.12.85.24.24-.24V9.69l1-.61.36.12.24.36.37-.12.12.25-.37.6.12.36h.37l.24-.12.12.37.36.48v.24l-.36.49.12.36h.49l.24-.12.48.24.49.48v.37l-.37.36v1.09l-.36-.24-.36-.36-.73.48L63,15l-.24.61-.6.72-.49.12-.72,1.22-.13.6.25.24-.37,1-.6,1.09v.24l.48.37-.48,1.21-.12,1-.49.84h-.6l-.37-.12H58l.24,1.09v1.45h-.48v1.22l.12.48-.36.73-.25.12-.12-.12-.12.48v.24l-.12-.12-.12-.12V29.3l-.12-.24-.12-.37-.24-.6-.13-1-.12-.36v-.49l-.24-.6-.12-.37-.12-.24-.49.12-.24-.24-.24.12.12.24-.12.24v.25l-.24.36.24.12-.12.36h-.24l-.37-.48-.36-.36-.12-.25-.24-.12-.24-.72v-.24l.24-.13.12-.36.36-.24.24.12h.25l.12-.24v-.24l.36-.13.24-.84.12-.49.25-.48L55,21.31l-.36-.49-.24.12-.24-.12H50.73l-.49-.12h-.48l-.37-.24v-.24l-.24-.61v-.24L49,18.89l-.36-.61h-.24v.24l-.49-.24L47.7,18l-.24-.24h-.24l-.13.24.37.24-.24.12-.49-.12-.36-.36v-.24l-.24-.37L45.88,17l-.12.36h-.24v.37l.24.24-.12.6-.48.49-.12.48,1.09.49.48-.25.61.12-.13.25.13.6-.37.24-.24-.12-.36.25-.12.6-.49.12v.85l.49.73.6.24.61.6v.85l.24.61-.12.36.12.73.73,1v.61l.12.36.12.73-.12.12.24.48-.24.49L48.06,30v.37l-.24-.24-.24-.49v-.24l-.12.12v.36l-.12-.12-.12.12h-.37V30l-.36-.12-.12-.6.12-.37-.36-.36h-.49l.12.12.24.12.13.25-.13.12-.12.24v.36l-.36.37-1.45.6-.24.24-.13.24-.24.49.12.36.25.49v.12H44l-.49.48-.12.49H43.1v.24l-.85.6v.37l-1.33.6-.12-.12v-.24L40.68,35h-.12l-.37.24-.24.12-.12.61.36-.12.12-.25.25.12L39,37.17l-.48,1.09L36.44,40l-.36.61-.49.48-.84.24-.61.61-.12.48.12.49-.36.6-.61.37-1-.25-.48.49v.48l-.61.73h-.36l-.24-.36h-.24l-.73.84-.24.37V47l.36,1.21-.36.37.12.6V51l.48.24L30,52.3l-.48,1.57L28.93,55v.85l.25.36.12,1.94v.61l-.49.12-.12-.12-.72.12-.25.48.13.12-.61.85-.12.24v.24l.73.49.12.12v.12l-.12-.24-.37-.12-1,.36h-.12l-.85.36-.24.37v.24l-.12.12.12.24-.24.61-1,.6-.72-.12-.73-.48L22,62.59l-.84-1.69-.12-1-.25-.85-.48-1v-.48H20.1l-.25-.73-.12-.73L19,55.33l-.37-.61H18.4L17.8,54l-.25-.61-.24-.12-.12-1L17,51.82l-.36-1-.13-.73-.24-.6L16,49.15l-.12-.84h-.12l-.61-.73v-.24H15l-.6-1V46l-.25-.12-.24-.72-.36-.24-.36-1V42.61l-1-1.93v-.61l-.49-.72h.49l-.73-.85.12-.49.24-.12-.24-.36v-.36l-.72-1.33-.13-.73.49-.24-.36-.25-.13-.36.25-.6v-.61l-.25-.73-.24-.12-.24-1.09.61-.36.12-.24h.36L11,30.39l-.61.12h-.24V30l-.12-.36v-.48l.12-.12.36.12.37-.37.12-.36-.37.36-.24-.24-.6.12-.12-.36-.13.24v.49L9.2,30l.36.37-.12.84-.36.37v.24l-.73.36-1.21.85-.6.12-.85-.12L3.87,31.6l-.72-1v-.24l-.24.12-.25-.24-1.09-1-.12-.37.12-.24h.37v.12l.36-.12v.49l.36.12.25-.24H3l.24.12.12-.12,1-.85H4.6l.48-.61h.13l.12-.48H4.84L4.72,27l.12.24-.12.12-1,.49H3.27L2.78,28l-1.45-.61-.72-.73-.37-.12V26l.49-.61.48-.24-.6.12L0,25.67v-.61l.48-.24.37-.12L1,24.09l.36.12L1.69,24l1.7.12.85-.36.24-.24L5,23.37l-.12.36L5,24l.61-.36.36-.12-.12-.25v-.36l-.48-1.45-.49-.61L5,20.58l-.24-.36-.48.12-.73-.49-.12-1V18.4L3,17.68H2.66l-.24.12-.6-.25H1.45v-.48l.37-1L2.18,16l.6-1,.13-.36.36-.24.36-.25.49.25.12.48L4.6,15l.85-.48,1.21-.12.72-.85.49-1.33L9,11.5,9.2,11l.12-.85.49-.73.72-.36.24-.48V8.11l-.24-.24.61-.73.36-.24.12-.6.12-1.22-.24-.84-.12-.12.73-.73.48-.12L13,2.91l.37.12.6-.73.61-1.09.72-.73h.61L16.1,0h.49l1.33.85.6-.37.73.25.24.6h.61l.84.61ZM47.46,30.27h0v.36l.12-.12ZM47.22,30h0l-.25.13.12.36.13.12V30Zm-.61.13h0v.48l.24.12v-.36Zm-.73.12h0l.12.24h.13l.24-.61-.24-.24Z"/></g></g></svg>