<svg xmlns="http://www.w3.org/2000/svg" viewBox="0 0 65.5 26.03"><defs><style>.cls-1{fill-rule:evenodd;}</style></defs><g id="Layer_2" data-name="Layer 2"><g id="Layer_1-2" data-name="Layer 1"><path class="cls-1" d="M65.5,13.68,65.38,19l-.13.36v.24l.13.12-.13,3.51h-.12l-.36-.12-.36-.48-.12-.24h0L64,22.15,63.92,22l-.12-.24.12-.24v0l-.24.12h-.36l-.24.12h-.25l-.12-.12-.36.24-.12-.24.12-.12.12-.24v-.24l.12-.37h-.24l-.12-.24h.24l.24-.12H63l-.24-.12-.24.12-.24-.12L62,20v-.13h.36l-.12-.12-.37-.36-.24-.12-.12-.12.12-.36-.36-.37v-.12l.36-.24-.24.12L61.14,18l.12-.12-.12-.12.12-.25-.24.13-.12-.13h-.25l.25-.36-.25.24h-.24l-.36-.24L59.93,17l-.37-.12h-.24l-.85-.24-.84-.25h-.49l-.36-.24V16l-.12-.12h-.24v-.24h.36l-.24-.12-.24.12h-.25l-.12-.12v-.12l-.12.24-.12-.37h-.24v.13l-.12-.13-.12-.36-.13-.36.13-.24V14l-.13.25-.12.24v.24l-.12.12-.24.36v.25l-.24.36h-.61l-.12-.48v-.25h.12v-.36h-.24l-.12-.12-.12-.36L53,14.16h-.37V14l.12-.24h.37l.12.12h.24l.24.12L54,13.8l.12-.24.24-.12.36.24.24.24.12-.24.13-.24h.12l.12-.24L55.33,13H54.6l.12.12h-1l-.12.13-.24-.13h-.48l-.25-.24-.12-.36h0l-.12-.36-.36-.25-.12-.12-.12.12-.25.13h-.36l.12-.25.36-.24v-.12l-.12-.24.25-.12h.36l.24-.25h.12l.37-.36.12-.12h.48l.73.24.48.24h.49l.48.13v.6l.24.12.12.37-.24.24-.12.24.12.36v.61l.12.36.24.24h.13l-.13-.36.13-.12.24.12v.24l.12.24h0l.12.25.36.24.12.12h.25l.24-.12.12-.24.12-.12h.12v-.37l.24-.36h.25l.24-.12L59,13.2l.12-.25.12.12h.12l.24-.12h.49v-.24l-.12-.24v-.12l.72-.49H61l.24.25.48.24.49.12.24.24h.24l.37.12.84.37.24-.13.13.13h.6l.24.24v.24h.37Zm-17-4h0l.6.24v.24l-.36-.24Zm2.9.6h.37v-.24l-.37-.24H51l-.24.24h-.37l.12.12-.24.12h.49l.24.12h.24v-.12L51,10.17v-.12h.12Zm-.48.85h0L50.73,11l-.37.12H51Zm.24-.24h0l-.12.24L51,11Zm-.12.24h0l-.24.24v.36h.48v-.48Zm-7.87-6.9h0l.24.24.12.36L43.46,5l-.24-.24-.12-.36Zm1.7-1.09h0l.12.36v.24h.12l.12-.24V3.15L45,3Zm0,.72H45l.12.25H45l-.12-.25Zm2.3,2.67h0l.12.36.12-.12h.24l.24-.12-.12-.24-.24-.12-.12.12ZM47,10.29h0l.12.36.37.37.12.12-.12.12-.12.12v-.24L47.09,11l-.24-.49-.24-.12-.24-.36.12-.24V9.44l-.24-.24V9l.12-.24-.12-.25L46,8.23l.13-.36.24-.12-.12-.37L46.37,7l.48-.48H47v.24L46.73,7v.12l.24.12v.49l-.12.36h-.24l-.12.12.12.24h.12l.12-.24.24-.12L47.22,8h-.13V7.75l.49-.12.36-.25.24.25v.12l-.24.6-.48.12-.24.25.12.12.24.12.36.24v.12l.12.12h-.24l-.24-.12h-.36L47,9.2l-.24.12v.49Zm-1.21.61h0l.12.24L45.64,11l.12-.12Zm0-.49h-.12l-.12.24h.24v-.24Zm.24.12h0v.24l.13.25h.24l.12.12.12-.12V10.9l-.24-.13v-.12l-.12-.12Zm0,1.7h0l.37-.37h.36l.36.37-.12.24h-.6l-.24-.12Zm4.12.12h0l-.6.12-.13.12.13.12.48.12.36-.12-.12-.12v-.12ZM47.7,15.13h0l.12-.12v.12l-.12.12Zm-.36,0h.24v.12h-.12Zm-.73.12h0l.36-.12.12-.12.13.12-.13.25v-.13l-.24.13Zm-.12-.84h0l-.12.12h.12Zm.36-.37h0l-.24.12v.13l.24-.13Zm.12.85h0l.25-.36.12.24.24.12h.24l.24-.24h.12l.25.24L49,15l.12-.24h.24l.61.36h.24l.24.37h.37l.12-.25-.12-.6-.73-.36-.6-.13-.25-.24h-.36l-.24.24h-.24L48.18,14h-1l-.13.12-.12.25h-.24v.48Zm-2.9-.48h0l.36.12.12-.12h.61l.36.12v.24l.24.24v.24h-.24l-.24.25h-.73l-.12-.12-.36-.13L43.83,15v-.36ZM36.2,20.34h0l-.12-.12-.12.12.12.12ZM36,18.28h0l.24.49-.12.24-.12.24v-.12l-.12-.24v-.37Zm7.87-5.45h0v.24l.24.37v.12L44,13.44l-.12-.37L43.7,13Zm-.73-.36h1.09l.24.12h-.36l-.61.12h-.24v-.12Zm-1.45,0h0l.24-.12h.6l.12.12.25-.12H43v.24h-.24l-.25.12h-.12l-.36.12h-.24l-.12-.12ZM39.1,17.8h0l.25-.49.12-.36.12-.49.12-.12h.12v.25l.12.24V17l-.12-.12V17l-.12.12-.12.12v.12l.24.12.12.12-.12.13h-.24l-.12.36H39.1Zm-.6-.37h0v.12l.12.13h.24v-.13H39v-.24l.25-.24V17l-.13-.24-.24.12-.24.24.12.12Zm-.61-.12h0v.12l-.12.12.12.37H38l.25-.12-.12-.37L38,17.19l-.12.12ZM40,12.59h0l-.24.12.12.12.12-.24Zm.24-.12h0l-.12.12h.24Zm.49-.36h0l-.24.12.24.12Zm-1.21-.25h0l.24-.24h.48v.12l-.12.25.24-.13.13-.12.12.12v.25h-.37l-.12.12-.24-.12-.12.12-.24-.12Zm-1.58-1.45h0l.25.12v-.12Zm-.12.12h.12l.12.12h-.12ZM36,9.2h0l.36-.12.36.24h.49l.48-.24H38l.13.24h.24l.24-.12h1.21l.24.12.12.12.25.12,1.09-.24L42,9l.12-.24h.12l.24-.25.12-.12.13-.24L42.86,8,43,7.87l-.12-.12V7.51l-.37-.13-.36.13v.36L41.89,8v.12l-.36.24H41.4l-.24.25-.24.12-.73-.25h-.6l-.12.13h-.12l-.25-.25h-.72L38,8.23l-.24.12-.12-.12L37.29,8l-.37-.12L36.68,8v.24l-.24.12-.12.25-.24.24-.37-.12h-.24L35.23,9l.12.12L35,9.32v1.33l.12.37v.24L35,11.14V10.9h-.24l-.25.24-.12.12-.12.36.12.24-.12.25v.72l-.12.24L34,13.2v.36l-.36.24-.12.36.12.13-.12.12.12.48.12.24h.36l.12-.12h.12l.12.37.25.72-.13.12v.37l-.24.24V18h.12l.25.12L35,18l.24-.12.24.12.24-.12.13.12.12-.12-.12-.37-.13-.12-.12-.36.25-.24v-1l-.13-.12.25-.36.12-.37L36,14.53l-.12-.12v-.12l.24-.25.12-.12.36-.12.24.12V14l.12.25v.24l-.24.36-.12.24.24.25h.12l.25.24.24.24.12.24h-.12l-.12.49.12.24.24.12h.12l.37.12.24-.12h0l-.12-.24.24-.25.24-.12.36-.12h.37l.12-.12H40l.12-.12v-.12l-.36-.12-.12.12-.12-.12-.24.12-.13-.24H39V15.5l-.12-.12-.12.12v-.12l-.24-.13v-.12l.12-.24v-.12l.12.12v-.24h.12v-.12l-.12-.12-.24-.12.12-.13V14l-.24-.24h-.24v-.24l-.37-.36L37.53,13l-.24-.24.12-.12h.12v.12h.24l.24-.12.13-.12.48-.24.48-.37.13-.24.36-.24v-.12l.24-.12.24.12.24.12.25-.36v-.25l-.37-.12h-.6l-.24.25h-.49l-.12.12-.24.24H38l-.24-.12L37.53,11l-.36.36-.12.48-.37.13h-.24l-.12-.13L36,11.38l-.37-.24-.12-.61v-.48l.24-.61ZM36.2,0h0l-.12.24.12.12.12-.24Zm.36,1h.49l.24-.12V.73h-.73l-.12.12ZM34.38,2.42h0v.24l.12.25V2.66Zm.49-.24h0l.48-.36.24-.13v.25l-.24.24L35,2.3ZM32,3.75h0l.12.12L32,3.75Zm0-.24h0v.12l.12.12h.24V3.63Zm.24.85h0l-.36.12h.24Zm-.36.24h0l.12.12V5h-.12ZM30,14.89h0l.13.12v.37H30v-.49Zm-.12,0h0l.12.49-.12.36-.24.12-.12-.12.12-.49.12-.36.12-.12Zm-9.8-4.48h0l.36.12v.12h-.12l-.24-.12v-.12Zm.12.61h0l.36.12.12.12h.12v.12h-.36l-.24-.24Zm.36.48h.24l.25.12-.25.37h-.24l-.12-.13.12-.24V11.5Zm-.73-3.39h0l.25-.36.36-.49L20.58,7h.24l.25.49.48.24v.12l.36.36.12.24h.25l.36-.12V8.23H23l.24-.12.73.12.85-.36.24-.24h.61l.36.24.12.12h.36l.61-.36h.6V7.38l.61-.84.24-.61.36-.72.37-1.09V4l.12-.25V3.51l.24-.36.24.12H31l.12.12.49-.12.24.12v.12h-.12v.12l-.12.12.36.12.24.37-.36.12-.24-.12-.12.12.24.24v.12l.12.12h-.12l-.12.24.24.25.12.24.49.48.12.25-.12.24-.37.12v.12l.12.12v.24l.25.12.6.61h.24l.25.24v.12l.24.12V8.6l-.24.12-.13-.12-.24.12h-.36l-.49-.49.13.37-.13.12L32.2,8.6,32,8.84v.24l-.12.12-.12.61-.12.24-.12.48-.37.24.12.37-.12.24-.24.24-.12-.24h-.12v.48l-.24.25v.24l-.24.12H29.9l.12.12-.12.12h.37V13l-.25.12.13.13h.12l.12.12-.12.24H30v0l.13.12v.12l-.13.49h-.24v-.13l-.12.37v.12l-.24.6-.49.25-.48.12-.48.24L27.6,16v-.6l-.12-.25L27.36,15h-.12l-.12-.12h-.36l-.13-.24-.12.24.12.12h-.24l-.12-.12v-.24l-.12-.12h-.24l-.24-.12h-.13l-.24.24-.36.12v.12H24.7l-.12-.12h-.25l-.24.48h-.24v-.72l-.12-.37v-.24l-.12.24-.24.13-.13-.13-.24.13-.36.12-.24-.12h-.25L22,14l-.24.25h-.12l-.12-.37-.12-.36V13l-.24-.24-.12-.12.24-.24.12-.24v-.25l-.12-.24-.49-.48L20.46,11l-.24-.12v-.13h.24l.24-.24.49-.12.24-.24h.12l-.48.24h-.85L20,10.05l.12-.12.12.12-.12-.24-.37-.49v-.6l.12-.12V8.11Zm36.81,3h0l-.12.12.12.12h.24Zm.73,1Zm.12,0h0l.12.12.48.24.61.12.6-.12.12-.12-.36-.12-.24.12-.49-.12-.24.12Zm0-1.34h0l.24.25V10.9h.12l.24.24v.24h.36l.13.12.24-.12-.12-.12-.12-.12-.25-.24-.24-.13h-.24l-.36-.12Zm-4.12,7.15h0l.12.24v.24l.12.12v-.36Zm.85-.24h0l-.37.12-.12.6-.12.12h.24l.13-.6Zm2.18,1.81h0l-.12.12.12.12v-.24ZM55.57,19h0l-.12-.12V19l.12.36v.12l.12.12-.12-.12h-.12v.24l.12.12h.12l.36-.24v-.12h-.12l-.12-.24Zm.48.12h0v.24h.25l-.13-.12Zm-.36-.49h-.12v.13l.12.24.24.12h0l-.24-.24Zm.48-.12h-.24l-.12.25v.12l.36.12.13.12.12-.24v-.12h0v-.13l-.12-.12Zm-.48-.36h-.12v.12h.12Zm.48-.36h0l.13.12h.12l-.12-.12Zm-.12.12h0l-.12-.12-.12.24h-.12l.12.12v.12l.12-.12-.12.24v.12h.12l.24-.12h.13l.12-.12V18H56.3ZM52.3,20.1h0l.24-.12h0Zm-.24.12h0l.36.24-.12-.24Zm-1.21.6h-.12l.12.12v-.12Zm.36-.12Zm0,1h-.12l-.24.12v.12H51l.24-.12Zm.48-1.21h0l-.36.36v.25l-.12.12v.24l.24.12h.12l.37-.36.12-.37-.12-.24.12-.12v-.12h-.24l-.13.12Zm-2.17-1.33h0l.24-.12-.12-.12Zm-.61.48h-.12l.12.12Zm.48,2.06h0l-.24.24h.12Zm-.48-.36h0l.24-.12.12.12.12.24h-.24l-.24-.12Zm-1.45-1h0l.12-.12.12.12-.12.12h-.12ZM47.7,22h0l.24-.12.12.12H47.7Zm-2.18-1.09h0l.24-.12-.12-.12-.12.12Zm.73.85H47v.12l-.36.12-.24-.12Zm-.37.12h.25V22Zm-.6-.12h.12l.24.12H45.4Zm-5.33,3h0l-.12.24.12.12h.49l.48-.24.24-.12.24.12.25-.24.12-.24.6-.49.12-.12.12-.12-.36-.24L42,23.12l-.12.12h-.24v.37l-.37.12-.24.12-.24-.24h0l-.36.24-.13.24-.24.49v.12l.12.12v.12h-.12Zm-.24.36h0l.12-.36h-.12l-.24.24Zm0,.12h0l-.24.12v.12l-.49.25-.12.12L39,26l.73-.24V25.3Zm-2.18,0h0l.24.12v.12l-.24.13-.24-.13.12-.12Zm-4.12-1.57h0l.61-.24.48.24h.25l.24-.12.36.12V24h.36l.25.36.24.25v.24l-.36.12-.49.12-.24-.24-.24-.24-.25-.12-.24-.25h-.72L33.41,24Zm-4.35-3.27h.24v.12h-.24Zm-.85-.36h0l.24.12.12-.12h.24V20h-.24l-.24-.13-.12.13Zm15.37,1.45h0l.25-.24.48.12.12.12.12-.12.12-.12.25-.12v-.25h-.25l-.24.13H44l-.12-.13-.25.13-.12.36Zm-.48.36h0L43,22h.12Zm-1.33,0h0l-.24.12h.12l-.12.12v.13l.24.12.48-.25.24-.12-.24-.12h-.48Zm-1,.49h.12l.12.12.24-.24v-.13l-.12.13h-.24Zm-1,.12h0l.36-.24-.12-.13.12-.12.25.12.12-.12h.12l-.24.37-.13.12h-.48Zm-.24-.12h-.24l-.12.24.12-.12Zm.24-.49h0l-.24.24h.12l.12-.12Zm-5.08.61h0v-.24l.48-.25.73-.12.36.12h.12l.36.12.37.25.36-.12h.36l.25.12h.24l.24-.25h.24l.12-.24-.12-.12.24-.12.37.12V22l-.12.25H39.1l-.12.36h-.36l-.12.12h-.61l-.36.12-.48-.12-.37.12V23h-.24l-.12-.12-.24.12-.24-.12H35l-.12-.12Zm-.25,0h0l-.12.36.24-.12v-.12Zm-.12-.12h0l-.24-.12-.12.36.24.24v-.36Zm-4,.24h0l-.12.12.12.12-.12.12.12.12.36.12.36-.12.12.12.37-.12.12-.12.24.12L32.2,23h.37l.24-.24.12.12h.73l-.25-.12h.37v-.12l-.12-.36v-.13L33.41,22v.25h-.12V22l-.36-.12-.24.12-.24-.24H32.2l-.36.12v.24l.61.13.24.24-.49.12-.12.12-.36-.24-.12-.24-.12-.13-.25.13-.36-.13-.36.25s-.24.24-.12.24Zm-.85-.36h0l.24-.25.49.12-.12.37-.13.12.13.24H29.9l-.24.12-.48-.24-.12-.12h.36Zm-1,.36h0l.12-.12.12.12-.12.12Zm-1.33-.85h0V22l.12.12.36.13.37.24.12.24.12-.24.24-.12v-.12h.24l.12-.13-.24-.36-.48-.12-.36.12-.25-.12Zm34.5.24h.12l.37.12V22l-.12-.36h0l-.25.12Zm-1.33,0h1l.24-.12.24-.24h.25l.12-.24v-.12h0l.12-.24v-.13l-.12-.24h-.12l-.49-.12-.36.24-.12.37-.12.24ZM25.06,19.85h0l-.24.37.36.24H26l.24-.12h.36l.13-.24h-.61L26,20h-.85Zm-10.77-.36h0l.12.12h.12v-.12Zm.24.12h0l.12.12h.24v-.36h.36l.13-.36v-.24l.24-.37.12.12h.36l.36.12.25.13.12-.13.12-.12h.48l.25.25.48.12.73.12.12.24-.12.36.12.12.48.12h1l.73.13.6-.13.24-.24v-.48h.25l.36.36h.24l.24-.12.25.12.24.24h.24l.24.25.24-.13h.37v.49l.24.36v.12l.24.25.36.12.25-.12.24.24.24-.12.12-.12h.24l.13.12.24.12.12.12L27,22l-.12.25h.24v.48H27l-.24-.12h-.37L26,22.28h-.24l-.25-.37H25.3l-.36.24h-.48L24.09,22l-.36-.12-.36.24L23,21.91h-.48l-.24.12-.73-.24-.73-.48h-.48L20,21.07h-.13l-.24.24h-.24l-.24-.24H19l-.37.24-.6-.12-.36-.37h-.49L17,20.7l-.24.12-.25-.12H16l-.12-.12.24-.36.12-.12H16l-.12.12-.24-.12-.12-.25-.25.13h-.6l-.24-.13v-.24Zm3.75-16h0l.24.24h.12v.25h.25L19,3.75l-.37-.48-.24.12Zm-2.42,1.7h0v.24H16Zm0-.61h0L16,4.6l-.12-.12Zm0,.24h0v.12H16ZM15,5.21h0v.24l.12.12.25-.36-.25-.13ZM12.59,8.35h.24l.25-.24L13,7.87ZM13.32,8h0l-.12.36h.24l.12.37h.12l.12-.49-.12-.12.12-.24L13.68,8l-.24.12Zm6.29,4.36h0v.12l.24.12v-.12l-.12-.12Zm-1.93,1.33h0l.12.24V14h-.25l-.12.12.25.13v-.13L17.8,14v.37l.24.24.24-.36.12.24h.24l.13-.12.12-.12-.12-.37-.49-.24-.36-.12Zm-.85.48h0l-.12.25.24-.12Zm-2.06-1.81h0v.24l-.24.24.12.12.48.12.12.13.13.24.12.12.12.36.24.24h.36v.25l.12.12.25-.24L16.46,14l.13-.36-.49-.12-.24-.36-.12-.61-.12-.12v-.24l-.24-.12h-.25l.12.24v.24L15,12.47l-.12-.12Zm-1.33-1.82h0l-.24.24.24.25.24-.12v-.37Zm.12-.6h0l-.12.36.12.12.24-.12.36.24.13-.12-.49-.36ZM10.77,8.11h0l-.24.36.12.25h.49l.24.24.12-.12V8.35l-.36-.24Zm-.84-.48h.12l.48.12.12.24-.24.24-.12-.12ZM9,6.9H9l.12.48h.36L9.69,7l-.25-.24L9.2,6.9Zm1,10.65h0l.36.37v-.24l-.12-.13ZM7.38,14h0l-.24.25.49.48v-.48Zm-.48-.36h0l.24.12L6.9,14Zm-.48-.85h0L6.3,13l.12.25.36.12ZM4.84,11.5h0v.24l.37.12.36.61.36.12V12l-.48-.61-.37-.12Zm-.24-1h0l-.12.24.24.25.12-.25v-.24Zm.24-.84h.37l.12.12V9.69L5,9.56ZM2.78,7.75h.37l.12-.12.12.12.24.36L4,8.35l-.13.25L3.75,9H3.63l-.24-.49H3.15V8.11Zm0-1.09h0l.37.12L3,6.66ZM.85,5.45h0l-.12.12-.12.24L1,5.93h.24l-.12-.36ZM0,1.45H0v.61l.36.72.25.13.6.72h.24l.37.49h.36l.48.36.49.73.48.48h.24v.36L4,6.17v.37l.24.24h.24l.36.48.24.12.13-.12.12.25-.12.12.12.24.12.36v.12l.36.73.12.36.37.12.36.37v.24l.36.6.36.25v.72l.61,1-.12.36.24.37.49.36.48.73.12.24.49.12.12.12.36.24v.49l.36.12.37.48.6.37.12.36h.49l.72.85.12.24.25.12.12.24.12-.12v-.24L13.32,18v-.12h.24l.6.48h.13v-.48l.12-.12h.24l.24.48H15l.24-.12v-.73l.13-.72-.13-.49.25-.6-.12-.24v-.49l.24-.12.12-.12v-.24l-.24-.12L15.25,14l-.12-.36h-.24v-.24l-.36-.12h-.61l-.12-.49-.24-.24-.12.12.12-.24-.12-.36v-.73l-.36.24L13,11.38h-.6l-.49-.24V10.9l.37-.13.24-.24-.12-.12-.36.12-.13-.12-.36.12.24-.24.37-.24h.36V9.69L12,9.2h-.25l-.36.24-.24.12H11l.12-.12h.12l.12-.24-.12-.12L11,8.84,10.53,9l-.36-.36V8.47L10.05,8l-.61-.48-.12-.13-.24.13-.24-.25V6.78l-.49-.36-.48-.37H7.51v.12l-.25-.12-.12-.36L7,5.93,6.9,5.69V5.21L6.54,5,6.3,4.84l-.13-.12-.84-.6H5.08l-.36-.37-.36-.12V3.39L4.24,3,4,2.78l-.25-.24-.12-.12-.24-.36-.24-.12H2.78l-.12.12-.24-.12H2.06l-.37.12-.24-.12-.6-.49L.24,1.33Z"/></g></g></svg>