<svg xmlns="http://www.w3.org/2000/svg" viewBox="0 0 65.5 52.78"><defs><style>.cls-1{fill-rule:evenodd;}</style></defs><g id="Layer_2" data-name="Layer 2"><g id="Layer_1-2" data-name="Layer 1"><polygon class="cls-1" points="1.57 0 1.7 0 2.06 0.48 2.54 0.48 2.78 1.09 2.66 1.57 4.12 2.3 4.24 2.91 5.08 3.39 5.81 3.39 6.78 3.87 6.9 3.39 6.9 3.39 7.63 3.27 8.11 3.39 8.72 3.15 8.72 2.79 8.96 2.42 9.32 2.42 9.93 1.7 10.29 1.57 10.65 0.97 11.14 0.85 11.74 0.48 12.11 0.48 12.11 0.6 12.47 0.73 12.71 1.21 13.07 1.57 12.71 1.94 12.95 2.3 13.68 2.79 12.59 3.39 13.68 4.6 14.16 4.84 14.41 5.21 14.89 5.33 15.25 5.21 15.25 5.33 15.62 6.05 15.74 6.78 15.62 7.51 15.86 7.87 16.34 7.87 16.95 8.6 17.68 8.6 18.28 8.72 19.01 8.47 19.73 8.96 20.22 8.96 20.34 9.69 20.82 10.29 22.52 10.9 23.24 11.02 25.18 11.5 26.03 11.5 28.21 10.9 29.78 10.78 31.6 10.9 32.32 11.02 32.57 10.17 32.08 9.44 31.84 8.6 32.45 8.23 34.02 8.23 34.26 7.26 34.75 6.78 35.23 6.78 36.56 5.57 37.89 5.33 39.1 5.57 39.35 4.84 40.07 4.72 40.68 4.96 41.4 4.96 42.49 5.81 43.46 6.17 45.4 7.26 45.88 7.26 46.37 6.9 47.7 7.51 48.3 7.63 48.55 8.47 48.79 8.72 49.52 8.6 50.73 8.84 51.94 10.65 53.39 10.78 54.24 11.14 54.72 11.99 54.48 12.47 54.72 13.32 54.72 13.8 55.09 14.41 54.96 15.25 55.09 15.74 54.84 16.22 55.21 16.71 55.09 16.95 55.09 17.31 54.24 17.92 53.63 18.04 53.87 18.52 54.36 18.89 53.87 19.73 53.99 19.86 54.24 21.07 54.24 21.67 55.33 21.91 55.57 21.91 54.6 23.12 54.36 23.97 55.21 25.67 55.69 27.12 55.45 27.6 55.81 28.09 55.93 29.3 58.72 29.42 59.2 30.51 59.08 31.36 59.44 32.57 59.2 33.05 56.78 36.32 58.47 38.5 58.84 39.23 59.69 40.07 60.41 40.56 60.77 40.92 61.74 40.92 62.35 41.16 62.47 41.53 63.32 41.65 63.44 42.74 63.56 43.46 63.68 44.31 63.8 44.91 64.65 44.91 65.5 45.4 65.5 46.61 65.01 47.09 64.29 46.73 62.71 47.22 62.35 47.58 61.38 47.94 61.02 48.55 61.26 49.15 60.77 49.88 61.02 50.6 60.9 51.7 60.9 52.3 60.77 52.3 60.65 52.54 60.17 52.78 59.08 52.42 58.23 52.06 57.99 51.57 57.51 51.57 57.38 52.18 57.14 52.18 56.78 51.82 56.42 51.94 55.93 51.7 54.48 51.7 53.51 51.21 51.7 51.33 50.85 50.6 50.6 50.48 49.88 51.21 49.27 50.73 48.55 50.73 46.85 50.73 46.73 50.36 46.37 50.12 46.37 49.27 45.64 48.06 45.4 46.97 44.79 46.13 44.67 45.76 44.43 45.76 44.43 45.64 43.34 45.4 42.62 45.64 41.77 46.25 41.16 46.25 41.04 46.01 41.04 46.37 39.71 47.22 38.62 48.06 37.41 47.22 36.32 46.97 35.47 47.09 35.23 47.34 34.14 46.25 33.53 46.25 33.05 45.88 32.32 45.76 31.36 44.67 31.72 44.43 31.6 44.07 30.99 44.07 30.87 43.83 29.9 43.83 29.54 43.46 28.69 43.1 27.6 43.22 26.88 42.86 25.91 40.68 25.79 40.19 25.55 40.31 24.94 39.83 25.06 39.71 25.3 39.83 25.55 39.83 25.18 39.23 24.7 39.35 24.33 39.1 24.33 38.14 23.12 36.68 23 36.08 22.4 35.23 22.03 34.99 21.07 35.84 20.7 35.84 20.46 35.23 20.1 35.35 19.37 34.99 19.49 34.63 19.61 34.26 19.49 34.5 19.01 34.5 18.64 34.5 19.13 34.87 19.13 35.47 18.77 35.71 18.28 35.84 17.8 35.11 17.92 34.99 17.55 35.11 17.31 34.87 16.71 34.63 16.1 34.26 15.86 32.2 14.89 32.2 14.65 31.36 14.65 30.51 15.38 29.9 14.65 28.45 14.04 28.09 13.44 27 13.07 26.64 12.71 26.88 10.41 25.3 9.81 25.3 9.44 25.55 8.84 25.06 8.96 24.7 8.72 24.45 9.08 23.73 8.35 23.12 8.23 22.64 7.51 22.52 7.14 22.16 6.78 22.03 6.78 21.67 7.02 21.31 6.78 20.94 6.9 20.46 7.02 19.37 7.26 19.01 7.38 18.04 7.87 18.16 8.23 17.92 8.23 16.71 7.99 16.59 7.87 15.74 8.35 15.74 8.96 15.5 9.08 15.38 8.84 15.13 8.35 14.89 7.75 15.01 7.26 14.89 6.17 14.29 5.69 14.16 5.08 13.92 4.84 13.07 4.48 12.59 4 12.47 3.75 11.86 3.75 11.26 3.39 10.53 2.78 10.41 2.78 10.41 2.9 9.93 2.66 9.2 1.94 7.87 1.09 7.63 1.09 7.26 1.09 6.3 1.45 5.33 1.33 4.96 0.6 4.84 0.48 4 0.6 3.39 0.36 2.18 0 1.57 0 1.21 0.85 1.21 1.21 0.36 1.57 0 1.57 0"/></g></g></svg>