<svg xmlns="http://www.w3.org/2000/svg" viewBox="0 0 65.62 62.71"><defs><style>.cls-1{fill-rule:evenodd;}</style></defs><g id="Layer_2" data-name="Layer 2"><g id="Layer_1-2" data-name="Layer 1"><polygon class="cls-1" points="65.62 53.99 65.13 53.63 63.68 53.03 62.47 52.18 61.98 47.94 59.93 47.94 59.32 46.25 59.44 44.19 60.9 42.98 59.44 39.95 58.23 39.23 56.9 36.92 56.17 36.32 55.45 36.56 50.36 33.29 49.27 33.41 48.55 33.9 47.09 32.81 47.34 31.96 46.97 31.48 47.58 30.14 46.13 28.81 45.88 27.84 44.43 27.6 43.58 26.64 42.74 26.51 42.74 25.67 43.22 24.94 42.86 24.21 43.22 23.25 43.22 20.82 43.95 20.22 44.19 18.04 45.16 18.28 45.88 17.8 45.88 15.38 45.4 15.01 45.28 13.32 46.01 13.07 47.34 12.71 47.82 12.35 47.22 11.98 46.25 11.5 44.79 11.74 43.83 11.5 41.52 10.17 40.56 9.93 39.35 9.32 38.74 7.75 38.02 6.66 37.05 6.42 36.32 5.08 36.44 3.87 35.84 2.18 34.5 2.06 32.93 2.54 31.72 2.06 31.84 0.73 30.87 0.12 29.18 0.6 26.75 0 23.97 0 23.37 0.6 21.79 0.6 19.86 2.06 20.22 2.3 19.37 3.75 18.64 3.75 17.31 4.96 14.65 5.57 13.44 7.75 13.32 9.93 14.53 12.47 14.65 14.65 13.44 16.95 13.8 18.04 13.68 19.86 12.71 21.43 11.98 22.52 0.12 30.99 0 31.11 0 31.11 3.51 39.83 9.44 40.56 40.92 62.47 53.63 62.71 55.21 59.81 56.66 56.54 59.69 55.21 61.98 56.05 63.56 55.57 64.17 55.81 64.89 54.24 65.62 53.99"/></g></g></svg>