<svg xmlns="http://www.w3.org/2000/svg" viewBox="0 0 55.57 73.24"><defs><style>.cls-1{fill-rule:evenodd;}</style></defs><g id="Layer_2" data-name="Layer 2"><g id="Layer_1-2" data-name="Layer 1"><polygon class="cls-1" points="14.04 73.25 18.64 72.76 23 71.43 26.51 69.13 25.3 66.47 27.97 66.59 27.24 68.16 29.9 68.16 32.45 65.5 34.26 65.62 34.99 63.08 42.62 62.23 43.34 60.53 44.43 62.47 46.13 60.9 47.7 61.5 51.7 61.5 48.91 57.99 50.97 57.14 53.03 54.6 52.54 52.42 54.84 50 55.57 47.22 54.48 41.04 52.78 39.95 54.84 38.74 54.84 35.96 53.03 33.17 53.51 30.39 51.45 28.93 52.54 27.36 54.12 27.6 51.21 25.55 49.15 25.18 46.61 19.98 42.62 18.04 41.04 19.25 40.19 23 38.26 23.37 32.45 18.04 35.47 11.86 38.26 11.5 38.98 9.08 40.92 8.11 42.25 6.66 40.92 6.9 43.7 4.72 46.13 3.39 43.22 1.82 41.16 0 42.13 1.94 39.35 1.94 39.83 5.08 37.77 7.87 38.02 5.93 39.1 4.6 37.77 2.3 35.96 2.66 37.05 4.24 34.99 4.36 33.78 3.15 30.02 4.12 30.02 5.93 28.81 5.93 27.84 8.23 29.78 8.96 29.3 10.05 27.36 10.05 27.48 11.14 24.82 11.86 25.55 14.04 28.57 14.04 28.09 14.77 30.51 14.04 32.08 14.04 28.93 17.31 25.06 18.89 26.39 20.1 22.52 20.82 20.46 19.98 18.77 21.91 17.92 19.37 11.62 18.4 11.62 19.49 8.11 18.64 7.51 22.4 9.2 20.7 9.56 23 10.41 23.37 11.26 25.67 9.69 25.79 9.44 24.45 6.05 24.58 9.93 27.36 12.59 26.63 13.56 28.81 10.05 29.54 9.56 30.99 10.53 32.45 6.78 32.45 7.63 34.87 6.29 35.35 8.23 36.56 9.93 36.08 8.96 37.29 12.11 36.68 12.95 40.07 20.34 39.95 18.04 42.37 16.22 41.4 13.44 46.01 14.65 45.88 12.47 49.03 7.63 52.3 9.56 52.3 12.11 50.6 13.8 51.57 16.95 51.7 19.13 49.52 19.37 50.48 22.16 50.73 15.98 52.42 11.5 52.54 10.41 54.36 7.38 55.33 8.47 56.78 7.75 58.11 9.08 58.48 6.9 58.84 4.96 57.26 4.24 58.35 3.63 57.63 0 59.56 0.36 60.53 8.84 60.05 6.05 62.47 2.42 63.2 1.21 66.1 3.51 66.1 4 67.8 10.41 65.74 5.57 68.89 3.51 70.58 7.02 70.46 11.38 68.04 11.26 69.86 7.38 71.55 9.44 71.55 8.84 72.88 12.23 72.03 14.04 73.25"/></g></g></svg>