<svg xmlns="http://www.w3.org/2000/svg" viewBox="0 0 26.15 75.3"><defs><style>.cls-1{fill-rule:evenodd;}</style></defs><g id="Layer_2" data-name="Layer 2"><g id="Layer_1-2" data-name="Layer 1"><polygon class="cls-1" points="16.34 75.3 18.28 72.16 18.4 71.67 18.28 69.37 19.86 67.68 19.86 63.8 21.19 59.56 21.07 54.48 22.16 53.87 22.16 50.12 23 46.25 22.88 43.7 23.49 36.2 22.28 36.56 20.1 36.56 17.31 38.14 15.74 36.44 16.46 31.23 16.46 23.12 15.5 21.43 16.34 16.83 20.34 16.83 20.82 19.49 22.52 19.73 24.58 17.92 24.45 15.86 24.94 15.98 24.09 14.41 23.49 11.5 24.45 6.42 25.18 2.06 26.15 0 24.45 0.12 22.64 3.75 17.19 3.87 15.13 3.39 11.5 7.51 10.17 19.98 5.21 29.78 0 36.92 1.82 37.77 5.21 42.74 7.02 49.03 11.86 56.42 15.62 65.25 14.04 69.49 16.34 75.3"/></g></g></svg>