<svg xmlns="http://www.w3.org/2000/svg" viewBox="0 0 65.5 73.85"><defs><style>.cls-1{fill-rule:evenodd;}</style></defs><g id="Layer_2" data-name="Layer 2"><g id="Layer_1-2" data-name="Layer 1"><path class="cls-1" d="M4.84,23.61,4.48,22.4l.73-1.82H3.51L1.69,19.37l-.24-3L0,14.89.85,14l1.33-.24.24-1.94-1-1L1.21,9.44,1.69,9,3,9.44l2.3-1.69,1.45.72L8.84,4.84l1.33.85L10.05,7l1.81.85.61,1.21L13.56,7V5.45l2.54.6h1l1,.85.24-2.18,2.3-.48L20,2.3,21.19,1l1.93.85L26,0l1.33.36L29.3.24l-.12,1.09L32,3l3.51.6,1.94-.12.73.73L36.8,6.17l.49,1-.73,1.09.24,1.94-1.33-.24-.72.36-.85.85H32.69l-1.21,1-1.33.24-.37.85.61,1.21.72,1-.84,1.33-.49.48.61,1.45.24,1.58.6.85,2.55,1.45,1.33.72.73,1L39.59,28v1l.48.25.12,1.21.73,1.09L42,32.57l.85,1.33,1.69,1.33.73.85,1.09.12.72.48h2.18l1,.24,1.33-.24,1.09.49-.24.84L51,39v.61l.48.85h1.21l2.18.48,4.48,2.54,1.82,1.21,1.09,1.21,1.93.49,1,.72.37.73-.12,1.45-.49.73L65,51l-.36.24v.36l-1-.48-.85-1L62.35,49l.12-.85-.61-.36H60.05l-.24-.48-1.21-.61-.85.12-.49.24-.36,1.46-.73.72.13.73-.25.85-.72.6v.85l.36.61.85.12,1.69,1.45.24.73-.12,1.45.25.48-.37.85-1,.24-1,1-.13,2.66L54.6,63.2l-.24,1.21-.85,1.09-1.69.12-1.21-1.21v-.85l.24-.49.72-.36.61-.85.24-1.09-.24-1.08.36-.25H53l.6-.72V57.63l-.6-.85-.49-2.06-.6-.85-.25-1.69-.6-1.82-.73-.6-.72.48-1.46-.36-.48-1-1.21-.12L46,48.18l.25-.36.12-1.21-.73-1H43.58l.12-.85-1-.24-.73.24-.73-.48L40.07,42,39,41.89l-1.21-.49-.72.73H36l-.25-1-.84-.6-1.09-.25-2.3-1.69-2.42-2.91-.73-.36-.12-.85-1.09-1.45h-1.7L25.3,32l-1.57-1.45-.85-1.09-1.33-.61V27.12l-1-.49v-1l-1.09-1.82L19.13,23l-.36-.6-.49-.85-1.69-.61-1.09-.72-3.88-1-2.9,1.69-.12,1-1,1.21ZM9.08,43h.36l.12-.49.49-.6-.49-.36-.24.6-.24.12Zm14.65-9.32h0l.6.24-.12-.49Zm-4.6-3.27h0l-.49.48.61.24,1.21-.36h1l-.24-.6-.49-.61-.24.36Zm-7,28.08h0l.36-.24.6.24.85-.36V56.9l.37-.85,1.09.12.72.73h.61l.48-.85V53.87l.24-.6L17.19,51l.36-2.06L16.1,47.58l1.21-.85.24-.85-.36-1.33-.73-.85-.84-1.57-.37.48-1-.72h-1l-2.06,2.54h-.85L9.08,43.7v1.22l-.24.84.85,1,.24.85.72.6v1.34l-.72.84.24.73,1.21.12v.48l-.73.85-.48,1.94.48.73.49,2.42ZM48.43,73.61h0V72.28l.48-.73-.12-1.33-1-1.33,1-2.91,1.09-.85.24-1.57-.85-1.09-1.45,1.45-.6-.12-1.34-.73-1.21,1.34-2.54-.12-2.18.6-1.57-.24-1.09-.73L36.08,64l-.73.49L35,64l-1.45.61-.13,1.94,1.21,1.09,1.22-.25L38,69l1.22.24,1.08,1.21,2.55,1,.48-.36,1.21.84.24.85,2.55,1.09Z"/></g></g></svg>