<svg xmlns="http://www.w3.org/2000/svg" viewBox="0 0 51.69 99.64"><defs><style>.cls-1{fill-rule:evenodd;}</style></defs><g id="Layer_2" data-name="Layer 2"><g id="Layer_1-2" data-name="Layer 1"><path class="cls-1" d="M20.7,47.82l.24.36-.24.13-.12-.13Zm.49,0h0l-.12-.24.24-.36.36-.13.12.61-.24.24ZM.61,99.39h0L.48,99H.12L0,99.64H.48Zm.48-.6h0l.36-.36.24.24-.12.6H1.21Zm3-2.18h0v.61l.24.24.48.12L5,97Zm7.14-5.81h0L11,90l.6-.48.12-.24L11.62,89l.49-.36.36-.61.24.61-.24.48v.49l-.85.48v.61Zm3-6.54h0l.36.24.12.61-.12.12-.49-.36L14,84.38Zm1.33-1.21h0l-.24-.24h-.61l-.12-.24.24-.37.49-.36h.24l.12-.24h.36l.24-.12.37-.12-.37.6-.48.49-.12.36Zm17-65.13h0l-.25-.37-.12-.48.61-.48.36-.13-.12.61-.12.61Zm4,3.27h0l-.6-.37-.25-.6L36,20.1,35.71,19l-.36-1.21-.48-.49L34.26,17H33.9l-.12-.36.12-1L33.66,15l.24-.6.48-.12v-.37h.49l.24-.72.24-.25v-.36l-.73-.48h-.24l-.12-.25.24-.48.49-.12,1,.6,1.09.13.36-.25.12-.48.12-.24-.12-.49-.36-.24-.12-.24-.37-.61-.12-.6.49-.61h.24V8l-.24-.6L36.8,6.3l.12-.37L36.8,4.6l-.24-.73L35.47,2.18l-.24-.85L35,1l.12-.24h.36l.24-.37V0h.73l.24.61,1.09.84.85.12.48,1L40.56,4l.84.6.25.36.6.25.61.6,1,.49h.72l.73.6h.48L46,7l.85-.12,1-.73.61-.72.12-.61.12-.12.24.24v.61l-.36,1v.85l.12.36.85.48.48.61.12.48L50,9.69h.48l.37-.49.48-.48h.36l-.24.48-.24.12-.12.73-.36.24-.61.24L50,11l-.12.36h-.49l-.24-.12-.48.36.12.37h-.85l-.72-.25-.49.25-.85,1.21-.36,1.33-.12,1.09.12.72-.12.49.12.48-.6-.24-.37-.36-1-.37-1-.48-.84-.73-.61-.72-.6.12-.49-.12-.24-.25h-.6l-.73.49-.85,1.09-.36-.24L36.56,15h-.48l-.49.49v.6l.25.49.72.36.73-.12.72.85.73.24h.85l.24.36-.48.61-.25.48L38.74,19h-1l-.24.24v.48l-.24.49Zm-1.09,18h0v-.61l.24-.36-.12-.12-.36.24L35.11,38l.24-1.09.24-.24.12.49v.48l.37.12.12.37-.12.72-.37.37ZM11.38,61.5h0l.36.24.12-.12-.36-.36-.24.12Zm-.24.36h0l.12.25.12-.25Zm-.37.37h0l.25.12.12-.12Zm-.36.36h0V63l.36-.24Zm-.48,1.7h0l-.24-.73v-.48l.36-.13v.37l.36.24.24.36-.36.37Zm5,.36h0v-.36L15,64l.24.12v.49Zm-.6,1h0l.24-.24.24.12-.24.36ZM14,63.92h0l-.24.37.12.6.24.49h.25l.24-.61-.36-.61L14.16,64Zm14.17-7.87h0l-.37-.6v-.61l.25-.36h.36l.12.36-.12.49.12.24v.48Zm-2.42-.6h0l.6-.49.37.12v.25l-.37.24Zm-2.91,6.9h0l.24.12.25-.24.36.12h.36L24,61.86l-.6-.6.36-.61.24-1,.85-.37.12-.36h.73l1,.6.25.49.36-.24.36-1.09.73-.73.12-.36-.24-.24L28,56.9l-.61-.6h-.6l-.37-.37h-.85l-.84.61V57l-.37.49-.48.12-.61.36L23,57.87,22.64,57h-.36l-.85,1v.61l-.61.48-.12.61,1,.24.12.6-.24.24v.37l.6.72.73.13ZM18.64,73.49h0L18.16,73H17.8l-.12.49.36.6.48.12.25-.36Zm.49-.73h0L19,71.67v-.48l.36.36.12.6-.24.37ZM18,70.94h0l.6-.36.61-1-.61-.6v-.37l.25-.12.48.12.36.25.12-.61V67.19l-.24-.48.12-1.94-.12-1,.37-.6.6-.61-.12-.48L20.1,62v-.61h-.37l.12-.48H18.77l-.13-.25.49-.24.24-.48-.24-.85-.36-.24-.61.12v.24l-.36.24h-.49l-.72-.84.12-.49,1-.48,1-.12,1,.36.49.24v-.72l.12-.73-.12-.49.12-.24.48-.12.24.36.49.13.48-.37L23,55.81l1.09-.36h.85l.36-.12v-.25l.73-.36.12-.36.85-.61.72-.24,1,.12.61-.12.24.24v.61l-.48.6-.13.61.25.24.12.61V57l-.12.24.24.61.6.24L31,59l.61.24L32,59l.73-1v-.6l.36-.25.12-.36-.12-.36.36-.85.61-.12h.48l.25-.24L34.5,55l-.12-.72-1.21-.49-.12-.36.24-.85.37-.36h.24l-.12.24.12.73.24.12.24-.12.12-.24L35,53l.36.24.36-.12H36l-.25.36-.48.12-.12.12.24.12.49-.12.84-.48,1.58.24.84-.12-.24-.24-.12-.61.12-.85.73-.36.6.12.12.73-.24.6.24.49.49-.12.48-.61-.36-1.21.24-.72.73-.61h.48l.12-.24-.24-.37.12-.84.37-.24.72.12.12.36-.36.48-.12.85.12,1.82.36.24.37-.36.36-.61h.48l.61-.73.24-.84-.12-.49.73-.72-.12-.37-.37-.36L45,46.61l-.25-.73-.24-1.57.24-1.82V41.16L44.31,39l-.85-1.09v-.84L43.58,36l1-.49h.61l.24.49.12-.25-.12-.84-.12-.49L45,34.14l-.12-.6v-.85l.24-.37v-.24l.12-.48L45,31.23v-.72l.12-.49-.24-.36-.25-1.33-.6-1.09H43.7l-.24-.12-.12-1.45-.6-.49L41.4,23.61,41,23l-.24-1.09-.12-1,.12-.36-.49.24-.24.12L40,20.7l-.6-.24H39l.12.12-.36.85V22l.24.25.37-.12.72-.73.37.85-.25.6-.48.24-.36-.36h-.12l.12.85-.25.24-.48-.12-.12-.61-.12-.6-.12-.36-.49.12L37.41,22l-.12.61.24,1,.12.6-.48.12-.37.61v.36l.85.85.24.48-.24.85-.48.36-.49-.12-.12.37.49.6.48-.12.48-.48.61,1.45.24,1.57-.12.85v1.58l-.48,2.3.12.84-.24,1-.85.49-.37,1,.13,1.09-.49.61-.12.6-.73.85-1.57.85-.6.24-.37.61-.72-.49-.85-1,.12-.36.36-.12.24-.61V41l.37-.48v-.12l-.73.24-.6.48-.73.24-.12.73.48.73.12,1.57-.12.73-.72.72v.49l-.25.24-.12,1.21.25.36v.37l-.13.24.13.12-.25.48h-.24l.24.37-.6.12-.24-.24-.49.36-.36-.12-.12-.73H28l-.49.24h-.36l-.24-.12-1.34.49-.84.36-.73.24h-.85l-.72.25L22,50.48h-.6l-1.21,1-.24.73-.49.24-.12.49L18.52,54l-.6.12-.49.72-.12.37-.48.6-.85.12-.36.49.24,1,.36.24.12.36-.24.36h-.6l-.61.49-.24.36-.36.36-.61.73-.24.48h-.61l-.48.37H13l.13.6.36.73-.24.24-.12-.48-.25-.49-.24.61.24.6.37.13.12.36-.24.48.36-.24.24-.36.48-.24.25.12-.25.24.25.24.48-.24v-.61l-.36-.24-.61.12v-.24l.24-.24L14,61.62l.25-.36.48.24.61,1,.12.73.24.36v1.09l-.49,1.09h-.48l.12.36.49.85.24,1.21.48.61v.6l-.24.36.36.49.61-.12.36.24.24-.24v-.37L17,69V68l.24-.36.36.24-.12.24v.36l.49.49L18,70l-.12.48Z"/></g></g></svg>