<svg xmlns="http://www.w3.org/2000/svg" viewBox="0 0 56.17 69.49"><defs><style>.cls-1{fill-rule:evenodd;}</style></defs><g id="Layer_2" data-name="Layer 2"><g id="Layer_1-2" data-name="Layer 1"><polygon class="cls-1" points="0.97 60.41 1.09 60.05 0.97 58.23 2.3 56.78 2.3 53.63 3.39 50.12 3.27 46.01 4.12 45.52 4.12 42.49 4.84 39.35 4.72 37.17 5.69 25.91 5.57 23.85 5.93 20.1 6.42 18.77 6.05 17.07 6.05 14.53 7.14 14.65 7.99 13.32 9.69 11.74 11.14 11.86 15.74 13.92 18.52 16.1 19.61 16.1 21.43 17.31 49.03 0 56.17 18.28 55.45 18.16 50.36 23.37 29.66 29.9 45.4 46.97 39.47 53.99 39.1 57.99 28.45 59.69 18.4 69.49 4.24 65.5 0 65.62 0 65.13 1.21 61.62 1.09 60.29 0.97 60.41"/></g></g></svg>