<svg xmlns="http://www.w3.org/2000/svg" viewBox="0 0 65.62 34.38"><defs><style>.cls-1{fill-rule:evenodd;}</style></defs><g id="Layer_2" data-name="Layer 2"><g id="Layer_1-2" data-name="Layer 1"><polygon class="cls-1" points="5.08 23.12 4.6 22.76 4.12 23 3.51 22.52 3.51 22.28 4.24 22.28 3.51 21.07 2.66 20.34 1.57 19.98 1.45 20.22 0.85 19.86 0.97 19.49 0.73 19.01 0 18.77 0.24 18.16 0.36 17.07 0.12 16.83 0.12 15.98 0.36 15.86 0.85 15.25 0.85 14.89 1.09 14.53 2.06 15.38 2.18 15.62 2.66 15.98 3.15 15.98 3.15 15.38 3.39 15.25 2.91 13.92 3.51 13.8 4 13.8 4 13.44 3.75 13.07 3.87 12.71 4.36 12.35 4.6 12.35 4.84 11.86 5.08 11.74 5.45 11.74 5.45 11.5 5.45 11.14 5.45 10.9 6.05 11.26 6.42 11.38 6.29 11.62 6.17 11.99 6.29 12.11 6.66 11.86 6.66 11.62 6.9 11.5 6.9 11.74 7.14 11.62 7.26 11.38 7.51 11.26 7.87 11.02 8.23 11.02 8.47 11.5 8.84 11.74 9.44 11.62 9.69 11.62 9.93 11.86 10.05 11.86 10.41 12.35 10.78 12.35 11.02 12.71 11.5 13.07 11.86 13.07 11.98 13.32 11.98 13.68 12.23 13.8 12.47 13.44 12.35 12.95 12.71 12.83 12.95 13.07 13.56 13.2 13.8 13.56 14.04 13.68 14.53 13.32 14.53 12.71 14.89 12.59 14.89 12.35 15.25 12.23 15.38 12.47 15.5 12.23 15.98 12.11 16.46 12.59 16.59 12.83 17.07 12.71 16.95 12.35 17.19 12.23 17.68 12.23 17.8 11.99 18.28 12.23 18.52 12.35 18.4 12.59 18.04 12.71 18.4 13.2 18.77 13.32 18.89 13.2 19.13 13.32 19.61 13.32 20.22 13.56 20.7 13.56 20.82 13.2 20.82 12.83 21.07 12.71 21.55 12.95 22.03 13.07 22.64 12.83 22.76 12.59 22.64 11.26 22.52 11.14 22.03 11.02 21.67 10.78 21.67 10.65 21.31 10.53 21.07 10.29 20.58 10.29 20.58 10.05 20.46 9.93 20.46 9.69 20.82 9.69 20.94 9.32 21.19 8.96 21.07 8.6 20.82 8.6 20.82 8.23 21.19 7.63 21.55 7.26 22.28 7.14 22.52 7.26 22.76 7.14 22.76 6.78 22.4 6.66 22.16 6.42 21.91 6.42 21.67 6.66 21.31 6.42 20.94 6.42 20.82 6.17 21.07 6.05 21.43 6.05 21.31 5.69 20.94 5.81 20.58 5.69 20.7 5.45 20.58 5.08 20.7 4.96 21.07 4.96 21.19 4.72 21.55 4.72 21.55 4.96 22.03 4.84 22.28 5.08 22.4 4.96 22.4 4.72 22.76 4.6 23 4.6 23.25 4.84 23.37 4.6 23.49 4.36 24.09 4.24 24.45 4.12 24.94 4 25.3 3.87 25.42 3.75 25.91 3.51 26.27 3.51 26.63 3.27 26.88 3.27 27.12 3.39 27.24 3.27 27.24 2.91 27.36 2.66 27.72 2.66 27.84 2.54 28.09 2.3 28.21 2.42 28.45 2.54 28.81 2.3 29.18 2.18 29.9 1.7 30.02 1.7 30.27 1.57 30.63 1.57 30.87 1.21 31.11 1.33 31.6 1.21 31.6 0.97 31.36 0.73 31.6 0.6 32.08 0.6 32.08 0.24 32.45 0 32.69 0.12 32.93 0 33.29 0.12 33.78 0.12 34.26 0.36 34.63 0.36 34.99 0.24 35.35 0.24 35.47 0.73 35.71 0.73 35.84 1.09 36.08 1.45 36.2 1.57 36.32 1.7 36.2 2.06 36.32 2.42 36.2 2.54 35.96 2.54 36.08 2.91 36.32 3.03 36.68 2.78 37.05 3.03 37.17 3.03 37.29 2.66 37.41 2.54 37.53 2.91 37.77 2.91 37.77 2.66 37.65 2.3 37.77 2.18 38.38 2.66 38.5 3.15 38.74 3.63 38.86 3.63 39.1 3.39 38.98 3.27 38.86 3.03 39.23 3.03 39.83 3.27 40.07 3.27 40.31 3.03 40.56 3.15 40.44 3.51 40.19 3.75 40.19 4.12 40.44 4.48 40.68 4.48 40.92 4.24 41.28 4.12 42.01 4.24 42.13 4.36 42.37 4.24 42.25 3.87 42.62 3.75 43.1 3.63 43.46 3.39 43.58 3.15 43.83 2.91 43.83 2.66 44.19 2.3 44.55 2.18 44.79 1.94 45.16 1.82 45.64 1.7 45.76 1.82 45.76 2.06 45.52 2.42 45.16 2.54 45.4 2.78 48.43 5.08 52.66 10.41 53.15 10.29 53.39 10.17 53.51 9.93 53.39 9.81 53.39 9.44 53.63 9.32 54.12 9.56 54.12 9.81 54.12 10.05 54.48 10.17 54.72 10.41 55.09 10.41 55.33 10.29 55.57 10.17 56.05 10.41 56.42 10.29 56.66 10.29 57.02 10.17 57.14 10.05 57.02 9.81 57.02 9.69 57.63 9.56 58.23 9.56 58.72 9.69 59.32 10.17 59.56 10.65 59.69 11.02 59.93 11.02 60.29 11.14 60.65 11.38 60.77 11.38 61.02 11.5 61.02 11.74 61.02 11.86 61.02 12.11 61.14 12.35 61.26 12.59 61.38 12.59 61.5 12.59 61.86 12.71 62.11 12.83 62.23 12.71 62.47 12.59 63.32 12.47 63.68 12.47 63.8 12.11 64.17 11.99 64.41 11.99 64.17 12.47 64.29 12.71 64.53 12.83 64.89 13.07 65.5 13.32 65.62 13.44 65.25 13.8 65.01 13.92 64.53 14.41 64.53 14.65 64.65 14.89 64.41 15.25 63.92 15.38 63.56 15.62 63.56 16.1 63.56 16.83 63.92 17.43 64.17 17.92 64.17 18.16 63.68 18.64 63.32 18.77 63.08 19.13 62.83 19.25 62.59 19.13 62.59 18.89 62.23 18.89 61.62 19.13 61.14 19.01 60.41 18.77 60.05 18.77 59.81 18.77 59.69 19.61 59.56 20.1 59.56 20.46 59.32 21.43 59.32 22.28 59.32 22.52 59.44 22.64 59.93 22.76 59.69 23.12 59.69 23.37 59.44 23.37 59.2 23.49 58.96 23.49 58.84 23.37 58.6 23.49 58.11 23.61 57.38 23.73 56.9 23.97 56.66 23.97 56.42 23.85 56.05 23.97 55.81 24.21 55.81 24.45 56.05 24.7 56.54 24.7 57.02 24.7 57.02 24.94 56.78 25.18 56.9 25.67 56.9 25.91 57.02 26.15 57.14 26.51 57.51 27 57.51 27.24 57.87 27.6 57.99 28.21 57.87 28.45 57.75 28.81 57.99 29.06 57.87 29.18 57.75 29.42 57.51 29.66 57.51 30.02 57.14 30.27 56.42 30.02 55.69 29.18 55.33 29.3 54.6 28.93 53.51 28.93 53.03 29.06 52.18 28.93 51.33 29.06 50.97 29.18 50.48 29.06 50.24 29.3 49.88 29.42 48.91 29.3 48.18 29.06 47.94 28.93 47.34 28.93 47.09 29.06 46.73 28.93 46.37 28.93 46.25 29.06 46.25 29.42 46.37 29.78 46.37 30.27 45.88 30.39 44.79 30.39 43.46 30.27 43.22 30.02 42.62 30.02 42.25 30.39 42.37 30.51 42.01 30.75 42.01 30.87 41.89 30.87 41.52 31.36 41.28 31.48 40.56 32.33 40.31 32.81 40.07 33.05 39.83 33.66 39.1 34.26 38.86 34.14 38.14 33.78 37.53 33.66 37.05 33.78 36.32 34.26 35.96 34.14 35.23 32.2 34.02 32.08 33.9 29.54 33.29 29.78 32.93 28.69 31.96 28.09 29.18 28.09 26.63 28.33 25.18 27.48 24.09 27.12 21.31 25.18 16.83 26.03 18.16 34.26 17.92 34.26 17.19 34.38 16.1 33.17 14.89 32.45 13.8 32.2 12.95 32.57 11.86 33.53 11.86 33.05 11.74 32.69 11.98 32.2 11.98 31.72 11.98 31.48 11.98 31.36 11.86 31.36 11.5 31.36 11.26 31.23 10.9 31.11 10.65 31.23 10.53 31.23 10.41 30.87 10.29 30.75 10.17 30.51 9.93 30.39 9.81 30.51 9.56 30.51 9.32 30.51 9.44 30.14 9.32 29.78 8.84 29.18 8.84 29.06 8.72 28.93 8.6 28.57 8.35 28.45 8.23 28.21 7.87 28.09 7.63 28.09 7.38 27.84 7.51 27.6 7.63 27.48 7.75 27.48 8.23 27.48 8.47 27.6 8.6 27.6 8.72 27.6 8.96 27.48 9.08 27.36 9.44 27.48 9.44 27.48 9.44 27.24 9.08 27.24 8.96 27.24 8.96 27 8.6 26.64 8.6 26.39 8.72 26.27 8.72 26.03 8.72 25.91 8.96 25.67 9.32 25.55 9.56 25.42 9.93 25.55 10.17 25.42 10.53 25.42 10.65 25.55 10.78 25.42 11.02 25.42 11.26 25.79 11.62 25.79 11.98 25.55 11.98 25.42 11.74 25.3 11.38 25.3 11.14 24.82 11.26 24.45 11.5 24.33 11.62 24.21 11.5 24.09 11.38 23.97 11.38 23.73 11.5 23.37 11.5 23.12 11.26 22.88 11.26 22.64 11.38 22.52 11.38 22.4 11.14 22.28 11.02 22.03 10.9 21.91 10.29 21.91 10.17 21.91 9.93 21.91 9.81 22.03 9.69 22.16 9.69 22.28 9.44 22.4 9.2 22.28 9.2 22.16 8.96 22.16 8.84 22.28 8.72 22.03 8.72 21.79 8.72 21.79 8.6 21.91 8.35 21.91 8.11 21.79 7.75 21.79 7.51 22.03 7.38 22.28 7.26 22.28 7.14 22.16 7.02 22.16 6.78 22.52 6.66 22.4 6.54 22.64 6.17 22.88 6.05 22.88 5.93 23.12 5.81 23.25 5.69 23.12 5.57 23.12 5.45 23.25 5.21 23.25 5.08 23.12 5.08 23.12"/></g></g></svg>