<svg xmlns="http://www.w3.org/2000/svg" viewBox="0 0 44.67 54.48"><defs><style>.cls-1{fill-rule:evenodd;}</style></defs><g id="Layer_2" data-name="Layer 2"><g id="Layer_1-2" data-name="Layer 1"><path class="cls-1" d="M2.42,6.9,3,6.05l.36-.12.48-.72L5,4.24l.49.24L6.78,2.42,9,0l.6,1,1-.24.85.12V4.12l1,1,1,.25L14.53,5l1.33.37,2.66-.25,1,.61,2.18,2.18L23,8.72l.85,1.09.85.24h1.93l1.22.48,1.45-.12.85.24h1.93l1.33-2.18.49-.72,1.21-.49.85.13L36.44,7,39,6.66l.73.36.6,1.21,1,.49,1.94-.37h1.45l-5,4.73-.12,21.18,3.75,3.39V38l-1.81,2.18-.37.12-.6.61.24.61-1.82.6-1,1.33H36.44l-.6.24-.13.37L35,45l-.12.6.36.24-.85,1.34-.84,1.09v1.21l-.85,1.69L30.75,54l-1.09.48h-.48l-6.66-4.72L22,49.27l-.12-.72.24-.49-1.08-1.81L1.45,34.87H0l1.33-5.21.24-1.45,1-1L3.15,26l1-.85.36-1,.6-.6L5,23.12H6.9l.36-1.21v-.72l1.21-1.46.25-1.21-.37-1.09-.84-.72L8,16.1l-.6-.48-.73-.24-.61-1.7L4.84,12.47V11.38l-.36-1.09-.73-.24V9.2l-.48-.36L2.91,7.51,2.42,6.9Z"/></g></g></svg>