<svg xmlns="http://www.w3.org/2000/svg" viewBox="0 0 65.62 75.91"><defs><style>.cls-1{fill-rule:evenodd;}</style></defs><g id="Layer_2" data-name="Layer 2"><g id="Layer_1-2" data-name="Layer 1"><polygon class="cls-1" points="7.51 8.6 8.47 9.32 9.2 10.65 11.26 10.05 12.71 10.41 12.23 8.35 12.11 6.42 11.5 4.72 11.38 2.06 12.59 1.33 12.59 0.12 15.5 0 16.1 1.21 18.89 2.3 20.22 4.36 21.67 5.57 22.03 7.38 21.31 8.72 24.09 11.26 25.79 14.04 29.18 14.04 31.11 14.65 32.93 13.56 35.23 13.56 36.32 15.01 38.5 15.38 38.74 16.95 38.74 18.4 41.04 19.01 41.04 20.1 39.83 20.46 38.86 23.61 38.02 24.58 36.44 24.82 34.14 25.55 32.93 25.67 33.17 27 34.87 28.93 33.66 30.14 34.02 31.23 35.35 31.23 36.44 33.29 38.98 33.41 41.4 34.75 42.98 34.87 45.04 37.65 47.34 38.74 48.91 41.04 48.79 42.25 51.33 45.04 52.06 46.97 53.03 47.46 55.09 47.46 55.93 48.91 56.17 50.36 57.14 51.45 57.87 51.21 59.08 51.7 58.84 53.03 59.44 53.87 61.26 53.99 62.23 55.33 63.08 55.57 64.65 54.96 65.13 56.17 63.92 57.26 63.68 59.44 64.41 60.41 65.62 60.53 65.62 62.47 63.32 64.29 63.68 66.34 64.29 67.43 64.53 69.86 62.95 70.7 61.5 70.82 59.93 69.73 58.72 69.37 57.99 68.16 55.21 68.77 53.87 70.1 55.57 71.79 55.21 73.25 55.81 74.82 55.69 75.91 53.15 74.94 51.7 72.64 49.4 72.52 48.67 71.43 46.85 70.1 47.7 69.61 48.79 68.52 48.91 65.62 48.3 64.29 48.91 62.83 48.79 61.74 49.27 59.93 48.91 58.84 46.97 57.51 47.46 56.66 46.01 56.05 44.55 55.93 42.86 54.12 41.4 53.03 41.77 51.82 41.89 49.64 41.04 47.7 41.65 46.73 41.89 45.28 41.16 43.58 39.1 42.13 35.71 39.59 34.5 37.29 30.87 36.32 28.21 36.92 26.51 40.56 23.12 40.92 21.79 39.1 20.1 39.23 17.43 37.89 14.89 38.98 14.65 40.68 12.71 41.16 10.41 42.25 10.29 38.02 10.29 35.23 9.69 33.29 10.53 32.08 10.65 30.75 9.69 29.3 10.65 27.36 10.53 26.03 7.63 25.91 6.17 27.12 4.96 26.63 3.75 24.58 5.08 23.73 4.6 20.94 3.03 19.01 0.97 19.61 0 17.68 0.97 15.62 1.82 15.62 3.39 14.29 2.66 13.2 3.63 11.99 3.63 10.41 5.93 10.05 7.51 8.6"/></g></g></svg>