<svg xmlns="http://www.w3.org/2000/svg" viewBox="0 0 65.5 35.35"><defs><style>.cls-1{fill-rule:evenodd;}</style></defs><g id="Layer_2" data-name="Layer 2"><g id="Layer_1-2" data-name="Layer 1"><polygon class="cls-1" points="65.5 27.24 65.13 24.33 63.8 22.52 62.59 19.49 61.98 18.52 60.65 15.98 60.9 14.65 60.29 12.95 59.44 12.23 59.93 11.26 59.56 9.44 54.48 8.72 50.85 10.17 49.27 7.99 47.34 7.02 46.37 4.6 43.22 2.66 41.89 2.54 41.16 1.09 39.59 0 39.23 1.7 37.89 1.94 35.23 0 32.81 0.6 29.66 2.42 28.57 2.78 28.57 5.33 29.42 9.93 28.33 13.44 25.06 16.95 22.64 16.95 20.22 14.65 19.98 12.83 15.13 7.75 14.89 4.72 14.04 4.72 12.35 6.54 9.44 7.26 8.47 8.23 6.29 8.35 4.72 10.65 4.96 12.71 4.12 12.47 4.24 15.98 1.45 19.25 1.33 21.19 1.45 23.12 0 24.58 1.09 29.42 2.3 30.63 2.3 30.99 4.12 30.51 4.84 28.33 7.75 25.79 12.47 24.58 15.98 24.94 18.4 24.82 19.73 25.91 21.79 24.33 23.85 24.09 24.33 25.3 26.03 25.42 27.72 27.36 30.99 27.24 31.96 27.72 35.23 25.55 38.86 27.24 42.01 27.84 44.67 30.87 46.97 31.23 49.27 34.38 52.3 34.5 53.27 35.35 53.27 35.35 56.54 33.9 60.9 33.29 61.26 30.63 63.08 29.78 63.8 27.72 65.5 27.24"/></g></g></svg>