<svg xmlns="http://www.w3.org/2000/svg" viewBox="0 0 60.9 65.74"><defs><style>.cls-1{fill-rule:evenodd;}</style></defs><g id="Layer_2" data-name="Layer 2"><g id="Layer_1-2" data-name="Layer 1"><polygon class="cls-1" points="0 27.6 0.6 25.3 2.18 21.31 5.81 19.61 8.96 15.98 8.6 13.68 10.05 9.56 12.11 8.6 12.11 6.42 13.07 3.27 16.95 1.57 18.28 2.06 24.7 0 27.6 1.33 29.54 4.72 32.45 6.42 32.08 12.35 31.6 15.5 35.47 20.1 37.17 19.49 41.77 16.1 43.34 16.59 45.64 18.77 46.37 20.34 45.76 21.67 46.85 24.58 44.31 30.27 42.13 32.57 42.98 35.47 45.52 36.32 46.61 35.59 49.27 35.59 50.97 37.77 52.91 37.29 54.84 38.26 55.81 41.28 57.99 42.74 60.05 42.86 60.9 45.88 58.84 47.58 59.93 49.4 58.6 51.33 57.87 53.87 58.84 56.3 57.51 59.69 58.96 62.23 59.08 65.74 44.19 60.29 32.69 51.82 29.42 51.45 20.1 42.01 13.8 37.77 11.5 37.65 7.63 32.2 5.08 30.99 6.17 28.81 3.87 27.6 0 27.6"/></g></g></svg>