<svg xmlns="http://www.w3.org/2000/svg" viewBox="0 0 56.17 52.18"><defs><style>.cls-1{fill-rule:evenodd;}</style></defs><g id="Layer_2" data-name="Layer 2"><g id="Layer_1-2" data-name="Layer 1"><polygon class="cls-1" points="52.66 52.18 52.66 50.85 56.17 50.6 54.6 14.77 54.24 12.95 53.75 11.99 54.24 10.78 54.72 9.56 54.72 8.72 54.24 7.75 54.6 6.29 54.84 5.69 54.48 4.6 53.99 4.12 53.27 4 52.66 4.12 50.24 3.75 49.76 3.39 48.79 3.27 47.46 2.91 47.22 2.54 47.46 2.42 47.46 1.94 45.88 1.09 45.16 1.09 43.95 0.73 43.58 0.6 43.22 0.97 42.49 0.6 42.13 0.6 41.04 1.09 39.23 1.33 37.77 2.06 36.8 2.91 36.68 3.87 36.2 4.24 36.08 6.05 36.68 7.14 37.17 8.6 36.8 9.32 35.96 10.29 35.84 10.65 34.63 11.74 33.78 11.99 32.2 11.38 30.87 10.17 29.78 9.32 28.09 8.47 25.42 7.38 24.21 7.14 23.85 7.38 22.4 7.38 21.31 6.78 20.1 4.6 20.1 3.51 19.25 2.3 16.95 2.06 15.74 1.21 13.68 1.21 12.59 0.73 10.05 1.21 8.23 0.85 7.63 0.12 6.78 0 6.66 0.24 6.9 1.7 7.14 1.94 6.29 3.15 4.24 4.48 4.24 4.96 3.63 5.81 2.78 5.81 2.3 6.17 2.18 6.54 2.06 7.02 2.42 8.23 2.54 9.08 2.3 9.32 2.3 9.56 2.06 9.93 1.7 10.53 1.21 10.9 0.97 11.14 0.48 11.14 0.48 11.14 0.24 11.38 0.24 12.59 0.6 12.83 0.97 13.68 0.97 16.1 1.09 17.43 1.09 17.8 1.21 19.61 1.7 20.7 1.33 22.64 1.21 23 1.57 23.85 1.7 25.18 1.33 25.67 0.48 26.27 0.24 26.63 0 26.88 0.48 27.48 1.33 28.57 2.06 30.02 2.18 30.14 2.42 31.11 2.3 31.6 2.42 32.57 2.9 33.05 3.03 33.78 3.39 34.14 4.84 34.14 6.17 34.26 6.78 34.63 7.26 35.47 7.99 36.92 8.35 37.29 8.84 37.77 9.32 38.26 15.62 39.83 16.22 40.44 23.49 37.41 52.66 52.18 52.66 52.18 52.66 52.18"/></g></g></svg>