<svg xmlns="http://www.w3.org/2000/svg" viewBox="0 0 65.62 48.06"><defs><style>.cls-1{fill-rule:evenodd;}</style></defs><g id="Layer_2" data-name="Layer 2"><g id="Layer_1-2" data-name="Layer 1"><polygon class="cls-1" points="21.31 34.99 20.82 30.39 22.4 28.33 21.07 26.88 19.37 26.51 19.01 23.97 17.19 23 12.23 24.09 8.84 22.4 5.21 17.43 0.73 18.4 0.12 18.04 1.21 16.1 0.24 12.83 0 8.96 2.3 8.23 3.27 5.57 7.02 2.18 12.95 0.73 17.68 1.21 20.7 0.97 22.52 2.42 25.06 0.36 27.72 0 28.33 1.7 30.63 1.7 32.81 4.24 36.8 4.12 38.14 4.72 42.37 1.94 47.09 4.12 51.09 4.84 54.6 8.72 57.38 9.2 60.41 13.32 64.29 13.44 65.62 14.53 62.47 18.52 64.65 19.49 64.65 22.16 60.05 24.33 57.51 28.69 55.69 29.06 54.84 33.05 58.35 34.75 58.35 37.65 55.45 37.65 54.48 36.08 52.18 36.92 50.85 40.31 47.09 40.56 48.43 44.31 46.13 44.55 42.74 46.25 39.23 44.55 34.5 46.01 31.6 48.06 29.9 45.4 30.14 42.25 28.69 37.29 26.88 37.17 23.85 34.75 21.31 34.99"/></g></g></svg>