<?xml version="1.0" encoding="UTF-8"?>
<svg id="Layer_1" data-name="Layer 1" xmlns="http://www.w3.org/2000/svg" viewBox="0 0 1960.19 1305.06">
  <path d="M524.73,1305.06c-5.73-2.64-5.01-7.38-9.52-10.98-2.19-.79-1.47,2.51-2.89,2.73-1.72.27-8.24-1.13-8.58-3.73.55-.54,6.99-.04,5.99-2.49-3.5-4.69-9.01-3.54-13.97-4.54l-.02-2.96,4-1.98-4.5-3.01-1.49,2.99c-5.89-.49-10.88-6.18-1.31-4.16,3.43.73-.38-3.34-1.79-4.27-.9-.59-2.67-.44-2.87-.62-.31-.28,1.63-5.2-2.01-7.52l-3.99.58c-.37-2.59-.03-2.56,2-3.48-1.72-3.49-5.86-5.09-5-9.51,2.27.51,7.54,11.3,9.97,5.48.79-1.88-5.29-2.71-6.5-5.52-.55-1.29.42-2.68.08-3.99-1.01-3.81-.66-3.24-1.13-5.97-.33-1.91-2.61-5.53-3.42-7.5,1.74-.97,4.4-.23,5.55-2.47,1.37-2.67-3.25-3.45-2.56-6l4-1.54-5.01-10.45c-.96-.92-5.54,2.89-4.97-.5,6.11-3.51,2.5-3.05,2.36-5.98-.07-1.59,1.72-3.71,1.64-5.53l3.97,1.01c-1.22-3.69,4.87-5.75,3.99-2.52s-4.32,2.59-3.98,5.5l4.99,1.02c.46-.49,1.06-12.7.84-13.33-.49-1.44-4.71-2.53-3.84-5.65l4-1.51v-14.99c0-.19-2.6-2.78-2.99-2.5l-1.02,12.98c-8.03-.9-6.38-12.25-6.03-18.52.59-10.63,1.83-9.55-.52-20.38-2.1-9.68,2.83-13.53,5.27-21.83,1.55-5.25,4.8-22.81,4.2-27.61-.3-2.37-1.96-4.33-1.72-6.84.3-3.13,3.36-7.31,3.58-11.54.44-8.78.45-9.23,2.11-17.79,3.18-16.35,5.78-44.43,2.88-60.61-.85-4.75-12.03-13.44-16.28-16.7-4.02-3.08-18.12-10.88-19.95-13.03-1.67-1.96-4.26-14.31-5.76-18.22-3.71-9.72-9.41-22.83-15.82-30.93-5.43-6.86-15.05-8.81-7.17-20.51,2-2.96,4.84-2.91,5.92-6.94.38-1.41-.89-3.59.32-5.3-2.53.2-4.7-.29-5.96-2.62l2.79-5.26c-4.98-.99-.21-2.15.13-2.84,1.37-2.79,1.58-8.49,3.96-10.84,2.11-2.08,4.88-.92,6.67-2.32,1.67-1.31,1.33-4.65,2.49-6.5s4.25-2.32,4.77-4.3c.44-1.67-.77-3.37-.56-4.66.38-2.44,1.79-4.07,1.72-7.08-.03-1.51-2.53-14-3.02-15.82-.29-1.1-3.77-1.85-4.55-3.73-.82-1.97,1.7-4.83-.04-6.07-9.01-5.17-9.89,9.71-14.9,9.16-2.55-.28-2.97-4.18-5.81-5.36-2.25-.94-4.37.84-5.73-.11s-1.07-4.26-2.23-5.34c-.23-.22-5.38-2.75-5.69-2.83-2.12-.52-5.04,1.92-6.03-1.41.62-.48,4.95,1.15,3.99-1.49-1.44-3.94-5.26-4.11-8.98-4.52,2.55-5.76,3.99-9.21-1.44-14.04-9.53-8.47-18.59-6.95-27.69-12.29-5.46-3.21-7.45-11.55-10.86-13.11-6.46-2.95-15.54,6.49-23.26,3.25-11.96-8.73-35.46-14.85-45.72-24.23-10.43-9.53.43-11.13-2.44-20.55-.71-2.34-8.55-13.35-10.58-16.17-1.87-2.6-6.29-5.72-7.86-8.45-.87-1.52-.45-4.01-.97-4.64-.88-1.07-6.35-3.54-7.65-6.68-.6-1.45.6-2.84.32-4.25-1.18-5.94-6.54-6.69-9.19-10.81-.64-1-5.56-10.84-5.62-11.47-.24-2.72,2.85-4.28,3.03-6.99.4-5.94-8.12-8.9-12.87-8.3-3.97,9.05.96,14.93,3.9,22.33,3.2,8.03,7.25,17.16,9.72,25.31.86,2.85.02,5.78.97,7.9,1.78,3.96,8.26,4.45,8.32,10.78,0,.72-.87,4.33-1.06,4.5-1.73,1.61-3.05-3.43-3.98-4.5-1.79-2.06-7.77-6.88-8.49-8.5-1.03-2.33-.15-4.88-.74-7.25-2.65-10.57-11.25-11.96-16.75-20.22,14.98-.83,5.95-6.12,2.16-12.15-2.76-4.39-6.6-16.82-7.11-21.92-.59-5.89,3.33-6.94-2.72-11.22-2.67-1.89-16.24-8.07-16.9-9.15-.59-.96.69-4.02.4-6.24s-3.19-11.11-4.09-13.98c-1.42-4.49-7.03-14.79-7.7-18.28-.2-1.05-1-14.01-.87-14.73.31-1.71,2.45-3.72,3.15-5.93,4.18-13.17,12.47-44.52,10.74-57.3-.37-2.71-2.18-4.56-2.86-7.23-.37-1.43.68-3.17.27-4.27-1.13-3.05-16.61-14.64-15.44-19.41,6.3-4.04,8.38,2,11.99,4.99,5.18,4.28,10.68,8.76,15.99,12.5,1.2,3.63-5.93,3.35-4.98,5.46l4.99,2.53-2.03,3.48c.57,3.2,4.56,5.24,5.04,1.01.12-1.06-.71-2.51-.63-3.83.33-5.61,2.18-8.21-2.38-13.15-2.21-2.4-8.61-4.57-7.49-7.5l4.51,1.98c-2.38-2.85,3.33-1.48-.49-4.03-1.89-1.27-4.89.47-6.48-.45-1.69-.99-1.98-3.77-3.65-4.26-1.07-.31-4.64.77-6.37-.25l4.97-2.48c-2.04-4.94-8.51-4.5-4.77-10.84,1.16-1.95,4.04-1.46,2.76-5.61-3.29.35-5.03-1.14-6.96-3.55,2.51-1.23,4.86-3.44,3.53-6.51-.87-2.08-6.45,1.22-6.51-1.47-.03-1.59,2.13-3.04,3.85-2.57l.13-5.92c-4.99,1.18-7.9-2.03-4.46-5.99.94-1.08,2.79-.7,3.54-1.65,4.18-5.32-3.65-6.54-4.1.65-2.19-.87-7.8-2.91-7.99-5.52-.03-.35,2.64-.48,2.44-5.98-.11-3-2.18-6.64-2.17-7.01.02-1.22,7.07-5.3,4.73-9.47-4.5-1.07-3.66,5.74-7.98,6.99l-1.08-9.92-3.92-.08-.99,4-1.02-9.98c-8.63,1.56-6.2-.92-8.2-5.19-1.46-3.1-6.57-10.29-7.19-12.76-.43-1.7.95-3.11-.09-5.04-2.31-4.28-2,6.41-3.99,4.99-4.49-3.38-10.4-4.37-15.21-6.78-4.66-2.34-7.66-7.85-14.3-6.2l-1.06-11.93-3.93-.05,2.99,3.48c-4.96,1.74-5.66,7.71-9.02,9.97-2.75,1.85-6.55,1.85-9.65,3.34-4.19,2.02-7.56,5.66-12.3,6.18-.49-2.51,3.07-3.21,3.01-5.47s-3.29-2.59-1.26-7.25c1.49-3.42,12.47-10.1,15.26-13.74,1.64-.78.04-2.48-.51-2.49-.49,0-8.66,3.63-9.06,3.92-1.35.98-3.67,5.03-5.98,7.02-3.27,2.82-8.6,5.1-11.15,7.35-2.45,2.16-2.99,5.99-4.41,8.1-.96,1.43-2.77,1.48-2.87,1.61-1.21,1.67,4.9,2.8-1.1,7.38-11.34,8.66-25.92,16.96-37.84,24.12-8.99,5.4-6.86,3.2-15.91,6.08-2.51.8-13.09,8.14-15.14,6.34,1.18-6.65,9.5-5.1,13.51-7.96,2.1-1.5,3.44-5.61,5.51-6.55,2.24-1.03,5.07.68,8.7-1.18,13.56-6.96,12.92-12.24,20.38-22.64.29-.4,7.58-6.12,2.43-5.58-4.62.48-8.08,3.57-12.55,3.95l.93-5.37c-2.25-4.72-11.66,1.29-12.92.38-3.21-7.39,5.47-10.42,3.98-17.98l-13.98,2c.64-5.23,2.14-9.92,2.04-15.47l-3.02-.56.06-5.3,5.91-3.16-3.97-7.01c.02-1.58,4.28-5.65,5.64-6.37,2.62-1.37,5.56.09,7.62-1.05,1.3-.72.46-3.27,2.32-3.92,1.83-.64,5.17.17,7.65-.35,2.13-.44,12.91-4.01,13.82-5.17,3.02-3.87-1.63-7.27-.96-9.88.47-1.83,3.8-3.28,4.43-4.74.79-1.84-.65-3.61-.43-3.88.33-.43,2.3.65,1.87-1.06-5.06.01-7.47,6.8-12.54,7.94-2.72.61-.53-2.64-1.99-3.02-7.15-.95-17.72,5-21.51-3.44l3.96-4.81-6.87-10.07c.25-.84,14.3-6.15,15.46-6.18,1.43-.04,3.3,1.35,5.08,1.52,3.53.33,6.93-.33,10.42,1.08l-1.01,3.98,9,1-.58-4c1.54-2.44,9.27-1.63,7.57-5.47-1.06-2.39-8.11-.82-8.98-4.49,2,.14,2.37-.41,1.92-2.45l-3.5-2.51-2.43,3.46c-3.42.05-.49-4.7-1.04-7.93-.8-4.76-9.81-14.37-5.73-18.33.61-.59,13.04-3.88,16.13-5.35,7.32-3.47,14.59-9.24,21.22-12.72,4.4-2.31,12.97-3.99,14.7-5.09.9-.57.98-2.49,2.32-2.9,1.64-.51,3.9.32,5.17-.36.6-.33,1.57-4.1,3.91-4.68,2.74-.68,4.87,4.24,8.18,1.78l.11-4.89,3.8,2.59.24,8.34,9.28.22c2.22.73,1.77,4.36,4.38,5.62s7.08.91,10.11,1.89c2.54.82,4.57,2.86,7.18,3.81,14.59,5.28,32.04,8.16,42.98,18.98,2.32,2.29,4.07,6.87,7.51,7.51,8.41,1.58,13.73-8.63,18.96-12.98,2.1,2.12-1.23,1.77-1.48,2.69-.34,1.24.15,2.71-.53,4.27-.79,1.8-3.89,2.89-4.49,5.01l23.68-11.82,2.25,1.4-.94,4.43,8.41-.88c.76-.55.46-14.41,5.56-11.1.74.48,1.97,16.39,4.53,16.98,7.07-1.72,1.3-9.82,6.97-10.98,3.07,2.21,1.81,9.88,4.5,11.53,3.11,1.91,5.93-2.31,9.29-1.4,1.92.53,4.34,4.79,7,6.07,2.44,1.17,5.62,1.31,8.39,2.6,3.32,1.55,16.08,7.32,17.86,9.13,5.03,5.15-7.29,8.27-3.42,14.92,4.84-.05,8.58,2.6,13.39,3.1,6.75.7,12.98-1.38,19.52-.52,1.44.95,2.86,11.04,2.67,12.9-.21,2.05-3.6,4.53-.21,6.6,3.38-1.66,1.54-4.37,2.12-6,1.01-2.8,3.95-7.3,4.13-10.65.13-2.33-7.36-10.31,1.51-9.11,4.58.62,1.06,4.34,4.71,3.77,4.66-6-.14-4.43-.88-6.56-1.26-3.6,1.08-5.72,4.42-2.43,3.33,3.29,4.29,4.29,6.24,7.73,3.05,5.41,9.03,4.05,13,6.01,2.01.99,2.38,3.57,3.89,4.1,4.89,1.7,13.41-2.83,15.78,3.02,6.34-1.29,5.13-3.23,7.31-8.37l-5.76-5.47c4.8-1.18,5.67,1.9,8.63,3.87,1.24.82,3.33.69,4.1,1.39,1.8,1.64,2.68,7.35,1.27,9.71,6.5.27,4.45-4.17,5.24-6.22.46-1.2,2.82-7.14,3.04-7.49,1.15-1.79,4.03-1.69,2.84-7.13l3.94-1.74c.32-4.2-4.12-5.45-5.98-8.2-.65-.96-5.24-10.07-5.09-10.64.52-1.95,4.16-1.13,4.83-1.69,1.8-2.51-.54-5.61-.41-7.31.39-5.15,8.41-10.44,12.06-13.58,2.33-.02,6.81,7.56,7.28,9.79.94,4.45-1.1,7.41-.77,10.68.26,2.66,3.93,5.87,3.67,8.11-.14,1.24-3.39,2.34-2.65,4.9,1.31,2.29,4.57,1.69,6.24,2.54,4.32,2.2-4.26,10.76-4.76,12.88-.37,1.6.71,6.61,2.97,6.12,2.54-.55,7-13.44,12.46-8.44,8.42,7.71-8.63,18.96-2.4,26.42l6.26-2.16c.4-1.59.02-3.2.71-4.78,2.86-6.48,11.93-16.28,14.28-21.24.32-.68-.81-8.15,2.21-10.35l-4.94-4.99c-1.9-.44-4.51,3.24-6.63.62l-.26-3.86c1.49-.24,2.88-2.28,3.77-2.6,1.71-.61,5.36,2.1,5.02-1.06-2.06-3.26-12.42,1.13-13.99-.52v-2.99s5-1.49,5-1.49c-4.37-3.21-8.04-3.93-6.98-10.5l2.47,1.98c1.42-.43,1.47-4.69,1.12-5.54-.55-1.33-2.19-1.2-2.43-1.58-1.5-2.45,2.39-4.25,3.26-5.92.87-1.68,1-3.68,1.83-5.17,5.48-9.9,17.08-25.29,29.72-17.25.87,3.63-1.65,1.84-3.45,3.5-4.71,4.32-12.54,25.47-10.87,31.72,2.31,8.64,8.8,4.78,5.22-.19-1.33-1.85-3.58-.75-2.68-3.81,1.66-5.65,4.47-2.32,5.31-3.7.76-12.43,2.68-25.22,17.43-27.01,2.6,5.83,2.35,14.34,9.02,16.96l-4.56-15.03c5.46-2.41,13.96-2.95,18.81,1.02,1.57,1.29,4.55,6.09,3.31,8.04-.61.95-15.11,7.37-17.56,6.99l2.01,4.97-9.91,2.09c-1.18,9.86,6.9.81,7.91,1.92l1.48,3.98c7.24-6.98,10.14-6.34,19.48-4.01l1.01-2.48c-3.81-3.42-9.33-2.85-13.97-1.5,1.09-7.83,10.64-7.89,16.86-4.88,1.78,2.56-2.07,6.55-1.86,6.85.05.07,1.28-.17,1.61.34,3.06,4.73-2.88,4.76-1.15,8.68,1.07,2.43,4.55.83,7.34,1.64,5.97,1.72,11.24,8,11.28,14.24,4.02,1.89,5.1-1.82,5.41-1.91,4.2-1.19,2.15,3.46,3.4,5.28,1.96,2.87,9.12,2.98,7.08,9.72l-5.99-2.99c-1.3,5.79,4.35,4,5.97,8.49l-4.98,1.5c3.4,4.78-1.98,9.82-1.95,12.5.02,1.44,2.63,3.68.96,6.47,6.84-3.13,8.64,3.78,7.99,8.99,2.8.04,2.84-2.88,5.95-1.51.44.19,4.51,3.42,5.07,3.99,1.59,1.64,5.11,8.31,6.44,9.53,1.55,1.44,4.19.55,5.51,2.48-2.95,1.43-2.92,5.89-4.49,7.49-.95.97-2.8.97-3.92,2.07-3.29,3.22-4.43,9.35-10.11,10.98l-4.3-2.74.76-6.21-9.51-3.04.42-5.85-6.82-2.18,1.99,5.98-5.91-.91c-4.03,8.08,2.44,7.93,5.39,11.93,2.42,3.28-.09,9.93,7.2,12.34.51,3.39,4.76,4.56,5.08,8.29.34,3.92-4.88,4.57-5.62,7.03l.85,9.29c-4.34.22-16.84-16.19-19.96-13.98-2.88,5.38,2.36,6.8,5.5,9.94,2.91,2.91,6.55,5.89,8.49,9.52,0,2.62-3.57-.17-6.31.68-1.67.52-2.53,2.17-2.72,3.82l-1.35-.11c-4.09-.69-8.27-7.56-9.9-8.6-.98-.62-2.86-.3-4.27-1.2-3.3-2.11-9.65-5.07-9.98-8.99-.2-2.31,4.19-6.05,1.04-8.06-4.03,4.87-7.53-1.11-9.12-5.08-6.73-1.89-18.21,5.67-22.43-.38-3.3-4.73,2.97-3.59,3.91-7.28.56-2.22-1.44-4.89-.74-6.11,6.49-5.05,6.97-1.07,11.42-.2,15.88,3.09,10.81-11.74,17.01-18.88,3.15-3.62,7.45-3.11,10.42-6.57l-3.98.51c1.87-4.85,6.4-12.71-2.01-12.98l-1,2.99c1.44-3.84-2.3-6.56-2.79-8.74-.44-1.93,1.65-4.83-1.23-6.82l-4.02.03c-3.01-1.78-.56-4.21-1.61-7.2-.13-.36-3.79-3.9-4.72-5.36-1.81-2.84-.97-6.76-6.04-5.89-1.47.25-2.68,1.96-3.9,1.84-1.23-.12-2.52-1.85-4.17-1.8-1.49.04-9.4,4.09-10.84,3.81-.91-.18-2.75-2.59-4.63-3.36-1.46-.61-9.5-3-10.01-2.47.01,7.21,14.36,9.5,14.95,16.53.84,9.96-14.85,15.74-6.11,25.18l-.31,2.24c-3.85,4.19-8.84,6.67-14.54,7.02l1,5.98-5.38.95-2.57-4.52c-4.94-1.43-4.99,5.11-7.06,7.07-2.49,2.35-9.46,2.92-9.99,9.5-2.13-1.51-10.22-11.37-12.98-8.98,1.71,4.97,5.73,8.97,10.9,10.08-.21,11.13-8.12,11.26-15.22,15.11-4.1,2.23-3.03,7.59-11.67,3.78l2.01,5.51c-7.81,9.88-31.56,27.53-30.68,41.81.34,5.45,7.68,6.69,7.68,11.13v16.49c3.8.69,7.56-1.74,11.24-.78,2.02.53,18.52,13.28,21.97,15.76,1.23.88,1.6,2.63,3.41,3.87,4.44,3.04,11.23,3.69,16.42,4.57,1.6,1.09.28,16.15-.03,19.08-.47,4.52-5.04,7,2.96,8.46l.99-3.99c2.42,4.92-.91,5.09-1.03,5.63-.85,3.81,3.44,8.65,7.45,8.31l2.1-2.96c1.69-.48,1.63,3.49,5.48,2.01,1.6-4.4-2.33-9.26-1.81-12.81.35-2.37,1.81-3.65,1.88-5.63.11-3.4-2.19-7.43-.86-11.85.79-2.63,12.97-5.32,16.38-9.6s2.25-19.56.15-24.3c-1.57-3.54-6.76-5.15-6.81-9.23-.1-7.75,10.4-7.13,11.57-12.39.46-2.08-1.68-5.74-1.56-8.61.25-5.68,7.65-13.53,3.06-21.49,9.2,1.77,29.27-1.35,29.02,11.95l7.96-.96-2.92,5.35c2.08,2.75,4.14,5.22,7.93,4.64-2.56,8.64-.23,18.13,0,26.97,3.71,1,2.79-2.08,4.98-2.99,1.49,9.27,9.5,3.28,12.99-1.52,1.94-2.66,4.88-12.16,5.97-13.02,1.82-1.42,7.03,6.62,7.82,8.25.85,1.76,2.66,10.07,2.27,11.64l-2.04,1.62c4.44.72,1.71,7.71,2.09,11.39.36,3.45,2.17,5.93,3,9.13l-2.09,2.46c2.46-.43,1.94,2.37,2.97,3.5,3.56,3.9,7.33,4.36,10.76,8-5.08,8.22-8.56,17.37-11.01,26.73-1.1,4.21-4.27,24.84-5.21,25.77-2.12,2.09-18.34.55-22.91,1.08-10.45,1.22-23.51,10.87-30.59,18.38-.66.7-8.27,10.48-3.52,8.48,3.13-1.32,9.06-8.04,12-9.99,5.54-3.68,18.17-7.05,22.48-.49-5.47,3.78-4.13,7.76-2.98,13.48l-3.03.65.04,7.36c3.27-1.84,4.96.14,1,1.49,5.83,8.15,14.28,0,21.98.51.33.32-.94,8.03-1.51,8.97-1.15,1.88-18.53,7.82-22.17,9.81-2.81,1.53-6.22,7.55-7.06,1.43-1.03-7.48,5.02-8.39,8.77-13.21-5.76-.9-9.51,3.18-14.3,5.18-9.18,3.81-23.65,7.41-23.67,20.3,0,1.73,1.69,5.36.93,6.42-.33.46-3.76.6-4.93,1.61-1.17,1.01-.41,2.95-2.2,3.8-5.17,2.46-4.46-1.53-6.21-1.38-7.39.65-4.7,8.45-7.54,12.58-1.66,2.42-5.57,2.5-6.56,4.44-1.18,2.3-.41,7.49-1.97,10.02-2.35,3.81-3.18-6.75-2.52-8.01l-2.54.99c-.89,1.34,4.43,19.75,2.35,23.27-1.67,2.84-8.02,5.2-10.73,7.28-5.75,4.4-21.77,16.44-23.37,22.6-1.3,4.99-.58,15.03.4,20.21,1.14,5.97,7.05,11.31,3.33,17.49-1.44,2.39-4.99,6.89-7.71,5.9-1.52-.55-6.29-10.45-7.19-12.83-2.03-5.33-2.54-17.44-4.01-19.97-1.85-3.18-6.05-.73-8.52-1.39-1.78-.48-8.12-5.6-9.48-5.6h-18.99c-4.21,0-2.67,5.99,1.49,6.01-1.39,7.03-7.19.54-9.69.16-1.5-.23-3.09.89-4.57.6-5.73-1.1-7.9-3.85-14.99-2.54-5.08.94-5.82,4.23-9.25,6.73-2.68,1.95-7.8,4.21-9.49,6.5-3.17,4.29-.18,7.33-1.18,11.8-.52,2.34-3.23,4.79-4.12,7.88-1.95,6.79-1.95,20.08-.45,27.08.43,2,10.51,17.49,11.78,18.19,3.72,2.06,8.73-1.06,12.41-.49,2.41.37,3.81,3.12,7.1,3.08,3.48-.04,4.08-2.91,6.54-4.51,1.18-.77,3.58-.31,4.47-1.52,1.85-2.51.27-11.68,4.5-14.49,2.81-1.87,17.53-3.77,20-2.09,1.81,1.23.67,3.72.27,5.37-2.73,11.19-9.86,22.58-14.31,33.15,1.36,1.22,13.47-2.04,16.44-2.03,3.15.01,14.42,2.37,16.05,5.02,1.31,2.13-2,17.6-2.5,21.51-.36,2.8.54,6.33-.02,8.82-.2.88-2.56.45-2.04,2.15,3.95,5.5,7.89,10.27,14.58,12.54,2.76.02,2.9-7.32,11.7-5.81,5.98,1.02,7.57,5.83,12.11,8.71,1.8-.41,11.51-15.96,17.66-18.38,3.19-1.26,6.79,0,10.53-1.46,3.86-1.52,4.74-5.9,9.91-6.1,2.1-.08,1.8.62,1.33,2.34-.84,3.09-11.69,18.38-5.19,20.56l3.37.12c.7-6.61-3.64-9.26,3.31-13.19,1.33-.75,8.2-3.51,9.45-3.65,4.51-.49,3.74,4.61,6.5,6.15,6.54,3.63,11.52.09,16.96.87,5.1.73,9.12,7.01,14.75,5.81l-3.99-2c1.66-8.28,7.79-5.44,13.98-4.98-1.32,2.35-6.36,2.09-5.99,5.98l9.99-.98c-1.65,2.98-3.75,5.25-3.01,8.98,6.66-.33,15.73,7.58,20,12.49,1.21,1.39,1.91,4.36,2.98,5.02,1.95,1.2,7.49.21,10.38.61,7.18,1,21.78,5.83,26.1,11.88,1.93,2.7,2.51,8.7,3.74,12.25,1.06,3.04,3.38,5.09,3.88,8.25-2.5,4.75-9.35,5.3-10.09,11.47l6.46-5.73,13.43,4.82c1.58,4.88-5.7,5.64-5.9,10.9,3.6-.46,4.99-6.08,8.01-7.47,1.58-.73,2.71-.63,4.36-.47,1.38.13,16.47,5.3,17.18,5.87.92.74,2.48,4.4,2.48,5.52,0,.32-3.39.96-2.05,3.55,2.77-.05,4.63-1.09,4-3.99h1.48c3.95,1.01,8.34,4.1,12.24,4.76,3.19.54,6.61-.29,9.52.47,3.17.83,9.84,7.39,13.43,9.56,5.48,3.31,15.82,5.29,17.05,11.93,5.4,29.15-23.78,33.58-24.78,56.67-.34,7.83,1.4,14.29-.4,22.59-1.02,4.69-11.11,25.93-14.12,29.85-4.49,5.84-6.31,1.37-10.69,2.21-.65.12-9.64,4.28-11.09,4.99-4.98,2.45-17.72,9.94-18.57,15.41-1.27,8.11,2.32,13.49-4.03,21-.68.8-2.54,1.14-2.82,1.63-.68,1.21.11,3.53-.43,5.05-1.91,5.39-3.44,9.61-9.77,6.74.39,3.91,2.7,7.48-1.62,9.94l-3.37-1.95c1.17,9.08-6.53,16.24-12.04,22.5-1.83.82-16.35-1.19-18.29-2.43-2.07-1.33-1.05-9.09-7.65-9.08,1.27,4.33,1.16,9.56,2.77,13.71,2.64,6.77,11.89,10.37,7.09,19.65-6.21,11.98-20.19,11.95-31.85,10.62-.99,3.15,2.72,13.27.37,15.09-5.51,4.28-10.42,1.11-16.37.9l4.01,11.99c1.56-1.37,9.74-2,8.97,1.46-3.23,6.13-8.89-.38-9.97,6.97l3.04,2.13c-1.89,3.7-2.44,9.2-4.29,12.68-5.78,10.83-20.91,7.67-5.24,21.69,3.84,3.44,10.04,3.66,5.92,9.97-5.03,7.69-11.95,14.84-16.25,23.71-2.3,4.73-2.7,6.76-.17,11.6,2.76,5.29,2.93,8.83,5.43,13.75,3.41,6.7,9.59,13.29,17.13,14.85,2.39.49,7.23-1.38,6.41,2.08-2.98,1.1-6.58-.61-9.28.18-2.56.75-9.16,8.56-12.71,9.82h-3ZM225.88,240.86c1.01.8,9.16-2.71,9.97-4.49.15-3.31-10.55,1.5-9.97,4.49ZM168.9,384.75c-.68-3.44-.27-8.41-3.98-9.99l.97,9.33,3.01.66ZM445.77,561.12v-15.99c0-3.26,9.23.28,10.99.5,2.22-2.56-4.98-11.46-7.72-12.76-3.6-1.71-11.61-1.27-13.87-3.12-2.82-2.32-3.35-13.49-5.47-16.51-1.2-1.72-3.38-1.5-4.45-2.55-1.62-1.59-2.95-5.28-5.2-5.88-3.26-.88-13.33,7.55-16.96,9.66-2.33,1.35-12.97,5.32-13.29,6.71-1.26,5.42,9.7,2.33,11.4,2.49,2.22.2,4.76,2.31,7.33,2.75,4.06.7,8.95-.87,12.23,1.81.69.56.9,2.15,1.19,2.31.62.35,6.93-2.38,8.82,1.63,1.47,3.09-7.02.24-8.39,1.37l-.61,3.11c-1.87.3.03-2.45-2.42-1.95-1.11.23-4.03,3.76-4.47,4.77-1.49,3.39-6.68,24.85-5.91,27.46.28.96.98,1.7,1.8,2.23,1.37.72,3.59.97,4.56-.47.42-.63,2.35-12.08,3.19-14.79,2.36-7.62,4.92-15.17,14.05-16.02,4.42-.41,4.91,1.13,7.2,4.3l-2.88.57c.27,3.31-2.34,8.11-.57,10.92.39.62,1.83.71,2.43,1.77,4.57,8.08-6.23,8.43-6.75,13.87-.84,8.82,17.9,1.45,21.71-1.21,2.5-1.75,3.98-4.46,6.81-6.18,3.38-2.06,15.65-4.64,16.2-5.29,2.73-3.28-3.99-6.79-7.73-6.26-10.21,1.45-11.53,9.52-17.49,11.53-1.64.55-4.99,1.69-5.73-.73ZM621.68,875.39c-4.63-.79-7.92,1.22-10.97,4.49,1.54,2.13,1.79,1.35,3.68.71.85-.29,9.19-3.64,7.29-5.2ZM498.33,1271.13l-1.58,2.43c6.24,6.35,11.02-1.94,1.58-2.43ZM513.24,1271.11c-1.19,1-8,3.2-4.52,5.48,4.72,3.09,7.18-5.41,4.52-5.48ZM509.73,1283.06c.54-.73-6.65-7.69-7.93-3.41-1.66,5.55,4.59,4.82,7.93,3.41ZM514.73,1293.06c-.83-3.95.48-7.3-3.5-9.97-1.85,1.07-.71,5.95-.26,7.24.54,1.55,1.95,3.02,3.76,2.73Z"/>
  <path d="M1819.07,311.82c-1.36-1.41-7.01,3.78-7.53,5.02-.59,1.42.95,5.4.05,9-.56,2.24-10.29,17.33-12.51,14.95-.09-3.44,1.11-11.33-3.54-12.04-.65-.1-11.71,2.74-12.69,3.13-.78.31-.71,1.38-1.58,1.81-1.54.76-2.8-.04-4.77,2.03-4.45,4.69-5.07,14.56-9.17,19.74l.77,3.32c.75.65,3.67-5.15,5.47-1.97,1.25,1.5,1.3,7.13-.08,8.08-3.8-.49-8.37,3.68-10.94,3.85-1.5.1-12.63-1.39-13.01-1.94-1.17-1.73.92-5.49-4.88-5-3.99.34-5.62,4.94-9.27,5.76-8.37.05-27.95,1.32-34.8,6.18-1.66,1.18-8.56,12.92-10.26,15.72-5.91,9.75-11.02,22.03-18.21,30.76-1.32,1.6-5.96,2.62-3.36,5.58,1.73,1.97,9.64,7.36,11.92,3.97l.45-4.05,4,1.01c-2.35,3.63.44,4.18,1.77,6.73.93,1.79.47,4.47,3.1,4.79,5.87.7,4.13-7.76,5.12-8.52l17.04,5.7,6.4,18.16c-3.54,10.03,4.61,27.51,2.9,36.11-.44,2.2-3.49,6.59-4.39,9.45-4.52,14.42-9.42,40.68-21.94,50.01-8.39,6.25-6.13-.11-10.03-2.01-6.11-2.96-6.19,6.43-3,9.99-9.92,3.03-7.27,8.53-11.14,14.81-1.97,3.21-5.63,5.14-7.68,8.31,1.3,6.68,7.4,7.72,11.26,12.43,4.42,5.4,11.45,21.03,5.28,26.58-1.28,1.15-13.85,7.03-14.68,6.31.3-4.03-3.2-8.41-3.82-11.76-.88-4.8,4.14-16.46-5.14-17.77-1.67-.24-5.49,3.96-8.02.05l4.97-2.99-5.95-4.13,1.78-4.7c-.38-6.18-12.21-2.61-15.84-1.2s-4.55,5.57-8.97,4.52c.28-3.64,2.14-5.47,2.07-9.49-.29-16.01-9.63-1.11-14.54,3.52-1.62,1.53-10.32,7.62-10.51,8.49-.59,2.7,6.12,3.62,7.97,4.99,1.88,1.4,2.62,4.7,4.72,5.33,5.62,1.69,14.11-7.55,19.26,1.71.42,1.96-15.36,12.66-13.97,20.87.47,2.76,6.39,6.9,8.45,9.6s8.46,11.86,2.72,12.06c-2.39,4,7.56,5.25,8.83,8.38,1.43,3.51-8.52-.01-8.98.49-1.96,9.09,13.51,3.57,12.01,11.35-4.86,4.05-6.16,12.33-9.19,17.95-11.03,20.51-17.92,25.84-38.82,35.14-5.17,2.3-14.61,4.32-19.25,7.42-1.34.9-2.3,4.12-4.23,5.07-3.3-5.47-.76-7.82-9.28-8.75-4.19-.46-8.27,3.17-11.24,6.24-15.12,15.65,3.81,24.48,12.26,37.77,4.1,6.45,6.77,16.12,4.22,23.67-.48,1.43-14.35,16.64-16.42,18.56-1.39,1.28-3.24,2.02-4.52,3.45-4.17-3.85-2.21-9.21-1.5-13.97l-7.01,1.56c-2.25-7.23-10.14-10.47-16.96-12.57.81-1.92,2.86-.39,1.99-3.98-4.65.28-7.66.54-10.99-3l-4.77,25.37c4.91,5.2,8.47,12.43,13.25,17.61,2.54,2.76,12.22,9.85,12.79,11.28.89,2.26-.28,9.51,1.41,14.49,1.37,4.03,4.67,6.2,5.27,8.72,1.61,6.7-3.5,1.61-5.94.93-2.96-.82-5.89.34-8.09-1.9-2.32-2.36-12.65-22.99-12.88-26.11-.13-1.79,1.46-3.57.5-5.41s-6.34-3.79-8.13-5.94c-1.83-2.21-1.73-5.16-3.95-7.05-1.89-.94-1.52,4.16-3.48,1.99-.47-.53,1.71-4.46,1.93-5.62,2.19-11.61,1.73-22.78-1.36-34.41-1.61-6.06-5.45-12.51-6.57-18.92-1.46-1.06-7.04,6.03-9.28,7.19-2.66,1.37-5.7,2.01-8.69,1.8,3.45-14.12-.52-19.75-7.78-30.69-1.45-2.19-6.09-6.9-6.71-8.29-1.76-3.95,1.85-9.98-6.59-7.55-.98,9.77-12.73,5.38-19.92,6.56,1.4,10.21-3.23,8.11-8.04,12.45-7.87,7.11-16.54,17.48-24.29,25.18-1.52,1.51-7.49,5.28-8.14,6.35-2.09,3.42,2.03,20.83-1,28.98-1.48,3.99-12.63,19.94-17.02,19.99-4.12.05-5.87-9.36-7.06-11.92-3.62-7.76-7.72-16.12-10.9-24.08-5.76-14.45-12.12-29.45-8.51-45.43l-2-1.03c-2.4,2.8-5.02,5.04-8.99,4.5-.88-.79,9.08-18.88,10.16-21.3,27.91-62.65,39.62-134.69,31.8-203.01-8.95-78.18-40.57-152.51-91.94-211.85,14.02-2.72,11.64-19.01,13.06-29.81l-7.09-4.36c.42-9.59-.59-23.46-6.11-31.64-.98-1.45-3.32-1.96-3.77-3.3-1.14-3.43,2.99-6.76,2.89-9.71-.14-3.91-4.04-8.53-4.03-13.08,0-1.56-.24-1.74,1.52-1.51,5.86,5.16,9.29,9.2,5.52,16.97,4.89-2.33,8.1,1.18,12.98.99-1.12-2.08-5.04-2.5-6.69-4.29-.96-1.03-1.17-3.07-2.26-4.21.07-1.26,6.47-3.33,8.02-2.05,1.71,1.41-1.09,3.19,4.67,4.27,6.86,1.29,6-1.74,7.71-1.82,8.01-.38,4.45,6.21,10.52,9.1,2.46-11.9-5.52-12.4-14.98-12.99l-2.54-17.98c1.71-3.45,24.35-11.11,28.99-8.04l1.54-2.44-4.98-3.01,1.99-2.97c-2-3.21-4.53-.12-7.01-1.03,1.11-3.85,5.04-7.35,7.99-9.99,8.96-8.03,20.3-13,29.52-20.44,2.82-2.27,1.15-5.26,7.47-3.02l-2.07,4.38,3.56,3.61c2.98-2.3,3.37-4.47,7.2-6.82,3.14-1.93,8.01-2.36,8.37-2.63,1.18-.9.58-3.05,1.26-4.25.35-.61,2.14-.49,2.5-3.01.4-2.82-.94-4.64-.4-7.28.51-2.49,8.05-11.79,10.51-12.55,4.02-1.23,10.92-.67,14.93.67,1.85,2.92-6.05,14.03,5.57,11.83,2.45-.46,4.2-3.87,6.55-.44-3.15,4.57-2.86,10.54,3.94,7.92,5.3-2.05,7.53-8.79,15.3-7.23,1.06.21,14.64,6.19,15.26,6.76,2.9,2.66,1.76,5.25,3.02,7.97,1.03,2.23,5.3,3.93,5.49,4.75,1.08,4.5-7.42,16.89-13.04,15.29l2.94,5.62c.58,3.05-6.46,4.3-7.65,5.66-.96,1.1-1.81,4.43-3.77,6.71s-12.54,11.14-12.5,12.47c.04,1.48,2.57,3.03,1,5.5,5,.96,3.41-3.72,4.93-6.3,1.92-3.26,12.87-8.37,16.32-10.64,1.12-.74,1.38-2.59,2.74-3.5,7.98-5.32,11.76-6.53,15.64,3.53,7.34-.43,15.4-4.45,22.8-3.04,4.62.88,4.9,7.19,7.52,8.46,3.92,1.91,12.75,2.48,16.97.97,8.25-2.94,8.94-4.91,7.01-13.46,3.34.29,7.2-.49,10.44.05s4.83,3.87,5.26,3.95c3.79.71,10.67-3.1,14.86-.09,3.46,2.48,5.29,16.68,6.42,21.06h-3s0,3,0,3c4.72-.95,5.75,3.53,9.42,5.08,1.54.65,4.92.67,5.4,1.09,1.19,1.03.75,10.44,6.17,8.82-.11-6.65-1.82-12.32.01-18.98,4.24-.83,4.12,4.12,5.72,5.01,1.22.68,6.35,1.34,7.73,1.05l.59-2.95c7.08-1.73,5.87,1,8.93,3.36,7.3,5.63,4.76-4.69,7.53-5.47l6.94,2.99c2.23-2.37.86-5.31,4.56-6.53l-.25-2.3-2.71-1.72c.81-3.55,1.46-6.3,4.91-7.94l-4.05.09-1.53-4.63c5.74-2.39,10.82-6.63,17.3-4.17,2.38.91,5.14,4.44,6.99,4.99,2.39.72,5.69-.05,8.27,1.23-1.32,2.32-4.91,2.01-3.99,5.98l5.05-.46c1.44-.86-.7-3.3.35-4.58,1.06-1.3,3.96.13,4.15-4.01,4.47.09,10.7-.86,13.49,3.51,1.02,1.6.74,4.01,1.94,5.06,1.62,1.42,8.41,1.78,9.59,3.45l-.58,5.02c7.69-.72,13.66.39,20.45,3.88l31.56-5.48c6.19,2.37,4.69,10.31,6.9,14.15.66,1.15,7.28,7.37,8.61,7.49,3.52-.2,4.29-3.41,8-3.99,9.08-1.44,22.58-1.04,31.82-1.15,2.41-.03,5.5-2.25,7.7-.26,3.27,2.96.84,13.06,10.93,5.67,2.13-8.57-11.38-14.9,8.57-17.21,12.88-1.49,43.35,5.82,55.59,11.16,4.82,2.1,12.11,9.48,14.71,10.28,8.5,2.62,13.72-.46,21.68,8.41,1.18,1.31.48,2.58.68,2.8,1.2,1.36,5.89,4.74,6.65,1.63l-.97-4.41c2.89-2.55,26.9,11.81,28.88,16.68,1.05,3.97-7.95,7.14-9.36,10.32-1.75,3.97.3,8.2-4.01,11.97-9.33,8.17-13.66-2.77-20.49-4.61-2.29-.62-6.11,1.27-6.93.51-.25-.23,0-2.35-1.05-3.42-1.44-1.46-4.37-1.02-5.98-2.05-1.87-1.2-3.53-6.55-7.53-6.44-3.82,2.92,1.41,7.08,3.47,9.51l-3.55,2.41c-1.05,4.05-.83,8.53,1.56,12.06-4.11-1.6-8.13-1.47-12.27-2.21-1.57-.28-6.62-3.88-7.71-.27-1.64,5.39,6.52,3.53,8.25,3.72,5.25.56,3.9,3.32,6.19,5.82,7.44,8.12,13.81,9.91,11.66,23.82,2.83.78,5.79.04,4.88,4.1-3.14.86-4.11-2.78-6.5-3.01-3.05-.29-9.5,2.16-13.43,1.07.68,6.84-5.36,7.34-8.6,10.89-2.75,3.02-3.22,6.56-6.93,10.06-4.78,4.51-10.87,5.02-7.52,13.96l-12.23-3.01c-1.39-.49-1.21-4.21-6.06-3.01l-9.98,11.88c-7.5-6.22-6.05,6.69-6.92,11.41-.81,4.4-6.64,11.87,4.57,7.86l2.52,2.57-2.6,10.85c4.25,2.29,7.01,4.25,8.56,9.11l-3.86,3.89,3.09,14.76-8.9,3.81c-2.09,3.95,2.07,12.75,1.6,15.2-.43,2.23-5.51,4.39-6.99,6.89-2.79,4.72-.92,10.85-3.07,15.91l-5.18,6.79-22.98-50.97c-7.36-21.51,1.43-25.64,9.36-42.57,3.18-6.79,8.13-23.74,13.06-28.65,1.9-1.89,6.78-2.66,6.06-7.7-2.26.78-6-1.33-6-3.5v-15.49ZM1471.24,179.92c-4.38.98-5.71,6.32-10.86,6.11l-.12,3.87c3.58,1.03,3.39-2.36,5.05-3.44,1.57-1.02,4.42-.62,5.99-2.04l-.06-4.5ZM1311.33,274.85l-9.99-3c-.85.92,5.15,10.23,8.89,7.89l1.1-4.89Z"/>
  <path d="M1290.76,838.99c5.31,5.46,10.41,11.24,16.22,16.25,1.86.36,8.94-6.42,12.12-7.57,17.39-6.33,25.53,9.82,35.67,19.77,57.1,56.01,113.8,112.71,169.94,169.86,14.49,14.75,36.02,30.14,38.38,52.54,4.7,44.8-37.79,84.46-82.08,69.07-21.58-7.5-42.51-36.71-58.7-53.23-56.74-57.91-114.2-114.96-170.45-173.33-11.56-14.65.86-22.17,9.43-33.35l-49.88-50.13c-1.77-.81-27.71,19.11-32.09,21.93-142.78,91.84-336.22,79.09-462.7-34.87-224.62-202.41-123.64-566.82,165.92-636.54,207.26-49.91,418.72,71.74,461.49,283.09,23.04,113.88-7.13,234.93-85.53,320.67-.5,1.91.88,3.4,1.87,4.79,6.07,8.45,22.23,22.67,30.39,31.06ZM1205.97,304.26c-244.85-207.55-628.92-4.71-575,316.52,42.94,255.84,353.69,361.97,556.35,206.05,167.19-128.63,181.55-384.49,18.66-522.58Z"/>
  <path d="M816.35,21.24c.47.81.53,2.9.06,3.65-4.43.71-8.38,5.13-11.9,6.57-4.67,1.9-11.93,2.33-17.13,3.86-3.37.99-10.9,5.13-12.43,5.41-1.02.19-6.02-1.55-6.13,1.78,0,.19,1.83,3.19,2,3.29,3.8,2.3,24.16-6.1,29.77-4.77,1.59,1.51-7.78,10.78-1.61,9.9,3.72-.53,15.03-15.4,18.6-11.9,1.83,8.52-12.01,15.88-13.98,20.49-.84,1.96,1.84,1.34,2.51,2.45,2.98-4.3,8.09-4.25,12.52-8.43,2.13-2.01,6.08-9.57,9.4-8.51l2.96,3c6.89-.33,13.42-9.09,19.84-7.83,2.49.49,13.8,6.67,13.56,9.33-6.74,6.64-15.71,12.51-20.5,20.55l-7.3-1.08,2.04,5.52c-3.06,6.51-12.18,4.25-16.02,9.99l1.54,2.42,5.44-.94c.31,2.17-.2,5.15-2.71,5.84-4.21,1.15-5.32-3.13-8.25,4.65l5.96,1.98c-1.9,2.42-3.7,3.98-6.99,3.52,2.44,4-3.4,15.29-2.81,18.35.97,5.03,12.12,1.98,12.7,8.29.32,3.47-7.88,3.03-7.86,4.83l4.98,2.51c-1.75,4.56-1.9,8.08-8,6.99l1.95,5.57,5.77-.92c5.29,7.38-1.78,5.44-6.17,2.28-1.4,3.87-5.04,2.84-7.5,5.55,1.83,5.48,5.9,1.63,9.89,3.03,1.92.67,6.68,4.52,6.05,6.96-2.77,3.79-3.52-1.18-6.43-1.37-1.77-.12-4.45,1.23-6.93-.03l-2.63,5.91,5.01,1.03c-.82,2.56-.08,5.69-3.02,6.48l3.76,3c-2.68,2.77,2.61,6.66-4.09,7.29-3.94-3.98-10.95-4.41-16.45-4.57-6.2-.19-1.11,5.51.28,5.53.55,0,2.2-2.01,5.89-1.71,5.72.46,5.79,5.95,12.11,1.94,2.14,10.02-12.39-1.66-14.49.02l5.99,6.97-10.39,2.94-6.1-5.9c-3.07,2.08-.7,5.16,1.54,6.44,1.24.71,4.86-.11,3.48,1.53-45.76,23.94-87.32,53.44-122.47,91.4-8.89,9.6-16.8,21.18-25.45,30.51-1.2,1.29-2.5,3.23-4.5,2.98l-1.05-8.48c7.02-.51-.49-5.79-.81-8.18-.16-1.25,1.68-2.2,1.66-3.64-.02-1.49-1.88-3.25-1.57-5.01.44-2.48,4.32-2.5-1.22-5.16,4.13-5.26,4.89-14.26,11.04-17.96,1.08-.65,2.94-.16,3.73-.79.57-.45,2.16-5.48,2.54-6.43.15-.37,1.62-.34,1.65-.9.07-1.05-1.49-8.39-2.5-8.39-2.4,3.06-13.1,10-16.06,6.03-1.81-2.54,2.03-4.99,2.18-6.54.22-2.34-2.75-3.96-2.24-6.55.43-2.17,4.95-3.35,4.64-6.43-.06-.87-4.93-.42-4.01-3.49,6.76-4.93,13.4,3.18,17.99-4l-3.84-.16-1.15-3.84,5.51,1.98c3.93,1.23-1.67-5.76-2.48-6.52-8-7.49-13.7-.56-20.02-7.97l3.98-1.49c.67-1.78-1.79-2.64-1.77-3.49,0-.6,4.63-4,4.77-8.12.11-3.48-4.24-4.82-3.98-8.36l5.97-1.5c-.66-2.06-5.44-3.13-5.8-3.68-.49-.76-.28-3.93-.84-5.66-.52-1.62-2.36-3.37-2.39-4.63,0-.34,3.66-1.6,3.96-5.06-1.23-1.21-4.98-5.24-5.36-6.51-.54-1.8.61-2.96-.64-5.28-1.23-2.28-14.24-14-16.64-14.49l-30.24,5.82c-.81-3.74,1.47-3.41,4.33-3.97l.66-3.01c-3.42,1.78-11.76.09-9.28-4.73,1.52-2.95,5.74-1.48,4.28-4.76-1.34-3.01-8.37-2.32-10.99-1.51l.07-6.9c2.91-.44,5.82-2.31,8.45-3.06,2.99-.86-1.04,2.85,1.95,1.96,2.03-.61,14.79-3.79,12.51-6.97-3.56-2.67-6.81.94-8.32.81-1.09-.09-2.51-1.62-4.22-1.78-3.8-.35-7.75.61-11.42-.55-3.1-4.27-3.25-9.71-6.01-14.47,9.76-2.01,18.1-8.22,27.32-12.17,6.22-2.66,20.05-4.7,22.88-11.11,4.56-10.32-16.2-3.48-11.46-15.39,4.88-12.26,24.29-18.37,36.22-19.31-1.25-5.71-6.21-3.93-10.39-4.9-3.48-7.3,15.63-4.31,16.39-5.08l-1.91-7.3c4.24-6.75,13.77-2.39,19.75-3.34,3.05-.48,5.23-3.31,6.45-3.19,7.84.74,4.91,11.93,6.21,11.85l4.46-1.06.1-12.88c4.83.27,11.98,3.47,14.91,7.44,1.17,1.58,3.12,7.99,5.49,7.48,3.58-.77-.71-7.6-.43-7.93.36-.42,2.34.72,1.94-1.05l-4.98-2.52c-.88-2.32,4.02-1.29,2.92-4.91-.62-2.06-5.02-2.13-4.98-3.17l1.68-3.48,11.36,3.07-3.99-7.98c3.52-1.11,6.1,1.24,8.72,1.78,1.24.26,2.67-.73,3.65-.53,1.62.32,3.58,3.71,5.12,4.72,1.72-4.6,7.24-2.9,11.49-3.99l-9.99-5c-.32-1.79,1.71-.55,2.71-1.25,4.78-3.34,2.36-1.47,7.58-2.94,1.84-.52,4.09-3.86,7.43-4.56,5.53-1.15,10.04,1.35,14.68.73,3.67-.49,8.76-4.14,13.13-4.01.75.02,13.07,4.29,14.16,4.83,3.09,1.52,5.01,5.28,7.92,7.07,4.47,2.74,18.88,5.44,21.12,9.34ZM837.57,68c-.52-5.78-7.86-4.46-10.97-1.49-.05,2.29,9.16,1.37,10.97,1.49Z"/>
  <path d="M1787.32,968.09c2.17,1.8,7.88.24,9.87,5.7l1.38,28.51c1.25,2.58,8.11,3.83,10.06,5.93,1.43,1.53,1.75,6.06,2.94,6.04.25,0,2.23-2.68,4.49-.97-3.57,5.49,1.22,6.24,3.84,10.65,1.5,2.53,1.87,5.53,3.73,8.26,2.29,3.38,8.39,9.18,12.43,10.07-3.74,6.78.16,14.31.08,21.46-.06,5.72-2.48,19.11-4.9,24.17-5.33,11.16-19.1,27.18-20.93,39.03-.51,3.31.32,7.01-.22,9.77-.18.91-6.92,6.08-7.74,6.32-2.92.85-5.92-1.62-8.63-.72-1.63.54-9.05,10-11.36,10.69-2.03.6-6.49-1.28-8.28-2.47-1.58-1.05-.86-3.43-4.49-3.46-4.04-.04-3.47,3.03-5.2,4.16-5.02,3.25-3.81-.55-4.81-2-2.24-3.26-15.44-.43-17.28-8.75-.48-2.16.17-4.54-.41-6.58-.48-1.67-3-2.83-3.59-5.4-1.76-7.66,1.84-10.24-10.2-9.3,4.5-5.09,5.59-12.32,5.99-18.97l-7.98,9.5-10.49,7.48c-3.02-4.31-.12-8.87-4.59-13.41-.97-.99-11.78-8.97-13.21-9.78-6.52-3.7-11.46-2.51-18.34-.92-5.01,1.15-25.32,6.49-28.64,8.35-2.87,1.61-4.4,6.55-5.42,6.8-5.96,1.48-21.01-5.62-24.54,2.71-7.45.34-14.79,8.29-21.98,5.02-.77-.35-7.53-5.08-7.79-5.48-2.06-3.12,2.34-7.17,3.54-10.27,2.32-6.02-1.17-23.06-2.98-29.98-1.54-5.87-11.92-21.06-1.5-19.98,1.31-4.2-3.02-7.3-3.78-9.71-.8-2.54-1.12-11.84.3-14.23.89-1.5,4.43-2.81,4.44-3.53,0-.42-3.55-2.41-.97-4.03,5.96.97,9.83-3.77,15.01-5.95,9.75-4.1,29.06-4.71,34.82-14.15,3.56-5.85.77-14.52,10.13-17.34v4.01s3.94-.07,3.94-.07c-1.19-6.58,5.04-5.01,6.65-6.91.57-.67-.4-2.74.37-4.29.49-.99,12.79-12.32,13.78-12.52,7.21-1.46,10.83,8.83,11.75,8.78.82-3.17,4.88-3.41,5.97-5,1.44-2.11.94-7.46,2.81-9.7,1.5-1.79,9.19-3.98,10.45-5.53.89-1.09.51-4.48,1.91-4.81,10.26,1.95,21.05,3.18,31.34,2.08l1.58,5.04c-.32,2.62-3.03,2.04-4.3,3.22-.43.4-5.03,9.85-5.13,10.43-.88,5.1,8.62,8.79,12.07,11.32,1.64,1.2,5.46,5.92,6.81,6.51,1.83.79,3.15-.52,4.34-.3,1.82.34,4.89,5.98,8.36,2.48,2.3-2.31,6.98-14.72,7.29-18.28.2-2.27-.83-4.23-.6-6.48.25-2.39,3.53-15.29,4.5-17.5,1.04-2.4,2.94-5.02,5.56-2.44.34,3.28,6.65,25.87,7.72,26.76Z"/>
  <path d="M1142.07,972.97c-4.99,5.78-11.9,7.51-17.16,11.32-2.38,1.73-14.42,11.86-15.34,13.63-3.53,6.81,6.19,23.58,2.37,31.36-.98,1.99-14.18,11.68-17.5,12,3.33,7.52,3.19,8.08-.48,14.99-7.11,13.41-26.21,45.36-42.26,46.77-2.53.22-4.76-1.97-8.69-1.84-9.99.32-22.46,9.28-29.99,8.02-4.78-.8-4.96-12.36-9.53-15.49l5.98.51c.85-1.09-7.7-24.09-9.02-26.18-.83-1.32-2.56-1.5-3.41-2.82-10.63-16.54-5.53-31.51-11.53-49.45-5.52-16.51-19.28-24.24-13.31-43.25.92-2.94,6.36-13.74,8.79-14.19,53.89-1.05,107.12-14,156.41-34.97-1.05,7.51,6.29,15.37,7.03,21.46.44,3.66,1.35,17.77,1.02,21.02-.27,2.57-1.74,5.24-3.38,7.13Z"/>
  <path d="M505.74,147.94c-.9-3.98,2.24-5.19,4-7.98l-14.99,2,4.99,2c.36,2.6-.29,2.05-2.38,1.89-4.36-.34-9.15-2.57-13.6-2.91l4.99-2.97-6.99-3.5c4.97-5.78,9.94-9.7,17.99-9.5.81-3.14-1.99-2.89-2.98-5.5.12-1.11,5.68-2.3,5.04-5.87-2.02-1.75-6.9-4.82-5.97-7.95,4.27-2.11,11.65-18.37,16.98-17.2,6.45,1.42-.33,12.76,8.91,7.04.44-2.3-4.47-3.13-5.34-6.65-.14-.55-.77-10.44-.73-11.3.09-2.11,1.76-4.06,1.71-4.99-.06-1.02-2.36-2.62-1.62-4.51,1.56-1.47,16.7,2.06,13.99,6.98,3.3,1.88,12.2-3.79,9.99-5.98-2.08-.25-11.81,1.27-10.98-2.48,2.61-5.23,10.63-4.26,11.98-9.51l-5.99-.02,3.99-2c-6.79-6.66-6.31,6.46-12.72,7.82-1.85.39-14.77-1.33-16.56-2.01-1.37-.52-1.98-1.29-1.7-2.79,2.84.9,8.89,1.09,8.98-3-3.45-.11-10.26-.4-13-2.5-1.85-1.42-1.5-3.24-2.32-4.17-1.8-2.06-5.63-1.93-3.66-6.32h-2.27c-2.68-4.46,3.17-4.56,6.3-4.4.86-8.58,6.07-3.99,9-6.05,1.17-.82.25-3.2,3.33-4.66,6.57-3.11,14.03,2.61,14.6,2.11,1.58-1.37-2.29-2.31-2.58-3.93s.4-2.59.6-4.05c5,3.52,6.65,4.74,12.98,2.99l-6.5-3.99c-1.53-3.78,10.58-1.07,12.01,1l-4.5,2.99,5-.48c2.98-2.13.86-5.23,1.51-7.45,2.39-8.19,9.81.13,15.48-3.06l-1.01-3.98c5.19-1.59,9.23,3.55,14.99,1.98.37-.32-2.25-4.11.56-4.94,4.04-1.2,3.82,2.22,4.63,2.72,4.08,2.52,6.89-3.71,9.28-3.76,1.99-.05,5.21,3.23,8.26,3.76,5.3.92,8.77-1.99,14.48.5,1.98.86,3.34,3.21,5.5,3.58,3.24.55,7.45-.66,11.24,2.66,1.18,1.03.96,3.25,2,4,1.9,1.36,8.92.29,9.91,3.1,1.99,5.67-3.28,4.82-4.4,6.32-.78,1.03,1.09,2.87-4.16,6.88-1.4,1.07-9.92,6.75-10.5,7.02-1.21.57-3.17-1.9-4.33.15l2.5,4.99c-4.97,1.68-10.04-2.56-14.5,1l6.5,4.5c-1.88.4-4.44,4.75-5.31,5.14-2.65,1.21-12.7,1.97-4.68,5.38-.72,4.32-7.27,3.59-7.89,4.13-.31.27.22,1.88-.75,2.9-.44.46-9.41,6.8-10.32,7.32-.67.39-2.29-.5-3.02.05-1.25.95-1.04,4.09-2.98,5.07-3.4,1.72-15.33-1.07-20,1.52v2.96c4.43.03,7.01-3.81,10.96.51-2.62,3.88-11.61,2.81-9.47,8.5,2.13.82,9.76-2.67,10.49.51.7,3.08-10.36,3.95-8.83,9.74.35,1.33,2.37,1.9,1.83,3.73-4.59-.63-6.96-4.04-11.98-1.99.38,5.58,4.13-.48,7.99,2-.22,7.45-10.63,5.7-13.99,12.49l2.99.99c-2.4,1.75-5.91,4.68-8.77,5.31-1.18.26-5.65-.68-6.21.2-2.14,3.32,7.37,4.79,7.72,10.29.34,5.31-6.55,4.04-8.44,6.97-.72,1.13-1.16,5.06-2.3,6.71-2.35,1.59-6.21-7.99-10.48-7.99h-14.49ZM589.69,72c-4.64-.61-7.6.91-6.98,5.99,2.5-1.44,6.96-2.39,6.98-5.99ZM515.73,100.99c-4.15.63-8.22-1.92-11.91.57-5.32,3.59.77,5.26,5.21,4.21,1.81-.43,5.46-3.18,6.7-4.78ZM519.52,118.13c-.35-.38-5.05-2.3-4.78-.18,5.12.52,1.7,16.25,8.96,6.57-1.07-1.58-2.91-2.6-4.04-4.06-.7-.9,0-2.18-.14-2.33ZM513.73,119.97l-5.35-.93-1.19.88c-3.14,4.39,6.46,5.42,6.54.05Z"/>
  <path d="M357.81,200.9l-.58-4,5.64-1.57,3.93,15.55c.51-2.89,3.22-2.9,4.78-5.72,3.06-5.57.94-15.54,8.22-17.25.06,5.21,4.95,7.33,5.94,12.55,2.33,12.3-1.76,25.92.61,38.46,1.4,3.08,16.23,2.65,7.55,14.31l-11.09-.36c-.56,2.29.39,1.63,1.25,2.29,2.61,1.98,5.74,2.01,4.7,6.65l-11.7,3.87c-8.16-1.07-11.83-8.53-20.26-8.83l.5-1.99c-3.96-.11-6.09,6.27-8.87,7.16-2.81.9-28.37,4.68-29.6,3.83,4.64-4.83-.1-7.57-1.73-11.75-.71-1.84-.02-4.72-1.18-6.57-1.39-2.23-9.44-1.32-8.08-6.63,4.32-2.88,28.51.29,26.98-6.49-4.28-4.5-14.93-.79-18.56-3.44-1.16-.85-8.53-11.1-7.42-12.06,3.61,0,10.72.36,9.99-5l-9.05-.44c-4.83-8.47,7.2-10.93,10.54-15.57,3.04-4.22-.23-10.96,8.69-12.35,6.1-.95,3.71,4.22,4.75,4.87,2.08,1.3,7.35,1.95,9.57,4.49l-.5-3.99c4.89.08,6.36.51,7.96,5.5l-8.48,2.48,1.01,2h14.49Z"/>
  <path d="M1816.07,913.35h-6c-.84,3.87,3.15,6.01,5.4,9.11,2.06,2.85,5.79,9.47,7.68,11.31,4.13,4.02,11.12,1.24,9.91,9.56-.9.91-17.09-3.8-19.34-5.14-8.97-5.31-7.36-15.89-20.4-17.65-9.54-1.29-10.95,11.62-11.84,11.86l-12.91-1.04c-.56-1.23-.34-2.88-1.01-4-1.87-3.15-15.79-.72-19.48-1.47l-.97-3.55,3.98,2c.68-5.77,6.66-10.25,3.05-16.54-3.73-6.5-13.26-6.55-18.76-9.22-2.46-1.2-3.67-3.86-6.01-4.99-3.58-1.72-9.02-.74-11.61-2.19-1.11-.62-.34-2.05-.89-2.72-.89-1.09-4.8-1.57-5.74-3.81,2.05-1.71,3.74-3.5,2.85-6.37l-12.85-5.1c3.46-.18,15.7-7.84,17.31-7.76,2.74.13,9.98,4.23,11.16,6.77,2.47,5.34-6.07,8.61,2.31,11.7s10.95-9.83,20.44-8.5c10.26,1.45,40.69,15.38,49.25,21.73,4.26,3.16,2.48,6.8,3.95,9.04.9,1.38,9.77,2.52,10.52,6.96Z"/>
  <path d="M1634.17,832.43c.28,3.99-3.98,3.38-5.93,4.55-4.74,2.83.49,5.22-.15,7.75-.78,3.09-7.57,2.03-3.79,9.05,1.33,2.47,4.77,3.13,3.72,6.9-.48,1.74-4.98,4.72-6.42,7.65-2.27,4.62-1.5,9.82-3.19,13.8-.29.69-8.07,11.86-8.67,12.31-1.2.92-2.06,1.14-3.56.93.83-4.12-5.86-7.69-6.02-3.01h-.97c-1.63-5.66-11.37-3.51-16.38-4.11-11.57-1.4-7.25-3.46-9.26-10.64-1.61-5.74-7.91-11.21-5.21-19.07,2.92-2.18,6.21-.15,8.91-.57,1.69-.26,12.82-8.31,14.94-10.06,8.49-7.02,15.19-16.3,23.95-23.1,4.6-1.47,12.3,8.25,18.02,7.61Z"/>
  <path d="M1276.21,221.02l-.72,16.14c5.17,4.05,7.21,7.04,8.4,13.66.93,5.2-.37,14.85.65,18.32.82,2.81,7.25,5.8,7.82,9.25.61,3.72-5.33,17.8-8.65,18.36l-39.33-36.4,14.98,5.5c-1.8-9.6-11.82-20.67-11.7-30.68.04-2.84,3.51-5.46,4.29-8.29.83-3-.66-6.18,1.11-9.73,1.4-2.81,5.03-.98,1.74-6.25,2.83-3.02,6.02-6.39,10.58-4.52,5.02,6.4-.26,13.41,10.84,14.65Z"/>
  <path d="M1198.37,950.33c.68.46,4.47,14,4.77,15.72,1.57,8.88-3.42,3.31-4.63,6.89-.58,1.71-.03,4.93-.57,7.42-2.28,10.46-6.1,23.24-9.53,33.44-2.6,7.71-7.34,25.52-15.74,27.23-13.78,2.81-12.48-8.95-13.34-18.17-.18-1.87-1.54-3.65-1.64-5.23-.26-4.22,8.12-13.72,8.48-20.09.28-5.07-4.67-8.38-2.34-15.31,2.06-6.12,16.57-10.31,20.62-14.35,2.17-2.17,2.18-5.37,3.21-6.3s3.84-.5,5.19-3.3c.65-1.35,1.41-10.76,5.52-7.94Z"/>
  <path d="M488.22,47.56c4.25,3.43,9.05,11.04,11.75,15.69,1.89,3.24,1.84,8.22.76,11.76-.42.31-8.71-2.97-9.98.98l12.38.95c2.45-.76.62-7.02,5.1-5.92l4.61,15.48-.32,1.3c-3.16,1.67-6.85,4.12-9.43,6.55-2.3,2.16-9.39,13.39-11.86,13.3-.71-.03-2.51-2.53-3.48-1.66-2.11,1.89,2.47,1.54,1.95,3.42-.31,1.14-1.86,3.74-3.45,3.59-2.32-5.49-6.74-2.68-9.85-2.98-.62-.06-.65-1.36-1.05-1.61-5.76-3.48-3.95-3.27-1.61-9.42-6.48,2.08-6.32-2.65-5.99-8,4.5-.52,6.54,4.05,10.73,2.25,1.03-.44,1.71.07,1.11-1.59-1.59-4.42-7.91-5.61-11.84-7.66,1.1-3.97,7.12,3.71,6.98-.47-3.8-2.8-12.36-3.36-11.71-9.86.46-4.63,5.27-3.72,8.73-3.64.58-4.35-1.32-5.4-5.01-6.5-.07-2.57,5.8-4.53,8.01-4.5l-3-5.98c2.24.12,7.59-.86,8.47-2.95.46-1.09-1.5-5.13,2.16-5.85,2.88-.57,4.31,2.1,5.84,3.33Z"/>
  <path d="M462.76,148.94c-2.07-10.03,10.94-11,16.56-6.05,5.43,4.78-8.24,23.13,11.65,16.96,6.06-1.88,6.74-1.21,13.22-1.96,2.08-.24,3.72-2.05,6.06-2.03,2.98.03,5.91,3.16,8.01,5.07l1.33-.17c.12-2.87,2.82-1.71,5.14-1.81.21,2.29-2.29,2.89-2.05,5.44.29,3.16,5.67,4.32,4.68,7.57-2.26,3.16-7.67,10.01-11.49,10.47-3.47.42-6.96-3.41-10.64-3.57-3.16-.14-6.33,1.81-9.93,2.1-6.23.51-9.11-1.99-13.05-2.12-6.8-.23-3.4.93-10.47-1.44-4.71-1.58-7.42-1.58-10.88-6.05l4.9-8.95-4.99-11.05c-5.51,1.26-9.14,2.18-12.93-3.1-.6-2.39,2.7-4.03,2.79-6.76s-2.41-8.48-2.88-11.52c4.73-.73,10.83,2.6,12.5,7.06,1.2,3.2-5.16,10.23,2.48,11.92Z"/>
  <path d="M336.83,183.91c-9.91-1.51-12.95,1.94-18.97,8.52-1.98,2.17-3.09,5.66-5.49,7.5s-4.6,1.45-6.45,2.54c-4.57,2.7-6.89,5.76-6.12,11.37-.55.57-6.86.3-8.47.94-2.46.98-3.54,3.75-6.43,3.07.68-6.27-11.65-12.43-9.58-16.92,5.83-3.22,6.34-8.67,9.53-13.53,2.8-4.28,10.33-12.21,9.98-16.93-.17-2.28-2.82-4.66-1.98-7.54,4.27.07,8.04-1.62,12.44-.94,3.4.52,6.83,3.65,10.34,4.65,3.84,1.1,7.64-.07,10.14.79,4.61,1.58,9.03,7.28,12.63,10.5l-1.56,5.98Z"/>
  <path d="M1747.81,565.93c1.65,1.65,7.1,9.03,7.18,11.14.2,5.51-5.62,12.29-5.86,15.07-.17,1.94-.93,14.1-.78,14.84.17.85,2.04,2.28,2.74,4.13,1.34,3.57,1.94,8.04-2.97,8.46l.53-2.99c-2.55-4.24-7.82,5.44-11.01,6.02-3.37.61-.27-2.86.49-4-10.54-2.14-8.15,10.03-16.03,10.55-4.17-10.18-5.79-.77-9.01,1.88-3.66,3.02-6.87,2.4-9.93-.95-.06-1.72,10.93-3.91,11.97-7.49-9.54-.61-21.63,4.1-22.97,14.45l1.99,1.04c2.3-1.56,2.13-3.94,2-6.5h4.98c2.09,7.76-.49,12.79-2.47,20.02l-5.52-.04,2.99-3.47-9.49-9.54c-2.46-5.39,10.75-16.03,16.5-15.97.88-2.65-2.72-2.63-2.99-3.01-.15-.21,1.96-4.64,2.18-4.79,1.94-1.27,15.35-2.31,18.62-3.38l4.2-11.79c4.09-1.2.13,5.96,3.46,4.98,12.41-6.36,12.62-22.16,11.45-34.39-.2-2.13-1.96-3.04-1.51-5.56,1.41-7.93,3.88-1.94,5.64-.54,1.13.89,2.83,1.04,3.64,1.85Z"/>
  <path d="M1496.95,836.71c2.43,1.91,5.98,7.33,9.36,10.11,7.66,6.31,18.6,13.02,27.68,16.81,2.68,2.11-4.7,13.58,8.22,10.77-.81,2.61-5.66-.06-4.99,3.98,5.26-1.12,4.05,2.37,5.32,3.67,1.71,1.77,5.3,4.08,7.46,5.53l.33,1.29c-3.33,24.87-10.64,22.01-24.11,6.01-10.23-12.14-17.02-27.77-27-39.95-2.19-2.67-20.93-18.64-17.96-21.51l15.7,3.29Z"/>
  <path d="M386.79,130.96c1.55,1.13-2.99,14.62,4.56,15.99,1.98.36,2.74.06,2.46-2l3.98,5.98c-3.21-.7-4,1.62-4.02,4.49s3.95-.2,6.02,1.52c-.18,7.93-6.35,3.24-9.09,3.45-8.71.65-24.71,10.53-33.32,9.43-6.5-.82-1.69-6.55-7.56-5.91l5.94-2.05v-2.86c-2.61-1.11-5.54-1.53-7.41,1.01-1.17,1.59.7,3.75-3.53,2.91-1.56-5.29,2.27-5.19,3.52-6.97,1.92-2.74-4.82-5.27-7-5.03-3.15.34-3.74,5.85-7.49.51l6.98-3.51-3-5.97c3.34-1.07,8.54,1.46,11.23.81,2.49-.6,6.51-4.85,9.42-5.58,2.15-.31,9.59,6.02,4.38,6.19.93,2.74,1.54,4.72,4.96,4.55l-2-2.98,5,1-2,3.97,6.35.92c3.86-1.35,4.73-19.12,11.63-19.88Z"/>
  <path d="M1930.02,1184.16c-3.49,4.83-9.18,20.23-14.3,22.26-2.88,1.14-5.81-.79-9.27,3.63-1.75,2.24-1.51,4.84-2.85,7.14-2.11,3.63-12.92,15.53-16.69,15.43-2.45-.07-6.56-5.73-11.76-3.61-4.47-3.86,6.62-13.42,9.42-15.86,6.82-5.93,14.24-10.32,20.49-17.49,4.16-4.78,8.09-10.73,11.22-16.25,6-4.16,6.47,6.01,13.74,4.74Z"/>
  <path d="M415.92,225.8c-4.11-6.5-2.35-14.33-11.12-16.42l10.98-7.99-3-1.49,3.06-6.44c-2.78-3.56-7.81-9.29-1.06-12.11.86-.36,7.08,4.15,8.61-3.51,7.54,1.93,13.23.37,12.41,10.56-.54,6.71-4.79,12.7-5.82,17.21-.89,3.91.63,9-.42,12.57s-10.16,7.05-13.65,7.62Z"/>
  <path d="M1354.27,64.04c-.47,3.51.83,9.13.06,12.25-.31,1.26-4.85,1.89-4.01,4.7,4.83.15,10.56-1.22,15.29.21,4.03,1.22,8.12,18.64,2.03,20.66-6.53,2.16-19.13-12.18-27.31-7.88,2.48-9.43-.02-13.59-9.87-15.1-1.81-3.99,2.24-3.98,2.73-5.49s-.32-4.55.28-5.25c.24-.28,2.51-.22,3.92-1.56,1.68-1.6,2.18-5.34,3.93-7.14l12.97,4.62Z"/>
  <path d="M1750.1,483.68l-6.53-2.01-2.31,1.67c1.47,4.13-2.15,5.6-2.21,5.95-.6,4.17,10.56,16.75,9.05,18.37l-5.99-1.99v2.27s-1.99.73-1.99.73c-.6-4.8-5.02-8.09-5.57-12.95-1.68-14.72-2.42-13.59-7.18-26.78-3.61-9.99-5.43-20.65-10.24-29.73,4.5-.24,8.81-2.19,7.96-7.47l-3.04-.57.07-4.44,3.74,2.75c5.58,12.16,9.37,27.06,15.05,38.91,2.33,4.85,5.68,7.77,8.23,11.76.79,1.23,1.26,1.95.96,3.53Z"/>
  <path d="M1773.09,527.66c.96,5.12-3.15,6.84-5.45,10.07-1.52,2.13-2.34,3.48-4.11,5.82-1.93,2.55-2.45,7.04-6.92,7.02-2.47-.01-8.83-5.15-11.06-1.99-2.71,3.86,5.2,7.62,3.56,9.05-2.76-2.05-7.06.95-7.51.93-.89-.06-1.52-2.86-2.48-3.43-1.6-.95-4.2-.07-4.87-.62-.25-.2-1.88-5.67-1.87-6.19.05-2.43,2.05-5.64,4.74-5.69l-1.99-3.97,5.38.93c4.5-3.15-.27-5.22-.36-5.61-1.2-5.25,3.08-9.74,2.49-12.42-.82-3.75-7.69-4.11-5.35-9.78,1.7-.05,3.18.06,2.86-2.09,1.69,1.16,2.69,4.98,3.47,6.99.69,1.8.22,3.87,1.44,5.56.54.75,11.1,8.52,12.1,8.87,6.6,2.29,9.98-2.49,15.95-3.44Z"/>
  <path d="M1944.11,1150.07c.18.29,5.74,3.09,6.27,2.99,2.83-5.74,11.71-6.25,9.44,1.39-.29.97-9.92,14.66-11.4,16.62-1.94,2.58-11.28,15.12-14.35,13.04-3.59-6.84,5.15-11.67.72-18.74-14.24-2.61-3.38-2.77-1.31-5.24.27-.32,3.16-7.01,3.3-7.68,1.98-9.49-9.23-20.66-9.76-30.25,3.98-.64,11.78,10,11.61,12.47-.09,1.27-2.56,2.66-1.49,5.85.69,2.04,6.25,2.96,7.43,5.69.8,1.85-.62,3.6-.46,3.86Z"/>
  <path d="M457.03,203.17c-2.09,3.32-.55,4.14-5.35,8.14-2.04,1.71-13.73,9.53-15.44,6.62-1.55-5.77-1.08-12.02,2.85-16.72,1.39-1.67,4.68-2.53,5.96-5.6,1.37-3.28-1.13-10.17,3.72-13.2,5.96-2.47,26.15,2.23,21.05,11.04-2.11,3.64-11.76,8.08-12.78,9.71Z"/>
  <path d="M472.76,326.79c-2.33-.13-5.28-.11-4.99,3,6.19,2.53,9-2.76,13.4,4.09,1.05,1.64,1.05,3.7,2.55,5.44,2.59,3.01,8.95,4.05,1.95,9.89-5.43,4.54-7.26-3.47-9.58-4.28-5.48-1.9-13.02,6.85-17.32,9.84l-.48-9.02c-1.19-2.17-4.35,2.06-6.01,2.04l-1.52-1.52c5.58-9.29,6.27-21.83,15.44-28.44l6.56,8.95Z"/>
  <path d="M351.48,114.31c1.29,1.06,4.59,6.34,3.33,7.65l-7.97-1.97-.57,3,4.54,2.96-11.5,8-.98-4.98c-1.42,1.23-4.25,2.29-5.04,4.04-.5,1.11.52,2.48.34,2.8-.68,1.16-8.5,6.62-9.8,2.65,4.73-1.51.32-6.46-3.46-5.47-2.23.58-.3,3.73-.53,3.97-1.56,1.58-7.63-.75-8.98-2.52l.99-2.96c4.75-3.17,9.87-6.18,14.52-9.47,1.49-1.06,2.05-3.32,2.74-3.75,1.17-.75,4.08-.55,6.01-1.49,3.15-1.53,5.2-5.8,10.25-5.36.38.03,5.75,2.62,6.12,2.92Z"/>
  <path d="M1657.04,776.34l.16-1.8,1.93-.07c.81,2.21,3.26,6.14,4.95,7.55,2.78,2.32,8.78,2.23,9.88,6.15.81,2.87-1.23,5.5.19,8.27-4.49-1.24-3.63,2.08-6.49,3l-3.51-4.98h4.99c-1.7-4.11-.59-4.96,2-7.99-4.54-1.14-7.37.13-11.43,1.96l-1.56-2.97,4.99-.02c-2.74-6.96-14.4-3.34-15.05-10.94l-2.94-.05v3.33c-.69,5.44-8.81-8.12-9.34-8.93-1.52-2.32-5.08-3.15-3.65-8.38l4.99,1.99,1-18.99c18.95-1.55,8.48,16.72,8.11,27.35l10.77,5.51Z"/>
  <path d="M1604.18,919.34h-6.49c-2.31,6.35,7.54,2.85,11.49,5.02.36.49-.91,1.54-1.71,1.77-2.12.6-16.74-.47-19.67-.89-5.52-.79-11.19-4.15-16.18-4.8-7.74-1-6.88.46-14.87-2.14-1.71-.56-8.81-2.18-9.38-3.1-.93-1.51.38-7.21,2.43-7.67,4.31-.97,17.21,5.74,21.94,5.87,4.16.12,6.82-3.33,9.72-2.89,2.51.38,10.93,4.52,14.51,5.55,3.01.86,6.74-.81,8.22,3.27Z"/>
  <path d="M1640.16,907.36l-4.9-.09c-1.13-3.11.28-5.77-.32-9.16-.73-4.14-4.18-5.1-4.62-6.37-1.75-5.05,7.1-19.19,7.36-25.33l3.47-1.01c-4.21,22.49,8.52,4.42,19.01,8.5-2.06,6.88-9.29-.56-12.98,5.99.61,2.17,4.77,2.33,4.98,2.53.37.37-1.05,9.46-.84,10.38.31,1.39,3.17,1.71,3.79,3.19.78,2.48-3.01,4.64-4.45,6.36-2.35-1.34-2.21-4.34-2.89-5.73-.13-.27-1.48-.39-1.93-1.46-.68-1.63-.98-10.43-4.18-7.78-.4.33-1.5,1.39-1.5,1.5v18.49Z"/>
  <path d="M1786.73,1170.74c.54-.31,1.43-3.98,4.25,0-1.78,4.6.06,9.55-1.67,14.13-.36.96-6.88,9.75-7.42,10.06-1.33.76-4.34-.09-6.26.24-1.79.31-2.9,2.51-4.54,1.56-3.65-1.91-3.33-15.41-4.23-19.83-.78-3.81-5.39-6.77.61-8.66,5.34,6.35,12.33,6.49,19.26,2.5Z"/>
  <path d="M474.75,738.48c-1.06,1.49-16.04,1.41-18.28.03-1.08-.66-.94-2.77-2.12-4.09-2.34-2.62-21.45-10.83-25.28-11.71-6.66-1.54-8.04,1.76-12.02,2.58-3.91.81-3.4-1.96-1.19-4.21,10.8-10.99,36.56.49,47.59,7.22,1.75,1.07,12.51,8.47,11.3,10.17Z"/>
  <path d="M434.55,132.2c2.5,2.23,2.25,4.35,3.28,7.01.3.76,1.86.72,1.82,1.18-.05.72-1.44,3.02-.89,3.54.48.46,3.33-.97,3,.99-4.77-.93-2.15,2-3.23,3.76-.31.5-1.86.65-2.58,1.89-1.5,2.6-1.02,7.21-3.15,9.88-2.48,3.12-9.92,4.3-9.03-1.52l5.97-2.51c-2.69-3.11-6.86-5.56-10.98-5.5,1.13-3.18,1.29-5.62-1.5-7.98-2.22-.52-2.8,2.83-2.54,4.5.31,2.01,4.79,3.17,3.05,4.48-3.59,2.71-3.64-4.47-4.24-6.24-.93-2.73-3.72-1.85-1.18-5.75l-5.56-4.99c4.51-.53,7.01,1.86,9,5.53l5.58-1.54c-1.07-4.34.51-3.82,3.02-6.96,4.86,2.64,5.59.63,10.16.21Z"/>
  <path d="M1398,93.27c.6.6.52,2.29,1.25,3.2,3.55,4.43,7.04,7.1.56,12.52-2.23,1.87-18.66,5.92-20.58,4.55-3.37-2.41.98-11.55,1.62-14.52.34-1.57-.55-3.2-.16-5.06.59-2.85,3.96-7.26,7.03-7l10.28,6.32Z"/>
  <path d="M441.78,105.97h-3.02s.49,3.04.49,3.04c-6.88,6.47-6.9-3.22-7.4-3.54-1.74-1.11-3.96-.24-6.5-2.57-4.83-4.43-.74-8.56-2.01-10.91-.96-1.78-6.18-3.45-6.36-7.67-.01-.28,1.74-4.98,1.95-5.16,4.21-3.7,10.82,5.54,12.34,8.8l3.13-2.91c4.98-.91,6.14,17.57,7.37,20.9Z"/>
  <path d="M490.35,738.92c7.05,4.41,10.24.93,16.13,3.32,2.74,1.11,5.74,5.85,8.23,7.74-3.77,4.12-10.75.59-14.28,1.66-2.27.69-2.82,4.16-4.21,4.83-1.99.95-1.96-5.39-5.13-5.91-5.88,5.73-8.37,1.63-15.35,1.92l.59-3.08c4.26-2.12,8.08.34,12.4.08.24-3.72-1.88-6.01-4.99-7.48l3.61-4.41c1.33-.19,2.05.74,2.99,1.34Z"/>
  <path d="M1675.14,803.43c-.78,4.44,3.55,5.24,4.58,9.94,1.84,8.39-2.66,7.49-5.97,13.16-1.03,1.76-.41,5.98-4.02,4.82-1.59-.51-10.23-13.51-13.58-14.9l3.99.99c-2.24-3.63,5.98-7.91,7-6.99,1.55,1.4-2.5,2.18-2.56,4.46-.05,1.85,1.05,3.49,3.06,2.53.87-.42,5.32-10.1,1.51-9.48,2.64-1.8,2.31-5.44,5.99-4.51Z"/>
  <path d="M1392.3,806.44c4.99,4.62,18.09,23.18,4.4,24.96-11.83,1.53-5.95-18.61-4.4-24.96Z"/>
  <path d="M413.07,254.56c1.08.8,2.67.82,3.41,1.59,1.57,1.62,4.74,6.53,3.82,8.66-.65,1.49-3.61,2.79-2.52,6.05-1.78-.93-7.86-1.57-8.77-2.22-.7-.5-4.5-7.53-4.07-9.06.12-.42,4.46-7,4.82-7.24,2.39-1.61,2.32,1.5,3.31,2.23Z"/>
  <path d="M1672.14,856.4c-5,12.38-20.35,6.32-30.48,6.99-4.34-1.59-3.44-4.35,1.08-4.89,9.55-1.16,19.68,1.1,29.4-2.1Z"/>
  <path d="M461.57,106.78c-.33.58-4.26,2.27-5.31,2.29-4.07.08-5.18-4.44-6.61-7.27-.38-.76-1.69-.85-1.84-1.54-.4-1.78-.56-9.88,1.48-10.28,3.94-.78,6.57,6.62,8.08,8.89,1.1,1.64,6.4,4.07,4.2,7.91Z"/>
  <path d="M439.91,169.79c-.44-2.65-.35-10.93,1.83-12.43,7.41-5.12,22.09,20.52-1.83,12.43Z"/>
  <path d="M1814.08,905.37c2.47-.49,4.96.97,7.27.77,3.9-.34,17.98-7.73,17.73-12.77,8.36,4.55-3.66,14.16-8.98,15.52-4.73,1.21-13.4,1.32-16.02-3.52Z"/>
  <path d="M1640.68,695.53c3.68-.81,2.64,11.06,2.24,13.25-.58,3.21-2.98,6.71-6.24,7.73-3.43-6.42-2.12-16.41,4-20.97Z"/>
  <path d="M370.86,117.03c13.4-1.35-5.03-8.65-5.03-9.55,4.71-5.05,12.71.86,15.02,6.05.38,3.94-5.49,5.68-7.58,8.43-2.33.53-2.95-3.3-2.41-4.92Z"/>
  <path d="M386.49,94.3c1,.83,1.74,3.34,3.29,4.18-2.66,4.86-20.55,4.71-14.65-2.19,3.07-3.59,7.34-5.3,11.36-1.98Z"/>
  <path d="M528.02,288.57c.38.53,3.34,1.41,2.7,2.25-4.6.15-5.51,3.26-8.04,5.44-.77.67-4.58,4.17-5.47,2.59-2.93-5.21,5.12-11.22,7.51-15.52,1.99-.91,2.28,3.85,3.29,5.24Z"/>
  <path d="M1692.46,860.16c.71.61,3.43-.08,3.68,3.21-4.78.62-6.03,6.49-12,5.02v-5c5.42,5.1,7.64-3.24.99-3.01,1.66-2.81.79-6.89,5.01-5.99l-1-3.98c8.22-.35-.72,6.25,3.31,9.75Z"/>
  <path d="M1703.84,887.67c.33.26,2.46,3.56,2.29,3.69-4.8,1.46-9.37-3.19-13.53-3.05-2.78.1-3.65,2.14-5.35,2.51-2.79.6-8.03.16-11.1.55.13-5.08,5.28-2.16,7.53-2.44,1.14-.14,2.67-2.04,5.02-2.5,3.91-.77,11.95-1.29,15.15,1.25Z"/>
  <path d="M1576.06,738.37c-6.04,1.23-2.12,9.17-9.15,6.91-9.55-3.06,8.14-19.32,9.15-6.91Z"/>
  <path d="M1917.02,1022.29l-.57,2.03c-6.18,4.24-14.04-10.04-17.42-14.03,8.02.35,11.45,9.37,17.98,12Z"/>
  <path d="M1679.14,926.35c-.72,5.93-8.68,5.4-11.95,7.53-2.16,1.41-4.81,8.2-9.01,3.96,4.33-8.29,13.03-8.53,20.96-11.49Z"/>
  <path d="M176.9,449.7c-7.15,1.95-7.16-18.27-4.98-19.98,8.07,5.02.97,9.66.97,12.5,0,2.16,4.6,4.51,4.01,7.47Z"/>
  <path d="M1623.18,170.91c-.74-3.26,2.63-1.45,4.95-2.52,1.66-.77,3.01-2.54,4.72-3.33l4.11,3.36c-3.14,7.24-7.78,3.83-13.78,2.5Z"/>
  <path d="M390.79,192.91c-4.41.8-7.19-2.82-6.91-6.91,10.18-4.41,8.98-1.8,6.91,6.91Z"/>
  <path d="M345.83,140.95c-.6-3.57,1.18-4.91,3.52-6.97.95-.84,7.72-6.2,8.46-2.51l-11.98,9.48Z"/>
  <path d="M1631.16,803.44c.86.84-8.84,14.64-11.98,11.98-.76-.65,5.87-8.19,6.6-8.88.79-.76,4.57-3.9,5.39-3.1Z"/>
  <path d="M1652.4,805.2c-.53-.58-.48-2.72-1.24-3.75l4.99.99c.84-1.13-2.6-7.25.49-5.98,2.7,1.75,2.84,5.15,3.09,8.04-.98,1.46-6.2,1.92-7.33.7Z"/>
  <path d="M1651.15,925.36c.18,1.46-2.62,1.79-3.58,1.9-3.44.37-6.97-.04-10.41.09v-3.99c5.23-1.07,9.05,1.66,13.99,2Z"/>
  <path d="M464.76,364.77c-.51-.47,5.65-13.46,8.54-7,1.04,2.33-5.68,8.08-8.54,7Z"/>
  <path d="M68.08,388.68l-1.6-3.91c1.08-1.67,1.81-3.42,3.99-3.73l4.47,4.22-6.86,3.42Z"/>
  <path d="M1890.04,935.33c-4.86.09-8.03-.92-9-5.97,5.34-2.25,7.15,1.54,9,5.97Z"/>
  <path d="M388.79,109.95c-.33.48-3.82.95-5,.62-.6-.17-6.55-3.34-4.98-4.6l8.33.15c1.63.3,2.22,3,1.65,3.82Z"/>
  <path d="M1640.14,938.31c-2.19,1.65-9.35-4.46-8.97-4.96,3.84-1.5,6.74-1.27,9.54,1.96l-.57,3Z"/>
  <path d="M549.72,510.67c2.28-.56,11.41,4.32,10.99,6.47-3.62,3.93-8.82-4.04-10.99-6.47Z"/>
  <path d="M498.75,354.78c-.16-2.41.91-5.77,3.51-6.04,6.5-.67,2.84,8.25-3.51,6.04Z"/>
  <path d="M1950,279.83c-4.82.99-7.48-2.45-9.99-5.98,4.1-.6,9.25,1.42,9.99,5.98Z"/>
  <path d="M1623.17,925.36c-2.17,3.68-12.87,6.61-10.49-.02l10.49.02Z"/>
  <path d="M1654.15,795.45h-2.97s-1.02-8.99-1.02-8.99c4.85.29,4.13,5.38,3.99,8.99Z"/>
  <path d="M1915.4,973.93c1.06,1.09,7.6,8.27,6.61,9.37-5.72-2.23-6.46-7.27-9.98-11.5,1.69-1.78,2.54,1.26,3.37,2.12Z"/>
  <path d="M1644.12,779.48l1.03,5.97c-6.74.59-9.04-6.28-1.03-5.97Z"/>
  <path d="M464.76,114.96l.35,3.74-2.24,1.79c-2.78.34-3.79-2.08-5.1-4.04l6.99-1.49Z"/>
  <path d="M1873.75,921.66c.93.75,3.98,5.63.81,4.67-1.6-.48-8.8-3.69-6.51-5.98,1.97-.07,4.07-.01,5.7,1.3Z"/>
  <path d="M169.92,406.74c-.03-.92-1.88-9.07.49-8.97,2.5,3.02,5.21,8.07-.49,8.97Z"/>
  <path d="M77.95,373.77c.66,4.15-3.66,5.58-6.99,5.99.53-3.61,3.19-6.46,6.99-5.99Z"/>
  <path d="M1050.46,275.84c3.7-.45,4.85-.4,6.5,2.98l3.49-4.48-3.51-1.49c-1.35-1.61,3.07-2.52,4.51-2.01v4.01c.95.98,13.2-6.01,13.99,1.98-4.66.58-7.49,4.36-6.99,9l10.98-2.99c-1.13,9.97,6.26,5.64,11.95,7.54,2.98.99,5.57,5.26,8.13,6.86,6.46,4.04,16.6,6.5,23.82,11.16,7.21,4.65,12.71,9.57,8.98,18.81-1.04,2.57-9.04,11.22-11.45,11.61-4.87.78-21.04-6.25-26.44-8.51-3.01-1.26-5.07-4.35-8.99-3.49-2.16,1.91,10.85,9.32,11.98,10.49,7.05,7.3,3.86,16.06,6.48,20.5.31.53,9.25,6.27,10.25,6.74,1.75.84,8.54,3.28,9.21.63l-4.01-8.94c2.29-10.66,11.1-1.55,18.04-2.46.35-4.74-4.64-7.13-5.71-11.5,3.2-2.03,9.54-11.64,11.71-12.97,4.08-2.51,7.26,2.8,10.73,3.31,8.91,1.32.41-10.2,2.82-14.83l-8.6-2.64c-.07-4.26.21-8.55.03-12.82-.06-1.49-2.53-7.37.48-6.48,2.29.67,15.14,8.78,15.29,10.45-1.09,1.83-1.71,4.12-2.9,5.88-1.44,2.11-4.75,2.04-3.87,5.63,6.27.9,13.88,4.02,15.01-5,13.64,8.53,26.47,20.18,37.48,31.97,37.49,40.14,64.21,91.17,75.96,144.89,15.56,71.15,7.06,148.18-27.52,212.4-1,.62-21.22-1.72-22.83-4.18l-.14-6.36c-6.75,2.26-12.08,5.42-19.73,2.24-1.46-.61-11.49-9.87-13.27-11.72-1.91-1.97-6.99-9.9-8.67-10.39-2.96-.86-8.75,3.54-9.83,5.89-1.85,4.04,10.4,13.5,12.48,18.6,1.21,2.96.08,6.13,1.28,9.12l4.12,1.14,3.17-3.9,2.44,1.59-.96,8.4c2.86,2.86,19.94-6.18,22.54-8.96,1.8-1.92.51-4.59,3.45-4.03-.75,5.81,2.45,13,7.62,15.86,3,1.66,6.45.11,6.45,4.6,0,6.96-20.84,32.01-27.05,37-6.64,5.34-29.27,16.73-37.73,20.24-2.92,1.21-20.42,7.02-22.06,6.05-.98-3.07-5.19-5.63-5.94-8.56-1.02-4,.77-14.93-.46-17.04-.16-.28-2.39-1.25-3.31-2.15-4.01-3.9-15.72-15.95-16.37-20.63-.47-3.35.73-8.74-.58-11.41-.69-1.4-3.72-2.42-5.04-3.95-4.16-4.82-10.45-14.09-13.19-19.78-1.46-3.04-.91-7.64-4.25-9.23l-3.5,8.98c-1.38-1.29-2.74-2.59-3.93-4.07-1.21-1.52-6.05-11.27-8.58-8.9,3.59,8.84,8.56,17.18,12.7,25.76,2.09,4.32,3.44,10.73,5.51,14.47,1.73,3.13,5.41,4.79,6.98,8.01,3.16,6.48.14,15.79,3.34,20.64,1.5,2.28,9.51,6.08,12.95,10.03,4.13,4.74,4.12,9.22,5.96,12.03.69,1.06,3.91,1.38,5.48,2.51,5.29,3.78,8.69,13.86,13.01,15.05,3.09.85,27.63-6.95,30.97-9.14,2.01-1.32,1.79-5.1,5.03-2.95-40.47,39.34-91.99,67.43-146.91,80.96-31.6,7.78-64.33,12-96.96,9.96l-1.68-1.96c.72-5.16,6.75-18.62,5.47-22.78-.08-.26-2.76-4.4-2.99-4.54-1.61-.94-17.08,3.14-22.11,1.62-4.14-1.24-4.3-12.21-11.62-13.37-10.57-1.67-27.73,12.88-35.7,13.27-3.09.15-7.81-3.18-10.97-3.38-11.78-.78-18.28,11.25-32.67,2.49-3.4-2.07-22.08-17.42-24.69-20.28-3.85-4.23-7.69-13.47-10.95-17.03-2.38-2.6-7.19-2.9-8.5-4.49-1.59-1.92-1.49-7.72-5.5-9.49v-1.46s2.92-1.48,2.92-1.48l-3.79-7.88c10.16-11.16,7.5-27.22.07-39.3,7.77-11.28,12.13-25.29,20.36-36.2,5.06-6.72,8.32-6.1,14.32-10.67,9.52-7.24,6.81-8.53,8.34-18.64,1.63-10.8,9.27-9.87,15.77-16.21,1.41-1.37,4.22-5.08,5.21-6.81,1.26-2.21-.45-5.26,3.49-5.55,3.09-.23,3.2,2.31,5.77,2.81,1.45.29,13.34,1.07,14.92.97,3.09-.18,6.81-3.93,9.83-5.18,14.22-5.88,27.84-8.68,43.21-10.76,8.15-1.1,17.16-1.2,24.94-2.01,1.5-.16,2.44-1.79,3.99-1.9,8.1-.59,2.75,9.06,5.46,14.46-.21,4.34-10.54,5.56-6.42,10.42,4.85,1.54,7.85,4.62,12.72,6.28,3.94,1.34,9.31,2.48,13.51,3.48,1.83.44,4.06-.12,5.62.38,2.54.82,1.95,5.9,2.82,6.68.55.49,6.92,1.03,8.8,1.69,6.11,2.12,10.57,8.28,17.86,6.34,2.04-8.82-.68-19.16,11.91-19.57,6.85-.23,8.92,3.84,13.66,5.79,4.11,1.7,23.43,7.64,27.2,7.88,5.73.36,4.29-5.03,8.87-5.92,11.91-2.3,22.24,10.2,28.98-8.01.94-2.55,4.25-15.22,4.43-17.64.19-2.62-1.81-7.53.33-9.16,1.06-.81,3.5.95,2.72-2.18-2.91.45-5.03-2.95-7.49-2.95-4.9,0-9.76,9.82-19.08,6.02-2.99-1.22-4.84-5.27-8.99-2.14-1.77,1.33-1.62,5.11-5.42,4.07,1.17-2.88-1.85-5.96-4.52-6.01-2.67-.05-4.74,8.45-9.47,2.02l3-.02c1.04-2.12-1.67-4.68-1.67-5.51,0-.99,2.28-1.69,1.66-3.47l-4.98,2.99-1.01-3.99h4c2.24-2.22-7.07-9.53-7.06-13.45,0-.6,8.54-3.71,1.54-9.52-5.69-4.72-5.28,4.61-7,4.98-3.22-.73-8.15-6.58-11.02-2.03-1.66,2.64,4.28,4.23,3.53,7.02-3.21,2.96-9.43-4.42-10.98-.48-.83,2.1,8.45,5.1,9.05,7.87,8.1,2.34,10.63,9.13-.06,2.61l1.98,10.99c-1.85-.84-2.62-4.42-5.47-3.99-3.11.46,1.4,4.84,1.29,7.24-.3,6.07-6.63.1-8.27-2.29-.9-1.31-.87-3.85-1.75-4.74-1.07-1.07-4.79-.85-5.77-2.73-1.37-2.61,5.51-.86,5.02-3.99-.54-3.41-5.2-4.46-7.05-6.96-5.3-7.15-3.59-14.44-3.42-22.56-.62-.89-16.44-7.26-19.48-9.51-7.05-5.24-9.5-20.48-22.15-12-.88.84-.92,1.68-.75,2.83.42,2.87,12.52,16.63,15.35,18.73,6.83,5.06,15.43,7.34,19.52,16.49-.68,5.13-7.61-.94-9.02.5-.85,10.97,2.42,16.81-11,16.99-.11,4.02,2.7,7.68-1.53,10.99-1.48.34-4.43-3.79-6.11-4.85-1.79-1.13-11.99-3.51-5.33-6.64,2-.94,9.48.55,12.97.5.19-6.93,9.26-7.68,4.9-15.36-.65-1.15-18-13.5-21.15-15.92-2.34-1.8-6.97-3.63-8.69-5.24-3.3-3.09-4.67-13.75-9.45-13.45-.79.05-9.49,3.94-10.5,4.6-2.23,1.44-4.8,5.63-6.8,6.23-2.88.86-11.95-1.37-16.77-.81-11.62,1.34-4.11,5.95-7.6,11.39-.93,1.45-8.83,5.5-11.36,7.62-3.63,3.04-9.76,10-10.38,14.72-.33,2.47,2.65,3.86,1.77,6.58-.56,1.71-3.92,2.3-5.43,3.64-1.71,1.52-2.64,4.83-3.75,5.73-2.28,1.85-16.27,3.06-20.94,4.55-2.8.89-5.64,3.76-8.06,3.57-3.67-.29-4.38-6.48-7.61-7.41-4.71-1.35-8.46.65-13.09.56l.58-6.05-4.56-2.44c5.26-3.43.97-4.87,1.18-8.72.35-6.45,5.19-9.99,3.73-19.2-.52-3.29-5.17-9.36-1.25-12.62,1.01-.84,6.35-2.63,7.9-2.83,6.34-.85,20.34.81,27.89.92,3.02.04,9.36,2.33,12.27-.24,3.11-2.75,2.24-19.51,2.03-24.04-.38-1.29-8.25-8.05-9.85-9.14-3.63-2.49-14.89-4.87-10.47-11.59,2.95-4.48,16.82,1.15,21.44-2.04l-2.91-8.91c3.14-.75,5.13,2.67,7.57,3.01,5.4.74,13.14-6.36,14.39-11.54l11.91-.58c1.62-8.06,7.86-13.88,11.67-20.86l5.71,1.84c3.67-.27,3.97-6.79,8.48-7.64,3.95-.75,6.75,3.33,10.24.32,3.04-3.47-2.36-16.06-2.89-21.13-.23-2.2-.64-10.24-.19-11.76.29-1,2.4-.42,3.52-1.62,2.36-2.54,3.82-10.69,7.06-11.97,2.17-.62,1.78,2.25,1.51,3.31-.33,1.25-3.54,1.15-3.01,3.16l7.03,7.02-6.17,9.01c-1.22,9.19,3.4,19.24,13.64,19.25,7.16,0,3.25-6.78,9.77-4.59,3.12,1.05,4.21,8.52,9.69,6.81-.9-6.53,13.27-12.54,18.5-12.08,3.28.28,4.48,3.22,7.78,2.9,2.76-.27,2.94-2.73,4.71-4.28,1.15-1.01,3.77-1.3,4.51-2.51,2.94-4.8-3.23-24.08,5.1-28.87,8.54-4.91,6.83,8.81,15.37,7.88,3.52-9.53-5.24-14.14-6.91-22.88,8.83-5.89,19.41-6.85,29.78-5.23l2.29-8.76,2.82-.12-1.62-3.93c-5.04,1.96-10.43,1.23-15.42,2.4-5.2,1.21-11.24,4.3-16.89,6.08-1.12.36-2.19,2.05-3.77,2.31s-6.12-1.69-6.8-2.84c-1.13-1.91.08-4.83-.97-7.04-.7-1.48-3.03-1.13-4.05-3.91-2.78-7.54-1.31-19.31-3.4-27.4.52-1.53,3.44-1.68,4.96-3.11,1.96-1.84,13.45-18.19,14.42-20.54,2.93-7.09-2.59-12.58-9.94-11.99-1.55.12-7.8,1.77-8.58,2.7-.4.47-5.62,10.07-5.9,10.84-1.14,3.19-.8,11.27-1.63,12.47-1.48,2.16-7.1,3.9-7.87,5-.71,1.01-.41,2.94-1.09,3.91-1.59,2.3-4.43,3.9-5.88,6.11-5.56,8.49-1.71,24.02,5.19,30.98l6.65-.99c2.56,1.31,1.39,3.71.46,5.79-5.38-.67-10.9,2.39-6.95,7.65l-.88.98c-2.24,2.06-4.4.76-7,.52-1.11,3.13,2.44,1.47,2.92,2.04.87,1.03-.84,5.71-.92,7.46-.35,8.06.4,15.52-2.01,23.48-5.99-2.87-18.34,5.42-14.99,11.98-5.66-1.89-9.12,1.57-13.99,0,.23-2.57,4.53-.87,3.93-3.41-.54-2.33-3.72-4.93-5.85-3.49-.66.45-.68,4.1-1.12,5.19-.53,1.31-2.33.1-1.95,1.71,3.58.57,7.61,1.56,5.49,6-1.38-2.24-5.83-2.24-6.96-3.95-.2-.31-.61-6.83-.43-7.4.17-.53,4.16-3.47,4.41-5.64,4.04,3.57,4.8-.61,8.47,1.01-.15-5.59-4.33-9.69-6.29-15.19-.98-2.74-2.9-9.67-3.46-12.53-.5-2.61.37-7.77-.69-9.3-2.89-4.21-14.77,7.63-17.84,9.24-2.05,1.08-8.24,3.71-10.22,3.69-3.45-.04-8.02-6.57-8.47-9.46-.54-3.48,1.7-5.02,1.56-6.5-.2-1.99-3.75-1.82-2.55-4.92l6.99.99v-2.99s-7.99-2.02-7.99-2.02c3.62-5.74-.77-8.81-1.03-14.52-.48-10.65,10.12-14.81,16.69-20.78.54-.49.39-2.22,1.92-3.55,2.17-1.89,4.79-1.66,7.4-1.11-2.35-11.26,5.78-7.32,13-9l-4.01-1.99-.04-3.37,6.03-4.14c.8-2.85-3.95-.17-2.98-2.97,1.82-5.28,10.87-6.83,7.99-15.5l.99,5.99c6.93-.45.1-9.73,1-10.98l5-1.02-1-3.98c.63-.62,6.16,4.83,5.99-3h-3s.02-1.98.02-1.98c4.1-.25,3.51-6.27,5.04-8.45,1.97-2.79,11.15-.52,5.93-8.55l4.99-.02-7.99-5.97,4.33-1.85c3.44,1.31,4.28,5.26,8.66,4.82l-2.89-2.43c.84-1.35.64-3.3,1.44-4.56s3.33-.29,2.44-2.99l-5.98-.5c3.25-2.87,8.86.72,12.98-.51,2.28-2.03-11.42-7.28-1.52-8.99,2.24,1.39.15,3.04.97,4.94,1.45,3.32,7.47,4.48,5.58.54-.95-1.97-3.84-5.14,1.44-4.49,1.89.23,2.51,2.36,4.51,2-.66-7.55,7.02-10.51,10.58-16.01l2.5.64c.71,1.46,4.54,9.97,5.02,10.28,3.5,2.28,2.69-2.6,3.65-4.63,1.18-2.5,4.53-4.19,5.24-7.26-1.47.18-2.08-.04-3.53.92-2.79,1.86-1.27,5.42-4.46,5.06,1.21-3.39,1.86-5.29,1-8.98,2.69-.03,7.3-.92,7,2.99ZM1213.23,555.48c1.53-2.43-3.26-12.97-6.16-12.69-3.95.38-13.58,8.24-17.32,10.69-1.33.87-3.35.89-4.39,1.67-1.49,1.11,0,3.31-.86,4.76-2.23,3.73-6.65.95-4.65,10.77,2.3,11.28,20.05,21.68,21.41,26.59.34,1.21.31,2.14-.89,2.82-7.92,1.34-8.28,7.88-5.19,14.21,3.45,7.07,16.24,7.44,22.76,5.35,2.16-7.68-2.84-14.55-2.56-22.04,3.39-.03,5.97,2.22,7.94-1.64-.54-5.8-9.21-3.45-10.5-5.3l.07-4.07c2.09-.46,1.48,1.81,3.05,2.9,1.28.89,2.88,1.23,4.43,1.1l-3-3.5,3-3.97c-2.88-3.14-4.24-2.48-7.46-.5-2.1-1.96-.08-3.37-1.64-6.35-2.9-5.57-10.45-3.42-9.39-10.64l2.49,1.99-.07-2.91-4.92-1.1c-1.38-1.34,12.33-7.81,13.84-8.13ZM1101.17,560.39c3.66-3.52-1.49-5.87-5.23-5.85-1.94.01-4.34,1.31-5.81.94-2.04-.51-5.09-6.88-7.66-3.36,4.04,5.93,1.69,4.4.53,7.46-.43,1.12.82,2.74.02,4.04-.86,1.39-3.57,1.34-4.33,2.25-1.27,1.53-.86,6.86-2.18,9.06-.55.92-2.5,1.35-3.5,2.72-2.59,3.52-4.83,5.79-2.01,9.91,1.45,2.13,3.58,2.2,4.44,4.03-6.75.91-11.35,2.27-8.98,10.01,6.33-4.71,8.17-1.62,13.59-1.04,7.54.8,16.56-8.92,22.97-9.86,11.57-1.69,25.69,4.47,37.06,6.66l16.32-4.76c.38-1.68-.54-2.02-1.52-2.97-6.18-6.06-16.91-11.56-24.82-18.65-8.67-7.77-11.75-.02-19.85,1.98-8.51,2.1-3.7-10.57-14.77-7.34-2.05-1.55,5.42-4.93,5.73-5.23ZM1134.42,550.64c-8.45-.72-15.04,6.4-22.98,8.5l-.99.99c4.57,9.05,1.95,5.99,9.15,4.18,1.83-.46,8.07-.94,8.66-1.84.62-.95.09-4.9,1.35-7.14,1.68-2.98,5.22-1.32,4.81-4.68Z"/>
  <path d="M873.55,448.7l12.99,1.02c-.22,7.95-5.92,13.37-9.99,19.45,1.69,2.12,4.43,1.29,6.73,2.27,3.16,1.34,9.13,10.84,10.77,14.21,1.79,3.67,3.2,10.78,4.99,13,2.52,3.13,13.52,2.59,7.5,11.51-3.51,5.2-6.46,2.71-3,11.48-4.54.28-9.1,1.45-13.6,1.91-1.87.19-3.75-1.19-5.81-.92-2.97.39-5.71,3.9-10.56,1-.04,5.49-5.76,5.21-10,6-.57-2.68.72-1.72,1.97-2.48,3.74-2.27,7.76-4.36,12.01-5.53-.9-6.83-12.4,2.12-13.08-6.51-.28-3.53,4.42-2.9,4.8-8.15.3-4.04-5.04-3.4-3.63-7.72,1.01-3.08,7.71-.76,8.82-1.7.54-2.76,1.46-5.52,1.17-8.41-.71-7.22-6.17-4.68-7.63-7.49-1.11-2.13,3.4-13.04-3.92-9.96l-.51,4.97-4-1,2-10.97-5.91.95-1.08-2.93c3.17-.87,7.78-2.02,7-6.01-13.42-3.4-1.75-4.69-.23-6.23.5-.5,1.16-4.8,2.03-6.47,3.18-6.15,9.48-3.79,14.7-7.29,1.69,3.14-6.81,9.57-4.51,11.97Z"/>
  <path d="M779.6,339.8c-2.14,5.45.97,3.31,2.3,6.24.67,1.47-.41,3.21-.3,4.74l4.92-.13c-.5-6.97,6.26-.36,7.99-1.94.5-.46-.64-3.54,2.59-3.99,2.86-.4,4.28,1.06,5.99,3.06h1.48c.08-6.41,4.08-3.72,7.24-4.22,1.44-.23,2.3-2.44,5.05-1.64,1.13.33,9.69,8.52,10.19,9.92,1.2,3.38-.51,10.26-3.53,12.37-3.66,2.54-23.15,11.86-27.66,13.31-15.94,5.13-11.43-5.22-25.25-5.76-2.17-1.72,5.83-4.39,7-4l-1.19-3.8-8.78-2.68c2.61-3.82,6.76,1.21,8.96-2-3.01-2.23-1.73-4.47-.98-7.49h-10.99c.87-7.89,7.57-5.38,12.99-4.01-.92-1.36-.05-3.86-.21-4.51-.08-.34-5.31-2.7,2.21-3.47Z"/>
  <path d="M854.87,479.36c2.52,1.69,6.73,3.27,7.44,7.01.87,4.56-5.73,3.42-6.62,5.95l.7,18.19c-6.31,1.35-15.94,8.03-21.59,8.98-3.72.63-8.11-2.48-8.31-6.24,2.96-1.7,8.55-6.7,9.09-10.06.47-2.96-3.23-.85-4.02-1.52,3.94-3.91.17-4.63-.75-7.73-3.31-11.02,12.21-2.12,12.52-7.74-5.7-4.66,6.53-10.41,9.59-9.4,1.23.41,1.37,2.19,1.94,2.57Z"/>
  <polygon points="957.39 603.71 958.55 618.91 950.52 621.57 949.62 604.69 957.39 603.71"/>
  <path d="M1109.43,641.57c.86,4.06-11.06,9.8-11.98,5.48-.56-2.62,10.07-4.29,11.98-5.48Z"/>
  <path d="M1058.46,647.55c-5.12-.17-11.53-.24-14.97-4.49,1.74-2.54,1.89-.57,3.25-.29,3.8.81,9.41,1.31,11.72,4.77Z"/>
  <path d="M989.49,312.83c-.92,3.22-3.42,1.85-5.5,2.89-1.64.82-2.72,4.35-6.49,3.09,3.31-3.23,7.05-8.65,11.99-5.97Z"/>
  <path d="M1118.42,353.78c-4.28.58-6.57-1.65-5.99-5.99,4.29-.79,6.1,2.01,5.99,5.99Z"/>
</svg>