<?xml version="1.0" encoding="UTF-8"?>
<svg id="Layer_1" data-name="Layer 1" xmlns="http://www.w3.org/2000/svg" viewBox="0 0 369.21 287.77">
  <defs>
    <style>
      .cls-1 {
        fill: #231f20;
      }
    </style>
  </defs>
  <g id="Layer_2" data-name="Layer 2">
    <g id="Layer_1-2" data-name="Layer 1-2">
      <path class="cls-1" d="M212.53.07c3.12,1.84,6.12,3.87,9,6.07,3.45,2.65,5,3.56,9.34,3.9,3.38.38,6.8.19,10.11-.56,2.3-.61,2.68-1.45,5-.51s4.67,1.9,7,2.89c-3.76-4.46-.34-7.19,3.54-9.62.94-.56,1.85-1.18,2.71-1.86,1.39-1.14,1.93.52,3.09,1.58,2.77,2.6,5.88,4.81,9.25,6.58,3,1.53,5.24,2.12,7.43,4.85,1.7,2.27,3.27,4.64,4.7,7.09,1.4,2.44,3.08,4.71,5,6.76.99,1,2.1,1.87,3.3,2.6,1.88,1.12,1.38,2.32,1.62,4.4.73,6.27,7.27,8.7,11.89,12.09,6.11,4.46,12.42,7.3,19,10.82,2.72,1.46,5.84,1.82,8.78,2.64,3.19.87,4.83,2.77,8.14,2.37,2.24-.27,2.52-1.06,3,1.49.36,1.82.69,3.66,1,5.48.74,4.28,1.45,8.58,2.52,12.78,1.83,7.24,5.49,13.71,8.17,20.62,1.09,2.79,2.26,8,5.34,8.47s5.31,2.79,6.73,5.48c2,3.87.79,5.4-1.22,9.12-1.63,3-3.18,8.09-6.13,9.82-1.94,1.13-2.89,1.07-2.84,3.49.06,1.78.24,3.55.56,5.3.68,4.07,1.76,8.12,1.67,12.28-.06,3.54-.48,7,0,10.58.21,1.72.67,3.41,1.37,5,1.1,2.42.12,2.81-1.16,5.08-2.85,5,3.77,12.07-3.13,16.47-3.75,1.04-7.66,1.38-11.53,1-1.94-.18-3.86-.46-5.77-.86-2.63-.54-3,.51-4.91,2.24s-3,2-3.1,4.69c-.11,2-.21,4-.26,6,0,1.7.73,3.72-1,4.5-1.46.57-2.86,1.29-4.18,2.14-5,3.72-1,9.89,2.69,12.64,2.06,1.52-.53,4.78-2.35,5.94-3.24,2.07-3.83-1.32-5.21-3.76-1-1.69-2.24-3.61-4.36-3.81-3.29-.3-2.5,2.92-2.71,5.36-.17,2-3.43,4.11-5,5.31-3.3,2.46-5.05,1-8.59.45-6.74-1-11.91,2.75-18.75.19-3.27-1.22-6.87-2-10.3-.9-2.71.9-1.41.47-2.84-1.46-.96-1.22-2.22-2.17-3.66-2.76-3.88-1.67-10.7-2.56-14.87-1.72-2.63.53-4.56,2.56-6.2,4.54-.86,1-1.67,2.08-2.56,3.08-2.11-.65-4.14-1.54-6.05-2.64-1.42-.84-2.67-1.92-3.71-3.2-1.4,1.09-2.91,2.02-4.51,2.77-3.1,1.48-6.91,1.2-9.78,2.81-2.7,1.44-5.02,3.5-6.78,6-2.07,3.12-.81,7.71-3,10-2.5,2.59-4.93,5.23-7.52,7.74-2.07,2-5.18,3.75-5.95,6.68-.6,2.32-.43,5.31-2.6,6.87-3,2.38-6.7.73-9.92-.2-2.84-.81-5.35-1.1-6.33,2.18-.27,1.16-.6,2.31-1,3.43-1.72.48-3.38,1.15-4.95,2-2.32,1.23-6.59,5.39-8.93,3.82-3.12-2.06-4.94-5.68-8.78-6.26-4-.61-8-1-12-1.71-3.28-.6-4.54,2.44-6.74,4.65-2,2-4.29,3.6-7.16,3.65-3.5.43-9.86,2.54-12.5.36-3.14-2.61-7.3-2.11-10.7-.34-1.74.91-3,2.44-4.9,2.64-3.09.3-2.92-.12-4-3.05-1.66-4.44-3-9-4.72-13.42-1.42-3.69-3.41-10.29-7.38-11.48-4.2-1.24-6.79-3.36-11.1-.84-3,1.79-5.16,4.83-7.14,7.67-1.5,2.18-1.7,2.24.68,3.71,1.52.94,3.14,1.71,4.73,2.51,3.21,1.63,6.33,3.56,7.94,6.93-6.39-3-13.38-4.11-20.08-6.18-3.24-1-5.29,3.15-7.27,5.57-3.68-.6-7.33-1.28-11-2,1.8-1,3.63-1.89,5.48-2.78,2.55-1.24,1.7-1.59,2.17-4.13.7-3.75,2.3-7.25,3.21-10.95,1.46-5.89-2.68-14.62,1.52-19.57-4.22-1.49-7-5-9.17-8.76-2.8-4.73-8.88-3.82-13.95-4.34,0,5.89-1.85,10.87-3.28,16.56-1.96-.61-3.85-1.44-5.62-2.49-3.33-2.07-1.7-3.09-.34-6.18,1.55-3.51-4-8.63-6-11.46-3.06-4.27-3.67-8.07-4.48-13.13-.88-5.45-2.61-10.71-3.56-16.14,2.23-.28,4.62.05,5.85-1.91,1.44-1.99,2.65-4.13,3.61-6.38,2.13-5.93-2.22-8.54-6.49-11.39-.23-6-5-10-7.65-14.91,1-2.55,1.42-5.82,4.12-6.7,3.27-1.07,6.41-2.5,9.37-4.25,2.56-1.52.14-4.9-.74-7.35-1.27-3.1-2.07-6.38-2.36-9.72-.13-2.83.39-5-.14-7.76-.54-2.69-.46-5.47.21-8.13.54-2.16,1.62-4.15,3.15-5.77.97-1.01,2.11-1.84,3.37-2.46-.31-1.3-.61-2.6-.87-3.92-.9-4.78-.9-10.15,3.53-13.23,3.24,5.77,9.34,2.08,14.34,2.15,1.23,0,2.43.31,3.51.9,1.1-1.43,2.24-2.83,3.29-4.29,3.09-4.27,2.81-7.1,1.92-12.16-.66-3.74-1.3-7.55.52-11,2-3.9,4.54-7.55,6.92-11.26,1.53-2.4,4.72-1.68,7.22-3.36s4.29-4.19,6.2-6.46c4.65-5.52,13.2-6.15,19.61-9,2.88-1.34,5.64-2.93,8.25-4.74,3.48-2.34,5.75-3,8.91.09,4.82,4.68,8.91,8.52,10.24,15.2.44,2.26,1.06,4.65,2.93,6.18,2.85,2.32,8.29-.42,11.46-1-3.57-6.22-1.4-13,2-18.74,1.86-3.2,4-6.19,6-9.29,1.33-2.08.78-2.74,3.48-1.92s5.18,1.66,7.76,2.53c-1.14-3.66-2.88-7.1-5.14-10.2l6.06-.33c2.71-.15,3,.87,4.87,2.71s2,3.09,4.61,2.3c1.76-.53,3.54-.98,5.35-1.34,7.79-1.55,16-1.28,23.39,1.92,0-1.4,0-2.8-.05-4.21,3.06.18,6.1-.61,8.69-2.24,2.43-1.42,5.09-4.58,8-4.38,3.44.23,6.49,2.05,9.85,2.71,1.27-3.42,1.81-7,2.68-10.55"/>
    </g>
  </g>
</svg>