<svg xmlns="http://www.w3.org/2000/svg" viewBox="0 0 42.13 78.57"><defs><style>.cls-1{fill-rule:evenodd;}</style></defs><g id="Layer_2" data-name="Layer 2"><g id="Layer_1-2" data-name="Layer 1"><path class="cls-1" d="M9,78.57l.73-.48,1.08.12,1.34-.85,1.09-1.21,3.51-.36,1,.24,1.81-.61.49-1,1-.25.49-1.69,1-1.33V70.1l1.09-.61-.12-1.69-.25-.25.73-.6.48-1.82-.12-.24h.49l1-1.69.84-3.76L27,57.51l.84-.85.49-2.3L29.9,51.7l1.46-4.48,1-1.46V43.7l1.09-2.05.25-.73,1.21-2.06.6-3,.61-2.3.48-.49.24-1.69-.48-.85.36-1.33,1.09-1.58-.12-.72.73-1-.12-1.33-.49-.49.49-1-.12-1.33-.37-.24V20.22l.73-.37.48.37.25,1.21,1,1.21.73.24.36-.72v-1l.37-.37.12-1,.36-.36V18.28L41,16.83l-.36-1,.36-.48V14.16l-.36-1.45.24-.6L41,9.2l-.85-1.09-.12-2.42-.36-.85-.48.24-1-1.33-.12-1.09-.85-.36.48-1.21L37.41,0,36,1.33l.36.73-1,.72-1-.72-.6.12,1,1.21V4l.72.72v.36l-1.21,1v1.7l-.6,1.09-.73-.24-1,1-.12,1-.73.49-.6-.37-.12-1.21L29.9,9.2l-.72.73v1.33l1.09,1.09.24.48L30,13.2l-.48-.12-1.21.24.24,1,1.09.36.12.6-.48.61-.49-.61-.84.37-.25.6-1.45,1.33V16.34l.24-.36-.48-.6-1,1,.61.37-.25.48-1.21.73.49,1,.72.24-.12.6-.6.12-1,.61-.12-.73h-.49l.49-1-.49-.25-1.93,1.7-.37,1.57.25.61-.25.72-.72-.24-.49-.36V21.07l-.48-.13L17.8,22.28l-1.34-1-.36.36-.48.12.24,1.58-.48-.13-.37.13v-.85l-.6-.24-.61.84-.48-.84-2.18,2h-.61L10.05,24H9l-.49.73.13,1.69L7,28.93v.49L5.45,31.11v.73l1,.73-.85,1.09.6,1.57-.12,1.33,1.58,2.91-.12.84,1,1.09v.49l-.72.73.24.72-.48,2.54-1.09.73-.37,1.45-.6.12-.37,1-1,.85L4,52.06l-.73.72-1.58.37-.36.48.12,1.82L.24,56.78l.12,1.45L0,59.08l.24.61L.36,61.5l1.33,1.7-.12,1.21.25.84.6.37h.49l-.37.24-1.09.36v1.09l.12,1.82-.12,2.3.37.48.12.73.6.36.73,1.21.6.25.49.84.72.85.73-.36.36.48.85.12L8,77.6l.61.25v.48ZM33.05,5.69h0l-.24-.48.85-.85v.36Zm-.36,1.7h0l.12-.25.24.49-.24.24Zm-1.82-.25h0l.24-.24.12.24.61.37L31.6,8.6,31.11,8h-.72ZM38.38,29.3h0v-.73l.12-.72.24-.49.36-.12.49-.61-.36,1-.37.61Z"/></g></g></svg>