<svg xmlns="http://www.w3.org/2000/svg" viewBox="0 0 34.14 86.92"><defs><style>.cls-1{fill-rule:evenodd;}</style></defs><g id="Layer_2" data-name="Layer 2"><g id="Layer_1-2" data-name="Layer 1"><polygon class="cls-1" points="3.39 0.48 3.87 0 4.84 0.12 5.57 1.33 6.78 1.57 7.38 2.3 8.11 1.82 9.32 2.06 10.05 2.54 10.78 2.78 11.26 3.51 12.47 4.24 13.56 5.33 17.19 9.32 17.8 13.44 17.55 31.48 17.07 33.53 18.77 43.46 22.28 45.16 23.73 46.61 24.58 47.7 25.67 47.94 29.3 51.57 30.02 53.39 32.45 56.66 33.41 59.32 34.14 60.77 34.14 61.98 32.81 62.35 32.33 63.44 31.11 63.68 30.75 64.53 31.36 65.25 31.11 66.22 32.2 67.55 32.08 71.43 31.36 73.12 29.9 74.45 27.72 75.06 26.64 77.84 26.39 79.9 25.3 81.72 26.03 84.38 25.55 86.44 23.49 86.92 22.88 85.35 23.61 84.02 22.28 82.08 20.94 81.11 19.61 80.27 17.8 78.57 15.98 76.39 15.74 74.7 14.77 72.28 14.53 70.46 15.98 68.52 16.46 66.1 18.77 63.68 19.01 61.14 19.01 58.23 17.92 56.54 15.13 55.81 12.83 55.93 11.86 56.9 10.65 56.9 9.81 57.38 7.99 56.3 7.75 54.96 6.9 53.87 6.54 52.91 5.81 51.7 2.91 52.42 2.66 51.33 1.82 49.27 0.24 47.46 0 46.49 1.09 45.88 2.66 43.95 2.66 42.49 3.03 41.28 2.78 40.44 2.66 38.86 3.15 38.02 5.45 36.32 7.02 35.59 7.63 34.5 8.6 34.26 8.47 33.41 7.26 32.69 7.14 31.72 6.66 30.27 7.26 29.78 7.63 28.69 6.66 27 7.51 25.55 7.14 24.33 6.9 22.64 6.3 20.82 6.54 19.01 8.96 16.46 8.96 15.86 9.56 15.13 9.44 12.95 8.84 11.26 7.02 9.93 6.78 8.96 7.99 6.17 7.99 5.45 6.66 4.96 5.21 4.12 4.72 2.54 4 1.94 3.39 0.48"/></g></g></svg>