<svg xmlns="http://www.w3.org/2000/svg" viewBox="0 0 65.5 23.12"><defs><style>.cls-1{fill-rule:evenodd;}</style></defs><g id="Layer_2" data-name="Layer 2"><g id="Layer_1-2" data-name="Layer 1"><path class="cls-1" d="M39.47,16.83v.48l-.12.12v-.24l.12-.48ZM0,6.3H0l.12.6.36.49.25-.13L.61,6.78.24,6.3ZM33.17,19.49h0l.73,1.21,1.09.85.12.24.73.73.36.6h.48l1-.24.12-.36h.85l.48-.24,1.82.12,1.94-.73.48-.48H45l.84.36.25.48.84-.12,1.34-.72L50,20.94l-.12-.48,1.33-2.06L51.82,17l1-1.57.73-2.67v-.48l.36-.61v-.36l.61-.85.6.24,1.09-.12h1.46l.48.24H59l.85.25v-.37l.84.61.49.12.72-.36,1-.25v-.36l-1-.72V8.84l.49-.37,1.33.13,1.09-.25.73-.48-.12-.61h-.61L64,7.14l-.6-.6-.61.12L62,5.81H61.5L61,6.3l-.37-.25.73-.6L61,5l-.25.12-.48.61-.24-.36-.36-.12.12-1,.6-.24-.12-.49L59.56,3l-.36.12-.6-.61V1.69l-.73-.48-.36.24.24.61L57,2.78l-.36-.12.24-.6-.12-.49-.36-.12L55.93,3l-.48.12-.73,1.69-.12.85L53.39,7h-.61l-1,.37-.37.36h.37l-.25.36.25.12L52.66,8l-.36.48-.48.37L51.69,9l.13.24.36,1.21-.24.61-.49-.37-.12-.84-.12-.61-.12.12V9.08l-.24.12-.37.49.25,1.57-.37.12-.72-.48-.61-1-.36-.12-.49-.25-.48.61V11l-.85.72-.36.73-1,.85-.24.6L44.55,15l-1,.73-2.78.72-.24.13.12,1,.36.37-.48-.24-.49.24-.72.12-.37.48-.24.73v1l-.6.85v.24l-1.34-.24-1.45-.49h-1L34,20.1l-.61-.73ZM57.51,0h0l-.85.48H57l.49-.24Zm.84,0h0l-.6.61.12.24.85-.24V.12ZM39.47,17.92h0l-.61.24.49-.61Zm.48-.24h0l-.36.24-.12-.37.12-.12Zm.36-1h0l.25.72-.37.25-.6-.49v-.36h.24ZM.12,3.27h0l.12-.73.49-.6.6.6,1,.24.24.37h.61l.48.48-.12,1-.36.48v.49L4,5.81l.84-.73h.61l.48.37.37-.37v-.6l.24-.12H7L7.26,4l.37-.13.48,1,2.42,2.55.85,1.21.24,1.33-.24.36L11.5,12l-.24.24v.6l.24.49V15l.49.85.84.73h.49l.12.36v.24l.12,1,.24.24.12.24v.25L14,19l.73,1.33v.85h-.48l-.13-.37v-.36l-.36-.24.24.24-.12.36-.12.12H14v.25l-.6.36-.24-.36-.25.24-.72-.36-.37-.49-1.21-.24-1-.49-.49-.6L8.84,19l-.49.12H7.87l-.85-1v-.61l-1-.84-1.21-.49-.48-.36.12-.48L5,14.89l-.36-.6L4,13.92l-.61-1-1-.48-.36-.61.12-.24L1.69,11l-.12-.73.25-.12.12-1.09-.37-.85-.48-1L.73,4.48Z"/></g></g></svg>