<svg xmlns="http://www.w3.org/2000/svg" viewBox="0 0 65.62 60.9"><defs><style>.cls-1{fill-rule:evenodd;}</style></defs><g id="Layer_2" data-name="Layer 2"><g id="Layer_1-2" data-name="Layer 1"><polygon class="cls-1" points="0 42.49 0.97 41.77 2.3 41.77 2.66 40.56 2.66 40.07 2.66 38.5 3.87 38.14 4.84 38.14 4.96 39.23 5.69 40.44 6.05 40.8 7.02 38.86 9.08 38.01 10.05 38.38 10.05 39.47 10.53 39.95 11.14 39.23 11.74 39.23 12.11 39.83 12.59 39.95 26.88 39.95 28.21 36.32 27 35.47 23.85 0.12 28.69 0 55.09 17.43 55.57 19.37 56.42 20.1 57.87 20.1 58.96 20.46 59.69 21.31 60.65 21.67 61.5 22.28 61.38 22.88 61.02 24.21 61.26 24.82 62.23 25.18 64.17 24.94 65.62 24.45 65.62 24.45 65.38 32.2 65.13 35.84 64.53 36.2 64.41 37.53 64.17 38.5 62.11 39.59 60.9 40.19 59.69 40.31 58.6 41.04 57.75 41.04 56.05 41.04 54.96 41.52 53.99 41.52 51.21 41.77 50.36 41.52 50.24 41.77 49.88 41.4 49.15 41.4 48.06 41.04 47.09 41.16 45.16 41.4 43.95 42.13 42.86 42.98 39.83 44.67 37.65 46.13 37.29 46.97 35.23 47.58 34.75 47.46 33.53 47.46 33.41 48.06 32.81 48.18 31.96 49.76 31.84 50.36 30.99 51.57 29.9 53.63 28.81 54.48 28.09 54.96 28.45 55.81 28.45 56.9 27.72 57.02 27.72 57.87 28.09 58.48 27.84 59.44 27.36 59.81 26.63 60.9 25.3 60.53 24.94 60.05 25.18 59.81 24.09 59.69 22.88 59.93 22.76 60.29 22.4 60.53 20.82 60.41 19.86 60.05 19.37 60.05 18.16 60.65 18.16 60.17 17.8 59.69 16.71 59.69 16.71 59.2 16.46 58.72 16.46 57.99 15.98 57.99 15.5 58.48 14.77 58.6 15.25 57.51 15.98 56.54 15.98 56.05 15.01 55.81 14.53 55.57 14.89 54.48 14.41 53.63 13.56 52.91 13.44 52.42 12.71 52.66 12.35 53.03 11.26 52.54 10.53 52.54 9.81 53.63 9.2 53.75 8.47 54.24 7.38 54.24 6.54 53.63 5.93 53.39 5.08 53.87 4.6 53.63 4.6 53.51 4.84 53.03 4.84 52.3 3.87 51.82 3.75 51.21 4 50.73 4 50.24 3.51 49.64 3.27 49.03 2.91 48.67 2.42 48.79 1.94 48.3 1.45 47.34 0.6 46.37 0.48 45.88 0.85 44.31 0.6 43.7 0.6 42.98 0 42.49"/></g></g></svg>