<svg xmlns="http://www.w3.org/2000/svg" viewBox="0 0 56.17 61.62"><defs><style>.cls-1{fill-rule:evenodd;}</style></defs><g id="Layer_2" data-name="Layer 2"><g id="Layer_1-2" data-name="Layer 1"><polygon class="cls-1" points="0.48 29.9 19.37 29.66 19.25 21.07 19.73 19.73 20.82 19.01 22.03 18.89 23.61 18.89 23.85 6.42 38.86 6.66 38.98 0 56.17 11.5 56.17 11.5 56.17 11.5 50.36 11.62 53.99 53.39 55.45 54.24 53.99 58.59 37.17 58.59 36.56 58.35 36.08 57.63 35.47 57.63 34.63 58.59 34.14 57.99 34.02 56.66 32.93 56.3 30.51 57.26 29.42 59.56 28.93 59.2 28.09 57.63 27.97 56.54 26.88 56.42 25.42 56.9 25.42 58.72 25.42 59.32 24.94 60.65 23.49 60.77 22.4 61.62 22.4 61.62 22.16 60.9 20.82 60.17 19.98 59.81 19.73 58.84 18.77 58.59 18.77 57.51 17.68 56.66 17.55 55.45 17.07 55.09 16.34 55.21 15.98 54.96 15.25 55.33 14.53 55.09 14.53 54.6 13.56 53.27 12.35 53.03 10.17 52.3 9.32 52.3 6.9 53.27 4.36 53.63 3.39 54.48 2.66 54.48 1.82 55.09 2.18 53.27 2.91 50.24 4 48.67 4.36 45.28 3.39 40.31 2.06 38.26 2.54 37.89 3.27 37.89 3.51 36.32 3.15 35.35 3.75 34.75 2.42 32.69 1.82 33.17 1.45 32.93 1.09 31.72 0 32.93 0 31.11 0.48 30.02 0.48 29.9"/></g></g></svg>