<svg xmlns="http://www.w3.org/2000/svg" viewBox="0 0 65.62 48.43"><defs><style>.cls-1{fill-rule:evenodd;}</style></defs><g id="Layer_2" data-name="Layer 2"><g id="Layer_1-2" data-name="Layer 1"><path class="cls-1" d="M0,0H5.45l.12.12V.36l7.75,3.51,6.53.25L20,3.27l3.63.12.48.24.37.49.12.24.12.24h.24l.12.36v.25l.36.12.37.24-.12.24-.13.12.37.12.24.25.24.24V7l.24.24h.13v.25l.36.24v.36H27l-.37.12v.12l.49.49.24.36.12.36v.13h.12l.24.24L28,9.81l.24.12v.24l.12.12.12.12h.24l.49.24v.12l.48.13.36.24.25.24h.12l.24-.12v-.12L31,10.9l.24-.13v-.24l.25-.24.24-.6L32,9.44l.36-.12h.13v.12l.24-.12.12-.24h.36l.49.12L34,9.08l.24.12v.12h.36l.25.12.24.37.48.36.37.48.12.49.12.24v.36l.12.49.24.12.12.36.24.85.25.12.12.24.36.24v.49l.24.36.37.37v1.08l.48,1.34v.6l.12.24H39l.25.13h.24l.36.12.36.36.73.24.36.24.49.12.12.25.24.12-.12.36.36-.24.12-.73.37-.24-.12.24v.61l-.25.12-.12.6-.36.49v.36h-.36l.12-.24.12-.36H41.4v.6l-.24.36.37.25-.13.24-.12.6-.24.25V24l.12.24-.24.37.12.24L40.8,26l.12.6-.12,1.09-.36.49.12.36.12,1-.12.48.6,1v.61l-.12.12V31l-.6-.72v.48l.36.36.24,1,.12.24-.24.37.36.36v.48l1.33,1.34.25.48.36.61v.36l.12.36,1,1.09.24.37h.85l.12.12.73.36.48.73.24.48.49-.24.85-.12.12.24h.24l1-.61.12-.12.85-.12h.48l.48-.36h.61l.48.12.25-.24.6.12-.48.24-.12.36.6.25.24.24.12-.24h.25l.48-.61v-.6l.12-.37-.48.24-.12-.12,1.09-.48.36-.12.36-.49V36l.85-.85-.12-.24.12-1.34.85-1h-.37V32.2l1.46-.36h1.93l.37-.48h.6l.24.12.49-.25V31h.85l1.09.24.24-.12-.12-.24h.48l.61.85.12.48-.37.61-.6.85-1,.84-.12.37-.12.6-.49.24-.12.25.37.24h.36l-.12.36-.49.49v.24h.25l.12-.12.24-.12-.24.36L63,38.86l-.36.73-.12.12-.24-.36L61.74,39v-.12l.25-.24v-.48l-.25.12-.48.6-.36.37h-.49l-.12.24v.36l-.36.36v.12h-.12l-.12.13h-.13v-.25H59.2l-.24.12v.37H55l-.12,1.21h-1l.37.36.12.24.36.37.36.24h.25l.24.36v.37l.12.12h.48l.25.12v.36l-.25.24h-2.9l-1.45,2.18.12.37v.48l.12.12v.24l-.24.12-.13.25h0l-.36-.37-.72-.48v-.24l-.49-.25-1.57-1.33-.24-.24V45.4l-.37-.48-.48-.37-.37-.12L47,44.31h-.12v.24l.73.24.48.61v.12l-.24-.36-.73-.37-.36-.12h-.36l-.12-.12v-.12h.24v-.24h-.24l-.25.24v-.24l-.24-.12-.48.24v.24h.36l.49.12v.12l-.25-.12-.6.12-.49.13-.6.36H43.7l-1.21.48-.48.12-1.09-.48L40.31,45h-.84l-.73-.25-.48-.24h-.61l-.48-.24-.37-.61-.12-.12-.36.25-.61-.37h-.6L34.87,43l-.61-.24-1.09-.25-1-.36-.72-.73h-.25L30,40.31l-.12-.24h-.24l-.12.12h-.36l-1-.36H28l-.49-.12h-.12l-.48-.12-.37-.49-.36-.72-.61-.49-.48-.24v-.12l.12-.36h-.24l-.48.12-.73-.24-.12-.25h-.37L23,36.68l-.12-.6-.48-.61v-.24l-.25-.36L21.79,34V33.9l.36-.24h.49l.24-.13-.36-.36h-.24l.12-.24.48-.48.24-.37V31.6l-.48-1.33-.24-.61-.12-.36.12-.37-.12-.48-.85-1.09v-.48l-.73-.73-.48-1-.73-.85-.6-.48-.25-.24v-.24l-.72-.25-.37-.24v-.12l.25-.12.24-.49-.24-.24-.12-.48-.13-.24h-.24l-.6-.12-.85-.73-.24-.24h-.49l-.36-.25v-.48l.24-.6.37-.49.24-.12.24.24.24-.12L16,17.92l-.12-.12-.12.12-.36-.12v-.37L15,17h-.85L14,16.46V16.1L13.8,16h-.24l-.85-.6v-.73l.12-.24v-.49l-.24-.24-.24.12-.24-.12h-.25l-.12-.24-.36-.24-.12-.37L11,12.35l-.25-.12L10.53,12V11.5l-.12-.36L10.05,11l-.24-.85-.12-.24H9.44l-.12-.24.12-.25.12-.24L9,8.47,8.84,8V7.14L8.6,6.78l-.13-.73-.24-.6V5.08l.37-.36V4.48l-.49-.24H7.63L7.51,4l-.37-.37-.24.12-.36.12L6.3,3.63l-.49-.72-.6-.25L5,2.18l.12.48.13.49L5,3.87l-.24.49.12,1L5,7l-.24.36L5,7.63l.37.6v.49h.24l.24.36.61.36.12.73-.12.24.12.36L6.9,11l.36.24v.6l.25.13.24.12.36.6v1L8.6,14l.12.12.36.61.12,1h.24l.12.24-.12.24v.37l.37.6.24-.12v-.48h.12l.12.36.36.48.12.85-.12.36v.49l.12.24v.48l.25.25v.36l.24.24v.24l-.12.37.36.48v.49l-.12.48V23l.36.49.37.24.12.36.12-.12v-.36l.12-.12.24.12L13,24l.12.24.37.24.12.49.24.12.12.48.24.13v.6l-.36.61-.73.36-.24-.12-.24-.49v-.36L12.23,26v-.61L12,25.18H11.5l-.36-.48L11,24.45l-.37-.24-1-1-.25-.48-.36-.12L9,22.4H8.72L8.23,22v-.36l.37-.6.12-.85v-.85l-.37-1-.12-.24H8L7.63,18l-.85-.73-.12-.72.24-.37-.24-.12-.36.49H5.93l-.24.12-.12-.37v-.12l-.24-.12H5v-.24l-.48-.24-.36-.12-.25-.37-.12-.48-.36-.12-.48-.61L3,13.68h.6L4,13.8l.6.12.24.24L5,13.92l.12-.36H4.72l-.12-.12.24-.24.37.12L5.33,13l-.25-.24v-.24l.25-.36-.25-.49-.24-.12-.24-.73-.48-.48L4,9.93l-.37-.49L3,8.72l-.25.12-.36-.49-.24-.6V7l-.12-.24-.37-.24V6.05l.25-.24-.12-.48L1.33,5l-.12-.24.24-.24V4.24l-.6-.73L.61,3.15l.12-.37L1,2.54.61,2.3.36,1.82.12.61ZM11.86,22h0l.25-.12v-.36l-.37-.36-.12.24.12.12Zm.49,1h0l-.12.37h.24v-.25Zm29.3-.6h0l.12-.12V22h-.12Zm-.12.48h0V23l.12-.36h-.12ZM41.28,24h0l.12-.48v-.25Z"/></g></g></svg>