<svg xmlns="http://www.w3.org/2000/svg" viewBox="0 0 65.62 73.24"><defs><style>.cls-1{fill-rule:evenodd;}</style></defs><g id="Layer_2" data-name="Layer 2"><g id="Layer_1-2" data-name="Layer 1"><polygon class="cls-1" points="0.85 13.2 0.24 8.47 0.85 6.29 0 1.21 3.03 2.54 3.87 1.21 7.63 3.51 8.84 1.57 12.95 1.57 14.41 0 17.19 4.36 22.03 4.36 27.97 9.81 34.14 10.41 35.11 8.23 36.8 8.23 42.74 14.16 47.58 16.59 48.79 23.25 48.3 27.84 52.66 30.02 53.27 32.08 57.99 36.32 63.44 39.59 64.04 42.98 63.32 46.13 65.62 49.4 64.89 51.45 59.32 51.57 56.3 49.15 51.33 50.85 47.7 50.97 47.09 57.75 47.22 62.47 45.4 62.23 41.77 68.77 41.65 72.16 38.5 71.19 35.71 73.25 35.47 72.76 33.05 67.55 33.9 49.76 30.63 44.31 29.18 39.1 19.13 31.11 18.28 27.24 10.53 20.46 8.35 11.86 0.85 13.2"/></g></g></svg>