<svg xmlns="http://www.w3.org/2000/svg" viewBox="0 0 65.5 30.99"><defs><style>.cls-1{fill-rule:evenodd;}</style></defs><g id="Layer_2" data-name="Layer 2"><g id="Layer_1-2" data-name="Layer 1"><polygon class="cls-1" points="0 11.02 0.36 10.29 0.73 10.05 1.7 10.17 1.82 9.93 2.18 9.44 2.91 9.2 2.91 8.84 3.03 8.35 3.63 8.11 3.63 7.87 4 7.51 4.36 7.38 4.6 7.02 4.72 6.78 4.6 6.66 4.48 6.42 4.72 6.17 5.33 6.42 5.69 6.17 5.93 5.69 6.17 5.57 7.02 5.45 7.38 5.33 7.75 5.33 8.23 5.33 8.6 5.21 8.6 5.21 8.96 5.57 8.96 5.81 9.2 6.05 9.69 5.93 9.93 5.93 10.29 5.93 10.53 5.69 11.26 5.69 11.38 6.05 11.5 6.42 11.62 6.66 12.59 7.26 13.07 7.63 13.8 7.87 14.04 7.75 14.53 7.63 15.01 7.26 15.38 7.26 15.74 7.38 16.1 7.63 16.34 7.51 17.31 7.51 17.68 7.63 18.04 7.63 18.16 7.51 18.52 7.63 19.25 7.51 19.61 6.78 19.37 6.54 19.01 6.3 19.01 5.69 19.13 4.96 19.01 4.72 18.64 4.48 18.4 4.24 17.8 4.12 17.68 3.63 17.68 2.54 18.16 2.06 18.16 1.7 18.28 1.33 18.64 1.21 18.89 1.33 19.01 0.97 18.89 0.6 19.01 0.24 19.25 0 19.61 0.12 19.98 0.24 20.46 0.36 21.07 0.73 21.19 0.85 21.67 0.97 22.16 1.09 22.88 0.97 23.25 1.21 23.49 1.45 23.97 1.45 24.33 1.57 24.7 1.7 25.55 1.57 25.91 1.82 26.03 2.06 26.03 2.42 26.27 2.66 26.27 3.03 26.39 3.15 26.63 3.63 26.63 4.12 26.88 4.24 27.12 4.24 27.6 4.72 27.72 4.96 28.33 5.08 28.93 5.45 29.3 5.45 29.42 5.33 30.14 5.33 30.39 5.08 30.75 5.08 30.99 5.21 31.23 5.21 31.6 4.72 32.2 4.6 33.05 4.48 33.53 4.24 34.02 4.24 34.63 4 34.99 4.36 35.71 4.36 36.44 4.36 36.92 4.96 37.65 5.33 38.26 5.21 38.74 5.21 38.98 5.33 39.23 6.05 39.59 6.3 39.83 6.42 40.19 6.54 40.56 6.9 40.8 6.9 41.77 6.9 42.62 7.14 43.95 7.02 44.43 7.02 44.67 6.78 45.16 6.78 45.52 7.02 45.76 7.02 46.13 6.54 46.85 6.05 47.46 6.05 47.7 5.69 48.06 5.57 49.03 5.57 49.52 5.21 49.64 4.84 49.64 4.6 49.88 4.24 50.36 4 50.6 3.75 50.85 3.27 51.09 2.91 51.45 2.91 51.57 3.03 52.3 2.91 52.66 2.91 53.15 3.27 53.39 3.63 53.75 3.75 54.12 3.51 54.36 3.75 54.72 3.75 55.21 3.39 55.21 3.15 55.93 3.03 56.66 3.27 56.9 3.63 56.54 6.9 56.54 7.63 56.42 8.23 56.42 8.6 56.17 9.56 56.54 10.17 57.51 10.65 58.23 10.17 59.08 10.17 59.93 10.29 60.41 10.78 60.9 9.93 60.9 9.56 60.9 9.08 61.5 8.96 61.74 8.72 62.59 8.96 63.2 9.69 63.92 10.41 64.53 11.14 65.38 11.74 65.38 12.11 65.5 12.35 65.5 12.71 65.38 12.95 65.38 13.32 65.13 13.56 64.89 13.44 64.65 13.2 64.17 13.32 63.92 13.44 63.32 13.2 62.95 13.32 62.59 13.8 61.99 14.29 61.74 14.53 61.26 14.29 61.14 14.29 61.14 14.65 61.02 14.89 60.65 14.89 60.41 14.89 60.29 15.13 59.93 15.74 59.81 16.34 59.81 16.83 59.69 17.07 59.2 17.19 58.23 17.8 57.75 17.8 57.26 17.68 57.02 17.92 56.54 18.77 56.17 19.01 55.69 19.37 55.45 19.73 55.33 20.1 55.09 20.1 54.6 19.86 54.12 19.73 53.51 19.49 52.91 19.13 52.42 19.13 51.57 19.37 51.09 19.73 50.85 20.1 50.73 21.07 50.85 21.55 50.73 21.79 51.7 22.4 52.66 23 52.66 23.25 52.42 23.61 52.06 24.09 51.21 25.06 50.6 26.03 50.36 26.75 50 26.75 49.27 26.88 48.79 27 48.18 27.36 47.7 27.72 47.09 27.84 46.13 27.84 45.52 28.09 44.91 28.33 43.34 28.81 42.13 29.18 41.52 29.9 40.68 30.63 40.31 30.99 39.83 30.99 39.1 30.75 39.1 30.51 39.1 30.27 38.14 30.51 37.41 30.63 36.68 30.14 36.08 30.14 34.75 29.66 33.41 29.06 32.69 28.33 32.08 28.33 30.63 28.09 29.3 28.21 28.93 28.09 28.69 28.21 28.57 28.45 27.84 28.69 26.88 28.81 25.18 28.69 23.85 28.81 22.88 28.69 22.03 28.81 21.55 28.81 21.19 28.69 20.7 27.84 20.58 27.36 20.1 26.64 19.73 26.27 19.49 25.67 19.49 25.42 19.13 25.06 18.89 24.94 18.64 24.94 18.52 24.7 18.52 24.33 18.4 24.21 18.16 24.21 17.55 24.21 17.07 23.97 16.22 23.37 15.98 23.37 15.86 23.37 15.38 23.25 15.25 23 14.65 22.64 13.2 22.28 12.95 22.28 12.83 22.52 12.23 22.52 11.38 22.52 9.2 22.16 8.84 21.79 8.35 21.07 8.23 20.82 8.23 20.46 8.35 20.22 8.72 19.98 8.84 19.61 8.6 19.37 8.47 18.89 8.6 18.52 8.47 18.04 8.35 17.8 8.11 17.43 7.75 17.19 7.38 16.95 7.26 16.59 7.02 16.22 6.9 15.86 6.9 15.62 6.66 15.25 6.29 14.89 6.05 14.89 5.81 14.65 5.45 14.41 5.21 14.53 4.96 14.65 4.72 14.77 4.48 14.65 4.12 14.29 4.12 14.16 3.63 14.16 3.27 14.29 3.03 14.53 3.03 14.77 2.79 14.77 2.42 14.53 2.3 14.16 2.3 14.04 1.94 13.68 1.57 13.44 1.21 13.07 0.97 12.95 0.73 12.71 0.6 12.47 0.6 12.23 0.48 11.98 0.48 11.98 0.48 12.11 0.24 12.23 0.12 11.86 0 11.74 0 11.26 0 11.02"/></g></g></svg>