<svg xmlns="http://www.w3.org/2000/svg" viewBox="0 0 65.62 81.11"><defs><style>.cls-1{fill-rule:evenodd;}</style></defs><g id="Layer_2" data-name="Layer 2"><g id="Layer_1-2" data-name="Layer 1"><polygon class="cls-1" points="32.45 81.11 33.17 67.8 38.14 57.38 45.64 48.18 48.3 48.67 52.78 55.21 59.08 47.46 60.17 43.46 65.62 38.74 65.13 30.63 55.93 29.06 50.12 23.49 42.01 23.49 38.62 19.61 38.62 13.8 30.87 6.42 30.27 7.02 24.45 5.21 16.83 0 12.47 3.15 12.71 8.6 19.25 12.83 21.55 18.04 16.1 20.94 10.9 21.43 7.99 28.81 7.75 38.5 3.51 46.37 0 48.18 2.54 51.45 9.69 54.48 23.25 71.67 24.33 77.12 32.45 81.11"/></g></g></svg>