<svg xmlns="http://www.w3.org/2000/svg" viewBox="0 0 65.5 51.82"><defs><style>.cls-1{fill-rule:evenodd;}</style></defs><g id="Layer_2" data-name="Layer 2"><g id="Layer_1-2" data-name="Layer 1"><polygon class="cls-1" points="22.64 51.82 22.76 46.97 25.42 45.16 26.51 43.7 28.09 42.49 31.11 41.89 32.81 41.89 33.78 41.65 35.96 41.65 38.14 41.16 42.74 38.38 48.79 34.99 52.66 32.2 53.15 31.11 53.15 29.42 53.63 28.09 54.84 27 56.17 24.82 57.63 24.58 64.29 24.58 65.01 23.49 64.89 23.12 65.5 21.55 65.01 21.19 64.41 21.19 63.8 20.7 62.95 20.46 62.71 19.37 61.86 17.68 61.38 13.44 61.14 12.59 61.26 10.41 61.14 8.6 60.9 8.11 60.77 7.14 60.17 6.29 59.81 5.57 59.44 5.08 58.72 5.08 55.45 4.84 54.72 4.12 54.48 3.03 54.12 2.91 53.99 2.91 53.03 4 51.21 4.36 49.4 3.87 48.43 3.75 47.34 4.48 45.64 4.72 44.31 4.48 42.74 2.78 42.13 2.3 41.89 1.45 41.89 0.73 42.13 0.48 41.77 0 40.68 0.36 40.19 0.85 39.35 0.73 38.26 1.94 38.01 4.96 36.8 6.66 36.56 8.96 35.84 10.41 33.29 12.71 32.69 12.83 31.36 13.68 29.3 14.41 27.72 16.1 27.12 16.1 24.94 17.55 23.61 18.04 22.76 19.25 20.22 21.07 21.07 23 20.94 24.33 18.64 26.39 17.19 29.42 17.19 30.63 18.04 32.57 17.31 34.63 17.8 35.11 18.52 35.96 18.04 37.53 14.53 41.52 14.16 43.1 12.59 44.91 10.78 45.04 6.78 48.55 1.33 49.64 0 51.45 22.64 51.82 22.64 51.82 22.64 51.82"/></g></g></svg>