<svg xmlns="http://www.w3.org/2000/svg" viewBox="0 0 51.57 82.57"><defs><style>.cls-1{fill-rule:evenodd;}</style></defs><g id="Layer_2" data-name="Layer 2"><g id="Layer_1-2" data-name="Layer 1"><polygon class="cls-1" points="3.39 60.53 8.84 55.09 8.96 53.39 9.2 52.91 9.2 51.33 9.56 50.85 9.32 50 9.44 49.27 10.17 49.27 10.41 48.67 11.38 47.94 11.99 47.09 11.74 46.37 11.26 45.88 11.26 44.91 11.74 44.55 11.5 43.7 10.78 42.98 10.78 42.37 11.38 42.25 11.38 41.16 11.38 40.31 12.23 39.83 12.47 39.1 11.74 39.23 11.38 38.74 11.86 37.89 11.99 36.44 12.35 35.71 12.35 35.11 12.23 34.5 12.47 33.78 12.23 33.05 12.71 32.32 12.71 31.48 11.62 31.48 11.02 30.75 10.17 30.14 8.6 29.9 7.75 29.78 6.9 28.69 5.57 27.84 4.12 27.6 3.87 28.09 3.27 28.21 3.03 27.6 2.3 27.48 0.6 27.48 0.48 25.18 0 23.61 0.48 22.88 2.42 21.91 3.39 21.91 8.47 19.86 9.32 19.61 12.23 18.52 13.68 18.04 15.01 17.68 15.38 18.16 15.5 18.64 15.98 19.13 15.98 19.73 16.83 20.22 17.19 19.98 17.8 19.98 18.28 19.61 19.25 19.49 20.58 19.86 21.07 20.58 21.07 22.03 20.94 23.12 19.98 24.21 19.73 25.3 19.01 26.27 19.13 27 19.61 28.21 19.73 28.93 20.58 29.9 21.31 30.75 22.03 31.11 22.52 31.6 23.24 32.45 22.88 33.05 23.12 33.78 24.09 33.53 24.33 32.57 23.97 31.36 24.45 30.51 24.58 29.66 25.06 28.33 26.03 28.09 26.75 27.48 27 26.75 27.12 24.94 26.63 24.33 26.75 23.85 26.51 23.49 26.63 23.12 27.12 23 27.36 22.52 27.97 22.28 27.97 21.79 27.6 21.19 27.24 19.98 26.15 18.4 25.79 17.68 24.09 15.98 23.61 15.86 23.24 15.38 22.52 14.65 20.94 13.92 20.22 9.32 21.43 4.96 26.15 4.84 26.88 4.72 27.12 4.36 27.84 4.24 27.84 4.6 28.45 4.84 29.06 5.21 29.78 5.33 30.27 5.81 30.14 6.29 31.6 5.81 32.57 5.08 33.17 4.96 33.53 4.6 34.14 4.84 34.14 5.21 34.87 5.21 35.47 5.57 36.44 5.21 37.77 5.08 38.14 4.36 37.89 3.75 38.26 3.51 39.23 3.75 39.83 3.63 40.56 4.12 41.4 4 41.89 3.63 43.7 3.03 44.43 3.39 45.16 3.15 45.52 2.66 46.73 2.54 47.34 1.82 48.43 1.7 49.15 1.09 49.64 0.24 50.6 0.6 51.09 0 51.21 0 51.57 0.24 51.33 1.33 51.09 1.94 51.33 2.18 50.36 3.63 50.24 4.12 50.48 4.48 50.48 4.84 50.12 5.21 50.36 6.9 50.97 7.99 50.6 8.23 50.6 9.56 50.97 9.81 50.97 11.02 50.48 11.62 50.6 12.83 50.24 15.25 50.12 15.25 50.36 15.74 50.36 17.92 49.64 18.04 49.64 18.28 49.88 18.64 50.85 18.77 51.09 18.89 51.33 20.82 50.85 21.55 50.24 21.79 50.6 22.28 50.48 22.76 49.88 22.76 49.15 23.49 49.27 23.73 49.52 23.49 50.12 23.61 49.76 24.21 49.64 25.18 48.91 25.3 47.94 26.75 47.94 27.24 46.97 28.69 46.13 28.69 46.13 29.66 42.86 31.48 42.37 31.48 42.13 32.2 38.98 33.9 37.77 33.78 37.77 34.02 36.32 34.63 34.38 35.96 33.9 35.59 33.9 36.2 32.69 37.77 32.08 38.01 31.72 37.17 31.48 38.5 30.87 38.62 30.75 39.35 28.81 40.56 28.69 41.04 28.21 41.52 27.72 41.65 27.84 42.25 26.63 42.37 23.97 44.07 24.21 45.28 23.24 45.88 22.16 45.88 21.67 46.49 20.7 45.88 20.22 46.01 20.22 46.37 20.7 46.97 20.58 47.7 20.22 48.18 20.46 48.91 19.86 49.76 21.31 51.57 21.31 52.3 20.7 52.78 21.19 53.03 21.67 53.87 21.79 55.09 22.28 56.17 22.03 59.2 22.4 60.29 22.76 60.17 22.76 59.32 23.24 58.23 23.36 59.2 23.61 59.2 23.49 60.53 23.12 61.02 23 62.35 23.24 62.59 22.64 64.17 22.64 64.89 22.28 65.5 22.16 66.47 21.91 66.47 22.03 67.31 22.88 66.95 23 67.43 22.4 68.4 22.03 69.61 20.34 71.55 17.07 73 12.83 73.85 11.14 75.42 9.81 75.79 9.44 76.39 8.84 76.88 8.47 78.09 7.99 78.09 7.51 78.33 7.75 78.57 8.23 79.54 8.23 80.39 8.6 79.78 9.32 80.02 9.56 79.18 9.81 79.18 9.93 79.66 9.69 80.99 9.2 81.84 9.2 82.57 8.23 82.57 6.54 82.2 6.05 82.32 5.93 81.96 6.17 81.11 6.29 80.39 6.42 80.14 5.93 79.42 5.45 78.94 4.96 78.57 4.84 78.45 4.84 76.88 4.96 75.42 5.33 73.85 5.33 70.1 5.08 68.89 4.72 68.04 4.72 67.07 4.72 66.83 4.72 64.53 4.12 63.32 3.87 61.98 3.63 60.65 3.39 60.53"/></g></g></svg>