<svg xmlns="http://www.w3.org/2000/svg" viewBox="0 0 41.16 92.37"><defs><style>.cls-1{fill-rule:evenodd;}</style></defs><g id="Layer_2" data-name="Layer 2"><g id="Layer_1-2" data-name="Layer 1"><path class="cls-1" d="M18.52.36,19.25,0l1.09.48.73-.36h1l.61,1.21,1,.73.24,1.33h.85l.72,1V5.69l.85,1.57.12,1.46L26,10.65v1l-.12.49-.85.48-.12.85-.48.12-.25.6.49,1-.37.49-.6-.24L23,16.1l-.36.73.48.6-.48.73v.73l.85.36.24.6.73.61-.13,1.09.37,1.09,1.09-.85L28,21.43l.12.72-.24.49.48.48,1.21-.24.24.73-.24.85.48.72,1.21.24-.24.49.37.6.12-.36,1.33-.24,1,.6v.73l-.37.85v.6l-1.09,1.46-.84.84.12.73.72-.36,1.46.12.24.36.73-.73.6.85-.24,1.21.24.85,1.09.6.61-.6h1.09l2-.85,1,.24-.12.85-1.33,1.09-1.33.36v.85l-.49.73.37.6-.85.73H36.8L36.32,40H35l-1.09.36v.49l.48.73L34,42l-1.09-.12-.61.48-.12,1.21-.24.49H31l-1.09.85-1.81-.73-.73,1,.24,1.57-.6.73v1.33l.36.73-1,.6-1.09.61v.72l.73.12.73,1.34.72.72.24.61,1.21.84L30,57.51l.73.24L31.36,59l.12,1,1,.48.12,1-.85.48-.36.61.48,2.42-.12.61-1,.6.61,1.58.12.84L32.69,70,34,71.19l1.33,1.21.49,1.93-.25.73.12,1v1l.49.6.24,1.33.36.85-.12,1.33.61,1v1.58l-.61.36-1.09,2.9-1,.73-.12,1.09-.48.85-.24.6.12-.12-.49,1-.12,1.33-.48-1.45V89.59l-.24-.49-.12-.48.36.12.36-.36.61-.85V86.8l-.37-.36.25-1.21.24-.12.24-.49-.48-1.33.72-.48-.72-.73-.49-.6V80.27l.37-.49-.37-.85-.36-.36-.36-2.78-.61-.61-.24-1L31,73.12l-.24,1.46-.24.24V74l-.36-.85V71.19l-.61-.85-.12-1,.36-.36-1.09-.61-.12-1.57-.24-.12-.48-3.39L27.36,63l-.24-.84.36-.25v-.48L27,60.29l.24-.48v-.49l-.36.61-.61.24h-.73l-.24-1.09-.48-.48L24,56.78l-.24-.48-.36-.13v-.48l-.85-.48.48.6-.12.36-.12.49.48.36v1l-.48.48L23,59l-1.21,1-.85-.12-.48-.61H20.1l.36.73v.24l.73.24L20.1,61h-.61L19,60.65l-.24.85L17,62.71H16l-.12.12h-.48v-.24l-.13.48-.48.13-.48-.73-1.21.73-.25.6h-.48V62.59l1.21-1.21.12-1.45-.6,1.33-1,.85-.73,1.09v-.37l.12-.36-.36-1L12,56.9l1-.6-.36-.49-.85-1.94-.12-1.81-.48-.24-.24-.49.24-.24-.61-.48-.36-1.34-.48-.72-.37-.73v-.73l-1.09-.72.37.72.12,1.58L7,48.18l-.72-1-.13-.49L5.33,46l-.12-.48h.84l.37.73.6.36.37-.36L7,46.13l-.6-.61L7.14,45l.49.6.6-.24-.12-.73-.85-1.33L5.81,43l-.36-.49-.85-.24-.24-.48v.48l-.85.12L3.39,42l.73-.85-.85.12-.73-.6v.48l.37.73L.85,40.07.48,38.86l-.36-1H0v-.24l.12-1,1-1.09.36.25.49-1.09V33.17l.12-.85.48.13L3,32.2l.48-1.57-.24-.85.24-1.21-.24-1.21,1,.12.12-1.57.12-1.21-.61-2.3,1,.12.73.24H6.9l.73-1.82L8,19l1-2.42L7.87,16.1v-.72L9.2,13.2l.61-1.82-.49-.61.24-1.08,1.58-2.31,1-.36L13.2,5.57l.48-1.09L15.13,4l1.33-.85.73.6,1,.37-.24-.73V2.18l.85-.85L18.64.61ZM6.05,49.15h0l.25.61,1,.6.25-.84-.85-.73Z"/></g></g></svg>