<svg xmlns="http://www.w3.org/2000/svg" viewBox="0 0 65.62 61.5"><defs><style>.cls-1{fill-rule:evenodd;}</style></defs><g id="Layer_2" data-name="Layer 2"><g id="Layer_1-2" data-name="Layer 1"><polygon class="cls-1" points="39.35 40.68 39.35 40.56 40.19 25.18 44.55 25.06 45.4 7.63 49.03 7.75 53.75 6.66 55.21 6.3 55.81 6.17 56.05 6.05 56.3 6.3 56.54 6.9 56.9 7.26 56.66 7.63 56.54 8.35 57.02 8.35 58.6 7.26 59.56 6.05 60.53 5.08 61.5 4.96 61.74 5.33 62.35 5.45 63.08 5.08 64.53 4.48 65.62 4.24 64.89 3.39 64.65 3.27 64.41 3.03 63.92 3.15 63.56 2.79 63.32 2.79 63.08 2.66 61.86 2.91 61.38 2.91 49.15 5.69 48.79 5.69 48.43 5.69 48.06 5.69 47.82 5.57 47.34 5.45 47.09 5.08 46.73 5.33 46.37 5.08 45.88 4.96 45.28 5.08 45.28 5.45 44.91 5.57 43.95 5.57 43.1 5.21 42.01 4.24 41.4 4.12 41.16 4 41.04 4.6 40.44 4.72 39.23 4.36 38.26 4.6 37.65 4.96 36.92 4.72 36.8 4.48 36.32 4.24 35.59 4.36 34.5 4.12 33.53 3.63 33.17 3.27 32.69 2.42 32.32 2.18 14.16 2.18 13.8 2.06 13.32 2.06 12.71 2.54 12.47 2.42 11.62 2.91 10.65 2.42 9.56 1.57 9.2 1.33 9.32 0.97 8.84 0.73 8.72 0.36 8.11 0.12 7.75 0.24 7.38 0.48 7.14 0.24 6.42 0 5.81 0 4.36 0.97 4.24 1.7 3.75 2.06 3.15 1.57 1.94 1.45 1.7 1.57 1.45 2.18 1.09 2.3 0.85 2.18 0 1.94 0 1.94 0.36 6.17 3.15 9.08 4.72 11.74 7.14 17.19 7.51 19.37 9.93 22.76 9.93 24.21 12.47 27.84 12.47 29.9 11.86 30.14 12.59 32.69 12.71 36.44 14.16 40.19 14.04 42.37 14.53 43.7 13.8 44.19 14.41 44.91 14.77 47.46 15.38 47.82 15.86 48.67 15.25 49.03 15.25 50 16.1 50.85 16.22 52.78 17.07 53.99 18.28 56.3 19.37 57.51 19.61 58.11 21.31 59.32 22.03 58.96 23 58.72 23 58.11 22.76 57.87 23.24 57.02 24.45 56.54 24.94 57.51 25.91 57.51 25.55 58.6 26.15 60.05 27.84 60.41 28.93 61.02 29.66 60.77 30.27 61.02 30.99 61.14 31.48 60.77 32.2 60.77 32.57 61.38 33.17 61.26 33.78 61.5 33.9 60.41 34.26 60.05 34.87 59.81 35.35 58.84 36.68 58.23 38.14 58.35 38.62 58.35 39.35 40.68 39.35 40.68"/></g></g></svg>