<svg xmlns="http://www.w3.org/2000/svg" viewBox="0 0 65.5 34.5"><defs><style>.cls-1{fill-rule:evenodd;}</style></defs><g id="Layer_2" data-name="Layer 2"><g id="Layer_1-2" data-name="Layer 1"><polygon class="cls-1" points="2.79 0.36 3.15 0 5.45 1.21 6.05 2.06 7.63 1.94 8.47 2.3 9.44 0.97 11.38 0.73 14.29 1.82 15.13 2.66 16.95 2.78 18.16 3.63 20.46 6.05 22.28 6.05 23.97 6.9 24.7 7.99 26.03 9.56 26.75 11.38 27.48 11.02 27.72 8.6 28.57 7.75 29.18 8.47 30.87 8.47 32.45 9.44 32.69 11.62 34.63 13.32 37.17 12.71 39.1 12.95 38.62 16.22 39.59 18.04 40.92 17.8 43.1 18.77 44.07 17.92 45.76 17.43 47.22 15.86 50.12 16.22 52.06 17.19 52.54 19.01 54.84 19.98 56.42 22.16 57.87 22.52 59.81 21.67 60.65 21.91 62.83 21.31 64.17 21.43 64.77 23 64.04 26.88 65.5 29.9 65.01 33.53 60.05 34.5 57.14 32.93 55.45 33.9 48.55 31.36 45.88 31.48 44.31 32.33 40.19 31.11 38.14 29.3 37.65 27.24 33.9 26.39 29.78 27.48 28.45 26.27 24.45 26.63 21.79 24.94 19.61 24.94 18.16 23.85 15.13 23.12 12.71 20.22 9.08 17.8 6.29 16.95 4.96 15.98 3.51 15.98 2.18 14.89 0.48 14.65 0 12.71 1.82 9.93 1.82 7.38 3.03 3.15 2.79 0.36"/></g></g></svg>