<?xml version="1.0" encoding="UTF-8"?>
<svg id="Layer_1" data-name="Layer 1" xmlns="http://www.w3.org/2000/svg" viewBox="0 0 246.24 287.88">
  <defs>
    <style>
      .cls-1 {
        fill: #231f20;
      }
    </style>
  </defs>
  <g id="Layer_2" data-name="Layer 2">
    <g id="Layer_1-2" data-name="Layer 1-2">
      <path class="cls-1" d="M175.17,6.37c2.64-5.17,8.81-5.29,13.81-6.37.67,3.49-1.71,3.22-4.83,4.17-2.96.89-5.96,1.63-9,2.2"/>
      <path class="cls-1" d="M145.7,5.71c7.61,1.29,15.28-.09,22.93-.21-7.32,2.58-15,3.98-22.76,4.14,0-1.31-.12-2.62-.17-3.93"/>
      <path class="cls-1" d="M179.62,11.94c10.05-.18,19.99-1.99,29.46-5.36,3.08-1.14,11.77-3.47,13.51.44,1.74,3.91,2,8.32,5.08,11.35,2.31,2.87,8,1.63,9,4.63,1.12,3.38,4.33,5,7.58,5.82,2.4.58.82,3.6.46,5.65-.58,2.36-.53,4.83.14,7.17,1.63,4.46,1.84,9.32.59,13.9-1.13,4.36-4.19,7.36-5.71,11.39-1.72,4.58-2,9.52-2.18,14.36-.08,2.45-.13,4.89-.31,7.33-.22,3-3.08,1.83-5.65,1.94-4.21.2-8.57-1.74-12.76-.7-6.84,1.71.51,7.24-1.88,9.28-2.84,2.41-3.93,4.63-1.27,7.86,2.1,2.52,5.64,3.12,8.68,3.68,1.62.25,3.22.62,4.79,1.08,1.86.59,2.89-1.75,4.1-3.17,2.45,4.1,7.1,8,5.15,12.92-.85,2.14-2,4.11-3,6.2,1.17,1.4,2.35,2.81,3.5,4.22-3.07,1.51-5.89,3.48-8.36,5.85-2.09,1.83-2.89,3.83-4.65,5.74-1.49,1.61-4.54.62-6.41,2.36s-2.93,4.12-4.68,6c2,1.22,10.76,5.54,9.34,7.82s-2.55,5.91-5.44,6.91c-1.64.57-3.51.11-5.21.53-1.86.51-3.66,1.22-5.36,2.12-3.45,1.66-7.1,3.4-11,2.34l.54,4.53c-6.07-3.52-12.95-5.35-19-8.9,1.21,2.25,2.45,4.49,3.68,6.73-5.07-1.61-10.12.17-14.81,2.12l2.58,3.35c1.33,1.73-1.16,4-2.19,5.72,1.81.41,5.92.41,5.59,2.44-.63,3.86-.64,3.6,2.63,5.43,2,1.1,3.35,2.74,2.25,5-1.22,2.52,2.32,4.56,4.08,6.69,4.54,5.51,3.66,12.61,3.53,19.36-2.01,3.23-4.2,6.35-6.56,9.34-2.74,3.51-2.75,6.31-3.08,10.72,2.2-1,4.4-1.93,6.62-2.87-.53,3.8-.55,4.31-3.76,6.63-3.07,2.28-6,4.74-8.77,7.38-1.7,1.57-1.72,1.28-3.86,1.14-1.24-.09-2.62-.79-2.92.87-.47,2.52,2,4.61,2.07,7.08,2.91-.54,5.83-1.06,8.75-1.56-.36,1.61-.73,3.22-1.09,4.82-.41,1.82,2.67,2.18,4.23,2.8-.15,3.36.35,7.67-4.27,7.71.48,1.31,1,2.61,1.46,3.9-1.52.16-3,.28-4.56.41,1.71,1.63,3.41,3.25,5.1,4.88-4-.05-8-.34-12-.74-3.79-.58-7.66-.13-11.21,1.3-.2-4.21-1-5.87-3.36-9.44-1.59-2.46,1.11-3.41,2.94-5.24,1.7-1.7,3.32-3.48,4.84-5.34-5.19-1.84-1-5.1,1.14-7.54-2.82-1.42-1.1-2.74,0-4.82,1.56-3.24,2.9-6.58,4-10-4.65-.85-9.18-2.27-13.49-4.23-2.38-1.1-4.35-1.75-5.36-4.23-.93-2.28-1.96-4.51-3.08-6.69-2.74,1.64-5.2,3.89-8.42,4-3.41.12-6.81.33-10.22.44.24-1.54.47-3.09.7-4.63-5.33.35-9-4.3-9.73-9.19-.25-1.86,1-5.18-.23-6.64s-3.54-1.27-5-2.46c-.42,3.06.11,6.74-3.32,8-3.86,1.39-7.93-1.08-11.86-.46,0-.48-.06-1-.09-1.46,4.85,1.32,6.71-6.85,1.66-7.5-3.28-.23-5.44,2.18-7.18,4.61-.75,1-1.45,2.11-2.28,3.08-2.69-.44-5.42-.64-8.15-.61.41-2,.79-4.1,1.2-6.15-2.36.59-4.69,1.32-7,2.13s-3.78.59-3.13,3.26c.55,2.21,2.5,5.72,1,7.91-.93,1.35-2.55,1.89-3.55.59-1.5-1.95-2.57-2.36-4.92-3.2-2.2-.89-4.54-1.38-6.91-1.44-1.22.02-2.43.24-3.57.67-1.23-.79-2.39-1.69-3.46-2.68-1.39-1.35-2.98-2.49-4.71-3.36-3-1.29-3.4.09-4.79,2.62-1.64,3-1.75,3.83-5.4,3.27-2.38-.42-4.67-1.21-6.81-2.33-1.17-1.67-2.09-4.52-4.32-3.9-1.74.49-3.82,1.59-5.67.89s-3.08-3.23-4.32-4.58c-1.82-2.03-3.96-3.76-6.33-5.11,3.81-2.26,7.24-5.29,11.51-6.64,3.66,1.33,4.81,5.61,7.19,8.29,2.43-2.76,6-2.44,9.29-2.52,1.43.02,2.86-.21,4.21-.69,1.97.79,3.84,1.8,5.59,3,3.04,2.06,5.58,4.77,7.44,7.94,1.59,2.74,9.51.58,12.69.28-1.58-2.68-5.11-6.57-4-9.61.85-2.42-2.1-7.38-4.73-7.32-2.21.05-3.52-1-2.72-3.3,3.08-1.82,6.48.7,9.67.69s5.78-2.41,8-4.26c2-1.64,1.77-1.94,4.32-1.34,1.82.4,3.7.4,5.52,0,3.5-.74,7-4.08,10.36-3.48,1.79.31,3.58.63,5.38.93,3.93.66,3.65.33,5.51-3.13-1.91-.55-3.84-1.07-5.76-1.58-2.46-.64-2.73.11-4.65,1.54-1.7,1.28-2.5-1-4.44.38-1.44,1.18-2.98,2.25-4.6,3.18-3.49,1.67-8-.6-11.37-1.73-1.71-.49-3.5-.59-5.25-.3-1.77.12-2.56-2.64-3.73-4-2.59-2.7-5.7-4.85-9.14-6.32-2.79-1.31-3.34-1.74-4.2-4.84-.65-2.43-1.12-4.91-1.39-7.41-.21-1.71-1.45-3.85.93-4,2-.15,3.37,1.34,4.2,3,4.64,2.3,9.08,5,13.86,7-4.59-3.51-9.62-6.36-14.42-9.56,5.68-6.75,12.19-12.81,17.24-20.11,5.39-7.72,9.71-16.13,12.84-25,.37-1.31,1.02-2.52,1.9-3.55,1.73-2.26,2.36-1.45,5-.46,4.83,1.88,9.56,4.03,14.16,6.43,4.06,2.05,8.07,4.18,12.15,6.17,2.34,1.14,4.47,2.42,7.09,2.54,2.4.1,4.76-.38,6.5,1.36,5.18,5.17,13.57,7.64,17.31-.36,3.17-6.78,9.92-8.32,14.66-13.75,2-2.29,4.26-6.08,4-9.23-.17-1.92-3.24-9-.48-9.85,2.94-.9,12,.87,10.17-4.74-3.56,2.79-8,3.8-12.33,4.7-2.18.45-4.36.89-6.48,1.55-2.27-1.41-4.78-2.6-6.58-4.64-2.65-3-1.73-9.12-.63-12.65.66-2.09,1.63-4.06,2.89-5.85,1.38-1.95,3.32-1.62,5.56-1.92-3-1-25.2,1.36-24.36-4.3.34-2.28,4.24-3.3,3.47-6,.69-5.02-.68-10.11-3.8-14.11,3.3-.26,3.21-4.22,3.92-7.2.88-3.61,1.16-6.93,4-9.57,5.2-4.88,10.7-7.53,17-10.69,6.08-3.07,12.24-6.33,19-7.52,1.7-.3,3.42-.46,5.15-.46,2.49,0,1.78.39,1.74,2.46,0,1.27,0,2.55-.05,3.82,2.62.07,5.26.18,7.88.33-2.52-1.89-5-3.78-7.47-5.76"/>
      <path class="cls-1" d="M121.89,12.46c7.43-1.17,14.29-4.61,21.78-5.49-8.25,6.27-18.89,7.52-28.08,11.84,1.28-2.74,2.77-6.23,6.3-6.35"/>
      <path class="cls-1" d="M97.31,32.7c5-4,9.23-10.06,16.09-10.89-2.42,2.13-5.42,3.79-7.53,6.19s-5,4.76-8.56,4.68"/>
      <path class="cls-1" d="M89.18,56.47c-2.73-8.27,4.4-15.47,8.64-21.68l3.94,6.35c-.24,2.47-1.12,4.84-2.56,6.86-2.53,3.62-6.35,6.13-10,8.47"/>
      <path class="cls-1" d="M89.81,58.54c1.41-.31,2.83-.63,4.23-1-.94,3.93,3.43,10.84,7.38,7.08,1.92-1.83,6.18-6.16,8-3.19,1.87,2.83,3.52,5.81,4.93,8.9.45,5.36-2.61,11.35,5.46,10.22,3.7-.52,4.46,2,6,4.82-2.65,2.45-5.08,5.15-7.67,7.68-2.06,2-4.9-1-8-.79-4,.22-1.68,5.71-.61,8,1.82,4,2.91,5.25.77,9.2-1.47,2.71,2.59,2.89.85,6-3.65,6.42-9.71,2.37-14.54.21-3.18-1.34-6.25-2.94-9.17-4.79-2.21-1.46-4.71-1.46-7.31-1.87,2.14-8.62,2.55-17.54,4.09-26.26,1.44-8.22,4.68-15.85,5.56-24.25"/>
      <path class="cls-1" d="M136.36,100.53c2.24-1.31,4.44-2.69,6.7-4,1.12-.65,2.26-1.26,3.43-1.85,1.79.84,3.62,1.59,5.49,2.24,2.44.86,7.47,1,7.92,3.66.46,2.6.25,5.28-.6,7.78-2.1,6.07-8.23,7.41-13.21,10.61-3,1.89-4.24,2.47-4.77,5.82-.23,2.09-1.18,4.04-2.68,5.51-4.09,3.58-9-.94-12.37-3.35-1.76-1.25-4.76-4.3-6.94-3.59-2.86.94-3.16,1.58-4.8-1.09l-1.37-2.22c1.57-1.07,3.11-2.18,4.65-3.3,2.56-1.88,5.08-3.8,7.65-5.67,4.69-3.43,7.93-5.6,10.95-10.55"/>
      <path class="cls-1" d="M32.79,180.28c-1.06-2.44.75-3.87,2.78-4.82,1.22-.5,2.41-1.07,3.57-1.7,1.43-.9,4,1.58,5.36,2.47,4.07,2.59,8.16,4.92,11.86,8,3.24,2.74,7.2,4.5,11.41,5.08-1.65,1.23-3.28,2.5-4.92,3.75-2.35,1.77-3,.65-5.56-.42-3.9-1.65-7.79-3.31-11.63-5.08-2.18-1.69-2.24-4.67-3.21-7-1.56-3.74-6.56-1-9.66-.21"/>
      <path class="cls-1" d="M30.6,181.67c3,2,6.06,4.08,9.75,4.23,1.57,3.12,4.55,5,7.61,6.5-.34,6.28-7.45,5.69-11.89,4.65-1.47-.35-1.4-1.34-1.94-2.7-1-2.54-1.58-2.7-4.16-3.72-2.25-.89-9,3.74-9.43-.81-.56-5.44,7.55-6,11.17-4.94l-1.11-3.21"/>
      <path class="cls-1" d="M17.25,199.86c5.84,1.24,14.22-4.34,18.06,2.52-3.74,1.42-6.89,1.75-10.85,2.31-3.2.45-5-2.64-7.21-4.83"/>
      <path class="cls-1" d="M39.85,201.08l4.75-2.08c2.4-1.05,4.56,0,7.06.54,3.59.76,4.59,6,4.66,9.39-6.28-.65-12.62-2.51-16.47-7.85"/>
      <path class="cls-1" d="M.06,221.17c3.27-.4,6.33-1.87,9.65-1.94,3.84-.08,7.27,2.86,10.7,4.3,3.56,1.66,7.48,2.39,11.4,2.12,4.61-.53,6.34-2.19,7.92-6.24,3.55,2.4,10.11,9.48,13.7,3.32,1.23,1.09,2.48,2.15,3.71,3.23-2.74,3.12-5.69,6.04-8.84,8.74-1.49,1.34-1.81,1.25-3.7,1.49-2.34.31-2.92,1.13-4.92,2.28-3.16,1.8-6.94,1.82-10.4,1.06-2.19-.48-1.83-1.66-2.26-3.67-.4-1.81-4-2.31-5.67-3.07-1.76-.81-3.49-1.7-5.16-2.68l-4.73,1.45c-2,.61-.12,3.93-3,4.54-2,.43-4.36-.54-6.15-1.42-3.25-1.6-2.06-10.1-2.23-13.51"/>
    </g>
  </g>
</svg>