<svg xmlns="http://www.w3.org/2000/svg" viewBox="0 0 65.62 100"><defs><style>.cls-1{fill-rule:evenodd;}</style></defs><g id="Layer_2" data-name="Layer 2"><g id="Layer_1-2" data-name="Layer 1"><path class="cls-1" d="M13.92,58l.37.24.24-.12v-.36h-.61V58ZM4.48,99.52h0L5,100h.73l.48-.85-.48-.36-.36.6-.61-.12ZM0,87.17H0l1.69-1.58h.25l-.12.61-.37.48.37.61-.25.36L1,87.41l-.61.12Zm55.69-73h.36v.25h-.24Zm.85-2.78h0l-.12-.24.24-.12Zm1.09.24h0l-.37-.48.37-.85v.48l.24.37-.24.12.12.24ZM47.09,37.05h0l.73.12.12-.37h.24v.85h.37l.24.24v.49l.12.12h.48l1.22-.85,1-.85,1-1,1-1.09,1.09-1.34.61-.36.36-.12.24-.36.12-.49.24-.36.61-.24.36-1.21.73-1v-.24l.24-.37-.48-.48-.49-.12-.48.12.48-.37.37-.12L59,26.15l.6-.24,1.09.24h.61l-.12.36V27l.6-.49.37-.24-.73-.36V25.3l.48-1,.37-.48.48.12.12.24.37-.36.36-.48L64.29,22v-.84l.24-.85.48-.61.61-.24-.12-.24L64.77,19l-.24-.37.24-.12V18.4L64,18.28l-.72.36L62.11,20h-.73l-.36.24L60.41,20l-1.33-1.34h-.36l-.49-.72L58,17.55l.36-.36.12-.73-.48-1v-.61l-.24-.36.12-.61.12-.36-.36-.12v-.73l-.24-.36-.25.12-.48-.24-.12.24.36.48v.61l.12.24-.48.49v.36l.48.6v.37l-.6.12-.37-.36v-.61l-.72-.12v-.24l-.49-.25-.36.13-.12-.37.6-.36.12-.36-.48-.49L55,12l.49-.13.12-.6-.24-.49.24-.36-.24-.48V9.2l-.61-.48V8.35l.36.25.61-.13.12-.72.24-.24V6.66l-.24-.85.12-.6-.36.12-.73.36-.6-.61.36-.24-.36-.36H54L54.24,4l.48-.13-.12-.36L54,3.27l-.37-.36-.36.24-.12-.61h.24l.24-.36h-.36L53,2.42v.24l-.37.49L52.3,3l.12-.61-.24-.36-.12-.85V.48L52.3.36,51.94,0l-.37.24h-.84V.36l.48.49.61,1.69.12.61-.12,1.09-.25.24h-.24l-.12.12.36,1.45.25.12.48-.36h.61l-.37.12-.48.61.12.72.36,1,.24,1.58-.12,1,.12.73.25-.12.24-.61L53,10.41l.24-.24.24.36v.61l.36-.12v-.49H54l.12.49-.37.6-.24.49v.36h-.24L53,12.11h-.25l.13,1,.48,1.33h.48l.25.36v.36l.36.12-.73.49V16l.25.24-.25.37-.36,1.21v.48l-.12.24.36.37-.12.24H53l-.25.48-.12.37.37.36-.37.12-.36.12-.24.61-.49,2.3v.6l-.48.37h-.48L50,24.21l-.61.12-1.21.61-.48.6-.24.73.12,1,.6.48,1,.61.37.85.84.24.37.36.12,1.45.12.13-.12.12v.72l-.37.61L49.27,34.5l-1,1-1,.85-.25.36ZM45,34.5h0V34l.36-.49.48.13-.12.36-.36.24-.36.36-.12.13Zm-.25.85h0l.25-.24L45.4,35l-.24.36Zm-.48-.12h.36l.25-.12v-.24Zm-26.51,30h0l.36-.12-.12.25Zm-3.15,1.34h0l-.49.48h-.24l-.12-.24.61-.61.24-.24v-.36l.48-.12.25-.61-.13-.6.13-.49.6-.12.49.61.36.6.12.24-.12.12-.36.13-.13-.13-.24.13h.12l.37.24.24.12V66l-.12.24h-.24l-.73.24-.36.25L15,66.59l-.12-.13Zm-.49-5.45h0l-.48-.49.12-.6.36-.24-.24-.12h-.48l.85-.85.6-.12h.61l.24-.12-.24-.37L15,57.75l-.12-.36.61-1,.24-.12.24-.37.24.12.25.49.24-.24V55.08l.36-.36h.24l1-1.09.24.24.25-.24v-.85l.48-.24.36-.36.24.24.13.36.12-.72.6-.73.49-.12.72-.6.49-.49,1-1h.48l.24.24.61-.12.48-.24.36.12.49.61L25.91,49l-.12-.48v-.37L27,47.46l.6-.12,1.09-1,1.21-.61h.49l.12-.48.72-.36.73-.13,1.33-1,1.09-1.34L34.5,42l.37-.48V40.8l.48-.49.36-.24v-.6l.25-.61.48-.36h.61l.6-.12.24-.49.73-1,.24-.12.61-.72.6-1.46.12-.84.49-.49.48-.12.85-.6.61.12-.49.48v.36l.24.37.25.12.36-.24.12.24v.24l.12.12v.24l-.36.37-.24.24.24,1,.48.12.36-.61.49-.24.36.12h.24V36l.25.36.6-.48H45.4l-.12-.25.36-.72.49.12v.36h.12l-.37.73-.6.36h.48l.49-.24-.61.85H45.4l-.24.48v.61l.24.6.12.61.36.12-.6.36-1.7,1.45-.12.37-1.09,1.21v.24h-.48l-.73.6v.61l-.72,1-.25.36-.84.61-1,.24-.49.12-.24,1.09.12.73-.24.24.48.12.25.48v.85l-.37.24-.24-.12.12-.72-.24-.13-.12.25V50l-.12.36-.49-.24h-.72l.6-.24v-.24l-.48-.12-.36.24v.36l-.49.12-.24-.12-.24-.6-.49-.25.49.49v.48l-.37.49-.36.12h-.6l-.13.48h-.36L32.57,51l-.12.6-.49.25-.6.6V53l-.37.48-.6,1.09-.12.61-.37.6-1.33,1-.48.61-.24,1-.49.85-.73.85.13.12-.13.24-.36.12.61-.12.12.24-.37.25h-.84l-1,.36-.36.6-.25.73-.72.24.12-.36-.37-.36.13.48-.13.36-.6.25-.85.84-1.21.49-.73.12-.48-.24v-.25l-1,.37-.24-.12.61-.37-.49-.24-.6-.6v-.61l-.25-.24h-.6l-.24-.24.12-.25-.24-.48L16,61.14h-.24l-.12.36h-.24l-.13-.24h-.84Z"/></g></g></svg>