<svg xmlns="http://www.w3.org/2000/svg" viewBox="0 0 65.62 64.41"><defs><style>.cls-1{fill-rule:evenodd;}</style></defs><g id="Layer_2" data-name="Layer 2"><g id="Layer_1-2" data-name="Layer 1"><path class="cls-1" d="M24.58,58.11l1.09-.36V56.9l4.72-.73,7.75,2.3L40.68,58l3.87-.12,1.58,2.18,1.81.6v1.09l3,2.67,1.45-.85h1.45l.25-.24,1.33-.85L55,60.29l-1.45-1.82-.73-3,1.7-3.27,1-2.3v-3l-.73,1.7-.48,1.33-1.46.85V48.67l.73-2.3,1.33-3-.36-1.94.12-1.93,1.57-4.12,1.34.24-.61,1.09V42h.73l1.09-1.82.72-5.57-.12-6.53.61-1.46-1.09-1.57-1-.48V23.12l1.09-1,.85.13.48.84.85-3.51,2.3-2.9,1.09-1.94.24-1.45-1.33-1-.12-1.21.84-1.94-.48-2.3.24-3.75.85-1.58.85-1L63.92,1,62,1.21,61.38,0H59.81L58.6.73,58,2.54l-1.94,1-2.42,1.7-2.42.24-.6,1.69-1.82-.48-2.54.48-.49-1.33L43.7,4.36H42.62L42,7l-2.66.12-2.3,3.39-.12,1.58-1.34.72-2.9,2.79-3,1.09-.73,1.57L27,17.55l-1.46.37-1.69-1.46-3.39-.6L15.74,18.4l-4.36.49.24,2.66v2.06l-.36,3.63-1,2.06-3.51.36L4.36,30,4.24,31.6l-1.09.24-2.54-1-.61,1L5.21,38l2.42,1.7V41.4l4.11,3.76,3.64,5,6.53,7.14,1.7.25Z"/></g></g></svg>