<svg xmlns="http://www.w3.org/2000/svg" viewBox="0 0 60.77 52.18"><defs><style>.cls-1{fill-rule:evenodd;}</style></defs><g id="Layer_2" data-name="Layer 2"><g id="Layer_1-2" data-name="Layer 1"><polygon class="cls-1" points="58.11 4.6 57.99 4.6 57.26 3.27 55.81 1.45 54.24 0.85 53.51 1.82 53.39 2.42 52.91 2.66 52.06 2.42 51.45 2.54 51.09 3.15 50 3.63 49.52 4.6 48.67 4.84 47.58 4 46.13 4 44.43 3.15 42.01 2.91 40.92 3.39 38.14 3.27 36.92 3.51 35.59 5.45 34.26 6.29 33.29 6.05 31.23 5.33 30.14 5.08 28.45 4.24 27.36 3.75 27.36 3.39 26.39 2.66 25.55 2.66 25.3 2.79 23.85 3.15 23 3.51 22.28 3.63 21.67 4.24 21.19 4.48 20.1 3.87 18.89 2.18 18.4 1.57 16.83 0.97 15.98 0.85 15.38 0.48 13.92 0.24 13.32 0 12.47 0.12 11.98 0.48 10.41 0.48 9.93 0.48 9.08 0.48 7.99 0.6 7.63 0.97 7.02 1.09 5.81 2.06 5.69 2.66 5.93 3.15 5.81 3.39 5.57 3.87 5.81 4.84 6.17 5.21 6.29 5.93 5.33 5.93 4.24 7.14 4.36 7.63 4 8.23 4.72 9.69 5.33 9.81 5.33 10.29 4.36 11.14 4.12 12.23 4.36 13.07 5.81 14.16 5.81 15.5 6.42 17.43 6.17 18.04 5.08 18.04 4.6 18.77 4.6 19.25 5.69 20.46 5.45 20.94 4.72 20.94 4 21.55 3.63 22.28 2.9 23.61 2.42 24.58 1.94 25.06 1.33 25.06 0.48 25.42 0.12 26.03 0.12 27 0 27.84 0 28.93 0 29.3 0.12 30.27 0 30.63 0.24 30.99 0.24 31.6 0.12 32.45 0.36 34.63 0.24 35.47 0.48 36.32 0.24 38.98 0.36 40.07 2.54 40.44 4.24 39.83 8.11 41.77 10.29 43.95 11.5 46.49 11.5 48.18 12.23 48.55 12.83 50.36 14.16 51.7 16.1 52.18 21.31 51.94 22.28 51.21 23.12 51.57 25.55 50.73 26.27 51.09 27.72 50.73 28.21 49.27 29.18 50.24 29.54 50 29.66 50.12 29.66 49.4 30.99 47.82 31.6 46.49 31.36 45.16 31.36 44.07 31.96 43.7 31.96 42.86 32.81 42.13 33.78 41.52 34.14 40.92 35.71 39.71 35.71 38.74 35.96 38.14 37.05 38.02 37.65 37.41 37.89 37.65 39.23 38.14 39.83 38.02 40.8 38.62 41.4 39.71 42.37 40.31 42.98 40.56 44.07 39.95 44.79 38.74 44.79 38.26 45.16 37.65 46.01 37.41 46.61 36.44 46.61 35.71 46.97 34.38 48.55 32.81 48.79 31.96 48.55 31.11 49.03 30.39 50.48 28.81 51.45 28.09 51.57 27 52.06 26.27 51.82 24.58 52.54 23.85 53.99 23.49 54.96 22.28 55.09 21.07 55.09 19.73 54.96 18.89 55.57 17.92 56.42 16.1 57.02 15.62 57.14 15.13 58.23 14.41 58.84 14.41 59.56 13.56 60.77 13.07 60.77 12.35 60.41 11.02 60.41 10.41 60.05 9.56 59.08 9.32 58.6 8.35 58.72 6.78 58.6 5.93 58.11 4.6 58.11 4.6"/></g></g></svg>