<svg xmlns="http://www.w3.org/2000/svg" viewBox="0 0 65.62 50.97"><defs><style>.cls-1{fill-rule:evenodd;}</style></defs><g id="Layer_2" data-name="Layer 2"><g id="Layer_1-2" data-name="Layer 1"><polygon class="cls-1" points="14.77 50.97 13.92 49.64 12.95 49.52 12.11 48.43 10.78 47.22 10.41 48.06 10.53 48.55 9.69 48.79 8.96 48.91 7.99 47.58 8.47 46.97 8.47 46.13 8.11 45.76 7.99 45.28 7.51 45.04 5.69 46.01 4.24 44.91 4.12 43.1 0 40.44 0 39.23 0.6 38.38 0.73 37.17 0.97 36.56 1.94 36.8 4.96 36.56 5.93 36.56 7.02 36.08 8.96 36.08 9.81 36.08 11.02 35.23 12.35 35.11 13.56 34.5 15.74 33.29 15.98 32.32 16.1 30.87 16.83 30.51 17.07 26.63 17.31 18.28 23.85 16.71 29.18 11.86 48.43 0 55.93 1.82 56.66 2.54 60.53 0.97 61.02 1.57 63.08 7.51 62.95 8.6 62.71 9.08 65.62 12.59 65.5 14.16 64.89 14.77 63.68 22.88 63.8 29.18 56.66 36.44 56.54 36.92 56.05 37.05 55.57 37.05 55.45 37.65 55.81 42.98 54.96 42.74 54.48 43.46 54.36 44.07 53.87 44.19 53.27 43.95 52.78 44.07 52.54 44.55 51.57 44.91 51.45 45.16 50.12 45.64 49.64 45.28 48.43 45.28 47.09 44.55 45.16 44.31 44.19 44.79 42.01 44.67 41.04 44.91 39.95 46.37 38.98 47.09 38.14 46.97 36.44 46.25 35.47 46.13 34.14 45.4 33.29 45.04 33.29 44.79 32.57 44.19 31.84 44.19 31.6 44.31 30.39 44.55 29.78 44.91 29.18 44.91 28.69 45.52 28.33 45.64 27.48 45.16 26.51 43.7 26.15 43.34 24.82 42.86 24.09 42.74 23.61 42.37 22.4 42.25 21.91 42.01 21.19 42.13 20.82 42.37 19.61 42.37 19.25 42.37 18.52 42.37 17.68 42.62 17.31 42.74 16.83 42.98 15.86 43.7 15.74 44.19 15.98 44.55 15.86 44.79 15.74 45.16 15.86 45.88 16.22 46.25 16.22 46.85 15.5 46.85 14.53 47.82 14.77 48.18 14.41 48.67 15.01 49.88 15.5 49.88 15.5 50.36 14.77 50.97"/></g></g></svg>