<svg xmlns="http://www.w3.org/2000/svg" viewBox="0 0 45.52 78.45"><defs><style>.cls-1{fill-rule:evenodd;}</style></defs><g id="Layer_2" data-name="Layer 2"><g id="Layer_1-2" data-name="Layer 1"><polygon class="cls-1" points="0 49.27 0 43.7 2.42 41.65 3.63 39.23 3.63 37.53 6.05 35.84 7.75 32.69 9.56 31.84 11.02 27.12 11.86 25.55 11.74 24.58 11.86 21.31 13.68 19.13 15.5 21.91 16.95 22.76 18.4 23.97 20.1 23.25 22.16 24.09 26.03 23.73 28.45 24.09 29.78 21.43 29.54 20.1 27.48 18.04 25.42 16.46 27.12 15.5 29.3 15.25 33.05 12.23 33.05 10.17 34.63 8.11 36.56 7.75 37.17 6.05 36.56 4.6 36.68 2.66 36.68 0.6 37.89 0 39.59 1.45 39.59 3.39 40.44 4.36 43.46 5.08 45.52 8.11 45.16 7.99 42.13 11.5 40.92 11.26 40.8 13.56 39.59 18.4 39.71 21.19 41.65 22.64 41.65 27.72 43.22 28.81 42.49 31.11 39.95 33.17 40.44 33.9 35.71 38.86 36.32 40.31 34.87 41.65 34.5 42.62 32.45 42.49 30.63 43.83 29.78 45.88 27.24 47.46 27.24 49.88 27.97 52.06 27.12 53.03 27.6 55.57 31.11 56.3 32.2 57.87 39.23 61.86 40.31 63.92 36.56 66.47 29.9 66.95 26.39 70.1 23.12 70.82 20.22 73.73 19.49 75.91 17.31 73.61 16.22 74.33 16.83 75.42 15.01 77.6 13.92 76.88 11.86 78.45 11.14 77.12 12.83 74.33 10.78 73.61 9.2 74.58 8.23 74.33 8.84 72.64 8.96 68.64 10.29 65.98 12.71 65.74 14.77 63.8 12.83 64.77 9.32 64.77 8.6 63.92 8.47 59.32 10.78 55.57 9.56 53.75 10.9 52.91 11.38 51.21 10.17 51.33 9.2 52.66 6.05 53.15 5.21 51.94 3.03 50.73 2.91 52.18 1.57 53.15 0.73 49.76 0.24 49.88 0 49.27"/></g></g></svg>