<svg xmlns="http://www.w3.org/2000/svg" viewBox="0 0 65.5 75.42"><defs><style>.cls-1{fill-rule:evenodd;}</style></defs><g id="Layer_2" data-name="Layer 2"><g id="Layer_1-2" data-name="Layer 1"><path class="cls-1" d="M60.77,13.44h.37l.12-1.09.85-.85.72-.12.49-.73V9.81l.48-.12.61.36.48-.61v-.6h-.24l-.49-.37h-.24l-.24.13V9l-.24-.24-.12-.37H63v1l-.24-.12-.36-.48L62,9.08l-.25.36L61.62,9l-.12-.73h-.24l-.36-.72-.25-.25-.48.13-.48-.25H59l-.36-.48.12-.12,1,.24.72-.12.73.12,1.21.12.85-.24.6-1.21L65,5.21l.49-.49V4.6l-.37-.12L65,4.24,64.53,4,64,4.12l-.84-.61h-.37L62.35,4H62l-.13-.13.49-.36L62.47,3l-.61-.25-.12-.12h-.48l-.36.73h-.25V2.91h-.24l-.24.36h-.24l-.12-.36.36-.25V2.3l-.61-.36H59l-.36.24L58.47,3l-.36.12L58,3.51l.36.85v.48L58,5.08l-.24-.48-.36-.12-.13.24-.48-.12L55.93,5l.61-.84L57,4l.37-.61-.13-.24H57l-.6.48-.37-.12V3.27l.49-.36V2.66l-.49-.24-.12-.24.37-.12.24.24h.72l.37-1L57.51.85,56.9,1,56.54.85l.12-.49L56.54,0l-.37.36L55.81.24,55.45,0,55,.36V.73l.37.48-.25.36h-.24L54.36.85,54,1.21l-.13.48.13.25h.48l.24.24v.24l-.36.24V3l-.49.24v.48l.13.12-.37.25.24.6L53.75,5l-.48-.24L52.91,5l-.13.25-.36.24V4.84l.49-1.09-.49-.24V3.27l.36-.36v-1l-.12-.37-.36.12-.73,1.22-.12.84-.72,1.09-.25.73.13.36v.61l-.85,1-.49.24V7.14l-.12-.36.49-.85-.12-.6L49.76,5l-.24-.6,1-1.09.13-.61.12-.12V2.18h-.49l-.6-.49h-.25l.13.61-.37.48v-.6l-.48-.36-.49-.13-.36.13v.84L47.7,3l-.24-.37-.37-.24-.24.36V3l.73.48.24.49-.24.24-.24-.37-.49.37V4.6l.24.24-.24.24-.6-.48L46,4.72l-.36.61-.36.24v.24l.24.12-.6.37-.13.48.49.48-.36.37.48.24.24.24-.36.36-.73-.12-.24-.84L44,7.39,44.31,7l-.48-.24H42.49l-1-.85h-.25l-.36.49-.24-.49-.49.49-.6.12v.24l.72.85h.49L41,8h.73l-.24.61v.6l.48.61v.48l-.48-.36L41,9.2,40.56,9l-.37-.36-.12.48-.48.48-.12-.84L39,9.2v.24l-.6.49.12.6.6.24.25.61-.49-.12L38.62,11l-.48.6-.13.61-.72.48v-.36l.48-.24-.12-.49.49-1-.37-1.81-.48.36-.73,1.09v.85l.12.24-.6.73V11.5l.24-.73-.12-.84-.36-.12-.61.48-.48.73.36.6-.12.61.85.6.24.49-.24.6-.37-.85-.6-.24-.49-1.09-.12-.12-.85.24-.12.37.85.72h.36l.25.25-.61-.13-.48.25.36.6-.61-.48-.12-.73-.24-.12-.12-.48-.36.24-.12.85.24.36-.12.73-.49-.37-.48.24-.61.73h.61l.36.49h-.48l-.37.24.37.24-.25.36h-.48v.37l.12.12h-.36l-.24-.25-.49.13-.36.48.12.36-.24.12-.61.13-.24.6.48.12L30.39,18l.24.12.6-.24h.37v.36l-.37.49-.12.84-.12.24-.36-.36v-.36l-.48.12-.25-.36h-.72l.24.24-.24.36-.49-.24h-.24l.36.36.25.49h-.25l-.24.36.12.48-.12.37-.24-.49v-.48l-.48-.61-.37.49-.48.12L26.76,20l.12-.37h-.37l-.48.61.48.36h.61l.6.36-.36.49-1.09.24L26,21.43h-.49l-.24.6.37.37-.37.48.49-.12.6-.61h.49l.24.37-.85.12-.12.6.36.49.61.48v.49l-.49-.37h-.36l-.48-.6h-.25l-.36.48.36.25-.6.12-.48.36v.48l.6.25.48-.37.37.37.48-.25.24.61.37.12v.36L26.15,26h-.61l-.36.24-1,.12v.49l-.48.24-.24-.24-.73.48h-.48v.36l.48.13.36.48-.48.12-.24-.12-.12.12.36.36-.12.25h-.61l-.12-.25-.12.25.36.36-.24.24.12.36h.24l-.24.13-.48.12L21.31,30v.37l-.24.36.36.12.85.36.12.37.36.12.48-.24-.48.36v.24h-.48L22,31.84h-.84l-.61.61.12.24h.73v.36l.36.36-.12.49-.36-.49h-.24l-.37.49.12.36-.24.12.36.37v.36H20.7l-.36-.36L20.1,35l.12.48.48.12.12.25-.12.36-.6-.49-.37.25v.48H20l-.13.61.25.48h.36l.36-.48h.25l-.25.72-.36.12-.61.61h-.48l-.36.12V39l-.49.12-.48.37.48.24L18.4,40l-.85.12-.36.49.12.24.61.24-.49.24-.24.49h-.48l-.12-.49-.37-.12-.12.24h-.48l.12.37-.24.36-.12.36.24.25h-.73l-.36.24.12.6L14,44l.12.24-.12.6-.48.37-.48.48.12.24.6-.36h.36v.36l-.48.25v.6l.36.49.73-.37.73-.12,1-1v-.48l-.6.24.48-.6.12-.73h.25L17,44h1l-1,.6v.37l.85.36-.25.36h-.48l-.85,1,.49.36-.25.37v.6l-.6-.12-.48-.36h-.61l-.36.24v.61l-.61.24-.48.24.36-.36.36-.25-.48-.48v-.61l-.36-.6h-.49l-.24.48h-.61v.37h.73l-.73.72-.6-.24H10.9l-.61.61.24.12.37-.24.12.24-.61.36-.24.36L9.81,49H9.44l-.12.24.73.49h.85l-.25.36.37.24v.37l-.73-.25L10.17,50H9.56l-.48-.48L9,49.15H8.72l-.12.49.6.84.61.37.48.12.24.24h-.48l-1-.24-.85-1-.36.24-.49-.36h-.6l-.36-.36-.25.36.13.48-.37.37.49.48,1.09-.36.12.24-.49.36.24.12.85-.36H8.6l-.25.24-.84.49-.37.48-.6-.12-.61-.73H5.69l-.36.25L5,51.45l-.48.24-.24-.24-.49.37.12.24L5,52.18l.61.36L6.3,53l-.25.48.37.36-.49.25-.24-.25V53l-.48-.12L4.6,53l.24.36-.12.36L4,53.27l-.61.6.61.49H3.51l-.36.12L3,53.87h-1l.24.61-.36.24-.12-.6-.61-.49L1,53.75l.12.37.6.6-.36.36.36.25.61-.25,1,.25.6.36h1l.24-.24h.49l-.61.6-.84-.12-.25.24-1.09-.6-.6.24-.24-.12-.49.36-.72.12v.25l1,.48-.36.49h.49l.36-.13H3l-.61.37H1.57l-.24.12H1v.12l.48.24h.37l-.61.24L1,58.47l.12.37.24.12.24.36H2.3l.36-.24,1-.12.73.12.24.12L5,59v-.49l.49-.12.12.37h.48l.73-.49.36.12-.24.25-.24.24.6.24.25-.36-.13-.37.49-.6-.12.48.48.61-.36.48L7,59.44l-.36.37.12.24-.24.48H5.81v-.36l.36-.24-.12-.61h-.6l-.61.61-.12.36-.48-.6-.49-.13L3,59.69l-.37-.13-.84.37H1.45L1,59.69H.85l.24.6L1,60.65l.24.25.48-.13.25-.36H2.3l-.48.49.12.48-.25.24-.48-.24.24.73.37.24.84-1,.61.24L3,62l.12.48-.73.36.12.24.37.13-.25.36L3,64l-.25.61H3l.48-.73L4,63.68v-.61l1.21-.48h.6l.49-.12-.37.24-.6.49v.72l.24.49L5.08,64,5,63.32H4.6L4.24,64l-.37.12.61.25L4,65H3.51l-.12.49.24.12h1l.12.36-.6.12-.25.36v.37l-.72-.49-.24.25-.13.48-.24-.61-.36.25-.61.72.25.61.84,1,.25-.61.12.24.48-.24-.12-.24.24-.61.73.49L4,68.28l.48.36-.24.61-.37.24.37.85.36-.24.73-.25.36.37L5,70.34l-.24.24.24.49v.24l-1.21-.85-.36.12L3,70.34H2.54v.48l-.36.37L3,72.64l.6.12,1,.73L5.81,74l.12.36-.36.13.48.48.49-.24-.24-.61h.36l.48.37L7,74.58l.61.84L8,75.06l.24.12.49-.24.72-.73h.25l.24-.36.24.12.12.36.36.13,1.09-1.22v-.36l-.48-.6.85.6.72-.73-.24-.24.36-.24v-.48l.49-.25.48-.12.12-.48-.48-.61.24-.36-.48-.6-.61-.49.12-.48.25.24.6.6.24.85.24.24.37.12v.37l.24.36.61-.24L15.25,70,15,69.73l.12-.36.61.48V70l.72-.73.25-.61-.12-.72-.49-.12-.24-.37.36-.24V67h.37l.24-.36-.37-.37v-.6l.49-.37.48.49-.36.6.12.73-.12.61.36.48.12.48.61.73.73-.12.36.24-.24.24.48.25.36.72.37-.72L20.1,68l-.61-.85.36-.6.37-.25-.24-.6.12-.36,1.09-.13.24-.48-.12-.61.48-1.09-.48-.6L21.19,61l-.61-1.21v-.49L22,58.84V57.75L22.4,57l-1.21-1.21-.85-.48-.12-1.21.24-1.21-.12-1.22-.36-1,.24-1-.12-1.7-.37-1.57L20,45l.72-1.34.73-.36.85.12,1.09.12.6-.84-.12-1.21L23.49,41l.12-.73,1.09-2.66V36.08l.36-1.46.24-.84v-.85l-.48-.48.12-.61,1-.61L27,31l.48-.48.12-.61.85-1.57L29.3,27l.36-.73-.36-.85-.37-.48V23.49l.37-.25.36-.48.24-.85.49-.24.48-1.09.61-.48.72.36.37.36.36-.12.48-.36-.36-.73.36-.36v-.36l.13-.37-.49-.72.36-.25h.85l.73-.36,1.09.24.6.49.73.12.48.24.37-.12.24.24v-.72l-.36-.61.12-1,.48-.24-.12-.73-.48-.24-.13-.6.73.12.73-.12.24-.13h0l.12-.12.36.12.12-.12-.12-.48.12-.61.37-.36.6.12.49.73,1.45,1.09.24.6.49.73,1,.36,1.45.12.85-.84.36-.49.73.12,1.08.73.73.12.36-.73.37-.24.48-.48h.61l.48-.37.24-.36-.24-.6-.24-1,.12-1.58.24-.6-.24-.49.36-.24.49-.6L53,8.35,53.75,8l.85.12h.48V7.75l.49-.61H56.9l.61.49.84,1,.37.48.72.24,1.09.12.24.49.61.72-.12.61-.61,1ZM2.91,69.37h0l.36.36L2.78,70ZM1.45,65.74h0l.37-.12.36.36-.24.48Zm1.09-1.21h0V65l-.24.12Zm-.6-.37h0v.61l-.49-.12ZM.85,61.74h0l-.49-.36L.85,61v.72Zm-.24.49h.48l-.24.36Zm1.21.6h0l.48.61-.24.6ZM1,63.68H1L.48,63.2,1.09,63ZM.48,59.93h0L0,60.29l.36.24.25-.24ZM.24,55.45h0l.73.36-.49.12Zm.24-1.09h0l.61.36-.24.36ZM2.3,53h0l.24.48h-.6Zm.61-.37h0l.48.12.12.37-.6.36Zm5.69-4h0l.6-.73.12.73L9,49Zm.24-1.09h0l-.24.24L8,47.09H8.6Zm.6-1.33h0l1-.85.49.36-.73.37Zm.12,1.21h0l.37-.73h.72l.12-.36h.49l.36.36-.48.49h-.73l-.36.24Zm8.36-9.2h0l.24-.49.85-.12-.73.85Zm-.73,1.57h0l-.12-.36h-.61L17,39l.85-.12.48-.24-.73,1Zm1.7-5.45h0l.24.24V35l-.36.24-.25-.36ZM20,33.17h0l.36-.24h.6l-.84.61Zm-.37-1.09h0l.61-.6.12.6-.49.73Zm4-5.81h0l.24-.36.36.12-.36.48ZM19.73,23h0l.25.24-.13.37-.36-.24Zm1.09-1.69h0L20.1,22v-.6l.6-1Zm.49-.49h0l-.24-.36.24-.36.24.24Zm1.81-1.45h0V20l-1.21.84.24-1.09ZM24.21,18h0l.37-.61.48.49Zm.85.24h0l-.12,1.21-.61-.36-.84.6.12-.6Zm.36-3.15h0l.25.85v1.09l-.85.24L24.46,17l.84-.49-.48-.12-.85.73-.24-.48L24,16l.61.12.6-.6-.12-.37Zm.73.37h0l-.36-.25.12-1,.85-.73v-.49l.84-.36.12.61-.6.48-.12.61Zm2.06.36h0l.85.73L28,17.8l-.73.48-.24.49-.49-.13V18l-.72,1h-.37l.12-.85.37-.12-.12-.61.48-.48v-.61L27,15.13l-.37,1.7.13.6.48-.84h1L27.85,16V15.5Zm0-.73h0L28,14.89l.48-.12.61.36v.37Zm1.69,1h0l.25-.85.36.61Zm2.18-3.51h0L32,13l.12.61-.6.12-.25.36-.72-.12-.24.85H30v-.61l-.6-.12.6-.6-.72-.12.36-.73h.73l-.73-.48L30,11.5l.49.36-.12-.72,1,.12.12.48.48.12Zm0-1.82h0l.85-.12.12-.48h.73l.36-.48.36.6-.36.61v.48h-.73l-.6.24Zm2.67-3.63h0l-.25-.36.61-.24ZM33.54,8.47h0l.12-.84.72-.12v.36a5.08,5.08,0,0,1-.84.6Zm2.17,1.09h0l.13-.84.36.6Zm-.36-.12h0l-.12.25h-.48l-.85-.85,1-.85.24.36.6-.12.13.24-.49.37Zm1.7-1.57h0l-.25.24-.72-.36V7.26l-.24-.84.36-.25.12.85.6.49Zm1.81,1h0l-.36-.49L38,8.11,37.89,7l.49-.36.6.48-.24.61.36.48ZM43.7,6.42h0l-.6-.25-.73-.36.49-.36h.6l.37.36Zm.85-.49h0l-.72-1,1.09-1,.24.72-.61.61ZM43.1,4.72h-.36l-1.09-.24-.25-.73.61.12.48-.36.37.36.36-.6.48.24,1-1,.12.49Zm2.06-1.33h0L46,3l.73.48-.24.61-.85.36V3.87Zm1.69-1.57h0l-.12.24-.36.12L46,1.57l.61-.12Zm1.46-1h0L47.82.73l.24-.37h.37Zm.84.24h0V.85l.37-.24.36.12.24-.25L50.24,0l.37.24.48.12-.36.49.72.12-.24.72-.73.13-.6-.61Z"/></g></g></svg>