<svg xmlns="http://www.w3.org/2000/svg" viewBox="0 0 57.14 80.87"><defs><style>.cls-1{fill-rule:evenodd;}</style></defs><g id="Layer_2" data-name="Layer 2"><g id="Layer_1-2" data-name="Layer 1"><path class="cls-1" d="M.48,59.69l21.68-6.54,1.08-16.59-1.69-6.17,6.54-20.22,1.45-.24.36,4.6,2.67,3,.12,1.09,4.36,3.64,1.93.48,1-.48H41.4l3.39.6,1.94-.36h1l2.18,2.78.6,2.06,1.34,1.21.72,1.33,2.79,2.3,1.33.37.48.48V34.5l-1,1.7.13,1-.25,1.21-2.78,4.48-1.94,1.69-.85,1.7-.84.84L48.79,50l-1-.12-.73-.36.13-.85.36-.73-.73-.36-.72.6-.85,1.7-.36.12.48,1-.85.24-1.33,2.42V55l-.48,1.21.36.13.73,1.45h-.49l1,2.78.61.61-.25.72-3.87.37-.73.48L39,62.23l-1.69.48L34.5,66.1v2.3l-.72.73-1.46,1.45-1-.36-1.82.24H26.88l-.73.73-1.09,1.09.24.72-.12,1,.73.36-.12.85-.37.12v.37l-1.81,2.66-.85.12-1.21-.73L20.22,78l-1.58-.12L16,79.3H14.29l-1,1.57H11.74l-.36-.24-1,.24-4.48-5.2,1-3.39L0,63.44Zm27.61-53h0v-1l.6-1.21.24-2.18-.36-.24.36-.85L28.57.73l.24-.25.37.13L28.81,0l-.6.12H27.6l-.36,2.06-.36.48-.37-.48-.36.73v.6l1,.36.24,2.67Z"/></g></g></svg>