<svg xmlns="http://www.w3.org/2000/svg" viewBox="0 0 65.5 71.91"><defs><style>.cls-1{fill-rule:evenodd;}</style></defs><g id="Layer_2" data-name="Layer 2"><g id="Layer_1-2" data-name="Layer 1"><polygon class="cls-1" points="37.77 71.43 37.77 70.22 38.86 69.61 39.47 69.37 39.83 68.16 40.56 68.4 41.4 67.92 44.55 68.16 46.37 67.43 46.85 67.07 47.82 66.71 47.46 67.43 47.94 67.92 49.03 67.31 49.88 66.95 49.52 66.59 49.64 65.86 48.55 62.95 47.7 61.62 47.94 61.02 47.22 60.53 46.37 60.53 44.79 59.56 44.67 57.87 44.67 56.66 44.07 55.21 43.1 55.21 42.62 55.45 41.52 55.09 40.68 55.21 40.68 53.99 41.52 52.06 42.25 51.82 43.46 50 43.7 49.27 44.55 48.79 45.16 48.3 46.13 48.79 46.37 49.64 47.09 49.88 48.79 48.91 51.21 48.79 52.78 47.09 53.63 44.31 55.81 42.86 56.42 41.77 56.54 40.31 57.63 38.74 59.2 38.01 59.69 36.92 59.69 36.08 58.96 35.59 60.41 34.02 61.14 33.53 61.26 32.32 61.5 30.02 61.02 28.33 60.77 27.84 62.23 26.51 63.08 26.15 64.04 25.55 64.53 25.67 65.5 24.7 65.38 23.61 64.17 23.37 63.08 23.73 61.62 23.49 61.02 22.28 59.44 21.55 57.63 21.19 55.93 19.61 55.69 18.28 54.96 15.01 54.12 13.68 54.12 12.23 54.84 11.86 54.96 10.9 56.3 10.05 56.3 8.96 54.96 8.6 54.72 7.63 53.39 6.9 52.18 5.81 51.21 4.6 50.24 4.96 49.52 5.21 48.91 4.6 48.67 2.66 50.97 1.21 50.6 0.36 49.27 0.6 48.18 0 46.61 0.85 45.52 1.82 44.19 1.82 43.46 3.03 42.62 3.87 44.67 6.9 44.79 8.96 42.49 11.86 43.7 12.95 43.7 14.16 42.49 15.98 40.68 15.98 38.98 15.38 37.89 16.1 38.38 17.31 39.35 17.8 39.95 19.13 39.71 19.98 38.62 20.58 37.53 20.7 37.17 21.31 37.05 23 36.68 24.09 36.68 24.7 36.32 25.18 36.68 27.24 35.71 28.69 34.75 27.6 34.26 27.6 34.14 28.21 33.05 28.09 32.45 27.72 31.36 27.84 31.11 28.45 29.3 29.78 30.02 30.02 29.54 30.75 27.84 31.48 27.24 31.11 26.15 31.36 25.79 32.08 25.55 32.81 24.7 33.17 24.09 33.9 24.21 35.23 24.45 36.68 24.45 37.77 24.82 38.62 24.58 39.47 22.76 40.31 21.07 40.19 19.61 40.44 17.07 40.56 15.5 41.04 14.89 41.52 13.44 41.4 11.86 41.89 6.42 42.01 0 40.19 0 40.19 2.42 43.46 2.91 44.55 4.12 45.76 5.33 46.49 5.69 46.97 7.26 47.09 8.23 47.34 8.35 47.94 9.56 48.06 9.69 49.64 9.93 50.73 10.05 52.06 10.29 52.78 11.38 52.78 12.59 53.63 12.83 55.45 12.11 56.05 10.9 55.57 8.6 56.3 8.11 56.78 6.78 57.38 6.29 58.23 6.54 59.08 5.81 60.05 6.17 61.26 6.05 62.83 6.05 63.68 6.54 63.68 6.54 64.29 7.02 64.53 8.35 63.68 9.44 63.56 9.44 64.04 9.81 63.92 10.53 63.32 11.5 63.32 11.99 63.56 12.83 63.32 13.32 63.32 13.92 63.32 14.04 62.83 14.41 62.35 15.38 62.95 15.98 62.95 16.1 62.59 16.59 62.71 16.83 63.2 17.55 63.2 18.28 63.68 19.01 63.68 20.1 62.71 21.31 62.71 22.03 62.83 22.76 62.47 23.49 62.47 23.61 62.11 23.97 62.35 25.3 62.47 26.51 62.11 27.84 62.11 28.81 62.83 29.3 63.92 29.06 64.65 29.3 64.77 29.06 64.89 29.06 65.25 29.78 65.25 31.23 64.65 31.23 65.62 32.2 66.83 32.45 68.4 32.69 68.64 32.57 69.25 32.33 69.49 32.57 69.61 32.93 69.61 33.29 70.58 34.14 70.58 35.47 70.46 37.17 71.31 37.05 71.91 37.77 71.43"/></g></g></svg>