<svg xmlns="http://www.w3.org/2000/svg" viewBox="0 0 26.39 68.52"><defs><style>.cls-1{fill-rule:evenodd;}</style></defs><g id="Layer_2" data-name="Layer 2"><g id="Layer_1-2" data-name="Layer 1"><polygon class="cls-1" points="17.07 28.69 15.62 25.91 14.41 20.58 16.22 11.5 17.68 3.75 19.37 0.12 19.61 0 21.19 2.3 25.67 6.54 26.39 17.43 24.82 22.4 24.45 22.4 20.7 25.79 18.64 28.81 17.07 28.69"/><polygon class="cls-1" points="12.23 65.86 8.47 65.86 3.39 68.52 0.48 65.62 1.82 56.05 1.82 41.65 0 38.5 1.57 30.14 8.96 30.14 9.56 34.99 12.71 35.47 16.34 32.2 16.46 34.14 17.19 37.89 15.98 40.8 15.38 49.03 15.62 53.63 14.53 65.13 12.23 65.86"/></g></g></svg>