<svg xmlns="http://www.w3.org/2000/svg" viewBox="0 0 65.62 29.9"><defs><style>.cls-1{fill-rule:evenodd;}</style></defs><g id="Layer_2" data-name="Layer 2"><g id="Layer_1-2" data-name="Layer 1"><polygon class="cls-1" points="58.96 28.69 56.42 26.51 53.75 22.76 52.78 19.73 53.75 18.77 55.69 15.86 56.9 15.74 57.87 14.65 57.38 13.07 56.05 13.07 54.48 14.89 53.75 15.5 52.54 14.53 51.82 12.35 49.76 9.56 48.18 9.32 46.01 7.14 44.55 6.42 41.65 6.66 38.14 8.47 37.89 10.78 38.5 11.38 38.62 12.47 35.35 15.5 31.6 16.34 29.66 17.31 29.3 18.64 30.14 20.58 32.2 21.91 34.02 23.61 33.78 26.03 32.57 26.39 30.51 26.03 28.81 27.72 27.48 29.9 24.09 29.42 23.37 28.09 23.73 26.39 23.12 23.97 23.61 22.76 22.88 21.67 21.31 21.43 20.58 22.76 21.31 23.61 20.58 25.06 18.64 25.06 16.83 23.97 15.25 20.94 14.77 17.92 10.41 17.31 9.08 16.95 9.2 16.1 8.23 15.01 7.14 15.74 4.96 16.1 2.91 15.86 1.21 15.98 0.48 14.89 0.48 13.56 0.97 11.74 2.78 10.29 1.33 8.23 0 7.87 0.36 5.93 1.82 4.36 1.7 2.3 2.78 1.57 4.84 1.57 5.33 2.9 6.66 4.24 8.11 4.72 9.08 4.72 9.69 5.45 8.84 5.69 8.35 6.17 8.96 7.02 10.9 8.11 12.83 7.75 12.83 6.54 11.5 5.69 12.11 5.08 14.89 6.42 18.89 9.2 22.76 9.32 24.82 9.08 27 7.02 34.14 3.39 37.77 2.54 41.04 0.12 42.25 0 44.07 0.73 44.79 1.82 46.49 2.3 51.7 2.3 54.48 3.03 59.44 5.93 61.62 8.35 61.98 9.56 63.68 10.53 64.65 11.38 64.17 13.44 64.53 15.01 65.62 17.92 63.8 20.94 63.08 23.85 61.62 25.06 60.41 25.06 58.96 28.69"/></g></g></svg>