<svg xmlns="http://www.w3.org/2000/svg" viewBox="0 0 65.62 47.82"><defs><style>.cls-1{fill-rule:evenodd;}</style></defs><g id="Layer_2" data-name="Layer 2"><g id="Layer_1-2" data-name="Layer 1"><path class="cls-1" d="M56.17,46.37l.49-.49.85.25-.25.48-.6.12-.49-.12Zm-3.63.12h0l1.09,1.09h.49l.48.24.36-.24-.24-.49H54l-.85-.6ZM25.42,3.87h0l.25-.24h.72l.73-.24.48.48.73-.24.48.37-1,.84H26.76l-.37-.36h-.72s-.25-.73-.25-.61ZM60.53,19.25h.85l.48.6.37,1.22,1.09.36,1.45,1.09.85,1.09-.12,1.21-.61.12-.12.36-1.09.12-.6-.24h-.61l-.48-.6.24-.49-.85-1.45-.85-.49V20.82l-.24-.72Zm-1-2.06h0l-.24.49.37.48.12.85.48-.73-.12-.85Zm-1.45-1.81h0l.49-.13.36-.72.48.72-.48.61-.73-.12ZM43.7,6.54h0l1.94,1.09L47,8l1.58,1.33,1.21.24.6.73,1.09.48.73,1.34h.6L53,13.92l.48.12v.73l-.36.85-.24,1.09-1-1-.25-1,.37-.61-.61-2.3-1.57-1.57-1-.12-1.57-.85-3-1.69L43.83,7ZM37.77,0h0l.73.12L39,.85v.48L37.89.61Zm2.54,6.42h0l1-.49.61.49v.72L41,7.51,40.31,7ZM39.83,17h0l.85.85.48-.49-.48-.85h-.61ZM32.93,19h0l-.61,1.21.61.85,1,.12,1.45,1.09.12.48.61-.48,1.45.12.48.84,1,.13.73-.13,1.57-.36.85.24.73-.24,1,.36.36-.48v-.61h1.09l1.57-1.93v-.61l.61-.12.6.49,1-.37.49-.72-.85-1-.12-.61.6-.24.49.24,1-1V14.41l-1-.85-.49.36-.36.37-.48-.49H47.22l-.37.61.37,1.93.36.37-.49.36h-.84L44.67,18.4l-.36.85-.48.36-.49-.12-.6.36-.61-.6h-.48L41,20.1l-.6-.12-.25-1.09.25-.73-.73-.36-.36.48.12.61-.73.36h-.85l-1,.36H36.2l-.61-.36h-.84l-1,.24Zm-3.15.84h0l.61-.6.6.6.25.73-.25.49-.72-.49Zm-2.42-1.69h0l-.36.73.36.48.49-.12v-.73Zm-4.24-2.78h0l-1,.36.24.6L23,16ZM50.48,35.23h0l-.24.61.24.48.37-.12,1,.6-.13-.48Zm-6.41-2.66h0l-.24.36.36.61h.24v.72h.12l.12-.6-.12-1.21Zm-1.82,6.29h0l.61.12.36.37v.24l.36.12.12.24.61-.48h.36V40l-.36.24-.12.37-.49.12-.48-.12v-.49L43,40l-.36-.72-.37-.13Zm-.72-1.33h0l.12.73.36.24.61-.12.24.24.24-.24L42.86,38h-.37l.13-.12-.13-.36h-.36l-.48-.12Zm-1.94-.85h0l.36.85.36-.12.37.48L41,38v-.6l-.48-.73-.49-.24ZM18,29.54h0l-.24.24.24.49v-.73Zm-1.7.24h0l-.12-.36h.25ZM15,29.42h0l-.12.48.61.12-.12-.36Zm1,.36h0l-.48-.6.24-.37h.36l-.12.61Zm-3.15-.12h0l.37.73.36.12L13.32,30ZM11.5,33.17h0l.49-.48h.6l-.24.36s-.85,0-.85.12Zm-.12.49h0l.36.24-.12-.36Zm-1-.49h0l.49.24.24-.24Zm-.36.37h0l1.21.48.6.73Zm1.21-2.06h0l.85.12-.25.24-.48-.12Zm1.09-.25h0L12,30.87l.12-.48.48-.37.24.85-.12.36ZM1,7H1L.48,23.12.24,24.46v.6l.12.36L0,36H1.57l.37.24.84-.12h2.3L5.57,36l.24.48.61.61.6.24,1-.61,1.57-.48.13-.36.36.36.36-.49V34.5L9.2,33.66,8,33.05,6.9,32.93l-.48-.36-.61-.25H5.57L5.08,32,5,30.87l-.84-1-.73-.36-.24-.61-.49-.48.61.36.24.73.49.12,1,.61.12.72.13.85h.36l1.09.36.6.49.49-.12,1,.12,1.21-.37.84.13.73-.25-.24-.36-.61-.36-.24-.61h-.6l-.37-.6.49.48.84-.24.73.72.73.25L11.86,31v-.72l.37-.25.12-.48-.12-.61-.61-.6V28l.73.36.24.6.85.73.72.12v-.36L14,28.81l.25.25.12.72.36-.12.12-.48-.36-.61.36-.85.36.49,1,.36.25.61.6.12h.48l.37.12.36-.49-.12.61.12.61.36.12.61.48,2.3.61.73.36.6.73.36,1.21,1.22,1.45.24.6.72.25.49.72.12.49,2.06,2.06v.6l.84.48,1.22.49.48-.24H31l.73.36,1.33-.24.85.36.85-.12,1.21.24.72.37,1-.13L38,42l.85-.12.24.24-.48.48.73.13,1.09.6,1-.24.25-.49-1.09-.72h-.37v-.36l.85-.25.61.25.84-.49-1.69-.36L39,40.56,37.77,40l-.36-.48,1-.49h.72l.37-.24-.61-.36H37.41L36,38.14l-.49-.49v-.6l.49-.61L36.2,36l-.49-.49h-.6l-.36.24-.61-.12h-.48l-.73-.84-.24-1.21-.61-.37-.72-1.81-.49-.25-.24-.6h-.85l-.72-.36-.37-1-1-.85-.24-1.09-.6-.48-.49-1v-.37l1.82.25,1.57-.85.49-.73-.12-1-1.22-1.21-1-.24-.37.24-1-.48-1.57-.61L24.33,20l-.84.12-2.18-.73-.12-.6.48-1,.12-.73-.48-.73-1.58-1.69-.36.12-.48.24-.37-.72-.84-.61-.25-.6L16.59,13l-.49-.6-.36.12L14.89,12,14,11.86l-1-.6-1-.24-1.58-1-2.3-.24-1-.37-.48-.6H6.42l-.37.24L4.48,8.35,4,8l-.85-.36L1.82,7Z"/></g></g></svg>