<svg xmlns="http://www.w3.org/2000/svg" viewBox="0 0 65.5 69.13"><defs><style>.cls-1{fill-rule:evenodd;}</style></defs><g id="Layer_2" data-name="Layer 2"><g id="Layer_1-2" data-name="Layer 1"><polygon class="cls-1" points="0 23.85 0.6 21.31 2.66 17.07 2.79 15.01 2.54 12.95 1.7 11.74 4.12 8.11 5.21 5.33 5.21 4 6.9 2.91 17.43 0 26.15 0.12 31.23 3.87 32.45 4.12 33.9 5.81 33.53 7.51 35.35 8.96 35.47 11.26 37.05 13.56 36.2 18.16 36.68 20.1 36.2 21.67 36.68 23.37 39.59 23.12 40.8 23.73 44.31 23.49 46.49 24.21 50 22.88 51.94 24.21 53.39 24.58 53.87 26.39 55.81 34.63 57.14 37.53 58.48 38.01 61.62 36.32 63.32 36.92 64.41 38.01 65.5 38.26 64.77 39.47 64.65 46.73 64.29 47.46 64.04 47.82 64.04 48.79 63.92 49.52 63.8 50.48 63.44 50.73 63.2 52.91 63.44 53.63 63.32 56.54 61.99 57.63 60.9 59.56 60.41 61.14 56.9 63.56 56.3 65.62 54.96 67.31 53.27 66.83 52.54 67.19 51.09 69.13 50.24 68.28 49.27 68.28 47.46 69.13 44.31 67.19 39.71 65.74 34.38 66.59 33.05 66.71 33.41 65.01 35.84 62.59 36.92 59.56 36.56 57.99 37.29 56.66 38.62 55.69 39.71 53.87 40.19 52.18 39.35 50.36 37.17 48.55 35.35 46.49 30.75 45.88 27.36 44.19 23.97 41.16 22.52 40.92 19.61 39.35 15.01 38.26 13.8 36.32 11.86 34.63 10.05 34.38 5.21 29.66 3.39 26.27 1.94 25.91 0.12 24.09 0 23.85"/></g></g></svg>