<svg xmlns="http://www.w3.org/2000/svg" viewBox="0 0 46.73 68.89"><defs><style>.cls-1{fill-rule:evenodd;}</style></defs><g id="Layer_2" data-name="Layer 2"><g id="Layer_1-2" data-name="Layer 1"><polygon class="cls-1" points="43.46 40.68 43.34 40.68 42.98 40.56 42.62 40.56 41.77 40.56 41.04 40.8 40.31 40.92 39.95 40.56 39.83 39.71 39.71 37.53 39.71 36.2 39.95 35.96 40.19 35.11 39.83 34.75 38.5 35.47 36.92 36.92 35.11 36.8 33.53 36.68 33.29 35.71 32.57 34.5 31.48 34.38 29.18 34.5 30.14 33.41 28.33 30.51 27.36 29.54 27.6 29.06 27.24 28.45 27.6 27.72 27.72 26.88 27.48 26.39 27.84 26.03 27.84 25.3 28.93 24.7 29.42 24.7 30.02 24.21 29.66 23.49 29.3 22.28 30.39 21.31 30.14 20.7 30.51 20.1 30.51 19.25 31.11 18.77 31.96 18.4 32.69 17.68 33.17 17.55 33.66 17.07 35.47 16.71 37.89 15.86 38.26 15.25 38.5 15.38 39.23 15.38 39.47 15.38 40.31 15.86 40.19 16.1 41.04 16.34 41.28 15.74 41.04 14.65 40.56 14.04 39.59 14.04 38.86 14.16 38.62 13.68 41.04 9.81 40.92 9.32 40.31 9.56 39.95 8.96 39.1 8.6 38.62 8.6 38.38 8.23 37.77 8.23 36.44 8.84 35.59 8.35 34.63 8.23 33.53 8.72 33.17 8.96 32.2 9.08 31.6 8.84 30.87 9.08 30.14 8.84 29.9 8.23 30.14 7.87 29.9 7.02 29.3 6.66 29.06 6.66 29.06 5.81 28.33 4.72 26.63 4.12 26.15 4.12 25.55 3.03 25.42 2.3 24.58 1.33 24.33 0.85 23.61 0.73 22.28 0.36 21.79 0 21.55 0 21.79 0.48 21.67 0.97 22.52 2.3 22.52 3.03 22.4 3.87 22.16 4.24 21.55 4.24 20.58 6.54 18.04 8.84 16.46 9.93 12.83 11.26 12.23 11.62 9.44 17.55 8.72 18.28 8.35 18.28 7.26 16.71 6.66 16.46 5.45 16.22 5.21 15.74 4.36 16.1 3.63 15.98 3.51 15.38 4.12 14.65 4.84 14.29 4.6 13.32 4.24 13.07 4.24 13.07 2.42 13.92 1.82 14.53 0.48 15.74 0.24 16.71 0 17.31 0 17.68 0.6 18.16 0.73 18.64 0.24 19.01 0.24 19.37 0.97 19.98 1.45 21.07 1.45 21.79 0.85 21.79 0.24 22.03 0.12 22.64 0.73 23.12 1.45 23.49 2.54 24.33 3.51 24.45 4.96 25.42 5.69 25.67 5.93 26.27 6.66 27.36 6.78 28.45 7.26 29.18 8.72 29.9 9.32 30.99 9.56 31.96 9.93 32.69 10.05 33.9 10.53 34.75 11.14 34.99 11.86 36.2 11.99 37.05 11.74 37.41 12.35 38.62 13.44 40.07 13.92 40.8 13.68 41.4 13.8 41.89 14.29 42.01 15.5 43.1 15.86 43.83 15.98 44.79 16.34 45.28 17.31 45.64 17.43 46.49 18.52 48.18 18.77 48.91 19.98 50.6 19.98 51.33 19.61 51.45 19.37 51.21 19.25 51.57 19.37 52.18 19.37 52.78 19.86 52.66 20.34 53.03 20.46 53.51 20.22 53.87 21.43 54.6 22.64 55.21 22.64 55.69 23.25 56.42 23.85 56.42 24.21 56.78 24.45 57.38 24.94 57.75 26.03 57.63 26.39 57.26 26.15 57.87 26.75 58.6 27.84 59.2 28.45 59.69 28.57 60.17 29.06 60.53 29.9 60.9 30.27 60.77 30.87 60.9 32.33 61.74 33.17 62.23 33.9 62.23 34.26 62.35 34.38 62.83 35.47 63.56 35.96 63.92 36.8 64.65 37.29 64.89 37.53 65.25 37.41 65.74 37.41 66.22 38.26 66.34 39.1 66.71 40.07 67.68 41.04 68.64 41.65 68.77 41.77 68.89 42.62 68.52 43.46 67.92 43.95 68.04 44.67 67.68 44.91 67.07 44.19 66.34 44.43 65.74 44.79 65.13 45.4 65.25 45.28 64.89 44.79 64.77 44.55 64.41 45.04 63.2 45.88 62.71 46.61 61.74 46.61 60.9 45.64 58.48 46.01 57.87 45.88 57.02 45.64 56.54 45.52 55.69 46.01 55.21 46.25 53.99 46.13 51.7 45.76 50.6 46.25 49.52 46.25 46.97 46.73 46.01 46.73 45.52 43.46 40.68"/></g></g></svg>