<svg xmlns="http://www.w3.org/2000/svg" viewBox="0 0 56.42 85.11"><defs><style>.cls-1{fill-rule:evenodd;}</style></defs><g id="Layer_2" data-name="Layer 2"><g id="Layer_1-2" data-name="Layer 1"><path class="cls-1" d="M20.22,4h1.45l-1,.48Zm-.73-2.43h0l.73.73-1.09.24ZM21.91,0h0l-.84.61.6.6Zm2.42,2.78h0l-.72.85.6.61.49-.85s-.49-.61-.37-.61Zm.49,28.82h0l.85.72.6,1.09,1.21.49,1-.36.24-.85,1.46-1.21h1.08l1.7,1.09.73,1.33L33.53,35l.49.6.73-.48V34l.48-.36.61,1.09h1.33l1.09.72.24.37-.85.12-.48-.25-.61.37.24,1L37.53,39v.85h1.21l.73.36h1l.48.61-.48.48.12.61-.49,1.69-1-.36-.84-1.09.84-.6.13-.49-1-.24v.36l-1,.37-1.21-1.46-.85-.36V38.5l-.48-1.09-1.7-.61-.73-1.33-.72-.36L31,34.5l-.6-.12-.24.61,1.21,2.06.36,1.81-.36.12-1.21-1.81-1.22-1-.48-.85-2.3-1-1.33.12-.49.73.25.85-1.09.6-1.21-1.33-.85.73-.85.24.49-1-.49-1-.6.24-.37,1.09-.72-1.21L19,33.17l-.12-.6.6-.85,1.21-1.57-1-.73-1.21-.12V30l.61.61-.61.85H17.8L16.59,30V28.93l-.49-.24-.36.37-.49-.37V26.63l-.84-1.57-.49-1.57.49-.73-.25-.48h-.72l-.24-1.21.12-1.46.84,1,1,.12.85-.36v-.73l-1-1.93.61-1.34.6-2.78V11.14l-.36-1.33L17,7.51l.24-1.21,1.7-.61,2.18.36.84,1.09.85.49L23,7.14h1.7l.72-.72.12-.49L26,5.69l.73,1-.13.85-.6.72-.24,2.3,1,1.7.72.24.36,1.45.61.73-.61,2.66-.72,1.58.36,1.33-1,1.57v-.6l.37-.85-.73.48-1.69,1.7-.49,1,.12,1.21-.6,1L23.37,27l.6.48.61,1.45.72.85-.48.61Zm2.06.48h0l.24,1,.72.36-.12-.84Zm-1-4.36h0l.6,1.58-.24.48.24.73.73-.73.12-1.69.61-.61L27.24,27ZM15.86,35h0l.12.72,1.45.61.25-.24L16.59,35Zm1.94,2.42h0l.24.48h.85l.24,1.34.72.36.73,1v1.69l1,.49v1.09l1.09,1.33,1,.12,1.09-.85v-.85l.48-.36v-1l-.6-.85.48-.84v-1l-1.21-.49-2.3-2.05-1.45.36-1.21-.49Zm22.51-4h0l-.6.49L40,35.11l-.36,1-.36.24.48.6,1.57-.24.37-1.21-.49-1.21Zm-13.8,4.73h0l1.33.84.25-.6.48-.61-.48-1L27,36.44l-.61.85Zm2.3,4.23h0l-.48,1.09-.73,1,.61,1.45.72-.24.37-1.33-.37-1.09L29.18,42Zm2.67,1h0l-.61.36.24.61h1l.12-.61ZM35,40.44h0l-1.21-1.09-.37.12v.6l1.46,1.58.24-.49Zm2.06,2.17h0l.36.61,1,.85h.48l-1-1.21Zm-1.82,4.12h0l1-1.45.85-.12,1.21,1.57,1.33.49h.85v-.73l-.61-.85-1.69-1.21-.85-.12-1-.85H36l.12-.36-.85-.24v1.21l.24,1L35,45.4v.73ZM29.66,55h0l-.36.49-.49.24-.48-1.94.48-1.33-.12-1.94.24-1.09.13-1.08-.61-.13-1.21-.48.24-.73,1.21-.24,1.09,1.09.85.36-.24.49H31l1.21-.12.73.24.73,1.09.72-1,.73-.36.48.72-.24,1-.6.49-.49,1.21L32.93,53l-.48.84h-.61l-.12.37L31,54.12Zm2.91-.72h0l-1,.24-.37,1.21.61.48,1.09-1v-.73ZM42.13,54h0v1.08l-.48-.6Zm-5,7.5h0l.84-1,.37-2.42L40,56.3l.24-1.09-.12-1,.37-.73V51.33l-.61.24-.36,2.06-1.09,1.7-.12,1.33-.49,1.69-.85,1v1.21ZM36,61h0l-.12-2.3.6-3.15,1.09-1.09v-1l-.85-.6-.48.36-.73-.49-1,.73v1l-.6,1.09L34,57l-.61,1.33-1.69.49-.61.6.37,1.82.84.12,1.21.85h1.22v1.33l.84.48,1.09-.6V62.35Zm2.78,1.81h0l.36.25-.12.6-.84.48-.73-.6.36-.61Zm3.51-5.2h0l.73-.12.6.6.12,1.21-.48.73-1.69.85H40.07l.12-.49-.48-.72.6-1Zm5.21.12h0l.6,1v.84l-.84-.84Zm-3.15,4.48h0l1,.85-.12,1-.85-.48-.24-.73Zm-.85-13.56h0l-.24,1.09-.85.12-.84-.61.6-.36Zm2.42,1.57h0l.85.61.36.72,1.7.12.36.25.24-.37.61.37-.61-.73-.24-1.09-.6-.48v-1.7L48.3,46l.25-.6L48.06,45l-1-1.34-.6-1.09h-.73l-.36.13-.48-.25-.61.12L44,43.1,42.74,43l-.85.12-.49-.24v.72l.85,1.82,1.45,1.09L45,48.06l.48.37-.12.48-.48.73-.25.24.61-.24.12.36Zm-1,.24h0l-1.22.37-1-.49H42l.36,1.09v1.21l.73.73.6-.61.61.61-.12,1.45.6,1,.13,1.7,1,.6L46,56.54l.61.85,1-.25.12-.84-1-1.7-.85-.6-.12-1.7L45.16,51Zm5.56,2.79h0l.49-.12-.36-.37h-.37Zm.13,1.09h0L50,53.87v.61l.36.36Zm-.13,5.45h0l.25-1.34L50,57.63l-.12-1.09.48-.24L50,55.57l-.48.24-.25,1.33.61,1.33-.12.73.24.49Zm1.21.36h0l-.12.6.49.61.12-.73Zm.85-2.54h0l-.24,1.21-.24.48.6.73.73-.24L53,58.72ZM30.39,77.48h0l-1.21-1.21L30,74.7l.25-1.7-.37-.84L31,70.94l1.09-.24.85-.85,1,.37,1.69-.37-.48-1,.48-1,1.33-.61.61-1,1-.12L40,67.55l.12,1.82-1.21,1.82,1-1L40.92,70l1.33-.73.61-1.94,1.21-.48.48,1.33.73-.36L45.4,67,45,66.59l.48-2.18,1.21.48.73.49.24-.49V63.32h.48l.85,1v-1l-.48-2.18.12-1.21.85.24.36-.12.24,1,1.57,1.21,1.09,1.09.73-.61v.85l.73,1.21v1.45l-.73-.12-.12.61.61.84h.48l-.12.73v1.33l.48-.72L55,70.22v1.33l.61.85.73,1.09.12,1.81-.49,1.58-.48-.12v.72l-.37-.72-.72.12-.12.72.36,1.58-.12,1.33v.72l-.36-.72-.61-1.7.12-1.09-.6-.84-.25-1.09-.84-1.21-.73.48-1.33,2.42-.24,1,1,.73.6,1.45.48.73v1.21L50.12,84.5l-.85.61-.36-.49-.36-1,.48-.73-.36-.48-.61.48-.12.61L47,84l-1.09-.48-1.09-.85H43.58l-1.09-1.21-.12-1-.84-1.09.24-.73-.12-.84-.49-.61.49-.73-.12-.6.48-.12,1,.36-.85-1-.24-1-1.09-.84-1-.25-1.09-.84-.48-.12-.49.6.24.48-.36.49.61.85h-.49l-.85-.73-.6.12.24-.73L36.08,73l-.49.37-.12,1.09L35,74.09l-.49.24L34.14,74l.24-1.09-.85-.72-.6.24-.61,1.45-.6.48-.85,2.43Zm-1.7,1.45h0v.49l.61,1.09.72.24,1.46-1.33.12-.36-.73-.25-.6-.48-.61.48ZM15.74,46.25h0l-.61-.61-.36-.85.36-.48,1,.24.61.73,1.21.24.24.61-.48.48L17,46.37Zm-.73.48h0l1.09.36.49.85-.49.24-.36.61h-.49l-.36-1.33Zm.73,8.6h0L16.1,55l.24-.48.37.6.36.37v.6H15.5ZM1.94,67.92h0L3,67.07,3.75,67l.73-.73,1.21-.48L6.9,63.8l1.33-.48,1-.73V62l.85-1v-1.7l.6-.72,1.7-.13.48-1.21.73-.84,1-.12.48-1L14.41,54l-.85-1.09.12-1-.12-1.7-.49.24-.24,1.7L13,53.87l-.84-.48.72,1.09-.12.73-.85,1.09h-.72l-1.09,1.21-.12.84L8.84,59,7.75,61.38,6.05,63l-.84.13-.85,1.57-.61.24L2.06,67l-.24.6Zm.12.6h0l-.49.61L2.06,69Zm.6.25h0l-.36.36.61.36ZM1.09,70.1h0l-1,.36L0,71.19l.73,1.09h.48V70.82l.24-.48Z"/></g></g></svg>