<svg xmlns="http://www.w3.org/2000/svg" viewBox="0 0 60.9 51.45"><defs><style>.cls-1{fill-rule:evenodd;}</style></defs><g id="Layer_2" data-name="Layer 2"><g id="Layer_1-2" data-name="Layer 1"><polygon class="cls-1" points="36.56 51.21 36.92 51.33 38.14 51.33 38.98 50.12 40.07 49.76 41.04 49.88 42.62 49.88 43.58 50.6 44.43 49.64 45.52 49.52 46.49 50 47.34 49.64 49.88 49.76 52.54 51.33 53.99 51.45 54.12 49.4 53.87 47.58 57.87 43.1 58.47 41.04 59.44 40.07 60.53 39.95 60.9 38.01 60.41 37.17 60.29 36.2 60.77 35.47 59.2 34.38 58.47 32.45 57.63 31.6 57.51 28.57 57.75 26.88 56.42 24.7 55.81 22.76 56.78 21.07 58.11 20.58 58.11 16.46 57.38 15.86 57.02 14.16 56.17 12.83 55.21 9.81 53.99 7.87 54.12 6.29 53.39 3.87 52.54 3.75 50.97 2.54 42.25 3.39 33.9 3.03 33.05 3.27 30.87 5.33 28.93 5.69 28.45 5.33 30.39 4.24 32.08 2.42 31.48 2.42 30.14 3.87 27.6 4.96 24.82 4.24 24.21 2.66 24.58 1.57 26.15 1.82 26.88 2.18 26.88 1.82 25.06 0.85 21.67 0 19.13 1.33 17.19 1.21 15.25 1.94 14.04 3.63 12.11 3.63 10.9 4.96 10.9 6.05 8.84 6.17 5.81 7.87 3.63 7.99 2.91 9.56 2.42 11.14 1.94 11.38 2.06 12.11 1.33 12.11 2.06 15.13 1.94 17.31 0 18.28 0 19.13 2.06 21.31 1.82 22.64 2.78 23.97 2.78 24.94 3.39 26.27 2.91 27.48 4 30.14 4.96 30.63 5.69 31.72 5.81 35.23 5.45 35.84 5.93 36.8 6.54 36.2 7.63 36.32 8.35 36.08 11.02 36.44 10.9 37.17 12.11 38.38 13.07 38.26 14.16 39.1 13.44 40.56 14.04 41.28 14.53 41.65 14.41 42.86 15.25 43.22 15.98 42.62 16.83 42.62 15.25 40.56 15.86 40.19 19.01 41.89 20.94 41.65 20.58 42.74 22.03 43.95 24.58 43.34 26.51 43.95 30.51 46.85 31.72 49.03 32.93 49.03 33.41 48.43 35.23 48.43 36.2 49.52 36.56 51.21"/></g></g></svg>