<svg xmlns="http://www.w3.org/2000/svg" viewBox="0 0 37.65 75.3"><defs><style>.cls-1{fill-rule:evenodd;}</style></defs><g id="Layer_2" data-name="Layer 2"><g id="Layer_1-2" data-name="Layer 1"><polygon class="cls-1" points="24.45 72.03 24.33 69.13 22.52 66.34 25.3 61.14 28.33 58.6 28.69 56.42 26.03 56.17 24.33 52.66 28.21 48.91 27.97 43.95 25.18 42.25 22.03 36.32 25.06 35.59 27.12 35.96 30.27 31.6 28.21 29.42 30.75 26.88 31.11 19.13 30.63 15.98 35.11 11.62 36.92 11.62 37.65 9.2 35.11 5.69 34.75 2.66 29.06 2.06 26.75 4.24 20.1 2.9 16.1 4.96 15.01 3.27 15.38 0.6 13.32 0 7.99 0.85 8.23 3.39 10.05 7.51 9.2 15.13 9.69 16.34 8.72 19.73 10.53 21.79 9.2 23.49 7.75 26.63 7.51 30.51 4.84 34.5 4.84 36.8 1.57 41.4 0 48.43 0 50.12 2.54 50.12 3.75 48.43 6.17 46.85 5.81 48.43 6.42 49.64 2.91 51.45 2.66 53.99 3.75 55.21 5.69 53.51 8.72 53.51 7.51 55.21 8.23 58.35 7.14 61.26 7.26 67.68 6.05 72.28 5.21 73.61 6.05 74.33 9.69 71.91 14.65 73.85 16.95 75.3 20.58 73.24 23.73 73 24.33 71.91 24.45 72.03"/></g></g></svg>