<svg xmlns="http://www.w3.org/2000/svg" viewBox="0 0 65.5 42.01"><defs><style>.cls-1{fill-rule:evenodd;}</style></defs><g id="Layer_2" data-name="Layer 2"><g id="Layer_1-2" data-name="Layer 1"><polygon class="cls-1" points="14.77 1.57 16.22 1.57 17.19 0.61 18.64 0.61 21.31 2.18 23.37 2.18 25.3 3.15 26.03 4.36 27.6 5.08 29.9 4.36 31.48 4.24 32.69 2.79 37.65 1.94 39.47 0.85 44.07 0 44.91 3.27 47.94 6.05 48.3 7.51 52.18 10.65 52.78 12.71 53.99 14.77 53.75 21.79 54.72 23.85 55.93 26.03 57.99 26.51 60.77 26.51 61.98 25.67 64.29 25.42 65.5 26.51 64.77 27.24 65.5 27.84 65.5 28.93 64.41 30.87 62.83 31.23 60.29 31.36 59.93 32.93 58.96 34.02 59.56 34.99 59.44 37.17 58.72 38.62 59.2 40.31 57.38 40.31 57.14 39.47 55.21 38.62 53.75 39.1 53.03 38.26 50.48 37.29 48.3 37.05 46.37 37.41 41.89 39.47 41.28 40.56 39.47 41.16 38.5 41.77 35.71 41.41 34.38 41.41 32.93 40.92 31.72 41.41 30.27 41.04 28.09 42.01 25.55 41.04 24.82 41.28 23.97 40.44 22.03 40.31 20.22 41.53 19.37 40.19 19.98 39.35 20.1 38.26 19.13 37.41 17.07 37.29 16.59 35.59 16.46 34.5 17.68 33.17 15.01 32.57 13.8 34.26 12.71 33.17 11.14 33.78 10.41 32.57 7.99 31.84 7.63 30.99 8.47 29.18 6.54 27.72 4.6 26.64 4.12 25.3 1.82 22.52 1.33 21.55 0 21.07 1.45 19.61 2.66 19.25 3.39 17.92 5.33 18.16 6.78 16.83 6.66 15.38 9.32 11.5 10.9 6.9 12.35 4 14.16 3.75 14.89 2.06 14.77 1.57"/></g></g></svg>