<svg xmlns="http://www.w3.org/2000/svg" viewBox="0 0 65.62 39.47"><defs><style>.cls-1{fill-rule:evenodd;}</style></defs><g id="Layer_2" data-name="Layer 2"><g id="Layer_1-2" data-name="Layer 1"><path class="cls-1" d="M50.85,36.32h0l-.12-.12h0l.12-.12h-.12V36h0l.12-.12L51,36h0v-.25h0v-.12h0v-.12h-.12v-.24h0v-.36h-.12v-.12l-.12-.25h0v-.12h.24v-.24h.24l.36.12h0l.12-.12h0L51.45,34h0l.12-.12h-.12l.12-.12v-.12h0v-.12h0v-.13h0v-.12h0v-.12h0v-.24h0v-.12h0l-.12-.12h.12v-.12h-.12v-.12h0l.12-.13h0V32.2l.12-.12h-.12V32h0l-.12-.12h0v-.12h0V31.6h-.24v-.12l-.12.12H51v.12h-.12v.12h-.12l-.12.12h0v.12h0v.12h-.13v.12h-.36L50,32.2h0l-.12.12h-.12V32.2h0l-.12-.12L49.52,32h0l.12-.12h0v-.12l-.12-.12h0v-.12h0v-.12h-.13v.12h-.24v-.12H49l-.12-.13h-.12v-.12h-.12V31h-.12l-.12.12V31h-.25v-.12h-.36l-.12-.12-.12-.12h-.12l.12-.12-.12-.12h-.12v-.12h0V30l-.25-.12L47,29.78h0v-.12h-.12v-.12h0v-.12h-.12V29.3l-.12-.12h-.12v-.12h0v-.13h-.12v-.24h-.12v-.12h-.12v-.12h-.25v-.12h0l-.12-.12h-.24v.12h0l-.12-.12H45l-.12-.12h-.37v.12h-.48l-.12.12H43.7v.12h-.24v.12h0v.12l-.12.12h0v.25h.12l.12-.13h.12v.13l.13.12h0v.12h0v.24l-.13.12h0v.12l-.12.12h0v.25h0l.12.12v.12h-.12v.48h.25v.24H43.7l-.12.12h-.12l-.24.25h-.36l-.12-.12h-.49l-.12.12H42v-.12l-.12.12h0l-.12-.12-.12-.13h-.12l-.13.13v-.13h-.12v.13l-.12.12h0L41,31.6l-.12.12h0v.12h-.36V32h-.25l-.12.12-.12.12H38.86l-.12-.12h-.12L38.5,32v-.12h-.36L38,31.72l-.12-.12h-.36l-.12-.12-.12.12h-.37l-.12.12-.12.12h-.6L36,31.72h-.12l-.13-.12h-.12v-.12h0v-.12l-.12-.13h0v-.12h0L35.35,31H35v-.12h-.61l-.12-.12h0l-.12-.12h-.36v.12h0v.12h-.12l-.12.12v.12h0v.49h.12l.12.12h0v.36h.12v.24H32.69v.13h-.12l-.12-.13h-.13l-.24-.24h0L32,32h-.48v-.12h-.73V32l-.12.12h-.24l.12.12h-.12v.12h-.12l-.12.13h0l-.13.12v.12h0l-.12.12-.12.12h-.36l-.12.24h-.24l-.13-.12-.12-.12h0v-.24h-.12v.12h-.12l-.12.12h-.24v.12l-.12-.12H28l-.12-.12h0v-.12h0v-.12h-.13l-.12-.12h-.12l-.12-.13V32.2l-.12-.12h-.61l.13.12h-.25l-.12.12-.12-.12h-.12v.12H26l-.12-.12h-.12v-.12h.12L25.67,32h0v.12h0v.12h-.13l-.12.12-1.21-1.57L23.37,30h0l.12-.12v-.12h-.37v.12H23l-.12.12v.13h-.12v.12l-.12.12H22.4v.12h-.61v-.12l.12-.12v-.12h0l-.12.12h0l-.24-.12h-.12v.12h0l-.12-.12V30l-.12-.12h-.12l.12.12v.13h-.12V30h-.13v.13H20.7L20.58,30h.12v-.24h0l-.12-.12h0v-.12l-.12-.12V29.3h-.12l-.12.12H20.1L20,29.3h-.49v.12h-.24l.12.12v.12h-.24l-.12.12h-.12l-.25.12h-.12L18.4,30h0l-.12-.12V30h-.12l-.12.13v.12h-.36l-.13.12h-.12l-.12.12H17v.12h-.24v.12h0l-.12-.12-.13.12v-.12h-.12v.12h-.12v.12h0V31l.12-.12.12.12h-.12l-.12.12h.12l.12.12.13-.12h0l.12.12h.12v.13h-.37l-.12.12-.12.12v.12h.12v.12l-.12.12v.12H16.1l.12.12h.12v.12h.12v.13h.25l.12.12v.36h-.12l-.12.12h-.13l-.12-.12h-.12v.24H16.1l-.24-.12-.12.12v-.12H15.5v-.12h0l.12-.12h-.49v.12H15l-.12-.12h-.12l-.12.12v-.12h-.12v.12h-.12v.24h-.25v-.12h-.24v-.12l-.12.12v.24l-.12-.12h0v-.12h-.12l-.12-.12-.12-.12H13.2v-.12h-.12v-.12H13l-.12.12-.12-.12-.12-.12h-.12v.12h-.12l-.12.12v0h-.12v.12L12,32.69h.12v-.12H12l-.13-.12h-.12l.12.12v.12h-.24v.12H11.5l-.12.12v.36h-.24l.12.37-.12.12v.12H11l-.12-.12-.13-.12-.24-.25v.25l-.12.24h-.12v.24l.12.12-.12.24v.25h.12l.12.12V35l.12.12H11l.24.24.24.36h-.24v.13l.12.12.24-.12.12.12h-.12v.12h0v.12h-.24l.12.12h0v0h-.12v.12h-.24v.12H11v-.12h0v.12H10.9v.24l-.13.12h0v.25h0l-.12.12.12.12h.13v.12H11v.12l.12.12h.12v.12h-.12V38h.12v.25h.12v.24l.12.12.36.24V39h0l-.12.12-.24.13v.12l-.24-.12V39.1L11,39H10.9l-.13.12.13.13.12.12v.12l-.25-.12h-.24l-.24-.12-.12.12h0v.12l-.12-.12H9.81l-.25.12H9.32l-.24-.24H9v.12H8.84l-.12-.12v.12H8.6v-.12h0l-.13-.13L8.6,39l-.13-.12v-.24H8.35l-.12-.24H8.11L8,38.26H7.87l-.12-.12H7.63V38H7.51l-.12-.12H7.26v-.12l-.36-.24-.12-.12H6.42l-.12-.12v-.12l-.13-.12H6.05l.12-.13H6.05V36.8l.12.12h.25V36.8h0v-.24h0l.12-.12h.12v-.12H6.42v-.24h.24V36h0L7,35.84v-.25l-.24.12H6.66v-.24h0l.12-.12L7,35.23h.12v-.48L7,34.62V34.5l.12-.12.12-.12v-.12H7.14V34L7,34.14H6.9L6.78,34H6.54l-.12-.12H6.3L6.17,34V33.9l-.24-.12-.12-.24h0l-.24.12H5.21v.12L5,33.54l-.12-.25v-.12h0v-.12H4.36l-.12-.24h.12l-.12-.12-.12-.24H3.39v.12H3.15v-.12L3,32.32V32.2l-.12-.12V32L3,31.84l.12.12h.24v-.24h.12l-.12-.12v-.12l-.24-.12H3v-.25H2.91l-.13-.24-.12-.12-.12-.12v-.12l-.12-.12.12-.12v-.12L2.3,30H2.06l-.24.13V30l-.13-.12L1.57,30l-.12-.12H1.21v-.12l-.12-.12v-.24L1,29.3H1v-.12H1v-.12H1l-.12-.13h0v-.12L1,28.69v-.12l-.24-.36v-.36H.85V27.6H1v-.12H1l-.12-.12H1l-.12-.12v-.12H1v.12h.12v-.12h.12L1.33,27h0l.12-.12.12.12v-.24H1.21l-.12-.13L1,26.51H1l.12.12v-.24h0L1,26.51H.85v-.12l.24-.24L1.21,26l.12-.12.12-.24.12-.25.25-.36.12-.36v-.12l-.25-.25-.12-.12L1.33,24v-.12l.12-.24v-.12l-.12-.12-.12-.13v-.12h.12L1.21,23H1.09v-.36h0v-.49h0L1,21.67l-.24-.36v-.12l-.12-.25V20.7l.12-.12v-.24l-.25-.12h0L.36,20.1.24,20H.12v-.25L0,19.61v-.12l.12-.12H0l.12-.12H.24V19l.12-.12H.48l.13-.12v-.13H.85v-.12H1v.12H1l.12-.12h.12l-.12-.12h.12v-.12h.12l.12.12h.12l.12.12h0l-.12.12H1.45l-.12-.12v.12h.12v.13h.24v.12l.13-.12h0v.12h0V19h.12v-.24h.24v-.13h0v.13h.24l.12.12v-.12h.12l.12.12v-.12l.13.12.6.24.24.24.12.12H4l.12.12h.12l.12.12h0l.12.12.12-.12-.12-.12H4.6v.24l.24.13h0L5,20.1V20l.12.12h.13v.24h0l.12.12h.12v.36l-.12.12h0l-.12.25h0l-.13.24L5,21.55H4.72v.12H3.87l-.12-.12H3.27l-.12-.12v-.12L3,21.43H2.91L3,21.31H2.78v.12H2.66v-.12h0v-.12H2.3l-.24-.12v-.13H1.94l-.12-.12h0v.12h0l.12.13.12.12v.12h.12l-.12.12H2.3v.12h0v.12h.36l.12.12.13.12h0V22H3v.25H2.91v.12h0l.12.12.12.12v.24h0l.12.12-.12.12h.12v.12l.24.13v-.13h.12v.13h.12v.24h.37l.12.12h.12l.12-.12H4.6v-.24H4.48v-.13H4.36v0l-.12-.12-.12.12L4,23.12V23H3.87l-.12-.12v-.12h.12v-.12h0v-.12h0V22.4H4l.12.12h.12l.12.12v.12h.36l.36.24.13.12V23l.12-.12h0v-.12h.12l-.12-.24-.25-.24V22l.13-.12.12-.12v-.12h.12l.12-.12.12-.12.12-.24h.24v.12h.37v.12l.12-.12.12.12v.12h.12v-.12l-.12-.12.12-.12v-.25h0l-.12-.12h.12l-.12-.12h.12l-.12-.12H6.42V20h0v-.13h0v-.24l-.12-.12-.13-.12-.24-.24h.12l.25.12h.12v-.12h.24l.24.12H7v.12l.12.12h.12v.12l.13.12v.12H7V20H7l-.12.12h0v.24l.24.12.25.24h0l.12-.12.12.12h.12v-.12H8V20h.24l.12-.13.12.13v-.13l-.12-.12-.12-.12h.12v.12h.12l.25-.24h0L9,19.25v-.12h.12L9.2,19h0l.24-.12V19h0l.12.12h.13V19H9.56v-.12h0l.13-.25h0v.13h0l.12.12h0l.12-.12H9.81v-.13h0v-.12l.36-.12h.12l-.12.12h0l-.24.12h.24l.12.13h-.12V19h-.12l-.12.12h.48v0l.12-.12h0l.12.12h.12L10.65,19h.12l-.12-.12h0l.12-.12h.13l.12-.13h.12l.12.13h.24v-.13h0l.12-.12h.12l.12-.12h0l.13-.12h.12v-.12l.12.12h-.12l.12.12h0v.12h0v.25h0l.36.12v-.12h0v-.13l-.12-.12h0V18.4l.24.12V18.4l.12-.12h.25L13,18.16h-.12V18l-.12-.12h-.12v0l-.12-.24h0l-.12-.13h0l.12-.12h0v-.24l.12.12v-.12l.12.12H13.8l.12.12.24.12h.13l-.13.13h.25l.12-.13v.13h.12v.12h.24l.24.12h.25l.12.12v.12l.24.12h.12l.12.24h.12L16,18.4h.12v-.24h0v-.24l.12-.12h-.48l-.12-.25H15.5v-.24l-.12-.12-.13.12h-.12L15,17.19l-.12.12v-.24h0l-.12-.24v0l.12-.12v-.12l-.12-.12v-.13h.12l-.12-.12h-.12V16.1L14.53,16h0l-.12-.12v-.24h0l-.12-.12h.12l.12-.37h.12l.12-.12-.12-.12v-.12l.12-.12-.12-.12v-.24h0v-.37h0v-.6l.12.12H15l.12-.12h.12l.13.12v-.12h.12l.24.12H16v.12h.12l-.12.12.12.12v.12h0v.24l.12.13-.12.24.12.12H16.1l.12.12v.12H16.1V15l.12.12.12.12h.25v.25l.12.12h.12V16l.12.12h0l-.12.12.12.12v.13l.24.24-.12.12.12.12h.12l-.12.12.12.12v.12l.24.24.13.13.12.12h0l.12.12v.48l.12.12v.25h0l-.12.12h0v.24l-.12.12h.12l-.12.12v.24h-.12l.12.12v.12h-.12l-.13.13h-.12l-.12-.13h.12v-.12h0l-.12.12h0l-.24-.12h-.36l-.12.12-.13.13h.13l.12-.13h.12V20l.12.12h.36l.24.12.13-.12h.24v.12h.24l.12-.12h0L18.16,20v-.13l.12-.12h.12v-.12l.12-.12v-.12l.12-.12L18.52,19v-.12l.12-.25v-.12l-.12-.36L18.4,18l-.12-.12v-.24l.12-.13.12-.12h.12l.25-.24H19l.12.12v.12l.12.12.12.13h0l.12.12v.12l.12.12h0l.12.12v.12l-.12.12.12.12h.12l.13.12.12-.12h.24l.12-.12h-.24v.12H20V18.4h-.13l-.12-.12h.12l-.12-.12v-.24l.12-.12h0v-.12h-.12v-.13l-.12-.12h0l-.12-.24H19v-.12h-.12L18.64,17h-.12l-.12.12-.12.12v.12L18,17.19l-.12.12H17.8V17l-.25-.24v-.24l-.12-.25v-.6l-.12-.12h-.12l-.12-.12-.24-.25L16.71,15v-.48h-.12v-.12l.12-.12.24-.13v-.24l-.12-.24-.12-.48h0l.12.12.12.12h0l.12.12v.12l.12.12-.12.24.12.12v.25l.12.12h0l.12.12v.12h-.12l.12.12h.49L18,15h0l.12-.12h.24l.24.12h0l.13.12H19l.12-.12h-.36v-.12h0l-.13-.12h-.12v-.12H18.4v.12h-.24L18,14.65h-.12l-.24-.12v-.12h-.13l-.12-.25h.12V14l.13-.12h.12l.12.24h.36l.12-.24-.12-.12h-.36v0l.12-.12v-.12l.12-.12.12-.12.12.12h.24l.13.12h.12l.36.12h0l.12.12.24.24h.12l.25-.12.24-.12v.12h.24l-.12.12.12.12v.13l-.24.12v.12l.12.12v.12l.12.12v.49h.12v-.13h0V15h.12v-.12h.12v.36l.12.13h-.12v.24l.12.12h.37l.12.12v.24h.24l.24.12h0V16.1l.12-.24h.12l.25.24h.12l.12.24V16.1L22.52,16h-.24l-.13-.12h-.24l-.12.12h-.12l-.12-.12-.24-.12v-.12h-.24l-.13-.12h.13l.12-.25v-.12L21.07,15l-.13-.12-.12-.24-.12-.12-.12-.12.12-.12-.12-.13v-.24l-.12-.12h0l-.24-.12H20v-.12l-.25-.12V13.2H19v-.12h-.12v-.37l-.12-.12-.13-.12v-.12h-.12V12H18.4l.12-.13h.12l.13-.12h.12l.24-.12.36-.12.12-.12H20l.12-.12.12-.12.36-.12v.12h0v.12h-.12l-.12.24v.12l.24.12h.12l-.24-.12V11.5l.12-.12.24-.12V10.9h-.36l.12-.13h-.24l-.12-.12H20l-.13-.12H20v-.12h0l.12.12h.12l.12-.12H20.1L20,10.29h-.13l-.12-.12h-.12V9.93h0l.12.12h.12l.13.12v-.12h0l.12-.12V9.69h0l.12-.13h-.37V9.44h.25l.12-.12h0l.12-.12V9.08h0V8.84h.12V9l.12-.12h0V8.6h.24V8.47h.25V8.35h.24l.12-.12V8.11L21.79,8V7.87h-.12L21.55,8h-.12v.12L21.31,8V7.75h.12V7.63h0v.12h.12V7.63l-.12-.12h.12l.12.12h.12l.12-.12h.49l-.12.24v.12h.12l.12-.12V7.51h0l.12.12v.12h.12V7.51h.12v.12L23,7.51V7.39h.12V7.26H23l.12-.12h.12L23.37,7v.12h.24v.25h0v.24l.12-.12.12-.12-.12-.25L23.61,7l-.12-.12L23.37,7V6.9L23.24,7l-.12-.12h0L23,6.78h.37V6.66h1V6.54h-.24L24,6.42l-.12.12h-.12V6.42l-.12-.12.12-.13h-.12l-.12-.12h0l-.12-.12V5.81h0V5.69l-.13-.12.13-.49V4.72l.12-.12V4.48h0l.12-.12.12-.12h0l.12.24L24,4.36h.12v.12h.12l.12-.12h.13V4.6h.12v.12h0l-.12.12v.24l-.13.13-.12.12h.12l.25-.12L24.7,5h.12v.12l-.12.13h.12l.12-.13h.24V5h.24l.12.12v.37h0l-.12.24.12.12v.12h0l-.12.12h.25l.12-.12h.12L26,5.81V5.57l-.12-.12h-.12V5.33H26l.12-.12.12-.13h.24L26.63,5h.13l.12-.12V5L27,4.84V5h0v.12h.36l.36.25h.13v.24l.24.24V5.69h0V5.57H28V5.45l.12-.12h.12v.12l.12.12h0l.12.12v.12h.24v.24l.12.12v0h-.12l-.12-.12h-.36l.12.12h.12V6.3l.12.12h0l.12-.12h0l.12.12V6.3h.12v.12h0l.13.24V7l-.13.12h0v.25l-.12.12h0l.12.12h0l-.12.12-.12.12h.12L28.69,8v.12h0l-.12.12v.12h-.24l.12.12h0l.12-.12h0l.12.12-.12.25h-.12v.72h-.24l-.12.12h.12v.25h0l-.12.12v.48h0v.36H28v.13h.12l.12-.13v-.12h0v-.12h.12l-.12-.24-.12-.12.12-.12h.36l.12-.12h.12V9.81l.12-.12V9.44h.25V9.2l.12-.12L29.42,9H29.3l-.12.12h0l-.25.12h-.12V9.08L28.93,9l-.12-.24h.49V8.6l.12-.13v.25h0l.24.24h.49V8.72L30,8.6V8.47h0l.25.25h0l.12.12h0V9l.12.12V9.2l.12.12V9.08h.12V9l-.12.12V9l-.12-.12.12-.12h.12l.12-.12h0l.24-.13h.73l.36-.12.12-.12.13.12v.12h0l-.13.13.13.12.12.12h.72l.12.12.25-.12.24-.12h.24V8.6h.24l.12.12V8.47l-.12-.12h0V8.23h-.12V8.11h0L34.14,8V7.75h.12l.12-.12h-.12V7.51h.12l.12.12h0l.12-.12H35v.12h.12V7.51h.12v.24h0v.12l.12-.12h.12V7.63h-.12V7.51h.49v.12l.12.12V7.63h0l.12-.12v.24h.12V7.63l.12.12v.12l.12-.12h.12l-.12.12.12.12h.12v.12h.12v.24l.12-.12h0l.13.12-.25.12V8.6h.25V8.47l.12.13h.12l.12.12-.12.12h.12V9h.12l-.12.12-.12.12V9.08h-.37V9.2h.25v.12l.24.12.12.12.12-.12V9.32l-.12-.12h0l.12.12h.12l.12.12-.12-.12-.12.24h0l.12.13V9.56h.12l.25.37h.12l.12.12h.24l.12.24h.12l.12-.12h-.12l.12-.12v.12l.12.12v.12h.13v-.12l-.13-.6L39,9.44l-.12-.24V9l-.12-.24h.12v.12L39,9h.12l.13.12H40l.12.12V9.08H40L40.07,9,40,8.84h0V8.72l.36-.12h.13l.12.12h.12l.12.12h.12L41,9h.12l.12.12h.25L41.28,9h.12l.13-.12H41.4l.13-.12h-.37V8.35l.12.12V8.35h0l.12-.12.13.12v.12h.24l-.12-.12h.24l-.12-.24h-.12L41.53,8V7.75l-.13.12-.12-.12h.12V7.63h0l-.12-.12h.25V7.26l-.25.13-.12.12v.12L41,7.51l-.12-.12V7.26L41,7.14,41.16,7h.12l.12-.12V6.66l-.12.12-.12-.12H41l-.12-.12H41l.12-.12.24.12H42l.6-.12h1l-.36.24-.12-.12H43l-.12.24L43,6.9h-.12L43,7l.12-.12V6.78l.24-.12.36-.12v.12l.13.24L43.7,7V6.78h-.12V6.66l-.12.12V6.9h.12v.36h-.24l.12.13v.12h.12l.25-.12v-1L44,6.3l.24-.13.36-.12.24.12.37.13.12.24h0l-.12.12L45,6.54h0V6.9h.24l.12-.12V6.9l.12.12v.12h.12V7l.12-.12.12.12v.12h0v.12L46,7.14h0l.13.12V6.9h.12l.24.24h.24l.24.12-.12.13-.12.12-.12.12.12-.12h.61l.12-.12h0l.24-.25h.12L47.94,7l.12-.12.37-.12.24-.12h.12L49,6.54h.36l.49.12.24.24.12.12.24.24.13.13v.12h0v.12l.12.24V8l-.12.12L50.73,8l.12-.12H51l.12.12V7.87h.12l.12.12V7.87l.12-.12V8l.24.12v.12h.13l.12.24V8.23h-.12V8.11h.12l.12.12.12.24V8.35L51.94,8V7.63l.12-.12h.24l.12-.12.12-.13h0V7.14h.12l.12.12H53l.12-.12v.12l.24-.12h.36v.12l.12-.12L54,6.9h0V6.54l.12.12.12.12h.12l.12.12V7l.12.12.12.12.12-.12.24.12h.13l.12.25h0v.12h.48l-.12-.12.12-.12h.12V7.26h0V7.14L55.81,7h-.12V6.78l-.24-.12h0l-.12-.12-.12-.12-.13.12h0L55,6.42l.12-.12L55,6.17V6.05h-.12V5.93l-.12-.12h0L55,5.69v.12l.37-.12h.24l.12-.12.12.12h.12V5.57h.12v.12h.12V5.57h.13V5.45l.36-.12.12.12V5.33h.73v.12l.12-.12h.12l.36.12h.24v.12l.25-.12.24.12.36.12v.12l-.12-.12h-.24l.36.12h.12V5.69h.24l.13-.12.12.12h0l.12.12V5.69h.12v.12h.36l.36.12V5.81h.13v.12H61V5.81h.12v.12h.24V5.81h.12v.12h0l.12.12.12.12.12-.12h-.12l-.12-.12h0l.12-.12.12.12H62l.12.12v0h.12v.12l.12.13.12.24h.24v.12l.12.12V6.9h0V7h.37v.12h.12V6.9h0l.12.12.12.12h0l-.12-.24h0l-.12-.12-.12.12h-.12V6.78l.12-.12h-.12L63,6.42h-.12V6.3h-.12l-.12.12V6.3h.12l.12-.25L63,5.93h0l.13.24h.12l-.12-.12V5.93h.12V5.81h0l.12-.12.12-.12h0l.12.12h.12l.12.12h.49v.12h.12v.12l.12-.12.12-.12.12.12h0l-.12.12h0l.12.37-.12.12h.12l.12.12H65v.12l-.12.12h0v.24h-.12l-.12.12h0l-.12.13h0v.12l.12-.12h0v.12l.12.12-.12.12v.12l.12-.12h.12l.12.12h0l.12.12L65,8.11h0l.12.24H65v.12h0V8.35h.12V8.6h.12l.13-.13h0l.12.13v.12h0l-.12-.12-.13.12.13.12h.12l.12.12h0l-.24.12-.13-.24h0l.13.24h-.73V9h-.12v.12h0V9.2h-.37L64,9h0l-.24-.12V8.72h-.12l-.12.12h-.12L63.32,9h0V8.84l-.12-.12.12.12L63.2,9l.12.12-.12.12-.12.24H63V9.32h-.12l-.36-.24h.12l-.12-.24h0l-.12-.12V8.6l-.12.12h.12V9h-.12l-.12-.24V9h.12V9.2h-.12v.12h0l.36.24.12.13h.24v.12h0V9.69h-.12l.12.12.12.12v.12l.13.12v.24l-.13.36.13.13v.24l-.13.24v.12h-.12v-.12h0l-.24.12h-.24l-.12-.12-.12-.12H62l-.13-.12h-.24v.12H61.5l.12.12h.12v-.12l.37.12h0L62,11.5h-.25v.12l-.12-.12h0v.12l.24.12-.12.12.12.13.13.12L61.86,12v-.25h.25l.12-.12.12-.12v.12h0l.12.24h.12l.12.13h.12l.12-.13h0l.25.25h-.12v.12l.24.12h0v-.12l.24.12.12.24h-.12l.12.12h-.12V13h.12v-.24l.12.12v-.12l.12.12.24.12.13.13.24.12h-.12l.12.24h.12l.12.24v.24h0V14h0l.12.12h-.48L64.29,14l-.13.12h0L64,14h0v.12H63.8l-.12.13h.12l-.12.12h-.12v.12h0l-.12.24h-.12v.36H63.2v.12h0l-.12.13h0v.12h0v.12H63v.12h0l-.12.12H63l-.12.12h-.12v.12H63l-.12.12h-.12v.12h.12v.25h0l-.12.12v.36l-.12.12v.24h0l.12.12h-.12l.24.25h-.36l-.12-.12v-.13h-.24v-.12l-.25-.12h-.12l-.24.12h-.12l-.12.12h-.12v.13L61,17.8h0v.12h0v.24l-.12.24h0L60.77,18l-.12-.12h0l-.12-.12v.12l-.12.24h-.12v.12h.12l-.12.24V18.4h-.24v.12h-.24v.12h0v.25h0l.12.12-.12.12h.12l.12.12v.12h-.12l.12.12h.12v.12l-.12-.12h-.12v.12l.12.12V20h0v.24h0v.24h0l.12.24h0v.12l.12.12.12.13h.12l.12-.13-.12-.12h-.12l.12-.12h.12l.12.12H61v.12l-.12.13H61l-.12.12.12.12H60.9v.12l.12.12v.36h.12v-.12h.24V22l.24.25.12.12-.12.12v.12h0l-.12-.12h-.24V22.4l.12-.12V22h-.12v.12h0l-.12.25h.12v.12l-.12.12.12.12h0v.61l.24.36h.12l.12.24h.12v.24l-.36.12v-.12l-.12.12h0l-.12.25v.12l-.12.12h.12l-.12.24.12.36h.12v.12l.12.13.12.12H61.5v-.12l-.12.12-.12.12v-.12L61,26v-.12L60.9,26h.24l-.12.12v.12h.12v.12H61l.12.12H61l.12.12v-.12l.12.12-.12.13v.12l.12.12v.12l-.12.12h0v.12l-.12.12v.12h0l-.12.25v-.13h-.25l-.12-.24v-.12l-.24-.48-.12-.12h.12v-.13h-.12l-.24-.12-.37-.6-.36-.49V25.3l-.12-.12-.24-.48-.24-.49-.25-.48v-.24l-.12-.25L58.11,23v-.48l.12-.12v-.12h.12l-.12-.13h.12v-.24l-.24-.24H58v-.12l.12-.12.12.12.12-.12v-.24h.25v-.12l.12-.37-.12-.12v-.36h.12V20.1L58.6,20l.12-.13h0l-.12-.12v-.12h.12v-.24H58.6l.12-.12h0l.12-.12v-.36h-.12v-.13l.12-.12V18.4h-.12v-.12h.12v-.12h0V18H59l.12-.12.12-.12h0l.12-.12h0v-.13H59.2v.13l-.12-.13v-.12l.12-.24h-.12v-.12H59v-.24h0v-.12l-.12-.12h0v-.12l-.12-.13h0v-.12l-.12-.12V16h0l.12-.12h.12l.12-.12h-.12l.24-.12-.12.12-.12-.12h-.12l-.25-.12v.12h-.24l-.12.12-.12.12h.12V16h.12v.12l-.12.12.12.12h0v.13h.12v.24h.25V17h-.13v-.12h-.12l-.12.12v.36h0v.12h0l-.12.12h.12l-.12.13V18H58v.24l-.12-.12V17.8h-.12V18h-.12v-.12l-.12-.12h-.13l.13-.12h-.13v-.13h.13l-.13-.12h0l.13-.12h-.13v-.12h0v-.12L57.26,17h0v.12h-.12v.12l-.12.12h0v-.12H56.9v-.12h-.24v.12h-.12v.12H56.3l-.13.12-.12-.12-.12.24h0v.13l-.12.12h0l.12.12V18l.12.12h-.12v.36l.12.25h-.12v.12l-.12.12v.36l-.12.12.12.12-.12.12.12.12h0V20h.36v0h.13v.12h0l.12.12h-.37v.12h.12l-.12.12h-.12v-.12h-.24v.12h0v.12h-.12v.12h-.12l-.12-.12h0v.12h0v.12h-.12l-.13.12h0L55,20.82h-.12V20.7H55l-.12-.12h.24l.13-.12v-.12h0l-.13.12H55v-.12h-.12l-.12-.12h-.24v.12h-.12v-.12h-.61l-.12.12h0v.12h.12l-.24.12v0l.12.12v-.12l.12.12h0l-.24.12-.12-.12h-.12v.12h-.12v.12H53v-.12h-.49l-.12.12h0l.12.13v.12H52.3v-.12h0v-.13l-.12.13h-.36l-.13.12h-.12l-.24.12h-.24v.12l-.12.12-.12.12h0l-.12.12.12.24v.25l-.12.12-.12.12.12.12v.24h0V23h0l-.12.12v.12h0v.13l-.13.12v.12l-.12.12V24l-.12.12h0v.49h-.12l.12.12-.12.12v.12l-.12.12v.12h0v.12l-.12.12-.12.12-.12.13v.24l-.12.12v.12h0l.12.12H50l.12-.12h.24v.24l.12.12v.25l.13.12h.12v-.12h.12v-.13l.12.13v-.13h.12v.13H51V27h-.12l.12.12.12-.12h.12l.12-.24h0V27h.12v-.37h0l-.12-.12v-.12l.12-.12v.12h0l.12.12h0l.12-.12h0l.13-.12.12.12h.12l.12.12v.12h.24v.13h.24v.12h.12V27h.13l.12.12-.12.12h0v.24H53l.12.12v.12h0V28h.24l-.12.12.12.12h0v.12h0v.24h0v.12h0v.73h0l.12.36h.24l-.12.12V30h0l.24.13-.12.24.12.12h0v.24H54l-.13.12h0v.24H54v.12l-.13.25-.12.12V32h0v.12l-.12.12v.25h0v.36l-.12.12v.12h.12v.12l-.12.24v.13h-.12v.12l-.12.12-.12.48h0l-.12.12h.12v.12h-.24v.37h-.13l.13.12-.13.12h-.12v.24h0l-.24.24v.12H52.3v.13h-.12l-.12.12-.12-.12V36l-.12-.12h-.25v-.25h-.24v.12h-.12V36h-.12v.12H51l-.12.24Zm-34.39.36h0l-.12-.12-.48.12ZM58.23,34.5h.12v-.12h-.12ZM3.27,5.08h0V5l-.12-.12V4.72h0L3,4.6l.12-.12h.12l.12-.12h.12v.12h.36l-.12-.12H3.63l-.24-.12-.24-.12L3,4.24l-.12.12-.13.12H2.66l-.12.12v.24L2.66,5l.12-.12L2.91,5h0v.12L3,5H3V4.84L3.15,5v.12Zm.85-1.45h0V3.39h.12v.12h0v.12ZM3.87,5.57H4V5.45H4V5.33h.12V5.08L4,5H4l.12-.12L4.24,5l.12-.12h0V4.72H4.24V4.6h.24l.12-.12h0l.12-.12H4.6V4.24H4.48V4.12H4.36l-.12.12h0V4.12h.12V3.75l-.12.12-.12.25h0V3.87h0L4,4v.12H4v.12l.12-.12v.12H4v.24H3.87l-.12.12v.12L3.63,4.6l-.12.12L3.39,4.6h0v.12H3.27v.12h.12l.12-.12V5h0l-.12.12.12.25v.12h0v.12l.12-.12h.12V5.33h0l.12.12Zm.61-.12h0V5.33l.12-.12V5.08H4.36v.13h0v.12Zm.12.24h.12l.12-.12H5V5.45H4.84V5.33l-.12-.12h0v.24H4.48l.12.12ZM5.93,2.18h0l.12-.12h.12V1.94h0V1.82H5.93l-.12.12h0l.12.12v.12Zm.12.12h0V2.18h0V2.3Zm0,.36h0V2.54h.12V2.42H5.81l-.12.12h0v.12h.36Zm.25,0h0V2.42h.12v.12h0v.12H6.3Zm-.37.49h0V3l.12-.12.12-.13H5.69v.13h.12V3h0l-.12.12H5.57v.12h.12l.12-.12Zm.24,0H5.93L6.05,3h0l.12-.12v.24Zm.25.24h0L6.3,3.27V3.15h.24v.24Zm-.12.24h0V3.51l-.25-.12H5.81l-.12-.12h.48l.13.24h.12V3.39h0v.24Zm.12.24h0V3.75L6.3,3.63H6.05l-.12-.12H5.69V3.39H5.45l-.12.12h0v.12h.36v.12h.12l.12.12H6.3V4Zm-.73.25H5.57V4H5.33V3.87h.6V4h0Zm-.24.48h0V4.36H5.33V4.6h.12Zm.12,0h0V4.48h0V4.36H5.45v.12Zm.12-.12h.12V4.36H5.69Zm0,.24h.12V4.6h0l-.12-.12V4.6h0v.12ZM5.57,5h0V4.84L5.45,5V4.84H5.33V5h0l-.12.12h.12l.12.13.12-.13Zm.12-.12h0V5h.12l-.12-.12Zm.73-1.09h0V3.63h.12V3.51h.12v.12h0v.12H6.42ZM5.81,4.84h.24V4.72H5.93Zm.12-.24h.12V4.48H5.93Zm.12-.12h0V4.6h.12l.13-.12H6.05Zm0-.36h0v.12H5.93V4.12h0V4l.12-.13L6.17,4H6.3v.12H6.05Zm.37,0h.24V4H6.54v.12Zm.24,1h0V4.72h0L6.54,4.6V4.48l-.12.12H6.17v.12l.13.12v.24h.12L6.54,5ZM6.9,5h0V4.84h0V4.72L7,4.6H7l.12-.12H7L6.9,4.36l-.12-.12H6.66v.12H6.54l.12.24v.12l.12.12L6.9,5Zm.36,0h0l.13.12v.13h.12L7.63,5V4.84H7.39Zm0,.25h0l.13.12V5.21Zm0-3.27h.13V1.82h.12v.12h.12l-.12.12H7.26Zm.13,1.45h0l.12-.12V3.15h0L7.39,3H7.14L7,3.15v.12H7l.24.12h.13Zm.24-.24h0v.24H7.51l-.25.12H7.14v.61l.12.24h.13l.12-.12h.12l.12-.12h.12V4l-.12-.13H7.63V3.63h.24V3.51h0V3.39l-.12-.12Zm.48.24h0L8,3.27V3.15l-.12.12-.12-.12V3h.12l-.12-.12V2.54h.12L8,2.42H8V2.3h.24v.36h.12l.12.12H8.6v.13H8.35L8.23,3h0v.24ZM50.85,6.17h0v0Zm-.37,0h0V6.05h-.12Zm-.36.13h0V6.17h0L50,6.05v.12Zm8.6,10.53h0v0Zm-.12-.24h0l.12.12h0v-.12ZM9.32,10.53h.12l.12-.12H9.32v.12Zm-.6,3.27h.12L9,13.68h.36l.12.12v-.12h0v-.12h0l.12.12v.12h.13l.12-.12h0l.12-.12V13.2h0l-.12-.12H9.69V13h.12l.12.13h.12L9.93,13l-.12-.12v-.24h0v.12h.12v.12h.12v-.12h0v-.12h0v-.24h0l-.12-.12v-.12l.12.12h.12v-.12h-.12V12h.24v-.13h.24v-.12h0v-.12h.12V11.5h-.12v-.12h.12l.25-.24h0V10.9l.24-.13v-.12l.12-.12h0l.24-.12.24-.24.12-.12V9.93H12l.24-.12h.12l.12-.25h.12V9.44h0l.12-.12-.12-.12V9.08h0V8.72h-.24l-.12-.12V8.47h0l-.12.13H12V8.47l-.13.13h-.12v.12h-.12v.12H11.5V9h0l-.12.12.12.12h-.12v.12h0l-.12.12-.12.12H10.9v.13l-.13.12h-.12V9.69h-.12v.24h0V9.81h-.48v.12H9.93l.12.12h0v.12h0l-.12.12v-.12h0v-.12h0l-.12.12h0v.12h0v.12H9.56v.12H9.44v.12l-.12.12h.12v.13H9.2v.24h.12v.12h0l-.12.12h0l-.12-.12L9,11.38H9v.24H8.72V11.5H8.6v.24l.12.12v-.12l.12.12h0L8.72,12h.12v0H9.2l-.12.12H8.84v.24h.24L9,12.47H8.72v.12h.12v.12H9l.12.12H9.2v0H9l-.12-.12h0l-.12.12h0V13h0v.13H8.6v.12H8.47l.13.12H8.47v.12l.13.12.12-.12h0l.12-.12L9,13.2l.12.12H9l-.12.12-.12.12h0v.12h0v.12Zm.48,2.67h0v-.13h0v-.12H9.08V16.1H8.84v.12H9l.12.12h0Zm1.82,0h0l-.12-.13-.13.13v-.13l-.12-.12h-.12l-.12-.12L10.29,16h-.12l-.12-.12-.12-.24-.12-.24V15l-.12-.12v-.36H9.56l.13-.12h0l-.13-.12-.12.12v-.12h.25v-.37H9.56v0h.13V13.8H9.2v-.12H9.08L9,13.8H8.72v.12H8.6V14l-.13.12v.13H8.6l-.13.12-.12.12v.12H8.6l-.13.12H8.6l.12-.12v.12H8.6v.12l.12.12H8.6v.12l.12.12H8.35l-.12.13v.24h0v.12l.24.12V16l.13.12h.12V16l.12-.12v-.24H9l-.12.12h0l.12.12V16h.12v-.24l.12.12H9.08V16l.12.12.12.12h.12V16.1h.12v.12H9.44l-.12.12h0l.12.13H9.32v.12h.24l.13.12v-.12l.12.12v-.12h.12v.24h.24v-.12l-.12-.12h0l.12.12h.12v.12h0v-.12h.12v.12h.24l-.12-.12h.24v.12l.13.12v-.12h0v-.12h-.13v0h.13v-.12l.12-.12ZM3.51,22.64H3.39l.12-.12H3.39v.12h0v.12h.12Zm2.54-1.57h0v-.13h0Zm2.06-2.18h0l.24-.12v-.25l.12-.12v-.12l-.36-.12H7.75v.61l.12.12H8L7.87,19H8Zm.85.24H9V19H9ZM10.41,19h0v.12l.12-.12v-.12h-.12V19Zm-.24,0h0l.12.12V19h-.12Zm1.21-.49h.24V18.4h0l-.24.12Zm-.48-.12h0v.12H11V18.4Zm-.25,0h0v.12h.12V18.4Zm-.24,0h0v.12h.12V18.4h-.12Zm10.66-3.15h0v.13h.12v-.13h-.12Zm-.13-.36h0v.24h0v.25h0l.13-.13L20.94,15v-.12Zm-.24-.12h.12v-.12Zm-9,2.91h0v0Zm.49.48h0V18h0Zm-.12-.24h0L12,17.8l-.13-.12v.12H12Zm.24-.49h0v-.24l-.12-.12L12.11,17H12l-.13-.12h-.12v-.12H11.5l-.12.12h.12l.12.12h-.24l.24.24h.12v.12h.12v0l.13-.12v.24h0l.12.12h.12v-.12Zm2.42-4.11h0V13.2H15l.12-.12h.12v-.25H15v-.24h-.12l-.12.12h-.12l-.12.12h0l.12.12v.25ZM15,17.43h0l.12.12v-.24H15v.12Zm1.82,2.42H17V20h.24v-.13h-.36Zm-.24-6.65h0v-.12h-.13V13h.13l-.13-.12h-.12v.25h0l.12.12h.13Zm-.25-.73h0l.12-.12.13.12v-.12h0v-.12h0l-.13.12h-.12Zm.49.12h0l.12.12h.12v-.12h-.24Zm1,.73h0v.12h-.12v.24h.12v-.12h.12v-.12H18l.12-.12V13.2H17.8Zm.36-1h0l-.12.12v.24l-.12.12H18l.12.12h.24v-.12l-.12-.12v-.12l-.12-.12Zm-.73-1.58h0v-.12h0l-.12-.12h0l-.12.12h.12v.12Zm.37-1.33h-.12v.25l.12-.13h0v.13l.12.12V9.56h0V9.44h0V9.32L17.8,9.2v.12h-.12l.12.12ZM17.55,9h0l-.12-.12h-.12V9h.24Zm0-.12h.37V8.72h-.24Zm1.22,2.42h0V11h-.13v.12h0Zm.24-.12h0l.12-.12h-.24v.12Zm.48,0Zm.73-.12h0v.12h0l.12-.12Zm-.49-.12h.12l.13-.13h-.25l.12.13Zm-.24-.49h-.12l-.12.12h0l.12.12v-.12h0Zm.24,0h0v-.12h-.12v.12h.12Zm0,0h.12v-.12h-.12v.12Zm-.24-.24h0v-.12h-.12ZM20,9.93h0V9.81h0V9.69h-.25v.12h0V9.69h-.12l.12.12h.12Zm-.37-4.24h0V5.57h-.12Zm-.6.85h.12l.12-.12-.12-.12H19v.24Zm2.18-.24h.12l.12-.13h0V6.3h.12l.12-.13V6.05h0V5.81l-.12.12h0l-.12.12h-.12v.12Zm1,.12h.13l.12-.12h-.25v.12Zm.25.24h0V6.54h0l-.12-.12h0v.12Zm-1,.24h0l.12-.12h0V6.66l-.12.12h-.12l.12.12Zm.6,0h0V6.78h0V6.66h-.12v.12h0Zm0,.49h.49V7.26h0V7.14H22.4v.12h-.12V7.14h-.13v.12H22v.13Zm-9-2.91h.36V4.36h-.36ZM12.83,2.3h0V2.18L13,2.06h.25l.12.12-.12.12h-.37ZM16,.73h0V.61L16.1.48h.12l.12.13h0V.73h-.12L16.1.85,16,.73Zm2.18,1.33h.12l.12-.12V1.82l.12-.13.25-.12.12-.12h0V1.33l-.12-.12-.25-.12V.85h0V.61h-.24L18,.48h-.12L17.8.24,17.55.12,17.43,0h-.12V.36l-.12.12V.61l-.12.12v.6h.12v.49l-.12.12.12.12V1.94h0l.24-.12h0v.12l.12.12h.37l.12.12Zm-.48.72h0v.13h.24L18,2.78h.12V2.66l.12-.12V2.3L18,2.18h-.12l-.24.12h-.37v.12h.12v.12h.12l.13.12h.24l.12.12h-.36Zm3.39.37h0l-.13.24h-.12l-.12.12-.12.12h-.12V3.51l-.12-.12-.12.12V3.39l-.12.12-.25-.12h-.12l-.12-.12-.12.12h-.24l-.12-.12H19V3l-.12-.12h-.12V3l-.13-.12h-.12V3h0l-.12-.12h0l.12-.13h0V2.54h0l.12-.12-.12-.12H18.4V2.06l.12-.12h.12V1.82h.13l.12-.13L19,1.57V1.45h.24l.12.12.24.25v.24h0v.12l-.12.12h.12V2.18l.12-.12V1.94h0V1.82l-.12-.13V1.57H20l.24.25h.12v.12l.12.12V2.3l.12.12.12.12v.12h-.24l.12.12h.24v.13l.12.12ZM39.23.36h0l.12-.24L39.47,0h0V.12h0V.24h-.12Zm1.08,1.7h0l.13.12.12.24v.12l.36.12h.24l.24.12h.49l.24-.12V2.54l.12-.12-.12-.24H42V2.06h-.48l-.25.12h-.12V2.06H40.8v.12h-.24l-.12-.12h-.13ZM36.56,3.75h0l-.12-.24-.12-.12V3.27h-.24V3.15H36L35.84,3l.12.12v.12l.24.12.12.24v.24h.24ZM38.5,4h-.12V3.87h-.12l.12-.12v.12h.12l.12.13h0l.12-.13.12-.12L39,3.51h.37v.12l.12-.12h0l.12-.12.12-.12h-.24l-.12.12-.12-.12H39.1L39,3.15h-.12l-.12-.24h-.12V2.66l-.12-.12V2.42h-.12V2.3h0V2.18h.12l-.12-.12H38l-.12-.12h-.24l.24.12h0l.12.12h-.12l-.12-.12h0l-.12.12V2.3l.12.12v.12l.12.12.12.12h-.24l-.12-.12V2.54h-.36V2.3h-.12l-.12-.12H36.8V2.06l-.12.12h-.12l.12.12-.12.12v.24h-.12v.12l.12.13h.12V3h-.12v.12h.12v.24h.24v.12h.13l.12.12h-.25v.12l.37.25h.24l.12.12h.12v.12l.12.12H38l.13-.12h.12l.12.12h.12V4Zm0-1.94h.36l.24.12h.49l.24.12h-.12v.36h.12v.12l.12.13h-.12V3l-.12.12v.12l-.12-.12h0l-.12.12h-.12l-.25-.12L39,3l-.24-.25V2.66h0V2.54l.12-.12h-.12V2.3h0l-.12-.12h0ZM21.91,4.6H22l.12-.12.13-.24h0V4.12h0L22.52,4l.12-.13V4h.12V3.87l.12-.12H23l.12-.12V3.51h.12V3.15L23.12,3V2.78h-.36V2.66h-.12l-.12-.12h-.24V2.42h-.13v.12L22,2.42V2.3h-.12l.12.12v.12h-.12v.12h0l-.12-.12V2.3l-.12-.12h-.24V2.3l.12.12h0v.12h-.12V2.42h-.12v.12h0v.12l.12.12h.12l-.12.13.12.24.12.12h-.12v.24l.12.12v.24h0v.25l.12.12v.12l.12.12V4.6Zm1.94-1.09h0L24,3.39h0V3.27h-.12v.12h-.12v.12Zm.12,0h0l.12-.12.12.12V3.39h.25v.12h-.13l-.24.12L24,3.51Zm1.09,1h0v.24h.12V4.48Zm9.2,3h0l.12-.12V7.26h-.24v.13h.12ZM33.05,8.84h.24V8.72h-.12l-.12-.12h0l-.12.12h.12v.12Zm-3.51-.61h.24V8.11h.12L29.78,8V7.75l-.12-.12h-.24l-.12.12h-.12v.12L29.3,8h0v.12h0Zm10.17-3h0V5.08h0L39.83,5V4.84l-.12-.12-.12-.12h-.12l-.12.12v.12l.12.12h0v.12l.12.13Zm.24.72h.12l.12-.12.12-.12H41.4V5.57h0l-.12-.12-.12-.12L41,5.08h-.36V5h-.37l-.12.12-.12.13v.6H40v.12Zm-2.3-.48h0v.12h.12l.12.12H38l.13.12h0l.12-.12L38,5.57h-.12l-.12-.12ZM40.8,8.6h0l.12.12h.24V8.6H41V8.47h0V8.6H40.8Zm11.14-.85h0V7.63h-.12Zm-.12.12h.12l-.12-.12h0Zm-.13,0h0l.13.12v.12L51.94,8l-.12-.12h-.13Zm-.24,0h.12V8l.12-.12h0V7.75h-.12Zm2.79-1.21h0l.12.12.12-.12h.12l-.12-.12V6.42h0V6.3l-.12-.13V6.3h-.12l-.12-.13H54V6.3h-.13v.24h.25Zm.6-.24H55V6.3h-.12v.12Zm.73,26.75h0v-.36l-.12-.12.12-.12v-.12h.12v.12h.24v.12l.12.12v.12h.12v-.36h-.12v-.12l-.12-.13h-.12l-.12-.12V32l-.12-.12h-.12l-.12-.12V31.6l-.12-.12V31l-.13-.12.13-.12-.13-.12v-.24h0v-.12h.37l.12.12.12.12h0l.12.12.12.12h0v-.12l-.12-.12-.12-.12-.12-.12v-.12h0L55.45,30l-.12-.12v-.24h-.12l-.13-.24L55,29.18v-.12l-.24-.25v-.12l-.12-.12h0v-.12h-.24v-.24h-.12v-.12L54.12,28v-.25h0v-.48H54l-.13-.12h0L53.75,27h.12l.13.12V27l-.13-.12-.12-.12h0l-.12-.13-.12-.12-.12-.12v-.24h-.12L53.15,26v-.12L53,26h.12v.12H53V26h-.12l.12.12.12.12.12.12v.12h0l.12-.12v.12h-.12v.12h.12v.13h-.24l-.12.12.12.12v.12l.12.12.12.12v.24h0v.25l.12.24v.12l.12.12h0l.24.24H54l.12.24v.49l.12.12h.12v.12h0l.12.24v.37l.12.12v.48h0v.12l.12.12.24.24v.61l.12.12v.12l.13.12v.61l.12.12.12.12ZM50.48,26h.25v.12l.12-.12h0v-.12h0v-.12h-.12v0h0v-.12h-.12l-.13.12h0l-.12.12h0Zm-.36,0h.12v0l.12-.12h-.12l.12-.12h-.12l-.12.12h0Zm.73.36h0l.12-.12h-.12Zm-.12-.12h0v.12l.12-.12h0l-.12-.12Zm0,.36h.12v-.12h0v-.12h-.12v.24Zm3.87-5.81h.12V20.7H54.6v.12Zm6-.6h0V20.1h0V20h0v-.13l.12-.12.13-.12h0v-.24l-.13-.12h-.12v.12h0l-.12.12h-.12v.12h.12v.24h0v.25h0Zm3.64,3.15h0v.12h.12l.12.12h.24l-.12-.12h-.12l-.12-.12Zm-1.09-.25h.12l.12.12h0l.12.13h0l.12.12h.12v.12h.12v-.24H63.8l-.12-.13h-.12L63.44,23h-.12l-.12.12Zm-2.43,5.09h0v-.12h-.12v.12Zm-.48-.12h0l-.12.12h.24l-.12-.12Zm.24.84h0v-.12h0l.12-.12h0v-.24h.12v-.12l-.24-.12h0v.36h-.12v.12h-.12l.12.12h0v.12h.12Zm-.12.61h0V29.3h0v.12l-.12.12Zm0,.24h.12l-.12-.12h0v.12Zm-.12.12Zm0,.25h.12V30h0V29.9l-.12.12Zm-.12.6Zm0,.36h0V31h0Zm-.12.25Zm-.12.36h.12V31.6h-.12v.12Zm-.85,1.21h.12l.12-.12v-.12h.12v-.24l.12-.13h-.12l-.12.13h0v.12H59.2v.24ZM58.23,34h0V33.9l.12-.12v-.12h0v-.12h.12l.13-.13.12-.12.12-.12h0v-.12l-.12.12H58.6l-.13.12v-.12h0l-.12.12h.12l-.12.12h-.12v.25h0l-.12.12h.12l-.12.12Zm-.48.6h0V34.5l.12-.24h0l.12-.12V34h-.24v.36l-.12.12h0ZM1,26.63H1v.13h.12Z"/></g></g></svg>