<svg xmlns="http://www.w3.org/2000/svg" viewBox="0 0 56.17 46.73"><defs><style>.cls-1{fill-rule:evenodd;}</style></defs><g id="Layer_2" data-name="Layer 2"><g id="Layer_1-2" data-name="Layer 1"><polygon class="cls-1" points="15.98 6.9 17.55 7.51 22.03 6.54 26.63 2.91 29.66 4.36 31.96 6.54 35.96 6.54 37.89 4.6 38.01 0.73 42.62 0 46.61 5.93 50.12 8.84 50.73 12.11 53.15 15.86 55.45 23.97 56.17 29.42 54.6 33.29 53.75 36.92 51.45 39.1 48.55 40.92 45.4 40.19 44.31 38.98 44.31 37.41 41.16 35.59 39.83 31.36 36.56 30.75 34.26 28.69 31.84 28.69 32.32 33.66 28.81 42.25 28.81 44.91 23.24 46.73 20.58 44.07 18.77 44.67 17.19 46.49 12.35 44.67 10.17 40.07 7.26 38.98 2.42 38.98 0 39.59 0.6 35.35 4.84 18.52 10.05 12.35 15.98 6.9"/></g></g></svg>