<svg xmlns="http://www.w3.org/2000/svg" viewBox="0 0 65.62 55.21"><defs><style>.cls-1{fill-rule:evenodd;}</style></defs><g id="Layer_2" data-name="Layer 2"><g id="Layer_1-2" data-name="Layer 1"><polygon class="cls-1" points="42.01 11.86 40.07 12.71 39.83 11.62 37.05 10.65 30.63 10.53 15.86 0.36 12.95 0 11.86 1.21 7.14 2.66 10.65 6.54 9.32 8.11 9.32 8.96 6.9 9.32 4.6 11.62 1.45 10.65 0.48 10.65 0.36 11.86 0.36 13.2 0 14.04 0.12 14.41 0.6 14.29 0.73 14.53 1.09 14.16 1.82 14.65 1.7 14.77 3.03 16.34 3.15 16.95 3.51 17.07 3.63 17.8 4.24 18.4 4.6 18.4 5.57 19.98 5.57 20.46 5.81 20.94 6.29 21.07 6.42 21.91 6.78 22.28 7.51 22.64 7.99 24.09 8.47 24.45 8.72 25.42 8.47 25.79 8.47 26.27 9.2 26.75 9.2 27.24 9.56 27.48 10.05 27 10.78 27.6 11.74 27.97 12.59 28.81 12.83 29.54 13.07 29.54 13.07 30.39 13.44 30.63 13.68 31.72 14.29 32.2 14.53 33.29 14.65 33.66 14.41 34.75 14.16 34.99 14.41 35.47 14.77 36.56 14.89 37.77 15.5 38.26 15.5 38.74 17.19 40.44 17.68 40.68 18.28 40.68 18.77 41.28 19.13 41.28 19.98 42.13 19.98 42.62 20.82 42.74 20.7 43.22 21.07 43.34 21.91 46.01 22.52 46.49 22.52 47.34 24.94 49.64 25.3 49.64 25.55 51.09 26.51 51.33 27.12 52.91 27.6 53.03 28.09 53.15 28.45 52.54 29.3 52.06 28.69 50.97 29.18 49.52 30.02 49.15 30.99 49.88 32.93 49.88 35.59 50.97 38.38 52.42 38.62 55.21 44.31 47.46 65.13 41.28 65.62 34.38 64.89 31.84 64.89 31.84 63.8 32.81 54.6 31.36 53.87 28.93 53.15 28.09 53.15 27 53.15 27 53.03 27 52.66 26.51 52.78 26.15 53.03 25.91 52.54 25.91 52.42 25.79 51.94 25.79 50.85 25.18 50.73 24.94 50.6 25.06 50 24.33 49.88 23.49 48.3 21.43 47.94 20.7 48.3 20.82 48.3 20.46 47.7 18.89 47.7 18.52 47.34 17.92 46.97 17.92 46.01 16.46 45.64 16.46 45.16 15.98 45.16 15.74 45.4 15.62 45.64 15.86 45.4 15.5 44.91 15.38 43.83 15.13 43.22 13.56 42.86 12.71 42.49 12.59 42.49 11.98 42.25 12.11 42.01 11.86"/></g></g></svg>