<svg xmlns="http://www.w3.org/2000/svg" viewBox="0 0 65.5 47.94"><defs><style>.cls-1{fill-rule:evenodd;}</style></defs><g id="Layer_2" data-name="Layer 2"><g id="Layer_1-2" data-name="Layer 1"><polygon class="cls-1" points="9.32 6.17 11.14 4.84 12.59 4.84 14.65 2.91 20.1 2.06 25.3 0 27.12 0 31.84 1.57 34.5 2.18 36.68 4.96 36.68 5.93 38.01 6.54 39.83 5.81 40.44 6.3 42.13 6.17 42.98 6.9 43.34 9.44 45.52 11.26 45.52 13.68 47.82 14.04 48.3 16.22 50.12 16.83 52.78 18.52 53.27 20.1 54.72 21.31 54.72 23.12 55.33 24.58 54.36 28.69 54.6 29.9 57.02 32.32 58.11 34.75 59.32 35.84 60.41 35.71 61.62 36.68 62.11 38.02 63.44 39.59 63.32 40.8 62.83 41.89 62.83 43.46 65.5 44.91 65.38 46.73 64.89 47.94 64.77 46.37 62.59 46.25 61.62 45.16 59.69 45.04 57.99 46.01 54.84 44.67 51.7 44.79 49.88 43.46 45.76 41.4 39.35 41.28 37.41 41.77 37.41 41.89 34.87 41.16 25.79 40.92 22.03 42.49 20.22 44.91 13.32 44.31 10.05 46.01 7.51 45.16 7.63 43.22 6.9 42.62 8.6 43.1 9.56 43.46 11.86 42.01 8.35 40.8 6.05 42.01 5.57 41.28 6.54 40.19 6.54 37.89 7.63 36.92 13.8 36.92 15.5 34.87 17.43 34.38 19.61 32.93 21.07 33.29 21.67 33.66 23.12 32.45 24.21 32.08 26.63 33.66 28.69 33.66 31.36 34.63 34.63 35.96 36.92 36.08 37.53 34.75 36.8 33.41 35.96 33.53 31.48 30.87 29.66 30.87 26.39 28.93 23.85 28.81 22.16 28.21 19.37 29.42 15.62 32.2 13.8 32.2 12.71 32.81 8.11 32.81 7.87 31.96 9.2 30.87 6.66 29.3 7.51 29.18 7.51 27.12 5.69 26.75 3.39 22.88 0 20.1 6.29 14.29 8.96 9.44 9.32 6.17"/></g></g></svg>