<svg xmlns="http://www.w3.org/2000/svg" viewBox="0 0 56.17 74.33"><defs><style>.cls-1{fill-rule:evenodd;}</style></defs><g id="Layer_2" data-name="Layer 2"><g id="Layer_1-2" data-name="Layer 1"><polygon class="cls-1" points="0 7.51 1.94 5.33 5.08 3.75 7.38 4 8.23 2.79 11.5 0 13.56 0.73 16.46 1.33 20.94 2.91 21.79 4.6 26.27 9.93 27.12 12.35 30.75 14.29 34.38 16.95 32.81 20.46 33.41 21.91 37.89 23.37 39.23 25.67 42.13 24.45 44.31 26.51 46.61 23.37 51.45 24.33 49.15 27 49.52 29.06 51.09 34.63 48.91 36.8 50.24 42.37 54.24 46.49 56.17 50.12 55.33 52.91 50.36 57.38 50.73 59.69 52.54 62.47 51.57 64.89 49.4 64.89 45.52 65.86 42.98 65.38 37.53 66.71 35.23 68.4 32.33 69.25 29.18 71.06 29.3 73.25 28.21 74.33 27.36 72.64 27.36 68.4 26.51 66.34 23.73 64.53 22.4 64.17 20.58 61.14 19.49 60.41 19.86 59.08 22.03 57.26 21.79 54.12 18.28 53.63 16.1 51.45 13.07 51.45 11.74 50 11.74 47.82 8.84 44.91 9.69 44.07 6.66 40.44 6.66 37.41 7.99 36.56 10.29 37.89 11.38 36.2 9.69 34.5 7.63 34.5 3.63 31.23 3.51 29.42 6.3 25.18 6.78 21.55 5.08 21.55 3.87 22.4 3.15 21.43 2.79 19.25 5.45 18.16 6.78 18.16 6.78 17.07 4.12 16.46 2.79 15.38 1.94 11.74 0.24 7.63 0 7.51"/></g></g></svg>