<svg xmlns="http://www.w3.org/2000/svg" viewBox="0 0 65.62 41.4"><defs><style>.cls-1{fill-rule:evenodd;}</style></defs><g id="Layer_2" data-name="Layer 2"><g id="Layer_1-2" data-name="Layer 1"><polygon class="cls-1" points="1.82 41.4 9.69 41.04 15.5 36.8 19.98 35.47 28.45 39.35 32.93 39.1 34.26 31.36 41.28 27.72 42.25 21.91 55.93 14.77 65.62 14.77 64.65 6.42 58.96 0 53.51 1.82 43.7 7.26 41.4 7.02 38.14 7.38 33.05 9.81 28.21 9.81 22.88 11.86 19.98 8.35 9.93 8.47 6.42 8.11 1.33 15.5 2.91 19.01 0 23.61 1.09 31.23 1.45 31.23 5.81 33.29 5.69 36.32 1.94 37.41 1.82 41.4"/></g></g></svg>