<svg xmlns="http://www.w3.org/2000/svg" viewBox="0 0 65.62 28.21"><defs><style>.cls-1{fill-rule:evenodd;}</style></defs><g id="Layer_2" data-name="Layer 2"><g id="Layer_1-2" data-name="Layer 1"><polygon class="cls-1" points="0.85 22.4 9.44 27.36 14.04 28.21 18.52 26.75 25.42 26.03 25.79 23.61 29.42 22.4 33.66 18.89 37.41 22.64 37.65 20.22 39.95 18.4 42.25 14.89 46.49 14.53 49.52 15.38 54.84 15.01 58.84 15.98 62.35 13.68 62.83 9.32 65.62 3.63 65.25 3.51 59.81 0.36 54.96 0.12 53.27 0.97 51.21 0 49.15 0.24 47.46 1.94 45.64 0.73 42.49 0.73 40.56 0.48 38.5 1.21 36.92 3.51 34.5 3.63 33.78 3.27 33.78 3.39 27.72 2.79 24.94 5.33 21.67 5.57 18.04 9.32 13.2 9.93 8.23 11.74 7.02 10.65 4 10.78 0.97 12.83 0.24 12.71 0 16.83 0.85 22.4"/></g></g></svg>