<svg xmlns="http://www.w3.org/2000/svg" viewBox="0 0 65.62 39.47"><defs><style>.cls-1{fill-rule:evenodd;}</style></defs><g id="Layer_2" data-name="Layer 2"><g id="Layer_1-2" data-name="Layer 1"><path class="cls-1" d="M63,32.93,64,32.2h1.09l.49.61-1.09,1-1.21-.37ZM24.82,37.65h1.45l1.09.73,1.33.6-1,.49L26.63,39l-1.09.12-.6-.6Zm9.2-9h0l1.45.24,1.46,1.34,2.42.48L40.19,32l-.12.85.49.48-1.7.12-2.18-.84-1.81-1.7-.12-1Zm-9.56-7.62h0l1.21,1.08h1.69l1.94,1,.85,1,.84.12.25.85-.49,1.33-1.33.12-1.21-1.33-1.45.24-1.82-.72-1.45-1.94.24-1.33Zm4.47-1.58h0l-1.45-.12.37.85,1.21.24Zm.73-4.6h0v.49l1,.6-.12.85.73,1.09.36,2.18,2.78,2.3,1.09.36.12,1.33,1.09.37.25-1.58-1.34-1.45-1-.49L34,19.85l-1.82-2.3.37-1.09-1.33-1.57ZM16,8.84h0l2.3.24,1.82,1.57,2.18,1,2.42,2.67-.49.6.49.85-1-.73-.73.85L22.76,15,22,14.29,20.7,13.2l-3.15-3.15A17.87,17.87,0,0,0,16,8.84ZM12,16.1h0l1.45.24-.12,1-.85.37L12,17ZM7.75,16h0l.6-.6.61.48-.24.36ZM8,14H8l.85.12,1,.13.24,1,1,.49h.72l.12-1.33-.48-.85L10.29,13l-.36-.84-.61-.37-.85.73ZM6.05,11.5h0L6.78,11,8,11.74l-.12.73-1.21.24-.61-.48V11.5ZM3.75,9.32h0l1.46,1.33-.37.61-.72.48v-.6l-.49-.73ZM3.75,0h0L2.18,1.57,3.51.85ZM3.51,1.94h0l-.6.72,1,1.7,2.3,1.57L7.51,7.26l1.57.37h1.33l-.24-.73L8.72,5.57l-1-.49-.24-.84-1-.61L4.36,3.27V2.18ZM.73,3.51h0L0,3.63l1,.73Z"/></g></g></svg>