<svg xmlns="http://www.w3.org/2000/svg" viewBox="0 0 56.17 74.46"><defs><style>.cls-1{fill-rule:evenodd;}</style></defs><g id="Layer_2" data-name="Layer 2"><g id="Layer_1-2" data-name="Layer 1"><polygon class="cls-1" points="5.21 44.43 5.33 44.31 5.81 43.58 7.63 42.74 9.2 42.49 10.65 41.65 11.74 41.04 12.11 39.95 13.56 39.23 14.53 39.1 15.5 38.5 18.89 38.38 22.28 38.5 39.47 21.43 32.33 21.55 16.22 16.59 14.89 15.5 12.83 15.01 12.11 13.32 12.35 11.74 10.9 11.02 9.93 8.11 9.56 5.93 10.05 5.21 11.38 2.78 11.62 3.51 11.99 3.51 15.38 7.26 15.74 7.99 16.22 8.23 17.68 9.44 19.01 9.81 20.58 9.56 21.07 8.96 22.52 8.11 23.37 8.11 25.18 6.54 25.79 6.54 26.03 6.9 27.6 6.78 28.09 6.66 29.18 7.14 30.75 7.02 34.14 4.84 35.23 4.72 36.2 5.21 37.05 4.84 38.62 4.96 40.07 4.24 41.77 4.12 42.37 4.36 42.86 4.36 45.52 3.87 46.61 3.03 48.18 2.91 48.67 3.27 48.79 2.78 50.48 2.66 51.45 1.7 51.7 1.82 52.06 0.97 51.94 0.85 52.66 0.24 53.15 0.24 53.03 0 53.63 0.48 55.09 0.97 55.69 0.97 55.93 1.09 55.45 1.94 55.09 2.78 54.96 3.63 54.72 4.24 54.96 4.72 55.69 4.72 55.69 5.08 55.09 5.57 54.6 6.66 55.09 7.38 55.33 8.23 54.84 9.08 55.69 9.08 55.57 8.72 55.93 8.84 56.17 9.44 55.81 9.69 55.69 9.44 55.09 9.44 54.6 9.56 53.75 11.02 54.24 11.74 53.99 12.95 53.63 13.56 53.75 15.01 51.82 17.68 50.48 20.34 49.76 21.31 49.27 21.31 48.06 22.64 48.06 23.25 48.55 23.97 47.82 24.58 44.79 30.51 44.67 32.32 42.62 35.11 42.49 35.96 38.86 41.04 38.5 42.25 36.8 43.95 33.9 47.46 27.84 52.78 25.18 55.09 23.37 55.33 21.79 56.42 19.86 57.99 16.1 61.86 15.25 62.11 12.23 65.5 11.74 65.74 11.26 66.59 10.17 66.95 8.96 68.04 8.47 69.25 4 74.21 3.87 74.45 0 70.94 0.12 49.27 5.21 44.43 5.21 44.43"/></g></g></svg>