<svg xmlns="http://www.w3.org/2000/svg" viewBox="0 0 55.69 88.74"><metadata><?xpacket begin="﻿" id="W5M0MpCehiHzreSzNTczkc9d"?>
<x:xmpmeta xmlns:x="adobe:ns:meta/" x:xmptk="Adobe XMP Core 9.1-c002 165.59ab891, 2024/09/18-09:57:10        ">
   <rdf:RDF xmlns:rdf="http://www.w3.org/1999/02/22-rdf-syntax-ns#">
      <rdf:Description rdf:about=""
            xmlns:xmp="http://ns.adobe.com/xap/1.0/"
            xmlns:xmpMM="http://ns.adobe.com/xap/1.0/mm/"
            xmlns:stEvt="http://ns.adobe.com/xap/1.0/sType/ResourceEvent#">
         <xmp:Label>Select</xmp:Label>
         <xmp:MetadataDate>2025-11-26T14:24:28-08:00</xmp:MetadataDate>
         <xmpMM:InstanceID>xmp.iid:c4425609-cc5a-40a0-a6c9-337f2f289d89</xmpMM:InstanceID>
         <xmpMM:DocumentID>xmp.did:c4425609-cc5a-40a0-a6c9-337f2f289d89</xmpMM:DocumentID>
         <xmpMM:OriginalDocumentID>xmp.did:c4425609-cc5a-40a0-a6c9-337f2f289d89</xmpMM:OriginalDocumentID>
         <xmpMM:History>
            <rdf:Seq>
               <rdf:li>
                  <rdf:Description>
                     <stEvt:action>saved</stEvt:action>
                     <stEvt:instanceID>xmp.iid:c4425609-cc5a-40a0-a6c9-337f2f289d89</stEvt:instanceID>
                     <stEvt:when>2025-11-26T14:24:28-08:00</stEvt:when>
                     <stEvt:softwareAgent>Adobe Bridge 2025</stEvt:softwareAgent>
                     <stEvt:changed>/metadata</stEvt:changed>
                  </rdf:Description>
               </rdf:li>
            </rdf:Seq>
         </xmpMM:History>
      </rdf:Description>
   </rdf:RDF>
</x:xmpmeta>
                                                                                                    
                                                                                                    
                                                                                                    
                                                                                                    
                                                                                                    
                                                                                                    
                                                                                                    
                                                                                                    
                                                                                                    
                                                                                                    
                                                                                                    
                                                                                                    
                                                                                                    
                                                                                                    
                                                                                                    
                                                                                                    
                                                                                                    
                                                                                                    
                                                                                                    
                                                                                                    
                           
<?xpacket end="w"?></metadata>
<defs><style>.cls-1{fill-rule:evenodd;}</style></defs><g id="Layer_2" data-name="Layer 2"><g id="Layer_1-2" data-name="Layer 1"><path class="cls-1" d="M33.78,63.32,35,62.59,36.2,63.8l-1.82.73Zm-17.32,9h0l-1.08-1.7.48-1h.85l.72-1.33.73,1.21.12,2.06h-.85Zm27.73-13h0l-1.7,1.45.12,1.34.73,1.69,1.21-.36.73-1.33-.12-2.18Zm8.23,15.86h0l-.36-1.33,1.09-1.57,1.93.12-.72,1.69-1,1Zm1.94-5h0l-.85.85-.6-1.7V67.31l.72-1.57L54.72,65l.49,1,.48,1.7Zm-34.75,18h0l-.84-1.82,1.45-1.69,5.2-1.58,2.3.37L28,85.11,26.39,88,22,88.74ZM0,15.25H0l.36.37L2.3,14.16l3.75.13-1.81.84,4.84,4.12,3.15,4.48,1.69.36-.85,1.33,1.7,2.43L15.86,30l-4.12-1.33-.84-1.21-.73,2.06-1.82-.48L5.81,32.57l5.45,2.54,1.33-.49,1.21,2.67.12,5.08,1.33,1,1-.85,2.06,4.12-3.87,2.66-.12,1.46L16,52.06v2.06L14.53,55v2.3l1.33,2.3-1.57.13,2.9,5.69,1.82.24.48,2.66,1,.85-.12,2.06,1.81-1.34.13-3,1.09,1.45,1.81-2.54L30.63,61l2.18-.49.36,1.33,1.7-2,1.33.24,1.09,2.42,2.42-1,.85,1.09,1.21-.85-1-1.69,3-1.82h2.78L49.88,54l-.73-1.34,1.7-1.33L50.12,42h-.73l-.84,1-.12-2.91-1.7-8.59-1.81-1.94-.13-5.45L37.53,15,31,8.23,26.51,0,21.67,3.15l-8.47.72L8.84,7.75,4.6,8.84.85,12.47Z"/></g></g></svg>