<svg xmlns="http://www.w3.org/2000/svg" viewBox="0 0 56.17 47.82"><defs><style>.cls-1{fill-rule:evenodd;}</style></defs><g id="Layer_2" data-name="Layer 2"><g id="Layer_1-2" data-name="Layer 1"><path class="cls-1" d="M0,23.73l.48-.36.73-.13v-.48L1,22.64,1.33,22l.85-.36.36.73h.73l-.36.72.48,1.09,1.21.25.73.36.6-.12.37.12.6.12.24-.24h.49l.24.48.6-.12.37.12v-.72l.36-.37L9.56,24l.37-.6,1-.49h1.45l.36-12.47,1.21.85.37,1,.84,1.93V15l-.48,1.21v.61l.85-.12,1,.24.61-.36.73.12.6-.37.73-.12.6-.48.25-.49,1.21-.48.6-.61.61-1.45.84-.72.85-.13L25.3,12l.37.48H26l1.33.73.48-.12.61.24.73-.12H30l.49-.12.36.36.36.12.85-.48-.24-.25.24-.6v-.49l.24-.36v-.85l.25-.6.72-.12.49-.37h.48l.24-.36L34.75,9l.12-.49.48-.36L35.71,8,36,7.75l.48-.12V7l-.12-.24V5.93l1-1.21.48-.24.37-.12L38.38,4l.6-.13.12-.36.37-.24.36-.36.73-.61.72-.12.25.12h.84l.49-.48.48-.13.24-.48L43.46.85l.37-.37h.6l.36-.24L46.37,0l.85.12.24.49h.48l.73.36.24.12L49.39,1l1-.12,1.21.24.61.48.24,1,.24.85.37.85V6.78l.24.6.24.85-.12,2.67L53.15,12v2.17l-.61-.24-.6-.48L51.09,13l-.61.25-.12.72-.84,1.58-.37.84.24.37.37.36.36.73,1.21.6,1.33.12.49-.24.24-.6-.12-.49.48-.24.49-.12,1.21.24h.72v.12l-.48.61h.24l-.36,1.33-.12,1.09-.61,1-.24,1.33-.48.6-.25.61-1,1.21h-.25l-.24.24-.73.36-.24.37-.84.6-.49.73-.6.85v.36l-.49.73h-.6l-.49,1-1.45,2.42L45.4,33.66l-.24,1-.61.25-.6.72h-.37l-.12.37-3.63,3.51-.48.12v.12l-.61.73-2.3,1.45-.6.6-.85.25V43l-1.21.36-.85.49H32.2l-.36-.25H30.75l-.85.25-.36.72.48.37v.24H28.81l-.72-.37-.61-.12-.48.49.24.48-.24.24-1.7-.36-.48-.36-1.58-.37-1,.13-.13.24-.48.24-.85-.48H19l-.61.24-.12.6-.36-.12-.49.12-.36.24-.12.37H16.1l-.6.24-1-.36h-.85l-.24.24-.85-.12-.73.85-.6.12-.24.48-.37-.12-.24.12L8.6,47l-.37.25v-.85L7.63,46l-.49.37-.36-.24L7,45.88l-.12-.72L6.05,45l-.6.48.12.73-.49-.37v-.72l.25-.61-.25-.85L5.57,43,5,41.89l-.6-.61-.49-.84v-1l.37-.37.36.37h.24l.49-.37L5.45,38,5.08,36.8l.13-.48-1-1.7-.12-.72-1-1.21-.37-2.06-.72-1.94v-1l-.73-2L.12,24.82,0,23.73Zm36.92,6.66h0l.49.48.36.49.85.24h.61l.24-.37.24-.24.24-.84.61-.13.48-.36.61-.12.36.12.6-.36.25-.61-.25-.24-.12-.36.61-.37.6-.48v-.85l-.6-1.33-.73-.6-.48.12-.49-.37-.24.12-.36-.24h-.49l-.12.24-.48.37-.24.24-1.33.24-.73.73-.36.85-.85.72-.49.37.25.6.48.48v.25l.48.48Z"/></g></g></svg>