<svg xmlns="http://www.w3.org/2000/svg" viewBox="0 0 65.5 49.39"><defs><style>.cls-1{fill-rule:evenodd;}</style></defs><g id="Layer_2" data-name="Layer 2"><g id="Layer_1-2" data-name="Layer 1"><path class="cls-1" d="M37.05,2.42l1,.49.13.24.6.12L39,4.48l-.12.85,1.58-.25,2.05.85,1,1.09,1.09-.48,1.21,1.21,1.46-.12.72.48.85-1L51.21,7l1,.49,1.45-.12,1.45.84L57.63,8l1.69,1.09.73.24v.49l-.85.6.36,1.7-.12,1.33-.6,1L56.9,15.62a7.92,7.92,0,0,1-1,1.09,17.69,17.69,0,0,1-1.69.72l-1.94-.12-1.33,1-1.21.61.48.48L50,20.58l-.73.49-.12-.13.24-.12-.6-.24-1.57,2.66-1.09.49-1.94,3.39-.61.72.85,1.58.24,1.09.85.36,1.21,1.82-1.09,1.09-1.81.48L44,35.47l-1.7,2.42L42,39.47l.48.36-.48.73-1.82.12-3.14,1.45v1.09l-1.34,2.06-1.09-.61-1-.84-.61,1-.73.73-1-.73h-.85l-.36.37L28.69,45l-2.18-.61-.84.49-1.94.24L22,46.85l-1.93.24-.73.61v.85l-1.57.84L16,49.15l-1.69-1.69L13.2,44.92l.24-.25-2.18-2.18-1.45-.12-1-.24V40.92l-.73-1.21,1.21-2.3,1.33-1.09.12-1-1.21-.12-.72-1.57L10.53,32l-.12-2.06L9.2,29.06,7.87,26.51l1.33-.36.85.24,1.45-1.93-1-1,1.09-1.09L11.86,19l-.24-1.33,1.94-1.94h.85l.24-1.09-1.09-1.57-.12-1.22L10.9,11.5l-1,1L7,11.86l-1.81,1L4.84,12,5,10.9l-1-.25L1.69,11v-.25L2.91,9.69l-.85-.25.6-.6-.48-.37.24-1.21-.85.85L1.21,8l.36-1.45L1.09,6.3V5.69l-.61.24L0,4.84.48,3.63l2.06-.72.61.36L4.84,3l.85-.61-.61-.48L5,1.21,6.9.12l.24.36L7.87,0,9.2.24l1.21,1.45,1-.84h1.09l1.21.48L15,.85l1.7-.49.36.49,1.33.72,3.75.61L24,2.54l2.54-1.09,1.94.24.36.85,1.82.37,1-1h1l2.78,1.57.49-.73.84-.12ZM62.71,25.67h0l1.7.12.84.48.25-.6-1.09-1.09L63,24.94Zm-3,3.51h0l.36-1.34,1.21-1.08-1.09-.13L59,26.51l-1,.61-.24,1,1.09.36Zm-6.54,3.51h0l.6-.85.61-.48-.49-.73L52.54,31l-.12,1Z"/></g></g></svg>