<svg xmlns="http://www.w3.org/2000/svg" viewBox="0 0 42.01 78.33"><defs><style>.cls-1{fill-rule:evenodd;}</style></defs><g id="Layer_2" data-name="Layer 2"><g id="Layer_1-2" data-name="Layer 1"><path class="cls-1" d="M0,38.14l.61-4.36L.36,30.51l2.18-1-.24.85-1.09.48.73,3ZM7.38,5.93h0l-5-3.15L2.3.48,8.47,0,9.56.73,8.11,4,7,4.36Zm4.36-4.36h0l2.67.73.72,2.91,4.36,2.66.85,1.82L18.4,8.23l-3.15.12L13.56,6.9,9.69,5.08l.24-1.33,2.18-.24L11,2.78ZM8.6,7.26h0L8.47,8.35,9.2,9.56l-.6.73-1.09.24L8,11.86l-.24,2.55L5.81,17.8,4.6,17.31,2.66,15.5.24,15.13v1l2.06,1,1.09,1.82-.73.84,1.58,3.64v5.2L3,30.39,1.82,39,2.3,41.4l-1.09,1L3,49.64,2.3,52.18l2.54,9.08,3,10.29,2.66,4.36L15,78.33l3.88-1,6.41-.73,6.06-1.93,6.17-6.42,2.66-5.45,1.34-3.39-.37-3.14L42,55.21l-.12-5.09-1.58-2.3.85-3-2.78-2.42L35.23,33.9,32.81,28l-3.39.48-.12-.73-2.91-.36,3.76-1.94-.49-1.69L28.09,23l-2.55-4.48-1.81.12L22.52,15l-1.09-1.45V11.38L16,9.44l-1.09,1.21-2.42-.84.24-1.46Z"/></g></g></svg>