<svg xmlns="http://www.w3.org/2000/svg" viewBox="0 0 59.32 68.04"><metadata><?xpacket begin="﻿" id="W5M0MpCehiHzreSzNTczkc9d"?>
<x:xmpmeta xmlns:x="adobe:ns:meta/" x:xmptk="Adobe XMP Core 9.1-c002 165.59ab891, 2024/09/18-09:57:10        ">
   <rdf:RDF xmlns:rdf="http://www.w3.org/1999/02/22-rdf-syntax-ns#">
      <rdf:Description rdf:about=""
            xmlns:xmp="http://ns.adobe.com/xap/1.0/"
            xmlns:xmpMM="http://ns.adobe.com/xap/1.0/mm/"
            xmlns:stEvt="http://ns.adobe.com/xap/1.0/sType/ResourceEvent#">
         <xmp:Label>Select</xmp:Label>
         <xmp:MetadataDate>2025-11-26T14:24:36-08:00</xmp:MetadataDate>
         <xmpMM:InstanceID>xmp.iid:16a354dc-80ef-41e9-8b42-e96dc4d267e0</xmpMM:InstanceID>
         <xmpMM:DocumentID>xmp.did:16a354dc-80ef-41e9-8b42-e96dc4d267e0</xmpMM:DocumentID>
         <xmpMM:OriginalDocumentID>xmp.did:16a354dc-80ef-41e9-8b42-e96dc4d267e0</xmpMM:OriginalDocumentID>
         <xmpMM:History>
            <rdf:Seq>
               <rdf:li>
                  <rdf:Description>
                     <stEvt:action>saved</stEvt:action>
                     <stEvt:instanceID>xmp.iid:16a354dc-80ef-41e9-8b42-e96dc4d267e0</stEvt:instanceID>
                     <stEvt:when>2025-11-26T14:24:36-08:00</stEvt:when>
                     <stEvt:softwareAgent>Adobe Bridge 2025</stEvt:softwareAgent>
                     <stEvt:changed>/metadata</stEvt:changed>
                  </rdf:Description>
               </rdf:li>
            </rdf:Seq>
         </xmpMM:History>
      </rdf:Description>
   </rdf:RDF>
</x:xmpmeta>
                                                                                                    
                                                                                                    
                                                                                                    
                                                                                                    
                                                                                                    
                                                                                                    
                                                                                                    
                                                                                                    
                                                                                                    
                                                                                                    
                                                                                                    
                                                                                                    
                                                                                                    
                                                                                                    
                                                                                                    
                                                                                                    
                                                                                                    
                                                                                                    
                                                                                                    
                                                                                                    
                           
<?xpacket end="w"?></metadata>
<defs><style>.cls-1{fill-rule:evenodd;}</style></defs><g id="Layer_2" data-name="Layer 2"><g id="Layer_1-2" data-name="Layer 1"><polygon class="cls-1" points="10.05 0.24 52.91 0 52.78 0.24 52.78 0.6 52.91 0.85 52.78 1.09 53.03 1.21 52.91 1.33 53.15 1.57 53.39 2.54 53.99 3.39 53.99 3.75 53.87 3.75 53.75 3.51 53.51 3.15 53.39 3.27 53.51 3.87 54.36 6.54 54.48 7.87 54.36 9.2 54.84 10.78 55.45 11.98 56.05 12.11 57.63 13.2 57.63 13.92 58.35 13.92 59.08 14.29 59.08 14.77 59.32 14.77 58.84 15.5 58.35 15.86 57.75 15.98 57.38 16.46 56.66 16.34 56.17 16.71 55.45 16.95 55.45 17.31 55.57 17.55 55.45 18.04 54.6 18.04 54.12 18.28 54.12 19.01 53.75 19.86 54.12 20.1 54.36 20.34 54.12 20.7 53.63 21.79 53.39 23.61 52.78 24.45 52.78 25.06 52.3 25.55 52.3 26.39 52.78 27.84 52.91 28.57 53.03 28.69 52.91 28.93 52.42 30.02 52.42 31.23 51.45 32.93 51.09 34.02 50.85 34.02 50.12 34.14 50 34.75 49.15 36.2 49.15 36.8 48.06 37.53 47.7 38.62 46.97 41.28 46.61 41.16 46.25 41.16 46.13 41.65 45.4 42.62 45.16 43.34 45.4 43.83 45.4 44.55 44.79 45.4 44.55 46.49 44.55 47.82 44.43 49.52 44.07 49.88 43.83 50.36 43.34 50.24 42.98 50 42.25 50.12 41.52 50 41.4 50.73 41.16 50.97 40.56 51.7 40.8 52.18 41.4 52.42 42.98 52.42 43.34 52.91 43.95 53.51 44.07 53.99 44.31 54.12 45.04 55.45 45.64 55.69 45.64 56.05 45.88 56.3 46.61 56.3 46.97 56.78 47.34 57.38 47.94 57.99 48.06 59.32 48.43 59.81 48.67 61.02 47.46 62.35 46.61 63.68 46.25 63.56 45.52 64.29 45.16 64.65 44.91 64.77 44.55 65.38 44.55 65.38 43.58 65.98 43.22 66.47 42.49 66.95 41.65 66.71 40.31 66.71 39.59 67.07 38.98 67.07 38.74 67.19 38.26 67.07 37.77 67.55 37.77 68.04 37.41 68.04 36.56 67.8 36.44 67.31 35.84 67.07 35.23 67.31 34.38 66.95 33.66 66.71 33.17 67.07 33.17 67.55 33.29 67.92 33.29 68.04 33.05 67.8 32.08 67.92 31.96 67.92 31.96 67.43 31.72 66.95 31.48 66.71 31.23 66.1 30.87 65.74 29.9 65.38 29.66 65.13 29.3 64.65 28.81 63.68 28.57 63.56 27.72 63.44 27.36 63.92 27.12 64.41 26.27 64.53 26.03 64.53 25.91 64.41 25.42 64.29 24.58 64.29 24.21 64.53 23.85 65.01 23.49 65.13 22.76 64.89 22.03 64.29 21.67 63.8 21.19 63.68 20.82 63.2 20.7 62.71 20.58 62.59 20.58 62.47 20.34 62.11 19.73 61.62 19.25 61.38 19.13 60.29 19.25 59.93 18.77 59.44 17.55 59.2 17.19 58.84 17.19 58.11 17.07 57.87 16.34 57.63 15.98 57.26 15.86 56.17 15.62 55.81 14.41 55.09 14.16 55.09 13.56 54.84 13.32 54.96 12.71 54.84 11.98 54.12 12.23 53.87 12.35 53.51 12.83 53.15 12.95 52.66 12.71 52.3 12.11 52.18 11.38 51.94 11.14 51.45 10.65 51.09 10.05 51.09 9.2 50.73 8.6 50.24 8.47 49.52 8.72 49.03 8.35 48.79 7.26 48.79 7.02 49.15 6.17 49.15 5.69 48.67 5.57 47.58 5.81 46.85 6.05 46.61 6.29 45.76 6.05 45.28 5.33 43.83 4.48 42.62 4.24 42.25 3.51 41.52 3.75 41.28 3.75 40.8 3.39 40.44 3.39 40.19 3.39 39.71 3.75 39.23 3.39 38.62 2.06 38.38 1.94 37.65 1.82 36.68 1.57 36.08 1.82 35.59 1.33 35.35 1.7 34.99 1.7 34.5 1.33 34.38 0.48 34.99 0 34.5 0 33.78 1.09 32.57 1.45 31.96 1.45 31.23 0.73 30.87 0.85 30.39 1.57 29.9 2.06 29.18 1.57 28.81 1.57 28.21 2.18 27.6 2.54 27.6 3.75 26.15 4.12 25.3 3.75 24.82 3.75 23.85 4.36 23.37 5.33 23.37 5.93 23.73 6.54 23.37 7.14 23.12 6.9 8.96 6.9 8.96 6.9 7.63 10.29 7.26 10.05 0.24"/></g></g></svg>