<svg xmlns="http://www.w3.org/2000/svg" viewBox="0 0 56.17 61.38"><defs><style>.cls-1{fill-rule:evenodd;}</style></defs><g id="Layer_2" data-name="Layer 2"><g id="Layer_1-2" data-name="Layer 1"><polygon class="cls-1" points="22.4 59.69 22.64 59.81 23.73 59.81 24.58 60.41 28.09 61.38 30.51 61.38 30.99 60.29 29.66 57.26 29.06 55.69 26.51 53.15 26.88 50.6 29.66 48.79 32.81 49.64 38.5 49.27 41.16 48.18 44.79 48.3 47.58 50.85 50.24 51.45 53.51 49.15 54.84 46.01 53.87 44.19 53.51 40.68 55.81 38.5 56.17 36.08 55.69 34.87 55.21 31.96 53.63 29.42 52.54 27.24 50 25.79 50 23.37 50.36 20.34 49.27 17.55 49.03 13.68 51.21 10.65 52.3 9.44 52.42 9.44 55.09 6.05 54.96 4.24 52.06 2.91 47.22 2.06 41.65 0 39.83 0.12 37.29 1.21 33.05 0.85 27.6 1.94 23 0.6 16.95 0.73 13.44 2.06 12.83 5.21 12.83 5.57 12.11 8.35 12.23 10.29 10.29 12.59 7.75 13.92 4.36 14.04 2.54 17.43 2.42 20.46 0 26.27 0.24 28.09 2.79 29.42 4.48 31.23 4.84 32.69 6.54 34.87 6.66 36.68 8.23 38.14 10.05 38.14 11.14 39.1 11.62 41.16 12.83 45.28 12.71 48.18 14.16 49.27 16.34 51.82 16.71 54.24 19.61 55.33 19.61 56.54 20.34 58.35 22.4 59.69"/></g></g></svg>