<svg xmlns="http://www.w3.org/2000/svg" viewBox="0 0 35.35 79.9"><defs><style>.cls-1{fill-rule:evenodd;}</style></defs><g id="Layer_2" data-name="Layer 2"><g id="Layer_1-2" data-name="Layer 1"><path class="cls-1" d="M.61,61.14l.36.24.48.73.37-.73L1.69,59.2l-.6-1,.36-.6.49-.24-.37-.73.12-.36,1.22-.13.24-.48V55l.48-1.09-.48-.72-.24-1.7-.73-1.21.12-.6L3.87,49V47.94l.37-.85L3,45.76l-1.09-.48V44l.24-1.33-.24-1.46-.37-1,.37-1.09-.25-1.81-.36-1.82.24-1.57.85-1.45L3.15,32l1,.24,1.21.12.6-.84-.12-1.33-.36-.61.12-.85,1.21-2.9v-1.7l.36-1.57.37-1v-1L7,20.1v-.73l1.09-.73,1.21-.24.61-.48v-.73l1-1.69,1-1.34.37-.84-.37-1.09-.48-.37V10.17l.48-.24.49-.61.12-.85L13,8.23,13.56,7l.73-.48L15,6.9l.37.36.48-.12.48-.48L16,5.93l.36-.36V5.21l.25-.37-.61-1,.36-.24,1,.12.85-.48,1.09.36.73.49h.84l.49.48.36-.12.24.12V3.75l-.36-.6.12-1.09.61-.24L22,1.09,21.55.73,21.43,0l.85.24.84-.12L23.37,0l.6.73.85.48L26,2.66l1,.61,1.33.12.6.36.49.12.73.73.24.73h.48l.61.84H32l.36.49-.24.73.24,1L32,9.2l.12.73h.85l.24.84-.36.49.12,1,.48.6L33.54,14l-.13.61.13.6v1.34l-.25.48.37,1.09.72.24L35,19.61l.36.49v.72h0l-.48.37-.73-.12-.36-.49-.85.61-.61-.37-.24.61-.6-.24-.25-.61-.6.73-.36-.85-.37.36-.12.61-.24.6-.48.12-.37-.36-.48-.12.48.85.49.24-.61.61-.6-.13-.61.37.73.24v.48h-.37l-.12-.24L27.24,24l-.24.24.24.49h.48l.37.36-.25.48-.48,1.22.24.48-.84.24.6.49.61.12.24.48-.49.12.37.61h.6l-.72.85h-.49l-.48.6L27.12,32l-.73,1.09h-.48l-.73.73-.36-.49-.12.61.36.6-1,.49-.24.72h-.48l-.13-.48h-.48L22.4,36v.84l-.49.37-.24-.49h-.36l-.12.85h-.37l-.24-.36-.48.48-.25.61.49.12v.36l-1,.85-.6-.12-.25.36.25.61-.49.84-1.09.12-.48-.12.72,1,.12.85-.12.36.12.73-.24,1.09.49.6v.61l-.49-.36-.12.24.24,1-.6.72.6.25v.36l-.36.24.36.73-.48.6.36.49.37.48.48.12v.73l.36-.24.37.6.6-.72.49.36.24.6,1.21,1-.24.49,1.09.6v.49l.72.72L22.52,57l-.85,1-.24.73-1,.24-.61-.36.13-.49-.85-.24-.36-.36v.36l-.49.12L18,57.63l-.61-.12-.24.48-.6.12-.25-.36-.48.72-.61-.24-.48.12v.37h1.09l.24.24.12-.36h.85l.48.36.73.12.49.61.6-.37.36.12.61-.24.85.24.36.37.12.6-.48.36H20.7l-.6,1h-.37l.12-.6-.24-.37-.36.37.12.48h-.48l-.49.61V63l-.6-.48V63l-.37.37-.12-.12H17l-.49.36.61.12.73.73-1.34.12,1.09.36v.36l-.36.85.73.73-.85.12-.73-.24.49.6-.37.61.73.48-.6.61.6.72-.6.61-.13.73.61.6-.24.48L16.71,74l-.61.61-.24,1.33-.85,1-.36-.49L14,76l-.72.48L12,76.27l-.25-.48-.24,1.09L10.41,77l-.48,1.21.48.36v.49l-.72.72-.85-.36L7,79.9h-.6l-.49-.36.49-.61-.37-1.69L5.33,77l-.12-.61-.49-.24.12-.36,1-.12.49-1-.25-.85-.72.36-.73-.6-.12-.73-.73-.24-.12-1.09L3,70.34,2.66,70l-.36-.85L1.69,69l-.36-.61L1.69,68l.13-.73-.25-.6.12-.49.73-.6-.24-.37-.61-.36.25-.36H1.45L1.33,65l.49.49-.73.36.12-.73L1,64.89l-.49-.24L.36,63.44l-.24-.36L0,61.5l.48-.24Zm20.7-2.06h0l.6.73.24.24V59.2l.73-.6V58H22ZM1,66.1H1l-.12.61.36-.12L1.45,66Zm23.49-2.18h0l.36.61.36-.49-.36-.24Zm.24,3.27h0l.24.36.36-.36L26,67l-.24-.24h-.73Zm-2.42,5.45h0l.84-.24.12-.37L23,71.79l.12-.36L24,70.7l.12-.36.49-.61v-.36L24,68.89l.36-.61v-.36l.37-.24-.49-.25-.36.25h-.73l-.48.6-.36.61-.37.48.12.85-.24.12.73,1h.24l-.12.48-.36.61Zm-5.21,2.18h0v1.09l.24.24.24-.61L18,74.46l.12-1.22L18.52,72l.12-1-.48-.49-.36.73.12.24-.24,1.09-.37.24Z"/></g></g></svg>