<svg xmlns="http://www.w3.org/2000/svg" viewBox="0 0 65.5 37.05"><defs><style>.cls-1{fill-rule:evenodd;}</style></defs><g id="Layer_2" data-name="Layer 2"><g id="Layer_1-2" data-name="Layer 1"><polygon class="cls-1" points="25.18 4.12 27.6 4.84 30.27 3.27 33.78 4.6 34.87 2.78 34.5 0.97 37.41 0 38.5 2.78 40.31 3.27 41.77 1.94 43.83 2.06 47.82 4.96 50.97 7.26 50.85 9.69 50 11.5 50.97 13.2 54.72 13.44 56.54 12.71 59.56 15.62 61.98 13.32 64.41 13.32 65.5 15.74 62.71 19.25 64.17 23.85 58.47 25.06 57.87 30.63 55.33 28.45 52.78 28.69 46.49 27 46.49 30.99 43.46 36.2 42.01 33.29 37.41 30.99 37.77 27.6 34.5 25.55 29.18 34.63 25.42 32.93 19.73 37.05 16.59 35.96 16.1 33.53 14.41 32.08 13.44 28.57 11.98 25.79 7.63 25.55 5.69 27.36 7.02 30.99 3.39 32.45 0.24 32.08 0 29.78 1.7 28.93 3.39 29.06 3.39 26.27 4 21.79 7.75 15.86 9.93 15.01 12.83 11.26 15.38 10.17 14.89 7.38 11.86 5.81 13.68 3.51 17.07 3.27 17.92 5.21 20.58 5.57 25.18 4.12"/></g></g></svg>