<svg xmlns="http://www.w3.org/2000/svg" viewBox="0 0 65.5 58.72"><defs><style>.cls-1{fill-rule:evenodd;}</style></defs><g id="Layer_2" data-name="Layer 2"><g id="Layer_1-2" data-name="Layer 1"><polygon class="cls-1" points="34.26 45.64 52.78 32.45 53.87 30.75 55.45 28.33 55.57 25.55 54.96 23.85 56.78 20.22 56.78 16.83 54.84 12.95 54.96 9.56 56.9 6.05 61.02 5.21 63.2 3.39 64.17 3.39 65.5 1.09 64.17 0 61.26 0.12 57.14 1.57 51.82 1.21 49.76 1.57 47.22 1.57 43.46 2.78 41.89 4.48 39.23 5.33 38.74 6.17 34.02 6.05 30.63 5.33 29.54 4.36 27.6 3.87 22.16 4.36 20.58 5.33 19.37 5.45 14.41 7.38 12.59 7.02 9.56 6.17 8.96 7.87 8.84 11.74 7.51 12.59 7.75 15.01 5.69 15.74 3.51 16.1 1.45 15.74 1.33 15.86 0 16.46 0.36 19.61 2.18 23.12 2.9 25.91 2.42 28.09 2.06 32.08 6.54 32.32 7.51 34.63 9.32 35.47 9.2 38.38 9.93 39.95 8.84 40.56 7.75 40.56 5.69 41.65 4.84 44.55 3.39 46.97 3.03 46.97 3.63 47.7 5.08 49.15 5.33 52.91 4.84 54.6 5.81 54.6 9.2 56.17 11.38 57.75 12.11 57.75 13.56 58.72 34.14 45.76 34.26 45.64"/></g></g></svg>