<svg xmlns="http://www.w3.org/2000/svg" viewBox="0 0 56.17 57.38"><defs><style>.cls-1{fill-rule:evenodd;}</style></defs><g id="Layer_2" data-name="Layer 2"><g id="Layer_1-2" data-name="Layer 1"><polygon class="cls-1" points="6.29 1.33 6.54 0.85 7.02 0.97 7.38 0.6 13.56 0.48 23.85 0 42.25 10.78 43.22 12.47 42.98 12.95 43.22 13.56 43.58 14.04 49.88 18.4 49.64 18.4 49.88 18.77 50 19.49 49.64 19.98 48.55 23.37 47.7 25.42 47.82 26.63 49.27 27.84 50.24 29.06 50.97 28.93 51.57 30.75 51.33 31.36 50.97 31.23 50.36 31.6 50 32.81 50.12 34.63 50.85 35.47 50.73 36.56 50 37.17 50.24 38.26 50.73 39.59 50.48 39.71 50.73 40.31 50.97 41.28 51.57 41.77 51.09 42.62 51.57 43.1 52.06 44.67 51.94 45.4 53.63 47.09 54.96 47.34 56.05 48.18 56.05 48.67 56.17 48.79 56.05 48.91 55.57 49.4 54.6 49.15 54.12 49.88 53.27 50.48 52.3 50.73 51.57 51.45 50.36 51.57 50 51.94 49.27 52.3 48.55 51.94 46.61 52.54 46.13 52.91 45.28 53.03 44.55 52.54 43.95 52.66 42.98 52.42 42.62 52.66 42.86 53.27 42.49 53.99 41.16 54.12 40.07 54.6 39.47 54.12 38.86 54.12 38.74 53.75 38.14 53.51 37.77 53.87 37.17 53.99 36.08 54.72 34.63 55.21 34.75 54.72 34.26 54.24 33.66 54.12 33.05 53.75 32.32 53.51 32.32 53.15 31.6 53.27 31.36 53.63 30.63 53.75 25.79 53.87 24.82 57.38 24.82 49.03 24.58 47.09 22.88 45.28 22.4 44.67 21.79 44.43 21.67 44.07 21.31 43.95 20.94 43.7 20.34 43.58 20.1 43.83 19.73 43.46 19.13 43.34 18.89 42.86 18.4 42.74 18.16 42.98 18.16 42.86 17.8 42.86 16.83 41.89 16.46 41.16 15.86 41.04 15.38 40.56 14.89 40.56 12.59 39.83 11.62 39.71 11.02 39.1 11.02 38.74 10.29 38.26 9.81 38.26 8.96 38.01 8.23 38.01 6.66 37.17 5.33 33.17 1.82 28.33 0.6 22.4 0 18.16 2.54 18.16 4.24 17.8 5.08 16.46 6.42 15.01 6.9 14.53 7.63 13.92 8.47 13.07 8.6 12.35 8.23 10.78 7.63 10.78 7.38 10.05 6.66 9.69 6.66 9.08 6.42 8.6 6.42 8.11 6.66 8.35 7.14 8.47 7.75 8.11 8.11 7.75 8.23 7.14 8.6 6.42 8.47 5.45 7.99 4 7.63 3.27 7.51 2.66 6.78 2.18 6.29 1.33"/></g></g></svg>