<svg xmlns="http://www.w3.org/2000/svg" viewBox="0 0 49.52 91.65"><defs><style>.cls-1{fill-rule:evenodd;}</style></defs><g id="Layer_2" data-name="Layer 2"><g id="Layer_1-2" data-name="Layer 1"><path class="cls-1" d="M13.92,0l.73,1.33L16.1,1,17.31,2.3l.24,1.94L16.71,5l.72,1.46,1,.36,1-.85h2.18V7l-.61,1.33.61,1.09v1l-.73.85.61,1.45v5l1.69-.85,1.34-.24.24-1.21,1.81-.85,1.94,1h1.21l1,1.21,2.42-.25,1.21-2.66,1.94-.36,2.66.72.85,1.58,2.54,1.81,1.33,1.09.61,1.21L44,20.94l-.37.73L44.19,23l-.12,1.58-.24,1,1.09.73,1.21,1.33,1.09.12,1,.37-.36.6,1.45,1,.25.85-.37,1.33.12.73-.48,1.09.48.84-.12,2.18-.72.85L47,38.14l-1-.73-1.57.12-1.33-.24H41.89l-1.7.48-.48-.48H38l-2.66.85H34.26l-1.33,1.69-.36,1.82-1,1.21-.12,2.3.6,2.3,1,.48.49,1.21-.13,2.06-.12,1-.48-.12-.12.85-.24.12-.13-.37-1.21-1h-.48v-.48l-.73-.48-1.45-1.46L27.6,49l-.72.49.12.24V50l-.61-.36-1.21-.25L24,49.64l-.73-.25H22.4l.24-.84.36-.37-.48-1,.12-1.58.24-.36-.24-.73-1.09-.24-.12-.12-.36.12-.49-.24-.85.36-.72.12-.37-.36-.36.36-.73.12-.36-.24v.24l-.24.85,1,.48L18,47l-.61,1.09.12,1.21-.24.73.49.36-.25,1.58L16.71,53l-.12,1.21-.85,1.21-.36,4.48L14,61.62v1.21L13.44,64l.6.12.25.25-.61.72.12.49L14,66.83v.85l1.21,1.57-.6,1.21.36.36.61-.12.12-.48.6-.61.37.12.84.25.49.48.12,1.21.48.61-.12,1.33.73.24.48,1.21h.73l-.12-.6.12-.49.36.85.61,1v1l.6.36.37,2.3-.12.36-.25.49-.24-.49-1,.61-.12.84,1.7.73.12-1,.36.24L23,82.32l.85.61,1.57,1.69.73.49.48-.36,1.21.12,1.09.48.73,1.7.61.84,1.09.61.12.6-.25.25v1.09l-.84.6-.85-.73-1,.13-1.33,1.21-1.57-.49.12-.72.6-.85.24-1.7-.84-.72H24.58l-.25-.73L22.76,86l-1.09-1-.85,1-.36,1.33L20,86.56l-2.43-1.81-.12-.49.49-.6v-.61l-.61-.12L17,82l-1.09-.12v-.73L14.53,79.3h-.85L13,77.24,12,77v-.85l-.73-.48.12-.61-1.09.48v1.22l-.73-.13L9,75.79l-.24-1.94L9,73.37l-.12-1.7.72-.36L9.44,69l.61.12.48-.85-.6-.12L10.77,67l-.36-.49.73-1.08h-.61l.24-1.94.37-.85.48-1,.12-1.45,1.33-1,1.34-3.63.72-.49V53.15l-.72-1.21.12-1.7L14,49.15l-.24-1.69-.73-.73.13-1.21L13,44.31l.49-1-.85-2.42L11,39.35,9.32,38,7.75,36.08v-1L6.9,33.05l1.21-.73.12-.84-.6-3,.48-.85,1.09-.48-.12-1.21L7.87,25.3l-.24-1.21L6.9,22.52l-.85-.37-1.45-3-1.45-1-.37-.85-.84-.85L1,14.77l-.85-.24-.12-1L1.45,13l1.09-.72-.36-1V9.56L3,8.72,2.66,6.66l1-1.21,2.18.85L7.14,5.21l1.33.12.37-.73V3.27l.72-.73L11,2.78l.48-.72-.6-.85V.61L12.23.12,13.92,0Zm3.15,85.59h0l.48,1,.49-.12-.24-.73-.37-.24ZM13.44,79.9h0l.24,1.21.12-.6V80ZM9.32,77h0l-.24.72.24.49v1.21l.73-1V77ZM30.51,52.06h0l.12,1,.73.72.6-.12ZM19,66.34h0l-1,.37.73.24Zm.36,1.21h0l-.85.61v.73l.85.72.24-1.21Z"/></g></g></svg>