<svg xmlns="http://www.w3.org/2000/svg" viewBox="0 0 65.5 19.61"><defs><style>.cls-1{fill-rule:evenodd;}</style></defs><g id="Layer_2" data-name="Layer 2"><g id="Layer_1-2" data-name="Layer 1"><polygon class="cls-1" points="2.3 19.61 4.48 17.55 17.07 17.55 20.7 13.44 24.58 12.47 29.06 9.44 31.96 10.17 33.05 11.02 36.2 8.6 38.26 7.75 43.1 10.9 47.58 11.02 52.78 12.83 59.56 15.62 64.17 15.86 65.5 13.2 63.92 10.53 62.11 10.9 53.15 5.21 49.27 5.21 42.86 1.33 37.53 1.09 34.14 0 28.45 2.42 20.82 8.11 17.19 8.11 15.01 9.32 5.57 9.2 6.54 12.23 11.86 14.89 16.59 13.68 13.44 16.71 7.75 16.83 3.63 11.5 0 15.13 2.3 18.04 2.3 19.61"/></g></g></svg>