<svg xmlns="http://www.w3.org/2000/svg" viewBox="0 0 32.32 86.68"><defs><style>.cls-1{fill-rule:evenodd;}</style></defs><g id="Layer_2" data-name="Layer 2"><g id="Layer_1-2" data-name="Layer 1"><polygon class="cls-1" points="17.8 4.12 1.21 0 0 0.24 1.33 4.48 2.66 5.93 3.15 8.35 6.54 11.5 7.99 13.44 11.38 15.98 10.41 20.34 10.53 26.15 12.23 27.36 13.56 27.84 13.8 33.29 12.59 35.71 12.35 38.01 13.8 39.23 14.29 42.25 12.95 44.31 14.16 46.61 13.8 52.06 14.89 54.48 15.38 63.92 13.68 67.19 13.44 69.25 12.59 73.61 13.68 77.36 15.01 81.6 16.71 82.32 18.4 84.02 20.22 86.68 21.55 86.44 30.14 81.11 31.72 81.36 32.32 78.33 30.14 74.58 30.02 70.22 28.93 66.22 29.42 46.97 29.54 44.19 31.23 42.13 31.23 38.26 30.02 35.84 30.14 31.36 28.81 24.58 25.55 16.1 23.85 15.25 21.79 12.95 17.92 11.26 16.95 6.17 17.8 4.12"/></g></g></svg>