<svg xmlns="http://www.w3.org/2000/svg" viewBox="0 0 39.47 78.21"><defs><style>.cls-1{fill-rule:evenodd;}</style></defs><g id="Layer_2" data-name="Layer 2"><g id="Layer_1-2" data-name="Layer 1"><path class="cls-1" d="M20.94,78.21h1.21l.61-.49,1.57-1,1.09-1.94.61-.73v-1l.48-.6-.24-2.42L25.3,67l.37-1.33.12-1.09,1.45-1.09,2.3.12,1.94-2.3V59.93l5.81-3.76,2.18-3.39-.73-.72L38,48.18l.37-.84-1.21-.25-3-1.81-.24-1.09-.12-1.45-1.46-.85-.6.48.12.73-.73.6-1.45-.6-.48-1.57-1.34.36-3.26-2.18L23,36.8l1-3,5.09-3.51,2.78-2.91.85-.85-.85-1.21,1.09-1.09-.36-1.45-.85-.48L31.84,19l-3-1.21-2.42-3.27.49-2.67,2.42-1.69.12-1.82,2.06-2.9V3.39l-1-.61L27,6.05,25.79,7.26l-1.09-.6L23.24,3.27l-1-.36.12-1.82L21.19,0l-2.3.48V1.7L17.8.24,15.13.85,11.5,2.66,8.84,5h0L8.6,6.3,9,7.51l-.36,3V13.8L6.78,18.4l.6,2.67,1.34,1.57.24.6L8.11,24l-.85,1.45L8.6,26.88,7.63,28,7,31.48l-1.21.84L5,33.54,3.39,34l-2.3,2.66L0,41.53.61,42l1.21,2.54-.37,1.21L2.66,47.7l1,.36,2.91,2.42.72,2.43,2.3,1,1,1.09,1.58.37,2.54,2.78Zm8.84-38h0l.37-.72H32l.73.84L31.48,41.4Z"/></g></g></svg>