<svg xmlns="http://www.w3.org/2000/svg" viewBox="0 0 65.5 26.27"><defs><style>.cls-1{fill-rule:evenodd;}</style></defs><g id="Layer_2" data-name="Layer 2"><g id="Layer_1-2" data-name="Layer 1"><path class="cls-1" d="M1,5.81l.72-.24.49-.85L2.06,4l.85-.61L3,2.54,2.3,2.3l.12-1L3,.73,3.51.61,4,.12H5l1,.85L6.42.48l.84.25V1.94l1.09,1L9.2,3l.73.84.72.37v.48l-.6.61L9.2,5.21,8.72,5H7.87l-.24.37L6.42,5.21l-.73.36-.36,1-1.94.85L1.94,8.72V8.23L2.3,7.14h.36l.73-.48-.73.12L2.3,6.66l-.48.12-.49-.36L1,5.81ZM52.78,1.45h0l-.12.24-.48.85-.85.61-1.21.6-.24.49-1.09.12-.36.36L47,4.36l-.48-.24H46L45.76,4l-.6.12-1.33.12-1.46.6L41.16,4.6l-.85-.48L40,4.36,38.5,3.75l-.61-.12-1.33-.85H36.2L36,3.27,35.35,3l-.6-.73-.25-.85L34,1h-.48l-.85.85-.24-.13-.37.25L30.87.73,30.75,0h-.24l-.85.36H28.57L28,.24l-.61.12H25.54L24.7.48l-1.58.73-.72.12-1.33.24-.37.49-.6.12-.61.6L19.13,3l-.36.84-.25.25v.36l-1.21.12-1.93-.73h-.61l-.36.25L13.56,4l-1,.24L12,4.12l-.85.24L11,4.84l.6,1.09h1l.85.12-.12.37H11.86l-1.33.36-.36.61.24.36L11,7.51l.24.48-.49.12H9.2l-.73-.36-.84.36-.37-.48H6.78l-.61.6h-.6l-.85-.6H3.87L2.3,8.84l-.24.6-.24.61.24.48v.73l-.24.24.24.49.85-.37.36.12.6-.12h.85l-.85.73L4,13l.36.61v.36l-.12.37.24.12.73-.49v.37l-.37.48-1,.61.37.12.48.12L4.24,16l-.37.61H3.51l-.36-1-.24-.12-.13.6.25.61-.37.36.12.48.61.37.12-.24.73.6.48-.12.85.48.24.73-.6.61.48.48v.36h.48l.85.85-.36.61-.49-.13-.12.37.37.24,1.09-.36H9.08L9,22.76l-.36.36-.73.37-1.21-.12-.24.48h.36l.61-.12h.84l.37-.24V24l.24.24.36-.48.49-.61h.48l.36.37H11l.6.48.37-.48h.48V24l-.36.12.36.49.12.48.73.61.24-.13.85.25.84-.12.37-.37h.72l.37-.24.6.24.49-.24-.12-.85.12-.36-.12-.73,1.45-.24,1.33.12,1.7,1h.6L24,25.42l.85.61,3.27-.36,1-.49h.36l.12.24.48-.36.13-.6,1.57-1.7.36-.12,1.46.48.84.49,1.09-.24.12-.37.73-.48.61.12v.48l-.49.85-.73.61.13.36.6.73-.12.48.61.12.84-.12.61-.24v-.73l.36-.36.12-1.33L39,23l1.09.24.61.13,1.69-.61.37-.12.48-.24L45,22.15l.72.25.37.24,1.09.24,1.69.12.12-.36.85-.24.6-.61,1.21-.36h1l.61-.12,1.81.12,1.34-.49,1.09-.12.24.25,1-.73h.84l.37-.24h1.45l1.21.24,1-.24.36.36v.61l.61.24.85-.12.12-.61-.37-.85-.72-1.45-1-.24.12-.49v-1l.36-1.09L63.68,15H63l-.12-1,.12-.72L62.71,12l-.48-.73V10.9h1l.36-1,.36-.37L63.56,9,63,8.35H61.14l-1-.6V6.3l.12-1.09-.36-.73-.61-.12V3.87l-.6-.6L58,3.15,56.54,1.82l-.61-.13-.48.49H55l-.84-.36-.37.48-.36-.12-.12-.73Zm-45,22.88h0L8,24.09h.24l.12.24L8,24.46ZM0,8.6H0l.48.24.73-.24.12-.37L1,8l-.36.24H.12Z"/></g></g></svg>