<svg xmlns="http://www.w3.org/2000/svg" viewBox="0 0 65.62 41.04"><defs><style>.cls-1{fill-rule:evenodd;}</style></defs><g id="Layer_2" data-name="Layer 2"><g id="Layer_1-2" data-name="Layer 1"><polygon class="cls-1" points="65.62 28.69 65.38 26.63 65.38 25.55 63.68 24.33 62.95 24.45 62.47 23.85 60.05 23.49 56.9 21.31 53.51 19.86 50.48 17.68 47.46 15.74 45.88 15.01 44.91 13.07 44.55 11.86 43.58 11.26 42.86 8.6 40.92 7.14 40.07 7.02 39.35 7.51 36.56 6.17 33.17 4.24 32.81 3.27 30.27 1.7 27.12 0.12 25.06 0 25.79 1.09 25.3 1.45 24.21 0.85 23.12 1.45 22.4 2.54 21.07 2.66 20.1 4.6 20.34 6.29 21.19 7.02 20.7 8.11 18.77 7.75 16.1 7.99 14.16 8.47 11.26 4.96 7.99 3.15 5.08 2.66 2.91 3.51 0 6.05 0.12 6.42 0.73 7.14 1.09 7.75 1.82 8.35 2.06 9.2 3.03 10.65 2.91 11.98 2.3 12.95 2.54 15.25 3.03 15.98 3.27 16.59 4.84 18.16 4.72 17.55 4.24 16.95 4.48 16.71 5.81 16.95 6.54 16.46 6.78 16.83 6.66 17.68 6.9 18.64 7.38 18.4 7.99 19.25 7.75 19.61 7.02 19.37 6.54 19.49 6.05 19.13 5.21 19.86 5.33 20.58 5.81 21.43 5.69 20.34 6.17 20.22 6.66 20.46 7.26 20.58 7.75 21.43 8.96 22.03 9.32 23 9.32 24.33 9.44 25.06 9.32 27.36 9.81 28.93 10.65 31.23 11.5 30.63 13.8 30.51 14.16 29.3 14.77 28.57 15.5 28.57 17.43 26.88 19.37 26.51 21.07 26.88 21.43 25.79 22.28 25.55 23.12 25.91 24.21 25.91 25.79 27.24 27.24 27.6 29.9 29.3 30.63 29.3 31.36 28.81 33.17 29.54 34.14 29.66 34.38 30.99 34.87 31.36 35.71 31.11 37.41 31.48 39.35 34.14 41.28 34.26 42.49 34.75 43.22 35.96 42.86 36.68 43.22 37.77 43.22 38.5 43.58 39.23 44.07 39.1 45.04 39.35 45.76 39.83 46.49 39.83 47.09 39.35 47.94 39.35 48.91 40.07 49.15 40.68 49.52 41.04 50 40.56 51.33 40.44 51.94 39.71 52.18 39.1 52.66 38.5 52.42 37.89 53.87 37.17 55.69 36.8 55.81 36.32 56.54 35.84 57.26 35.59 57.51 34.38 57.51 33.29 58.6 32.2 58.6 31.23 58.23 30.87 58.23 30.27 58.72 30.14 59.2 29.78 60.41 29.42 60.77 29.42 62.11 28.45 63.2 28.09 64.17 28.69 65.13 28.45 65.38 28.81 65.62 28.69"/></g></g></svg>