<svg xmlns="http://www.w3.org/2000/svg" viewBox="0 0 56.17 54.96"><defs><style>.cls-1{fill-rule:evenodd;}</style></defs><g id="Layer_2" data-name="Layer 2"><g id="Layer_1-2" data-name="Layer 1"><polygon class="cls-1" points="42.98 41.04 43.34 38.38 45.28 36.68 46.37 34.38 47.94 32.93 48.67 31.23 49.64 30.14 49.52 29.3 52.91 29.3 53.75 27 53.75 25.67 55.93 23.12 56.17 21.07 55.57 19.01 54.24 17.8 55.09 16.59 53.87 15.74 52.66 15.25 51.45 12.23 49.15 10.17 49.15 8.23 48.55 6.05 47.22 5.81 47.46 4.12 46.49 3.63 45.88 1.09 44.91 0 42.49 1.57 41.4 3.15 39.35 4.12 37.05 3.51 33.66 3.63 31.6 4.6 30.02 4.6 29.3 4.96 28.09 4.72 26.88 5.81 26.88 7.38 25.79 7.38 23.49 6.66 23.37 5.08 21.55 4.72 20.1 5.08 17.55 4.24 15.74 3.51 14.53 4.6 14.41 5.93 14.89 6.78 14.77 7.14 14.29 8.96 13.32 10.17 13.32 12.83 12.71 16.22 12.47 18.64 13.56 19.37 14.53 20.58 15.25 22.28 15.13 23.36 10.17 29.9 7.14 33.29 6.3 34.75 2.54 41.4 1.82 42.62 1.82 45.16 1.45 48.67 0.24 52.18 0.48 54.36 0 54.84 0.6 54.96 2.18 54.72 3.75 53.39 4.72 53.99 5.57 54.72 6.9 54.72 7.63 53.99 7.63 52.66 9.2 52.42 9.56 52.78 10.05 52.06 11.02 52.3 11.74 51.45 19.86 51.45 20.1 51.33 27.24 51.21 40.44 50.48 42.98 41.04"/></g></g></svg>