<svg xmlns="http://www.w3.org/2000/svg" viewBox="0 0 65.62 40.8"><defs><style>.cls-1{fill-rule:evenodd;}</style></defs><g id="Layer_2" data-name="Layer 2"><g id="Layer_1-2" data-name="Layer 1"><polygon class="cls-1" points="4.12 3.75 4.84 3.75 6.05 4.36 6.78 4 9.56 3.63 10.78 3.51 11.62 2.91 12.11 2.91 13.07 3.39 15.38 3.75 16.34 4.24 16.59 4.72 17.92 4.12 18.52 4.72 19.13 4.72 19.49 4.36 20.7 4.6 21.19 4.84 22.52 4.12 23.61 4.24 23.73 4.96 24.33 5.21 25.06 4.24 25.91 4.24 26.63 4.72 27.72 4.36 28.45 4.96 29.3 4.84 29.42 3.51 30.02 1.94 31.11 1.82 32.81 1.45 33.53 1.57 34.5 1.33 34.38 0.6 34.99 0 37.05 0.73 38.98 0.73 40.07 0.12 40.92 0.24 41.52 2.06 42.37 2.66 41.89 3.63 42.98 5.08 45.28 4.72 46.01 5.45 46.13 6.29 46.85 6.29 46.85 7.38 47.34 8.72 49.15 10.53 49.88 9.69 50.97 10.29 51.82 10.05 52.78 10.17 54.12 9.2 54.72 9.08 55.57 11.02 56.78 11.74 57.26 12.59 57.75 11.98 59.2 12.35 60.29 12.35 61.02 12.83 61.86 12.71 62.83 13.32 64.04 13.56 64.65 12.95 65.01 13.92 65.62 14.16 65.62 15.25 65.01 16.1 64.17 16.34 63.92 18.04 65.01 18.89 65.13 19.98 64.65 21.43 64.89 22.4 64.17 23 62.23 23.12 61.38 24.45 60.77 24.7 60.53 26.51 59.81 26.88 59.81 26.39 59.32 26.39 58.35 26.75 57.38 26.63 56.78 27.12 56.54 27.72 55.69 27.84 55.21 28.45 54.36 29.3 54.12 29.3 53.27 29.3 52.54 29.9 51.57 29.66 50.73 30.14 50.24 30.02 49.76 29.18 49.4 29.18 49.64 29.66 50 30.27 49.88 30.75 49.03 31.96 48.55 32.2 48.3 31.84 48.67 31.72 49.4 30.75 49.27 30.39 48.91 30.14 48.79 30.63 47.58 31.84 46.85 31.96 46.73 32.45 45.88 32.45 45.28 32.08 44.79 32.45 43.95 32.32 43.83 32.69 44.31 33.05 45.52 32.93 46.01 33.53 46.49 33.9 46.97 33.66 47.22 34.02 46.85 34.5 46.85 34.87 47.22 34.63 47.58 34.63 47.46 35.23 47.94 34.75 48.43 35.11 48.55 35.96 49.03 36.44 50 36.68 50.36 36.44 49.03 35.23 47.58 33.53 47.22 32.57 47.58 32.32 48.18 33.17 48.43 34.26 50.36 36.32 50.85 36.44 51.45 35.84 51.94 35.84 52.66 36.2 53.03 35.47 54.24 35.35 55.33 35.35 55.09 35.84 54.6 36.2 54.96 36.92 54.48 37.53 53.15 37.65 51.57 37.29 50.6 37.89 50 38.86 48.67 38.74 46.85 40.19 45.52 40.8 44.07 40.8 43.34 40.19 43.58 39.95 44.07 38.5 43.95 37.89 42.74 36.92 42.25 36.92 41.4 36.56 40.8 36.92 40.19 36.68 40.92 35.47 42.37 34.63 43.58 34.38 43.95 34.14 43.46 33.66 43.22 32.69 42.86 32.45 42.62 33.05 42.01 32.69 41.04 32.32 40.07 32.45 39.23 32.93 38.5 32.45 38.01 32.45 37.41 31.96 37.77 31.6 38.01 31.36 36.8 30.99 35.35 30.99 34.99 30.51 35.96 30.51 37.29 30.27 38.01 30.51 38.5 30.27 39.35 29.78 38.13 30.02 37.53 29.78 37.05 29.42 36.8 29.06 36.44 29.54 36.2 30.02 35.47 30.02 35.47 29.78 34.99 29.42 34.26 30.39 33.29 30.39 32.69 30.87 32.69 31.84 31.96 32.93 31.48 32.93 31.72 33.41 30.27 35.23 29.66 35.23 29.42 34.75 29.3 35.35 29.3 35.84 29.66 36.2 29.54 36.92 29.54 36.92 28.81 36.44 27.6 36.56 26.88 37.05 25.42 36.92 24.33 36.68 23.73 35.59 24.33 35.23 24.94 35.35 25.06 34.75 25.79 33.29 26.15 33.41 26.15 32.45 26.27 30.99 27 30.87 28.09 30.63 28.69 31.11 29.9 31.11 30.02 30.63 29.54 29.9 29.66 29.3 29.54 28.57 28.33 27.84 27.36 27 27.24 26.51 26.39 26.15 26.51 25.18 26.15 23.73 25.18 23.25 23.97 22.03 23.61 22.03 23.37 22.52 22.16 22.28 20.82 21.19 19.86 21.19 19.25 20.34 19.01 20.58 18.04 20.58 17.8 21.07 17.07 20.58 16.83 20.82 16.22 20.58 16.46 21.55 16.34 22.03 16.46 23 15.5 23.25 14.65 23.73 11.86 24.21 11.26 25.06 10.41 25.06 9.2 25.42 8.35 25.06 7.99 24.45 6.9 23.97 5.81 23.97 4.36 23.12 3.63 23.12 3.03 23.61 2.3 23.61 2.06 22.88 0.97 22.28 0 21.31 0.24 21.19 0.36 19.86 1.21 18.16 1.94 18.16 2.06 16.95 1.82 15.86 4.24 13.2 4.6 11.98 5.21 11.38 5.93 11.26 6.17 10.17 5.81 9.69 5.69 8.96 6.05 8.6 5.08 7.99 4.6 6.78 4.12 6.29 4.12 4.48 4.12 3.75"/></g></g></svg>