<svg xmlns="http://www.w3.org/2000/svg" viewBox="0 0 44.07 80.75"><defs><style>.cls-1{fill-rule:evenodd;}</style></defs><g id="Layer_2" data-name="Layer 2"><g id="Layer_1-2" data-name="Layer 1"><path class="cls-1" d="M8,52.06,6.9,51.33l-.73-.24-1-1.82-1.46-.72-.6.36-.37,1.45-.72.12L0,48.55l1.09-2.3,1-.12.36-1L3,44.79l.48-.48,1-.24.36-.37h.61l1-.6,1.45.12.85.36v1l1.57,2.18-.85.49,1.46.12.24,2.18-.49-1.7h-.6l.24.61-.24.84.72.12-.12.85-1.21-.12-.12.73-.72.6-.49-.12.12.73ZM29.42,7.26h0l.36-.84.37.24Zm1.81-6h0L31,.73,31.72,0Zm-2.05,2.3h0L29.3,2.3l-.73.24-.12.61.73.36Zm1.09-.6h0l-.49-.61.37-.61.12-.6.36.24V2.54Zm-.49,3h0l-.36-.85H28.21l-.49-.6.73-.24,1,.12.12-.49-.24-.36.36-.24.49.24.72.24-.36.49.12.48-.48.61.24.72Zm9.93,63.92h0l.6.37.49-.12-.24-.37h-.49ZM29.18,75.67h0l1.33-.73.6.36h.49l-.37.49v.36l-.72.12-.61-.48ZM12.71,38.5h0l-.12.73.61.48V39ZM8,37.77H8l.24-1,.12.49ZM5.08,34.62h0l.13-.72h.84Zm1.34-1.08h0l.84-1.09L7,33.29Zm2.05-2.06h0l.37-.37H8.35Zm-1-1.33h0l.36.84.36-.24L8,30.15Zm13.19-15h0l.37.37.12-.49Zm-1,.37h0l.73-.12.61.6-.37.48,1.09-.12v.73l-.6-.36-.85.12-.12-.73-.24.61-.25-.37Zm-.12,1.69h0l.61.85.12-.49-.24-.48Zm-14.53,6h0l.37-.36L5,22.4l.49-.73,1.09.48-.24-.72,2.3-1.7.12,1.34-.85.84-.24.73.24.24-.61.85-.84-.24-1,.12ZM5,24.7H5l.61.48,1.21-1-.85-.36-.36.24-.24.49Zm-.24,1.69h0l-.85.12-.72-.6.36-.24,1.33.12Zm-.48,1.09h0l-.61-.24v-.36l.85-.12ZM3.39,30h0l.24.61L2.91,31v-.48Zm.85-.36h0L4,28.81l.24-.48-.12-.61-.49-.12v.61l-.24.6.24.73Zm5,.61h0v-1L8,29.42l-.73-1.21.13-.37L7,27.6V28l-1-.73.49-.36.24.24v-.85L7.87,27l-.12-1.09.48-.24.49.84-.12,1.7,1.09.48.6-.12.36.36-.72.37-.24.85ZM7.63,35.71h0l1.93-.36v.24l1-.72-.36-.73L9.44,34l-.72-1-1,.73,1.33.6-.73.37.12.36Zm1.45,3.52h0l-.36-.85,1.69-1.7-.72,1.7ZM7.75,40.56h0L8.84,40l-.49-1.69-1.45.6L7,40.19l.85-.6Zm3.75-.25h0l.24,1.46,1,.48.37-1.09-.73-1.45Zm3.39,16.83h0l1.45.73,1.09-1-.84.12-.37-.85-1.09.13a7.65,7.65,0,0,0-.24.84Zm-1-5.45h0l.37-1.33L16,48.91l-.12,1,.12.48-1.21,1.21ZM12,80.75h0l.6-.48-.24-.49.48-.6.25.24.6-.49H14l.37-.84,1,.24.72-.24h.61l.36-.25.48.61H18l.73.61.72-.13-.12-.48.61-.36.24-.49L20,76.76l.6-.49.49-.12.12-.36L23,75.42h1l1.09.85.48-.24,1.09.12.73.24.24-.85,1.09-.48.85.24,1-.72.85.12h.36l.48-.49.12.49.73.36.73-.48,1.57-.12,1.09-.13,1,.25.48.12.85-.61.73-.12.72-.73h.61l.48.13-.12-.61,1.21-.85.73-.12v-.72l-.24-.61.24-.61L41.77,70l-.85.36h-.61l-.84-.24L39.1,70l.37-.25.24-.12.12-.12L39,69.25l-.72.24,1-.6h.6l.85-.37-.24-.6h-.73l.48-.49.49-.48.48.36.73-.48.24-.49h-.36L42,66l-.85-.12.37-.48.48.12.24.36.61-.85.48-.24.12-1.45L44.07,62l-.49-.61-.24-1.21-1.69-1.33-2.3-.12H37.77l-.12,1.21-.36.6-.73-.84-1-.25L37.05,58V57L36,55.21l-.49-.13-1-.6L34,53.75l-.48.12-.37.13-.6-.25H32.2l.61-.12.48.12.73-.24.48.24.37.37h.6l.49.12-1.46-1.7-.6-.85.48-.72.37-.12L34,50.48,33.78,50h-.37l-.72-1.45-1.21-.73-1.7-.36-.12-.61-.36-.24-.61-1.82-.6-1.09-.37-2.3-.48-.84h-.48L25.3,38.5l-.84-.24-.73-.49-1.09-.48-.36.36-.85.61-1.21-.37h-.61l-1-.24-.24-.6.61.36,1.09.12,1-.36.36-.73h1l.84-.73-.84-.36-.12-.48-.37-.37-1.21.73L20.46,35l1-.73h1.21l.6-.6.13-.49.48-.24.61-1.33.48-.61-.12-.48.48-.85-.12-.36.49-1.21.72-.61v-.85l-1.21-1.09-.24.25H22.88l-1.21-.25-.36.25H20.7L20,25.54h-.61l-.12.37-.73.24-.84.36h-.37l-.48.49-.24-.12.84-1,.73-1.21-.61.24-.72-.24.48-.24.12-.61,2.06-1.45.49-1,.72-.24.37-1-.37-.37.37-.6v-.36H20l-.37.36-.6-.12-1,.36-.85-.12-.85.36H16l-.48.49.12-.49-.37-.24-.84.73.24-.61-1.21-.48-.12.72L13,20.1l.13.6h-.25v.85l-.84.24.48.61-.36.72h-.49l1,.85.36.61-1-.49-.37.37L10.9,24v.36l.12.49-.25.36-.36-.85-.36.85.36.49-.24.36.6.73h.61l-.73.24-.72-.37.24,1.09-.12.37,1.33-.25-.85.49-.12.24.36.12.73-.24-.12.12.24.49-.6-.25-.25.12-.12.49.37.24-.49.12-.36.49.6.12.13.48-1-.36-.12.6.36.25-.24.36-.37.36h-1l-.37.49.37.12h.72l.49.12-.12.24H9.08l.85.73.24-.12.36.48,2.06-2.06-.24.61.24.12-.6.24-.49,1.21v.36l-.6,1.22.24.12-.49,1.45.12,1-.36.48.24.49.37-.12-.61,1-.12,1.46-.48.48v.36H10.9l-.13-.72.49-1.09L11.14,40l.6-.6-.36-1.82h.36L13,36l-1,1.45V38.5l.36.24v-.6l.6-.49.37,1,.48-1.21-.12-.85.48-.24-.24,1.09,1.09.85L14.16,38l-.36,1.34.24,1,.49.13.36,1-.85.85-.84,2.18.24,1-.73-.48V46l1,1.34-.24-1.21.6-.25,1.82,1.34V46.13l-.73-.61.49-.12,1.45,1,1-.12v-.49h1l.24-.84,2.54.12-1.69.48-1,2.79,1.21,2.3.6-.37v1.21l.85-1,1,.13-.24,1.21.24.12-1,.84L22,54.12l-.48,1.09.61.72.72.73h.61l-.37.36H22.4l-.61-.85-.48.25.36.84.61.25-.85-.12-.61-.61-1.69.48-.73-.12L16.83,58l-1,1.21-1.21.73-.49.72.73-.12.49.12.12-.36,1.69-.48-.24.84.6.61-.6.48.36.73.37.12-1.09,2.06-.73.36-.85.61h-.36l-1.09.6h-.73l-1.21.85,1,.12v.73l-.73.36,1.34.12-.37.37.49.24.72-.24.73-.49,1.33-.36.12.6,1.09.25-.85.24-.12.48H17.8v-.24l.72-.24.73.84.6.73h1.7l.36-.6.73-.37,1.09-.36.36-.61,1-.36-1.21,1.33-1.21,1.21-.12,1.33h-.85l-.6.25-.73-.49-2.18-.12-1.45.36v.73l-.61.61h-.85l-.12,1.81-1,.73-.24.48-1,.25-.24,1h-.36l-.24.49-1.21.85-.61-.13-.73.61v.73h.85v-.61l1.09.24Z"/></g></g></svg>