<svg xmlns="http://www.w3.org/2000/svg" viewBox="0 0 65.62 38.62"><defs><style>.cls-1{fill-rule:evenodd;}</style></defs><g id="Layer_2" data-name="Layer 2"><g id="Layer_1-2" data-name="Layer 1"><path class="cls-1" d="M5.69,0,35.84,2.91h.48l.24.24v.12l.12.12v.12h.24l.13.12h.24l.12.12H38l.37.25h.12l.12.24.36.12.25.12.12.12.24.12H40l.12-.12.12.12.12.12h.61L41,5l.24.12.25.13,4.6,2.18.24.36.72.48.73,3.63-.12,1.58-.12.24-.12.24-.12.24-.49.25-.24.24.24.36,4-1.09.48-.12.12-.6,2.18-.61,1-.73.24-.12.24-.12.49-.48.24-.12.36-.12.13-.25.48-.12,3.39.12.24-.24h.12v-.12H61l.12-.24.36-.36.12-.13L62,9.2,62.11,9V8.72l.24-.12V8.35l.24-.24L63,7.63l.13-.12.24-.25h0l.12.13.24.12h.48l.13-.12.48.48v.36l-.24,1.46-.12.24h.12l.12.12.12.12v.24h-.12l.12.12-.12.12.12.12h0l.36.25v.24l.12.24.13-.24.24.12-.24.24h-.13l-.12-.12-.24.12h-.24l-.24.12-.12.12-.13-.12-.24.25H63.8l-.12-.25h-.24l-.12.25h-.24L63,11.86l.13-.24-.37.37-.12.36-.12.12-.12-.12-.12.24h-.12v-.24l-.12.24-.13.12h-.24v-.24l-.12.24h-.12l-.12.37-.49.36-.12.36-.12.12v.24h-.12l-.12.25h.24v.12l-.48.36V15l.36.12.12.37v.24h.37L61,15.5l-.12-.25H61l.12.37-.12.24-.49.24h-.24v-.36l-.24.36-.24.24h-.12V16l-.25-.24v.48l.12.12-.24.13H57.75l-.37.24h-.24l-.36.12-.24.12-.24.12v.24l-.25.12.12.12.13.13v.12l-.13.24h0l-.12.24v.24l-.12.25h-.12l-.12.12-.12.36-.12.12-.12.12h0l-.12.12-.13.24v-.12l-.24.12.12-.24-.12-.12h-.12l-.24-.24-.12-.12.12-.24.36-.37-.24.12-.24.25-.12.12v.24l.12.12v.36l.12.12.24.37-.12.24-.12.48-.24.13-.24.48-.13.24V22l-.12-.12v-.12l-.24.49v.24l-.12-.24.12-.25.12-.24v-.12l.12-.24h0l.12-.12h-.24l-.12-.24h.12v-.13h-.12v-.12l-.12.12-.12-.24v-.24l.12-.24V20l-.12-.37.12-.24.12-.12h0V19l-.12.12-.12.24-.24.12h0v1.58h-.12l-.25-.37h-.24l-.12-.24h-.12v-.12l.12-.24-.24.24v.12l.24.12.12.24.24.12.25.25.12.12.12.24-.12.24h-.12l-.13-.24h-.12l.12.24.25.12.12.12-.12.13v.12h-.25l.25.24-.12.12-.13-.12-.12-.12h-.24l-.24-.12.24.12.12.12h.12l.12.24.25.12.12-.12.12.12.12.24-.12.25-.12-.13v.13l.12.12v.24l-.12.12H53V24h-.37l-.12.12h-.12l-.12-.24h-.12v.48h.24l.49-.12h0l.12.37.12.12v-.24l.12-.25h0l.12.25-.12.24h0l-.24.24-.12.12-.13.12-.12-.12h-.12l-.12-.24v.12l-.24.12-.12-.12h-.12l.12.12.24.12.12.12-.12.12h0l-.24.12h-.24l.12.13h.36l.12-.13h.12l.12.13-.24.24h-.24v-.12h-.12l-.12.12h-.25l-.6.36-.48.49-.25.36h-.12L50.12,27l-.36.12-.12.12-.49.61V28l-.24.12h-.12v.24l-.12.12h-.24l-.12.12h-.25l-.12.12-.36.12v.12l-.24-.12-.12.25H47v.24l-.12.24h-.12l-.12.12-.12.12-.24.24-.12.37v.36l-.13.73v.84l.13.37v.48l.12.24.12.49.12.24.12.24-.12.24V35l.12.12.12.73.12.12.12.36-.12.12v.85l-.24.36-.12.24-.12.25v.24l-.24.12-.25.12-.12-.12-.12-.12-.24-.12h.12L45.28,38v-.24l-.12-.12H45l-.12-.12v-.48l-.37-.25v-.12l.12-.12v-.12l.25-.24-.25.12-.12-.12v.12l-.12.12V36.2h-.12v-.12L44.19,36v-.25l-.12-.12.24-.36V35l-.12-.12-.12.12v.12l-.12.12v.12l-.12-.24v-.24l.24-.37.12-.6v-.24l-.12-.25-.24-.12v-.24H43.7l-.24-.12v-.24h0l-.12-.12-.12-.37-.36-.12L42.74,32l-.25.12-.12.12h-.12l-.36.37h-.61l.12-.12h0v-.13l-.12-.12L41,32h0l.12.12.12-.12L41,31.84l-.12-.12h0l-.12.12.12.12-.12-.12-.24-.12H40l.12-.12h.37v-.12h-.25l-.36.24V31.6l-.36.12-.12-.12h-.49l-.24.12-.24-.24v-.24h-.12l-.12.12v.24h-.61l-.73.12-.12.12L36.2,32l-.12.24v.12h.12l.12-.12h.12v.12l.24.13h-.12l-.36.12v.24l.12.12.36.12.24.24v.12H36.8l-.12.13v-.13l-.12-.12h-.12l-.12-.12-.12-.12L36,32.81h-.12v.48l-.13.12-.12-.12-.24-.12-.12.12-.12.12-.24-.12-.25-.12-.12.12-.12-.12.12-.12.12-.12-.12-.12h-.24v-.24l-.12-.12-.12.12H33.9v-.12l-.12-.13-.24.13v.12l.12.12h-1v-.12l-.61-.12h-.72l-.13.12h-.12l-.24.36h-.24v-.36l.12-.25-.12-.24v.12l-.24.25h-.12l-.12-.13.12.25v.24l.12.24-.12.12H30l-.36.37-.48.24h-.12l-.25.24h-.12l.24-.24-.24-.12-.12.12v-.12l-.24.12.12.12-.24.12-.12-.12v.36h-.37l-.24.24.24.12-.24.25h-.24l.12.48-.12.24-.12.25L27,36.2v.6l.12.25-.12.24-.12.36-.12-.12v-.12h-.25l-.24-.12-.36-.12-.24-.24-.13-.13-.12.13-.12-.13h0l-.12-.12v-.36l-.24-.61v-.12h0v-.48L24.82,35l-.12-.24-.12-.25-.12-.12-.13-.12h0l-.24-.48v-.12L24,33.54v-.37l-.12-.12-.12-.24-.12-.24-.24-.25-.13-.12-.12-.12h-.24L22.76,32h-.61v.12h-.36l-.12.12-.12.37-.12.12v.12h0l-.12.12-.24.12h0l-.13.12v-.12h-.12l-.24-.12-.24-.12h0l-.24-.12H20v-.12l-.13-.12h0l-.12-.13h-.24v-.24l-.24-.24-.12-.24h0l.12-.12h0v-.24l-.12-.13H19v-.36l-.12-.24-.25-.12h-.12l.12-.12v-.12L18.4,30h-.12V29.9l-.12-.24H18l-.12-.12-.12-.36-.25-.12H15.74l-.12.36-3.27-.12L8.47,27.6v-.12l-.12-.12H5.57v-.12L5.69,27l-.12-.37L5.21,26,5,25.67l-.12.12H4.72l-.12-.12v-.25l-.36-.12H4.12l-.37-.12v-.24l-.12-.12H3.39l-.24-.12L3,24.58H2.3l-.12-.12v-.25l.12-.12.12-.36-.12-.24-.24-.25h0l.12-.12L2.06,23l-.24-.24-.25-.48v-.37l-.24-.12v-.72h.12l.12-.13V20.7l-.12-.12-.24-.12v-.24H1.09v-.49l.12-.12v-.12l.12-.12h0l.12.24.24.12-.12-.12v-.12l-.12-.36v-.24h0l.12.12.25-.12H1.69v-.12H1.45v-.13l-.12.13-.12-.13v.49H1.09V19l-.36-.24v-.61l-.49-.73v-.24L.36,17v-.24l-.12-.12v-.12l.12-.25V15.5l-.12-.37L0,14.77v-.24l.12-.24L.48,14l.13-.24-.13-.12v-.12l.13-.12.12-.24v-1l.12-.12-.24-.25V11.5l.12-.36v-.49l.12-.24.24-.36.12-.24.12-.12.12-.37.24-.24.13-.24.12-.73.24-.48V7.14l.36-.72.12-.25.12-.36V5.45L3,5.21V5h.12l.12.12h.36l.12.13H4l.12.12.12.24V5.21l-.12-.13H3.87L3.63,5l-.24-.12H3V4.72l.12-.12h0l.12-.12V4.24L3.39,4H3.15V3.75h.12l.12-.24h0l-.12-.12-.12-.12L3.27,3l-.12-.37.12-.6-.12-.37V1.45l.24-.36V.85L3.51.73,4,1.21l.24.24h.6L5,1.57l.12.25.13-.13h.12l.12.13-.12.24H5.08l-.24.24v.12h.24V2.3l.25-.24h.12l.12.24-.24.12-.12.24v.25L5.08,3V2.91L5,3l-.12-.12-.12.24.12.12H5l.25-.12.12-.24.12-.13V2.54l.12-.12.12-.24.12-.12.24-.24-.12-.13V1.45H5.81l.12-.24h.12l-.24-.12V.85L6.05.73V.48L5.81.36ZM60.17,16.34h0v.13h.12l.12-.13h.12l-.12-.12h-.12l-.12.12Zm-3.51,1h0l-.12.12h.12l.12-.12H57l.24-.12h.37l.24-.12h.48L58.6,17l.12-.12L58.6,17l-.13-.12-.24.12.12-.12v-.12h0l-.24.12h-.36l-.37.12h-.24l-.36.12h-.24l-.12.12.12.12ZM5.69,1.09h0l-.24.24v.24l.24.37h0l-.12-.49.12-.24h.12Zm22,33.78h0v-.12L28,34.5l.24-.24L28,34.5Zm-.36.6h.12l.12-.36V35Zm0,1.58h0l-.12-.37v-.6l.12-.49-.24.49v.6l.24.37Z"/></g></g></svg>