<svg xmlns="http://www.w3.org/2000/svg" viewBox="0 0 65.62 52.3"><defs><style>.cls-1{fill-rule:evenodd;}</style></defs><g id="Layer_2" data-name="Layer 2"><g id="Layer_1-2" data-name="Layer 1"><polygon class="cls-1" points="0.12 26.75 0 31.48 3.27 35.47 6.29 46.13 46.61 52.3 51.21 47.94 62.83 11.74 65.62 11.38 65.25 7.99 64.89 6.05 63.56 6.54 62.83 5.93 62.83 5.45 61.62 5.45 61.26 0.6 59.56 0 59.44 2.06 58.72 3.39 50.12 8.47 50.12 12.23 42.25 19.01 41.04 20.94 42.13 21.43 42.86 23.12 39.35 26.75 38.14 25.06 36.92 25.91 35.23 25.91 35.35 28.09 34.5 28.33 33.9 29.54 29.9 30.27 27 30.51 25.67 29.06 23 29.18 21.91 28.57 19.86 29.06 15.25 27.97 9.56 32.33 7.38 31.72 5.33 31.48 3.15 32.45 2.3 26.15 1.21 27.48 0.12 26.75"/></g></g></svg>