<svg xmlns="http://www.w3.org/2000/svg" viewBox="0 0 56.17 63.68"><defs><style>.cls-1{fill-rule:evenodd;}</style></defs><g id="Layer_2" data-name="Layer 2"><g id="Layer_1-2" data-name="Layer 1"><polygon class="cls-1" points="5.93 1.09 7.63 1.09 8.84 1.7 14.41 0 16.71 1.57 19.25 5.08 21.43 6.05 22.76 9.08 25.42 13.32 26.75 13.32 28.81 11.02 30.02 11.14 32.57 15.38 35.59 16.71 38.14 17.31 40.68 19.86 40.92 22.88 43.1 22.4 47.34 24.21 49.88 27.48 52.66 31.48 55.09 33.29 54.6 36.32 52.54 39.23 53.51 42.62 53.99 43.34 54.24 43.95 55.57 45.64 56.17 46.13 55.21 46.97 53.51 49.03 53.51 52.06 51.33 54.12 50.24 55.81 50.73 56.17 50 57.38 47.34 60.41 43.22 61.98 42.25 61.14 41.77 61.5 41.4 62.83 40.31 63.68 38.74 63.44 37.05 62.83 35.96 63.08 34.5 62.23 32.32 61.5 29.18 62.11 26.88 63.56 24.58 63.44 24.58 62.23 24.94 61.5 24.33 60.9 22.64 60.77 20.94 60.53 18.4 58.6 15.5 58.48 10.65 58.96 8.96 58.48 5.93 55.45 4.84 55.21 1.57 50.73 0 46.73 0 41.89 0 41.65 0.36 40.92 2.06 39.47 2.79 37.77 1.82 34.26 1.21 29.3 2.06 28.09 0.97 24.7 2.3 22.28 2.06 20.34 2.79 18.64 3.27 13.68 2.54 11.86 3.51 10.17 2.79 6.66 4.72 4.12 5.81 1.7 5.93 1.09"/></g></g></svg>