<svg xmlns="http://www.w3.org/2000/svg" viewBox="0 0 65.62 40.8"><defs><style>.cls-1{fill-rule:evenodd;}</style></defs><g id="Layer_2" data-name="Layer 2"><g id="Layer_1-2" data-name="Layer 1"><polygon class="cls-1" points="51.82 40.68 52.18 38.14 53.03 36.2 53.39 35.71 53.27 34.63 52.42 34.26 51.94 33.05 52.3 32.2 52.18 31.36 50.97 31.36 50.36 31.72 49.27 30.27 49.27 28.93 50 28.33 51.82 28.57 52.54 28.33 52.66 27.48 54.24 26.88 53.99 26.27 53.63 25.91 55.45 25.55 56.78 24.94 56.9 24.09 55.57 23.49 55.69 22.52 56.66 22.16 57.75 21.31 58.6 21.43 59.81 20.1 60.77 21.07 61.02 21.55 63.08 21.31 64.41 21.31 65.62 20.1 65.38 19.25 63.44 17.68 62.83 17.55 62.71 18.77 62.11 19.49 61.38 19.25 60.53 18.52 58.72 18.04 57.99 17.55 58.6 16.46 59.93 14.53 59.81 13.68 59.2 13.56 58.35 14.65 57.63 14.89 56.05 16.83 55.57 17.92 55.09 18.52 54.24 19.98 52.54 21.55 52.18 21.19 50.36 20.34 48.91 20.1 47.82 20.34 45.88 21.31 45.16 21.31 43.34 16.59 40.56 16.22 40.44 10.41 38.98 10.9 37.89 8.47 35.84 6.9 29.18 6.9 23.12 7.51 19.73 5.45 17.19 4.6 10.78 0 0 2.06 3.27 21.43 5.21 21.19 6.9 21.55 7.26 20.58 6.66 19.86 6.29 18.4 7.14 16.71 8.47 16.59 9.08 15.5 10.05 15.01 11.02 15.5 11.5 15.25 10.78 14.29 12.59 14.41 15.38 15.74 17.8 17.19 18.04 18.16 21.07 19.73 23.49 20.94 24.09 20.58 24.94 20.7 26.63 21.91 27.36 24.33 28.21 24.94 28.45 26.03 29.42 27.72 30.87 28.33 33.53 30.02 36.2 31.96 39.23 33.41 42.01 35.23 44.19 35.59 44.67 36.08 45.28 35.96 46.85 37.05 46.73 38.14 46.97 39.95 48.18 39.59 49.03 40.07 49.52 40.8 50.12 40.8 50.73 40.19 51.45 40.19 51.82 40.68"/></g></g></svg>