<svg xmlns="http://www.w3.org/2000/svg" viewBox="0 0 32.08 82.45"><defs><style>.cls-1{fill-rule:evenodd;}</style></defs><g id="Layer_2" data-name="Layer 2"><g id="Layer_1-2" data-name="Layer 1"><path class="cls-1" d="M30.75,78l1.33,2.18-.36,2.3-1.21-2.3ZM28.93,65h0l1.7,2.18-.36,4.36L28.21,69l-.49-2.91Zm-9.8-17.07h0l3.27-1.45,1.81,2.18v2.42l-2.42,1.33-2.42-2.18ZM22.88,3.51h0l1.45,4.84-1.57,2.79.61-2.91ZM16.1,12.35h0l1.82.6,2.18-1.81.6-1.33L17.31,10.9s-1.09,1.33-1.21,1.45Zm6.42,2.42h0l1.09,1.09.12,2.91.24,2.3-1.21-.13-.73-3s.61-3.27.49-3.15ZM20,35.59h0l1.33-2.3L24.09,35l.24,1.33-3.26.12ZM17.8,27.48h0l3.51-2.54L22,26.88l1.34.6-.13,1.94H21.67l-1,1-1.57-.24-1.58-1.22ZM8,20.7h2.42l2.06,1.82v2.54l2.18,3.63L16,30.51l-2.3.72-3.63,1.94L9.56,31l.61-4L11,25.18,9.69,23.85l-1.46-.12-.48-1.57ZM1.33,0h0L0,5.93,1.09,9.32,1,12.47l1.45,3.75H4.48L5.81,14l1.94,1.09L9.56,13.8l-.12-3.27L8.23,8.72l.85-2.55-1.57-2L6.78,5.45,6.66,7.51l-1.82.72L3.51,7l-.24-5L1.33,0Z"/></g></g></svg>