<svg xmlns="http://www.w3.org/2000/svg" viewBox="0 0 65.62 60.41"><defs><style>.cls-1{fill-rule:evenodd;}</style></defs><g id="Layer_2" data-name="Layer 2"><g id="Layer_1-2" data-name="Layer 1"><path class="cls-1" d="M30.15,57.51l1.93,1.33L34,60.29l1.09.12h2.06L38.26,59,40,57.87l.85-1,2.54-1.33.49-1.21.72-1,2.3-.36,1.21-.61-.12-1-1.57-.36-1.58.24-2.18-.72.25-1.7-.49-1,1.33-2.06-.36-1-1-1-1.09-.37-.6-1.21,1.45.37,1.45.24,1.58.85,1.69-.13L49,43.46l.49.37,1.57-.61,1.57-1.33,1.46-.12.72.36,2.18-1,1.7-.12,2.54-1.81L61.74,38l-.12-1.09-1.93-1.45-1.22-1.81L58,32.45l1-1L59.2,30l.73-.84.72.36.73-.36.85.36,1.57-.73V27.72L63,27H61.62l-.36-1.09-.36-.73,1.33-1.57.72.12L64,22.88l1.46-1.69.12-.49-.24-.12-1.94-.85h-.61l-.72.25-1-.25h-.49l-.84.37-1.58.24L57,20.22h-.48l1-.24.6.12.73-.49.36-.84L60.29,18l.12-.49-.6-.48v-.36L59.56,16l-1.33-.73-1.69-.36-.49-.48-.6-.49H54.6l-.36-.48-1-.36h-.61l.12.84-.72-.84-.37-1-1-.49-.25-.6.49-.37,2.18.12.85-.6,1.33-.12.12-.85-1.21.24L52.06,9l-1.58.24H49.39l-2.17.73-.73-.37-.85.13L43.83,11l-1,.24-1.09.48-.49.61-1.45.12-.36.24-.73-.24L36.56,11l-.48-.85-.61-.12-2.42.24-4.6.73h-2.3l-.85-.49-.36-.72V9h.6l-.12-1L24.33,6.66l-.84-.24-2.3.12L20.1,5.93h-.85l-.61.24L17.8,4.84V3.51l-.37-1.57-.36-.25-1.45.61L14.29,3.87,14.65,5l.48.37L16,4.84l.85.12.85.85-.13.61-.84.24-1-.49-.49-.36L15,6.17v.37l-1.21.6-2.18.37-2.06,1-.72.85v.85l.6,1v1.94l.12,1.33.49,1.21-.73,1.45L7.63,18l-.85-.12V16.46l-1-1.08-.36-1,1-.85.12-.48,1.81-1.82V9.69L7.75,8.6l.12-.49-.12-.6L7,7l-.36-.85.24-.6L8,5,9.2,4.72l1-1.21H9.69l-.25.24-2.54,1L5.45,6.9,5,7.51l-.84.24L3.39,8.84l-.85.72L1,11.74l-.24,1,.36.85L.85,15.25.12,16.83,0,17.31H1.57l1.94,3.51.85,1.34.24,1-.48,1v.73l-.25.6v.73L5,27l1.46.6.84.12,1,.49.85-.36h1.21l1.21.36.36-.24,1.46-.25,1.57.25.85.36L19.49,32l1.33-.24.37.36.36-.24,1,.36.72.37.85-.49,1-.12,1.33.12.24-.24h.85l.85.36.24,1.94-.36.73v1l-.24.6-1.21.36-.61.61.36,1.82.12.6L26.27,41v1.58l.49.72V44l1.08,2.66-1.57,2.91.12.6.61.24.48-.36.12.24.24.73.49.36.48,1-.24.48.61,1.34,1,2.42.12,1ZM23.61,1.45h0l1-.12,1,1-.24.85-.6-.73-.61-.12Zm-3.27-.36h0l1,1,.84.12-.48.6-1.09-.36-.48-.85ZM15.74,0h0l.6.85h1L16.46,0Zm27.6,8.35h0l1.09-.72.49.6,1.45-1.09.36.61-.73,1-1-.25L44,8.72a2.71,2.71,0,0,0-.61-.37Z"/></g></g></svg>