<svg xmlns="http://www.w3.org/2000/svg" viewBox="0 0 43.58 84.62"><defs><style>.cls-1{fill-rule:evenodd;}</style></defs><g id="Layer_2" data-name="Layer 2"><g id="Layer_1-2" data-name="Layer 1"><path class="cls-1" d="M0,5.81l.36-.36H.85l.24-.61.6-.48L2.78,4h.73l-.12.84.48.37H4.6l.24-1,.73-.61,1.09,1,.6-.73L7.87,4l.24.72,1.09-.6.24-.73L10.77,3l1,.48L13.56,3l-.12-1.7,1.21-.6h1.21L16.59,0,17.8.85v.72l1.09.25.48.72,2.42-.12.36.61,1.46-.61,1,.73-.25,1-.72.12L23,6.17l.61.25L24,7.51,26,8.35l.36.73,1,.48,1.09.49,1.09-.36.48.36.61-.12,1,.48h-.12l.24.36-.36.61-.61.24h-.36l-1,.61-.85-.12-1,.24-.36.48.24.73-.48.36-.24.37-.49-.37-.73.24-.48.49-.36.12-.37-.48L24,14.16l-.12.73-.36.61.24.24-.12.85v.84l-.12.12.36.61-.36.48-.37.13L22.4,20l-.73.12-.24-.37v.37l-.49.36-.36,1-.36.36-.12,1h.48l.36.61-.48,1.69-.61.85,1.09,1-.12.6-.84.24.84.25,1.58,1,1.45,1.34h.48l.73,1.21v.6l-.24.24.36,1.22.24.72L27.48,36l1.21.6.12.36L31.6,38.5l2.54,1.81.61,1.09,2.3,1.7.84,1.33.12.85h.37l-.12.72,1.21,1.22v.6l.36.49-.24.36.85,1.21.24,1.81.36.37.49,1.69.36.37v1l-.24.61.36.85-.24.36.36,1.33.12.49.49.24.24.73.6,1.21-.12.84h-.24v-.48l-.36-.36-.49.24.12.85.49.48-.12.48-.49.37-.12.6-.85.73.73,1.09-.36,1,.36.36-.73.73-.6.12-.12,1.33-.49.24L39,70.7l-.84.37-1,.72-.12,1h-1l-.61.73-2.3,1.33-1.45.12-.61-.36-1,.24L30,74.7l.13-.73-.13-.6-.24.6-.12.24L28.81,74l.61.49-.12.36-.24.24-.85-.12,1.45.6L29.3,76l.48.85-.85.48-1.08-.85,1,1-.12.49-.48.6-.49-.12-.36-.61-.6.13.24.72v.24l.24.37-.48.24-.25.36L26,80l-1.09.85-.36.36-.73-.12-.24.61-.12,1.09-.73.6h-.24l.12.25-2.42,1L19,84.5l.84-.48,1-.48.49-.61-.61.24L20,82.81l.12-1.58.12-.24H20l.12-.72v-1.7l.72-1.21,1.46-1.21.48-.48-.73.24-1.09-.12L20.1,76l-.49-.24-.48.12L18,75.67l.24-.25-.12-.84-.24-.25,1-1.21,1.21-.24.6-1.45h1.09l.49.36,2.54-.6,1,.6.24.73,1.69-.12-.48-1.09.24-.73-1-1-1.21-.36-.24-1.94,1.09-.72,1.94.12.48-1.09,1.58-1,1.45-.36.24-.73.85-.36.72-1.58-.24-1.21.37-1.33L33.17,58l.24-1.57-.84-2.18-1-.49L31,52.06h.12l1-.61L32,49.88l-.36-.61-.24-1.45,1.45-1.21V45.4L32,45.28l-.36-.61.12-1.45.85-.73-.37-.72-1.09.36L30.63,42,30,41.16,28.81,41l-.48-.48.24-1-.85-.24-.48.12-.61-.73-.12-1-.6-1H24.58L24,36.56l-.48-1.33-1.7-1.82.12-.72-1.09-1.58-1.45-.72L18,28.57,17,28.45l-1.57-.85-1.7-.12L13,26.15h-.84l-.25-.61.85-.84L11.5,23.37l-.12-.85h.85l1.45-.61,1.09-.12.48-.6L16,19.13l.73-.24v-.73l-1.58-.36.12-1L15,15.74l-1.33-.24-.85-1H11.38l-1.21.72L9,14.89H6.78L5.57,13.08l-1.82-1.7.49-.85L4,9.32,3,8.6,2.18,7.26.36,6.42ZM14.65,74.7h0l.6.72L15,76l.37.85.6-.25.24-1.57-.36-.24-.24-.73Z"/></g></g></svg>