<svg xmlns="http://www.w3.org/2000/svg" viewBox="0 0 65.62 40.31"><defs><style>.cls-1{fill-rule:evenodd;}</style></defs><g id="Layer_2" data-name="Layer 2"><g id="Layer_1-2" data-name="Layer 1"><path class="cls-1" d="M.73,15.38h1l.85.36.61-1.09L4.6,13.8,3.63,12l.61-2.67,1.45-.6,1.69,1.33,3.39.12,4.61,1.94,4.84,2.3.24,4.84,9.69-13.2L50.61,0l-.37,2.66,4.84,6.18-.6,2.3,3,3.75-1.21.24-2.06.49L52.42,17.8l-.12,1.33.36.48-.12.37.24.6-2.3.49-1.09,1-2.17,1.09L44,23.73l-.61.6L37.41,26H36.8l-1,.48-1.09,1.82-1.58,1.21h-.72l-.37-.24-.48.48-.73.12-.72-.48H29.3l-1.94,1.45-.12.61-.61.6-2.05.24-2.55,1-1.09-.24-.36-.36H19.13l-.24-.24L18,32.32l-.73.25L16,33.41l-.6,1.46h-.49L13.8,36.32l-1,.48-.6-.6H11.14l-1.09,1-.85.12L7.63,36.8l-.25.37-1.08.24-.49-1-.12-1.33L4.48,33.9l-.61-1.45.61-.37-.12-1.57L3,29.3l-.73-5L1,22.64v-.85H.36L0,21.07l.85.24V20.7h.72V19l-.48-2.67ZM52.42,40.07h0l1.09-.36,1.45.36-1.09.24Zm6.66-1.69h0l.73-.37v-.84l.72-.49h.61l.36.61.61.12.72-.24,1.09-.24.73.48.85.12.12.36-.37.49-.84.12-1.21.73-1.58.24-1.21-.24-.6-.49Z"/></g></g></svg>