<svg xmlns="http://www.w3.org/2000/svg" viewBox="0 0 65.5 55.69"><defs><style>.cls-1{fill-rule:evenodd;}</style></defs><g id="Layer_2" data-name="Layer 2"><g id="Layer_1-2" data-name="Layer 1"><polygon class="cls-1" points="11.98 16.1 12.35 16.46 13.07 16.46 13.92 16.83 14.16 17.19 14.29 18.16 14.41 18.52 14.77 18.64 15.38 18.04 16.1 17.68 16.95 17.68 17.31 17.31 18.77 16.95 19.13 16.95 19.13 18.16 19.49 18.64 19.61 19.37 19.49 19.86 19.98 19.86 20.94 20.34 21.55 20.34 22.88 21.19 23.97 21.31 25.18 21.67 25.3 21.91 26.15 21.91 27.84 21.43 27.97 20.82 28.45 19.37 29.18 19.25 29.66 19.01 30.14 19.13 30.14 20.7 30.99 21.79 31.11 22.28 32.45 23.12 34.5 23.73 35.71 24.58 36.8 26.15 37.89 27 38.98 28.33 40.07 29.3 40.8 29.3 41.77 29.18 42.62 28.81 42.98 28.93 43.1 29.18 43.95 29.3 44.19 28.93 43.95 23 43.22 22.76 42.01 22.88 42.13 23.61 42.49 24.09 42.25 24.21 39.95 24.21 39.47 23.49 39.1 22.64 37.65 21.07 36.92 20.46 36.8 19.01 36.68 15.98 36.8 15.25 37.89 14.29 38.26 13.68 38.14 13.32 38.5 13.07 38.74 11.98 38.62 11.14 38.74 10.29 38.62 9.56 38.98 9.2 38.98 8.6 38.5 8.23 37.89 7.75 37.53 6.54 39.83 2.18 48.79 0 51.45 1.21 52.3 1.21 53.03 1.57 53.63 1.57 54.48 2.18 54.48 2.54 55.21 3.15 56.3 3.27 58.72 4.12 59.32 4.12 59.81 4.6 60.53 4.72 60.9 5.57 61.86 6.66 62.35 6.66 62.71 7.51 63.08 7.87 63.32 8.6 64.04 9.08 64.77 9.32 64.77 9.69 64.17 11.14 64.17 11.62 65.13 12.35 65.5 13.2 65.5 14.29 65.25 14.65 65.25 15.01 64.04 16.34 63.8 17.19 64.17 18.16 64.29 19.01 64.53 19.61 64.04 20.34 64.53 21.19 64.29 21.79 64.04 22.03 64.29 22.76 64.41 23.37 65.01 23.73 65.01 24.09 64.53 24.21 64.29 24.82 63.44 25.18 62.23 26.03 61.98 26.51 62.11 27.36 62.23 27.72 61.98 28.33 61.98 29.18 61.14 30.14 60.65 30.39 60.77 30.87 61.5 31.84 61.98 32.93 62.11 33.41 62.11 33.41 60.41 34.02 57.14 35.35 56.17 35.59 50.48 37.89 49.4 37.89 47.22 38.98 46.73 39.83 47.22 41.52 47.22 42.13 46.97 42.13 46.61 42.25 45.4 42.01 44.79 42.13 44.55 41.89 43.1 41.77 41.89 42.25 41.16 42.62 40.31 42.86 38.74 43.58 38.26 44.43 38.5 44.91 38.14 45.52 38.26 46.01 38.26 46.37 37.77 46.85 35.84 47.46 32.57 49.64 30.02 52.91 28.33 55.21 26.88 55.69 25.79 55.45 24.94 54.84 24.82 54.84 24.58 54.6 24.33 54.72 23.73 54.48 22.52 54.6 21.55 55.21 20.94 55.21 20.46 54.72 19.49 54.24 18.16 54.12 17.55 54.12 16.71 53.15 16.46 53.03 16.22 52.78 15.62 52.78 15.25 52.54 15.01 52.54 14.65 52.3 13.32 52.66 12.83 52.66 7.51 53.75 7.26 52.91 6.54 52.54 5.93 51.82 5.45 51.21 4.6 50.85 3.87 50.24 2.78 48.91 2.06 48.55 1.57 47.94 0.97 47.34 0.24 46.37 0 45.64 0.36 27.24 12.23 27.24 11.86 26.64 12.11 25.06 12.59 24.7 12.59 23.73 11.86 22.64 11.86 21.55 11.98 19.49 11.62 17.19 11.86 16.83 11.98 16.34 11.98 16.1"/></g></g></svg>