<svg xmlns="http://www.w3.org/2000/svg" viewBox="0 0 56.3 51.09"><defs><style>.cls-1{fill-rule:evenodd;}</style></defs><g id="Layer_2" data-name="Layer 2"><g id="Layer_1-2" data-name="Layer 1"><polygon class="cls-1" points="0 15.86 0.73 15.86 2.54 16.1 3.75 16.71 4.48 17.31 5.21 17.31 6.42 16.46 7.99 16.22 8.72 16.59 9.08 16.59 9.56 16.71 9.69 16.83 10.78 17.68 12.11 17.92 14.04 17.31 16.1 14.29 19.49 10.17 23.73 7.26 26.15 6.42 26.75 5.93 26.88 5.45 26.75 4.72 27.12 4 26.88 3.39 27.48 2.3 29.42 1.33 30.63 0.97 31.6 0.48 33.05 0 34.99 0 35.35 0.36 36.08 0.36 37.53 0.48 38.14 0.36 38.38 0.36 38.62 2.91 41.04 3.03 42.13 3.27 42.49 4 43.34 3.87 43.83 3.15 45.76 3.63 47.7 4.72 49.03 6.42 50.24 6.54 52.54 6.78 53.75 7.87 54.6 8.72 56.17 8.84 56.3 10.05 55.57 11.14 55.81 12.23 55.57 13.2 55.69 14.16 55.69 15.01 55.09 15.98 54.96 18.16 54.24 19.37 54.72 20.1 55.93 19.86 55.45 20.94 54.36 21.79 54.36 23 54.24 24.45 53.27 24.7 53.27 25.67 54.48 26.63 54.84 27.84 53.99 28.33 53.99 29.78 54.84 30.39 55.21 31.48 54.24 32.69 52.91 33.78 52.42 34.63 51.45 34.75 51.21 35.71 51.7 36.92 51.09 37.77 51.09 39.95 50.73 40.8 50.6 43.22 42.74 51.09 41.52 50.12 39.23 49.64 37.17 49.88 36.2 50.24 35.71 49.88 34.14 49.15 33.05 49.15 32.57 48.18 30.87 47.94 28.45 48.3 27.97 47.58 27.36 46.97 27.36 46.13 26.75 45.64 25.79 45.52 24.45 44.67 23.49 44.67 21.67 43.95 20.82 44.31 19.25 43.95 18.52 42.86 17.19 41.77 16.71 40.56 16.59 39.47 16.22 37.77 16.59 36.92 15.5 36.08 14.29 35.59 13.92 34.87 14.04 34.38 14.04 34.02 13.07 33.41 12.35 32.81 11.14 31.84 9.69 30.99 7.75 27.84 7.14 26.88 6.78 27 6.05 26.27 5.69 25.3 4.96 24.58 4.72 23.36 4 22.16 3.63 21.91 3.39 21.19 2.9 20.34 1.94 19.73 1.45 19.25 0.36 18.4 0.36 17.68 0.24 17.07 0.36 16.46 0.12 15.86 0 15.86"/></g></g></svg>